%TF.GenerationSoftware,KiCad,Pcbnew,(7.0.0)*%
%TF.CreationDate,2023-02-28T15:20:59+01:00*%
%TF.ProjectId,breakout-board-attiny,62726561-6b6f-4757-942d-626f6172642d,rev?*%
%TF.SameCoordinates,Original*%
%TF.FileFunction,Copper,L1,Top*%
%TF.FilePolarity,Positive*%
%FSLAX46Y46*%
G04 Gerber Fmt 4.6, Leading zero omitted, Abs format (unit mm)*
G04 Created by KiCad (PCBNEW (7.0.0)) date 2023-02-28 15:20:59*
%MOMM*%
%LPD*%
G01*
G04 APERTURE LIST*
G04 Aperture macros list*
%AMRoundRect*
0 Rectangle with rounded corners*
0 $1 Rounding radius*
0 $2 $3 $4 $5 $6 $7 $8 $9 X,Y pos of 4 corners*
0 Add a 4 corners polygon primitive as box body*
4,1,4,$2,$3,$4,$5,$6,$7,$8,$9,$2,$3,0*
0 Add four circle primitives for the rounded corners*
1,1,$1+$1,$2,$3*
1,1,$1+$1,$4,$5*
1,1,$1+$1,$6,$7*
1,1,$1+$1,$8,$9*
0 Add four rect primitives between the rounded corners*
20,1,$1+$1,$2,$3,$4,$5,0*
20,1,$1+$1,$4,$5,$6,$7,0*
20,1,$1+$1,$6,$7,$8,$9,0*
20,1,$1+$1,$8,$9,$2,$3,0*%
G04 Aperture macros list end*
%TA.AperFunction,SMDPad,CuDef*%
%ADD10RoundRect,0.250000X0.375000X0.625000X-0.375000X0.625000X-0.375000X-0.625000X0.375000X-0.625000X0*%
%TD*%
%TA.AperFunction,SMDPad,CuDef*%
%ADD11RoundRect,0.250000X0.325000X0.650000X-0.325000X0.650000X-0.325000X-0.650000X0.325000X-0.650000X0*%
%TD*%
%TA.AperFunction,SMDPad,CuDef*%
%ADD12RoundRect,0.250000X0.312500X0.625000X-0.312500X0.625000X-0.312500X-0.625000X0.312500X-0.625000X0*%
%TD*%
%TA.AperFunction,SMDPad,CuDef*%
%ADD13RoundRect,0.250000X0.625000X-0.375000X0.625000X0.375000X-0.625000X0.375000X-0.625000X-0.375000X0*%
%TD*%
%TA.AperFunction,SMDPad,CuDef*%
%ADD14RoundRect,0.100000X0.637500X0.100000X-0.637500X0.100000X-0.637500X-0.100000X0.637500X-0.100000X0*%
%TD*%
%TA.AperFunction,ComponentPad*%
%ADD15R,1.700000X1.700000*%
%TD*%
%TA.AperFunction,ComponentPad*%
%ADD16O,1.700000X1.700000*%
%TD*%
%TA.AperFunction,Conductor*%
%ADD17C,0.700000*%
%TD*%
%TA.AperFunction,Conductor*%
%ADD18C,0.350000*%
%TD*%
G04 APERTURE END LIST*
D10*
%TO.P,D2,1,K*%
%TO.N,GND*%
X140849000Y-96990000D03*
%TO.P,D2,2,A*%
%TO.N,Net-(D2-A)*%
X138049000Y-96990000D03*
%TD*%
D11*
%TO.P,C2,1*%
%TO.N,/sVCC*%
X140725000Y-109500000D03*
%TO.P,C2,2*%
%TO.N,GND*%
X137775000Y-109500000D03*
%TD*%
D12*
%TO.P,R1,1*%
%TO.N,/TxD{slash}PB2*%
X140970000Y-100330000D03*
%TO.P,R1,2*%
%TO.N,Net-(D2-A)*%
X138045000Y-100330000D03*
%TD*%
D13*
%TO.P,D1,1,K*%
%TO.N,/sVCC*%
X143500000Y-113150000D03*
%TO.P,D1,2,A*%
%TO.N,VCC*%
X143500000Y-110350000D03*
%TD*%
D14*
%TO.P,U1,1,VCC*%
%TO.N,/sVCC*%
X142112500Y-107050000D03*
%TO.P,U1,2,PA4*%
%TO.N,/XDIR{slash}PA4*%
X142112500Y-106400000D03*
%TO.P,U1,3,PA5*%
%TO.N,/PA5*%
X142112500Y-105750000D03*
%TO.P,U1,4,PA6*%
%TO.N,/PA6*%
X142112500Y-105100000D03*
%TO.P,U1,5,PA7*%
%TO.N,/PA7*%
X142112500Y-104450000D03*
%TO.P,U1,6,PB3*%
%TO.N,/RxD{slash}PB3*%
X142112500Y-103800000D03*
%TO.P,U1,7,PB2*%
%TO.N,/TxD{slash}PB2*%
X142112500Y-103150000D03*
%TO.P,U1,8,PB1*%
%TO.N,/SDA{slash}XCK{slash}PB1*%
X136387500Y-103150000D03*
%TO.P,U1,9,PB0*%
%TO.N,/SCL{slash}XDIR{slash}PB0*%
X136387500Y-103800000D03*
%TO.P,U1,10,~{RESET}/PA0*%
%TO.N,/RESET-UDPI*%
X136387500Y-104450000D03*
%TO.P,U1,11,PA1*%
%TO.N,/TXD{slash}PA1*%
X136387500Y-105100000D03*
%TO.P,U1,12,PA2*%
%TO.N,/RXD{slash}PA2*%
X136387500Y-105750000D03*
%TO.P,U1,13,PA3*%
%TO.N,/XCK{slash}PA3*%
X136387500Y-106400000D03*
%TO.P,U1,14,GND*%
%TO.N,GND*%
X136387500Y-107050000D03*
%TD*%
D11*
%TO.P,C1,1*%
%TO.N,/sVCC*%
X140725000Y-112250000D03*
%TO.P,C1,2*%
%TO.N,GND*%
X137775000Y-112250000D03*
%TD*%
D15*
%TO.P,J1,1,Pin_1*%
%TO.N,VCC*%
X146811999Y-112775999D03*
D16*
%TO.P,J1,2,Pin_2*%
%TO.N,/XDIR{slash}PA4*%
X146811999Y-110235999D03*
%TO.P,J1,3,Pin_3*%
%TO.N,/PA5*%
X146811999Y-107695999D03*
%TO.P,J1,4,Pin_4*%
%TO.N,/PA6*%
X146811999Y-105155999D03*
%TO.P,J1,5,Pin_5*%
%TO.N,/PA7*%
X146811999Y-102615999D03*
%TO.P,J1,6,Pin_6*%
%TO.N,/RxD{slash}PB3*%
X146811999Y-100075999D03*
%TO.P,J1,7,Pin_7*%
%TO.N,/TxD{slash}PB2*%
X146811999Y-97535999D03*
%TD*%
D15*
%TO.P,J2,1,Pin_1*%
%TO.N,GND*%
X131524999Y-112689999D03*
D16*
%TO.P,J2,2,Pin_2*%
%TO.N,/XCK{slash}PA3*%
X131524999Y-110149999D03*
%TO.P,J2,3,Pin_3*%
%TO.N,/RXD{slash}PA2*%
X131524999Y-107609999D03*
%TO.P,J2,4,Pin_4*%
%TO.N,/TXD{slash}PA1*%
X131524999Y-105069999D03*
%TO.P,J2,5,Pin_5*%
%TO.N,/RESET-UDPI*%
X131524999Y-102529999D03*
%TO.P,J2,6,Pin_6*%
%TO.N,/SCL{slash}XDIR{slash}PB0*%
X131524999Y-99989999D03*
%TO.P,J2,7,Pin_7*%
%TO.N,/SDA{slash}XCK{slash}PB1*%
X131524999Y-97449999D03*
%TD*%
D17*
%TO.N,/sVCC*%
X141500000Y-112250000D02*
X140725000Y-112250000D01*
X141500000Y-109500000D02*
X142112500Y-108887500D01*
X142112500Y-108887500D02*
X142112500Y-107150000D01*
X140725000Y-112250000D02*
X140725000Y-109500000D01*
X140725000Y-109500000D02*
X141500000Y-109500000D01*
X142400000Y-113150000D02*
X141500000Y-112250000D01*
X143500000Y-113150000D02*
X142400000Y-113150000D01*
%TO.N,GND*%
X131650000Y-112690000D02*
X134810000Y-112690000D01*
X137775000Y-112250000D02*
X137775000Y-109500000D01*
X137775000Y-109500000D02*
X137000000Y-109500000D01*
X136387500Y-108887500D02*
X136387500Y-107150000D01*
X135250000Y-112250000D02*
X137775000Y-112250000D01*
X134810000Y-112690000D02*
X135250000Y-112250000D01*
X137000000Y-109500000D02*
X136387500Y-108887500D01*
%TO.N,VCC*%
X143500000Y-110350000D02*
X144386000Y-110350000D01*
X144386000Y-110350000D02*
X146812000Y-112776000D01*
X146890000Y-112640000D02*
X146900000Y-112640000D01*
D18*
%TO.N,/RxD{slash}PB3*%
X142112500Y-103800000D02*
X143200000Y-103800000D01*
X146000000Y-101000000D02*
X146900000Y-99940000D01*
X143200000Y-103800000D02*
X146000000Y-101000000D01*
%TO.N,/TxD{slash}PB2*%
X142112500Y-101472500D02*
X140970000Y-100330000D01*
X144500000Y-99800000D02*
X146900000Y-97400000D01*
X142112500Y-103150000D02*
X142850000Y-103150000D01*
X144500000Y-101500000D02*
X144500000Y-99800000D01*
X142112500Y-103150000D02*
X142112500Y-101472500D01*
X142850000Y-103150000D02*
X144500000Y-101500000D01*
%TO.N,/PA7*%
X146020000Y-102480000D02*
X146900000Y-102480000D01*
X144050000Y-104450000D02*
X146020000Y-102480000D01*
X142112500Y-104450000D02*
X144050000Y-104450000D01*
%TO.N,/PA6*%
X142112500Y-105100000D02*
X146820000Y-105100000D01*
X146820000Y-105100000D02*
X146900000Y-105020000D01*
%TO.N,/RESET-UDPI*%
X132500000Y-102500000D02*
X131680000Y-102500000D01*
X131680000Y-102500000D02*
X131650000Y-102530000D01*
X134450000Y-104450000D02*
X132500000Y-102500000D01*
X136387500Y-104450000D02*
X134450000Y-104450000D01*
%TO.N,/PA5*%
X144000000Y-105750000D02*
X145810000Y-107560000D01*
X145810000Y-107560000D02*
X146900000Y-107560000D01*
X142112500Y-105750000D02*
X144000000Y-105750000D01*
%TO.N,/XDIR{slash}PA4*%
X146000000Y-109250000D02*
X146900000Y-110100000D01*
X143150000Y-106400000D02*
X146000000Y-109250000D01*
X142112500Y-106400000D02*
X143150000Y-106400000D01*
%TO.N,/SDA{slash}XCK{slash}PB1*%
X134250000Y-100050000D02*
X131650000Y-97450000D01*
X136387500Y-103150000D02*
X135650000Y-103150000D01*
X134250000Y-101750000D02*
X134250000Y-100050000D01*
X135650000Y-103150000D02*
X134250000Y-101750000D01*
%TO.N,/SCL{slash}XDIR{slash}PB0*%
X132250000Y-100750000D02*
X132250000Y-100500000D01*
X135300000Y-103800000D02*
X132250000Y-100750000D01*
X136387500Y-103800000D02*
X135300000Y-103800000D01*
X131740000Y-99990000D02*
X131650000Y-99990000D01*
X132250000Y-100500000D02*
X131740000Y-99990000D01*
%TO.N,/TXD{slash}PA1*%
X136357500Y-105070000D02*
X131650000Y-105070000D01*
X136387500Y-105100000D02*
X136357500Y-105070000D01*
%TO.N,/RXD{slash}PA2*%
X134500000Y-105750000D02*
X132640000Y-107610000D01*
X132640000Y-107610000D02*
X131650000Y-107610000D01*
X136387500Y-105750000D02*
X134500000Y-105750000D01*
%TO.N,/XCK{slash}PA3*%
X136387500Y-106400000D02*
X135350000Y-106400000D01*
X131650000Y-110100000D02*
X131650000Y-110150000D01*
X135350000Y-106400000D02*
X131650000Y-110100000D01*
%TO.N,Net-(D2-A)*%
X138049000Y-100326000D02*
X138045000Y-100330000D01*
X138049000Y-96990000D02*
X138049000Y-100326000D01*
%TD*%
%TA.AperFunction,Conductor*%
%TO.N,GND*%
G36*
X137471165Y-95419726D02*
G01*
X137516919Y-95471443D01*
X137527920Y-95539612D01*
X137500754Y-95603095D01*
X137443847Y-95642206D01*
X137358122Y-95670611D01*
X137358115Y-95670613D01*
X137351262Y-95672885D01*
X137345121Y-95676672D01*
X137345112Y-95676677D01*
X137206497Y-95762177D01*
X137200348Y-95765970D01*
X137195240Y-95771077D01*
X137195236Y-95771081D01*
X137080081Y-95886236D01*
X137080077Y-95886240D01*
X137074970Y-95891348D01*
X137071178Y-95897495D01*
X137071177Y-95897497D01*
X136985677Y-96036112D01*
X136985672Y-96036121D01*
X136981885Y-96042262D01*
X136979613Y-96049115D01*
X136979611Y-96049122D01*
X136928241Y-96204149D01*
X136928239Y-96204157D01*
X136926113Y-96210574D01*
X136925425Y-96217302D01*
X136925425Y-96217305D01*
X136915819Y-96311325D01*
X136915818Y-96311340D01*
X136915500Y-96314455D01*
X136915500Y-96317601D01*
X136915500Y-96317602D01*
X136915500Y-97662395D01*
X136915500Y-97662414D01*
X136915501Y-97665544D01*
X136915819Y-97668657D01*
X136915820Y-97668676D01*
X136925248Y-97760959D01*
X136926113Y-97769426D01*
X136928244Y-97775857D01*
X136979611Y-97930877D01*
X136979612Y-97930880D01*
X136981885Y-97937738D01*
X136985674Y-97943881D01*
X136985677Y-97943887D01*
X137009995Y-97983312D01*
X137074970Y-98088652D01*
X137200348Y-98214030D01*
X137306597Y-98279565D01*
X137349777Y-98324672D01*
X137365500Y-98385104D01*
X137365500Y-98970980D01*
X137349778Y-99031412D01*
X137306597Y-99076518D01*
X137264999Y-99102175D01*
X137264993Y-99102179D01*
X137258848Y-99105970D01*
X137253741Y-99111076D01*
X137253737Y-99111080D01*
X137138581Y-99226236D01*
X137138577Y-99226240D01*
X137133470Y-99231348D01*
X137129678Y-99237495D01*
X137129677Y-99237497D01*
X137044177Y-99376112D01*
X137044172Y-99376121D01*
X137040385Y-99382262D01*
X137038113Y-99389115D01*
X137038111Y-99389122D01*
X136986741Y-99544149D01*
X136986739Y-99544157D01*
X136984613Y-99550574D01*
X136983925Y-99557302D01*
X136983925Y-99557305D01*
X136974319Y-99651325D01*
X136974318Y-99651340D01*
X136974000Y-99654455D01*
X136974000Y-99657601D01*
X136974000Y-99657602D01*
X136974000Y-101002395D01*
X136974000Y-101002414D01*
X136974001Y-101005544D01*
X136974319Y-101008657D01*
X136974320Y-101008676D01*
X136983638Y-101099885D01*
X136984613Y-101109426D01*
X136986744Y-101115857D01*
X137038111Y-101270877D01*
X137038112Y-101270880D01*
X137040385Y-101277738D01*
X137044174Y-101283881D01*
X137044177Y-101283887D01*
X137094756Y-101365887D01*
X137133470Y-101428652D01*
X137258848Y-101554030D01*
X137357919Y-101615137D01*
X137403612Y-101643322D01*
X137403614Y-101643323D01*
X137409762Y-101647115D01*
X137578074Y-101702887D01*
X137681955Y-101713500D01*
X138408044Y-101713499D01*
X138511926Y-101702887D01*
X138680238Y-101647115D01*
X138831152Y-101554030D01*
X138956530Y-101428652D01*
X139049615Y-101277738D01*
X139105387Y-101109426D01*
X139116000Y-101005545D01*
X139115999Y-99654456D01*
X139105387Y-99550574D01*
X139049615Y-99382262D01*
X139027188Y-99345903D01*
X139000163Y-99302088D01*
X138956530Y-99231348D01*
X138831152Y-99105970D01*
X138825003Y-99102177D01*
X138824999Y-99102174D01*
X138791404Y-99081453D01*
X138748223Y-99036346D01*
X138732500Y-98975914D01*
X138732500Y-98385104D01*
X138748223Y-98324672D01*
X138791403Y-98279565D01*
X138897652Y-98214030D01*
X139023030Y-98088652D01*
X139116115Y-97937738D01*
X139171887Y-97769426D01*
X139182500Y-97665545D01*
X139182500Y-97661829D01*
X139724001Y-97661829D01*
X139724321Y-97668111D01*
X139733805Y-97760959D01*
X139736623Y-97774122D01*
X139787370Y-97927267D01*
X139793432Y-97940266D01*
X139877890Y-98077194D01*
X139886794Y-98088455D01*
X140000544Y-98202205D01*
X140011805Y-98211109D01*
X140148733Y-98295567D01*
X140161732Y-98301629D01*
X140314874Y-98352375D01*
X140328041Y-98355194D01*
X140420890Y-98364680D01*
X140427168Y-98365000D01*
X140582674Y-98365000D01*
X140595549Y-98361549D01*
X140599000Y-98348674D01*
X140599000Y-98348673D01*
X141099000Y-98348673D01*
X141102450Y-98361548D01*
X141115326Y-98364999D01*
X141270829Y-98364999D01*
X141277111Y-98364678D01*
X141369959Y-98355194D01*
X141383122Y-98352376D01*
X141536267Y-98301629D01*
X141549266Y-98295567D01*
X141686194Y-98211109D01*
X141697455Y-98202205D01*
X141811205Y-98088455D01*
X141820109Y-98077194D01*
X141904567Y-97940266D01*
X141910629Y-97927267D01*
X141961375Y-97774125D01*
X141964194Y-97760958D01*
X141973680Y-97668109D01*
X141974000Y-97661832D01*
X141974000Y-97256326D01*
X141970549Y-97243450D01*
X141957674Y-97240000D01*
X141115326Y-97240000D01*
X141102450Y-97243450D01*
X141099000Y-97256326D01*
X141099000Y-98348673D01*
X140599000Y-98348673D01*
X140599000Y-97256326D01*
X140595549Y-97243450D01*
X140582674Y-97240000D01*
X139740327Y-97240000D01*
X139727451Y-97243450D01*
X139724001Y-97256326D01*
X139724001Y-97661829D01*
X139182500Y-97661829D01*
X139182499Y-96314456D01*
X139171887Y-96210574D01*
X139116115Y-96042262D01*
X139099985Y-96016112D01*
X139084137Y-95990419D01*
X139023030Y-95891348D01*
X138897652Y-95765970D01*
X138790885Y-95700115D01*
X138752887Y-95676677D01*
X138752881Y-95676674D01*
X138746738Y-95672885D01*
X138739880Y-95670612D01*
X138739877Y-95670611D01*
X138654153Y-95642206D01*
X138597246Y-95603095D01*
X138570080Y-95539612D01*
X138581081Y-95471443D01*
X138626835Y-95419726D01*
X138693156Y-95400500D01*
X140231866Y-95400500D01*
X140298187Y-95419726D01*
X140343941Y-95471442D01*
X140354942Y-95539612D01*
X140327777Y-95603095D01*
X140270870Y-95642206D01*
X140161732Y-95678370D01*
X140148733Y-95684432D01*
X140011805Y-95768890D01*
X140000544Y-95777794D01*
X139886794Y-95891544D01*
X139877890Y-95902805D01*
X139793432Y-96039733D01*
X139787370Y-96052732D01*
X139736624Y-96205874D01*
X139733805Y-96219041D01*
X139724319Y-96311890D01*
X139724000Y-96318168D01*
X139724000Y-96723674D01*
X139727450Y-96736549D01*
X139740326Y-96740000D01*
X141957673Y-96740000D01*
X141970548Y-96736549D01*
X141973999Y-96723674D01*
X141973999Y-96318171D01*
X141973678Y-96311888D01*
X141964194Y-96219040D01*
X141961376Y-96205877D01*
X141910629Y-96052732D01*
X141904567Y-96039733D01*
X141820109Y-95902805D01*
X141811205Y-95891544D01*
X141697455Y-95777794D01*
X141686194Y-95768890D01*
X141549266Y-95684432D01*
X141536267Y-95678370D01*
X141427130Y-95642206D01*
X141370223Y-95603095D01*
X141343058Y-95539612D01*
X141354059Y-95471442D01*
X141399813Y-95419726D01*
X141466134Y-95400500D01*
X147274303Y-95400500D01*
X147285110Y-95400972D01*
X147480250Y-95418044D01*
X147501535Y-95421797D01*
X147567840Y-95439563D01*
X147691051Y-95472577D01*
X147711352Y-95479966D01*
X147889175Y-95562886D01*
X147907881Y-95573686D01*
X148066043Y-95684432D01*
X148068598Y-95686221D01*
X148085156Y-95700115D01*
X148223884Y-95838843D01*
X148237778Y-95855401D01*
X148350309Y-96016112D01*
X148361114Y-96034828D01*
X148440875Y-96205874D01*
X148444030Y-96212640D01*
X148451423Y-96232952D01*
X148502202Y-96422464D01*
X148505955Y-96443749D01*
X148523028Y-96638889D01*
X148523500Y-96649697D01*
X148523500Y-113450303D01*
X148523028Y-113461111D01*
X148505955Y-113656250D01*
X148502202Y-113677535D01*
X148451423Y-113867047D01*
X148444030Y-113887359D01*
X148361116Y-114065169D01*
X148350309Y-114083887D01*
X148237778Y-114244598D01*
X148223884Y-114261156D01*
X148085156Y-114399884D01*
X148068598Y-114413778D01*
X147907887Y-114526309D01*
X147889169Y-114537116D01*
X147711359Y-114620030D01*
X147691047Y-114627423D01*
X147501535Y-114678202D01*
X147480250Y-114681955D01*
X147302396Y-114697515D01*
X147285109Y-114699028D01*
X147274303Y-114699500D01*
X130801697Y-114699500D01*
X130790890Y-114699028D01*
X130771509Y-114697332D01*
X130595749Y-114681955D01*
X130574464Y-114678202D01*
X130384952Y-114627423D01*
X130364640Y-114620030D01*
X130186830Y-114537116D01*
X130168115Y-114526310D01*
X130007401Y-114413778D01*
X129990843Y-114399884D01*
X129852115Y-114261156D01*
X129838221Y-114244598D01*
X129820569Y-114219388D01*
X129725686Y-114083881D01*
X129714886Y-114065175D01*
X129631966Y-113887352D01*
X129624576Y-113867047D01*
X129623731Y-113863894D01*
X129573797Y-113677535D01*
X129570044Y-113656249D01*
X129569195Y-113646549D01*
X129563768Y-113584518D01*
X130175000Y-113584518D01*
X130175353Y-113591114D01*
X130180573Y-113639667D01*
X130184111Y-113654641D01*
X130228547Y-113773777D01*
X130236962Y-113789189D01*
X130312498Y-113890092D01*
X130324907Y-113902501D01*
X130425810Y-113978037D01*
X130441222Y-113986452D01*
X130560358Y-114030888D01*
X130575332Y-114034426D01*
X130623885Y-114039646D01*
X130630482Y-114040000D01*
X131258674Y-114040000D01*
X131271549Y-114036549D01*
X131275000Y-114023674D01*
X131775000Y-114023674D01*
X131778450Y-114036549D01*
X131791326Y-114040000D01*
X132419518Y-114040000D01*
X132426114Y-114039646D01*
X132474667Y-114034426D01*
X132489641Y-114030888D01*
X132608777Y-113986452D01*
X132624189Y-113978037D01*
X132725092Y-113902501D01*
X132737501Y-113890092D01*
X132813037Y-113789189D01*
X132821452Y-113773777D01*
X132865888Y-113654641D01*
X132869426Y-113639667D01*
X132874646Y-113591114D01*
X132875000Y-113584518D01*
X132875000Y-112956326D01*
X132872455Y-112946829D01*
X136700001Y-112946829D01*
X136700321Y-112953111D01*
X136709805Y-113045959D01*
X136712623Y-113059122D01*
X136763370Y-113212267D01*
X136769432Y-113225266D01*
X136853890Y-113362194D01*
X136862794Y-113373455D01*
X136976544Y-113487205D01*
X136987805Y-113496109D01*
X137124733Y-113580567D01*
X137137732Y-113586629D01*
X137290874Y-113637375D01*
X137304041Y-113640194D01*
X137396890Y-113649680D01*
X137403168Y-113650000D01*
X137508674Y-113650000D01*
X137521549Y-113646549D01*
X137525000Y-113633674D01*
X137525000Y-113633673D01*
X138025000Y-113633673D01*
X138028450Y-113646548D01*
X138041326Y-113649999D01*
X138146829Y-113649999D01*
X138153111Y-113649678D01*
X138245959Y-113640194D01*
X138259122Y-113637376D01*
X138412267Y-113586629D01*
X138425266Y-113580567D01*
X138562194Y-113496109D01*
X138573455Y-113487205D01*
X138687205Y-113373455D01*
X138696109Y-113362194D01*
X138780567Y-113225266D01*
X138786629Y-113212267D01*
X138837375Y-113059125D01*
X138840194Y-113045958D01*
X138849680Y-112953109D01*
X138849970Y-112947414D01*
X139641500Y-112947414D01*
X139641501Y-112950544D01*
X139641819Y-112953657D01*
X139641820Y-112953676D01*
X139651248Y-113045959D01*
X139652113Y-113054426D01*
X139654244Y-113060857D01*
X139705611Y-113215877D01*
X139705612Y-113215880D01*
X139707885Y-113222738D01*
X139711674Y-113228881D01*
X139711677Y-113228887D01*
X139768992Y-113321809D01*
X139800970Y-113373652D01*
X139926348Y-113499030D01*
X139984358Y-113534811D01*
X140071112Y-113588322D01*
X140071114Y-113588323D01*
X140077262Y-113592115D01*
X140245574Y-113647887D01*
X140349455Y-113658500D01*
X141100544Y-113658499D01*
X141204426Y-113647887D01*
X141372738Y-113592115D01*
X141378889Y-113588320D01*
X141378893Y-113588319D01*
X141447177Y-113546201D01*
X141499073Y-113528444D01*
X141553552Y-113534811D01*
X141599953Y-113564055D01*
X141764719Y-113728821D01*
X141771535Y-113736215D01*
X141801776Y-113771818D01*
X141801779Y-113771820D01*
X141806129Y-113776942D01*
X141869910Y-113825427D01*
X141872506Y-113827457D01*
X141934913Y-113877621D01*
X141940935Y-113880607D01*
X141945151Y-113883302D01*
X141949431Y-113885877D01*
X141954787Y-113889949D01*
X141960891Y-113892773D01*
X142027440Y-113923562D01*
X142030470Y-113925013D01*
X142102203Y-113960590D01*
X142108731Y-113962213D01*
X142113419Y-113963935D01*
X142118154Y-113965530D01*
X142124263Y-113968357D01*
X142202474Y-113985572D01*
X142205692Y-113986325D01*
X142249417Y-113997200D01*
X142307170Y-114029852D01*
X142401348Y-114124030D01*
X142500419Y-114185137D01*
X142546112Y-114213322D01*
X142546114Y-114213323D01*
X142552262Y-114217115D01*
X142720574Y-114272887D01*
X142824455Y-114283500D01*
X144175544Y-114283499D01*
X144279426Y-114272887D01*
X144447738Y-114217115D01*
X144598652Y-114124030D01*
X144724030Y-113998652D01*
X144817115Y-113847738D01*
X144872887Y-113679426D01*
X144883500Y-113575545D01*
X144883499Y-112724456D01*
X144872887Y-112620574D01*
X144817115Y-112452262D01*
X144724030Y-112301348D01*
X144598652Y-112175970D01*
X144546809Y-112143992D01*
X144453887Y-112086677D01*
X144453881Y-112086674D01*
X144447738Y-112082885D01*
X144440880Y-112080612D01*
X144440877Y-112080611D01*
X144285850Y-112029241D01*
X144285844Y-112029239D01*
X144279426Y-112027113D01*
X144272696Y-112026425D01*
X144272694Y-112026425D01*
X144178674Y-112016819D01*
X144178660Y-112016818D01*
X144175545Y-112016500D01*
X144172397Y-112016500D01*
X142827604Y-112016500D01*
X142827584Y-112016500D01*
X142824456Y-112016501D01*
X142821343Y-112016818D01*
X142821323Y-112016820D01*
X142727313Y-112026424D01*
X142727307Y-112026425D01*
X142720574Y-112027113D01*
X142714150Y-112029241D01*
X142714139Y-112029244D01*
X142620900Y-112060140D01*
X142553301Y-112063091D01*
X142494217Y-112030115D01*
X142135291Y-111671189D01*
X142128464Y-111663784D01*
X142098223Y-111628181D01*
X142098220Y-111628178D01*
X142093871Y-111623058D01*
X142030141Y-111574611D01*
X142027496Y-111572544D01*
X141970324Y-111526588D01*
X141970320Y-111526585D01*
X141965087Y-111522379D01*
X141959067Y-111519393D01*
X141954814Y-111516675D01*
X141950558Y-111514114D01*
X141945213Y-111510051D01*
X141901673Y-111489907D01*
X141872529Y-111476423D01*
X141869521Y-111474981D01*
X141841800Y-111461233D01*
X141803279Y-111431460D01*
X141779190Y-111389149D01*
X141744388Y-111284122D01*
X141742115Y-111277262D01*
X141649030Y-111126348D01*
X141619819Y-111097137D01*
X141592939Y-111056909D01*
X141583500Y-111009456D01*
X141583500Y-110740544D01*
X141592939Y-110693091D01*
X141619819Y-110652863D01*
X141619818Y-110652863D01*
X141649030Y-110623652D01*
X141742115Y-110472738D01*
X141778001Y-110364435D01*
X141807806Y-110315980D01*
X141850457Y-110289452D01*
X141850119Y-110288721D01*
X141856035Y-110285983D01*
X141856118Y-110285932D01*
X141856126Y-110285929D01*
X141862600Y-110283748D01*
X141868374Y-110280272D01*
X141872898Y-110278180D01*
X141877368Y-110275962D01*
X141883690Y-110273641D01*
X141925717Y-110246777D01*
X141988302Y-110227328D01*
X142052060Y-110242498D01*
X142099180Y-110288049D01*
X142116500Y-110351257D01*
X142116500Y-110772395D01*
X142116500Y-110772414D01*
X142116501Y-110775544D01*
X142116819Y-110778657D01*
X142116820Y-110778676D01*
X142120487Y-110814568D01*
X142127113Y-110879426D01*
X142129244Y-110885857D01*
X142180611Y-111040877D01*
X142180612Y-111040880D01*
X142182885Y-111047738D01*
X142186674Y-111053881D01*
X142186677Y-111053887D01*
X142228219Y-111121236D01*
X142275970Y-111198652D01*
X142401348Y-111324030D01*
X142487532Y-111377189D01*
X142546112Y-111413322D01*
X142546114Y-111413323D01*
X142552262Y-111417115D01*
X142720574Y-111472887D01*
X142824455Y-111483500D01*
X144175544Y-111483499D01*
X144234744Y-111477451D01*
X144288906Y-111483982D01*
X144335025Y-111513128D01*
X145417181Y-112595283D01*
X145444061Y-112635511D01*
X145453500Y-112682964D01*
X145453500Y-113674638D01*
X145453852Y-113677918D01*
X145453853Y-113677924D01*
X145454014Y-113679426D01*
X145460011Y-113735201D01*
X145462717Y-113742458D01*
X145462719Y-113742463D01*
X145504279Y-113853887D01*
X145511111Y-113872204D01*
X145516425Y-113879303D01*
X145516426Y-113879304D01*
X145579397Y-113963424D01*
X145598739Y-113989261D01*
X145715796Y-114076889D01*
X145852799Y-114127989D01*
X145913362Y-114134500D01*
X147707328Y-114134500D01*
X147710638Y-114134500D01*
X147771201Y-114127989D01*
X147908204Y-114076889D01*
X148025261Y-113989261D01*
X148112889Y-113872204D01*
X148163989Y-113735201D01*
X148170500Y-113674638D01*
X148170500Y-111877362D01*
X148163989Y-111816799D01*
X148112889Y-111679796D01*
X148025261Y-111562739D01*
X148004089Y-111546890D01*
X147915304Y-111480426D01*
X147915303Y-111480425D01*
X147908204Y-111475111D01*
X147899895Y-111472011D01*
X147899888Y-111472008D01*
X147790404Y-111431172D01*
X147740869Y-111397157D01*
X147713142Y-111343847D01*
X147713735Y-111283760D01*
X147742505Y-111231013D01*
X147887722Y-111073268D01*
X148010860Y-110884791D01*
X148101296Y-110678616D01*
X148156564Y-110460368D01*
X148175156Y-110236000D01*
X148156564Y-110011632D01*
X148101296Y-109793384D01*
X148010860Y-109587209D01*
X147887722Y-109398732D01*
X147784567Y-109286677D01*
X147738711Y-109236864D01*
X147738708Y-109236861D01*
X147735240Y-109233094D01*
X147659181Y-109173894D01*
X147561623Y-109097960D01*
X147561615Y-109097955D01*
X147557576Y-109094811D01*
X147553066Y-109092370D01*
X147553061Y-109092367D01*
X147521070Y-109075055D01*
X147473564Y-109029474D01*
X147456086Y-108966000D01*
X147473564Y-108902526D01*
X147521070Y-108856945D01*
X147521109Y-108856923D01*
X147557576Y-108837189D01*
X147735240Y-108698906D01*
X147887722Y-108533268D01*
X148010860Y-108344791D01*
X148101296Y-108138616D01*
X148156564Y-107920368D01*
X148175156Y-107696000D01*
X148156564Y-107471632D01*
X148101296Y-107253384D01*
X148010860Y-107047209D01*
X147887722Y-106858732D01*
X147735240Y-106693094D01*
X147680890Y-106650791D01*
X147561623Y-106557960D01*
X147561615Y-106557955D01*
X147557576Y-106554811D01*
X147553064Y-106552369D01*
X147553061Y-106552367D01*
X147521070Y-106535055D01*
X147473564Y-106489474D01*
X147456086Y-106426000D01*
X147473564Y-106362526D01*
X147521070Y-106316945D01*
X147521109Y-106316923D01*
X147557576Y-106297189D01*
X147735240Y-106158906D01*
X147887722Y-105993268D01*
X148010860Y-105804791D01*
X148101296Y-105598616D01*
X148156564Y-105380368D01*
X148175156Y-105156000D01*
X148156564Y-104931632D01*
X148101296Y-104713384D01*
X148010860Y-104507209D01*
X147887722Y-104318732D01*
X147879790Y-104310116D01*
X147738711Y-104156864D01*
X147738708Y-104156861D01*
X147735240Y-104153094D01*
X147699144Y-104124999D01*
X147561623Y-104017960D01*
X147561615Y-104017955D01*
X147557576Y-104014811D01*
X147553064Y-104012369D01*
X147553061Y-104012367D01*
X147521070Y-103995055D01*
X147473564Y-103949474D01*
X147456086Y-103886000D01*
X147473564Y-103822526D01*
X147521070Y-103776945D01*
X147521109Y-103776923D01*
X147557576Y-103757189D01*
X147735240Y-103618906D01*
X147887722Y-103453268D01*
X148010860Y-103264791D01*
X148101296Y-103058616D01*
X148156564Y-102840368D01*
X148175156Y-102616000D01*
X148156564Y-102391632D01*
X148101296Y-102173384D01*
X148010860Y-101967209D01*
X147887722Y-101778732D01*
X147823076Y-101708508D01*
X147738711Y-101616864D01*
X147738708Y-101616861D01*
X147735240Y-101613094D01*
X147722597Y-101603253D01*
X147561623Y-101477960D01*
X147561615Y-101477955D01*
X147557576Y-101474811D01*
X147553066Y-101472370D01*
X147553061Y-101472367D01*
X147521070Y-101455055D01*
X147473564Y-101409474D01*
X147456086Y-101346000D01*
X147473564Y-101282526D01*
X147521070Y-101236945D01*
X147521109Y-101236923D01*
X147557576Y-101217189D01*
X147735240Y-101078906D01*
X147887722Y-100913268D01*
X148010860Y-100724791D01*
X148101296Y-100518616D01*
X148156564Y-100300368D01*
X148175156Y-100076000D01*
X148156564Y-99851632D01*
X148101296Y-99633384D01*
X148010860Y-99427209D01*
X147887722Y-99238732D01*
X147884246Y-99234956D01*
X147738711Y-99076864D01*
X147738708Y-99076861D01*
X147735240Y-99073094D01*
X147681688Y-99031412D01*
X147561623Y-98937960D01*
X147561615Y-98937955D01*
X147557576Y-98934811D01*
X147553066Y-98932370D01*
X147553061Y-98932367D01*
X147521070Y-98915055D01*
X147473564Y-98869474D01*
X147456086Y-98806000D01*
X147473564Y-98742526D01*
X147521070Y-98696945D01*
X147521109Y-98696923D01*
X147557576Y-98677189D01*
X147735240Y-98538906D01*
X147887722Y-98373268D01*
X148010860Y-98184791D01*
X148101296Y-97978616D01*
X148156564Y-97760368D01*
X148175156Y-97536000D01*
X148156564Y-97311632D01*
X148101296Y-97093384D01*
X148010860Y-96887209D01*
X147887722Y-96698732D01*
X147735240Y-96533094D01*
X147722597Y-96523253D01*
X147561623Y-96397960D01*
X147561615Y-96397955D01*
X147557576Y-96394811D01*
X147553071Y-96392373D01*
X147553065Y-96392369D01*
X147364080Y-96290096D01*
X147364074Y-96290093D01*
X147359574Y-96287658D01*
X147354733Y-96285996D01*
X147354726Y-96285993D01*
X147151488Y-96216222D01*
X147151487Y-96216221D01*
X147146635Y-96214556D01*
X147141585Y-96213713D01*
X147141576Y-96213711D01*
X146929631Y-96178344D01*
X146929622Y-96178343D01*
X146924569Y-96177500D01*
X146699431Y-96177500D01*
X146694378Y-96178343D01*
X146694368Y-96178344D01*
X146482423Y-96213711D01*
X146482411Y-96213713D01*
X146477365Y-96214556D01*
X146472515Y-96216220D01*
X146472511Y-96216222D01*
X146269273Y-96285993D01*
X146269262Y-96285997D01*
X146264426Y-96287658D01*
X146259929Y-96290091D01*
X146259919Y-96290096D01*
X146070934Y-96392369D01*
X146070922Y-96392376D01*
X146066424Y-96394811D01*
X146062389Y-96397951D01*
X146062376Y-96397960D01*
X145892801Y-96529948D01*
X145892795Y-96529952D01*
X145888760Y-96533094D01*
X145885297Y-96536855D01*
X145885288Y-96536864D01*
X145739753Y-96694956D01*
X145739747Y-96694963D01*
X145736278Y-96698732D01*
X145733481Y-96703012D01*
X145733474Y-96703022D01*
X145615942Y-96882920D01*
X145613140Y-96887209D01*
X145611085Y-96891892D01*
X145611080Y-96891903D01*
X145524764Y-97088687D01*
X145522704Y-97093384D01*
X145521446Y-97098349D01*
X145521445Y-97098354D01*
X145468695Y-97306657D01*
X145468693Y-97306666D01*
X145467436Y-97311632D01*
X145467012Y-97316741D01*
X145467011Y-97316751D01*
X145456394Y-97444883D01*
X145448844Y-97536000D01*
X145449268Y-97541117D01*
X145467011Y-97755248D01*
X145467012Y-97755256D01*
X145467436Y-97760368D01*
X145468695Y-97765342D01*
X145468697Y-97765350D01*
X145471473Y-97776312D01*
X145470819Y-97839670D01*
X145438949Y-97894434D01*
X144033943Y-99299440D01*
X144028491Y-99304572D01*
X143990253Y-99338448D01*
X143990245Y-99338456D01*
X143984635Y-99343427D01*
X143980375Y-99349597D01*
X143980369Y-99349605D01*
X143951354Y-99391640D01*
X143946919Y-99397669D01*
X143915396Y-99437906D01*
X143915393Y-99437910D01*
X143910777Y-99443803D01*
X143907703Y-99450630D01*
X143907700Y-99450637D01*
X143906822Y-99452588D01*
X143895811Y-99472109D01*
X143894608Y-99473851D01*
X143894601Y-99473862D01*
X143890346Y-99480029D01*
X143887688Y-99487036D01*
X143887686Y-99487041D01*
X143869569Y-99534810D01*
X143866704Y-99541726D01*
X143845737Y-99588314D01*
X143845733Y-99588324D01*
X143842656Y-99595163D01*
X143841303Y-99602542D01*
X143841302Y-99602547D01*
X143840920Y-99604631D01*
X143834902Y-99626219D01*
X143834148Y-99628207D01*
X143834146Y-99628212D01*
X143831487Y-99635226D01*
X143830583Y-99642665D01*
X143830582Y-99642672D01*
X143824423Y-99693397D01*
X143823296Y-99700799D01*
X143814088Y-99751047D01*
X143814087Y-99751051D01*
X143812736Y-99758428D01*
X143813188Y-99765907D01*
X143813188Y-99765915D01*
X143816274Y-99816917D01*
X143816500Y-99824404D01*
X143816500Y-101165523D01*
X143807061Y-101212976D01*
X143780181Y-101253204D01*
X143007681Y-102025704D01*
X142958318Y-102055954D01*
X142900602Y-102060496D01*
X142847115Y-102038341D01*
X142809515Y-101994318D01*
X142796000Y-101938023D01*
X142796000Y-101496904D01*
X142796226Y-101489417D01*
X142796919Y-101477960D01*
X142799764Y-101430928D01*
X142789200Y-101373286D01*
X142788077Y-101365910D01*
X142781013Y-101307726D01*
X142777603Y-101298737D01*
X142771575Y-101277114D01*
X142769844Y-101267663D01*
X142745795Y-101214231D01*
X142742939Y-101207338D01*
X142722154Y-101152529D01*
X142716696Y-101144622D01*
X142705667Y-101125067D01*
X142701723Y-101116303D01*
X142688860Y-101099885D01*
X142665585Y-101070176D01*
X142661146Y-101064143D01*
X142632124Y-101022097D01*
X142632123Y-101022096D01*
X142627865Y-101015927D01*
X142584008Y-100977073D01*
X142578554Y-100971939D01*
X142077318Y-100470703D01*
X142050438Y-100430475D01*
X142040999Y-100383022D01*
X142040999Y-99657605D01*
X142040999Y-99657602D01*
X142040999Y-99654456D01*
X142030387Y-99550574D01*
X141974615Y-99382262D01*
X141952188Y-99345903D01*
X141925163Y-99302088D01*
X141881530Y-99231348D01*
X141756152Y-99105970D01*
X141649500Y-99040186D01*
X141611387Y-99016677D01*
X141611381Y-99016674D01*
X141605238Y-99012885D01*
X141598380Y-99010612D01*
X141598377Y-99010611D01*
X141443350Y-98959241D01*
X141443344Y-98959239D01*
X141436926Y-98957113D01*
X141430196Y-98956425D01*
X141430194Y-98956425D01*
X141336174Y-98946819D01*
X141336160Y-98946818D01*
X141333045Y-98946500D01*
X141329897Y-98946500D01*
X140610104Y-98946500D01*
X140610084Y-98946500D01*
X140606956Y-98946501D01*
X140603843Y-98946818D01*
X140603823Y-98946820D01*
X140509813Y-98956424D01*
X140509807Y-98956425D01*
X140503074Y-98957113D01*
X140496644Y-98959243D01*
X140496642Y-98959244D01*
X140341622Y-99010611D01*
X140341615Y-99010613D01*
X140334762Y-99012885D01*
X140328621Y-99016672D01*
X140328612Y-99016677D01*
X140189997Y-99102177D01*
X140183848Y-99105970D01*
X140178740Y-99111077D01*
X140178736Y-99111081D01*
X140063581Y-99226236D01*
X140063577Y-99226240D01*
X140058470Y-99231348D01*
X140054678Y-99237495D01*
X140054677Y-99237497D01*
X139969177Y-99376112D01*
X139969172Y-99376121D01*
X139965385Y-99382262D01*
X139963113Y-99389115D01*
X139963111Y-99389122D01*
X139911741Y-99544149D01*
X139911739Y-99544157D01*
X139909613Y-99550574D01*
X139908925Y-99557302D01*
X139908925Y-99557305D01*
X139899319Y-99651325D01*
X139899318Y-99651340D01*
X139899000Y-99654455D01*
X139899000Y-99657601D01*
X139899000Y-99657602D01*
X139899000Y-101002395D01*
X139899000Y-101002414D01*
X139899001Y-101005544D01*
X139899319Y-101008657D01*
X139899320Y-101008676D01*
X139908638Y-101099885D01*
X139909613Y-101109426D01*
X139911744Y-101115857D01*
X139963111Y-101270877D01*
X139963112Y-101270880D01*
X139965385Y-101277738D01*
X139969174Y-101283881D01*
X139969177Y-101283887D01*
X140019756Y-101365887D01*
X140058470Y-101428652D01*
X140183848Y-101554030D01*
X140282919Y-101615137D01*
X140328612Y-101643322D01*
X140328614Y-101643323D01*
X140334762Y-101647115D01*
X140503074Y-101702887D01*
X140606955Y-101713500D01*
X141305000Y-101713499D01*
X141367000Y-101730112D01*
X141412387Y-101775499D01*
X141429000Y-101837499D01*
X141429000Y-102333560D01*
X141414990Y-102390815D01*
X141376127Y-102435132D01*
X141331640Y-102452434D01*
X141332059Y-102453998D01*
X141324209Y-102456100D01*
X141316150Y-102457162D01*
X141308641Y-102460271D01*
X141308638Y-102460273D01*
X141175634Y-102515364D01*
X141175626Y-102515368D01*
X141168124Y-102518476D01*
X141161680Y-102523419D01*
X141161674Y-102523424D01*
X141047460Y-102611065D01*
X141047455Y-102611069D01*
X141041013Y-102616013D01*
X141036069Y-102622455D01*
X141036065Y-102622460D01*
X140948424Y-102736674D01*
X140948419Y-102736680D01*
X140943476Y-102743124D01*
X140940368Y-102750626D01*
X140940364Y-102750634D01*
X140885273Y-102883637D01*
X140885271Y-102883643D01*
X140882162Y-102891150D01*
X140881101Y-102899205D01*
X140881100Y-102899211D01*
X140867029Y-103006094D01*
X140866500Y-103010115D01*
X140866500Y-103014167D01*
X140866500Y-103014168D01*
X140866500Y-103285829D01*
X140866500Y-103285844D01*
X140866501Y-103289884D01*
X140867029Y-103293898D01*
X140867030Y-103293906D01*
X140881100Y-103400789D01*
X140881101Y-103400793D01*
X140882162Y-103408850D01*
X140885272Y-103416359D01*
X140885273Y-103416361D01*
X140889908Y-103427552D01*
X140899345Y-103475000D01*
X140889908Y-103522448D01*
X140885273Y-103533637D01*
X140885271Y-103533643D01*
X140882162Y-103541150D01*
X140881101Y-103549205D01*
X140881100Y-103549211D01*
X140867029Y-103656094D01*
X140866500Y-103660115D01*
X140866500Y-103664167D01*
X140866500Y-103664168D01*
X140866500Y-103935829D01*
X140866500Y-103935844D01*
X140866501Y-103939884D01*
X140867029Y-103943898D01*
X140867030Y-103943906D01*
X140881101Y-104050791D01*
X140882162Y-104058850D01*
X140885269Y-104066352D01*
X140885272Y-104066361D01*
X140889907Y-104077550D01*
X140899345Y-104124999D01*
X140889908Y-104172448D01*
X140885273Y-104183637D01*
X140885272Y-104183642D01*
X140882162Y-104191150D01*
X140881101Y-104199205D01*
X140881100Y-104199211D01*
X140867029Y-104306094D01*
X140866500Y-104310115D01*
X140866500Y-104314167D01*
X140866500Y-104314168D01*
X140866500Y-104585829D01*
X140866500Y-104585844D01*
X140866501Y-104589884D01*
X140867029Y-104593898D01*
X140867030Y-104593906D01*
X140881100Y-104700789D01*
X140881101Y-104700793D01*
X140882162Y-104708850D01*
X140885272Y-104716359D01*
X140885273Y-104716361D01*
X140889908Y-104727552D01*
X140899345Y-104775000D01*
X140889908Y-104822448D01*
X140885273Y-104833637D01*
X140885271Y-104833643D01*
X140882162Y-104841150D01*
X140881101Y-104849205D01*
X140881100Y-104849211D01*
X140867029Y-104956094D01*
X140866500Y-104960115D01*
X140866500Y-104964167D01*
X140866500Y-104964168D01*
X140866500Y-105235829D01*
X140866500Y-105235844D01*
X140866501Y-105239884D01*
X140867029Y-105243898D01*
X140867030Y-105243906D01*
X140881101Y-105350791D01*
X140882162Y-105358850D01*
X140885269Y-105366352D01*
X140885272Y-105366361D01*
X140889907Y-105377550D01*
X140899345Y-105424999D01*
X140889908Y-105472448D01*
X140885273Y-105483637D01*
X140885272Y-105483642D01*
X140882162Y-105491150D01*
X140881101Y-105499205D01*
X140881100Y-105499211D01*
X140867029Y-105606094D01*
X140866500Y-105610115D01*
X140866500Y-105614167D01*
X140866500Y-105614168D01*
X140866500Y-105885829D01*
X140866500Y-105885844D01*
X140866501Y-105889884D01*
X140867029Y-105893898D01*
X140867030Y-105893906D01*
X140881100Y-106000789D01*
X140881101Y-106000793D01*
X140882162Y-106008850D01*
X140885272Y-106016359D01*
X140885273Y-106016361D01*
X140889908Y-106027552D01*
X140899345Y-106075000D01*
X140889908Y-106122448D01*
X140885273Y-106133637D01*
X140885271Y-106133643D01*
X140882162Y-106141150D01*
X140881101Y-106149205D01*
X140881100Y-106149211D01*
X140867029Y-106256094D01*
X140866500Y-106260115D01*
X140866500Y-106264167D01*
X140866500Y-106264168D01*
X140866500Y-106535829D01*
X140866500Y-106535844D01*
X140866501Y-106539884D01*
X140867029Y-106543898D01*
X140867030Y-106543906D01*
X140879790Y-106640829D01*
X140882162Y-106658850D01*
X140885269Y-106666352D01*
X140885272Y-106666361D01*
X140889907Y-106677550D01*
X140899345Y-106724999D01*
X140889908Y-106772448D01*
X140885273Y-106783637D01*
X140885271Y-106783643D01*
X140882162Y-106791150D01*
X140881101Y-106799205D01*
X140881100Y-106799211D01*
X140868027Y-106898514D01*
X140866500Y-106910115D01*
X140866500Y-106914167D01*
X140866500Y-106914168D01*
X140866500Y-107185829D01*
X140866500Y-107185844D01*
X140866501Y-107189884D01*
X140867029Y-107193898D01*
X140867030Y-107193906D01*
X140881100Y-107300789D01*
X140881101Y-107300795D01*
X140882162Y-107308850D01*
X140885272Y-107316360D01*
X140885273Y-107316361D01*
X140940364Y-107449365D01*
X140940367Y-107449370D01*
X140943476Y-107456876D01*
X140948422Y-107463322D01*
X140948424Y-107463325D01*
X141031417Y-107571482D01*
X141041013Y-107583987D01*
X141047460Y-107588934D01*
X141152000Y-107669152D01*
X141168124Y-107681524D01*
X141177452Y-107685387D01*
X141180721Y-107687572D01*
X141182673Y-107688699D01*
X141182599Y-107688826D01*
X141217680Y-107712267D01*
X141244561Y-107752496D01*
X141254000Y-107799949D01*
X141254000Y-107969864D01*
X141235221Y-108035473D01*
X141184573Y-108081210D01*
X141117396Y-108093221D01*
X141106950Y-108092154D01*
X141103669Y-108091819D01*
X141103665Y-108091818D01*
X141100545Y-108091500D01*
X141097397Y-108091500D01*
X140352604Y-108091500D01*
X140352584Y-108091500D01*
X140349456Y-108091501D01*
X140346343Y-108091818D01*
X140346323Y-108091820D01*
X140252313Y-108101424D01*
X140252307Y-108101425D01*
X140245574Y-108102113D01*
X140239144Y-108104243D01*
X140239142Y-108104244D01*
X140084122Y-108155611D01*
X140084115Y-108155613D01*
X140077262Y-108157885D01*
X140071121Y-108161672D01*
X140071112Y-108161677D01*
X139932497Y-108247177D01*
X139926348Y-108250970D01*
X139921240Y-108256077D01*
X139921236Y-108256081D01*
X139806081Y-108371236D01*
X139806077Y-108371240D01*
X139800970Y-108376348D01*
X139797178Y-108382495D01*
X139797177Y-108382497D01*
X139711677Y-108521112D01*
X139711672Y-108521121D01*
X139707885Y-108527262D01*
X139705613Y-108534115D01*
X139705611Y-108534122D01*
X139654241Y-108689149D01*
X139654239Y-108689157D01*
X139652113Y-108695574D01*
X139651425Y-108702302D01*
X139651425Y-108702305D01*
X139641819Y-108796325D01*
X139641818Y-108796340D01*
X139641500Y-108799455D01*
X139641500Y-108802601D01*
X139641500Y-108802602D01*
X139641500Y-110197395D01*
X139641500Y-110197414D01*
X139641501Y-110200544D01*
X139641819Y-110203657D01*
X139641820Y-110203676D01*
X139651248Y-110295959D01*
X139652113Y-110304426D01*
X139654244Y-110310857D01*
X139705611Y-110465877D01*
X139705612Y-110465880D01*
X139707885Y-110472738D01*
X139711674Y-110478881D01*
X139711677Y-110478887D01*
X139768992Y-110571809D01*
X139800970Y-110623652D01*
X139806081Y-110628763D01*
X139830181Y-110652863D01*
X139857061Y-110693091D01*
X139866500Y-110740544D01*
X139866500Y-111009456D01*
X139857061Y-111056909D01*
X139830181Y-111097137D01*
X139806081Y-111121236D01*
X139806077Y-111121240D01*
X139800970Y-111126348D01*
X139797178Y-111132495D01*
X139797177Y-111132497D01*
X139711677Y-111271112D01*
X139711672Y-111271121D01*
X139707885Y-111277262D01*
X139705613Y-111284115D01*
X139705611Y-111284122D01*
X139654241Y-111439149D01*
X139654239Y-111439157D01*
X139652113Y-111445574D01*
X139651425Y-111452302D01*
X139651425Y-111452305D01*
X139641819Y-111546325D01*
X139641818Y-111546340D01*
X139641500Y-111549455D01*
X139641500Y-111552601D01*
X139641500Y-111552602D01*
X139641500Y-112947395D01*
X139641500Y-112947414D01*
X138849970Y-112947414D01*
X138850000Y-112946832D01*
X138850000Y-112516326D01*
X138846549Y-112503450D01*
X138833674Y-112500000D01*
X138041326Y-112500000D01*
X138028450Y-112503450D01*
X138025000Y-112516326D01*
X138025000Y-113633673D01*
X137525000Y-113633673D01*
X137525000Y-112516326D01*
X137521549Y-112503450D01*
X137508674Y-112500000D01*
X136716327Y-112500000D01*
X136703451Y-112503450D01*
X136700001Y-112516326D01*
X136700001Y-112946829D01*
X132872455Y-112946829D01*
X132871549Y-112943450D01*
X132858674Y-112940000D01*
X131791326Y-112940000D01*
X131778450Y-112943450D01*
X131775000Y-112956326D01*
X131775000Y-114023674D01*
X131275000Y-114023674D01*
X131275000Y-112956326D01*
X131271549Y-112943450D01*
X131258674Y-112940000D01*
X130191326Y-112940000D01*
X130178450Y-112943450D01*
X130175000Y-112956326D01*
X130175000Y-113584518D01*
X129563768Y-113584518D01*
X129552972Y-113461110D01*
X129552500Y-113450303D01*
X129552500Y-110150000D01*
X130161844Y-110150000D01*
X130162268Y-110155117D01*
X130180011Y-110369248D01*
X130180012Y-110369256D01*
X130180436Y-110374368D01*
X130181693Y-110379335D01*
X130181695Y-110379342D01*
X130234445Y-110587645D01*
X130235704Y-110592616D01*
X130237764Y-110597312D01*
X130324080Y-110794096D01*
X130324083Y-110794101D01*
X130326140Y-110798791D01*
X130336448Y-110814568D01*
X130446474Y-110982977D01*
X130446477Y-110982981D01*
X130449278Y-110987268D01*
X130452752Y-110991041D01*
X130452753Y-110991043D01*
X130600706Y-111151761D01*
X130629480Y-111204513D01*
X130630073Y-111264600D01*
X130602346Y-111317910D01*
X130552811Y-111351925D01*
X130441226Y-111393544D01*
X130425810Y-111401962D01*
X130324907Y-111477498D01*
X130312498Y-111489907D01*
X130236962Y-111590810D01*
X130228547Y-111606222D01*
X130184111Y-111725358D01*
X130180573Y-111740332D01*
X130175353Y-111788885D01*
X130175000Y-111795482D01*
X130175000Y-112423674D01*
X130178450Y-112436549D01*
X130191326Y-112440000D01*
X132858674Y-112440000D01*
X132871549Y-112436549D01*
X132875000Y-112423674D01*
X132875000Y-111983674D01*
X136700000Y-111983674D01*
X136703450Y-111996549D01*
X136716326Y-112000000D01*
X137508674Y-112000000D01*
X137521549Y-111996549D01*
X137525000Y-111983674D01*
X138025000Y-111983674D01*
X138028450Y-111996549D01*
X138041326Y-112000000D01*
X138833673Y-112000000D01*
X138846548Y-111996549D01*
X138849999Y-111983674D01*
X138849999Y-111553171D01*
X138849678Y-111546888D01*
X138840194Y-111454040D01*
X138837376Y-111440877D01*
X138786629Y-111287732D01*
X138780567Y-111274733D01*
X138696109Y-111137805D01*
X138687205Y-111126544D01*
X138573455Y-111012794D01*
X138562191Y-111003887D01*
X138524337Y-110980539D01*
X138481156Y-110935432D01*
X138465433Y-110875000D01*
X138481156Y-110814568D01*
X138524337Y-110769461D01*
X138562191Y-110746112D01*
X138573455Y-110737205D01*
X138687205Y-110623455D01*
X138696109Y-110612194D01*
X138780567Y-110475266D01*
X138786629Y-110462267D01*
X138837375Y-110309125D01*
X138840194Y-110295958D01*
X138849680Y-110203109D01*
X138850000Y-110196832D01*
X138850000Y-109766326D01*
X138846549Y-109753450D01*
X138833674Y-109750000D01*
X138041326Y-109750000D01*
X138028450Y-109753450D01*
X138025000Y-109766326D01*
X138025000Y-111983674D01*
X137525000Y-111983674D01*
X137525000Y-109766326D01*
X137521549Y-109753450D01*
X137508674Y-109750000D01*
X136716327Y-109750000D01*
X136703451Y-109753450D01*
X136700001Y-109766326D01*
X136700001Y-110196829D01*
X136700321Y-110203111D01*
X136709805Y-110295959D01*
X136712623Y-110309122D01*
X136763370Y-110462267D01*
X136769432Y-110475266D01*
X136853890Y-110612194D01*
X136862794Y-110623455D01*
X136976544Y-110737205D01*
X136987811Y-110746114D01*
X137025663Y-110769462D01*
X137068844Y-110814568D01*
X137084566Y-110875000D01*
X137068844Y-110935432D01*
X137025663Y-110980538D01*
X136987811Y-111003885D01*
X136976544Y-111012794D01*
X136862794Y-111126544D01*
X136853890Y-111137805D01*
X136769432Y-111274733D01*
X136763370Y-111287732D01*
X136712624Y-111440874D01*
X136709805Y-111454041D01*
X136700319Y-111546890D01*
X136700000Y-111553168D01*
X136700000Y-111983674D01*
X132875000Y-111983674D01*
X132875000Y-111795482D01*
X132874646Y-111788885D01*
X132869426Y-111740332D01*
X132865888Y-111725358D01*
X132821452Y-111606222D01*
X132813037Y-111590810D01*
X132737501Y-111489907D01*
X132725092Y-111477498D01*
X132624189Y-111401962D01*
X132608779Y-111393548D01*
X132497188Y-111351926D01*
X132447653Y-111317910D01*
X132419926Y-111264600D01*
X132420519Y-111204513D01*
X132449290Y-111151765D01*
X132600722Y-110987268D01*
X132723860Y-110798791D01*
X132814296Y-110592616D01*
X132869564Y-110374368D01*
X132888156Y-110150000D01*
X132869564Y-109925632D01*
X132868482Y-109921360D01*
X132872683Y-109863374D01*
X132903089Y-109813524D01*
X133482939Y-109233674D01*
X136700000Y-109233674D01*
X136703450Y-109246549D01*
X136716326Y-109250000D01*
X137508674Y-109250000D01*
X137521549Y-109246549D01*
X137525000Y-109233674D01*
X138025000Y-109233674D01*
X138028450Y-109246549D01*
X138041326Y-109250000D01*
X138833673Y-109250000D01*
X138846548Y-109246549D01*
X138849999Y-109233674D01*
X138849999Y-108803171D01*
X138849678Y-108796888D01*
X138840194Y-108704040D01*
X138837376Y-108690877D01*
X138786629Y-108537732D01*
X138780567Y-108524733D01*
X138696109Y-108387805D01*
X138687205Y-108376544D01*
X138573455Y-108262794D01*
X138562194Y-108253890D01*
X138425266Y-108169432D01*
X138412267Y-108163370D01*
X138259125Y-108112624D01*
X138245958Y-108109805D01*
X138153109Y-108100319D01*
X138146832Y-108100000D01*
X138041326Y-108100000D01*
X138028450Y-108103450D01*
X138025000Y-108116326D01*
X138025000Y-109233674D01*
X137525000Y-109233674D01*
X137525000Y-108116327D01*
X137521549Y-108103451D01*
X137508674Y-108100001D01*
X137403171Y-108100001D01*
X137396888Y-108100321D01*
X137304040Y-108109805D01*
X137290877Y-108112623D01*
X137137732Y-108163370D01*
X137124733Y-108169432D01*
X136987805Y-108253890D01*
X136976544Y-108262794D01*
X136862794Y-108376544D01*
X136853890Y-108387805D01*
X136769432Y-108524733D01*
X136763370Y-108537732D01*
X136712624Y-108690874D01*
X136709805Y-108704041D01*
X136700319Y-108796890D01*
X136700000Y-108803168D01*
X136700000Y-109233674D01*
X133482939Y-109233674D01*
X135143452Y-107573161D01*
X135199037Y-107541069D01*
X135263225Y-107541069D01*
X135318812Y-107573163D01*
X135328517Y-107582868D01*
X135440963Y-107669152D01*
X135454921Y-107677209D01*
X135585856Y-107731444D01*
X135601430Y-107735617D01*
X135706657Y-107749470D01*
X135714730Y-107750000D01*
X136171174Y-107750000D01*
X136184049Y-107746549D01*
X136187500Y-107733674D01*
X136187500Y-107232500D01*
X136204113Y-107170500D01*
X136249500Y-107125113D01*
X136311499Y-107108500D01*
X136390150Y-107108499D01*
X136468189Y-107108499D01*
X136523032Y-107121286D01*
X136566564Y-107157011D01*
X136589806Y-107208306D01*
X136587964Y-107264590D01*
X136587500Y-107266322D01*
X136587500Y-107733673D01*
X136590950Y-107746548D01*
X136603826Y-107749999D01*
X137060267Y-107749999D01*
X137068344Y-107749469D01*
X137173570Y-107735617D01*
X137189142Y-107731444D01*
X137320078Y-107677209D01*
X137334036Y-107669152D01*
X137446482Y-107582868D01*
X137457868Y-107571482D01*
X137544152Y-107459036D01*
X137552209Y-107445078D01*
X137606443Y-107314145D01*
X137610617Y-107298568D01*
X137614701Y-107267552D01*
X137612595Y-107253873D01*
X137599308Y-107250000D01*
X137412444Y-107250000D01*
X137353276Y-107234973D01*
X137308449Y-107193535D01*
X137288826Y-107135729D01*
X137299164Y-107075565D01*
X137336957Y-107027625D01*
X137423511Y-106961209D01*
X137458987Y-106933987D01*
X137477305Y-106910115D01*
X137486207Y-106898514D01*
X137529739Y-106862788D01*
X137584583Y-106850000D01*
X137599310Y-106850000D01*
X137612594Y-106846127D01*
X137614700Y-106832446D01*
X137610616Y-106801427D01*
X137606446Y-106785864D01*
X137605494Y-106783564D01*
X137604523Y-106778684D01*
X137604342Y-106778008D01*
X137604386Y-106777996D01*
X137596053Y-106736107D01*
X137605493Y-106688653D01*
X137617838Y-106658850D01*
X137633500Y-106539885D01*
X137633499Y-106260116D01*
X137617838Y-106141150D01*
X137610095Y-106122457D01*
X137600654Y-106075000D01*
X137610095Y-106027543D01*
X137614728Y-106016359D01*
X137614728Y-106016356D01*
X137617838Y-106008850D01*
X137633500Y-105889885D01*
X137633499Y-105610116D01*
X137617838Y-105491150D01*
X137610093Y-105472452D01*
X137600654Y-105424997D01*
X137610093Y-105377546D01*
X137617838Y-105358850D01*
X137633500Y-105239885D01*
X137633499Y-104960116D01*
X137617838Y-104841150D01*
X137610094Y-104822454D01*
X137600654Y-104774997D01*
X137610096Y-104727540D01*
X137614728Y-104716359D01*
X137614728Y-104716356D01*
X137617838Y-104708850D01*
X137633500Y-104589885D01*
X137633499Y-104310116D01*
X137617838Y-104191150D01*
X137610093Y-104172452D01*
X137600654Y-104124997D01*
X137610093Y-104077546D01*
X137617838Y-104058850D01*
X137633500Y-103939885D01*
X137633499Y-103660116D01*
X137617838Y-103541150D01*
X137610095Y-103522457D01*
X137600654Y-103475000D01*
X137610095Y-103427543D01*
X137614728Y-103416359D01*
X137614728Y-103416356D01*
X137617838Y-103408850D01*
X137633500Y-103289885D01*
X137633499Y-103010116D01*
X137617838Y-102891150D01*
X137563242Y-102759342D01*
X137559635Y-102750634D01*
X137559634Y-102750632D01*
X137556524Y-102743124D01*
X137458987Y-102616013D01*
X137353563Y-102535117D01*
X137338325Y-102523424D01*
X137338322Y-102523422D01*
X137331876Y-102518476D01*
X137324370Y-102515367D01*
X137324365Y-102515364D01*
X137191362Y-102460273D01*
X137191358Y-102460271D01*
X137183850Y-102457162D01*
X137175792Y-102456101D01*
X137175788Y-102456100D01*
X137068905Y-102442029D01*
X137068901Y-102442028D01*
X137064885Y-102441500D01*
X137060832Y-102441500D01*
X135959477Y-102441500D01*
X135912024Y-102432061D01*
X135871796Y-102405181D01*
X134969819Y-101503204D01*
X134942939Y-101462976D01*
X134933500Y-101415523D01*
X134933500Y-100074404D01*
X134933726Y-100066917D01*
X134936811Y-100015915D01*
X134937264Y-100008428D01*
X134926700Y-99950786D01*
X134925577Y-99943410D01*
X134918513Y-99885226D01*
X134915103Y-99876237D01*
X134909075Y-99854614D01*
X134907344Y-99845163D01*
X134883295Y-99791731D01*
X134880439Y-99784838D01*
X134859654Y-99730029D01*
X134854196Y-99722122D01*
X134843167Y-99702567D01*
X134839223Y-99693803D01*
X134810861Y-99657602D01*
X134803085Y-99647676D01*
X134798646Y-99641643D01*
X134769624Y-99599597D01*
X134769623Y-99599596D01*
X134765365Y-99593427D01*
X134721508Y-99554573D01*
X134716054Y-99549439D01*
X132908018Y-97741403D01*
X132879275Y-97696400D01*
X132872123Y-97643482D01*
X132887732Y-97455117D01*
X132888156Y-97450000D01*
X132869564Y-97225632D01*
X132814296Y-97007384D01*
X132723860Y-96801209D01*
X132600722Y-96612732D01*
X132530880Y-96536864D01*
X132451711Y-96450864D01*
X132451708Y-96450861D01*
X132448240Y-96447094D01*
X132416596Y-96422464D01*
X132274623Y-96311960D01*
X132274615Y-96311955D01*
X132270576Y-96308811D01*
X132266071Y-96306373D01*
X132266065Y-96306369D01*
X132077080Y-96204096D01*
X132077074Y-96204093D01*
X132072574Y-96201658D01*
X132067733Y-96199996D01*
X132067726Y-96199993D01*
X131864488Y-96130222D01*
X131864487Y-96130221D01*
X131859635Y-96128556D01*
X131854585Y-96127713D01*
X131854576Y-96127711D01*
X131642631Y-96092344D01*
X131642622Y-96092343D01*
X131637569Y-96091500D01*
X131412431Y-96091500D01*
X131407378Y-96092343D01*
X131407368Y-96092344D01*
X131195423Y-96127711D01*
X131195411Y-96127713D01*
X131190365Y-96128556D01*
X131185515Y-96130220D01*
X131185511Y-96130222D01*
X130982273Y-96199993D01*
X130982262Y-96199997D01*
X130977426Y-96201658D01*
X130972929Y-96204091D01*
X130972919Y-96204096D01*
X130783934Y-96306369D01*
X130783922Y-96306376D01*
X130779424Y-96308811D01*
X130775389Y-96311951D01*
X130775376Y-96311960D01*
X130605801Y-96443948D01*
X130605795Y-96443952D01*
X130601760Y-96447094D01*
X130598297Y-96450855D01*
X130598288Y-96450864D01*
X130452753Y-96608956D01*
X130452747Y-96608963D01*
X130449278Y-96612732D01*
X130446481Y-96617012D01*
X130446474Y-96617022D01*
X130328942Y-96796920D01*
X130326140Y-96801209D01*
X130324085Y-96805892D01*
X130324080Y-96805903D01*
X130286358Y-96891903D01*
X130235704Y-97007384D01*
X130234446Y-97012349D01*
X130234445Y-97012354D01*
X130181695Y-97220657D01*
X130181693Y-97220666D01*
X130180436Y-97225632D01*
X130180012Y-97230741D01*
X130180011Y-97230751D01*
X130162268Y-97444883D01*
X130161844Y-97450000D01*
X130162268Y-97455117D01*
X130180011Y-97669248D01*
X130180012Y-97669256D01*
X130180436Y-97674368D01*
X130181693Y-97679335D01*
X130181695Y-97679342D01*
X130222296Y-97839670D01*
X130235704Y-97892616D01*
X130237764Y-97897312D01*
X130324080Y-98094096D01*
X130324083Y-98094101D01*
X130326140Y-98098791D01*
X130379259Y-98180096D01*
X130446474Y-98282977D01*
X130446477Y-98282981D01*
X130449278Y-98287268D01*
X130452752Y-98291041D01*
X130452753Y-98291043D01*
X130598288Y-98449135D01*
X130598291Y-98449138D01*
X130601760Y-98452906D01*
X130605801Y-98456051D01*
X130775376Y-98588039D01*
X130775381Y-98588042D01*
X130779424Y-98591189D01*
X130815930Y-98610945D01*
X130863434Y-98656523D01*
X130880913Y-98719996D01*
X130863437Y-98783471D01*
X130815933Y-98829053D01*
X130783930Y-98846372D01*
X130783925Y-98846374D01*
X130779424Y-98848811D01*
X130775389Y-98851951D01*
X130775376Y-98851960D01*
X130605801Y-98983948D01*
X130605795Y-98983952D01*
X130601760Y-98987094D01*
X130598297Y-98990855D01*
X130598288Y-98990864D01*
X130452753Y-99148956D01*
X130452747Y-99148963D01*
X130449278Y-99152732D01*
X130446481Y-99157012D01*
X130446474Y-99157022D01*
X130353429Y-99299440D01*
X130326140Y-99341209D01*
X130324085Y-99345892D01*
X130324080Y-99345903D01*
X130241219Y-99534810D01*
X130235704Y-99547384D01*
X130234446Y-99552349D01*
X130234445Y-99552354D01*
X130181695Y-99760657D01*
X130181693Y-99760666D01*
X130180436Y-99765632D01*
X130180012Y-99770741D01*
X130180011Y-99770751D01*
X130164198Y-99961596D01*
X130161844Y-99990000D01*
X130162268Y-99995116D01*
X130162268Y-99995117D01*
X130180011Y-100209248D01*
X130180012Y-100209256D01*
X130180436Y-100214368D01*
X130181693Y-100219335D01*
X130181695Y-100219342D01*
X130225770Y-100393387D01*
X130235704Y-100432616D01*
X130247026Y-100458428D01*
X130324080Y-100634096D01*
X130324083Y-100634101D01*
X130326140Y-100638791D01*
X130334012Y-100650840D01*
X130446474Y-100822977D01*
X130446477Y-100822981D01*
X130449278Y-100827268D01*
X130452752Y-100831041D01*
X130452753Y-100831043D01*
X130598288Y-100989135D01*
X130598291Y-100989138D01*
X130601760Y-100992906D01*
X130622021Y-101008676D01*
X130775376Y-101128039D01*
X130775381Y-101128042D01*
X130779424Y-101131189D01*
X130783931Y-101133628D01*
X130783934Y-101133630D01*
X130815930Y-101150945D01*
X130863436Y-101196526D01*
X130880913Y-101260000D01*
X130863436Y-101323474D01*
X130815930Y-101369055D01*
X130783934Y-101386369D01*
X130783922Y-101386376D01*
X130779424Y-101388811D01*
X130775389Y-101391951D01*
X130775376Y-101391960D01*
X130605801Y-101523948D01*
X130605795Y-101523952D01*
X130601760Y-101527094D01*
X130598297Y-101530855D01*
X130598288Y-101530864D01*
X130452753Y-101688956D01*
X130452747Y-101688963D01*
X130449278Y-101692732D01*
X130446481Y-101697012D01*
X130446474Y-101697022D01*
X130354697Y-101837499D01*
X130326140Y-101881209D01*
X130324085Y-101885892D01*
X130324080Y-101885903D01*
X130286358Y-101971903D01*
X130235704Y-102087384D01*
X130234446Y-102092349D01*
X130234445Y-102092354D01*
X130181695Y-102300657D01*
X130181693Y-102300666D01*
X130180436Y-102305632D01*
X130180012Y-102310741D01*
X130180011Y-102310751D01*
X130167622Y-102460273D01*
X130161844Y-102530000D01*
X130162268Y-102535117D01*
X130180011Y-102749248D01*
X130180012Y-102749256D01*
X130180436Y-102754368D01*
X130181693Y-102759335D01*
X130181695Y-102759342D01*
X130215074Y-102891150D01*
X130235704Y-102972616D01*
X130237764Y-102977312D01*
X130324080Y-103174096D01*
X130324083Y-103174101D01*
X130326140Y-103178791D01*
X130379259Y-103260096D01*
X130446474Y-103362977D01*
X130446477Y-103362981D01*
X130449278Y-103367268D01*
X130452752Y-103371041D01*
X130452753Y-103371043D01*
X130598288Y-103529135D01*
X130598291Y-103529138D01*
X130601760Y-103532906D01*
X130622711Y-103549213D01*
X130775376Y-103668039D01*
X130775381Y-103668042D01*
X130779424Y-103671189D01*
X130783931Y-103673628D01*
X130783934Y-103673630D01*
X130815930Y-103690945D01*
X130863436Y-103736526D01*
X130880913Y-103800000D01*
X130863436Y-103863474D01*
X130815930Y-103909055D01*
X130783934Y-103926369D01*
X130783922Y-103926376D01*
X130779424Y-103928811D01*
X130775389Y-103931951D01*
X130775376Y-103931960D01*
X130605801Y-104063948D01*
X130605795Y-104063952D01*
X130601760Y-104067094D01*
X130598297Y-104070855D01*
X130598288Y-104070864D01*
X130452753Y-104228956D01*
X130452747Y-104228963D01*
X130449278Y-104232732D01*
X130446481Y-104237012D01*
X130446474Y-104237022D01*
X130328942Y-104416920D01*
X130326140Y-104421209D01*
X130324085Y-104425892D01*
X130324080Y-104425903D01*
X130237764Y-104622687D01*
X130235704Y-104627384D01*
X130234446Y-104632349D01*
X130234445Y-104632354D01*
X130181695Y-104840657D01*
X130181693Y-104840666D01*
X130180436Y-104845632D01*
X130180012Y-104850741D01*
X130180011Y-104850751D01*
X130170613Y-104964170D01*
X130161844Y-105070000D01*
X130162268Y-105075117D01*
X130180011Y-105289248D01*
X130180012Y-105289256D01*
X130180436Y-105294368D01*
X130181693Y-105299335D01*
X130181695Y-105299342D01*
X130232309Y-105499211D01*
X130235704Y-105512616D01*
X130237764Y-105517312D01*
X130324080Y-105714096D01*
X130324083Y-105714101D01*
X130326140Y-105718791D01*
X130379259Y-105800096D01*
X130446474Y-105902977D01*
X130446477Y-105902981D01*
X130449278Y-105907268D01*
X130452752Y-105911041D01*
X130452753Y-105911043D01*
X130598288Y-106069135D01*
X130598291Y-106069138D01*
X130601760Y-106072906D01*
X130605801Y-106076051D01*
X130775376Y-106208039D01*
X130775381Y-106208042D01*
X130779424Y-106211189D01*
X130815930Y-106230945D01*
X130863434Y-106276523D01*
X130880913Y-106339996D01*
X130863437Y-106403471D01*
X130815933Y-106449053D01*
X130783930Y-106466372D01*
X130783925Y-106466374D01*
X130779424Y-106468811D01*
X130775389Y-106471951D01*
X130775376Y-106471960D01*
X130605801Y-106603948D01*
X130605795Y-106603952D01*
X130601760Y-106607094D01*
X130598297Y-106610855D01*
X130598288Y-106610864D01*
X130452753Y-106768956D01*
X130452747Y-106768963D01*
X130449278Y-106772732D01*
X130446481Y-106777012D01*
X130446474Y-106777022D01*
X130328942Y-106956920D01*
X130326140Y-106961209D01*
X130324085Y-106965892D01*
X130324080Y-106965903D01*
X130249589Y-107135729D01*
X130235704Y-107167384D01*
X130234446Y-107172349D01*
X130234445Y-107172354D01*
X130181695Y-107380657D01*
X130181693Y-107380666D01*
X130180436Y-107385632D01*
X130180012Y-107390741D01*
X130180011Y-107390751D01*
X130162268Y-107604883D01*
X130161844Y-107610000D01*
X130162268Y-107615117D01*
X130180011Y-107829248D01*
X130180012Y-107829256D01*
X130180436Y-107834368D01*
X130181693Y-107839335D01*
X130181695Y-107839342D01*
X130214748Y-107969864D01*
X130235704Y-108052616D01*
X130237764Y-108057312D01*
X130324080Y-108254096D01*
X130324083Y-108254101D01*
X130326140Y-108258791D01*
X130379259Y-108340096D01*
X130446474Y-108442977D01*
X130446477Y-108442981D01*
X130449278Y-108447268D01*
X130452752Y-108451041D01*
X130452753Y-108451043D01*
X130598288Y-108609135D01*
X130598291Y-108609138D01*
X130601760Y-108612906D01*
X130605801Y-108616051D01*
X130775376Y-108748039D01*
X130775381Y-108748042D01*
X130779424Y-108751189D01*
X130815930Y-108770945D01*
X130863434Y-108816523D01*
X130880913Y-108879996D01*
X130863437Y-108943471D01*
X130815933Y-108989053D01*
X130783930Y-109006372D01*
X130783925Y-109006374D01*
X130779424Y-109008811D01*
X130775389Y-109011951D01*
X130775376Y-109011960D01*
X130605801Y-109143948D01*
X130605795Y-109143952D01*
X130601760Y-109147094D01*
X130598297Y-109150855D01*
X130598288Y-109150864D01*
X130452753Y-109308956D01*
X130452747Y-109308963D01*
X130449278Y-109312732D01*
X130446481Y-109317012D01*
X130446474Y-109317022D01*
X130329389Y-109496236D01*
X130326140Y-109501209D01*
X130324085Y-109505892D01*
X130324080Y-109505903D01*
X130250079Y-109674611D01*
X130235704Y-109707384D01*
X130234446Y-109712349D01*
X130234445Y-109712354D01*
X130181695Y-109920657D01*
X130181693Y-109920666D01*
X130180436Y-109925632D01*
X130180012Y-109930741D01*
X130180011Y-109930751D01*
X130162268Y-110144883D01*
X130161844Y-110150000D01*
X129552500Y-110150000D01*
X129552500Y-96649697D01*
X129552972Y-96638890D01*
X129570044Y-96443750D01*
X129573797Y-96422464D01*
X129601894Y-96317604D01*
X129624578Y-96232944D01*
X129631964Y-96212651D01*
X129714889Y-96034819D01*
X129725683Y-96016123D01*
X129838226Y-95855393D01*
X129852109Y-95838849D01*
X129990849Y-95700109D01*
X130007393Y-95686226D01*
X130168123Y-95573683D01*
X130186819Y-95562889D01*
X130364651Y-95479964D01*
X130384944Y-95472578D01*
X130574464Y-95421796D01*
X130595747Y-95418044D01*
X130790889Y-95400972D01*
X130801697Y-95400500D01*
X137404844Y-95400500D01*
X137471165Y-95419726D01*
G37*
%TD.AperFunction*%
%TD*%
M02*
