%TF.GenerationSoftware,KiCad,Pcbnew,(7.0.0)*%
%TF.CreationDate,2023-03-31T23:37:10+02:00*%
%TF.ProjectId,display-brain-final,64697370-6c61-4792-9d62-7261696e2d66,rev?*%
%TF.SameCoordinates,Original*%
%TF.FileFunction,Legend,Top*%
%TF.FilePolarity,Positive*%
%FSLAX46Y46*%
G04 Gerber Fmt 4.6, Leading zero omitted, Abs format (unit mm)*
G04 Created by KiCad (PCBNEW (7.0.0)) date 2023-03-31 23:37:10*
%MOMM*%
%LPD*%
G01*
G04 APERTURE LIST*
%ADD10C,0.150000*%
%ADD11C,0.120000*%
G04 APERTURE END LIST*
D10*
X170738095Y-67758571D02*
X171071428Y-67758571D01*
X171214285Y-68282380D02*
X170738095Y-68282380D01*
X170738095Y-68282380D02*
X170738095Y-67282380D01*
X170738095Y-67282380D02*
X171214285Y-67282380D01*
X171595238Y-68234761D02*
X171738095Y-68282380D01*
X171738095Y-68282380D02*
X171976190Y-68282380D01*
X171976190Y-68282380D02*
X172071428Y-68234761D01*
X172071428Y-68234761D02*
X172119047Y-68187142D01*
X172119047Y-68187142D02*
X172166666Y-68091904D01*
X172166666Y-68091904D02*
X172166666Y-67996666D01*
X172166666Y-67996666D02*
X172119047Y-67901428D01*
X172119047Y-67901428D02*
X172071428Y-67853809D01*
X172071428Y-67853809D02*
X171976190Y-67806190D01*
X171976190Y-67806190D02*
X171785714Y-67758571D01*
X171785714Y-67758571D02*
X171690476Y-67710952D01*
X171690476Y-67710952D02*
X171642857Y-67663333D01*
X171642857Y-67663333D02*
X171595238Y-67568095D01*
X171595238Y-67568095D02*
X171595238Y-67472857D01*
X171595238Y-67472857D02*
X171642857Y-67377619D01*
X171642857Y-67377619D02*
X171690476Y-67330000D01*
X171690476Y-67330000D02*
X171785714Y-67282380D01*
X171785714Y-67282380D02*
X172023809Y-67282380D01*
X172023809Y-67282380D02*
X172166666Y-67330000D01*
X172595238Y-68282380D02*
X172595238Y-67282380D01*
X172595238Y-67282380D02*
X172976190Y-67282380D01*
X172976190Y-67282380D02*
X173071428Y-67330000D01*
X173071428Y-67330000D02*
X173119047Y-67377619D01*
X173119047Y-67377619D02*
X173166666Y-67472857D01*
X173166666Y-67472857D02*
X173166666Y-67615714D01*
X173166666Y-67615714D02*
X173119047Y-67710952D01*
X173119047Y-67710952D02*
X173071428Y-67758571D01*
X173071428Y-67758571D02*
X172976190Y-67806190D01*
X172976190Y-67806190D02*
X172595238Y-67806190D01*
X173357143Y-68377619D02*
X174119047Y-68377619D01*
X174833333Y-67282380D02*
X174357143Y-67282380D01*
X174357143Y-67282380D02*
X174309524Y-67758571D01*
X174309524Y-67758571D02*
X174357143Y-67710952D01*
X174357143Y-67710952D02*
X174452381Y-67663333D01*
X174452381Y-67663333D02*
X174690476Y-67663333D01*
X174690476Y-67663333D02*
X174785714Y-67710952D01*
X174785714Y-67710952D02*
X174833333Y-67758571D01*
X174833333Y-67758571D02*
X174880952Y-67853809D01*
X174880952Y-67853809D02*
X174880952Y-68091904D01*
X174880952Y-68091904D02*
X174833333Y-68187142D01*
X174833333Y-68187142D02*
X174785714Y-68234761D01*
X174785714Y-68234761D02*
X174690476Y-68282380D01*
X174690476Y-68282380D02*
X174452381Y-68282380D01*
X174452381Y-68282380D02*
X174357143Y-68234761D01*
X174357143Y-68234761D02*
X174309524Y-68187142D01*
X175166667Y-67282380D02*
X175500000Y-68282380D01*
X175500000Y-68282380D02*
X175833333Y-67282380D01*
X164315714Y-64361904D02*
X165315714Y-64361904D01*
X164363333Y-64361904D02*
X164315714Y-64266666D01*
X164315714Y-64266666D02*
X164315714Y-64076190D01*
X164315714Y-64076190D02*
X164363333Y-63980952D01*
X164363333Y-63980952D02*
X164410952Y-63933333D01*
X164410952Y-63933333D02*
X164506190Y-63885714D01*
X164506190Y-63885714D02*
X164791904Y-63885714D01*
X164791904Y-63885714D02*
X164887142Y-63933333D01*
X164887142Y-63933333D02*
X164934761Y-63980952D01*
X164934761Y-63980952D02*
X164982380Y-64076190D01*
X164982380Y-64076190D02*
X164982380Y-64266666D01*
X164982380Y-64266666D02*
X164934761Y-64361904D01*
X164982380Y-63457142D02*
X164315714Y-63457142D01*
X164506190Y-63457142D02*
X164410952Y-63409523D01*
X164410952Y-63409523D02*
X164363333Y-63361904D01*
X164363333Y-63361904D02*
X164315714Y-63266666D01*
X164315714Y-63266666D02*
X164315714Y-63171428D01*
X164982380Y-62695237D02*
X164934761Y-62790475D01*
X164934761Y-62790475D02*
X164887142Y-62838094D01*
X164887142Y-62838094D02*
X164791904Y-62885713D01*
X164791904Y-62885713D02*
X164506190Y-62885713D01*
X164506190Y-62885713D02*
X164410952Y-62838094D01*
X164410952Y-62838094D02*
X164363333Y-62790475D01*
X164363333Y-62790475D02*
X164315714Y-62695237D01*
X164315714Y-62695237D02*
X164315714Y-62552380D01*
X164315714Y-62552380D02*
X164363333Y-62457142D01*
X164363333Y-62457142D02*
X164410952Y-62409523D01*
X164410952Y-62409523D02*
X164506190Y-62361904D01*
X164506190Y-62361904D02*
X164791904Y-62361904D01*
X164791904Y-62361904D02*
X164887142Y-62409523D01*
X164887142Y-62409523D02*
X164934761Y-62457142D01*
X164934761Y-62457142D02*
X164982380Y-62552380D01*
X164982380Y-62552380D02*
X164982380Y-62695237D01*
X164315714Y-61504761D02*
X165125238Y-61504761D01*
X165125238Y-61504761D02*
X165220476Y-61552380D01*
X165220476Y-61552380D02*
X165268095Y-61599999D01*
X165268095Y-61599999D02*
X165315714Y-61695237D01*
X165315714Y-61695237D02*
X165315714Y-61838094D01*
X165315714Y-61838094D02*
X165268095Y-61933332D01*
X164934761Y-61504761D02*
X164982380Y-61599999D01*
X164982380Y-61599999D02*
X164982380Y-61790475D01*
X164982380Y-61790475D02*
X164934761Y-61885713D01*
X164934761Y-61885713D02*
X164887142Y-61933332D01*
X164887142Y-61933332D02*
X164791904Y-61980951D01*
X164791904Y-61980951D02*
X164506190Y-61980951D01*
X164506190Y-61980951D02*
X164410952Y-61933332D01*
X164410952Y-61933332D02*
X164363333Y-61885713D01*
X164363333Y-61885713D02*
X164315714Y-61790475D01*
X164315714Y-61790475D02*
X164315714Y-61599999D01*
X164315714Y-61599999D02*
X164363333Y-61504761D01*
X164982380Y-61028570D02*
X164315714Y-61028570D01*
X164506190Y-61028570D02*
X164410952Y-60980951D01*
X164410952Y-60980951D02*
X164363333Y-60933332D01*
X164363333Y-60933332D02*
X164315714Y-60838094D01*
X164315714Y-60838094D02*
X164315714Y-60742856D01*
X164982380Y-59980951D02*
X164458571Y-59980951D01*
X164458571Y-59980951D02*
X164363333Y-60028570D01*
X164363333Y-60028570D02*
X164315714Y-60123808D01*
X164315714Y-60123808D02*
X164315714Y-60314284D01*
X164315714Y-60314284D02*
X164363333Y-60409522D01*
X164934761Y-59980951D02*
X164982380Y-60076189D01*
X164982380Y-60076189D02*
X164982380Y-60314284D01*
X164982380Y-60314284D02*
X164934761Y-60409522D01*
X164934761Y-60409522D02*
X164839523Y-60457141D01*
X164839523Y-60457141D02*
X164744285Y-60457141D01*
X164744285Y-60457141D02*
X164649047Y-60409522D01*
X164649047Y-60409522D02*
X164601428Y-60314284D01*
X164601428Y-60314284D02*
X164601428Y-60076189D01*
X164601428Y-60076189D02*
X164553809Y-59980951D01*
X164982380Y-59504760D02*
X164315714Y-59504760D01*
X164410952Y-59504760D02*
X164363333Y-59457141D01*
X164363333Y-59457141D02*
X164315714Y-59361903D01*
X164315714Y-59361903D02*
X164315714Y-59219046D01*
X164315714Y-59219046D02*
X164363333Y-59123808D01*
X164363333Y-59123808D02*
X164458571Y-59076189D01*
X164458571Y-59076189D02*
X164982380Y-59076189D01*
X164458571Y-59076189D02*
X164363333Y-59028570D01*
X164363333Y-59028570D02*
X164315714Y-58933332D01*
X164315714Y-58933332D02*
X164315714Y-58790475D01*
X164315714Y-58790475D02*
X164363333Y-58695236D01*
X164363333Y-58695236D02*
X164458571Y-58647617D01*
X164458571Y-58647617D02*
X164982380Y-58647617D01*
X190438095Y-76158571D02*
X190771428Y-76158571D01*
X190914285Y-76682380D02*
X190438095Y-76682380D01*
X190438095Y-76682380D02*
X190438095Y-75682380D01*
X190438095Y-75682380D02*
X190914285Y-75682380D01*
X191295238Y-76634761D02*
X191438095Y-76682380D01*
X191438095Y-76682380D02*
X191676190Y-76682380D01*
X191676190Y-76682380D02*
X191771428Y-76634761D01*
X191771428Y-76634761D02*
X191819047Y-76587142D01*
X191819047Y-76587142D02*
X191866666Y-76491904D01*
X191866666Y-76491904D02*
X191866666Y-76396666D01*
X191866666Y-76396666D02*
X191819047Y-76301428D01*
X191819047Y-76301428D02*
X191771428Y-76253809D01*
X191771428Y-76253809D02*
X191676190Y-76206190D01*
X191676190Y-76206190D02*
X191485714Y-76158571D01*
X191485714Y-76158571D02*
X191390476Y-76110952D01*
X191390476Y-76110952D02*
X191342857Y-76063333D01*
X191342857Y-76063333D02*
X191295238Y-75968095D01*
X191295238Y-75968095D02*
X191295238Y-75872857D01*
X191295238Y-75872857D02*
X191342857Y-75777619D01*
X191342857Y-75777619D02*
X191390476Y-75730000D01*
X191390476Y-75730000D02*
X191485714Y-75682380D01*
X191485714Y-75682380D02*
X191723809Y-75682380D01*
X191723809Y-75682380D02*
X191866666Y-75730000D01*
X192295238Y-76682380D02*
X192295238Y-75682380D01*
X192295238Y-75682380D02*
X192676190Y-75682380D01*
X192676190Y-75682380D02*
X192771428Y-75730000D01*
X192771428Y-75730000D02*
X192819047Y-75777619D01*
X192819047Y-75777619D02*
X192866666Y-75872857D01*
X192866666Y-75872857D02*
X192866666Y-76015714D01*
X192866666Y-76015714D02*
X192819047Y-76110952D01*
X192819047Y-76110952D02*
X192771428Y-76158571D01*
X192771428Y-76158571D02*
X192676190Y-76206190D01*
X192676190Y-76206190D02*
X192295238Y-76206190D01*
X193057143Y-76777619D02*
X193819047Y-76777619D01*
X194533333Y-75682380D02*
X194057143Y-75682380D01*
X194057143Y-75682380D02*
X194009524Y-76158571D01*
X194009524Y-76158571D02*
X194057143Y-76110952D01*
X194057143Y-76110952D02*
X194152381Y-76063333D01*
X194152381Y-76063333D02*
X194390476Y-76063333D01*
X194390476Y-76063333D02*
X194485714Y-76110952D01*
X194485714Y-76110952D02*
X194533333Y-76158571D01*
X194533333Y-76158571D02*
X194580952Y-76253809D01*
X194580952Y-76253809D02*
X194580952Y-76491904D01*
X194580952Y-76491904D02*
X194533333Y-76587142D01*
X194533333Y-76587142D02*
X194485714Y-76634761D01*
X194485714Y-76634761D02*
X194390476Y-76682380D01*
X194390476Y-76682380D02*
X194152381Y-76682380D01*
X194152381Y-76682380D02*
X194057143Y-76634761D01*
X194057143Y-76634761D02*
X194009524Y-76587142D01*
X194866667Y-75682380D02*
X195200000Y-76682380D01*
X195200000Y-76682380D02*
X195533333Y-75682380D01*
X170590476Y-73334761D02*
X170733333Y-73382380D01*
X170733333Y-73382380D02*
X170971428Y-73382380D01*
X170971428Y-73382380D02*
X171066666Y-73334761D01*
X171066666Y-73334761D02*
X171114285Y-73287142D01*
X171114285Y-73287142D02*
X171161904Y-73191904D01*
X171161904Y-73191904D02*
X171161904Y-73096666D01*
X171161904Y-73096666D02*
X171114285Y-73001428D01*
X171114285Y-73001428D02*
X171066666Y-72953809D01*
X171066666Y-72953809D02*
X170971428Y-72906190D01*
X170971428Y-72906190D02*
X170780952Y-72858571D01*
X170780952Y-72858571D02*
X170685714Y-72810952D01*
X170685714Y-72810952D02*
X170638095Y-72763333D01*
X170638095Y-72763333D02*
X170590476Y-72668095D01*
X170590476Y-72668095D02*
X170590476Y-72572857D01*
X170590476Y-72572857D02*
X170638095Y-72477619D01*
X170638095Y-72477619D02*
X170685714Y-72430000D01*
X170685714Y-72430000D02*
X170780952Y-72382380D01*
X170780952Y-72382380D02*
X171019047Y-72382380D01*
X171019047Y-72382380D02*
X171161904Y-72430000D01*
X172161904Y-73287142D02*
X172114285Y-73334761D01*
X172114285Y-73334761D02*
X171971428Y-73382380D01*
X171971428Y-73382380D02*
X171876190Y-73382380D01*
X171876190Y-73382380D02*
X171733333Y-73334761D01*
X171733333Y-73334761D02*
X171638095Y-73239523D01*
X171638095Y-73239523D02*
X171590476Y-73144285D01*
X171590476Y-73144285D02*
X171542857Y-72953809D01*
X171542857Y-72953809D02*
X171542857Y-72810952D01*
X171542857Y-72810952D02*
X171590476Y-72620476D01*
X171590476Y-72620476D02*
X171638095Y-72525238D01*
X171638095Y-72525238D02*
X171733333Y-72430000D01*
X171733333Y-72430000D02*
X171876190Y-72382380D01*
X171876190Y-72382380D02*
X171971428Y-72382380D01*
X171971428Y-72382380D02*
X172114285Y-72430000D01*
X172114285Y-72430000D02*
X172161904Y-72477619D01*
X173066666Y-73382380D02*
X172590476Y-73382380D01*
X172590476Y-73382380D02*
X172590476Y-72382380D01*
X164982380Y-73961904D02*
X163982380Y-73961904D01*
X163982380Y-73961904D02*
X163982380Y-73723809D01*
X163982380Y-73723809D02*
X164030000Y-73580952D01*
X164030000Y-73580952D02*
X164125238Y-73485714D01*
X164125238Y-73485714D02*
X164220476Y-73438095D01*
X164220476Y-73438095D02*
X164410952Y-73390476D01*
X164410952Y-73390476D02*
X164553809Y-73390476D01*
X164553809Y-73390476D02*
X164744285Y-73438095D01*
X164744285Y-73438095D02*
X164839523Y-73485714D01*
X164839523Y-73485714D02*
X164934761Y-73580952D01*
X164934761Y-73580952D02*
X164982380Y-73723809D01*
X164982380Y-73723809D02*
X164982380Y-73961904D01*
X164982380Y-72961904D02*
X164315714Y-72961904D01*
X163982380Y-72961904D02*
X164030000Y-73009523D01*
X164030000Y-73009523D02*
X164077619Y-72961904D01*
X164077619Y-72961904D02*
X164030000Y-72914285D01*
X164030000Y-72914285D02*
X163982380Y-72961904D01*
X163982380Y-72961904D02*
X164077619Y-72961904D01*
X164934761Y-72533333D02*
X164982380Y-72438095D01*
X164982380Y-72438095D02*
X164982380Y-72247619D01*
X164982380Y-72247619D02*
X164934761Y-72152381D01*
X164934761Y-72152381D02*
X164839523Y-72104762D01*
X164839523Y-72104762D02*
X164791904Y-72104762D01*
X164791904Y-72104762D02*
X164696666Y-72152381D01*
X164696666Y-72152381D02*
X164649047Y-72247619D01*
X164649047Y-72247619D02*
X164649047Y-72390476D01*
X164649047Y-72390476D02*
X164601428Y-72485714D01*
X164601428Y-72485714D02*
X164506190Y-72533333D01*
X164506190Y-72533333D02*
X164458571Y-72533333D01*
X164458571Y-72533333D02*
X164363333Y-72485714D01*
X164363333Y-72485714D02*
X164315714Y-72390476D01*
X164315714Y-72390476D02*
X164315714Y-72247619D01*
X164315714Y-72247619D02*
X164363333Y-72152381D01*
X164315714Y-71676190D02*
X165315714Y-71676190D01*
X164363333Y-71676190D02*
X164315714Y-71580952D01*
X164315714Y-71580952D02*
X164315714Y-71390476D01*
X164315714Y-71390476D02*
X164363333Y-71295238D01*
X164363333Y-71295238D02*
X164410952Y-71247619D01*
X164410952Y-71247619D02*
X164506190Y-71200000D01*
X164506190Y-71200000D02*
X164791904Y-71200000D01*
X164791904Y-71200000D02*
X164887142Y-71247619D01*
X164887142Y-71247619D02*
X164934761Y-71295238D01*
X164934761Y-71295238D02*
X164982380Y-71390476D01*
X164982380Y-71390476D02*
X164982380Y-71580952D01*
X164982380Y-71580952D02*
X164934761Y-71676190D01*
X164982380Y-70628571D02*
X164934761Y-70723809D01*
X164934761Y-70723809D02*
X164839523Y-70771428D01*
X164839523Y-70771428D02*
X163982380Y-70771428D01*
X164982380Y-69819047D02*
X164458571Y-69819047D01*
X164458571Y-69819047D02*
X164363333Y-69866666D01*
X164363333Y-69866666D02*
X164315714Y-69961904D01*
X164315714Y-69961904D02*
X164315714Y-70152380D01*
X164315714Y-70152380D02*
X164363333Y-70247618D01*
X164934761Y-69819047D02*
X164982380Y-69914285D01*
X164982380Y-69914285D02*
X164982380Y-70152380D01*
X164982380Y-70152380D02*
X164934761Y-70247618D01*
X164934761Y-70247618D02*
X164839523Y-70295237D01*
X164839523Y-70295237D02*
X164744285Y-70295237D01*
X164744285Y-70295237D02*
X164649047Y-70247618D01*
X164649047Y-70247618D02*
X164601428Y-70152380D01*
X164601428Y-70152380D02*
X164601428Y-69914285D01*
X164601428Y-69914285D02*
X164553809Y-69819047D01*
X164315714Y-69438094D02*
X164982380Y-69199999D01*
X164315714Y-68961904D02*
X164982380Y-69199999D01*
X164982380Y-69199999D02*
X165220476Y-69295237D01*
X165220476Y-69295237D02*
X165268095Y-69342856D01*
X165268095Y-69342856D02*
X165315714Y-69438094D01*
X171109523Y-63382380D02*
X170776190Y-62906190D01*
X170538095Y-63382380D02*
X170538095Y-62382380D01*
X170538095Y-62382380D02*
X170919047Y-62382380D01*
X170919047Y-62382380D02*
X171014285Y-62430000D01*
X171014285Y-62430000D02*
X171061904Y-62477619D01*
X171061904Y-62477619D02*
X171109523Y-62572857D01*
X171109523Y-62572857D02*
X171109523Y-62715714D01*
X171109523Y-62715714D02*
X171061904Y-62810952D01*
X171061904Y-62810952D02*
X171014285Y-62858571D01*
X171014285Y-62858571D02*
X170919047Y-62906190D01*
X170919047Y-62906190D02*
X170538095Y-62906190D01*
X171442857Y-62382380D02*
X172109523Y-63382380D01*
X172109523Y-62382380D02*
X171442857Y-63382380D01*
X172490476Y-63382380D02*
X172490476Y-62382380D01*
X172490476Y-62382380D02*
X172728571Y-62382380D01*
X172728571Y-62382380D02*
X172871428Y-62430000D01*
X172871428Y-62430000D02*
X172966666Y-62525238D01*
X172966666Y-62525238D02*
X173014285Y-62620476D01*
X173014285Y-62620476D02*
X173061904Y-62810952D01*
X173061904Y-62810952D02*
X173061904Y-62953809D01*
X173061904Y-62953809D02*
X173014285Y-63144285D01*
X173014285Y-63144285D02*
X172966666Y-63239523D01*
X172966666Y-63239523D02*
X172871428Y-63334761D01*
X172871428Y-63334761D02*
X172728571Y-63382380D01*
X172728571Y-63382380D02*
X172490476Y-63382380D01*
X170438095Y-87658571D02*
X170771428Y-87658571D01*
X170914285Y-88182380D02*
X170438095Y-88182380D01*
X170438095Y-88182380D02*
X170438095Y-87182380D01*
X170438095Y-87182380D02*
X170914285Y-87182380D01*
X171295238Y-88134761D02*
X171438095Y-88182380D01*
X171438095Y-88182380D02*
X171676190Y-88182380D01*
X171676190Y-88182380D02*
X171771428Y-88134761D01*
X171771428Y-88134761D02*
X171819047Y-88087142D01*
X171819047Y-88087142D02*
X171866666Y-87991904D01*
X171866666Y-87991904D02*
X171866666Y-87896666D01*
X171866666Y-87896666D02*
X171819047Y-87801428D01*
X171819047Y-87801428D02*
X171771428Y-87753809D01*
X171771428Y-87753809D02*
X171676190Y-87706190D01*
X171676190Y-87706190D02*
X171485714Y-87658571D01*
X171485714Y-87658571D02*
X171390476Y-87610952D01*
X171390476Y-87610952D02*
X171342857Y-87563333D01*
X171342857Y-87563333D02*
X171295238Y-87468095D01*
X171295238Y-87468095D02*
X171295238Y-87372857D01*
X171295238Y-87372857D02*
X171342857Y-87277619D01*
X171342857Y-87277619D02*
X171390476Y-87230000D01*
X171390476Y-87230000D02*
X171485714Y-87182380D01*
X171485714Y-87182380D02*
X171723809Y-87182380D01*
X171723809Y-87182380D02*
X171866666Y-87230000D01*
X172295238Y-88182380D02*
X172295238Y-87182380D01*
X172295238Y-87182380D02*
X172676190Y-87182380D01*
X172676190Y-87182380D02*
X172771428Y-87230000D01*
X172771428Y-87230000D02*
X172819047Y-87277619D01*
X172819047Y-87277619D02*
X172866666Y-87372857D01*
X172866666Y-87372857D02*
X172866666Y-87515714D01*
X172866666Y-87515714D02*
X172819047Y-87610952D01*
X172819047Y-87610952D02*
X172771428Y-87658571D01*
X172771428Y-87658571D02*
X172676190Y-87706190D01*
X172676190Y-87706190D02*
X172295238Y-87706190D01*
X173057143Y-88277619D02*
X173819047Y-88277619D01*
X174533333Y-87182380D02*
X174057143Y-87182380D01*
X174057143Y-87182380D02*
X174009524Y-87658571D01*
X174009524Y-87658571D02*
X174057143Y-87610952D01*
X174057143Y-87610952D02*
X174152381Y-87563333D01*
X174152381Y-87563333D02*
X174390476Y-87563333D01*
X174390476Y-87563333D02*
X174485714Y-87610952D01*
X174485714Y-87610952D02*
X174533333Y-87658571D01*
X174533333Y-87658571D02*
X174580952Y-87753809D01*
X174580952Y-87753809D02*
X174580952Y-87991904D01*
X174580952Y-87991904D02*
X174533333Y-88087142D01*
X174533333Y-88087142D02*
X174485714Y-88134761D01*
X174485714Y-88134761D02*
X174390476Y-88182380D01*
X174390476Y-88182380D02*
X174152381Y-88182380D01*
X174152381Y-88182380D02*
X174057143Y-88134761D01*
X174057143Y-88134761D02*
X174009524Y-88087142D01*
X174866667Y-87182380D02*
X175200000Y-88182380D01*
X175200000Y-88182380D02*
X175533333Y-87182380D01*
X190961904Y-73030000D02*
X190866666Y-72982380D01*
X190866666Y-72982380D02*
X190723809Y-72982380D01*
X190723809Y-72982380D02*
X190580952Y-73030000D01*
X190580952Y-73030000D02*
X190485714Y-73125238D01*
X190485714Y-73125238D02*
X190438095Y-73220476D01*
X190438095Y-73220476D02*
X190390476Y-73410952D01*
X190390476Y-73410952D02*
X190390476Y-73553809D01*
X190390476Y-73553809D02*
X190438095Y-73744285D01*
X190438095Y-73744285D02*
X190485714Y-73839523D01*
X190485714Y-73839523D02*
X190580952Y-73934761D01*
X190580952Y-73934761D02*
X190723809Y-73982380D01*
X190723809Y-73982380D02*
X190819047Y-73982380D01*
X190819047Y-73982380D02*
X190961904Y-73934761D01*
X190961904Y-73934761D02*
X191009523Y-73887142D01*
X191009523Y-73887142D02*
X191009523Y-73553809D01*
X191009523Y-73553809D02*
X190819047Y-73553809D01*
X191438095Y-73982380D02*
X191438095Y-72982380D01*
X191438095Y-72982380D02*
X192009523Y-73982380D01*
X192009523Y-73982380D02*
X192009523Y-72982380D01*
X192485714Y-73982380D02*
X192485714Y-72982380D01*
X192485714Y-72982380D02*
X192723809Y-72982380D01*
X192723809Y-72982380D02*
X192866666Y-73030000D01*
X192866666Y-73030000D02*
X192961904Y-73125238D01*
X192961904Y-73125238D02*
X193009523Y-73220476D01*
X193009523Y-73220476D02*
X193057142Y-73410952D01*
X193057142Y-73410952D02*
X193057142Y-73553809D01*
X193057142Y-73553809D02*
X193009523Y-73744285D01*
X193009523Y-73744285D02*
X192961904Y-73839523D01*
X192961904Y-73839523D02*
X192866666Y-73934761D01*
X192866666Y-73934761D02*
X192723809Y-73982380D01*
X192723809Y-73982380D02*
X192485714Y-73982380D01*
X170390476Y-80534761D02*
X170533333Y-80582380D01*
X170533333Y-80582380D02*
X170771428Y-80582380D01*
X170771428Y-80582380D02*
X170866666Y-80534761D01*
X170866666Y-80534761D02*
X170914285Y-80487142D01*
X170914285Y-80487142D02*
X170961904Y-80391904D01*
X170961904Y-80391904D02*
X170961904Y-80296666D01*
X170961904Y-80296666D02*
X170914285Y-80201428D01*
X170914285Y-80201428D02*
X170866666Y-80153809D01*
X170866666Y-80153809D02*
X170771428Y-80106190D01*
X170771428Y-80106190D02*
X170580952Y-80058571D01*
X170580952Y-80058571D02*
X170485714Y-80010952D01*
X170485714Y-80010952D02*
X170438095Y-79963333D01*
X170438095Y-79963333D02*
X170390476Y-79868095D01*
X170390476Y-79868095D02*
X170390476Y-79772857D01*
X170390476Y-79772857D02*
X170438095Y-79677619D01*
X170438095Y-79677619D02*
X170485714Y-79630000D01*
X170485714Y-79630000D02*
X170580952Y-79582380D01*
X170580952Y-79582380D02*
X170819047Y-79582380D01*
X170819047Y-79582380D02*
X170961904Y-79630000D01*
X171390476Y-80058571D02*
X171723809Y-80058571D01*
X171866666Y-80582380D02*
X171390476Y-80582380D01*
X171390476Y-80582380D02*
X171390476Y-79582380D01*
X171390476Y-79582380D02*
X171866666Y-79582380D01*
X172295238Y-80582380D02*
X172295238Y-79582380D01*
X172295238Y-79582380D02*
X172866666Y-80582380D01*
X172866666Y-80582380D02*
X172866666Y-79582380D01*
X173295238Y-80534761D02*
X173438095Y-80582380D01*
X173438095Y-80582380D02*
X173676190Y-80582380D01*
X173676190Y-80582380D02*
X173771428Y-80534761D01*
X173771428Y-80534761D02*
X173819047Y-80487142D01*
X173819047Y-80487142D02*
X173866666Y-80391904D01*
X173866666Y-80391904D02*
X173866666Y-80296666D01*
X173866666Y-80296666D02*
X173819047Y-80201428D01*
X173819047Y-80201428D02*
X173771428Y-80153809D01*
X173771428Y-80153809D02*
X173676190Y-80106190D01*
X173676190Y-80106190D02*
X173485714Y-80058571D01*
X173485714Y-80058571D02*
X173390476Y-80010952D01*
X173390476Y-80010952D02*
X173342857Y-79963333D01*
X173342857Y-79963333D02*
X173295238Y-79868095D01*
X173295238Y-79868095D02*
X173295238Y-79772857D01*
X173295238Y-79772857D02*
X173342857Y-79677619D01*
X173342857Y-79677619D02*
X173390476Y-79630000D01*
X173390476Y-79630000D02*
X173485714Y-79582380D01*
X173485714Y-79582380D02*
X173723809Y-79582380D01*
X173723809Y-79582380D02*
X173866666Y-79630000D01*
X174485714Y-79582380D02*
X174676190Y-79582380D01*
X174676190Y-79582380D02*
X174771428Y-79630000D01*
X174771428Y-79630000D02*
X174866666Y-79725238D01*
X174866666Y-79725238D02*
X174914285Y-79915714D01*
X174914285Y-79915714D02*
X174914285Y-80249047D01*
X174914285Y-80249047D02*
X174866666Y-80439523D01*
X174866666Y-80439523D02*
X174771428Y-80534761D01*
X174771428Y-80534761D02*
X174676190Y-80582380D01*
X174676190Y-80582380D02*
X174485714Y-80582380D01*
X174485714Y-80582380D02*
X174390476Y-80534761D01*
X174390476Y-80534761D02*
X174295238Y-80439523D01*
X174295238Y-80439523D02*
X174247619Y-80249047D01*
X174247619Y-80249047D02*
X174247619Y-79915714D01*
X174247619Y-79915714D02*
X174295238Y-79725238D01*
X174295238Y-79725238D02*
X174390476Y-79630000D01*
X174390476Y-79630000D02*
X174485714Y-79582380D01*
X175914285Y-80582380D02*
X175580952Y-80106190D01*
X175342857Y-80582380D02*
X175342857Y-79582380D01*
X175342857Y-79582380D02*
X175723809Y-79582380D01*
X175723809Y-79582380D02*
X175819047Y-79630000D01*
X175819047Y-79630000D02*
X175866666Y-79677619D01*
X175866666Y-79677619D02*
X175914285Y-79772857D01*
X175914285Y-79772857D02*
X175914285Y-79915714D01*
X175914285Y-79915714D02*
X175866666Y-80010952D01*
X175866666Y-80010952D02*
X175819047Y-80058571D01*
X175819047Y-80058571D02*
X175723809Y-80106190D01*
X175723809Y-80106190D02*
X175342857Y-80106190D01*
X176104762Y-80677619D02*
X176866666Y-80677619D01*
X176961905Y-79582380D02*
X177295238Y-80582380D01*
X177295238Y-80582380D02*
X177628571Y-79582380D01*
X177961905Y-80582380D02*
X177961905Y-79582380D01*
X177961905Y-79582380D02*
X178342857Y-79582380D01*
X178342857Y-79582380D02*
X178438095Y-79630000D01*
X178438095Y-79630000D02*
X178485714Y-79677619D01*
X178485714Y-79677619D02*
X178533333Y-79772857D01*
X178533333Y-79772857D02*
X178533333Y-79915714D01*
X178533333Y-79915714D02*
X178485714Y-80010952D01*
X178485714Y-80010952D02*
X178438095Y-80058571D01*
X178438095Y-80058571D02*
X178342857Y-80106190D01*
X178342857Y-80106190D02*
X177961905Y-80106190D01*
X224038095Y-93882380D02*
X224038095Y-92882380D01*
X224704761Y-92882380D02*
X224895237Y-92882380D01*
X224895237Y-92882380D02*
X224990475Y-92930000D01*
X224990475Y-92930000D02*
X225085713Y-93025238D01*
X225085713Y-93025238D02*
X225133332Y-93215714D01*
X225133332Y-93215714D02*
X225133332Y-93549047D01*
X225133332Y-93549047D02*
X225085713Y-93739523D01*
X225085713Y-93739523D02*
X224990475Y-93834761D01*
X224990475Y-93834761D02*
X224895237Y-93882380D01*
X224895237Y-93882380D02*
X224704761Y-93882380D01*
X224704761Y-93882380D02*
X224609523Y-93834761D01*
X224609523Y-93834761D02*
X224514285Y-93739523D01*
X224514285Y-93739523D02*
X224466666Y-93549047D01*
X224466666Y-93549047D02*
X224466666Y-93215714D01*
X224466666Y-93215714D02*
X224514285Y-93025238D01*
X224514285Y-93025238D02*
X224609523Y-92930000D01*
X224609523Y-92930000D02*
X224704761Y-92882380D01*
X225752380Y-92882380D02*
X225847618Y-92882380D01*
X225847618Y-92882380D02*
X225942856Y-92930000D01*
X225942856Y-92930000D02*
X225990475Y-92977619D01*
X225990475Y-92977619D02*
X226038094Y-93072857D01*
X226038094Y-93072857D02*
X226085713Y-93263333D01*
X226085713Y-93263333D02*
X226085713Y-93501428D01*
X226085713Y-93501428D02*
X226038094Y-93691904D01*
X226038094Y-93691904D02*
X225990475Y-93787142D01*
X225990475Y-93787142D02*
X225942856Y-93834761D01*
X225942856Y-93834761D02*
X225847618Y-93882380D01*
X225847618Y-93882380D02*
X225752380Y-93882380D01*
X225752380Y-93882380D02*
X225657142Y-93834761D01*
X225657142Y-93834761D02*
X225609523Y-93787142D01*
X225609523Y-93787142D02*
X225561904Y-93691904D01*
X225561904Y-93691904D02*
X225514285Y-93501428D01*
X225514285Y-93501428D02*
X225514285Y-93263333D01*
X225514285Y-93263333D02*
X225561904Y-93072857D01*
X225561904Y-93072857D02*
X225609523Y-92977619D01*
X225609523Y-92977619D02*
X225657142Y-92930000D01*
X225657142Y-92930000D02*
X225752380Y-92882380D01*
X224038095Y-83582380D02*
X224038095Y-82582380D01*
X224704761Y-82582380D02*
X224895237Y-82582380D01*
X224895237Y-82582380D02*
X224990475Y-82630000D01*
X224990475Y-82630000D02*
X225085713Y-82725238D01*
X225085713Y-82725238D02*
X225133332Y-82915714D01*
X225133332Y-82915714D02*
X225133332Y-83249047D01*
X225133332Y-83249047D02*
X225085713Y-83439523D01*
X225085713Y-83439523D02*
X224990475Y-83534761D01*
X224990475Y-83534761D02*
X224895237Y-83582380D01*
X224895237Y-83582380D02*
X224704761Y-83582380D01*
X224704761Y-83582380D02*
X224609523Y-83534761D01*
X224609523Y-83534761D02*
X224514285Y-83439523D01*
X224514285Y-83439523D02*
X224466666Y-83249047D01*
X224466666Y-83249047D02*
X224466666Y-82915714D01*
X224466666Y-82915714D02*
X224514285Y-82725238D01*
X224514285Y-82725238D02*
X224609523Y-82630000D01*
X224609523Y-82630000D02*
X224704761Y-82582380D01*
X225514285Y-82677619D02*
X225561904Y-82630000D01*
X225561904Y-82630000D02*
X225657142Y-82582380D01*
X225657142Y-82582380D02*
X225895237Y-82582380D01*
X225895237Y-82582380D02*
X225990475Y-82630000D01*
X225990475Y-82630000D02*
X226038094Y-82677619D01*
X226038094Y-82677619D02*
X226085713Y-82772857D01*
X226085713Y-82772857D02*
X226085713Y-82868095D01*
X226085713Y-82868095D02*
X226038094Y-83010952D01*
X226038094Y-83010952D02*
X225466666Y-83582380D01*
X225466666Y-83582380D02*
X226085713Y-83582380D01*
X170690476Y-70834761D02*
X170833333Y-70882380D01*
X170833333Y-70882380D02*
X171071428Y-70882380D01*
X171071428Y-70882380D02*
X171166666Y-70834761D01*
X171166666Y-70834761D02*
X171214285Y-70787142D01*
X171214285Y-70787142D02*
X171261904Y-70691904D01*
X171261904Y-70691904D02*
X171261904Y-70596666D01*
X171261904Y-70596666D02*
X171214285Y-70501428D01*
X171214285Y-70501428D02*
X171166666Y-70453809D01*
X171166666Y-70453809D02*
X171071428Y-70406190D01*
X171071428Y-70406190D02*
X170880952Y-70358571D01*
X170880952Y-70358571D02*
X170785714Y-70310952D01*
X170785714Y-70310952D02*
X170738095Y-70263333D01*
X170738095Y-70263333D02*
X170690476Y-70168095D01*
X170690476Y-70168095D02*
X170690476Y-70072857D01*
X170690476Y-70072857D02*
X170738095Y-69977619D01*
X170738095Y-69977619D02*
X170785714Y-69930000D01*
X170785714Y-69930000D02*
X170880952Y-69882380D01*
X170880952Y-69882380D02*
X171119047Y-69882380D01*
X171119047Y-69882380D02*
X171261904Y-69930000D01*
X171690476Y-70882380D02*
X171690476Y-69882380D01*
X171690476Y-69882380D02*
X171928571Y-69882380D01*
X171928571Y-69882380D02*
X172071428Y-69930000D01*
X172071428Y-69930000D02*
X172166666Y-70025238D01*
X172166666Y-70025238D02*
X172214285Y-70120476D01*
X172214285Y-70120476D02*
X172261904Y-70310952D01*
X172261904Y-70310952D02*
X172261904Y-70453809D01*
X172261904Y-70453809D02*
X172214285Y-70644285D01*
X172214285Y-70644285D02*
X172166666Y-70739523D01*
X172166666Y-70739523D02*
X172071428Y-70834761D01*
X172071428Y-70834761D02*
X171928571Y-70882380D01*
X171928571Y-70882380D02*
X171690476Y-70882380D01*
X172642857Y-70596666D02*
X173119047Y-70596666D01*
X172547619Y-70882380D02*
X172880952Y-69882380D01*
X172880952Y-69882380D02*
X173214285Y-70882380D01*
X170961904Y-89730000D02*
X170866666Y-89682380D01*
X170866666Y-89682380D02*
X170723809Y-89682380D01*
X170723809Y-89682380D02*
X170580952Y-89730000D01*
X170580952Y-89730000D02*
X170485714Y-89825238D01*
X170485714Y-89825238D02*
X170438095Y-89920476D01*
X170438095Y-89920476D02*
X170390476Y-90110952D01*
X170390476Y-90110952D02*
X170390476Y-90253809D01*
X170390476Y-90253809D02*
X170438095Y-90444285D01*
X170438095Y-90444285D02*
X170485714Y-90539523D01*
X170485714Y-90539523D02*
X170580952Y-90634761D01*
X170580952Y-90634761D02*
X170723809Y-90682380D01*
X170723809Y-90682380D02*
X170819047Y-90682380D01*
X170819047Y-90682380D02*
X170961904Y-90634761D01*
X170961904Y-90634761D02*
X171009523Y-90587142D01*
X171009523Y-90587142D02*
X171009523Y-90253809D01*
X171009523Y-90253809D02*
X170819047Y-90253809D01*
X171438095Y-90682380D02*
X171438095Y-89682380D01*
X171438095Y-89682380D02*
X172009523Y-90682380D01*
X172009523Y-90682380D02*
X172009523Y-89682380D01*
X172485714Y-90682380D02*
X172485714Y-89682380D01*
X172485714Y-89682380D02*
X172723809Y-89682380D01*
X172723809Y-89682380D02*
X172866666Y-89730000D01*
X172866666Y-89730000D02*
X172961904Y-89825238D01*
X172961904Y-89825238D02*
X173009523Y-89920476D01*
X173009523Y-89920476D02*
X173057142Y-90110952D01*
X173057142Y-90110952D02*
X173057142Y-90253809D01*
X173057142Y-90253809D02*
X173009523Y-90444285D01*
X173009523Y-90444285D02*
X172961904Y-90539523D01*
X172961904Y-90539523D02*
X172866666Y-90634761D01*
X172866666Y-90634761D02*
X172723809Y-90682380D01*
X172723809Y-90682380D02*
X172485714Y-90682380D01*
X223990476Y-86134761D02*
X224133333Y-86182380D01*
X224133333Y-86182380D02*
X224371428Y-86182380D01*
X224371428Y-86182380D02*
X224466666Y-86134761D01*
X224466666Y-86134761D02*
X224514285Y-86087142D01*
X224514285Y-86087142D02*
X224561904Y-85991904D01*
X224561904Y-85991904D02*
X224561904Y-85896666D01*
X224561904Y-85896666D02*
X224514285Y-85801428D01*
X224514285Y-85801428D02*
X224466666Y-85753809D01*
X224466666Y-85753809D02*
X224371428Y-85706190D01*
X224371428Y-85706190D02*
X224180952Y-85658571D01*
X224180952Y-85658571D02*
X224085714Y-85610952D01*
X224085714Y-85610952D02*
X224038095Y-85563333D01*
X224038095Y-85563333D02*
X223990476Y-85468095D01*
X223990476Y-85468095D02*
X223990476Y-85372857D01*
X223990476Y-85372857D02*
X224038095Y-85277619D01*
X224038095Y-85277619D02*
X224085714Y-85230000D01*
X224085714Y-85230000D02*
X224180952Y-85182380D01*
X224180952Y-85182380D02*
X224419047Y-85182380D01*
X224419047Y-85182380D02*
X224561904Y-85230000D01*
X224990476Y-86182380D02*
X224990476Y-85182380D01*
X224990476Y-85182380D02*
X225228571Y-85182380D01*
X225228571Y-85182380D02*
X225371428Y-85230000D01*
X225371428Y-85230000D02*
X225466666Y-85325238D01*
X225466666Y-85325238D02*
X225514285Y-85420476D01*
X225514285Y-85420476D02*
X225561904Y-85610952D01*
X225561904Y-85610952D02*
X225561904Y-85753809D01*
X225561904Y-85753809D02*
X225514285Y-85944285D01*
X225514285Y-85944285D02*
X225466666Y-86039523D01*
X225466666Y-86039523D02*
X225371428Y-86134761D01*
X225371428Y-86134761D02*
X225228571Y-86182380D01*
X225228571Y-86182380D02*
X224990476Y-86182380D01*
X226180952Y-85182380D02*
X226371428Y-85182380D01*
X226371428Y-85182380D02*
X226466666Y-85230000D01*
X226466666Y-85230000D02*
X226561904Y-85325238D01*
X226561904Y-85325238D02*
X226609523Y-85515714D01*
X226609523Y-85515714D02*
X226609523Y-85849047D01*
X226609523Y-85849047D02*
X226561904Y-86039523D01*
X226561904Y-86039523D02*
X226466666Y-86134761D01*
X226466666Y-86134761D02*
X226371428Y-86182380D01*
X226371428Y-86182380D02*
X226180952Y-86182380D01*
X226180952Y-86182380D02*
X226085714Y-86134761D01*
X226085714Y-86134761D02*
X225990476Y-86039523D01*
X225990476Y-86039523D02*
X225942857Y-85849047D01*
X225942857Y-85849047D02*
X225942857Y-85515714D01*
X225942857Y-85515714D02*
X225990476Y-85325238D01*
X225990476Y-85325238D02*
X226085714Y-85230000D01*
X226085714Y-85230000D02*
X226180952Y-85182380D01*
X170290476Y-83234761D02*
X170433333Y-83282380D01*
X170433333Y-83282380D02*
X170671428Y-83282380D01*
X170671428Y-83282380D02*
X170766666Y-83234761D01*
X170766666Y-83234761D02*
X170814285Y-83187142D01*
X170814285Y-83187142D02*
X170861904Y-83091904D01*
X170861904Y-83091904D02*
X170861904Y-82996666D01*
X170861904Y-82996666D02*
X170814285Y-82901428D01*
X170814285Y-82901428D02*
X170766666Y-82853809D01*
X170766666Y-82853809D02*
X170671428Y-82806190D01*
X170671428Y-82806190D02*
X170480952Y-82758571D01*
X170480952Y-82758571D02*
X170385714Y-82710952D01*
X170385714Y-82710952D02*
X170338095Y-82663333D01*
X170338095Y-82663333D02*
X170290476Y-82568095D01*
X170290476Y-82568095D02*
X170290476Y-82472857D01*
X170290476Y-82472857D02*
X170338095Y-82377619D01*
X170338095Y-82377619D02*
X170385714Y-82330000D01*
X170385714Y-82330000D02*
X170480952Y-82282380D01*
X170480952Y-82282380D02*
X170719047Y-82282380D01*
X170719047Y-82282380D02*
X170861904Y-82330000D01*
X171290476Y-82758571D02*
X171623809Y-82758571D01*
X171766666Y-83282380D02*
X171290476Y-83282380D01*
X171290476Y-83282380D02*
X171290476Y-82282380D01*
X171290476Y-82282380D02*
X171766666Y-82282380D01*
X172195238Y-83282380D02*
X172195238Y-82282380D01*
X172195238Y-82282380D02*
X172766666Y-83282380D01*
X172766666Y-83282380D02*
X172766666Y-82282380D01*
X173195238Y-83234761D02*
X173338095Y-83282380D01*
X173338095Y-83282380D02*
X173576190Y-83282380D01*
X173576190Y-83282380D02*
X173671428Y-83234761D01*
X173671428Y-83234761D02*
X173719047Y-83187142D01*
X173719047Y-83187142D02*
X173766666Y-83091904D01*
X173766666Y-83091904D02*
X173766666Y-82996666D01*
X173766666Y-82996666D02*
X173719047Y-82901428D01*
X173719047Y-82901428D02*
X173671428Y-82853809D01*
X173671428Y-82853809D02*
X173576190Y-82806190D01*
X173576190Y-82806190D02*
X173385714Y-82758571D01*
X173385714Y-82758571D02*
X173290476Y-82710952D01*
X173290476Y-82710952D02*
X173242857Y-82663333D01*
X173242857Y-82663333D02*
X173195238Y-82568095D01*
X173195238Y-82568095D02*
X173195238Y-82472857D01*
X173195238Y-82472857D02*
X173242857Y-82377619D01*
X173242857Y-82377619D02*
X173290476Y-82330000D01*
X173290476Y-82330000D02*
X173385714Y-82282380D01*
X173385714Y-82282380D02*
X173623809Y-82282380D01*
X173623809Y-82282380D02*
X173766666Y-82330000D01*
X174385714Y-82282380D02*
X174576190Y-82282380D01*
X174576190Y-82282380D02*
X174671428Y-82330000D01*
X174671428Y-82330000D02*
X174766666Y-82425238D01*
X174766666Y-82425238D02*
X174814285Y-82615714D01*
X174814285Y-82615714D02*
X174814285Y-82949047D01*
X174814285Y-82949047D02*
X174766666Y-83139523D01*
X174766666Y-83139523D02*
X174671428Y-83234761D01*
X174671428Y-83234761D02*
X174576190Y-83282380D01*
X174576190Y-83282380D02*
X174385714Y-83282380D01*
X174385714Y-83282380D02*
X174290476Y-83234761D01*
X174290476Y-83234761D02*
X174195238Y-83139523D01*
X174195238Y-83139523D02*
X174147619Y-82949047D01*
X174147619Y-82949047D02*
X174147619Y-82615714D01*
X174147619Y-82615714D02*
X174195238Y-82425238D01*
X174195238Y-82425238D02*
X174290476Y-82330000D01*
X174290476Y-82330000D02*
X174385714Y-82282380D01*
X175814285Y-83282380D02*
X175480952Y-82806190D01*
X175242857Y-83282380D02*
X175242857Y-82282380D01*
X175242857Y-82282380D02*
X175623809Y-82282380D01*
X175623809Y-82282380D02*
X175719047Y-82330000D01*
X175719047Y-82330000D02*
X175766666Y-82377619D01*
X175766666Y-82377619D02*
X175814285Y-82472857D01*
X175814285Y-82472857D02*
X175814285Y-82615714D01*
X175814285Y-82615714D02*
X175766666Y-82710952D01*
X175766666Y-82710952D02*
X175719047Y-82758571D01*
X175719047Y-82758571D02*
X175623809Y-82806190D01*
X175623809Y-82806190D02*
X175242857Y-82806190D01*
X176004762Y-83377619D02*
X176766666Y-83377619D01*
X176861905Y-82282380D02*
X177195238Y-83282380D01*
X177195238Y-83282380D02*
X177528571Y-82282380D01*
X177861905Y-83282380D02*
X177861905Y-82282380D01*
X177861905Y-82282380D02*
X178433333Y-83282380D01*
X178433333Y-83282380D02*
X178433333Y-82282380D01*
X223990476Y-91334761D02*
X224133333Y-91382380D01*
X224133333Y-91382380D02*
X224371428Y-91382380D01*
X224371428Y-91382380D02*
X224466666Y-91334761D01*
X224466666Y-91334761D02*
X224514285Y-91287142D01*
X224514285Y-91287142D02*
X224561904Y-91191904D01*
X224561904Y-91191904D02*
X224561904Y-91096666D01*
X224561904Y-91096666D02*
X224514285Y-91001428D01*
X224514285Y-91001428D02*
X224466666Y-90953809D01*
X224466666Y-90953809D02*
X224371428Y-90906190D01*
X224371428Y-90906190D02*
X224180952Y-90858571D01*
X224180952Y-90858571D02*
X224085714Y-90810952D01*
X224085714Y-90810952D02*
X224038095Y-90763333D01*
X224038095Y-90763333D02*
X223990476Y-90668095D01*
X223990476Y-90668095D02*
X223990476Y-90572857D01*
X223990476Y-90572857D02*
X224038095Y-90477619D01*
X224038095Y-90477619D02*
X224085714Y-90430000D01*
X224085714Y-90430000D02*
X224180952Y-90382380D01*
X224180952Y-90382380D02*
X224419047Y-90382380D01*
X224419047Y-90382380D02*
X224561904Y-90430000D01*
X225561904Y-91287142D02*
X225514285Y-91334761D01*
X225514285Y-91334761D02*
X225371428Y-91382380D01*
X225371428Y-91382380D02*
X225276190Y-91382380D01*
X225276190Y-91382380D02*
X225133333Y-91334761D01*
X225133333Y-91334761D02*
X225038095Y-91239523D01*
X225038095Y-91239523D02*
X224990476Y-91144285D01*
X224990476Y-91144285D02*
X224942857Y-90953809D01*
X224942857Y-90953809D02*
X224942857Y-90810952D01*
X224942857Y-90810952D02*
X224990476Y-90620476D01*
X224990476Y-90620476D02*
X225038095Y-90525238D01*
X225038095Y-90525238D02*
X225133333Y-90430000D01*
X225133333Y-90430000D02*
X225276190Y-90382380D01*
X225276190Y-90382380D02*
X225371428Y-90382380D01*
X225371428Y-90382380D02*
X225514285Y-90430000D01*
X225514285Y-90430000D02*
X225561904Y-90477619D01*
X226466666Y-91382380D02*
X225990476Y-91382380D01*
X225990476Y-91382380D02*
X225990476Y-90382380D01*
X226800000Y-91382380D02*
X226800000Y-90382380D01*
X227371428Y-91382380D02*
X226942857Y-90810952D01*
X227371428Y-90382380D02*
X226800000Y-90953809D01*
X182038095Y-54782380D02*
X182038095Y-53782380D01*
X182038095Y-53782380D02*
X182276190Y-53782380D01*
X182276190Y-53782380D02*
X182419047Y-53830000D01*
X182419047Y-53830000D02*
X182514285Y-53925238D01*
X182514285Y-53925238D02*
X182561904Y-54020476D01*
X182561904Y-54020476D02*
X182609523Y-54210952D01*
X182609523Y-54210952D02*
X182609523Y-54353809D01*
X182609523Y-54353809D02*
X182561904Y-54544285D01*
X182561904Y-54544285D02*
X182514285Y-54639523D01*
X182514285Y-54639523D02*
X182419047Y-54734761D01*
X182419047Y-54734761D02*
X182276190Y-54782380D01*
X182276190Y-54782380D02*
X182038095Y-54782380D01*
X183038095Y-54782380D02*
X183038095Y-54115714D01*
X183038095Y-53782380D02*
X182990476Y-53830000D01*
X182990476Y-53830000D02*
X183038095Y-53877619D01*
X183038095Y-53877619D02*
X183085714Y-53830000D01*
X183085714Y-53830000D02*
X183038095Y-53782380D01*
X183038095Y-53782380D02*
X183038095Y-53877619D01*
X183466666Y-54734761D02*
X183561904Y-54782380D01*
X183561904Y-54782380D02*
X183752380Y-54782380D01*
X183752380Y-54782380D02*
X183847618Y-54734761D01*
X183847618Y-54734761D02*
X183895237Y-54639523D01*
X183895237Y-54639523D02*
X183895237Y-54591904D01*
X183895237Y-54591904D02*
X183847618Y-54496666D01*
X183847618Y-54496666D02*
X183752380Y-54449047D01*
X183752380Y-54449047D02*
X183609523Y-54449047D01*
X183609523Y-54449047D02*
X183514285Y-54401428D01*
X183514285Y-54401428D02*
X183466666Y-54306190D01*
X183466666Y-54306190D02*
X183466666Y-54258571D01*
X183466666Y-54258571D02*
X183514285Y-54163333D01*
X183514285Y-54163333D02*
X183609523Y-54115714D01*
X183609523Y-54115714D02*
X183752380Y-54115714D01*
X183752380Y-54115714D02*
X183847618Y-54163333D01*
X184323809Y-54115714D02*
X184323809Y-55115714D01*
X184323809Y-54163333D02*
X184419047Y-54115714D01*
X184419047Y-54115714D02*
X184609523Y-54115714D01*
X184609523Y-54115714D02*
X184704761Y-54163333D01*
X184704761Y-54163333D02*
X184752380Y-54210952D01*
X184752380Y-54210952D02*
X184799999Y-54306190D01*
X184799999Y-54306190D02*
X184799999Y-54591904D01*
X184799999Y-54591904D02*
X184752380Y-54687142D01*
X184752380Y-54687142D02*
X184704761Y-54734761D01*
X184704761Y-54734761D02*
X184609523Y-54782380D01*
X184609523Y-54782380D02*
X184419047Y-54782380D01*
X184419047Y-54782380D02*
X184323809Y-54734761D01*
X185371428Y-54782380D02*
X185276190Y-54734761D01*
X185276190Y-54734761D02*
X185228571Y-54639523D01*
X185228571Y-54639523D02*
X185228571Y-53782380D01*
X186180952Y-54782380D02*
X186180952Y-54258571D01*
X186180952Y-54258571D02*
X186133333Y-54163333D01*
X186133333Y-54163333D02*
X186038095Y-54115714D01*
X186038095Y-54115714D02*
X185847619Y-54115714D01*
X185847619Y-54115714D02*
X185752381Y-54163333D01*
X186180952Y-54734761D02*
X186085714Y-54782380D01*
X186085714Y-54782380D02*
X185847619Y-54782380D01*
X185847619Y-54782380D02*
X185752381Y-54734761D01*
X185752381Y-54734761D02*
X185704762Y-54639523D01*
X185704762Y-54639523D02*
X185704762Y-54544285D01*
X185704762Y-54544285D02*
X185752381Y-54449047D01*
X185752381Y-54449047D02*
X185847619Y-54401428D01*
X185847619Y-54401428D02*
X186085714Y-54401428D01*
X186085714Y-54401428D02*
X186180952Y-54353809D01*
X186561905Y-54115714D02*
X186800000Y-54782380D01*
X187038095Y-54115714D02*
X186800000Y-54782380D01*
X186800000Y-54782380D02*
X186704762Y-55020476D01*
X186704762Y-55020476D02*
X186657143Y-55068095D01*
X186657143Y-55068095D02*
X186561905Y-55115714D01*
X187419048Y-54401428D02*
X188180953Y-54401428D01*
X188657143Y-54782380D02*
X188657143Y-53782380D01*
X188657143Y-53782380D02*
X189038095Y-53782380D01*
X189038095Y-53782380D02*
X189133333Y-53830000D01*
X189133333Y-53830000D02*
X189180952Y-53877619D01*
X189180952Y-53877619D02*
X189228571Y-53972857D01*
X189228571Y-53972857D02*
X189228571Y-54115714D01*
X189228571Y-54115714D02*
X189180952Y-54210952D01*
X189180952Y-54210952D02*
X189133333Y-54258571D01*
X189133333Y-54258571D02*
X189038095Y-54306190D01*
X189038095Y-54306190D02*
X188657143Y-54306190D01*
X189800000Y-54782380D02*
X189704762Y-54734761D01*
X189704762Y-54734761D02*
X189657143Y-54639523D01*
X189657143Y-54639523D02*
X189657143Y-53782380D01*
X190609524Y-54782380D02*
X190609524Y-54258571D01*
X190609524Y-54258571D02*
X190561905Y-54163333D01*
X190561905Y-54163333D02*
X190466667Y-54115714D01*
X190466667Y-54115714D02*
X190276191Y-54115714D01*
X190276191Y-54115714D02*
X190180953Y-54163333D01*
X190609524Y-54734761D02*
X190514286Y-54782380D01*
X190514286Y-54782380D02*
X190276191Y-54782380D01*
X190276191Y-54782380D02*
X190180953Y-54734761D01*
X190180953Y-54734761D02*
X190133334Y-54639523D01*
X190133334Y-54639523D02*
X190133334Y-54544285D01*
X190133334Y-54544285D02*
X190180953Y-54449047D01*
X190180953Y-54449047D02*
X190276191Y-54401428D01*
X190276191Y-54401428D02*
X190514286Y-54401428D01*
X190514286Y-54401428D02*
X190609524Y-54353809D01*
X190942858Y-54115714D02*
X191323810Y-54115714D01*
X191085715Y-53782380D02*
X191085715Y-54639523D01*
X191085715Y-54639523D02*
X191133334Y-54734761D01*
X191133334Y-54734761D02*
X191228572Y-54782380D01*
X191228572Y-54782380D02*
X191323810Y-54782380D01*
X191657144Y-54782380D02*
X191657144Y-54115714D01*
X191657144Y-53782380D02*
X191609525Y-53830000D01*
X191609525Y-53830000D02*
X191657144Y-53877619D01*
X191657144Y-53877619D02*
X191704763Y-53830000D01*
X191704763Y-53830000D02*
X191657144Y-53782380D01*
X191657144Y-53782380D02*
X191657144Y-53877619D01*
X192133334Y-54115714D02*
X192133334Y-54782380D01*
X192133334Y-54210952D02*
X192180953Y-54163333D01*
X192180953Y-54163333D02*
X192276191Y-54115714D01*
X192276191Y-54115714D02*
X192419048Y-54115714D01*
X192419048Y-54115714D02*
X192514286Y-54163333D01*
X192514286Y-54163333D02*
X192561905Y-54258571D01*
X192561905Y-54258571D02*
X192561905Y-54782380D01*
X193419048Y-54734761D02*
X193323810Y-54782380D01*
X193323810Y-54782380D02*
X193133334Y-54782380D01*
X193133334Y-54782380D02*
X193038096Y-54734761D01*
X193038096Y-54734761D02*
X192990477Y-54639523D01*
X192990477Y-54639523D02*
X192990477Y-54258571D01*
X192990477Y-54258571D02*
X193038096Y-54163333D01*
X193038096Y-54163333D02*
X193133334Y-54115714D01*
X193133334Y-54115714D02*
X193323810Y-54115714D01*
X193323810Y-54115714D02*
X193419048Y-54163333D01*
X193419048Y-54163333D02*
X193466667Y-54258571D01*
X193466667Y-54258571D02*
X193466667Y-54353809D01*
X193466667Y-54353809D02*
X192990477Y-54449047D01*
X194923810Y-54115714D02*
X194923810Y-54782380D01*
X194685715Y-53734761D02*
X194447620Y-54449047D01*
X194447620Y-54449047D02*
X195066667Y-54449047D01*
X195780953Y-54258571D02*
X195923810Y-54306190D01*
X195923810Y-54306190D02*
X195971429Y-54353809D01*
X195971429Y-54353809D02*
X196019048Y-54449047D01*
X196019048Y-54449047D02*
X196019048Y-54591904D01*
X196019048Y-54591904D02*
X195971429Y-54687142D01*
X195971429Y-54687142D02*
X195923810Y-54734761D01*
X195923810Y-54734761D02*
X195828572Y-54782380D01*
X195828572Y-54782380D02*
X195447620Y-54782380D01*
X195447620Y-54782380D02*
X195447620Y-53782380D01*
X195447620Y-53782380D02*
X195780953Y-53782380D01*
X195780953Y-53782380D02*
X195876191Y-53830000D01*
X195876191Y-53830000D02*
X195923810Y-53877619D01*
X195923810Y-53877619D02*
X195971429Y-53972857D01*
X195971429Y-53972857D02*
X195971429Y-54068095D01*
X195971429Y-54068095D02*
X195923810Y-54163333D01*
X195923810Y-54163333D02*
X195876191Y-54210952D01*
X195876191Y-54210952D02*
X195780953Y-54258571D01*
X195780953Y-54258571D02*
X195447620Y-54258571D01*
X196447620Y-54782380D02*
X196447620Y-53782380D01*
X196447620Y-54258571D02*
X197019048Y-54258571D01*
X197019048Y-54782380D02*
X197019048Y-53782380D01*
X197495239Y-54258571D02*
X197828572Y-54258571D01*
X197971429Y-54782380D02*
X197495239Y-54782380D01*
X197495239Y-54782380D02*
X197495239Y-53782380D01*
X197495239Y-53782380D02*
X197971429Y-53782380D01*
X198876191Y-54782380D02*
X198400001Y-54782380D01*
X198400001Y-54782380D02*
X198400001Y-53782380D01*
X170438095Y-85682380D02*
X170438095Y-84682380D01*
X171104761Y-84682380D02*
X171295237Y-84682380D01*
X171295237Y-84682380D02*
X171390475Y-84730000D01*
X171390475Y-84730000D02*
X171485713Y-84825238D01*
X171485713Y-84825238D02*
X171533332Y-85015714D01*
X171533332Y-85015714D02*
X171533332Y-85349047D01*
X171533332Y-85349047D02*
X171485713Y-85539523D01*
X171485713Y-85539523D02*
X171390475Y-85634761D01*
X171390475Y-85634761D02*
X171295237Y-85682380D01*
X171295237Y-85682380D02*
X171104761Y-85682380D01*
X171104761Y-85682380D02*
X171009523Y-85634761D01*
X171009523Y-85634761D02*
X170914285Y-85539523D01*
X170914285Y-85539523D02*
X170866666Y-85349047D01*
X170866666Y-85349047D02*
X170866666Y-85015714D01*
X170866666Y-85015714D02*
X170914285Y-84825238D01*
X170914285Y-84825238D02*
X171009523Y-84730000D01*
X171009523Y-84730000D02*
X171104761Y-84682380D01*
X171866666Y-84682380D02*
X172485713Y-84682380D01*
X172485713Y-84682380D02*
X172152380Y-85063333D01*
X172152380Y-85063333D02*
X172295237Y-85063333D01*
X172295237Y-85063333D02*
X172390475Y-85110952D01*
X172390475Y-85110952D02*
X172438094Y-85158571D01*
X172438094Y-85158571D02*
X172485713Y-85253809D01*
X172485713Y-85253809D02*
X172485713Y-85491904D01*
X172485713Y-85491904D02*
X172438094Y-85587142D01*
X172438094Y-85587142D02*
X172390475Y-85634761D01*
X172390475Y-85634761D02*
X172295237Y-85682380D01*
X172295237Y-85682380D02*
X172009523Y-85682380D01*
X172009523Y-85682380D02*
X171914285Y-85634761D01*
X171914285Y-85634761D02*
X171866666Y-85587142D01*
X173342856Y-85015714D02*
X173342856Y-85682380D01*
X173104761Y-84634761D02*
X172866666Y-85349047D01*
X172866666Y-85349047D02*
X173485713Y-85349047D01*
X171061904Y-75030000D02*
X170966666Y-74982380D01*
X170966666Y-74982380D02*
X170823809Y-74982380D01*
X170823809Y-74982380D02*
X170680952Y-75030000D01*
X170680952Y-75030000D02*
X170585714Y-75125238D01*
X170585714Y-75125238D02*
X170538095Y-75220476D01*
X170538095Y-75220476D02*
X170490476Y-75410952D01*
X170490476Y-75410952D02*
X170490476Y-75553809D01*
X170490476Y-75553809D02*
X170538095Y-75744285D01*
X170538095Y-75744285D02*
X170585714Y-75839523D01*
X170585714Y-75839523D02*
X170680952Y-75934761D01*
X170680952Y-75934761D02*
X170823809Y-75982380D01*
X170823809Y-75982380D02*
X170919047Y-75982380D01*
X170919047Y-75982380D02*
X171061904Y-75934761D01*
X171061904Y-75934761D02*
X171109523Y-75887142D01*
X171109523Y-75887142D02*
X171109523Y-75553809D01*
X171109523Y-75553809D02*
X170919047Y-75553809D01*
X171538095Y-75982380D02*
X171538095Y-74982380D01*
X171538095Y-74982380D02*
X172109523Y-75982380D01*
X172109523Y-75982380D02*
X172109523Y-74982380D01*
X172585714Y-75982380D02*
X172585714Y-74982380D01*
X172585714Y-74982380D02*
X172823809Y-74982380D01*
X172823809Y-74982380D02*
X172966666Y-75030000D01*
X172966666Y-75030000D02*
X173061904Y-75125238D01*
X173061904Y-75125238D02*
X173109523Y-75220476D01*
X173109523Y-75220476D02*
X173157142Y-75410952D01*
X173157142Y-75410952D02*
X173157142Y-75553809D01*
X173157142Y-75553809D02*
X173109523Y-75744285D01*
X173109523Y-75744285D02*
X173061904Y-75839523D01*
X173061904Y-75839523D02*
X172966666Y-75934761D01*
X172966666Y-75934761D02*
X172823809Y-75982380D01*
X172823809Y-75982380D02*
X172585714Y-75982380D01*
X224090476Y-88734761D02*
X224233333Y-88782380D01*
X224233333Y-88782380D02*
X224471428Y-88782380D01*
X224471428Y-88782380D02*
X224566666Y-88734761D01*
X224566666Y-88734761D02*
X224614285Y-88687142D01*
X224614285Y-88687142D02*
X224661904Y-88591904D01*
X224661904Y-88591904D02*
X224661904Y-88496666D01*
X224661904Y-88496666D02*
X224614285Y-88401428D01*
X224614285Y-88401428D02*
X224566666Y-88353809D01*
X224566666Y-88353809D02*
X224471428Y-88306190D01*
X224471428Y-88306190D02*
X224280952Y-88258571D01*
X224280952Y-88258571D02*
X224185714Y-88210952D01*
X224185714Y-88210952D02*
X224138095Y-88163333D01*
X224138095Y-88163333D02*
X224090476Y-88068095D01*
X224090476Y-88068095D02*
X224090476Y-87972857D01*
X224090476Y-87972857D02*
X224138095Y-87877619D01*
X224138095Y-87877619D02*
X224185714Y-87830000D01*
X224185714Y-87830000D02*
X224280952Y-87782380D01*
X224280952Y-87782380D02*
X224519047Y-87782380D01*
X224519047Y-87782380D02*
X224661904Y-87830000D01*
X225090476Y-88782380D02*
X225090476Y-87782380D01*
X225090476Y-87782380D02*
X225328571Y-87782380D01*
X225328571Y-87782380D02*
X225471428Y-87830000D01*
X225471428Y-87830000D02*
X225566666Y-87925238D01*
X225566666Y-87925238D02*
X225614285Y-88020476D01*
X225614285Y-88020476D02*
X225661904Y-88210952D01*
X225661904Y-88210952D02*
X225661904Y-88353809D01*
X225661904Y-88353809D02*
X225614285Y-88544285D01*
X225614285Y-88544285D02*
X225566666Y-88639523D01*
X225566666Y-88639523D02*
X225471428Y-88734761D01*
X225471428Y-88734761D02*
X225328571Y-88782380D01*
X225328571Y-88782380D02*
X225090476Y-88782380D01*
X226090476Y-88782380D02*
X226090476Y-87782380D01*
X170495238Y-59682380D02*
X171066666Y-59682380D01*
X170780952Y-60682380D02*
X170780952Y-59682380D01*
X171304762Y-59682380D02*
X171971428Y-60682380D01*
X171971428Y-59682380D02*
X171304762Y-60682380D01*
X172352381Y-60682380D02*
X172352381Y-59682380D01*
X172352381Y-59682380D02*
X172590476Y-59682380D01*
X172590476Y-59682380D02*
X172733333Y-59730000D01*
X172733333Y-59730000D02*
X172828571Y-59825238D01*
X172828571Y-59825238D02*
X172876190Y-59920476D01*
X172876190Y-59920476D02*
X172923809Y-60110952D01*
X172923809Y-60110952D02*
X172923809Y-60253809D01*
X172923809Y-60253809D02*
X172876190Y-60444285D01*
X172876190Y-60444285D02*
X172828571Y-60539523D01*
X172828571Y-60539523D02*
X172733333Y-60634761D01*
X172733333Y-60634761D02*
X172590476Y-60682380D01*
X172590476Y-60682380D02*
X172352381Y-60682380D01*
X165182380Y-86890476D02*
X164706190Y-87223809D01*
X165182380Y-87461904D02*
X164182380Y-87461904D01*
X164182380Y-87461904D02*
X164182380Y-87080952D01*
X164182380Y-87080952D02*
X164230000Y-86985714D01*
X164230000Y-86985714D02*
X164277619Y-86938095D01*
X164277619Y-86938095D02*
X164372857Y-86890476D01*
X164372857Y-86890476D02*
X164515714Y-86890476D01*
X164515714Y-86890476D02*
X164610952Y-86938095D01*
X164610952Y-86938095D02*
X164658571Y-86985714D01*
X164658571Y-86985714D02*
X164706190Y-87080952D01*
X164706190Y-87080952D02*
X164706190Y-87461904D01*
X165182380Y-86319047D02*
X165134761Y-86414285D01*
X165134761Y-86414285D02*
X165087142Y-86461904D01*
X165087142Y-86461904D02*
X164991904Y-86509523D01*
X164991904Y-86509523D02*
X164706190Y-86509523D01*
X164706190Y-86509523D02*
X164610952Y-86461904D01*
X164610952Y-86461904D02*
X164563333Y-86414285D01*
X164563333Y-86414285D02*
X164515714Y-86319047D01*
X164515714Y-86319047D02*
X164515714Y-86176190D01*
X164515714Y-86176190D02*
X164563333Y-86080952D01*
X164563333Y-86080952D02*
X164610952Y-86033333D01*
X164610952Y-86033333D02*
X164706190Y-85985714D01*
X164706190Y-85985714D02*
X164991904Y-85985714D01*
X164991904Y-85985714D02*
X165087142Y-86033333D01*
X165087142Y-86033333D02*
X165134761Y-86080952D01*
X165134761Y-86080952D02*
X165182380Y-86176190D01*
X165182380Y-86176190D02*
X165182380Y-86319047D01*
X164515714Y-85699999D02*
X164515714Y-85319047D01*
X164182380Y-85557142D02*
X165039523Y-85557142D01*
X165039523Y-85557142D02*
X165134761Y-85509523D01*
X165134761Y-85509523D02*
X165182380Y-85414285D01*
X165182380Y-85414285D02*
X165182380Y-85319047D01*
X165182380Y-84557142D02*
X164658571Y-84557142D01*
X164658571Y-84557142D02*
X164563333Y-84604761D01*
X164563333Y-84604761D02*
X164515714Y-84699999D01*
X164515714Y-84699999D02*
X164515714Y-84890475D01*
X164515714Y-84890475D02*
X164563333Y-84985713D01*
X165134761Y-84557142D02*
X165182380Y-84652380D01*
X165182380Y-84652380D02*
X165182380Y-84890475D01*
X165182380Y-84890475D02*
X165134761Y-84985713D01*
X165134761Y-84985713D02*
X165039523Y-85033332D01*
X165039523Y-85033332D02*
X164944285Y-85033332D01*
X164944285Y-85033332D02*
X164849047Y-84985713D01*
X164849047Y-84985713D02*
X164801428Y-84890475D01*
X164801428Y-84890475D02*
X164801428Y-84652380D01*
X164801428Y-84652380D02*
X164753809Y-84557142D01*
X165182380Y-84080951D02*
X164515714Y-84080951D01*
X164706190Y-84080951D02*
X164610952Y-84033332D01*
X164610952Y-84033332D02*
X164563333Y-83985713D01*
X164563333Y-83985713D02*
X164515714Y-83890475D01*
X164515714Y-83890475D02*
X164515714Y-83795237D01*
X164515714Y-83557141D02*
X165182380Y-83319046D01*
X164515714Y-83080951D02*
X165182380Y-83319046D01*
X165182380Y-83319046D02*
X165420476Y-83414284D01*
X165420476Y-83414284D02*
X165468095Y-83461903D01*
X165468095Y-83461903D02*
X165515714Y-83557141D01*
%TO.C,R2*%
X140333333Y-90687380D02*
X140000000Y-90211190D01*
X139761905Y-90687380D02*
X139761905Y-89687380D01*
X139761905Y-89687380D02*
X140142857Y-89687380D01*
X140142857Y-89687380D02*
X140238095Y-89735000D01*
X140238095Y-89735000D02*
X140285714Y-89782619D01*
X140285714Y-89782619D02*
X140333333Y-89877857D01*
X140333333Y-89877857D02*
X140333333Y-90020714D01*
X140333333Y-90020714D02*
X140285714Y-90115952D01*
X140285714Y-90115952D02*
X140238095Y-90163571D01*
X140238095Y-90163571D02*
X140142857Y-90211190D01*
X140142857Y-90211190D02*
X139761905Y-90211190D01*
X140714286Y-89782619D02*
X140761905Y-89735000D01*
X140761905Y-89735000D02*
X140857143Y-89687380D01*
X140857143Y-89687380D02*
X141095238Y-89687380D01*
X141095238Y-89687380D02*
X141190476Y-89735000D01*
X141190476Y-89735000D02*
X141238095Y-89782619D01*
X141238095Y-89782619D02*
X141285714Y-89877857D01*
X141285714Y-89877857D02*
X141285714Y-89973095D01*
X141285714Y-89973095D02*
X141238095Y-90115952D01*
X141238095Y-90115952D02*
X140666667Y-90687380D01*
X140666667Y-90687380D02*
X141285714Y-90687380D01*
%TO.C,TP2*%
X128138095Y-48619380D02*
X128709523Y-48619380D01*
X128423809Y-49619380D02*
X128423809Y-48619380D01*
X129042857Y-49619380D02*
X129042857Y-48619380D01*
X129042857Y-48619380D02*
X129423809Y-48619380D01*
X129423809Y-48619380D02*
X129519047Y-48667000D01*
X129519047Y-48667000D02*
X129566666Y-48714619D01*
X129566666Y-48714619D02*
X129614285Y-48809857D01*
X129614285Y-48809857D02*
X129614285Y-48952714D01*
X129614285Y-48952714D02*
X129566666Y-49047952D01*
X129566666Y-49047952D02*
X129519047Y-49095571D01*
X129519047Y-49095571D02*
X129423809Y-49143190D01*
X129423809Y-49143190D02*
X129042857Y-49143190D01*
X129995238Y-48714619D02*
X130042857Y-48667000D01*
X130042857Y-48667000D02*
X130138095Y-48619380D01*
X130138095Y-48619380D02*
X130376190Y-48619380D01*
X130376190Y-48619380D02*
X130471428Y-48667000D01*
X130471428Y-48667000D02*
X130519047Y-48714619D01*
X130519047Y-48714619D02*
X130566666Y-48809857D01*
X130566666Y-48809857D02*
X130566666Y-48905095D01*
X130566666Y-48905095D02*
X130519047Y-49047952D01*
X130519047Y-49047952D02*
X129947619Y-49619380D01*
X129947619Y-49619380D02*
X130566666Y-49619380D01*
%TO.C,J3*%
X132766666Y-57077380D02*
X132766666Y-57791666D01*
X132766666Y-57791666D02*
X132719047Y-57934523D01*
X132719047Y-57934523D02*
X132623809Y-58029761D01*
X132623809Y-58029761D02*
X132480952Y-58077380D01*
X132480952Y-58077380D02*
X132385714Y-58077380D01*
X133147619Y-57077380D02*
X133766666Y-57077380D01*
X133766666Y-57077380D02*
X133433333Y-57458333D01*
X133433333Y-57458333D02*
X133576190Y-57458333D01*
X133576190Y-57458333D02*
X133671428Y-57505952D01*
X133671428Y-57505952D02*
X133719047Y-57553571D01*
X133719047Y-57553571D02*
X133766666Y-57648809D01*
X133766666Y-57648809D02*
X133766666Y-57886904D01*
X133766666Y-57886904D02*
X133719047Y-57982142D01*
X133719047Y-57982142D02*
X133671428Y-58029761D01*
X133671428Y-58029761D02*
X133576190Y-58077380D01*
X133576190Y-58077380D02*
X133290476Y-58077380D01*
X133290476Y-58077380D02*
X133195238Y-58029761D01*
X133195238Y-58029761D02*
X133147619Y-57982142D01*
%TO.C,FB1*%
X138323571Y-62733333D02*
X138323571Y-63066666D01*
X138847380Y-63066666D02*
X137847380Y-63066666D01*
X137847380Y-63066666D02*
X137847380Y-62590476D01*
X138323571Y-61876190D02*
X138371190Y-61733333D01*
X138371190Y-61733333D02*
X138418809Y-61685714D01*
X138418809Y-61685714D02*
X138514047Y-61638095D01*
X138514047Y-61638095D02*
X138656904Y-61638095D01*
X138656904Y-61638095D02*
X138752142Y-61685714D01*
X138752142Y-61685714D02*
X138799761Y-61733333D01*
X138799761Y-61733333D02*
X138847380Y-61828571D01*
X138847380Y-61828571D02*
X138847380Y-62209523D01*
X138847380Y-62209523D02*
X137847380Y-62209523D01*
X137847380Y-62209523D02*
X137847380Y-61876190D01*
X137847380Y-61876190D02*
X137895000Y-61780952D01*
X137895000Y-61780952D02*
X137942619Y-61733333D01*
X137942619Y-61733333D02*
X138037857Y-61685714D01*
X138037857Y-61685714D02*
X138133095Y-61685714D01*
X138133095Y-61685714D02*
X138228333Y-61733333D01*
X138228333Y-61733333D02*
X138275952Y-61780952D01*
X138275952Y-61780952D02*
X138323571Y-61876190D01*
X138323571Y-61876190D02*
X138323571Y-62209523D01*
X138847380Y-60685714D02*
X138847380Y-61257142D01*
X138847380Y-60971428D02*
X137847380Y-60971428D01*
X137847380Y-60971428D02*
X137990238Y-61066666D01*
X137990238Y-61066666D02*
X138085476Y-61161904D01*
X138085476Y-61161904D02*
X138133095Y-61257142D01*
%TO.C,J5*%
X167766666Y-64357380D02*
X167766666Y-65071666D01*
X167766666Y-65071666D02*
X167719047Y-65214523D01*
X167719047Y-65214523D02*
X167623809Y-65309761D01*
X167623809Y-65309761D02*
X167480952Y-65357380D01*
X167480952Y-65357380D02*
X167385714Y-65357380D01*
X168719047Y-64357380D02*
X168242857Y-64357380D01*
X168242857Y-64357380D02*
X168195238Y-64833571D01*
X168195238Y-64833571D02*
X168242857Y-64785952D01*
X168242857Y-64785952D02*
X168338095Y-64738333D01*
X168338095Y-64738333D02*
X168576190Y-64738333D01*
X168576190Y-64738333D02*
X168671428Y-64785952D01*
X168671428Y-64785952D02*
X168719047Y-64833571D01*
X168719047Y-64833571D02*
X168766666Y-64928809D01*
X168766666Y-64928809D02*
X168766666Y-65166904D01*
X168766666Y-65166904D02*
X168719047Y-65262142D01*
X168719047Y-65262142D02*
X168671428Y-65309761D01*
X168671428Y-65309761D02*
X168576190Y-65357380D01*
X168576190Y-65357380D02*
X168338095Y-65357380D01*
X168338095Y-65357380D02*
X168242857Y-65309761D01*
X168242857Y-65309761D02*
X168195238Y-65262142D01*
%TO.C,J4*%
X158266666Y-108337380D02*
X158266666Y-109051666D01*
X158266666Y-109051666D02*
X158219047Y-109194523D01*
X158219047Y-109194523D02*
X158123809Y-109289761D01*
X158123809Y-109289761D02*
X157980952Y-109337380D01*
X157980952Y-109337380D02*
X157885714Y-109337380D01*
X159171428Y-108670714D02*
X159171428Y-109337380D01*
X158933333Y-108289761D02*
X158695238Y-109004047D01*
X158695238Y-109004047D02*
X159314285Y-109004047D01*
%TO.C,R1*%
X139487380Y-61966666D02*
X139011190Y-62299999D01*
X139487380Y-62538094D02*
X138487380Y-62538094D01*
X138487380Y-62538094D02*
X138487380Y-62157142D01*
X138487380Y-62157142D02*
X138535000Y-62061904D01*
X138535000Y-62061904D02*
X138582619Y-62014285D01*
X138582619Y-62014285D02*
X138677857Y-61966666D01*
X138677857Y-61966666D02*
X138820714Y-61966666D01*
X138820714Y-61966666D02*
X138915952Y-62014285D01*
X138915952Y-62014285D02*
X138963571Y-62061904D01*
X138963571Y-62061904D02*
X139011190Y-62157142D01*
X139011190Y-62157142D02*
X139011190Y-62538094D01*
X139487380Y-61014285D02*
X139487380Y-61585713D01*
X139487380Y-61299999D02*
X138487380Y-61299999D01*
X138487380Y-61299999D02*
X138630238Y-61395237D01*
X138630238Y-61395237D02*
X138725476Y-61490475D01*
X138725476Y-61490475D02*
X138773095Y-61585713D01*
%TO.C,J2*%
X167766666Y-76717380D02*
X167766666Y-77431666D01*
X167766666Y-77431666D02*
X167719047Y-77574523D01*
X167719047Y-77574523D02*
X167623809Y-77669761D01*
X167623809Y-77669761D02*
X167480952Y-77717380D01*
X167480952Y-77717380D02*
X167385714Y-77717380D01*
X168195238Y-76812619D02*
X168242857Y-76765000D01*
X168242857Y-76765000D02*
X168338095Y-76717380D01*
X168338095Y-76717380D02*
X168576190Y-76717380D01*
X168576190Y-76717380D02*
X168671428Y-76765000D01*
X168671428Y-76765000D02*
X168719047Y-76812619D01*
X168719047Y-76812619D02*
X168766666Y-76907857D01*
X168766666Y-76907857D02*
X168766666Y-77003095D01*
X168766666Y-77003095D02*
X168719047Y-77145952D01*
X168719047Y-77145952D02*
X168147619Y-77717380D01*
X168147619Y-77717380D02*
X168766666Y-77717380D01*
%TO.C,J6*%
X221331244Y-95447138D02*
X221331244Y-96161424D01*
X221331244Y-96161424D02*
X221283625Y-96304281D01*
X221283625Y-96304281D02*
X221188387Y-96399519D01*
X221188387Y-96399519D02*
X221045530Y-96447138D01*
X221045530Y-96447138D02*
X220950292Y-96447138D01*
X222236006Y-95447138D02*
X222045530Y-95447138D01*
X222045530Y-95447138D02*
X221950292Y-95494758D01*
X221950292Y-95494758D02*
X221902673Y-95542377D01*
X221902673Y-95542377D02*
X221807435Y-95685234D01*
X221807435Y-95685234D02*
X221759816Y-95875710D01*
X221759816Y-95875710D02*
X221759816Y-96256662D01*
X221759816Y-96256662D02*
X221807435Y-96351900D01*
X221807435Y-96351900D02*
X221855054Y-96399519D01*
X221855054Y-96399519D02*
X221950292Y-96447138D01*
X221950292Y-96447138D02*
X222140768Y-96447138D01*
X222140768Y-96447138D02*
X222236006Y-96399519D01*
X222236006Y-96399519D02*
X222283625Y-96351900D01*
X222283625Y-96351900D02*
X222331244Y-96256662D01*
X222331244Y-96256662D02*
X222331244Y-96018567D01*
X222331244Y-96018567D02*
X222283625Y-95923329D01*
X222283625Y-95923329D02*
X222236006Y-95875710D01*
X222236006Y-95875710D02*
X222140768Y-95828091D01*
X222140768Y-95828091D02*
X221950292Y-95828091D01*
X221950292Y-95828091D02*
X221855054Y-95875710D01*
X221855054Y-95875710D02*
X221807435Y-95923329D01*
X221807435Y-95923329D02*
X221759816Y-96018567D01*
%TO.C,TP3*%
X128138095Y-109319380D02*
X128709523Y-109319380D01*
X128423809Y-110319380D02*
X128423809Y-109319380D01*
X129042857Y-110319380D02*
X129042857Y-109319380D01*
X129042857Y-109319380D02*
X129423809Y-109319380D01*
X129423809Y-109319380D02*
X129519047Y-109367000D01*
X129519047Y-109367000D02*
X129566666Y-109414619D01*
X129566666Y-109414619D02*
X129614285Y-109509857D01*
X129614285Y-109509857D02*
X129614285Y-109652714D01*
X129614285Y-109652714D02*
X129566666Y-109747952D01*
X129566666Y-109747952D02*
X129519047Y-109795571D01*
X129519047Y-109795571D02*
X129423809Y-109843190D01*
X129423809Y-109843190D02*
X129042857Y-109843190D01*
X129947619Y-109319380D02*
X130566666Y-109319380D01*
X130566666Y-109319380D02*
X130233333Y-109700333D01*
X130233333Y-109700333D02*
X130376190Y-109700333D01*
X130376190Y-109700333D02*
X130471428Y-109747952D01*
X130471428Y-109747952D02*
X130519047Y-109795571D01*
X130519047Y-109795571D02*
X130566666Y-109890809D01*
X130566666Y-109890809D02*
X130566666Y-110128904D01*
X130566666Y-110128904D02*
X130519047Y-110224142D01*
X130519047Y-110224142D02*
X130471428Y-110271761D01*
X130471428Y-110271761D02*
X130376190Y-110319380D01*
X130376190Y-110319380D02*
X130090476Y-110319380D01*
X130090476Y-110319380D02*
X129995238Y-110271761D01*
X129995238Y-110271761D02*
X129947619Y-110224142D01*
%TO.C,FB2*%
X156463571Y-62933333D02*
X156463571Y-63266666D01*
X156987380Y-63266666D02*
X155987380Y-63266666D01*
X155987380Y-63266666D02*
X155987380Y-62790476D01*
X156463571Y-62076190D02*
X156511190Y-61933333D01*
X156511190Y-61933333D02*
X156558809Y-61885714D01*
X156558809Y-61885714D02*
X156654047Y-61838095D01*
X156654047Y-61838095D02*
X156796904Y-61838095D01*
X156796904Y-61838095D02*
X156892142Y-61885714D01*
X156892142Y-61885714D02*
X156939761Y-61933333D01*
X156939761Y-61933333D02*
X156987380Y-62028571D01*
X156987380Y-62028571D02*
X156987380Y-62409523D01*
X156987380Y-62409523D02*
X155987380Y-62409523D01*
X155987380Y-62409523D02*
X155987380Y-62076190D01*
X155987380Y-62076190D02*
X156035000Y-61980952D01*
X156035000Y-61980952D02*
X156082619Y-61933333D01*
X156082619Y-61933333D02*
X156177857Y-61885714D01*
X156177857Y-61885714D02*
X156273095Y-61885714D01*
X156273095Y-61885714D02*
X156368333Y-61933333D01*
X156368333Y-61933333D02*
X156415952Y-61980952D01*
X156415952Y-61980952D02*
X156463571Y-62076190D01*
X156463571Y-62076190D02*
X156463571Y-62409523D01*
X156082619Y-61457142D02*
X156035000Y-61409523D01*
X156035000Y-61409523D02*
X155987380Y-61314285D01*
X155987380Y-61314285D02*
X155987380Y-61076190D01*
X155987380Y-61076190D02*
X156035000Y-60980952D01*
X156035000Y-60980952D02*
X156082619Y-60933333D01*
X156082619Y-60933333D02*
X156177857Y-60885714D01*
X156177857Y-60885714D02*
X156273095Y-60885714D01*
X156273095Y-60885714D02*
X156415952Y-60933333D01*
X156415952Y-60933333D02*
X156987380Y-61504761D01*
X156987380Y-61504761D02*
X156987380Y-60885714D01*
%TO.C,D1*%
X139761905Y-90047380D02*
X139761905Y-89047380D01*
X139761905Y-89047380D02*
X140000000Y-89047380D01*
X140000000Y-89047380D02*
X140142857Y-89095000D01*
X140142857Y-89095000D02*
X140238095Y-89190238D01*
X140238095Y-89190238D02*
X140285714Y-89285476D01*
X140285714Y-89285476D02*
X140333333Y-89475952D01*
X140333333Y-89475952D02*
X140333333Y-89618809D01*
X140333333Y-89618809D02*
X140285714Y-89809285D01*
X140285714Y-89809285D02*
X140238095Y-89904523D01*
X140238095Y-89904523D02*
X140142857Y-89999761D01*
X140142857Y-89999761D02*
X140000000Y-90047380D01*
X140000000Y-90047380D02*
X139761905Y-90047380D01*
X141285714Y-90047380D02*
X140714286Y-90047380D01*
X141000000Y-90047380D02*
X141000000Y-89047380D01*
X141000000Y-89047380D02*
X140904762Y-89190238D01*
X140904762Y-89190238D02*
X140809524Y-89285476D01*
X140809524Y-89285476D02*
X140714286Y-89333095D01*
%TO.C,TP1*%
X225738095Y-48619380D02*
X226309523Y-48619380D01*
X226023809Y-49619380D02*
X226023809Y-48619380D01*
X226642857Y-49619380D02*
X226642857Y-48619380D01*
X226642857Y-48619380D02*
X227023809Y-48619380D01*
X227023809Y-48619380D02*
X227119047Y-48667000D01*
X227119047Y-48667000D02*
X227166666Y-48714619D01*
X227166666Y-48714619D02*
X227214285Y-48809857D01*
X227214285Y-48809857D02*
X227214285Y-48952714D01*
X227214285Y-48952714D02*
X227166666Y-49047952D01*
X227166666Y-49047952D02*
X227119047Y-49095571D01*
X227119047Y-49095571D02*
X227023809Y-49143190D01*
X227023809Y-49143190D02*
X226642857Y-49143190D01*
X228166666Y-49619380D02*
X227595238Y-49619380D01*
X227880952Y-49619380D02*
X227880952Y-48619380D01*
X227880952Y-48619380D02*
X227785714Y-48762238D01*
X227785714Y-48762238D02*
X227690476Y-48857476D01*
X227690476Y-48857476D02*
X227595238Y-48905095D01*
%TO.C,TP4*%
X225738095Y-109319380D02*
X226309523Y-109319380D01*
X226023809Y-110319380D02*
X226023809Y-109319380D01*
X226642857Y-110319380D02*
X226642857Y-109319380D01*
X226642857Y-109319380D02*
X227023809Y-109319380D01*
X227023809Y-109319380D02*
X227119047Y-109367000D01*
X227119047Y-109367000D02*
X227166666Y-109414619D01*
X227166666Y-109414619D02*
X227214285Y-109509857D01*
X227214285Y-109509857D02*
X227214285Y-109652714D01*
X227214285Y-109652714D02*
X227166666Y-109747952D01*
X227166666Y-109747952D02*
X227119047Y-109795571D01*
X227119047Y-109795571D02*
X227023809Y-109843190D01*
X227023809Y-109843190D02*
X226642857Y-109843190D01*
X228071428Y-109652714D02*
X228071428Y-110319380D01*
X227833333Y-109271761D02*
X227595238Y-109986047D01*
X227595238Y-109986047D02*
X228214285Y-109986047D01*
%TO.C,C3*%
X144272142Y-83666666D02*
X144319761Y-83714285D01*
X144319761Y-83714285D02*
X144367380Y-83857142D01*
X144367380Y-83857142D02*
X144367380Y-83952380D01*
X144367380Y-83952380D02*
X144319761Y-84095237D01*
X144319761Y-84095237D02*
X144224523Y-84190475D01*
X144224523Y-84190475D02*
X144129285Y-84238094D01*
X144129285Y-84238094D02*
X143938809Y-84285713D01*
X143938809Y-84285713D02*
X143795952Y-84285713D01*
X143795952Y-84285713D02*
X143605476Y-84238094D01*
X143605476Y-84238094D02*
X143510238Y-84190475D01*
X143510238Y-84190475D02*
X143415000Y-84095237D01*
X143415000Y-84095237D02*
X143367380Y-83952380D01*
X143367380Y-83952380D02*
X143367380Y-83857142D01*
X143367380Y-83857142D02*
X143415000Y-83714285D01*
X143415000Y-83714285D02*
X143462619Y-83666666D01*
X143367380Y-83333332D02*
X143367380Y-82714285D01*
X143367380Y-82714285D02*
X143748333Y-83047618D01*
X143748333Y-83047618D02*
X143748333Y-82904761D01*
X143748333Y-82904761D02*
X143795952Y-82809523D01*
X143795952Y-82809523D02*
X143843571Y-82761904D01*
X143843571Y-82761904D02*
X143938809Y-82714285D01*
X143938809Y-82714285D02*
X144176904Y-82714285D01*
X144176904Y-82714285D02*
X144272142Y-82761904D01*
X144272142Y-82761904D02*
X144319761Y-82809523D01*
X144319761Y-82809523D02*
X144367380Y-82904761D01*
X144367380Y-82904761D02*
X144367380Y-83190475D01*
X144367380Y-83190475D02*
X144319761Y-83285713D01*
X144319761Y-83285713D02*
X144272142Y-83333332D01*
%TO.C,C4*%
X140922142Y-83666666D02*
X140969761Y-83714285D01*
X140969761Y-83714285D02*
X141017380Y-83857142D01*
X141017380Y-83857142D02*
X141017380Y-83952380D01*
X141017380Y-83952380D02*
X140969761Y-84095237D01*
X140969761Y-84095237D02*
X140874523Y-84190475D01*
X140874523Y-84190475D02*
X140779285Y-84238094D01*
X140779285Y-84238094D02*
X140588809Y-84285713D01*
X140588809Y-84285713D02*
X140445952Y-84285713D01*
X140445952Y-84285713D02*
X140255476Y-84238094D01*
X140255476Y-84238094D02*
X140160238Y-84190475D01*
X140160238Y-84190475D02*
X140065000Y-84095237D01*
X140065000Y-84095237D02*
X140017380Y-83952380D01*
X140017380Y-83952380D02*
X140017380Y-83857142D01*
X140017380Y-83857142D02*
X140065000Y-83714285D01*
X140065000Y-83714285D02*
X140112619Y-83666666D01*
X140350714Y-82809523D02*
X141017380Y-82809523D01*
X139969761Y-83047618D02*
X140684047Y-83285713D01*
X140684047Y-83285713D02*
X140684047Y-82666666D01*
%TO.C,U3*%
X149938095Y-70467380D02*
X149938095Y-71276904D01*
X149938095Y-71276904D02*
X149985714Y-71372142D01*
X149985714Y-71372142D02*
X150033333Y-71419761D01*
X150033333Y-71419761D02*
X150128571Y-71467380D01*
X150128571Y-71467380D02*
X150319047Y-71467380D01*
X150319047Y-71467380D02*
X150414285Y-71419761D01*
X150414285Y-71419761D02*
X150461904Y-71372142D01*
X150461904Y-71372142D02*
X150509523Y-71276904D01*
X150509523Y-71276904D02*
X150509523Y-70467380D01*
X150890476Y-70467380D02*
X151509523Y-70467380D01*
X151509523Y-70467380D02*
X151176190Y-70848333D01*
X151176190Y-70848333D02*
X151319047Y-70848333D01*
X151319047Y-70848333D02*
X151414285Y-70895952D01*
X151414285Y-70895952D02*
X151461904Y-70943571D01*
X151461904Y-70943571D02*
X151509523Y-71038809D01*
X151509523Y-71038809D02*
X151509523Y-71276904D01*
X151509523Y-71276904D02*
X151461904Y-71372142D01*
X151461904Y-71372142D02*
X151414285Y-71419761D01*
X151414285Y-71419761D02*
X151319047Y-71467380D01*
X151319047Y-71467380D02*
X151033333Y-71467380D01*
X151033333Y-71467380D02*
X150938095Y-71419761D01*
X150938095Y-71419761D02*
X150890476Y-71372142D01*
%TO.C,P1*%
X146761905Y-58507380D02*
X146761905Y-57507380D01*
X146761905Y-57507380D02*
X147142857Y-57507380D01*
X147142857Y-57507380D02*
X147238095Y-57555000D01*
X147238095Y-57555000D02*
X147285714Y-57602619D01*
X147285714Y-57602619D02*
X147333333Y-57697857D01*
X147333333Y-57697857D02*
X147333333Y-57840714D01*
X147333333Y-57840714D02*
X147285714Y-57935952D01*
X147285714Y-57935952D02*
X147238095Y-57983571D01*
X147238095Y-57983571D02*
X147142857Y-58031190D01*
X147142857Y-58031190D02*
X146761905Y-58031190D01*
X148285714Y-58507380D02*
X147714286Y-58507380D01*
X148000000Y-58507380D02*
X148000000Y-57507380D01*
X148000000Y-57507380D02*
X147904762Y-57650238D01*
X147904762Y-57650238D02*
X147809524Y-57745476D01*
X147809524Y-57745476D02*
X147714286Y-57793095D01*
%TO.C,C1*%
X150972142Y-83666666D02*
X151019761Y-83714285D01*
X151019761Y-83714285D02*
X151067380Y-83857142D01*
X151067380Y-83857142D02*
X151067380Y-83952380D01*
X151067380Y-83952380D02*
X151019761Y-84095237D01*
X151019761Y-84095237D02*
X150924523Y-84190475D01*
X150924523Y-84190475D02*
X150829285Y-84238094D01*
X150829285Y-84238094D02*
X150638809Y-84285713D01*
X150638809Y-84285713D02*
X150495952Y-84285713D01*
X150495952Y-84285713D02*
X150305476Y-84238094D01*
X150305476Y-84238094D02*
X150210238Y-84190475D01*
X150210238Y-84190475D02*
X150115000Y-84095237D01*
X150115000Y-84095237D02*
X150067380Y-83952380D01*
X150067380Y-83952380D02*
X150067380Y-83857142D01*
X150067380Y-83857142D02*
X150115000Y-83714285D01*
X150115000Y-83714285D02*
X150162619Y-83666666D01*
X151067380Y-82714285D02*
X151067380Y-83285713D01*
X151067380Y-82999999D02*
X150067380Y-82999999D01*
X150067380Y-82999999D02*
X150210238Y-83095237D01*
X150210238Y-83095237D02*
X150305476Y-83190475D01*
X150305476Y-83190475D02*
X150353095Y-83285713D01*
%TO.C,C2*%
X147622142Y-83666666D02*
X147669761Y-83714285D01*
X147669761Y-83714285D02*
X147717380Y-83857142D01*
X147717380Y-83857142D02*
X147717380Y-83952380D01*
X147717380Y-83952380D02*
X147669761Y-84095237D01*
X147669761Y-84095237D02*
X147574523Y-84190475D01*
X147574523Y-84190475D02*
X147479285Y-84238094D01*
X147479285Y-84238094D02*
X147288809Y-84285713D01*
X147288809Y-84285713D02*
X147145952Y-84285713D01*
X147145952Y-84285713D02*
X146955476Y-84238094D01*
X146955476Y-84238094D02*
X146860238Y-84190475D01*
X146860238Y-84190475D02*
X146765000Y-84095237D01*
X146765000Y-84095237D02*
X146717380Y-83952380D01*
X146717380Y-83952380D02*
X146717380Y-83857142D01*
X146717380Y-83857142D02*
X146765000Y-83714285D01*
X146765000Y-83714285D02*
X146812619Y-83666666D01*
X146812619Y-83285713D02*
X146765000Y-83238094D01*
X146765000Y-83238094D02*
X146717380Y-83142856D01*
X146717380Y-83142856D02*
X146717380Y-82904761D01*
X146717380Y-82904761D02*
X146765000Y-82809523D01*
X146765000Y-82809523D02*
X146812619Y-82761904D01*
X146812619Y-82761904D02*
X146907857Y-82714285D01*
X146907857Y-82714285D02*
X147003095Y-82714285D01*
X147003095Y-82714285D02*
X147145952Y-82761904D01*
X147145952Y-82761904D02*
X147717380Y-83333332D01*
X147717380Y-83333332D02*
X147717380Y-82714285D01*
%TO.C,J7*%
X167691666Y-57047380D02*
X167691666Y-57761666D01*
X167691666Y-57761666D02*
X167644047Y-57904523D01*
X167644047Y-57904523D02*
X167548809Y-57999761D01*
X167548809Y-57999761D02*
X167405952Y-58047380D01*
X167405952Y-58047380D02*
X167310714Y-58047380D01*
X168072619Y-57047380D02*
X168739285Y-57047380D01*
X168739285Y-57047380D02*
X168310714Y-58047380D01*
%TO.C,J1*%
X187235009Y-78037138D02*
X187235009Y-78751424D01*
X187235009Y-78751424D02*
X187187390Y-78894281D01*
X187187390Y-78894281D02*
X187092152Y-78989519D01*
X187092152Y-78989519D02*
X186949295Y-79037138D01*
X186949295Y-79037138D02*
X186854057Y-79037138D01*
X188235009Y-79037138D02*
X187663581Y-79037138D01*
X187949295Y-79037138D02*
X187949295Y-78037138D01*
X187949295Y-78037138D02*
X187854057Y-78179996D01*
X187854057Y-78179996D02*
X187758819Y-78275234D01*
X187758819Y-78275234D02*
X187663581Y-78322853D01*
D11*
%TO.C,R2*%
X141227064Y-89410000D02*
X139772936Y-89410000D01*
X141227064Y-87590000D02*
X139772936Y-87590000D01*
%TO.C,TP2*%
X131686000Y-52300000D02*
G75*
G03*
X131686000Y-52300000I-2286000J0D01*
G01*
%TO.C,J3*%
X131770000Y-61750000D02*
X131770000Y-107530000D01*
X131770000Y-61750000D02*
X134430000Y-61750000D01*
X131770000Y-107530000D02*
X134430000Y-107530000D01*
X133100000Y-59150000D02*
X134430000Y-59150000D01*
X134430000Y-59150000D02*
X134430000Y-60480000D01*
X134430000Y-61750000D02*
X134430000Y-107530000D01*
%TO.C,FB1*%
X139390000Y-62502064D02*
X139390000Y-61297936D01*
X141210000Y-62502064D02*
X141210000Y-61297936D01*
%TO.C,J5*%
X166770000Y-69030000D02*
X166770000Y-76710000D01*
X166770000Y-69030000D02*
X169430000Y-69030000D01*
X166770000Y-76710000D02*
X169430000Y-76710000D01*
X168100000Y-66430000D02*
X169430000Y-66430000D01*
X169430000Y-66430000D02*
X169430000Y-67760000D01*
X169430000Y-69030000D02*
X169430000Y-76710000D01*
%TO.C,J4*%
X159930000Y-104930000D02*
X159930000Y-59150000D01*
X159930000Y-104930000D02*
X157270000Y-104930000D01*
X159930000Y-59150000D02*
X157270000Y-59150000D01*
X158600000Y-107530000D02*
X157270000Y-107530000D01*
X157270000Y-107530000D02*
X157270000Y-106200000D01*
X157270000Y-104930000D02*
X157270000Y-59150000D01*
%TO.C,R1*%
X138210000Y-61072936D02*
X138210000Y-62527064D01*
X136390000Y-61072936D02*
X136390000Y-62527064D01*
%TO.C,J2*%
X166770000Y-81390000D02*
X166770000Y-91610000D01*
X166770000Y-81390000D02*
X169430000Y-81390000D01*
X166770000Y-91610000D02*
X169430000Y-91610000D01*
X168100000Y-78790000D02*
X169430000Y-78790000D01*
X169430000Y-78790000D02*
X169430000Y-80120000D01*
X169430000Y-81390000D02*
X169430000Y-91610000D01*
%TO.C,J6*%
X222994578Y-92039758D02*
X222994578Y-81819758D01*
X222994578Y-92039758D02*
X220334578Y-92039758D01*
X222994578Y-81819758D02*
X220334578Y-81819758D01*
X221664578Y-94639758D02*
X220334578Y-94639758D01*
X220334578Y-94639758D02*
X220334578Y-93309758D01*
X220334578Y-92039758D02*
X220334578Y-81819758D01*
%TO.C,TP3*%
X131686000Y-113000000D02*
G75*
G03*
X131686000Y-113000000I-2286000J0D01*
G01*
%TO.C,FB2*%
X155710000Y-61497936D02*
X155710000Y-62702064D01*
X153890000Y-61497936D02*
X153890000Y-62702064D01*
%TO.C,D1*%
X138040000Y-90365000D02*
X138040000Y-92635000D01*
X138040000Y-92635000D02*
X142100000Y-92635000D01*
X142100000Y-90365000D02*
X138040000Y-90365000D01*
%TO.C,TP1*%
X229286000Y-52300000D02*
G75*
G03*
X229286000Y-52300000I-2286000J0D01*
G01*
%TO.C,TP4*%
X229286000Y-113000000D02*
G75*
G03*
X229286000Y-113000000I-2286000J0D01*
G01*
%TO.C,C3*%
X143060000Y-82788748D02*
X143060000Y-84211252D01*
X141240000Y-82788748D02*
X141240000Y-84211252D01*
%TO.C,C4*%
X139710000Y-82788748D02*
X139710000Y-84211252D01*
X137890000Y-82788748D02*
X137890000Y-84211252D01*
%TO.C,U3*%
X147390000Y-72150000D02*
X147390000Y-72420000D01*
X147390000Y-72420000D02*
X144560000Y-72420000D01*
X147390000Y-78780000D02*
X146290000Y-78780000D01*
X147390000Y-79050000D02*
X147390000Y-78780000D01*
X153810000Y-72150000D02*
X147390000Y-72150000D01*
X153810000Y-79050000D02*
X147390000Y-79050000D01*
%TO.C,P1*%
X142750000Y-59130000D02*
X142750000Y-66390000D01*
X142750000Y-59130000D02*
X144250000Y-59130000D01*
X150750000Y-59130000D02*
X152250000Y-59130000D01*
X152250000Y-59130000D02*
X152250000Y-66390000D01*
%TO.C,C1*%
X149760000Y-82788748D02*
X149760000Y-84211252D01*
X147940000Y-82788748D02*
X147940000Y-84211252D01*
%TO.C,C2*%
X146410000Y-82788748D02*
X146410000Y-84211252D01*
X144590000Y-82788748D02*
X144590000Y-84211252D01*
%TO.C,J7*%
X166695000Y-61720000D02*
X166695000Y-64320000D01*
X166695000Y-61720000D02*
X169355000Y-61720000D01*
X166695000Y-64320000D02*
X169355000Y-64320000D01*
X168025000Y-59120000D02*
X169355000Y-59120000D01*
X169355000Y-59120000D02*
X169355000Y-60450000D01*
X169355000Y-61720000D02*
X169355000Y-64320000D01*
%TO.C,J1*%
X188898343Y-74629758D02*
X188898343Y-72029758D01*
X188898343Y-74629758D02*
X186238343Y-74629758D01*
X188898343Y-72029758D02*
X186238343Y-72029758D01*
X187568343Y-77229758D02*
X186238343Y-77229758D01*
X186238343Y-77229758D02*
X186238343Y-75899758D01*
X186238343Y-74629758D02*
X186238343Y-72029758D01*
%TD*%
M02*
