%TF.GenerationSoftware,KiCad,Pcbnew,(7.0.0)*%
%TF.CreationDate,2023-03-31T23:35:20+02:00*%
%TF.ProjectId,ATtiny-final,41547469-6e79-42d6-9669-6e616c2e6b69,rev?*%
%TF.SameCoordinates,Original*%
%TF.FileFunction,Copper,L1,Top*%
%TF.FilePolarity,Positive*%
%FSLAX46Y46*%
G04 Gerber Fmt 4.6, Leading zero omitted, Abs format (unit mm)*
G04 Created by KiCad (PCBNEW (7.0.0)) date 2023-03-31 23:35:20*
%MOMM*%
%LPD*%
G01*
G04 APERTURE LIST*
G04 Aperture macros list*
%AMRoundRect*
0 Rectangle with rounded corners*
0 $1 Rounding radius*
0 $2 $3 $4 $5 $6 $7 $8 $9 X,Y pos of 4 corners*
0 Add a 4 corners polygon primitive as box body*
4,1,4,$2,$3,$4,$5,$6,$7,$8,$9,$2,$3,0*
0 Add four circle primitives for the rounded corners*
1,1,$1+$1,$2,$3*
1,1,$1+$1,$4,$5*
1,1,$1+$1,$6,$7*
1,1,$1+$1,$8,$9*
0 Add four rect primitives between the rounded corners*
20,1,$1+$1,$2,$3,$4,$5,0*
20,1,$1+$1,$4,$5,$6,$7,0*
20,1,$1+$1,$6,$7,$8,$9,0*
20,1,$1+$1,$8,$9,$2,$3,0*%
G04 Aperture macros list end*
%TA.AperFunction,SMDPad,CuDef*%
%ADD10RoundRect,0.250000X0.325000X0.650000X-0.325000X0.650000X-0.325000X-0.650000X0.325000X-0.650000X0*%
%TD*%
%TA.AperFunction,SMDPad,CuDef*%
%ADD11RoundRect,0.250000X0.375000X0.625000X-0.375000X0.625000X-0.375000X-0.625000X0.375000X-0.625000X0*%
%TD*%
%TA.AperFunction,SMDPad,CuDef*%
%ADD12RoundRect,0.250000X0.312500X0.625000X-0.312500X0.625000X-0.312500X-0.625000X0.312500X-0.625000X0*%
%TD*%
%TA.AperFunction,SMDPad,CuDef*%
%ADD13RoundRect,0.250000X0.625000X-0.375000X0.625000X0.375000X-0.625000X0.375000X-0.625000X-0.375000X0*%
%TD*%
%TA.AperFunction,SMDPad,CuDef*%
%ADD14RoundRect,0.100000X0.637500X0.100000X-0.637500X0.100000X-0.637500X-0.100000X0.637500X-0.100000X0*%
%TD*%
%TA.AperFunction,ComponentPad*%
%ADD15R,1.700000X1.700000*%
%TD*%
%TA.AperFunction,ComponentPad*%
%ADD16O,1.700000X1.700000*%
%TD*%
%TA.AperFunction,Conductor*%
%ADD17C,0.700000*%
%TD*%
%TA.AperFunction,Conductor*%
%ADD18C,0.350000*%
%TD*%
G04 APERTURE END LIST*
D10*
%TO.P,C1,1*%
%TO.N,N/C*%
X152701000Y-106150000D03*
%TO.P,C1,2*%
X149751000Y-106150000D03*
%TD*%
D11*
%TO.P,D2,1,K*%
%TO.N,N/C*%
X152825000Y-90890000D03*
%TO.P,D2,2,A*%
X150025000Y-90890000D03*
%TD*%
D10*
%TO.P,C2,1*%
%TO.N,N/C*%
X152701000Y-103400000D03*
%TO.P,C2,2*%
X149751000Y-103400000D03*
%TD*%
D12*
%TO.P,R1,1*%
%TO.N,N/C*%
X152946000Y-94230000D03*
%TO.P,R1,2*%
X150021000Y-94230000D03*
%TD*%
D13*
%TO.P,D1,1,K*%
%TO.N,N/C*%
X155476000Y-107050000D03*
%TO.P,D1,2,A*%
X155476000Y-104250000D03*
%TD*%
D14*
%TO.P,U1,1,VCC*%
%TO.N,N/C*%
X154088500Y-100950000D03*
%TO.P,U1,2,PA4*%
%TO.N,/XDIR{slash}PA4*%
X154088500Y-100300000D03*
%TO.P,U1,3,PA5*%
%TO.N,N/C*%
X154088500Y-99650000D03*
%TO.P,U1,4,PA6*%
%TO.N,/PA6*%
X154088500Y-99000000D03*
%TO.P,U1,5,PA7*%
%TO.N,N/C*%
X154088500Y-98350000D03*
%TO.P,U1,6,PB3*%
X154088500Y-97700000D03*
%TO.P,U1,7,PB2*%
X154088500Y-97050000D03*
%TO.P,U1,8,PB1*%
X148363500Y-97050000D03*
%TO.P,U1,9,PB0*%
X148363500Y-97700000D03*
%TO.P,U1,10,~{RESET}/PA0*%
X148363500Y-98350000D03*
%TO.P,U1,11,PA1*%
X148363500Y-99000000D03*
%TO.P,U1,12,PA2*%
X148363500Y-99650000D03*
%TO.P,U1,13,PA3*%
X148363500Y-100300000D03*
%TO.P,U1,14,GND*%
X148363500Y-100950000D03*
%TD*%
D15*
%TO.P,J1,1,Pin_1*%
%TO.N,VCC*%
X158999999Y-106699999D03*
D16*
%TO.P,J1,2,Pin_2*%
%TO.N,/XDIR{slash}PA4*%
X158999999Y-104159999D03*
%TO.P,J1,3,Pin_3*%
%TO.N,/PA5*%
X158999999Y-101619999D03*
%TO.P,J1,4,Pin_4*%
%TO.N,/PA6*%
X158999999Y-99079999D03*
%TO.P,J1,5,Pin_5*%
%TO.N,/PA7*%
X158999999Y-96539999D03*
%TO.P,J1,6,Pin_6*%
%TO.N,/RxD{slash}PB3*%
X158999999Y-93999999D03*
%TO.P,J1,7,Pin_7*%
%TO.N,/TxD{slash}PB2*%
X158999999Y-91459999D03*
%TD*%
D15*
%TO.P,J2,1,Pin_1*%
%TO.N,GND*%
X143599999Y-106659999D03*
D16*
%TO.P,J2,2,Pin_2*%
%TO.N,/XCK{slash}PA3*%
X143599999Y-104119999D03*
%TO.P,J2,3,Pin_3*%
%TO.N,/RXD{slash}PA2*%
X143599999Y-101579999D03*
%TO.P,J2,4,Pin_4*%
%TO.N,/TXD{slash}PA1*%
X143599999Y-99039999D03*
%TO.P,J2,5,Pin_5*%
%TO.N,/RESET-UDPI*%
X143599999Y-96499999D03*
%TO.P,J2,6,Pin_6*%
%TO.N,/SCL{slash}XDIR{slash}PB0*%
X143599999Y-93959999D03*
%TO.P,J2,7,Pin_7*%
%TO.N,/SDA{slash}XCK{slash}PB1*%
X143599999Y-91419999D03*
%TD*%
D17*
%TO.N,*%
X152701000Y-103400000D02*
X153476000Y-103400000D01*
X155476000Y-107050000D02*
X154376000Y-107050000D01*
X154376000Y-107050000D02*
X153476000Y-106150000D01*
X152701000Y-106150000D02*
X152701000Y-103400000D01*
X153476000Y-103400000D02*
X154088500Y-102787500D01*
D18*
X150025000Y-90890000D02*
X150025000Y-94226000D01*
D17*
X153476000Y-106150000D02*
X152701000Y-106150000D01*
X154088500Y-102787500D02*
X154088500Y-101050000D01*
D18*
X150025000Y-94226000D02*
X150021000Y-94230000D01*
D17*
%TO.N,GND*%
X149751000Y-106150000D02*
X144850000Y-106150000D01*
X148363500Y-101050000D02*
X148363500Y-102787500D01*
X149751000Y-103400000D02*
X149751000Y-106150000D01*
X148363500Y-102787500D02*
X148976000Y-103400000D01*
X144850000Y-106150000D02*
X144540000Y-106460000D01*
X148976000Y-103400000D02*
X149751000Y-103400000D01*
X144540000Y-106460000D02*
X143600000Y-106460000D01*
%TO.N,VCC*%
X158866000Y-106540000D02*
X158876000Y-106540000D01*
X156362000Y-104250000D02*
X158788000Y-106676000D01*
X155476000Y-104250000D02*
X156362000Y-104250000D01*
D18*
%TO.N,/XDIR{slash}PA4*%
X155140000Y-100300000D02*
X159000000Y-104160000D01*
X154081250Y-100300000D02*
X155140000Y-100300000D01*
%TO.N,/PA5*%
X157030000Y-99650000D02*
X154088500Y-99650000D01*
X159000000Y-101620000D02*
X157030000Y-99650000D01*
%TO.N,/PA6*%
X158920000Y-99000000D02*
X154088500Y-99000000D01*
X158796000Y-99000000D02*
X158876000Y-98920000D01*
X159000000Y-99080000D02*
X158920000Y-99000000D01*
%TO.N,/PA7*%
X157190000Y-98350000D02*
X159000000Y-96540000D01*
X154088500Y-98350000D02*
X157190000Y-98350000D01*
%TO.N,/RxD{slash}PB3*%
X154088500Y-97700000D02*
X155176000Y-97700000D01*
X159000000Y-94000000D02*
X155300000Y-97700000D01*
X155300000Y-97700000D02*
X155201000Y-97700000D01*
%TO.N,/TxD{slash}PB2*%
X154088500Y-97050000D02*
X154088500Y-95372500D01*
X154826000Y-97050000D02*
X156476000Y-95400000D01*
X156476000Y-93984000D02*
X159000000Y-91460000D01*
X156476000Y-95400000D02*
X156476000Y-93984000D01*
X154088500Y-97050000D02*
X154826000Y-97050000D01*
X154088500Y-95372500D02*
X152946000Y-94230000D01*
%TO.N,/XCK{slash}PA3*%
X148363500Y-100300000D02*
X147326000Y-100300000D01*
X147220000Y-100300000D02*
X147251000Y-100300000D01*
X143626000Y-104000000D02*
X143626000Y-104050000D01*
X143600000Y-103920000D02*
X147220000Y-100300000D01*
%TO.N,/RXD{slash}PA2*%
X145330000Y-99650000D02*
X143600000Y-101380000D01*
X148363500Y-99650000D02*
X145330000Y-99650000D01*
%TO.N,/TXD{slash}PA1*%
X148363500Y-99000000D02*
X148333500Y-98970000D01*
X143760000Y-99000000D02*
X148363500Y-99000000D01*
X143600000Y-98840000D02*
X143760000Y-99000000D01*
%TO.N,/RESET-UDPI*%
X148363500Y-98350000D02*
X145650000Y-98350000D01*
X145650000Y-98350000D02*
X143600000Y-96300000D01*
X143656000Y-96400000D02*
X143626000Y-96430000D01*
%TO.N,/SCL{slash}XDIR{slash}PB0*%
X143600000Y-94049000D02*
X147251000Y-97700000D01*
X143600000Y-93760000D02*
X143600000Y-94049000D01*
X143716000Y-93890000D02*
X143626000Y-93890000D01*
X148363500Y-97700000D02*
X147276000Y-97700000D01*
%TO.N,/SDA{slash}XCK{slash}PB1*%
X143600000Y-91220000D02*
X146226000Y-93846000D01*
X146226000Y-93846000D02*
X146226000Y-95650000D01*
X146226000Y-95650000D02*
X147626000Y-97050000D01*
X147626000Y-97050000D02*
X148363500Y-97050000D01*
%TD*%
%TA.AperFunction,Conductor*%
%TO.N,GND*%
G36*
X149246119Y-89416754D02*
G01*
X149291404Y-89461255D01*
X149308726Y-89522336D01*
X149293545Y-89583985D01*
X149249841Y-89630039D01*
X149187488Y-89668497D01*
X149187480Y-89668503D01*
X149181344Y-89672288D01*
X149176242Y-89677389D01*
X149176238Y-89677393D01*
X149062393Y-89791238D01*
X149062389Y-89791242D01*
X149057288Y-89796344D01*
X149053503Y-89802480D01*
X149053497Y-89802488D01*
X148968977Y-89939519D01*
X148965186Y-89945666D01*
X148962915Y-89952517D01*
X148962914Y-89952521D01*
X148912131Y-90105774D01*
X148910001Y-90112203D01*
X148909313Y-90118933D01*
X148909312Y-90118940D01*
X148899819Y-90211859D01*
X148899818Y-90211877D01*
X148899500Y-90214991D01*
X148899500Y-90218138D01*
X148899500Y-90218139D01*
X148899500Y-91561859D01*
X148899500Y-91561878D01*
X148899501Y-91565008D01*
X148899820Y-91568140D01*
X148899821Y-91568141D01*
X148909312Y-91661061D01*
X148909313Y-91661069D01*
X148910001Y-91667797D01*
X148965186Y-91834334D01*
X148968977Y-91840480D01*
X149053497Y-91977511D01*
X149053500Y-91977515D01*
X149057288Y-91983656D01*
X149181344Y-92107712D01*
X149290597Y-92175099D01*
X149333777Y-92220206D01*
X149349500Y-92280638D01*
X149349500Y-92875444D01*
X149333778Y-92935876D01*
X149290597Y-92980982D01*
X149245999Y-93008490D01*
X149245989Y-93008497D01*
X149239844Y-93012288D01*
X149234736Y-93017395D01*
X149234732Y-93017399D01*
X149120893Y-93131238D01*
X149120889Y-93131242D01*
X149115788Y-93136344D01*
X149112003Y-93142480D01*
X149111997Y-93142488D01*
X149028580Y-93277731D01*
X149023686Y-93285666D01*
X149021415Y-93292517D01*
X149021414Y-93292521D01*
X148970631Y-93445774D01*
X148968501Y-93452203D01*
X148967813Y-93458933D01*
X148967812Y-93458940D01*
X148958319Y-93551859D01*
X148958318Y-93551877D01*
X148958000Y-93554991D01*
X148958000Y-93558138D01*
X148958000Y-93558139D01*
X148958000Y-94901859D01*
X148958000Y-94901878D01*
X148958001Y-94905008D01*
X148958320Y-94908140D01*
X148958321Y-94908141D01*
X148967812Y-95001061D01*
X148967813Y-95001069D01*
X148968501Y-95007797D01*
X148970629Y-95014219D01*
X148970630Y-95014223D01*
X149021414Y-95167478D01*
X149023686Y-95174334D01*
X149027477Y-95180480D01*
X149111997Y-95317511D01*
X149112000Y-95317515D01*
X149115788Y-95323656D01*
X149239844Y-95447712D01*
X149245985Y-95451500D01*
X149245988Y-95451502D01*
X149262206Y-95461505D01*
X149389166Y-95539814D01*
X149555703Y-95594999D01*
X149658491Y-95605500D01*
X150383508Y-95605499D01*
X150486297Y-95594999D01*
X150652834Y-95539814D01*
X150802156Y-95447712D01*
X150926212Y-95323656D01*
X151018314Y-95174334D01*
X151073499Y-95007797D01*
X151084000Y-94905009D01*
X151083999Y-93554992D01*
X151073499Y-93452203D01*
X151018314Y-93285666D01*
X150926212Y-93136344D01*
X150802156Y-93012288D01*
X150796007Y-93008495D01*
X150796003Y-93008492D01*
X150759404Y-92985918D01*
X150716223Y-92940811D01*
X150700500Y-92880379D01*
X150700500Y-92280638D01*
X150716223Y-92220206D01*
X150759402Y-92175099D01*
X150868656Y-92107712D01*
X150992712Y-91983656D01*
X151084814Y-91834334D01*
X151139999Y-91667797D01*
X151150500Y-91565009D01*
X151150499Y-90214992D01*
X151139999Y-90112203D01*
X151084814Y-89945666D01*
X150992712Y-89796344D01*
X150868656Y-89672288D01*
X150862515Y-89668500D01*
X150862511Y-89668497D01*
X150800159Y-89630039D01*
X150756455Y-89583985D01*
X150741274Y-89522336D01*
X150758596Y-89461255D01*
X150803881Y-89416754D01*
X150865255Y-89400500D01*
X151984745Y-89400500D01*
X152046119Y-89416754D01*
X152091404Y-89461255D01*
X152108726Y-89522336D01*
X152093545Y-89583985D01*
X152049841Y-89630039D01*
X151987488Y-89668497D01*
X151987480Y-89668503D01*
X151981344Y-89672288D01*
X151976242Y-89677389D01*
X151976238Y-89677393D01*
X151862393Y-89791238D01*
X151862389Y-89791242D01*
X151857288Y-89796344D01*
X151853503Y-89802480D01*
X151853497Y-89802488D01*
X151768977Y-89939519D01*
X151765186Y-89945666D01*
X151762915Y-89952517D01*
X151762914Y-89952521D01*
X151712131Y-90105774D01*
X151710001Y-90112203D01*
X151709313Y-90118933D01*
X151709312Y-90118940D01*
X151699819Y-90211859D01*
X151699818Y-90211877D01*
X151699500Y-90214991D01*
X151699500Y-90218138D01*
X151699500Y-90218139D01*
X151699500Y-91561859D01*
X151699500Y-91561878D01*
X151699501Y-91565008D01*
X151699820Y-91568140D01*
X151699821Y-91568141D01*
X151709312Y-91661061D01*
X151709313Y-91661069D01*
X151710001Y-91667797D01*
X151765186Y-91834334D01*
X151768977Y-91840480D01*
X151853497Y-91977511D01*
X151853500Y-91977515D01*
X151857288Y-91983656D01*
X151981344Y-92107712D01*
X151987484Y-92111499D01*
X151987488Y-92111502D01*
X152022224Y-92132927D01*
X152130666Y-92199814D01*
X152297203Y-92254999D01*
X152399991Y-92265500D01*
X153250008Y-92265499D01*
X153352797Y-92254999D01*
X153519334Y-92199814D01*
X153668656Y-92107712D01*
X153792712Y-91983656D01*
X153884814Y-91834334D01*
X153939999Y-91667797D01*
X153950500Y-91565009D01*
X153950499Y-90214992D01*
X153939999Y-90112203D01*
X153884814Y-89945666D01*
X153792712Y-89796344D01*
X153668656Y-89672288D01*
X153662515Y-89668500D01*
X153662511Y-89668497D01*
X153600159Y-89630039D01*
X153556455Y-89583985D01*
X153541274Y-89522336D01*
X153558596Y-89461255D01*
X153603881Y-89416754D01*
X153665255Y-89400500D01*
X160875500Y-89400500D01*
X160937500Y-89417113D01*
X160982887Y-89462500D01*
X160999500Y-89524500D01*
X160999500Y-108675500D01*
X160982887Y-108737500D01*
X160937500Y-108782887D01*
X160875500Y-108799500D01*
X141652500Y-108799500D01*
X141590500Y-108782887D01*
X141545113Y-108737500D01*
X141528500Y-108675500D01*
X141528500Y-107554518D01*
X142250000Y-107554518D01*
X142250353Y-107561114D01*
X142255573Y-107609667D01*
X142259111Y-107624641D01*
X142303547Y-107743777D01*
X142311962Y-107759189D01*
X142387498Y-107860092D01*
X142399907Y-107872501D01*
X142500810Y-107948037D01*
X142516222Y-107956452D01*
X142635358Y-108000888D01*
X142650332Y-108004426D01*
X142698885Y-108009646D01*
X142705482Y-108010000D01*
X143333674Y-108010000D01*
X143346549Y-108006549D01*
X143350000Y-107993674D01*
X143850000Y-107993674D01*
X143853450Y-108006549D01*
X143866326Y-108010000D01*
X144494518Y-108010000D01*
X144501114Y-108009646D01*
X144549667Y-108004426D01*
X144564641Y-108000888D01*
X144683777Y-107956452D01*
X144699189Y-107948037D01*
X144800092Y-107872501D01*
X144812501Y-107860092D01*
X144888037Y-107759189D01*
X144896452Y-107743777D01*
X144940888Y-107624641D01*
X144944426Y-107609667D01*
X144949646Y-107561114D01*
X144950000Y-107554518D01*
X144950000Y-106926326D01*
X144946549Y-106913450D01*
X144933674Y-106910000D01*
X143866326Y-106910000D01*
X143853450Y-106913450D01*
X143850000Y-106926326D01*
X143850000Y-107993674D01*
X143350000Y-107993674D01*
X143350000Y-106926326D01*
X143346549Y-106913450D01*
X143333674Y-106910000D01*
X142266326Y-106910000D01*
X142253450Y-106913450D01*
X142250000Y-106926326D01*
X142250000Y-107554518D01*
X141528500Y-107554518D01*
X141528500Y-106846878D01*
X148675500Y-106846878D01*
X148675501Y-106850008D01*
X148675820Y-106853140D01*
X148675821Y-106853141D01*
X148685312Y-106946061D01*
X148685313Y-106946069D01*
X148686001Y-106952797D01*
X148741186Y-107119334D01*
X148744977Y-107125480D01*
X148829497Y-107262511D01*
X148829500Y-107262515D01*
X148833288Y-107268656D01*
X148957344Y-107392712D01*
X148963485Y-107396500D01*
X148963488Y-107396502D01*
X148998850Y-107418313D01*
X149106666Y-107484814D01*
X149273203Y-107539999D01*
X149375991Y-107550500D01*
X150126008Y-107550499D01*
X150228797Y-107539999D01*
X150395334Y-107484814D01*
X150544656Y-107392712D01*
X150668712Y-107268656D01*
X150760814Y-107119334D01*
X150815999Y-106952797D01*
X150826500Y-106850009D01*
X150826500Y-106846878D01*
X151625500Y-106846878D01*
X151625501Y-106850008D01*
X151625820Y-106853140D01*
X151625821Y-106853141D01*
X151635312Y-106946061D01*
X151635313Y-106946069D01*
X151636001Y-106952797D01*
X151691186Y-107119334D01*
X151694977Y-107125480D01*
X151779497Y-107262511D01*
X151779500Y-107262515D01*
X151783288Y-107268656D01*
X151907344Y-107392712D01*
X151913485Y-107396500D01*
X151913488Y-107396502D01*
X151948850Y-107418313D01*
X152056666Y-107484814D01*
X152223203Y-107539999D01*
X152325991Y-107550500D01*
X153076008Y-107550499D01*
X153178797Y-107539999D01*
X153345334Y-107484814D01*
X153424363Y-107436068D01*
X153476256Y-107418313D01*
X153530736Y-107424680D01*
X153577138Y-107453927D01*
X153746598Y-107623387D01*
X153753425Y-107630792D01*
X153787663Y-107671100D01*
X153793012Y-107675166D01*
X153793014Y-107675168D01*
X153850772Y-107719074D01*
X153853418Y-107721143D01*
X153900750Y-107759189D01*
X153915246Y-107770841D01*
X153921268Y-107773827D01*
X153925334Y-107776426D01*
X153929573Y-107778976D01*
X153934936Y-107783054D01*
X154003980Y-107814997D01*
X154006913Y-107816354D01*
X154009943Y-107817805D01*
X154080979Y-107853036D01*
X154087508Y-107854659D01*
X154092163Y-107856369D01*
X154096727Y-107857907D01*
X154102833Y-107860732D01*
X154180291Y-107877781D01*
X154183554Y-107878546D01*
X154229505Y-107889974D01*
X154287259Y-107922626D01*
X154382344Y-108017712D01*
X154388485Y-108021500D01*
X154388488Y-108021502D01*
X154435502Y-108050500D01*
X154531666Y-108109814D01*
X154698203Y-108164999D01*
X154800991Y-108175500D01*
X156151008Y-108175499D01*
X156253797Y-108164999D01*
X156420334Y-108109814D01*
X156569656Y-108017712D01*
X156693712Y-107893656D01*
X156785814Y-107744334D01*
X156840999Y-107577797D01*
X156851500Y-107475009D01*
X156851499Y-106624992D01*
X156840999Y-106522203D01*
X156785814Y-106355666D01*
X156693712Y-106206344D01*
X156569656Y-106082288D01*
X156563515Y-106078500D01*
X156563511Y-106078497D01*
X156447804Y-106007130D01*
X156420334Y-105990186D01*
X156253797Y-105935001D01*
X156247064Y-105934313D01*
X156247059Y-105934312D01*
X156154140Y-105924819D01*
X156154123Y-105924818D01*
X156151009Y-105924500D01*
X156147860Y-105924500D01*
X154804140Y-105924500D01*
X154804120Y-105924500D01*
X154800992Y-105924501D01*
X154797860Y-105924820D01*
X154797858Y-105924821D01*
X154704938Y-105934312D01*
X154704928Y-105934313D01*
X154698203Y-105935001D01*
X154691780Y-105937129D01*
X154691772Y-105937131D01*
X154594734Y-105969286D01*
X154527134Y-105972237D01*
X154468050Y-105939261D01*
X154105400Y-105576611D01*
X154098573Y-105569206D01*
X154064337Y-105528900D01*
X154001213Y-105480914D01*
X153998622Y-105478889D01*
X153936754Y-105429158D01*
X153930732Y-105426171D01*
X153926630Y-105423549D01*
X153922412Y-105421011D01*
X153917064Y-105416946D01*
X153845082Y-105383643D01*
X153842058Y-105382193D01*
X153811259Y-105366919D01*
X153772735Y-105337145D01*
X153748645Y-105294833D01*
X153713086Y-105187523D01*
X153710814Y-105180666D01*
X153618712Y-105031344D01*
X153587819Y-105000451D01*
X153560939Y-104960223D01*
X153551500Y-104912770D01*
X153551500Y-104637230D01*
X153560939Y-104589777D01*
X153587819Y-104549549D01*
X153587818Y-104549549D01*
X153618712Y-104518656D01*
X153710814Y-104369334D01*
X153747663Y-104258128D01*
X153777473Y-104209669D01*
X153822780Y-104181491D01*
X153822745Y-104181415D01*
X153823359Y-104181130D01*
X153825781Y-104179624D01*
X153835221Y-104176444D01*
X153840989Y-104172972D01*
X153845433Y-104170917D01*
X153849794Y-104168754D01*
X153856116Y-104166432D01*
X153909715Y-104132171D01*
X153972302Y-104112721D01*
X154036060Y-104127891D01*
X154083180Y-104173442D01*
X154100500Y-104236650D01*
X154100500Y-104671858D01*
X154100500Y-104671877D01*
X154100501Y-104675008D01*
X154100820Y-104678140D01*
X154100821Y-104678141D01*
X154110312Y-104771061D01*
X154110313Y-104771069D01*
X154111001Y-104777797D01*
X154113129Y-104784219D01*
X154113130Y-104784223D01*
X154145046Y-104880539D01*
X154166186Y-104944334D01*
X154169977Y-104950480D01*
X154254497Y-105087511D01*
X154254500Y-105087515D01*
X154258288Y-105093656D01*
X154382344Y-105217712D01*
X154388485Y-105221500D01*
X154388488Y-105221502D01*
X154398623Y-105227753D01*
X154531666Y-105309814D01*
X154698203Y-105364999D01*
X154800991Y-105375500D01*
X156151008Y-105375499D01*
X156213703Y-105369094D01*
X156267863Y-105375625D01*
X156313982Y-105404771D01*
X157613181Y-106703970D01*
X157640061Y-106744198D01*
X157649500Y-106791651D01*
X157649500Y-107594560D01*
X157649500Y-107594578D01*
X157649501Y-107597872D01*
X157649853Y-107601150D01*
X157649854Y-107601161D01*
X157655079Y-107649768D01*
X157655080Y-107649773D01*
X157655909Y-107657483D01*
X157658619Y-107664749D01*
X157658620Y-107664753D01*
X157688302Y-107744334D01*
X157706204Y-107792331D01*
X157711518Y-107799430D01*
X157711519Y-107799431D01*
X157785877Y-107898761D01*
X157792454Y-107907546D01*
X157907669Y-107993796D01*
X158042517Y-108044091D01*
X158102127Y-108050500D01*
X159897872Y-108050499D01*
X159957483Y-108044091D01*
X160092331Y-107993796D01*
X160207546Y-107907546D01*
X160293796Y-107792331D01*
X160344091Y-107657483D01*
X160350500Y-107597873D01*
X160350499Y-105802128D01*
X160344091Y-105742517D01*
X160293796Y-105607669D01*
X160207546Y-105492454D01*
X160189377Y-105478853D01*
X160099431Y-105411519D01*
X160099430Y-105411518D01*
X160092331Y-105406204D01*
X160022359Y-105380106D01*
X159960916Y-105357189D01*
X159910537Y-105322210D01*
X159883084Y-105267365D01*
X159885273Y-105206072D01*
X159916566Y-105153329D01*
X160038495Y-105031401D01*
X160174035Y-104837830D01*
X160273903Y-104623663D01*
X160335063Y-104395408D01*
X160355659Y-104160000D01*
X160335063Y-103924592D01*
X160273903Y-103696337D01*
X160174035Y-103482171D01*
X160038495Y-103288599D01*
X159871401Y-103121505D01*
X159866968Y-103118401D01*
X159866961Y-103118395D01*
X159685842Y-102991575D01*
X159646976Y-102947257D01*
X159632965Y-102890000D01*
X159646976Y-102832743D01*
X159685842Y-102788425D01*
X159866961Y-102661604D01*
X159866961Y-102661603D01*
X159871401Y-102658495D01*
X160038495Y-102491401D01*
X160174035Y-102297830D01*
X160273903Y-102083663D01*
X160335063Y-101855408D01*
X160355659Y-101620000D01*
X160335063Y-101384592D01*
X160273903Y-101156337D01*
X160174035Y-100942171D01*
X160038495Y-100748599D01*
X159871401Y-100581505D01*
X159866968Y-100578401D01*
X159866961Y-100578395D01*
X159685842Y-100451575D01*
X159646976Y-100407257D01*
X159632965Y-100350000D01*
X159646976Y-100292743D01*
X159685842Y-100248425D01*
X159866961Y-100121604D01*
X159866961Y-100121603D01*
X159871401Y-100118495D01*
X160038495Y-99951401D01*
X160174035Y-99757830D01*
X160273903Y-99543663D01*
X160335063Y-99315408D01*
X160355659Y-99080000D01*
X160335063Y-98844592D01*
X160273903Y-98616337D01*
X160174035Y-98402171D01*
X160038495Y-98208599D01*
X159871401Y-98041505D01*
X159866968Y-98038401D01*
X159866961Y-98038395D01*
X159685842Y-97911575D01*
X159646976Y-97867257D01*
X159632965Y-97810000D01*
X159646976Y-97752743D01*
X159685842Y-97708425D01*
X159866961Y-97581604D01*
X159866961Y-97581603D01*
X159871401Y-97578495D01*
X160038495Y-97411401D01*
X160174035Y-97217830D01*
X160273903Y-97003663D01*
X160335063Y-96775408D01*
X160355659Y-96540000D01*
X160335063Y-96304592D01*
X160273903Y-96076337D01*
X160174035Y-95862171D01*
X160038495Y-95668599D01*
X159871401Y-95501505D01*
X159866968Y-95498401D01*
X159866961Y-95498395D01*
X159685842Y-95371575D01*
X159646976Y-95327257D01*
X159632965Y-95270000D01*
X159646976Y-95212743D01*
X159685842Y-95168425D01*
X159866961Y-95041604D01*
X159866961Y-95041603D01*
X159871401Y-95038495D01*
X160038495Y-94871401D01*
X160174035Y-94677830D01*
X160273903Y-94463663D01*
X160335063Y-94235408D01*
X160355659Y-94000000D01*
X160335063Y-93764592D01*
X160273903Y-93536337D01*
X160174035Y-93322171D01*
X160038495Y-93128599D01*
X159871401Y-92961505D01*
X159866968Y-92958401D01*
X159866961Y-92958395D01*
X159685842Y-92831575D01*
X159646976Y-92787257D01*
X159632965Y-92730000D01*
X159646976Y-92672743D01*
X159685842Y-92628425D01*
X159866961Y-92501604D01*
X159866961Y-92501603D01*
X159871401Y-92498495D01*
X160038495Y-92331401D01*
X160174035Y-92137830D01*
X160273903Y-91923663D01*
X160335063Y-91695408D01*
X160355659Y-91460000D01*
X160335063Y-91224592D01*
X160273903Y-90996337D01*
X160174035Y-90782171D01*
X160038495Y-90588599D01*
X159871401Y-90421505D01*
X159866970Y-90418402D01*
X159866966Y-90418399D01*
X159682259Y-90289066D01*
X159682257Y-90289064D01*
X159677830Y-90285965D01*
X159672933Y-90283681D01*
X159672927Y-90283678D01*
X159468572Y-90188386D01*
X159468570Y-90188385D01*
X159463663Y-90186097D01*
X159458438Y-90184697D01*
X159458430Y-90184694D01*
X159240634Y-90126337D01*
X159240630Y-90126336D01*
X159235408Y-90124937D01*
X159230020Y-90124465D01*
X159230017Y-90124465D01*
X159005395Y-90104813D01*
X159000000Y-90104341D01*
X158994605Y-90104813D01*
X158769982Y-90124465D01*
X158769977Y-90124465D01*
X158764592Y-90124937D01*
X158759371Y-90126335D01*
X158759365Y-90126337D01*
X158541569Y-90184694D01*
X158541557Y-90184698D01*
X158536337Y-90186097D01*
X158531432Y-90188383D01*
X158531427Y-90188386D01*
X158327081Y-90283675D01*
X158327077Y-90283677D01*
X158322171Y-90285965D01*
X158317738Y-90289068D01*
X158317731Y-90289073D01*
X158133034Y-90418399D01*
X158133029Y-90418402D01*
X158128599Y-90421505D01*
X158124775Y-90425328D01*
X158124769Y-90425334D01*
X157965334Y-90584769D01*
X157965328Y-90584775D01*
X157961505Y-90588599D01*
X157958402Y-90593029D01*
X157958399Y-90593034D01*
X157829073Y-90777731D01*
X157829068Y-90777738D01*
X157825965Y-90782171D01*
X157823677Y-90787077D01*
X157823675Y-90787081D01*
X157728386Y-90991427D01*
X157728383Y-90991432D01*
X157726097Y-90996337D01*
X157724698Y-91001557D01*
X157724694Y-91001569D01*
X157666337Y-91219365D01*
X157666335Y-91219371D01*
X157664937Y-91224592D01*
X157644341Y-91460000D01*
X157644813Y-91465395D01*
X157663083Y-91674225D01*
X157664937Y-91695408D01*
X157666336Y-91700630D01*
X157666337Y-91700634D01*
X157676913Y-91740104D01*
X157676913Y-91804291D01*
X157644819Y-91859878D01*
X156015424Y-93489273D01*
X156009972Y-93494405D01*
X155972286Y-93527792D01*
X155972278Y-93527800D01*
X155966668Y-93532771D01*
X155962407Y-93538943D01*
X155962406Y-93538945D01*
X155933800Y-93580387D01*
X155929363Y-93586416D01*
X155898298Y-93626068D01*
X155898293Y-93626076D01*
X155893674Y-93631972D01*
X155890600Y-93638800D01*
X155890597Y-93638806D01*
X155889823Y-93640527D01*
X155878810Y-93660054D01*
X155877741Y-93661601D01*
X155877736Y-93661609D01*
X155873482Y-93667774D01*
X155870825Y-93674779D01*
X155870820Y-93674789D01*
X155852964Y-93721869D01*
X155850102Y-93728781D01*
X155829426Y-93774724D01*
X155829423Y-93774730D01*
X155826350Y-93781561D01*
X155824999Y-93788931D01*
X155824997Y-93788938D01*
X155824660Y-93790780D01*
X155818639Y-93812377D01*
X155817971Y-93814136D01*
X155817966Y-93814156D01*
X155815312Y-93821155D01*
X155814409Y-93828586D01*
X155814406Y-93828601D01*
X155808333Y-93878613D01*
X155807208Y-93886011D01*
X155796781Y-93942915D01*
X155799907Y-93994605D01*
X155800274Y-94000665D01*
X155800500Y-94008151D01*
X155800500Y-95068836D01*
X155791061Y-95116289D01*
X155764180Y-95156517D01*
X155287665Y-95633034D01*
X154975681Y-95945018D01*
X154926318Y-95975268D01*
X154868602Y-95979810D01*
X154815115Y-95957655D01*
X154777515Y-95913632D01*
X154764000Y-95857337D01*
X154764000Y-95396651D01*
X154764226Y-95389165D01*
X154765373Y-95370199D01*
X154767719Y-95331415D01*
X154757284Y-95274477D01*
X154756163Y-95267103D01*
X154750092Y-95217101D01*
X154749188Y-95209655D01*
X154745862Y-95200887D01*
X154739837Y-95179269D01*
X154738150Y-95170061D01*
X154714398Y-95117286D01*
X154711539Y-95110382D01*
X154693680Y-95063292D01*
X154693678Y-95063289D01*
X154691018Y-95056274D01*
X154686754Y-95050097D01*
X154686753Y-95050094D01*
X154685694Y-95048560D01*
X154674672Y-95029018D01*
X154670826Y-95020472D01*
X154635139Y-94974922D01*
X154630700Y-94968890D01*
X154602093Y-94927444D01*
X154602092Y-94927443D01*
X154597832Y-94921271D01*
X154554527Y-94882906D01*
X154549073Y-94877772D01*
X154045318Y-94374017D01*
X154018438Y-94333789D01*
X154008999Y-94286336D01*
X154008999Y-93558141D01*
X154008999Y-93558139D01*
X154008999Y-93554992D01*
X153998499Y-93452203D01*
X153943314Y-93285666D01*
X153851212Y-93136344D01*
X153727156Y-93012288D01*
X153721015Y-93008500D01*
X153721011Y-93008497D01*
X153583980Y-92923977D01*
X153577834Y-92920186D01*
X153411297Y-92865001D01*
X153404564Y-92864313D01*
X153404559Y-92864312D01*
X153311640Y-92854819D01*
X153311623Y-92854818D01*
X153308509Y-92854500D01*
X153305360Y-92854500D01*
X152586641Y-92854500D01*
X152586621Y-92854500D01*
X152583492Y-92854501D01*
X152580360Y-92854820D01*
X152580358Y-92854821D01*
X152487438Y-92864312D01*
X152487428Y-92864313D01*
X152480703Y-92865001D01*
X152474281Y-92867128D01*
X152474276Y-92867130D01*
X152321021Y-92917914D01*
X152321017Y-92917915D01*
X152314166Y-92920186D01*
X152308022Y-92923975D01*
X152308019Y-92923977D01*
X152170988Y-93008497D01*
X152170980Y-93008503D01*
X152164844Y-93012288D01*
X152159742Y-93017389D01*
X152159738Y-93017393D01*
X152045893Y-93131238D01*
X152045889Y-93131242D01*
X152040788Y-93136344D01*
X152037003Y-93142480D01*
X152036997Y-93142488D01*
X151953580Y-93277731D01*
X151948686Y-93285666D01*
X151946415Y-93292517D01*
X151946414Y-93292521D01*
X151895631Y-93445774D01*
X151893501Y-93452203D01*
X151892813Y-93458933D01*
X151892812Y-93458940D01*
X151883319Y-93551859D01*
X151883318Y-93551877D01*
X151883000Y-93554991D01*
X151883000Y-93558138D01*
X151883000Y-93558139D01*
X151883000Y-94901859D01*
X151883000Y-94901878D01*
X151883001Y-94905008D01*
X151883320Y-94908140D01*
X151883321Y-94908141D01*
X151892812Y-95001061D01*
X151892813Y-95001069D01*
X151893501Y-95007797D01*
X151895629Y-95014219D01*
X151895630Y-95014223D01*
X151946414Y-95167478D01*
X151948686Y-95174334D01*
X151952477Y-95180480D01*
X152036997Y-95317511D01*
X152037000Y-95317515D01*
X152040788Y-95323656D01*
X152164844Y-95447712D01*
X152170985Y-95451500D01*
X152170988Y-95451502D01*
X152187206Y-95461505D01*
X152314166Y-95539814D01*
X152480703Y-95594999D01*
X152583491Y-95605500D01*
X153289000Y-95605499D01*
X153351000Y-95622112D01*
X153396387Y-95667499D01*
X153413000Y-95729499D01*
X153413000Y-96240576D01*
X153398989Y-96297833D01*
X153360123Y-96342151D01*
X153310095Y-96361604D01*
X153310146Y-96361792D01*
X153308437Y-96362249D01*
X153305184Y-96363515D01*
X153302296Y-96363895D01*
X153302294Y-96363895D01*
X153294238Y-96364956D01*
X153286738Y-96368062D01*
X153286729Y-96368065D01*
X153155666Y-96422354D01*
X153155662Y-96422355D01*
X153148159Y-96425464D01*
X153141714Y-96430408D01*
X153141711Y-96430411D01*
X153029164Y-96516771D01*
X153029160Y-96516774D01*
X153022718Y-96521718D01*
X153017774Y-96528160D01*
X153017771Y-96528164D01*
X152931411Y-96640711D01*
X152931408Y-96640714D01*
X152926464Y-96647159D01*
X152923355Y-96654662D01*
X152923354Y-96654666D01*
X152869066Y-96785728D01*
X152869066Y-96785729D01*
X152865956Y-96793238D01*
X152864896Y-96801289D01*
X152864894Y-96801297D01*
X152851029Y-96906618D01*
X152850500Y-96910639D01*
X152850500Y-96914691D01*
X152850500Y-96914692D01*
X152850500Y-97185305D01*
X152850500Y-97185320D01*
X152850501Y-97189360D01*
X152851029Y-97193374D01*
X152851030Y-97193382D01*
X152854832Y-97222259D01*
X152865956Y-97306762D01*
X152869064Y-97314265D01*
X152869065Y-97314269D01*
X152874566Y-97327549D01*
X152884004Y-97375000D01*
X152874566Y-97422451D01*
X152869066Y-97435728D01*
X152869064Y-97435733D01*
X152865956Y-97443238D01*
X152864896Y-97451289D01*
X152864894Y-97451297D01*
X152851029Y-97556618D01*
X152850500Y-97560639D01*
X152850500Y-97564691D01*
X152850500Y-97564692D01*
X152850500Y-97835305D01*
X152850500Y-97835320D01*
X152850501Y-97839360D01*
X152851029Y-97843374D01*
X152851030Y-97843382D01*
X152864895Y-97948703D01*
X152865956Y-97956762D01*
X152869064Y-97964265D01*
X152869065Y-97964269D01*
X152874566Y-97977549D01*
X152884004Y-98025000D01*
X152874566Y-98072451D01*
X152869066Y-98085728D01*
X152869064Y-98085733D01*
X152865956Y-98093238D01*
X152864896Y-98101289D01*
X152864894Y-98101297D01*
X152851029Y-98206618D01*
X152850500Y-98210639D01*
X152850500Y-98214691D01*
X152850500Y-98214692D01*
X152850500Y-98485305D01*
X152850500Y-98485320D01*
X152850501Y-98489360D01*
X152851029Y-98493374D01*
X152851030Y-98493382D01*
X152864895Y-98598703D01*
X152865956Y-98606762D01*
X152869063Y-98614263D01*
X152869065Y-98614270D01*
X152872089Y-98621569D01*
X152874562Y-98627540D01*
X152874565Y-98627546D01*
X152884004Y-98674997D01*
X152874567Y-98722448D01*
X152869066Y-98735728D01*
X152869064Y-98735733D01*
X152865956Y-98743238D01*
X152864896Y-98751289D01*
X152864894Y-98751297D01*
X152851029Y-98856618D01*
X152850500Y-98860639D01*
X152850500Y-98864691D01*
X152850500Y-98864692D01*
X152850500Y-99135305D01*
X152850500Y-99135320D01*
X152850501Y-99139360D01*
X152865956Y-99256762D01*
X152869064Y-99264265D01*
X152869065Y-99264269D01*
X152874566Y-99277549D01*
X152884004Y-99325000D01*
X152874566Y-99372451D01*
X152869066Y-99385728D01*
X152869064Y-99385733D01*
X152865956Y-99393238D01*
X152864896Y-99401289D01*
X152864894Y-99401297D01*
X152851029Y-99506618D01*
X152850500Y-99510639D01*
X152850500Y-99514691D01*
X152850500Y-99514692D01*
X152850500Y-99785305D01*
X152850500Y-99785320D01*
X152850501Y-99789360D01*
X152865956Y-99906762D01*
X152869064Y-99914265D01*
X152869065Y-99914269D01*
X152874566Y-99927549D01*
X152884004Y-99975000D01*
X152874566Y-100022451D01*
X152869066Y-100035728D01*
X152869064Y-100035733D01*
X152865956Y-100043238D01*
X152864896Y-100051289D01*
X152864894Y-100051297D01*
X152851029Y-100156618D01*
X152850500Y-100160639D01*
X152850500Y-100164691D01*
X152850500Y-100164692D01*
X152850500Y-100435305D01*
X152850500Y-100435320D01*
X152850501Y-100439360D01*
X152851029Y-100443374D01*
X152851030Y-100443382D01*
X152864895Y-100548703D01*
X152865956Y-100556762D01*
X152869064Y-100564265D01*
X152869065Y-100564269D01*
X152874566Y-100577549D01*
X152884004Y-100625000D01*
X152874566Y-100672451D01*
X152869066Y-100685728D01*
X152869064Y-100685733D01*
X152865956Y-100693238D01*
X152864896Y-100701289D01*
X152864894Y-100701297D01*
X152851029Y-100806618D01*
X152850500Y-100810639D01*
X152850500Y-100814691D01*
X152850500Y-100814692D01*
X152850500Y-101085305D01*
X152850500Y-101085320D01*
X152850501Y-101089360D01*
X152851029Y-101093374D01*
X152851030Y-101093382D01*
X152864895Y-101198702D01*
X152865956Y-101206762D01*
X152869063Y-101214263D01*
X152869065Y-101214270D01*
X152903324Y-101296976D01*
X152926464Y-101352841D01*
X152931411Y-101359288D01*
X153017769Y-101471833D01*
X153022718Y-101478282D01*
X153148159Y-101574536D01*
X153161452Y-101580042D01*
X153201681Y-101606921D01*
X153228561Y-101647150D01*
X153238000Y-101694603D01*
X153238000Y-101878736D01*
X153219221Y-101944344D01*
X153168574Y-101990081D01*
X153101398Y-102002093D01*
X153094189Y-102001357D01*
X153079138Y-101999819D01*
X153079125Y-101999818D01*
X153076009Y-101999500D01*
X153072860Y-101999500D01*
X152329141Y-101999500D01*
X152329121Y-101999500D01*
X152325992Y-101999501D01*
X152322860Y-101999820D01*
X152322858Y-101999821D01*
X152229938Y-102009312D01*
X152229928Y-102009313D01*
X152223203Y-102010001D01*
X152216781Y-102012128D01*
X152216776Y-102012130D01*
X152063521Y-102062914D01*
X152063517Y-102062915D01*
X152056666Y-102065186D01*
X152050522Y-102068975D01*
X152050519Y-102068977D01*
X151913488Y-102153497D01*
X151913480Y-102153503D01*
X151907344Y-102157288D01*
X151902242Y-102162389D01*
X151902238Y-102162393D01*
X151788393Y-102276238D01*
X151788389Y-102276242D01*
X151783288Y-102281344D01*
X151779503Y-102287480D01*
X151779497Y-102287488D01*
X151694977Y-102424519D01*
X151691186Y-102430666D01*
X151688915Y-102437517D01*
X151688914Y-102437521D01*
X151638131Y-102590774D01*
X151636001Y-102597203D01*
X151635313Y-102603933D01*
X151635312Y-102603940D01*
X151625819Y-102696859D01*
X151625818Y-102696877D01*
X151625500Y-102699991D01*
X151625500Y-102703138D01*
X151625500Y-102703139D01*
X151625500Y-104096859D01*
X151625500Y-104096878D01*
X151625501Y-104100008D01*
X151625820Y-104103140D01*
X151625821Y-104103141D01*
X151635312Y-104196061D01*
X151635313Y-104196069D01*
X151636001Y-104202797D01*
X151638129Y-104209219D01*
X151638130Y-104209223D01*
X151683390Y-104345808D01*
X151691186Y-104369334D01*
X151694977Y-104375480D01*
X151779497Y-104512511D01*
X151779500Y-104512515D01*
X151783288Y-104518656D01*
X151788393Y-104523761D01*
X151814181Y-104549549D01*
X151841061Y-104589777D01*
X151850500Y-104637230D01*
X151850500Y-104912770D01*
X151841061Y-104960223D01*
X151814181Y-105000451D01*
X151788393Y-105026238D01*
X151788389Y-105026242D01*
X151783288Y-105031344D01*
X151779503Y-105037480D01*
X151779497Y-105037488D01*
X151704861Y-105158495D01*
X151691186Y-105180666D01*
X151688915Y-105187517D01*
X151688914Y-105187521D01*
X151640364Y-105334035D01*
X151636001Y-105347203D01*
X151635313Y-105353933D01*
X151635312Y-105353940D01*
X151625819Y-105446859D01*
X151625818Y-105446877D01*
X151625500Y-105449991D01*
X151625500Y-105453138D01*
X151625500Y-105453139D01*
X151625500Y-106846859D01*
X151625500Y-106846878D01*
X150826500Y-106846878D01*
X150826499Y-105449992D01*
X150815999Y-105347203D01*
X150760814Y-105180666D01*
X150668712Y-105031344D01*
X150544656Y-104907288D01*
X150501286Y-104880537D01*
X150458107Y-104835432D01*
X150442384Y-104775000D01*
X150458107Y-104714568D01*
X150501286Y-104669462D01*
X150544656Y-104642712D01*
X150668712Y-104518656D01*
X150760814Y-104369334D01*
X150815999Y-104202797D01*
X150826500Y-104100009D01*
X150826499Y-102699992D01*
X150815999Y-102597203D01*
X150760814Y-102430666D01*
X150707702Y-102344558D01*
X150672502Y-102287488D01*
X150672500Y-102287485D01*
X150668712Y-102281344D01*
X150544656Y-102157288D01*
X150538515Y-102153500D01*
X150538511Y-102153497D01*
X150401480Y-102068977D01*
X150395334Y-102065186D01*
X150345196Y-102048572D01*
X150235225Y-102012131D01*
X150235224Y-102012130D01*
X150228797Y-102010001D01*
X150222064Y-102009313D01*
X150222059Y-102009312D01*
X150129140Y-101999819D01*
X150129123Y-101999818D01*
X150126009Y-101999500D01*
X150122860Y-101999500D01*
X149379141Y-101999500D01*
X149379121Y-101999500D01*
X149375992Y-101999501D01*
X149372860Y-101999820D01*
X149372858Y-101999821D01*
X149279938Y-102009312D01*
X149279928Y-102009313D01*
X149273203Y-102010001D01*
X149266781Y-102012128D01*
X149266776Y-102012130D01*
X149113521Y-102062914D01*
X149113517Y-102062915D01*
X149106666Y-102065186D01*
X149100522Y-102068975D01*
X149100519Y-102068977D01*
X148963488Y-102153497D01*
X148963480Y-102153503D01*
X148957344Y-102157288D01*
X148952242Y-102162389D01*
X148952238Y-102162393D01*
X148838393Y-102276238D01*
X148838389Y-102276242D01*
X148833288Y-102281344D01*
X148829503Y-102287480D01*
X148829497Y-102287488D01*
X148744977Y-102424519D01*
X148741186Y-102430666D01*
X148738915Y-102437517D01*
X148738914Y-102437521D01*
X148688131Y-102590774D01*
X148686001Y-102597203D01*
X148685313Y-102603933D01*
X148685312Y-102603940D01*
X148675819Y-102696859D01*
X148675818Y-102696877D01*
X148675500Y-102699991D01*
X148675500Y-102703138D01*
X148675500Y-102703139D01*
X148675500Y-104096859D01*
X148675500Y-104096878D01*
X148675501Y-104100008D01*
X148675820Y-104103140D01*
X148675821Y-104103141D01*
X148685312Y-104196061D01*
X148685313Y-104196069D01*
X148686001Y-104202797D01*
X148688129Y-104209219D01*
X148688130Y-104209223D01*
X148733390Y-104345808D01*
X148741186Y-104369334D01*
X148744977Y-104375480D01*
X148829497Y-104512511D01*
X148829500Y-104512515D01*
X148833288Y-104518656D01*
X148957344Y-104642712D01*
X149000713Y-104669462D01*
X149043892Y-104714568D01*
X149059615Y-104775000D01*
X149043892Y-104835432D01*
X149000713Y-104880537D01*
X148976063Y-104895741D01*
X148963489Y-104903498D01*
X148957344Y-104907288D01*
X148952242Y-104912389D01*
X148952238Y-104912393D01*
X148838393Y-105026238D01*
X148838389Y-105026242D01*
X148833288Y-105031344D01*
X148829503Y-105037480D01*
X148829497Y-105037488D01*
X148754861Y-105158495D01*
X148741186Y-105180666D01*
X148738915Y-105187517D01*
X148738914Y-105187521D01*
X148690364Y-105334035D01*
X148686001Y-105347203D01*
X148685313Y-105353933D01*
X148685312Y-105353940D01*
X148675819Y-105446859D01*
X148675818Y-105446877D01*
X148675500Y-105449991D01*
X148675500Y-105453138D01*
X148675500Y-105453139D01*
X148675500Y-106846859D01*
X148675500Y-106846878D01*
X141528500Y-106846878D01*
X141528500Y-104120000D01*
X142244341Y-104120000D01*
X142244813Y-104125395D01*
X142248754Y-104170446D01*
X142264937Y-104355408D01*
X142266336Y-104360630D01*
X142266337Y-104360634D01*
X142324694Y-104578430D01*
X142324697Y-104578438D01*
X142326097Y-104583663D01*
X142328385Y-104588570D01*
X142328386Y-104588572D01*
X142423678Y-104792927D01*
X142423681Y-104792933D01*
X142425965Y-104797830D01*
X142429064Y-104802257D01*
X142429066Y-104802259D01*
X142558399Y-104986966D01*
X142558402Y-104986970D01*
X142561505Y-104991401D01*
X142565336Y-104995232D01*
X142683818Y-105113714D01*
X142715114Y-105166460D01*
X142717303Y-105227753D01*
X142689850Y-105282597D01*
X142639471Y-105317576D01*
X142516226Y-105363544D01*
X142500810Y-105371962D01*
X142399907Y-105447498D01*
X142387498Y-105459907D01*
X142311962Y-105560810D01*
X142303547Y-105576222D01*
X142259111Y-105695358D01*
X142255573Y-105710332D01*
X142250353Y-105758885D01*
X142250000Y-105765482D01*
X142250000Y-106393674D01*
X142253450Y-106406549D01*
X142266326Y-106410000D01*
X144933674Y-106410000D01*
X144946549Y-106406549D01*
X144950000Y-106393674D01*
X144950000Y-105765482D01*
X144949646Y-105758885D01*
X144944426Y-105710332D01*
X144940888Y-105695358D01*
X144896452Y-105576222D01*
X144888037Y-105560810D01*
X144812501Y-105459907D01*
X144800092Y-105447498D01*
X144699189Y-105371962D01*
X144683779Y-105363548D01*
X144560528Y-105317577D01*
X144510149Y-105282597D01*
X144482696Y-105227753D01*
X144484885Y-105166460D01*
X144516178Y-105113717D01*
X144638495Y-104991401D01*
X144774035Y-104797830D01*
X144873903Y-104583663D01*
X144935063Y-104355408D01*
X144955659Y-104120000D01*
X144935063Y-103884592D01*
X144880821Y-103682156D01*
X144880821Y-103617971D01*
X144912913Y-103562386D01*
X147067182Y-101408117D01*
X147128022Y-101374739D01*
X147197271Y-101379278D01*
X147253236Y-101420313D01*
X147292769Y-101471833D01*
X147292771Y-101471835D01*
X147297718Y-101478282D01*
X147423159Y-101574536D01*
X147569238Y-101635044D01*
X147686639Y-101650500D01*
X149040360Y-101650499D01*
X149157762Y-101635044D01*
X149303841Y-101574536D01*
X149429282Y-101478282D01*
X149525536Y-101352841D01*
X149586044Y-101206762D01*
X149601500Y-101089361D01*
X149601499Y-100810640D01*
X149586044Y-100693238D01*
X149577435Y-100672454D01*
X149567995Y-100624997D01*
X149577437Y-100577540D01*
X149582934Y-100564271D01*
X149582934Y-100564268D01*
X149586044Y-100556762D01*
X149601500Y-100439361D01*
X149601499Y-100160640D01*
X149586044Y-100043238D01*
X149577436Y-100022457D01*
X149567995Y-99975000D01*
X149577436Y-99927543D01*
X149582934Y-99914270D01*
X149582934Y-99914269D01*
X149586044Y-99906762D01*
X149601500Y-99789361D01*
X149601499Y-99510640D01*
X149586044Y-99393238D01*
X149577436Y-99372457D01*
X149567995Y-99325000D01*
X149577436Y-99277543D01*
X149582934Y-99264270D01*
X149582934Y-99264269D01*
X149586044Y-99256762D01*
X149601500Y-99139361D01*
X149601499Y-98860640D01*
X149586044Y-98743238D01*
X149577435Y-98722454D01*
X149567995Y-98674997D01*
X149577437Y-98627540D01*
X149582934Y-98614271D01*
X149582934Y-98614268D01*
X149586044Y-98606762D01*
X149601500Y-98489361D01*
X149601499Y-98210640D01*
X149586044Y-98093238D01*
X149577436Y-98072457D01*
X149567995Y-98025000D01*
X149577436Y-97977543D01*
X149582934Y-97964270D01*
X149582934Y-97964269D01*
X149586044Y-97956762D01*
X149601500Y-97839361D01*
X149601499Y-97560640D01*
X149586044Y-97443238D01*
X149577436Y-97422457D01*
X149567995Y-97375000D01*
X149577436Y-97327543D01*
X149582934Y-97314270D01*
X149582934Y-97314269D01*
X149586044Y-97306762D01*
X149601500Y-97189361D01*
X149601499Y-96910640D01*
X149586044Y-96793238D01*
X149582933Y-96785728D01*
X149559857Y-96730017D01*
X149525536Y-96647159D01*
X149429282Y-96521718D01*
X149400978Y-96500000D01*
X149310288Y-96430411D01*
X149303841Y-96425464D01*
X149296333Y-96422354D01*
X149165271Y-96368066D01*
X149165268Y-96368065D01*
X149157762Y-96364956D01*
X149149708Y-96363895D01*
X149149702Y-96363894D01*
X149044381Y-96350029D01*
X149044377Y-96350028D01*
X149040361Y-96349500D01*
X149036308Y-96349500D01*
X147932163Y-96349500D01*
X147884710Y-96340061D01*
X147844482Y-96313181D01*
X146937819Y-95406518D01*
X146910939Y-95366290D01*
X146901500Y-95318837D01*
X146901500Y-93870151D01*
X146901726Y-93862665D01*
X146904766Y-93812401D01*
X146905219Y-93804915D01*
X146894784Y-93747977D01*
X146893663Y-93740603D01*
X146892373Y-93729982D01*
X146886688Y-93683155D01*
X146883362Y-93674387D01*
X146877337Y-93652769D01*
X146875650Y-93643561D01*
X146851898Y-93590786D01*
X146849039Y-93583882D01*
X146831180Y-93536792D01*
X146831178Y-93536789D01*
X146828518Y-93529774D01*
X146824254Y-93523597D01*
X146824253Y-93523594D01*
X146823194Y-93522060D01*
X146812172Y-93502518D01*
X146811745Y-93501569D01*
X146808326Y-93493972D01*
X146772639Y-93448422D01*
X146768200Y-93442390D01*
X146739593Y-93400944D01*
X146739592Y-93400943D01*
X146735332Y-93394771D01*
X146692027Y-93356406D01*
X146686573Y-93351272D01*
X144980425Y-91645124D01*
X144951584Y-91599853D01*
X144944578Y-91546638D01*
X144955659Y-91420000D01*
X144935063Y-91184592D01*
X144873903Y-90956337D01*
X144774035Y-90742171D01*
X144638495Y-90548599D01*
X144471401Y-90381505D01*
X144466970Y-90378402D01*
X144466966Y-90378399D01*
X144282259Y-90249066D01*
X144282257Y-90249064D01*
X144277830Y-90245965D01*
X144272933Y-90243681D01*
X144272927Y-90243678D01*
X144068572Y-90148386D01*
X144068570Y-90148385D01*
X144063663Y-90146097D01*
X144058438Y-90144697D01*
X144058430Y-90144694D01*
X143840634Y-90086337D01*
X143840630Y-90086336D01*
X143835408Y-90084937D01*
X143830020Y-90084465D01*
X143830017Y-90084465D01*
X143605395Y-90064813D01*
X143600000Y-90064341D01*
X143594605Y-90064813D01*
X143369982Y-90084465D01*
X143369977Y-90084465D01*
X143364592Y-90084937D01*
X143359371Y-90086335D01*
X143359365Y-90086337D01*
X143141569Y-90144694D01*
X143141557Y-90144698D01*
X143136337Y-90146097D01*
X143131432Y-90148383D01*
X143131427Y-90148386D01*
X142927081Y-90243675D01*
X142927077Y-90243677D01*
X142922171Y-90245965D01*
X142917738Y-90249068D01*
X142917731Y-90249073D01*
X142733034Y-90378399D01*
X142733029Y-90378402D01*
X142728599Y-90381505D01*
X142724775Y-90385328D01*
X142724769Y-90385334D01*
X142565334Y-90544769D01*
X142565328Y-90544775D01*
X142561505Y-90548599D01*
X142558402Y-90553029D01*
X142558399Y-90553034D01*
X142429073Y-90737731D01*
X142429068Y-90737738D01*
X142425965Y-90742171D01*
X142423677Y-90747077D01*
X142423675Y-90747081D01*
X142328386Y-90951427D01*
X142328383Y-90951432D01*
X142326097Y-90956337D01*
X142324698Y-90961557D01*
X142324694Y-90961569D01*
X142266337Y-91179365D01*
X142266335Y-91179371D01*
X142264937Y-91184592D01*
X142264465Y-91189977D01*
X142264465Y-91189982D01*
X142244813Y-91414605D01*
X142244341Y-91420000D01*
X142264937Y-91655408D01*
X142266336Y-91660630D01*
X142266337Y-91660634D01*
X142324694Y-91878430D01*
X142324697Y-91878438D01*
X142326097Y-91883663D01*
X142328385Y-91888570D01*
X142328386Y-91888572D01*
X142423678Y-92092927D01*
X142423681Y-92092933D01*
X142425965Y-92097830D01*
X142429064Y-92102257D01*
X142429066Y-92102259D01*
X142558399Y-92286966D01*
X142558402Y-92286970D01*
X142561505Y-92291401D01*
X142728599Y-92458495D01*
X142733032Y-92461599D01*
X142733038Y-92461604D01*
X142914158Y-92588425D01*
X142953024Y-92632743D01*
X142967035Y-92690000D01*
X142953024Y-92747257D01*
X142914159Y-92791575D01*
X142733728Y-92917914D01*
X142728599Y-92921505D01*
X142724775Y-92925328D01*
X142724769Y-92925334D01*
X142565334Y-93084769D01*
X142565328Y-93084775D01*
X142561505Y-93088599D01*
X142558402Y-93093029D01*
X142558399Y-93093034D01*
X142429073Y-93277731D01*
X142429068Y-93277738D01*
X142425965Y-93282171D01*
X142423677Y-93287077D01*
X142423675Y-93287081D01*
X142328386Y-93491427D01*
X142328383Y-93491432D01*
X142326097Y-93496337D01*
X142324698Y-93501557D01*
X142324694Y-93501569D01*
X142266337Y-93719365D01*
X142266335Y-93719371D01*
X142264937Y-93724592D01*
X142264465Y-93729977D01*
X142264465Y-93729982D01*
X142245340Y-93948577D01*
X142244341Y-93960000D01*
X142244813Y-93965395D01*
X142264465Y-94190017D01*
X142264465Y-94190020D01*
X142264937Y-94195408D01*
X142266336Y-94200630D01*
X142266337Y-94200634D01*
X142324694Y-94418430D01*
X142324697Y-94418438D01*
X142326097Y-94423663D01*
X142328385Y-94428570D01*
X142328386Y-94428572D01*
X142423678Y-94632927D01*
X142423681Y-94632933D01*
X142425965Y-94637830D01*
X142429064Y-94642257D01*
X142429066Y-94642259D01*
X142558399Y-94826966D01*
X142558402Y-94826970D01*
X142561505Y-94831401D01*
X142728599Y-94998495D01*
X142733032Y-95001599D01*
X142733038Y-95001604D01*
X142914158Y-95128425D01*
X142953024Y-95172743D01*
X142967035Y-95230000D01*
X142953024Y-95287257D01*
X142914159Y-95331575D01*
X142748298Y-95447712D01*
X142728599Y-95461505D01*
X142724775Y-95465328D01*
X142724769Y-95465334D01*
X142565334Y-95624769D01*
X142565328Y-95624775D01*
X142561505Y-95628599D01*
X142558402Y-95633029D01*
X142558399Y-95633034D01*
X142429073Y-95817731D01*
X142429068Y-95817738D01*
X142425965Y-95822171D01*
X142423677Y-95827077D01*
X142423675Y-95827081D01*
X142328386Y-96031427D01*
X142328383Y-96031432D01*
X142326097Y-96036337D01*
X142324698Y-96041557D01*
X142324694Y-96041569D01*
X142266337Y-96259365D01*
X142266335Y-96259371D01*
X142264937Y-96264592D01*
X142264465Y-96269977D01*
X142264465Y-96269982D01*
X142245340Y-96488577D01*
X142244341Y-96500000D01*
X142244813Y-96505395D01*
X142252590Y-96594291D01*
X142264937Y-96735408D01*
X142266336Y-96740630D01*
X142266337Y-96740634D01*
X142324694Y-96958430D01*
X142324697Y-96958438D01*
X142326097Y-96963663D01*
X142328385Y-96968570D01*
X142328386Y-96968572D01*
X142423678Y-97172927D01*
X142423681Y-97172933D01*
X142425965Y-97177830D01*
X142429064Y-97182257D01*
X142429066Y-97182259D01*
X142558399Y-97366966D01*
X142558402Y-97366970D01*
X142561505Y-97371401D01*
X142728599Y-97538495D01*
X142733032Y-97541599D01*
X142733038Y-97541604D01*
X142914158Y-97668425D01*
X142953024Y-97712743D01*
X142967035Y-97770000D01*
X142953024Y-97827257D01*
X142914159Y-97871575D01*
X142804006Y-97948705D01*
X142728599Y-98001505D01*
X142724775Y-98005328D01*
X142724769Y-98005334D01*
X142565334Y-98164769D01*
X142565328Y-98164775D01*
X142561505Y-98168599D01*
X142558402Y-98173029D01*
X142558399Y-98173034D01*
X142429073Y-98357731D01*
X142429068Y-98357738D01*
X142425965Y-98362171D01*
X142423677Y-98367077D01*
X142423675Y-98367081D01*
X142328386Y-98571427D01*
X142328383Y-98571432D01*
X142326097Y-98576337D01*
X142324698Y-98581557D01*
X142324694Y-98581569D01*
X142266337Y-98799365D01*
X142266335Y-98799371D01*
X142264937Y-98804592D01*
X142264465Y-98809977D01*
X142264465Y-98809982D01*
X142244813Y-99034605D01*
X142244341Y-99040000D01*
X142244813Y-99045395D01*
X142263962Y-99264270D01*
X142264937Y-99275408D01*
X142266336Y-99280630D01*
X142266337Y-99280634D01*
X142324694Y-99498430D01*
X142324697Y-99498438D01*
X142326097Y-99503663D01*
X142328385Y-99508570D01*
X142328386Y-99508572D01*
X142423678Y-99712927D01*
X142423681Y-99712933D01*
X142425965Y-99717830D01*
X142429064Y-99722257D01*
X142429066Y-99722259D01*
X142558399Y-99906966D01*
X142558402Y-99906970D01*
X142561505Y-99911401D01*
X142728599Y-100078495D01*
X142733032Y-100081599D01*
X142733038Y-100081604D01*
X142914158Y-100208425D01*
X142953024Y-100252743D01*
X142967035Y-100310000D01*
X142953024Y-100367257D01*
X142914158Y-100411575D01*
X142728599Y-100541505D01*
X142724775Y-100545328D01*
X142724769Y-100545334D01*
X142565334Y-100704769D01*
X142565328Y-100704775D01*
X142561505Y-100708599D01*
X142558402Y-100713029D01*
X142558399Y-100713034D01*
X142429073Y-100897731D01*
X142429068Y-100897738D01*
X142425965Y-100902171D01*
X142423677Y-100907077D01*
X142423675Y-100907081D01*
X142328386Y-101111427D01*
X142328383Y-101111432D01*
X142326097Y-101116337D01*
X142324698Y-101121557D01*
X142324694Y-101121569D01*
X142266337Y-101339365D01*
X142266335Y-101339371D01*
X142264937Y-101344592D01*
X142264465Y-101349977D01*
X142264465Y-101349982D01*
X142245252Y-101569586D01*
X142244341Y-101580000D01*
X142244813Y-101585395D01*
X142252736Y-101675960D01*
X142264937Y-101815408D01*
X142266336Y-101820630D01*
X142266337Y-101820634D01*
X142324694Y-102038430D01*
X142324697Y-102038438D01*
X142326097Y-102043663D01*
X142328385Y-102048570D01*
X142328386Y-102048572D01*
X142423678Y-102252927D01*
X142423681Y-102252933D01*
X142425965Y-102257830D01*
X142429064Y-102262257D01*
X142429066Y-102262259D01*
X142558399Y-102446966D01*
X142558402Y-102446970D01*
X142561505Y-102451401D01*
X142728599Y-102618495D01*
X142733032Y-102621599D01*
X142733038Y-102621604D01*
X142914158Y-102748425D01*
X142953024Y-102792743D01*
X142967035Y-102850000D01*
X142953024Y-102907257D01*
X142914158Y-102951575D01*
X142728599Y-103081505D01*
X142724775Y-103085328D01*
X142724769Y-103085334D01*
X142565334Y-103244769D01*
X142565328Y-103244775D01*
X142561505Y-103248599D01*
X142558402Y-103253029D01*
X142558399Y-103253034D01*
X142429073Y-103437731D01*
X142429068Y-103437738D01*
X142425965Y-103442171D01*
X142423677Y-103447077D01*
X142423675Y-103447081D01*
X142328386Y-103651427D01*
X142328383Y-103651432D01*
X142326097Y-103656337D01*
X142324698Y-103661557D01*
X142324694Y-103661569D01*
X142266337Y-103879365D01*
X142266335Y-103879371D01*
X142264937Y-103884592D01*
X142264465Y-103889977D01*
X142264465Y-103889982D01*
X142246090Y-104100008D01*
X142244341Y-104120000D01*
X141528500Y-104120000D01*
X141528500Y-89524500D01*
X141545113Y-89462500D01*
X141590500Y-89417113D01*
X141652500Y-89400500D01*
X149184745Y-89400500D01*
X149246119Y-89416754D01*
G37*
%TD.AperFunction*%
%TD*%
M02*
