%TF.GenerationSoftware,KiCad,Pcbnew,(7.0.0)*%
%TF.CreationDate,2023-03-05T13:57:18+01:00*%
%TF.ProjectId,breakout-board-display-brain,62726561-6b6f-4757-942d-626f6172642d,v1*%
%TF.SameCoordinates,Original*%
%TF.FileFunction,Copper,L2,Bot*%
%TF.FilePolarity,Positive*%
%FSLAX46Y46*%
G04 Gerber Fmt 4.6, Leading zero omitted, Abs format (unit mm)*
G04 Created by KiCad (PCBNEW (7.0.0)) date 2023-03-05 13:57:18*
%MOMM*%
%LPD*%
G01*
G04 APERTURE LIST*
%TA.AperFunction,ComponentPad*%
%ADD10R,1.700000X1.700000*%
%TD*%
%TA.AperFunction,ComponentPad*%
%ADD11O,1.700000X1.700000*%
%TD*%
%TA.AperFunction,ComponentPad*%
%ADD12R,2.000000X2.000000*%
%TD*%
%TA.AperFunction,ComponentPad*%
%ADD13C,2.000000*%
%TD*%
%TA.AperFunction,ComponentPad*%
%ADD14R,3.200000X2.000000*%
%TD*%
%TA.AperFunction,Conductor*%
%ADD15C,0.500000*%
%TD*%
G04 APERTURE END LIST*
D10*
%TO.P,J1,1,Pin_1*%
%TO.N,/3V3*%
X129099999Y-77709999D03*
D11*
%TO.P,J1,2,Pin_2*%
%TO.N,/EN*%
X129099999Y-80249999D03*
%TO.P,J1,3,Pin_3*%
%TO.N,/SENSOR_VP*%
X129099999Y-82789999D03*
%TO.P,J1,4,Pin_4*%
%TO.N,/SENSOR_VN*%
X129099999Y-85329999D03*
%TO.P,J1,5,Pin_5*%
%TO.N,/IO34*%
X129099999Y-87869999D03*
%TO.P,J1,6,Pin_6*%
%TO.N,/IO35*%
X129099999Y-90409999D03*
%TO.P,J1,7,Pin_7*%
%TO.N,/IO32*%
X129099999Y-92949999D03*
%TO.P,J1,8,Pin_8*%
%TO.N,/IO33*%
X129099999Y-95489999D03*
%TO.P,J1,9,Pin_9*%
%TO.N,/IO25*%
X129099999Y-98029999D03*
%TO.P,J1,10,Pin_10*%
%TO.N,/IO26*%
X129099999Y-100569999D03*
%TO.P,J1,11,Pin_11*%
%TO.N,/IO27*%
X129099999Y-103109999D03*
%TO.P,J1,12,Pin_12*%
%TO.N,/IO14*%
X129099999Y-105649999D03*
%TO.P,J1,13,Pin_13*%
%TO.N,/IO12*%
X129099999Y-108189999D03*
%TO.P,J1,14,Pin_14*%
%TO.N,GND*%
X129099999Y-110729999D03*
%TO.P,J1,15,Pin_15*%
%TO.N,/IO13*%
X129099999Y-113269999D03*
%TO.P,J1,16,Pin_16*%
%TO.N,/SD2*%
X129099999Y-115809999D03*
%TO.P,J1,17,Pin_17*%
%TO.N,/SD3*%
X129099999Y-118349999D03*
%TO.P,J1,18,Pin_18*%
%TO.N,/CMD*%
X129099999Y-120889999D03*
%TO.P,J1,19,Pin_19*%
%TO.N,+5V*%
X129099999Y-123429999D03*
%TD*%
D10*
%TO.P,J4,1,Pin_1*%
%TO.N,GND*%
X170599999Y-101569999D03*
D11*
%TO.P,J4,2,Pin_2*%
%TO.N,+5V*%
X170599999Y-104109999D03*
%TO.P,J4,3,Pin_3*%
%TO.N,/IO21_SDA*%
X170599999Y-106649999D03*
%TO.P,J4,4,Pin_4*%
%TO.N,/IO22_SCL*%
X170599999Y-109189999D03*
%TD*%
D10*
%TO.P,J3,1,Pin_1*%
%TO.N,+5V*%
X170574999Y-117319999D03*
D11*
%TO.P,J3,2,Pin_2*%
%TO.N,GND*%
X170574999Y-114779999D03*
%TD*%
D10*
%TO.P,J2,1,Pin_1*%
%TO.N,/CLK*%
X154499999Y-77679999D03*
D11*
%TO.P,J2,2,Pin_2*%
%TO.N,/SD0*%
X154499999Y-80219999D03*
%TO.P,J2,3,Pin_3*%
%TO.N,/SD1*%
X154499999Y-82759999D03*
%TO.P,J2,4,Pin_4*%
%TO.N,/IO15*%
X154499999Y-85299999D03*
%TO.P,J2,5,Pin_5*%
%TO.N,/IO2*%
X154499999Y-87839999D03*
%TO.P,J2,6,Pin_6*%
%TO.N,/IO0*%
X154499999Y-90379999D03*
%TO.P,J2,7,Pin_7*%
%TO.N,/IO4*%
X154499999Y-92919999D03*
%TO.P,J2,8,Pin_8*%
%TO.N,/IO16*%
X154499999Y-95459999D03*
%TO.P,J2,9,Pin_9*%
%TO.N,/IO17*%
X154499999Y-97999999D03*
%TO.P,J2,10,Pin_10*%
%TO.N,/IO5_SS*%
X154499999Y-100539999D03*
%TO.P,J2,11,Pin_11*%
%TO.N,/IO18_SCK*%
X154499999Y-103079999D03*
%TO.P,J2,12,Pin_12*%
%TO.N,/IO19_MISO*%
X154499999Y-105619999D03*
%TO.P,J2,13,Pin_13*%
%TO.N,GND*%
X154499999Y-108159999D03*
%TO.P,J2,14,Pin_14*%
%TO.N,/IO21_SDA*%
X154499999Y-110699999D03*
%TO.P,J2,15,Pin_15*%
%TO.N,/RXD0*%
X154499999Y-113239999D03*
%TO.P,J2,16,Pin_16*%
%TO.N,/TXD0*%
X154499999Y-115779999D03*
%TO.P,J2,17,Pin_17*%
%TO.N,/IO22_SCL*%
X154499999Y-118319999D03*
%TO.P,J2,18,Pin_18*%
%TO.N,/IO23_MOSI*%
X154499999Y-120859999D03*
%TO.P,J2,19,Pin_19*%
%TO.N,GND*%
X154499999Y-123399999D03*
%TD*%
D12*
%TO.P,SW1,A,A*%
%TO.N,/IO2*%
X163849999Y-82149999D03*
D13*
%TO.P,SW1,B,B*%
%TO.N,/IO0*%
X163850000Y-87150000D03*
%TO.P,SW1,C,C*%
%TO.N,GND*%
X163850000Y-84650000D03*
D14*
%TO.P,SW1,MP*%
%TO.N,N/C*%
X171349999Y-79049999D03*
X171349999Y-90249999D03*
D13*
%TO.P,SW1,S1,S1*%
%TO.N,/IO4*%
X178350000Y-87150000D03*
%TO.P,SW1,S2,S2*%
%TO.N,GND*%
X178350000Y-82150000D03*
%TD*%
D15*
%TO.N,+5V*%
X172140000Y-104110000D02*
X170600000Y-104110000D01*
X173100000Y-105070000D02*
X172140000Y-104110000D01*
X170575000Y-117320000D02*
X171850000Y-117320000D01*
X165430000Y-117320000D02*
X157100000Y-125650000D01*
X171850000Y-117320000D02*
X173100000Y-116070000D01*
X131320000Y-125650000D02*
X129100000Y-123430000D01*
X157100000Y-125650000D02*
X131320000Y-125650000D01*
X170575000Y-117320000D02*
X165430000Y-117320000D01*
X173100000Y-116070000D02*
X173100000Y-105070000D01*
%TO.N,/IO2*%
X160190000Y-82150000D02*
X154500000Y-87840000D01*
X163850000Y-82150000D02*
X160190000Y-82150000D01*
%TO.N,/IO0*%
X163850000Y-87150000D02*
X158600000Y-87150000D01*
X155370000Y-90380000D02*
X154500000Y-90380000D01*
X158600000Y-87150000D02*
X155370000Y-90380000D01*
%TO.N,/IO4*%
X162830000Y-92920000D02*
X154500000Y-92920000D01*
X178350000Y-87150000D02*
X168600000Y-87150000D01*
X168600000Y-87150000D02*
X162830000Y-92920000D01*
%TO.N,/IO21_SDA*%
X158550000Y-106650000D02*
X154500000Y-110700000D01*
X170600000Y-106650000D02*
X158550000Y-106650000D01*
%TO.N,/IO22_SCL*%
X170600000Y-109190000D02*
X163630000Y-109190000D01*
X163630000Y-109190000D02*
X154500000Y-118320000D01*
%TD*%
%TA.AperFunction,Conductor*%
%TO.N,GND*%
G36*
X181537500Y-75667113D02*
G01*
X181582887Y-75712500D01*
X181599500Y-75774500D01*
X181599500Y-127025500D01*
X181582887Y-127087500D01*
X181537500Y-127132887D01*
X181475500Y-127149500D01*
X126724500Y-127149500D01*
X126662500Y-127132887D01*
X126617113Y-127087500D01*
X126600500Y-127025500D01*
X126600500Y-123430000D01*
X127736844Y-123430000D01*
X127737268Y-123435117D01*
X127755011Y-123649248D01*
X127755012Y-123649256D01*
X127755436Y-123654368D01*
X127756693Y-123659335D01*
X127756695Y-123659342D01*
X127765443Y-123693885D01*
X127810704Y-123872616D01*
X127812764Y-123877312D01*
X127899080Y-124074096D01*
X127899083Y-124074101D01*
X127901140Y-124078791D01*
X127960505Y-124169656D01*
X128021474Y-124262977D01*
X128021477Y-124262981D01*
X128024278Y-124267268D01*
X128027752Y-124271041D01*
X128027753Y-124271043D01*
X128173288Y-124429135D01*
X128173291Y-124429138D01*
X128176760Y-124432906D01*
X128227278Y-124472226D01*
X128350376Y-124568039D01*
X128350381Y-124568042D01*
X128354424Y-124571189D01*
X128358931Y-124573628D01*
X128358934Y-124573630D01*
X128547919Y-124675903D01*
X128552426Y-124678342D01*
X128765365Y-124751444D01*
X128987431Y-124788500D01*
X129207436Y-124788500D01*
X129212569Y-124788500D01*
X129298088Y-124774229D01*
X129356325Y-124778449D01*
X129406176Y-124808857D01*
X130738195Y-126140876D01*
X130749973Y-126154503D01*
X130764531Y-126174058D01*
X130770067Y-126178703D01*
X130802932Y-126206280D01*
X130810908Y-126213589D01*
X130814899Y-126217580D01*
X130839505Y-126237036D01*
X130842274Y-126239293D01*
X130900360Y-126288032D01*
X130906818Y-126291275D01*
X130909927Y-126293320D01*
X130910089Y-126293437D01*
X130910252Y-126293528D01*
X130913429Y-126295487D01*
X130919094Y-126299967D01*
X130987868Y-126332036D01*
X130991031Y-126333569D01*
X131052353Y-126364366D01*
X131052358Y-126364368D01*
X131058812Y-126367609D01*
X131065841Y-126369274D01*
X131069335Y-126370546D01*
X131069517Y-126370621D01*
X131069713Y-126370677D01*
X131073240Y-126371845D01*
X131079794Y-126374902D01*
X131154041Y-126390232D01*
X131157560Y-126391011D01*
X131231344Y-126408500D01*
X131238575Y-126408500D01*
X131242269Y-126408932D01*
X131242467Y-126408964D01*
X131242650Y-126408972D01*
X131246368Y-126409297D01*
X131253442Y-126410758D01*
X131329273Y-126408551D01*
X131332879Y-126408500D01*
X157035705Y-126408500D01*
X157053677Y-126409809D01*
X157077789Y-126413341D01*
X157127727Y-126408971D01*
X157138533Y-126408500D01*
X157140571Y-126408500D01*
X157144180Y-126408500D01*
X157175370Y-126404853D01*
X157178851Y-126404498D01*
X157254426Y-126397887D01*
X157261290Y-126395612D01*
X157264924Y-126394862D01*
X157265119Y-126394830D01*
X157265308Y-126394777D01*
X157268930Y-126393918D01*
X157276113Y-126393079D01*
X157347393Y-126367134D01*
X157350709Y-126365981D01*
X157422738Y-126342114D01*
X157428886Y-126338320D01*
X157432251Y-126336752D01*
X157432438Y-126336674D01*
X157432618Y-126336574D01*
X157435934Y-126334908D01*
X157442732Y-126332435D01*
X157506103Y-126290753D01*
X157509110Y-126288837D01*
X157573651Y-126249030D01*
X157578763Y-126243916D01*
X157581672Y-126241617D01*
X157581843Y-126241493D01*
X157581990Y-126241359D01*
X157584832Y-126238974D01*
X157590874Y-126235001D01*
X157642963Y-126179788D01*
X157645408Y-126177271D01*
X165707861Y-118114819D01*
X165748089Y-118087939D01*
X165795542Y-118078500D01*
X169092500Y-118078500D01*
X169154500Y-118095113D01*
X169199887Y-118140500D01*
X169216500Y-118202500D01*
X169216500Y-118218638D01*
X169223011Y-118279201D01*
X169225717Y-118286458D01*
X169225719Y-118286463D01*
X169251326Y-118355117D01*
X169274111Y-118416204D01*
X169361739Y-118533261D01*
X169478796Y-118620889D01*
X169615799Y-118671989D01*
X169676362Y-118678500D01*
X171470328Y-118678500D01*
X171473638Y-118678500D01*
X171534201Y-118671989D01*
X171671204Y-118620889D01*
X171788261Y-118533261D01*
X171875889Y-118416204D01*
X171926989Y-118279201D01*
X171933500Y-118218638D01*
X171933500Y-118182214D01*
X171945631Y-118128723D01*
X171979650Y-118085698D01*
X172025696Y-118063127D01*
X172026113Y-118063079D01*
X172097393Y-118037134D01*
X172100709Y-118035981D01*
X172172738Y-118012114D01*
X172178886Y-118008320D01*
X172182251Y-118006752D01*
X172182438Y-118006674D01*
X172182618Y-118006574D01*
X172185934Y-118004908D01*
X172192732Y-118002435D01*
X172256103Y-117960753D01*
X172259110Y-117958837D01*
X172323651Y-117919030D01*
X172328763Y-117913916D01*
X172331672Y-117911617D01*
X172331843Y-117911493D01*
X172331990Y-117911359D01*
X172334832Y-117908974D01*
X172340874Y-117905001D01*
X172392963Y-117849788D01*
X172395408Y-117847271D01*
X173590880Y-116651799D01*
X173604506Y-116640023D01*
X173624058Y-116625469D01*
X173656278Y-116587068D01*
X173663594Y-116579087D01*
X173664209Y-116578471D01*
X173667581Y-116575100D01*
X173687047Y-116550479D01*
X173689295Y-116547721D01*
X173738032Y-116489640D01*
X173741277Y-116483177D01*
X173743315Y-116480079D01*
X173743435Y-116479912D01*
X173743531Y-116479741D01*
X173745484Y-116476573D01*
X173749967Y-116470905D01*
X173782034Y-116402135D01*
X173783549Y-116399004D01*
X173817609Y-116331188D01*
X173819275Y-116324154D01*
X173820541Y-116320677D01*
X173820622Y-116320480D01*
X173820677Y-116320288D01*
X173821845Y-116316760D01*
X173824903Y-116310206D01*
X173840244Y-116235905D01*
X173841021Y-116232401D01*
X173842227Y-116227312D01*
X173858500Y-116158656D01*
X173858500Y-116151434D01*
X173858932Y-116147740D01*
X173858964Y-116147540D01*
X173858972Y-116147362D01*
X173859298Y-116143631D01*
X173860759Y-116136558D01*
X173858552Y-116060707D01*
X173858500Y-116057101D01*
X173858500Y-105134295D01*
X173859809Y-105116323D01*
X173859853Y-105116016D01*
X173863341Y-105092211D01*
X173858971Y-105042272D01*
X173858500Y-105031467D01*
X173858500Y-105029429D01*
X173858500Y-105025820D01*
X173854862Y-104994700D01*
X173854495Y-104991109D01*
X173850990Y-104951043D01*
X173847887Y-104915574D01*
X173845614Y-104908714D01*
X173844860Y-104905062D01*
X173844830Y-104904875D01*
X173844778Y-104904692D01*
X173843917Y-104901062D01*
X173843079Y-104893887D01*
X173817127Y-104822587D01*
X173815952Y-104819203D01*
X173815229Y-104817022D01*
X173792114Y-104747262D01*
X173788322Y-104741115D01*
X173786750Y-104737743D01*
X173786673Y-104737558D01*
X173786580Y-104737391D01*
X173784905Y-104734056D01*
X173782435Y-104727268D01*
X173740754Y-104663896D01*
X173738815Y-104660852D01*
X173702822Y-104602497D01*
X173699030Y-104596349D01*
X173693919Y-104591238D01*
X173691615Y-104588324D01*
X173691496Y-104588159D01*
X173691374Y-104588026D01*
X173688970Y-104585162D01*
X173685001Y-104579126D01*
X173629825Y-104527070D01*
X173627238Y-104524557D01*
X172721804Y-103619123D01*
X172710021Y-103605489D01*
X172699779Y-103591732D01*
X172695469Y-103585942D01*
X172689936Y-103581300D01*
X172689935Y-103581298D01*
X172657060Y-103553712D01*
X172649085Y-103546404D01*
X172647653Y-103544972D01*
X172645101Y-103542420D01*
X172642278Y-103540187D01*
X172642267Y-103540178D01*
X172620512Y-103522976D01*
X172617719Y-103520701D01*
X172565172Y-103476610D01*
X172559640Y-103471968D01*
X172553186Y-103468726D01*
X172550061Y-103466671D01*
X172549914Y-103466564D01*
X172549744Y-103466470D01*
X172546573Y-103464514D01*
X172540906Y-103460033D01*
X172534361Y-103456980D01*
X172534353Y-103456976D01*
X172472160Y-103427974D01*
X172468917Y-103426404D01*
X172407645Y-103395633D01*
X172407639Y-103395631D01*
X172401188Y-103392391D01*
X172394161Y-103390725D01*
X172390662Y-103389452D01*
X172390476Y-103389375D01*
X172390307Y-103389327D01*
X172386748Y-103388147D01*
X172380206Y-103385097D01*
X172305921Y-103369758D01*
X172302406Y-103368979D01*
X172235676Y-103353163D01*
X172235669Y-103353162D01*
X172228656Y-103351500D01*
X172221444Y-103351500D01*
X172217739Y-103351067D01*
X172217546Y-103351036D01*
X172217362Y-103351028D01*
X172213629Y-103350701D01*
X172206558Y-103349241D01*
X172199349Y-103349450D01*
X172199341Y-103349450D01*
X172130707Y-103351448D01*
X172127101Y-103351500D01*
X171794289Y-103351500D01*
X171735272Y-103336555D01*
X171690481Y-103295322D01*
X171678528Y-103277027D01*
X171675722Y-103272732D01*
X171524292Y-103108237D01*
X171495519Y-103055485D01*
X171494926Y-102995399D01*
X171522653Y-102942088D01*
X171572189Y-102908073D01*
X171683777Y-102866452D01*
X171699189Y-102858037D01*
X171800092Y-102782501D01*
X171812501Y-102770092D01*
X171888037Y-102669189D01*
X171896452Y-102653777D01*
X171940888Y-102534641D01*
X171944426Y-102519667D01*
X171949646Y-102471114D01*
X171950000Y-102464518D01*
X171950000Y-101836326D01*
X171946549Y-101823450D01*
X171933674Y-101820000D01*
X169266326Y-101820000D01*
X169253450Y-101823450D01*
X169250000Y-101836326D01*
X169250000Y-102464518D01*
X169250353Y-102471114D01*
X169255573Y-102519667D01*
X169259111Y-102534641D01*
X169303547Y-102653777D01*
X169311962Y-102669189D01*
X169387498Y-102770092D01*
X169399907Y-102782501D01*
X169500810Y-102858037D01*
X169516220Y-102866451D01*
X169627811Y-102908073D01*
X169677346Y-102942088D01*
X169705073Y-102995399D01*
X169704480Y-103055485D01*
X169675707Y-103108238D01*
X169527747Y-103268963D01*
X169527743Y-103268967D01*
X169524278Y-103272732D01*
X169521481Y-103277012D01*
X169521474Y-103277022D01*
X169423879Y-103426404D01*
X169401140Y-103461209D01*
X169399085Y-103465892D01*
X169399080Y-103465903D01*
X169331873Y-103619123D01*
X169310704Y-103667384D01*
X169309446Y-103672349D01*
X169309445Y-103672354D01*
X169256695Y-103880657D01*
X169256693Y-103880666D01*
X169255436Y-103885632D01*
X169255012Y-103890741D01*
X169255011Y-103890751D01*
X169237268Y-104104883D01*
X169236844Y-104110000D01*
X169237268Y-104115117D01*
X169255011Y-104329248D01*
X169255012Y-104329256D01*
X169255436Y-104334368D01*
X169256693Y-104339335D01*
X169256695Y-104339342D01*
X169294608Y-104489055D01*
X169310704Y-104552616D01*
X169326367Y-104588324D01*
X169399080Y-104754096D01*
X169399083Y-104754101D01*
X169401140Y-104758791D01*
X169439184Y-104817022D01*
X169521474Y-104942977D01*
X169521477Y-104942981D01*
X169524278Y-104947268D01*
X169527752Y-104951041D01*
X169527753Y-104951043D01*
X169673288Y-105109135D01*
X169673291Y-105109138D01*
X169676760Y-105112906D01*
X169680801Y-105116051D01*
X169850376Y-105248039D01*
X169850381Y-105248042D01*
X169854424Y-105251189D01*
X169858931Y-105253628D01*
X169858934Y-105253630D01*
X169890930Y-105270945D01*
X169938436Y-105316526D01*
X169955913Y-105380000D01*
X169938436Y-105443474D01*
X169890930Y-105489055D01*
X169858934Y-105506369D01*
X169858922Y-105506376D01*
X169854424Y-105508811D01*
X169850389Y-105511951D01*
X169850376Y-105511960D01*
X169680801Y-105643948D01*
X169680795Y-105643952D01*
X169676760Y-105647094D01*
X169673297Y-105650855D01*
X169673288Y-105650864D01*
X169527754Y-105808955D01*
X169527748Y-105808962D01*
X169524278Y-105812732D01*
X169521476Y-105817019D01*
X169521471Y-105817027D01*
X169509519Y-105835322D01*
X169464728Y-105876555D01*
X169405711Y-105891500D01*
X158614296Y-105891500D01*
X158596325Y-105890191D01*
X158579360Y-105887706D01*
X158579358Y-105887705D01*
X158572211Y-105886659D01*
X158565019Y-105887288D01*
X158565013Y-105887288D01*
X158527121Y-105890603D01*
X158522272Y-105891028D01*
X158511467Y-105891500D01*
X158505820Y-105891500D01*
X158502258Y-105891916D01*
X158502246Y-105891917D01*
X158474682Y-105895139D01*
X158471096Y-105895505D01*
X158402768Y-105901483D01*
X158402763Y-105901483D01*
X158395574Y-105902113D01*
X158388721Y-105904382D01*
X158385035Y-105905144D01*
X158384866Y-105905171D01*
X158384708Y-105905216D01*
X158381050Y-105906083D01*
X158373887Y-105906921D01*
X158367108Y-105909388D01*
X158367109Y-105909388D01*
X158302651Y-105932848D01*
X158299249Y-105934030D01*
X158234114Y-105955614D01*
X158234103Y-105955618D01*
X158227262Y-105957886D01*
X158221126Y-105961670D01*
X158217721Y-105963258D01*
X158217554Y-105963326D01*
X158217402Y-105963412D01*
X158214044Y-105965098D01*
X158207268Y-105967565D01*
X158201244Y-105971526D01*
X158201234Y-105971532D01*
X158143900Y-106009241D01*
X158140860Y-106011178D01*
X158082495Y-106047178D01*
X158082488Y-106047183D01*
X158076349Y-106050970D01*
X158071248Y-106056070D01*
X158068304Y-106058398D01*
X158068157Y-106058504D01*
X158068035Y-106058616D01*
X158065152Y-106061034D01*
X158059126Y-106064999D01*
X158054176Y-106070245D01*
X158054173Y-106070248D01*
X158007053Y-106120191D01*
X158004541Y-106122776D01*
X156052212Y-108075104D01*
X155991369Y-108108484D01*
X155922120Y-108103945D01*
X155866155Y-108062909D01*
X155841003Y-107998229D01*
X155835041Y-107930078D01*
X155833166Y-107919446D01*
X155774831Y-107701736D01*
X155771143Y-107691602D01*
X155675889Y-107487332D01*
X155670491Y-107477982D01*
X155541215Y-107293357D01*
X155534280Y-107285092D01*
X155374909Y-107125721D01*
X155366635Y-107118778D01*
X155190198Y-106995234D01*
X155149734Y-106947735D01*
X155137526Y-106886543D01*
X155156666Y-106827153D01*
X155202304Y-106784606D01*
X155245576Y-106761189D01*
X155423240Y-106622906D01*
X155575722Y-106457268D01*
X155698860Y-106268791D01*
X155789296Y-106062616D01*
X155844564Y-105844368D01*
X155863156Y-105620000D01*
X155844564Y-105395632D01*
X155789296Y-105177384D01*
X155698860Y-104971209D01*
X155575722Y-104782732D01*
X155549382Y-104754119D01*
X155426711Y-104620864D01*
X155426708Y-104620861D01*
X155423240Y-104617094D01*
X155385894Y-104588026D01*
X155249623Y-104481960D01*
X155249615Y-104481955D01*
X155245576Y-104478811D01*
X155241066Y-104476370D01*
X155241061Y-104476367D01*
X155209070Y-104459055D01*
X155161564Y-104413474D01*
X155144086Y-104350000D01*
X155161564Y-104286526D01*
X155209070Y-104240945D01*
X155209109Y-104240923D01*
X155245576Y-104221189D01*
X155423240Y-104082906D01*
X155575722Y-103917268D01*
X155698860Y-103728791D01*
X155789296Y-103522616D01*
X155844564Y-103304368D01*
X155863156Y-103080000D01*
X155844564Y-102855632D01*
X155789296Y-102637384D01*
X155698860Y-102431209D01*
X155575722Y-102242732D01*
X155454328Y-102110864D01*
X155426711Y-102080864D01*
X155426708Y-102080861D01*
X155423240Y-102077094D01*
X155410597Y-102067253D01*
X155249623Y-101941960D01*
X155249615Y-101941955D01*
X155245576Y-101938811D01*
X155241066Y-101936370D01*
X155241061Y-101936367D01*
X155209070Y-101919055D01*
X155161564Y-101873474D01*
X155144086Y-101810000D01*
X155161564Y-101746526D01*
X155209070Y-101700945D01*
X155209109Y-101700923D01*
X155245576Y-101681189D01*
X155423240Y-101542906D01*
X155575722Y-101377268D01*
X155623803Y-101303674D01*
X169250000Y-101303674D01*
X169253450Y-101316549D01*
X169266326Y-101320000D01*
X170333674Y-101320000D01*
X170346549Y-101316549D01*
X170350000Y-101303674D01*
X170850000Y-101303674D01*
X170853450Y-101316549D01*
X170866326Y-101320000D01*
X171933674Y-101320000D01*
X171946549Y-101316549D01*
X171950000Y-101303674D01*
X171950000Y-100675482D01*
X171949646Y-100668885D01*
X171944426Y-100620332D01*
X171940888Y-100605358D01*
X171896452Y-100486222D01*
X171888037Y-100470810D01*
X171812501Y-100369907D01*
X171800092Y-100357498D01*
X171699189Y-100281962D01*
X171683777Y-100273547D01*
X171564641Y-100229111D01*
X171549667Y-100225573D01*
X171501114Y-100220353D01*
X171494518Y-100220000D01*
X170866326Y-100220000D01*
X170853450Y-100223450D01*
X170850000Y-100236326D01*
X170850000Y-101303674D01*
X170350000Y-101303674D01*
X170350000Y-100236326D01*
X170346549Y-100223450D01*
X170333674Y-100220000D01*
X169705482Y-100220000D01*
X169698885Y-100220353D01*
X169650332Y-100225573D01*
X169635358Y-100229111D01*
X169516222Y-100273547D01*
X169500810Y-100281962D01*
X169399907Y-100357498D01*
X169387498Y-100369907D01*
X169311962Y-100470810D01*
X169303547Y-100486222D01*
X169259111Y-100605358D01*
X169255573Y-100620332D01*
X169250353Y-100668885D01*
X169250000Y-100675482D01*
X169250000Y-101303674D01*
X155623803Y-101303674D01*
X155698860Y-101188791D01*
X155789296Y-100982616D01*
X155844564Y-100764368D01*
X155863156Y-100540000D01*
X155844564Y-100315632D01*
X155789296Y-100097384D01*
X155698860Y-99891209D01*
X155575722Y-99702732D01*
X155454328Y-99570864D01*
X155426711Y-99540864D01*
X155426708Y-99540861D01*
X155423240Y-99537094D01*
X155410597Y-99527253D01*
X155249623Y-99401960D01*
X155249615Y-99401955D01*
X155245576Y-99398811D01*
X155241069Y-99396372D01*
X155241060Y-99396366D01*
X155209068Y-99379053D01*
X155161562Y-99333471D01*
X155144086Y-99269996D01*
X155161565Y-99206522D01*
X155209067Y-99160946D01*
X155245576Y-99141189D01*
X155423240Y-99002906D01*
X155575722Y-98837268D01*
X155698860Y-98648791D01*
X155789296Y-98442616D01*
X155844564Y-98224368D01*
X155863156Y-98000000D01*
X155844564Y-97775632D01*
X155789296Y-97557384D01*
X155698860Y-97351209D01*
X155575722Y-97162732D01*
X155454328Y-97030864D01*
X155426711Y-97000864D01*
X155426708Y-97000861D01*
X155423240Y-96997094D01*
X155410597Y-96987253D01*
X155249623Y-96861960D01*
X155249615Y-96861955D01*
X155245576Y-96858811D01*
X155241064Y-96856369D01*
X155241061Y-96856367D01*
X155209070Y-96839055D01*
X155161564Y-96793474D01*
X155144086Y-96730000D01*
X155161564Y-96666526D01*
X155209070Y-96620945D01*
X155209109Y-96620923D01*
X155245576Y-96601189D01*
X155423240Y-96462906D01*
X155575722Y-96297268D01*
X155698860Y-96108791D01*
X155789296Y-95902616D01*
X155844564Y-95684368D01*
X155863156Y-95460000D01*
X155844564Y-95235632D01*
X155789296Y-95017384D01*
X155698860Y-94811209D01*
X155575722Y-94622732D01*
X155454328Y-94490864D01*
X155426711Y-94460864D01*
X155426708Y-94460861D01*
X155423240Y-94457094D01*
X155410597Y-94447253D01*
X155249623Y-94321960D01*
X155249615Y-94321955D01*
X155245576Y-94318811D01*
X155241064Y-94316369D01*
X155241061Y-94316367D01*
X155209070Y-94299055D01*
X155161564Y-94253474D01*
X155144086Y-94190000D01*
X155161564Y-94126526D01*
X155209070Y-94080945D01*
X155209109Y-94080923D01*
X155245576Y-94061189D01*
X155423240Y-93922906D01*
X155575722Y-93757268D01*
X155590480Y-93734678D01*
X155635272Y-93693445D01*
X155694289Y-93678500D01*
X162765705Y-93678500D01*
X162783677Y-93679809D01*
X162807789Y-93683341D01*
X162857727Y-93678971D01*
X162868533Y-93678500D01*
X162870571Y-93678500D01*
X162874180Y-93678500D01*
X162905370Y-93674853D01*
X162908851Y-93674498D01*
X162984426Y-93667887D01*
X162991290Y-93665612D01*
X162994924Y-93664862D01*
X162995119Y-93664830D01*
X162995308Y-93664777D01*
X162998930Y-93663918D01*
X163006113Y-93663079D01*
X163077393Y-93637134D01*
X163080709Y-93635981D01*
X163152738Y-93612114D01*
X163158886Y-93608320D01*
X163162251Y-93606752D01*
X163162438Y-93606674D01*
X163162618Y-93606574D01*
X163165934Y-93604908D01*
X163172732Y-93602435D01*
X163236103Y-93560753D01*
X163239110Y-93558837D01*
X163303651Y-93519030D01*
X163308763Y-93513916D01*
X163311672Y-93511617D01*
X163311843Y-93511493D01*
X163311990Y-93511359D01*
X163314832Y-93508974D01*
X163320874Y-93505001D01*
X163372963Y-93449788D01*
X163375408Y-93447271D01*
X165524041Y-91298638D01*
X169241500Y-91298638D01*
X169248011Y-91359201D01*
X169250717Y-91366458D01*
X169250719Y-91366463D01*
X169268042Y-91412906D01*
X169299111Y-91496204D01*
X169304425Y-91503303D01*
X169304426Y-91503304D01*
X169355061Y-91570945D01*
X169386739Y-91613261D01*
X169503796Y-91700889D01*
X169640799Y-91751989D01*
X169701362Y-91758500D01*
X172995328Y-91758500D01*
X172998638Y-91758500D01*
X173059201Y-91751989D01*
X173196204Y-91700889D01*
X173313261Y-91613261D01*
X173400889Y-91496204D01*
X173451989Y-91359201D01*
X173458500Y-91298638D01*
X173458500Y-89201362D01*
X173451989Y-89140799D01*
X173400889Y-89003796D01*
X173313261Y-88886739D01*
X173294782Y-88872906D01*
X173203304Y-88804426D01*
X173203303Y-88804425D01*
X173196204Y-88799111D01*
X173187896Y-88796012D01*
X173187894Y-88796011D01*
X173066463Y-88750719D01*
X173066458Y-88750717D01*
X173059201Y-88748011D01*
X173051497Y-88747182D01*
X173051494Y-88747182D01*
X173001924Y-88741853D01*
X173001918Y-88741852D01*
X172998638Y-88741500D01*
X169701362Y-88741500D01*
X169698082Y-88741852D01*
X169698075Y-88741853D01*
X169648505Y-88747182D01*
X169648500Y-88747182D01*
X169640799Y-88748011D01*
X169633543Y-88750717D01*
X169633536Y-88750719D01*
X169512105Y-88796011D01*
X169512099Y-88796013D01*
X169503796Y-88799111D01*
X169496698Y-88804423D01*
X169496695Y-88804426D01*
X169393835Y-88881426D01*
X169393831Y-88881429D01*
X169386739Y-88886739D01*
X169381429Y-88893831D01*
X169381426Y-88893835D01*
X169304426Y-88996695D01*
X169304423Y-88996698D01*
X169299111Y-89003796D01*
X169296013Y-89012099D01*
X169296011Y-89012105D01*
X169250719Y-89133536D01*
X169250717Y-89133543D01*
X169248011Y-89140799D01*
X169247182Y-89148500D01*
X169247182Y-89148505D01*
X169244498Y-89173474D01*
X169241500Y-89201362D01*
X169241500Y-91298638D01*
X165524041Y-91298638D01*
X168877861Y-87944819D01*
X168918090Y-87917939D01*
X168965543Y-87908500D01*
X176976155Y-87908500D01*
X177036744Y-87924310D01*
X177081882Y-87967710D01*
X177125824Y-88039416D01*
X177128984Y-88043115D01*
X177128987Y-88043120D01*
X177276870Y-88216268D01*
X177280031Y-88219969D01*
X177283731Y-88223129D01*
X177388506Y-88312616D01*
X177460584Y-88374176D01*
X177464734Y-88376719D01*
X177464738Y-88376722D01*
X177530796Y-88417202D01*
X177663037Y-88498240D01*
X177667536Y-88500103D01*
X177667539Y-88500105D01*
X177723004Y-88523079D01*
X177882406Y-88589105D01*
X178113289Y-88644535D01*
X178350000Y-88663165D01*
X178586711Y-88644535D01*
X178817594Y-88589105D01*
X179036963Y-88498240D01*
X179239416Y-88374176D01*
X179419969Y-88219969D01*
X179574176Y-88039416D01*
X179698240Y-87836963D01*
X179789105Y-87617594D01*
X179844535Y-87386711D01*
X179863165Y-87150000D01*
X179844535Y-86913289D01*
X179789105Y-86682406D01*
X179737830Y-86558616D01*
X179700105Y-86467539D01*
X179700103Y-86467536D01*
X179698240Y-86463037D01*
X179616184Y-86329135D01*
X179576722Y-86264738D01*
X179576719Y-86264734D01*
X179574176Y-86260584D01*
X179419969Y-86080031D01*
X179306453Y-85983079D01*
X179243120Y-85928987D01*
X179243115Y-85928984D01*
X179239416Y-85925824D01*
X179235268Y-85923282D01*
X179235261Y-85923277D01*
X179107175Y-85844786D01*
X179036963Y-85801760D01*
X179032468Y-85799898D01*
X179032460Y-85799894D01*
X178822093Y-85712758D01*
X178822087Y-85712756D01*
X178817594Y-85710895D01*
X178812865Y-85709759D01*
X178812860Y-85709758D01*
X178591444Y-85656601D01*
X178591440Y-85656600D01*
X178586711Y-85655465D01*
X178581858Y-85655083D01*
X178354854Y-85637217D01*
X178350000Y-85636835D01*
X178345146Y-85637217D01*
X178118141Y-85655083D01*
X178118139Y-85655083D01*
X178113289Y-85655465D01*
X178108561Y-85656599D01*
X178108555Y-85656601D01*
X177887139Y-85709758D01*
X177887130Y-85709760D01*
X177882406Y-85710895D01*
X177877916Y-85712754D01*
X177877906Y-85712758D01*
X177667539Y-85799894D01*
X177667526Y-85799900D01*
X177663037Y-85801760D01*
X177658883Y-85804305D01*
X177658882Y-85804306D01*
X177464738Y-85923277D01*
X177464725Y-85923286D01*
X177460584Y-85925824D01*
X177456889Y-85928979D01*
X177456879Y-85928987D01*
X177283731Y-86076870D01*
X177283724Y-86076876D01*
X177280031Y-86080031D01*
X177276876Y-86083724D01*
X177276870Y-86083731D01*
X177128987Y-86256879D01*
X177128979Y-86256889D01*
X177125824Y-86260584D01*
X177123282Y-86264732D01*
X177123277Y-86264739D01*
X177081882Y-86332290D01*
X177036744Y-86375690D01*
X176976155Y-86391500D01*
X168664295Y-86391500D01*
X168646323Y-86390191D01*
X168642935Y-86389694D01*
X168622211Y-86386659D01*
X168615019Y-86387288D01*
X168615013Y-86387288D01*
X168577121Y-86390603D01*
X168572272Y-86391028D01*
X168561467Y-86391500D01*
X168555820Y-86391500D01*
X168552261Y-86391915D01*
X168552243Y-86391917D01*
X168524678Y-86395139D01*
X168521094Y-86395505D01*
X168452762Y-86401483D01*
X168452753Y-86401484D01*
X168445573Y-86402113D01*
X168438728Y-86404380D01*
X168435043Y-86405142D01*
X168434870Y-86405170D01*
X168434686Y-86405222D01*
X168431050Y-86406083D01*
X168423887Y-86406921D01*
X168417109Y-86409387D01*
X168417108Y-86409388D01*
X168352661Y-86432844D01*
X168349259Y-86434026D01*
X168284117Y-86455613D01*
X168284109Y-86455616D01*
X168277261Y-86457886D01*
X168271121Y-86461672D01*
X168267726Y-86463256D01*
X168267557Y-86463325D01*
X168267396Y-86463416D01*
X168264050Y-86465096D01*
X168257268Y-86467565D01*
X168251237Y-86471531D01*
X168251234Y-86471533D01*
X168248046Y-86473630D01*
X168198034Y-86506523D01*
X168193924Y-86509226D01*
X168190909Y-86511147D01*
X168162479Y-86528683D01*
X168132486Y-86547184D01*
X168132482Y-86547186D01*
X168126349Y-86550970D01*
X168121252Y-86556066D01*
X168118303Y-86558398D01*
X168118160Y-86558500D01*
X168118035Y-86558616D01*
X168115152Y-86561034D01*
X168109126Y-86564999D01*
X168104176Y-86570245D01*
X168104173Y-86570248D01*
X168057053Y-86620191D01*
X168054541Y-86622776D01*
X162552138Y-92125181D01*
X162511910Y-92152061D01*
X162464457Y-92161500D01*
X155694289Y-92161500D01*
X155635272Y-92146555D01*
X155590481Y-92105322D01*
X155578528Y-92087027D01*
X155575722Y-92082732D01*
X155454328Y-91950864D01*
X155426711Y-91920864D01*
X155426708Y-91920861D01*
X155423240Y-91917094D01*
X155410597Y-91907253D01*
X155249623Y-91781960D01*
X155249615Y-91781955D01*
X155245576Y-91778811D01*
X155241066Y-91776370D01*
X155241061Y-91776367D01*
X155209070Y-91759055D01*
X155161564Y-91713474D01*
X155144086Y-91650000D01*
X155161564Y-91586526D01*
X155209070Y-91540945D01*
X155209109Y-91540923D01*
X155245576Y-91521189D01*
X155423240Y-91382906D01*
X155575722Y-91217268D01*
X155642359Y-91115270D01*
X155691775Y-91072432D01*
X155692738Y-91072114D01*
X155698887Y-91068320D01*
X155702253Y-91066751D01*
X155702439Y-91066673D01*
X155702618Y-91066574D01*
X155705934Y-91064908D01*
X155712732Y-91062435D01*
X155776103Y-91020753D01*
X155779110Y-91018837D01*
X155843651Y-90979030D01*
X155848763Y-90973916D01*
X155851672Y-90971617D01*
X155851843Y-90971493D01*
X155851990Y-90971359D01*
X155854832Y-90968974D01*
X155860874Y-90965001D01*
X155912963Y-90909788D01*
X155915407Y-90907272D01*
X158877861Y-87944819D01*
X158918090Y-87917939D01*
X158965543Y-87908500D01*
X162476155Y-87908500D01*
X162536744Y-87924310D01*
X162581882Y-87967710D01*
X162625824Y-88039416D01*
X162628984Y-88043115D01*
X162628987Y-88043120D01*
X162776870Y-88216268D01*
X162780031Y-88219969D01*
X162783731Y-88223129D01*
X162888506Y-88312616D01*
X162960584Y-88374176D01*
X162964734Y-88376719D01*
X162964738Y-88376722D01*
X163030796Y-88417202D01*
X163163037Y-88498240D01*
X163167536Y-88500103D01*
X163167539Y-88500105D01*
X163223004Y-88523079D01*
X163382406Y-88589105D01*
X163613289Y-88644535D01*
X163850000Y-88663165D01*
X164086711Y-88644535D01*
X164317594Y-88589105D01*
X164536963Y-88498240D01*
X164739416Y-88374176D01*
X164919969Y-88219969D01*
X165074176Y-88039416D01*
X165198240Y-87836963D01*
X165289105Y-87617594D01*
X165344535Y-87386711D01*
X165363165Y-87150000D01*
X165344535Y-86913289D01*
X165289105Y-86682406D01*
X165237830Y-86558616D01*
X165200105Y-86467539D01*
X165200103Y-86467536D01*
X165198240Y-86463037D01*
X165116184Y-86329135D01*
X165076722Y-86264738D01*
X165076719Y-86264734D01*
X165074176Y-86260584D01*
X164919969Y-86080031D01*
X164806453Y-85983079D01*
X164760343Y-85943697D01*
X164732765Y-85906066D01*
X164732411Y-85906262D01*
X164730912Y-85903537D01*
X164726709Y-85897802D01*
X164726235Y-85895037D01*
X164707590Y-85861143D01*
X163861542Y-85015095D01*
X163850000Y-85008431D01*
X163838457Y-85015095D01*
X162992408Y-85861143D01*
X162973755Y-85895051D01*
X162973280Y-85897824D01*
X162969070Y-85903566D01*
X162967588Y-85906262D01*
X162967236Y-85906068D01*
X162939655Y-85943698D01*
X162783731Y-86076870D01*
X162783724Y-86076876D01*
X162780031Y-86080031D01*
X162776876Y-86083724D01*
X162776870Y-86083731D01*
X162628987Y-86256879D01*
X162628979Y-86256889D01*
X162625824Y-86260584D01*
X162623282Y-86264732D01*
X162623277Y-86264739D01*
X162581882Y-86332290D01*
X162536744Y-86375690D01*
X162476155Y-86391500D01*
X158664296Y-86391500D01*
X158646325Y-86390191D01*
X158629360Y-86387706D01*
X158629358Y-86387705D01*
X158622211Y-86386659D01*
X158615019Y-86387288D01*
X158615013Y-86387288D01*
X158577121Y-86390603D01*
X158572272Y-86391028D01*
X158561467Y-86391500D01*
X158555820Y-86391500D01*
X158552258Y-86391916D01*
X158552246Y-86391917D01*
X158524682Y-86395139D01*
X158521096Y-86395505D01*
X158452768Y-86401483D01*
X158452763Y-86401483D01*
X158445574Y-86402113D01*
X158438721Y-86404382D01*
X158435035Y-86405144D01*
X158434866Y-86405171D01*
X158434708Y-86405216D01*
X158431050Y-86406083D01*
X158423887Y-86406921D01*
X158417108Y-86409388D01*
X158417109Y-86409388D01*
X158352651Y-86432848D01*
X158349249Y-86434030D01*
X158284114Y-86455614D01*
X158284103Y-86455618D01*
X158277262Y-86457886D01*
X158271126Y-86461670D01*
X158267721Y-86463258D01*
X158267554Y-86463326D01*
X158267402Y-86463412D01*
X158264044Y-86465098D01*
X158257268Y-86467565D01*
X158251244Y-86471526D01*
X158251234Y-86471532D01*
X158193900Y-86509241D01*
X158190860Y-86511178D01*
X158132495Y-86547178D01*
X158132488Y-86547183D01*
X158126349Y-86550970D01*
X158121248Y-86556070D01*
X158118304Y-86558398D01*
X158118157Y-86558504D01*
X158118035Y-86558616D01*
X158115152Y-86561034D01*
X158109126Y-86564999D01*
X158104176Y-86570245D01*
X158104173Y-86570248D01*
X158057053Y-86620191D01*
X158054541Y-86622776D01*
X155431496Y-89245821D01*
X155380831Y-89276486D01*
X155321723Y-89280156D01*
X155267654Y-89255994D01*
X155249628Y-89241964D01*
X155249621Y-89241959D01*
X155245576Y-89238811D01*
X155241066Y-89236370D01*
X155241061Y-89236367D01*
X155209070Y-89219055D01*
X155161564Y-89173474D01*
X155144086Y-89110000D01*
X155161564Y-89046526D01*
X155209070Y-89000945D01*
X155216923Y-88996695D01*
X155245576Y-88981189D01*
X155423240Y-88842906D01*
X155575722Y-88677268D01*
X155698860Y-88488791D01*
X155789296Y-88282616D01*
X155844564Y-88064368D01*
X155863156Y-87840000D01*
X155845674Y-87629029D01*
X155852826Y-87576113D01*
X155881567Y-87531112D01*
X160467861Y-82944819D01*
X160508090Y-82917939D01*
X160555543Y-82908500D01*
X162217500Y-82908500D01*
X162279500Y-82925113D01*
X162324887Y-82970500D01*
X162341500Y-83032500D01*
X162341500Y-83198638D01*
X162341852Y-83201918D01*
X162341853Y-83201924D01*
X162345657Y-83237312D01*
X162348011Y-83259201D01*
X162350717Y-83266458D01*
X162350719Y-83266463D01*
X162396011Y-83387894D01*
X162399111Y-83396204D01*
X162486739Y-83513261D01*
X162493835Y-83518573D01*
X162603796Y-83600889D01*
X162601796Y-83603559D01*
X162637903Y-83638893D01*
X162654319Y-83704202D01*
X162634179Y-83768460D01*
X162529073Y-83929338D01*
X162524207Y-83938328D01*
X162428472Y-84156585D01*
X162425153Y-84166252D01*
X162366646Y-84397287D01*
X162364962Y-84407381D01*
X162345283Y-84644883D01*
X162345283Y-84655117D01*
X162364962Y-84892618D01*
X162366646Y-84902712D01*
X162425153Y-85133747D01*
X162428472Y-85143414D01*
X162524208Y-85361673D01*
X162529070Y-85370656D01*
X162618999Y-85508304D01*
X162626963Y-85516024D01*
X162636345Y-85510100D01*
X163762318Y-84384127D01*
X163817905Y-84352033D01*
X163882093Y-84352033D01*
X163937680Y-84384127D01*
X165063653Y-85510100D01*
X165073034Y-85516024D01*
X165081002Y-85508299D01*
X165170924Y-85370664D01*
X165175792Y-85361669D01*
X165271527Y-85143414D01*
X165274846Y-85133747D01*
X165333353Y-84902712D01*
X165335037Y-84892618D01*
X165354717Y-84655117D01*
X165354717Y-84644883D01*
X165335037Y-84407381D01*
X165333353Y-84397287D01*
X165274846Y-84166252D01*
X165271527Y-84156585D01*
X165175792Y-83938328D01*
X165170927Y-83929338D01*
X165065820Y-83768460D01*
X165045680Y-83704182D01*
X165062115Y-83638859D01*
X165098208Y-83603566D01*
X165096204Y-83600889D01*
X165106773Y-83592977D01*
X165213261Y-83513261D01*
X165300889Y-83396204D01*
X165309451Y-83373248D01*
X177485749Y-83373248D01*
X177493855Y-83384439D01*
X177522717Y-83406903D01*
X177531279Y-83412496D01*
X177740885Y-83525929D01*
X177750239Y-83530032D01*
X177975656Y-83607417D01*
X177985568Y-83609928D01*
X178220643Y-83649155D01*
X178230839Y-83650000D01*
X178469161Y-83650000D01*
X178479356Y-83649155D01*
X178714431Y-83609928D01*
X178724343Y-83607417D01*
X178949760Y-83530032D01*
X178959114Y-83525929D01*
X179168723Y-83412495D01*
X179177281Y-83406903D01*
X179206146Y-83384437D01*
X179214250Y-83373250D01*
X179207589Y-83361142D01*
X178361542Y-82515095D01*
X178350000Y-82508431D01*
X178338457Y-82515095D01*
X177492408Y-83361143D01*
X177485749Y-83373248D01*
X165309451Y-83373248D01*
X165351989Y-83259201D01*
X165358500Y-83198638D01*
X165358500Y-82155117D01*
X176845283Y-82155117D01*
X176864962Y-82392618D01*
X176866646Y-82402712D01*
X176925153Y-82633747D01*
X176928472Y-82643414D01*
X177024208Y-82861673D01*
X177029070Y-82870656D01*
X177118999Y-83008304D01*
X177126963Y-83016024D01*
X177136345Y-83010100D01*
X177984904Y-82161542D01*
X177991568Y-82150000D01*
X178708431Y-82150000D01*
X178715095Y-82161542D01*
X179563653Y-83010100D01*
X179573034Y-83016024D01*
X179581002Y-83008299D01*
X179670924Y-82870664D01*
X179675792Y-82861669D01*
X179771527Y-82643414D01*
X179774846Y-82633747D01*
X179833353Y-82402712D01*
X179835037Y-82392618D01*
X179854717Y-82155117D01*
X179854717Y-82144883D01*
X179835037Y-81907381D01*
X179833353Y-81897287D01*
X179774846Y-81666252D01*
X179771527Y-81656585D01*
X179675792Y-81438330D01*
X179670924Y-81429335D01*
X179581002Y-81291699D01*
X179573034Y-81283974D01*
X179563653Y-81289898D01*
X178715095Y-82138457D01*
X178708431Y-82150000D01*
X177991568Y-82150000D01*
X177984904Y-82138457D01*
X177136345Y-81289898D01*
X177126964Y-81283974D01*
X177118997Y-81291699D01*
X177029072Y-81429338D01*
X177024207Y-81438328D01*
X176928472Y-81656585D01*
X176925153Y-81666252D01*
X176866646Y-81897287D01*
X176864962Y-81907381D01*
X176845283Y-82144883D01*
X176845283Y-82155117D01*
X165358500Y-82155117D01*
X165358500Y-81101362D01*
X165351989Y-81040799D01*
X165309450Y-80926749D01*
X177485748Y-80926749D01*
X177492408Y-80938855D01*
X178338457Y-81784904D01*
X178350000Y-81791568D01*
X178361542Y-81784904D01*
X179207590Y-80938855D01*
X179214250Y-80926749D01*
X179206143Y-80915559D01*
X179177286Y-80893099D01*
X179168719Y-80887503D01*
X178959114Y-80774070D01*
X178949760Y-80769967D01*
X178724343Y-80692582D01*
X178714431Y-80690071D01*
X178479356Y-80650844D01*
X178469161Y-80650000D01*
X178230839Y-80650000D01*
X178220643Y-80650844D01*
X177985568Y-80690071D01*
X177975656Y-80692582D01*
X177750239Y-80769967D01*
X177740885Y-80774070D01*
X177531276Y-80887504D01*
X177522717Y-80893096D01*
X177493854Y-80915560D01*
X177485748Y-80926749D01*
X165309450Y-80926749D01*
X165300889Y-80903796D01*
X165213261Y-80786739D01*
X165196337Y-80774070D01*
X165103304Y-80704426D01*
X165103303Y-80704425D01*
X165096204Y-80699111D01*
X165087896Y-80696012D01*
X165087894Y-80696011D01*
X164966463Y-80650719D01*
X164966458Y-80650717D01*
X164959201Y-80648011D01*
X164951497Y-80647182D01*
X164951494Y-80647182D01*
X164901924Y-80641853D01*
X164901918Y-80641852D01*
X164898638Y-80641500D01*
X162801362Y-80641500D01*
X162798082Y-80641852D01*
X162798075Y-80641853D01*
X162748505Y-80647182D01*
X162748500Y-80647182D01*
X162740799Y-80648011D01*
X162733543Y-80650717D01*
X162733536Y-80650719D01*
X162612105Y-80696011D01*
X162612099Y-80696013D01*
X162603796Y-80699111D01*
X162596698Y-80704423D01*
X162596695Y-80704426D01*
X162493835Y-80781426D01*
X162493831Y-80781429D01*
X162486739Y-80786739D01*
X162481429Y-80793831D01*
X162481426Y-80793835D01*
X162404426Y-80896695D01*
X162404423Y-80896698D01*
X162399111Y-80903796D01*
X162396013Y-80912099D01*
X162396011Y-80912105D01*
X162350719Y-81033536D01*
X162350717Y-81033543D01*
X162348011Y-81040799D01*
X162347182Y-81048500D01*
X162347182Y-81048505D01*
X162343015Y-81087268D01*
X162341500Y-81101362D01*
X162341500Y-81104672D01*
X162341500Y-81267500D01*
X162324887Y-81329500D01*
X162279500Y-81374887D01*
X162217500Y-81391500D01*
X160254295Y-81391500D01*
X160236323Y-81390191D01*
X160232935Y-81389694D01*
X160212211Y-81386659D01*
X160205019Y-81387288D01*
X160205013Y-81387288D01*
X160167121Y-81390603D01*
X160162272Y-81391028D01*
X160151467Y-81391500D01*
X160145820Y-81391500D01*
X160142261Y-81391915D01*
X160142243Y-81391917D01*
X160114678Y-81395139D01*
X160111094Y-81395505D01*
X160042762Y-81401483D01*
X160042753Y-81401484D01*
X160035573Y-81402113D01*
X160028728Y-81404380D01*
X160025043Y-81405142D01*
X160024870Y-81405170D01*
X160024686Y-81405222D01*
X160021050Y-81406083D01*
X160013887Y-81406921D01*
X160007109Y-81409387D01*
X160007108Y-81409388D01*
X159942661Y-81432844D01*
X159939259Y-81434026D01*
X159874117Y-81455613D01*
X159874109Y-81455616D01*
X159867261Y-81457886D01*
X159861121Y-81461672D01*
X159857726Y-81463256D01*
X159857557Y-81463325D01*
X159857396Y-81463416D01*
X159854050Y-81465096D01*
X159847268Y-81467565D01*
X159841237Y-81471531D01*
X159841234Y-81471533D01*
X159783924Y-81509226D01*
X159780909Y-81511147D01*
X159780082Y-81511658D01*
X159722486Y-81547184D01*
X159722482Y-81547186D01*
X159716349Y-81550970D01*
X159711252Y-81556066D01*
X159708303Y-81558398D01*
X159708160Y-81558500D01*
X159708035Y-81558616D01*
X159705152Y-81561034D01*
X159699126Y-81564999D01*
X159694176Y-81570245D01*
X159694173Y-81570248D01*
X159647053Y-81620191D01*
X159644541Y-81622776D01*
X156060291Y-85207026D01*
X155999309Y-85240437D01*
X155929931Y-85235769D01*
X155873974Y-85194491D01*
X155849035Y-85129588D01*
X155844564Y-85075632D01*
X155789296Y-84857384D01*
X155698860Y-84651209D01*
X155575722Y-84462732D01*
X155572246Y-84458956D01*
X155426711Y-84300864D01*
X155426708Y-84300861D01*
X155423240Y-84297094D01*
X155410597Y-84287253D01*
X155249623Y-84161960D01*
X155249615Y-84161955D01*
X155245576Y-84158811D01*
X155241064Y-84156369D01*
X155241061Y-84156367D01*
X155209070Y-84139055D01*
X155161564Y-84093474D01*
X155144086Y-84030000D01*
X155161564Y-83966526D01*
X155209070Y-83920945D01*
X155209109Y-83920923D01*
X155245576Y-83901189D01*
X155423240Y-83762906D01*
X155575722Y-83597268D01*
X155698860Y-83408791D01*
X155789296Y-83202616D01*
X155844564Y-82984368D01*
X155863156Y-82760000D01*
X155844564Y-82535632D01*
X155789296Y-82317384D01*
X155698860Y-82111209D01*
X155575722Y-81922732D01*
X155454328Y-81790864D01*
X155426711Y-81760864D01*
X155426708Y-81760861D01*
X155423240Y-81757094D01*
X155306528Y-81666252D01*
X155249623Y-81621960D01*
X155249615Y-81621955D01*
X155245576Y-81618811D01*
X155241064Y-81616369D01*
X155241061Y-81616367D01*
X155209070Y-81599055D01*
X155161564Y-81553474D01*
X155144086Y-81490000D01*
X155161564Y-81426526D01*
X155209070Y-81380945D01*
X155220264Y-81374887D01*
X155245576Y-81361189D01*
X155423240Y-81222906D01*
X155575722Y-81057268D01*
X155698860Y-80868791D01*
X155789296Y-80662616D01*
X155844564Y-80444368D01*
X155863156Y-80220000D01*
X155853099Y-80098638D01*
X169241500Y-80098638D01*
X169248011Y-80159201D01*
X169250717Y-80166458D01*
X169250719Y-80166463D01*
X169283786Y-80255117D01*
X169299111Y-80296204D01*
X169386739Y-80413261D01*
X169503796Y-80500889D01*
X169640799Y-80551989D01*
X169701362Y-80558500D01*
X172995328Y-80558500D01*
X172998638Y-80558500D01*
X173059201Y-80551989D01*
X173196204Y-80500889D01*
X173313261Y-80413261D01*
X173400889Y-80296204D01*
X173451989Y-80159201D01*
X173458500Y-80098638D01*
X173458500Y-78001362D01*
X173451989Y-77940799D01*
X173400889Y-77803796D01*
X173313261Y-77686739D01*
X173196204Y-77599111D01*
X173187896Y-77596012D01*
X173187894Y-77596011D01*
X173066463Y-77550719D01*
X173066458Y-77550717D01*
X173059201Y-77548011D01*
X173051497Y-77547182D01*
X173051494Y-77547182D01*
X173001924Y-77541853D01*
X173001918Y-77541852D01*
X172998638Y-77541500D01*
X169701362Y-77541500D01*
X169698082Y-77541852D01*
X169698075Y-77541853D01*
X169648505Y-77547182D01*
X169648500Y-77547182D01*
X169640799Y-77548011D01*
X169633543Y-77550717D01*
X169633536Y-77550719D01*
X169512105Y-77596011D01*
X169512099Y-77596013D01*
X169503796Y-77599111D01*
X169496698Y-77604423D01*
X169496695Y-77604426D01*
X169393835Y-77681426D01*
X169393831Y-77681429D01*
X169386739Y-77686739D01*
X169381429Y-77693831D01*
X169381426Y-77693835D01*
X169304426Y-77796695D01*
X169304423Y-77796698D01*
X169299111Y-77803796D01*
X169296013Y-77812099D01*
X169296011Y-77812105D01*
X169250719Y-77933536D01*
X169250717Y-77933543D01*
X169248011Y-77940799D01*
X169247182Y-77948500D01*
X169247182Y-77948505D01*
X169241853Y-77998075D01*
X169241500Y-78001362D01*
X169241500Y-80098638D01*
X155853099Y-80098638D01*
X155844564Y-79995632D01*
X155789296Y-79777384D01*
X155698860Y-79571209D01*
X155575722Y-79382732D01*
X155430506Y-79224987D01*
X155401735Y-79172239D01*
X155401142Y-79112152D01*
X155428869Y-79058841D01*
X155478404Y-79024826D01*
X155596204Y-78980889D01*
X155713261Y-78893261D01*
X155800889Y-78776204D01*
X155851989Y-78639201D01*
X155858500Y-78578638D01*
X155858500Y-76781362D01*
X155851989Y-76720799D01*
X155800889Y-76583796D01*
X155713261Y-76466739D01*
X155596204Y-76379111D01*
X155587896Y-76376012D01*
X155587894Y-76376011D01*
X155466463Y-76330719D01*
X155466458Y-76330717D01*
X155459201Y-76328011D01*
X155451497Y-76327182D01*
X155451494Y-76327182D01*
X155401924Y-76321853D01*
X155401918Y-76321852D01*
X155398638Y-76321500D01*
X153601362Y-76321500D01*
X153598082Y-76321852D01*
X153598075Y-76321853D01*
X153548505Y-76327182D01*
X153548500Y-76327182D01*
X153540799Y-76328011D01*
X153533543Y-76330717D01*
X153533536Y-76330719D01*
X153412105Y-76376011D01*
X153412099Y-76376013D01*
X153403796Y-76379111D01*
X153396698Y-76384423D01*
X153396695Y-76384426D01*
X153293835Y-76461426D01*
X153293831Y-76461429D01*
X153286739Y-76466739D01*
X153281429Y-76473831D01*
X153281426Y-76473835D01*
X153204426Y-76576695D01*
X153204423Y-76576698D01*
X153199111Y-76583796D01*
X153196013Y-76592099D01*
X153196011Y-76592105D01*
X153150719Y-76713536D01*
X153150717Y-76713543D01*
X153148011Y-76720799D01*
X153147182Y-76728500D01*
X153147182Y-76728505D01*
X153143957Y-76758505D01*
X153141500Y-76781362D01*
X153141500Y-78578638D01*
X153141852Y-78581918D01*
X153141853Y-78581924D01*
X153145078Y-78611924D01*
X153148011Y-78639201D01*
X153150717Y-78646458D01*
X153150719Y-78646463D01*
X153161909Y-78676463D01*
X153199111Y-78776204D01*
X153286739Y-78893261D01*
X153403796Y-78980889D01*
X153521595Y-79024826D01*
X153571130Y-79058841D01*
X153598857Y-79112152D01*
X153598264Y-79172238D01*
X153569490Y-79224991D01*
X153427753Y-79378956D01*
X153427747Y-79378963D01*
X153424278Y-79382732D01*
X153421481Y-79387012D01*
X153421474Y-79387022D01*
X153303942Y-79566920D01*
X153301140Y-79571209D01*
X153299085Y-79575892D01*
X153299080Y-79575903D01*
X153212764Y-79772687D01*
X153210704Y-79777384D01*
X153209446Y-79782349D01*
X153209445Y-79782354D01*
X153156695Y-79990657D01*
X153156693Y-79990666D01*
X153155436Y-79995632D01*
X153155012Y-80000741D01*
X153155011Y-80000751D01*
X153141882Y-80159201D01*
X153136844Y-80220000D01*
X153137268Y-80225117D01*
X153155011Y-80439248D01*
X153155012Y-80439256D01*
X153155436Y-80444368D01*
X153156693Y-80449335D01*
X153156695Y-80449342D01*
X153207509Y-80650000D01*
X153210704Y-80662616D01*
X153212764Y-80667312D01*
X153299080Y-80864096D01*
X153299083Y-80864101D01*
X153301140Y-80868791D01*
X153331695Y-80915559D01*
X153421474Y-81052977D01*
X153421477Y-81052981D01*
X153424278Y-81057268D01*
X153427752Y-81061041D01*
X153427753Y-81061043D01*
X153573288Y-81219135D01*
X153573291Y-81219138D01*
X153576760Y-81222906D01*
X153580801Y-81226051D01*
X153750376Y-81358039D01*
X153750381Y-81358042D01*
X153754424Y-81361189D01*
X153758931Y-81363628D01*
X153758934Y-81363630D01*
X153790930Y-81380945D01*
X153838436Y-81426526D01*
X153855913Y-81490000D01*
X153838436Y-81553474D01*
X153790930Y-81599055D01*
X153758934Y-81616369D01*
X153758922Y-81616376D01*
X153754424Y-81618811D01*
X153750389Y-81621951D01*
X153750376Y-81621960D01*
X153580801Y-81753948D01*
X153580795Y-81753952D01*
X153576760Y-81757094D01*
X153573297Y-81760855D01*
X153573288Y-81760864D01*
X153427753Y-81918956D01*
X153427747Y-81918963D01*
X153424278Y-81922732D01*
X153421481Y-81927012D01*
X153421474Y-81927022D01*
X153303942Y-82106920D01*
X153301140Y-82111209D01*
X153299085Y-82115892D01*
X153299080Y-82115903D01*
X153212764Y-82312687D01*
X153210704Y-82317384D01*
X153209446Y-82322349D01*
X153209445Y-82322354D01*
X153156695Y-82530657D01*
X153156693Y-82530666D01*
X153155436Y-82535632D01*
X153155012Y-82540741D01*
X153155011Y-82540751D01*
X153137268Y-82754883D01*
X153136844Y-82760000D01*
X153137268Y-82765117D01*
X153155011Y-82979248D01*
X153155012Y-82979256D01*
X153155436Y-82984368D01*
X153156693Y-82989335D01*
X153156695Y-82989342D01*
X153208858Y-83195328D01*
X153210704Y-83202616D01*
X153212764Y-83207312D01*
X153299080Y-83404096D01*
X153299083Y-83404101D01*
X153301140Y-83408791D01*
X153360505Y-83499656D01*
X153421474Y-83592977D01*
X153421477Y-83592981D01*
X153424278Y-83597268D01*
X153427752Y-83601041D01*
X153427753Y-83601043D01*
X153573288Y-83759135D01*
X153573291Y-83759138D01*
X153576760Y-83762906D01*
X153580801Y-83766051D01*
X153750376Y-83898039D01*
X153750381Y-83898042D01*
X153754424Y-83901189D01*
X153758931Y-83903628D01*
X153758934Y-83903630D01*
X153790930Y-83920945D01*
X153838436Y-83966526D01*
X153855913Y-84030000D01*
X153838436Y-84093474D01*
X153790930Y-84139055D01*
X153758934Y-84156369D01*
X153758922Y-84156376D01*
X153754424Y-84158811D01*
X153750389Y-84161951D01*
X153750376Y-84161960D01*
X153580801Y-84293948D01*
X153580795Y-84293952D01*
X153576760Y-84297094D01*
X153573297Y-84300855D01*
X153573288Y-84300864D01*
X153427753Y-84458956D01*
X153427747Y-84458963D01*
X153424278Y-84462732D01*
X153421481Y-84467012D01*
X153421474Y-84467022D01*
X153305273Y-84644883D01*
X153301140Y-84651209D01*
X153299085Y-84655892D01*
X153299080Y-84655903D01*
X153212764Y-84852687D01*
X153210704Y-84857384D01*
X153209446Y-84862349D01*
X153209445Y-84862354D01*
X153156695Y-85070657D01*
X153156693Y-85070666D01*
X153155436Y-85075632D01*
X153155013Y-85080740D01*
X153155011Y-85080751D01*
X153137268Y-85294883D01*
X153136844Y-85300000D01*
X153137268Y-85305117D01*
X153155011Y-85519248D01*
X153155012Y-85519256D01*
X153155436Y-85524368D01*
X153156693Y-85529335D01*
X153156695Y-85529342D01*
X153188634Y-85655465D01*
X153210704Y-85742616D01*
X153212764Y-85747312D01*
X153299080Y-85944096D01*
X153299083Y-85944101D01*
X153301140Y-85948791D01*
X153360505Y-86039656D01*
X153421474Y-86132977D01*
X153421477Y-86132981D01*
X153424278Y-86137268D01*
X153427752Y-86141041D01*
X153427753Y-86141043D01*
X153573288Y-86299135D01*
X153573291Y-86299138D01*
X153576760Y-86302906D01*
X153580801Y-86306051D01*
X153750376Y-86438039D01*
X153750381Y-86438042D01*
X153754424Y-86441189D01*
X153790930Y-86460945D01*
X153838434Y-86506523D01*
X153855913Y-86569996D01*
X153838437Y-86633471D01*
X153790933Y-86679053D01*
X153758930Y-86696372D01*
X153758925Y-86696374D01*
X153754424Y-86698811D01*
X153750389Y-86701951D01*
X153750376Y-86701960D01*
X153580801Y-86833948D01*
X153580795Y-86833952D01*
X153576760Y-86837094D01*
X153573297Y-86840855D01*
X153573288Y-86840864D01*
X153427753Y-86998956D01*
X153427747Y-86998963D01*
X153424278Y-87002732D01*
X153421481Y-87007012D01*
X153421474Y-87007022D01*
X153331234Y-87145146D01*
X153301140Y-87191209D01*
X153299085Y-87195892D01*
X153299080Y-87195903D01*
X153212764Y-87392687D01*
X153210704Y-87397384D01*
X153209446Y-87402349D01*
X153209445Y-87402354D01*
X153156695Y-87610657D01*
X153156693Y-87610666D01*
X153155436Y-87615632D01*
X153155012Y-87620741D01*
X153155011Y-87620751D01*
X153137469Y-87832460D01*
X153136844Y-87840000D01*
X153137268Y-87845117D01*
X153155011Y-88059248D01*
X153155012Y-88059256D01*
X153155436Y-88064368D01*
X153156693Y-88069335D01*
X153156695Y-88069342D01*
X153195640Y-88223129D01*
X153210704Y-88282616D01*
X153212764Y-88287312D01*
X153299080Y-88484096D01*
X153299083Y-88484101D01*
X153301140Y-88488791D01*
X153360505Y-88579656D01*
X153421474Y-88672977D01*
X153421477Y-88672981D01*
X153424278Y-88677268D01*
X153427752Y-88681041D01*
X153427753Y-88681043D01*
X153573288Y-88839135D01*
X153573291Y-88839138D01*
X153576760Y-88842906D01*
X153580801Y-88846051D01*
X153750376Y-88978039D01*
X153750381Y-88978042D01*
X153754424Y-88981189D01*
X153790930Y-89000945D01*
X153838434Y-89046523D01*
X153855913Y-89109996D01*
X153838437Y-89173471D01*
X153790933Y-89219053D01*
X153758930Y-89236372D01*
X153758925Y-89236374D01*
X153754424Y-89238811D01*
X153750389Y-89241951D01*
X153750376Y-89241960D01*
X153580801Y-89373948D01*
X153580795Y-89373952D01*
X153576760Y-89377094D01*
X153573297Y-89380855D01*
X153573288Y-89380864D01*
X153427753Y-89538956D01*
X153427747Y-89538963D01*
X153424278Y-89542732D01*
X153421481Y-89547012D01*
X153421474Y-89547022D01*
X153303942Y-89726920D01*
X153301140Y-89731209D01*
X153299085Y-89735892D01*
X153299080Y-89735903D01*
X153212764Y-89932687D01*
X153210704Y-89937384D01*
X153209446Y-89942349D01*
X153209445Y-89942354D01*
X153156695Y-90150657D01*
X153156693Y-90150666D01*
X153155436Y-90155632D01*
X153155012Y-90160741D01*
X153155011Y-90160751D01*
X153137268Y-90374883D01*
X153136844Y-90380000D01*
X153137268Y-90385117D01*
X153155011Y-90599248D01*
X153155012Y-90599256D01*
X153155436Y-90604368D01*
X153156693Y-90609335D01*
X153156695Y-90609342D01*
X153209445Y-90817645D01*
X153210704Y-90822616D01*
X153212764Y-90827312D01*
X153299080Y-91024096D01*
X153299083Y-91024101D01*
X153301140Y-91028791D01*
X153335573Y-91081495D01*
X153421474Y-91212977D01*
X153421477Y-91212981D01*
X153424278Y-91217268D01*
X153427752Y-91221041D01*
X153427753Y-91221043D01*
X153573288Y-91379135D01*
X153573291Y-91379138D01*
X153576760Y-91382906D01*
X153580801Y-91386051D01*
X153750376Y-91518039D01*
X153750381Y-91518042D01*
X153754424Y-91521189D01*
X153790930Y-91540945D01*
X153838434Y-91586523D01*
X153855913Y-91649996D01*
X153838437Y-91713471D01*
X153790933Y-91759053D01*
X153758930Y-91776372D01*
X153758925Y-91776374D01*
X153754424Y-91778811D01*
X153750389Y-91781951D01*
X153750376Y-91781960D01*
X153580801Y-91913948D01*
X153580795Y-91913952D01*
X153576760Y-91917094D01*
X153573297Y-91920855D01*
X153573288Y-91920864D01*
X153427753Y-92078956D01*
X153427747Y-92078963D01*
X153424278Y-92082732D01*
X153421481Y-92087012D01*
X153421474Y-92087022D01*
X153372816Y-92161500D01*
X153301140Y-92271209D01*
X153299085Y-92275892D01*
X153299080Y-92275903D01*
X153212764Y-92472687D01*
X153210704Y-92477384D01*
X153209446Y-92482349D01*
X153209445Y-92482354D01*
X153156695Y-92690657D01*
X153156693Y-92690666D01*
X153155436Y-92695632D01*
X153155012Y-92700741D01*
X153155011Y-92700751D01*
X153137268Y-92914883D01*
X153136844Y-92920000D01*
X153137268Y-92925117D01*
X153155011Y-93139248D01*
X153155012Y-93139256D01*
X153155436Y-93144368D01*
X153156693Y-93149335D01*
X153156695Y-93149342D01*
X153209445Y-93357645D01*
X153210704Y-93362616D01*
X153212764Y-93367312D01*
X153299080Y-93564096D01*
X153299083Y-93564101D01*
X153301140Y-93568791D01*
X153345793Y-93637137D01*
X153421474Y-93752977D01*
X153421477Y-93752981D01*
X153424278Y-93757268D01*
X153427752Y-93761041D01*
X153427753Y-93761043D01*
X153573288Y-93919135D01*
X153573291Y-93919138D01*
X153576760Y-93922906D01*
X153580801Y-93926051D01*
X153750376Y-94058039D01*
X153750381Y-94058042D01*
X153754424Y-94061189D01*
X153758931Y-94063628D01*
X153758934Y-94063630D01*
X153790930Y-94080945D01*
X153838436Y-94126526D01*
X153855913Y-94190000D01*
X153838436Y-94253474D01*
X153790930Y-94299055D01*
X153758934Y-94316369D01*
X153758922Y-94316376D01*
X153754424Y-94318811D01*
X153750389Y-94321951D01*
X153750376Y-94321960D01*
X153580801Y-94453948D01*
X153580795Y-94453952D01*
X153576760Y-94457094D01*
X153573297Y-94460855D01*
X153573288Y-94460864D01*
X153427753Y-94618956D01*
X153427747Y-94618963D01*
X153424278Y-94622732D01*
X153421481Y-94627012D01*
X153421474Y-94627022D01*
X153303942Y-94806920D01*
X153301140Y-94811209D01*
X153299085Y-94815892D01*
X153299080Y-94815903D01*
X153212764Y-95012687D01*
X153210704Y-95017384D01*
X153209446Y-95022349D01*
X153209445Y-95022354D01*
X153156695Y-95230657D01*
X153156693Y-95230666D01*
X153155436Y-95235632D01*
X153155012Y-95240741D01*
X153155011Y-95240751D01*
X153137268Y-95454883D01*
X153136844Y-95460000D01*
X153137268Y-95465117D01*
X153155011Y-95679248D01*
X153155012Y-95679256D01*
X153155436Y-95684368D01*
X153156693Y-95689335D01*
X153156695Y-95689342D01*
X153209445Y-95897645D01*
X153210704Y-95902616D01*
X153212764Y-95907312D01*
X153299080Y-96104096D01*
X153299083Y-96104101D01*
X153301140Y-96108791D01*
X153360505Y-96199656D01*
X153421474Y-96292977D01*
X153421477Y-96292981D01*
X153424278Y-96297268D01*
X153427752Y-96301041D01*
X153427753Y-96301043D01*
X153573288Y-96459135D01*
X153573291Y-96459138D01*
X153576760Y-96462906D01*
X153580801Y-96466051D01*
X153750376Y-96598039D01*
X153750381Y-96598042D01*
X153754424Y-96601189D01*
X153758931Y-96603628D01*
X153758934Y-96603630D01*
X153790930Y-96620945D01*
X153838436Y-96666526D01*
X153855913Y-96730000D01*
X153838436Y-96793474D01*
X153790930Y-96839055D01*
X153758934Y-96856369D01*
X153758922Y-96856376D01*
X153754424Y-96858811D01*
X153750389Y-96861951D01*
X153750376Y-96861960D01*
X153580801Y-96993948D01*
X153580795Y-96993952D01*
X153576760Y-96997094D01*
X153573297Y-97000855D01*
X153573288Y-97000864D01*
X153427753Y-97158956D01*
X153427747Y-97158963D01*
X153424278Y-97162732D01*
X153421481Y-97167012D01*
X153421474Y-97167022D01*
X153303942Y-97346920D01*
X153301140Y-97351209D01*
X153299085Y-97355892D01*
X153299080Y-97355903D01*
X153212764Y-97552687D01*
X153210704Y-97557384D01*
X153209446Y-97562349D01*
X153209445Y-97562354D01*
X153156695Y-97770657D01*
X153156693Y-97770666D01*
X153155436Y-97775632D01*
X153155012Y-97780741D01*
X153155011Y-97780751D01*
X153137268Y-97994883D01*
X153136844Y-98000000D01*
X153137268Y-98005117D01*
X153155011Y-98219248D01*
X153155012Y-98219256D01*
X153155436Y-98224368D01*
X153156693Y-98229335D01*
X153156695Y-98229342D01*
X153209445Y-98437645D01*
X153210704Y-98442616D01*
X153212764Y-98447312D01*
X153299080Y-98644096D01*
X153299083Y-98644101D01*
X153301140Y-98648791D01*
X153360505Y-98739656D01*
X153421474Y-98832977D01*
X153421477Y-98832981D01*
X153424278Y-98837268D01*
X153427752Y-98841041D01*
X153427753Y-98841043D01*
X153573288Y-98999135D01*
X153573291Y-98999138D01*
X153576760Y-99002906D01*
X153580801Y-99006051D01*
X153750376Y-99138039D01*
X153750381Y-99138042D01*
X153754424Y-99141189D01*
X153790930Y-99160945D01*
X153838434Y-99206523D01*
X153855913Y-99269996D01*
X153838437Y-99333471D01*
X153790933Y-99379053D01*
X153758930Y-99396372D01*
X153758925Y-99396374D01*
X153754424Y-99398811D01*
X153750389Y-99401951D01*
X153750376Y-99401960D01*
X153580801Y-99533948D01*
X153580795Y-99533952D01*
X153576760Y-99537094D01*
X153573297Y-99540855D01*
X153573288Y-99540864D01*
X153427753Y-99698956D01*
X153427747Y-99698963D01*
X153424278Y-99702732D01*
X153421481Y-99707012D01*
X153421474Y-99707022D01*
X153303942Y-99886920D01*
X153301140Y-99891209D01*
X153299085Y-99895892D01*
X153299080Y-99895903D01*
X153212764Y-100092687D01*
X153210704Y-100097384D01*
X153209446Y-100102349D01*
X153209445Y-100102354D01*
X153156695Y-100310657D01*
X153156693Y-100310666D01*
X153155436Y-100315632D01*
X153155012Y-100320741D01*
X153155011Y-100320751D01*
X153142577Y-100470810D01*
X153136844Y-100540000D01*
X153137268Y-100545117D01*
X153155011Y-100759248D01*
X153155012Y-100759256D01*
X153155436Y-100764368D01*
X153156693Y-100769335D01*
X153156695Y-100769342D01*
X153209445Y-100977645D01*
X153210704Y-100982616D01*
X153212764Y-100987312D01*
X153299080Y-101184096D01*
X153299083Y-101184101D01*
X153301140Y-101188791D01*
X153360505Y-101279656D01*
X153421474Y-101372977D01*
X153421477Y-101372981D01*
X153424278Y-101377268D01*
X153427752Y-101381041D01*
X153427753Y-101381043D01*
X153573288Y-101539135D01*
X153573291Y-101539138D01*
X153576760Y-101542906D01*
X153580801Y-101546051D01*
X153750376Y-101678039D01*
X153750381Y-101678042D01*
X153754424Y-101681189D01*
X153790930Y-101700945D01*
X153838434Y-101746523D01*
X153855913Y-101809996D01*
X153838437Y-101873471D01*
X153790933Y-101919053D01*
X153758930Y-101936372D01*
X153758925Y-101936374D01*
X153754424Y-101938811D01*
X153750389Y-101941951D01*
X153750376Y-101941960D01*
X153580801Y-102073948D01*
X153580795Y-102073952D01*
X153576760Y-102077094D01*
X153573297Y-102080855D01*
X153573288Y-102080864D01*
X153427753Y-102238956D01*
X153427747Y-102238963D01*
X153424278Y-102242732D01*
X153421481Y-102247012D01*
X153421474Y-102247022D01*
X153303942Y-102426920D01*
X153301140Y-102431209D01*
X153299085Y-102435892D01*
X153299080Y-102435903D01*
X153212764Y-102632687D01*
X153210704Y-102637384D01*
X153209446Y-102642349D01*
X153209445Y-102642354D01*
X153156695Y-102850657D01*
X153156693Y-102850666D01*
X153155436Y-102855632D01*
X153155012Y-102860741D01*
X153155011Y-102860751D01*
X153143854Y-102995399D01*
X153136844Y-103080000D01*
X153137268Y-103085117D01*
X153155011Y-103299248D01*
X153155012Y-103299256D01*
X153155436Y-103304368D01*
X153156693Y-103309335D01*
X153156695Y-103309342D01*
X153209445Y-103517645D01*
X153210704Y-103522616D01*
X153212764Y-103527312D01*
X153299080Y-103724096D01*
X153299083Y-103724101D01*
X153301140Y-103728791D01*
X153360505Y-103819656D01*
X153421474Y-103912977D01*
X153421477Y-103912981D01*
X153424278Y-103917268D01*
X153427752Y-103921041D01*
X153427753Y-103921043D01*
X153573288Y-104079135D01*
X153573291Y-104079138D01*
X153576760Y-104082906D01*
X153580801Y-104086051D01*
X153750376Y-104218039D01*
X153750381Y-104218042D01*
X153754424Y-104221189D01*
X153790930Y-104240945D01*
X153838434Y-104286523D01*
X153855913Y-104349996D01*
X153838437Y-104413471D01*
X153790933Y-104459053D01*
X153758930Y-104476372D01*
X153758925Y-104476374D01*
X153754424Y-104478811D01*
X153750389Y-104481951D01*
X153750376Y-104481960D01*
X153580801Y-104613948D01*
X153580795Y-104613952D01*
X153576760Y-104617094D01*
X153573297Y-104620855D01*
X153573288Y-104620864D01*
X153427753Y-104778956D01*
X153427747Y-104778963D01*
X153424278Y-104782732D01*
X153421481Y-104787012D01*
X153421474Y-104787022D01*
X153319586Y-104942975D01*
X153301140Y-104971209D01*
X153299085Y-104975892D01*
X153299080Y-104975903D01*
X153229604Y-105134295D01*
X153210704Y-105177384D01*
X153209446Y-105182349D01*
X153209445Y-105182354D01*
X153156695Y-105390657D01*
X153156693Y-105390666D01*
X153155436Y-105395632D01*
X153155012Y-105400741D01*
X153155011Y-105400751D01*
X153137268Y-105614883D01*
X153136844Y-105620000D01*
X153137268Y-105625117D01*
X153155011Y-105839248D01*
X153155012Y-105839256D01*
X153155436Y-105844368D01*
X153156693Y-105849335D01*
X153156695Y-105849342D01*
X153207755Y-106050970D01*
X153210704Y-106062616D01*
X153212764Y-106067312D01*
X153299080Y-106264096D01*
X153299083Y-106264101D01*
X153301140Y-106268791D01*
X153360505Y-106359656D01*
X153421474Y-106452977D01*
X153421477Y-106452981D01*
X153424278Y-106457268D01*
X153427752Y-106461041D01*
X153427753Y-106461043D01*
X153573288Y-106619135D01*
X153573291Y-106619138D01*
X153576760Y-106622906D01*
X153580801Y-106626051D01*
X153750376Y-106758039D01*
X153750381Y-106758042D01*
X153754424Y-106761189D01*
X153797691Y-106784604D01*
X153797695Y-106784606D01*
X153843335Y-106827155D01*
X153862475Y-106886545D01*
X153850267Y-106947737D01*
X153809803Y-106995236D01*
X153633352Y-107118788D01*
X153625092Y-107125719D01*
X153465719Y-107285092D01*
X153458784Y-107293357D01*
X153329508Y-107477982D01*
X153324110Y-107487332D01*
X153228856Y-107691602D01*
X153225168Y-107701736D01*
X153173056Y-107896219D01*
X153172688Y-107907448D01*
X153183631Y-107910000D01*
X154626000Y-107910000D01*
X154688000Y-107926613D01*
X154733387Y-107972000D01*
X154750000Y-108034000D01*
X154750000Y-108286000D01*
X154733387Y-108348000D01*
X154688000Y-108393387D01*
X154626000Y-108410000D01*
X153183631Y-108410000D01*
X153172688Y-108412551D01*
X153173056Y-108423780D01*
X153225168Y-108618263D01*
X153228856Y-108628397D01*
X153324113Y-108832676D01*
X153329501Y-108842008D01*
X153458784Y-109026643D01*
X153465721Y-109034909D01*
X153625090Y-109194278D01*
X153633356Y-109201215D01*
X153809801Y-109324764D01*
X153850264Y-109372263D01*
X153862473Y-109433454D01*
X153843334Y-109492844D01*
X153797695Y-109535393D01*
X153758939Y-109556366D01*
X153758924Y-109556375D01*
X153754424Y-109558811D01*
X153750389Y-109561951D01*
X153750376Y-109561960D01*
X153580801Y-109693948D01*
X153580795Y-109693952D01*
X153576760Y-109697094D01*
X153573297Y-109700855D01*
X153573288Y-109700864D01*
X153427753Y-109858956D01*
X153427747Y-109858963D01*
X153424278Y-109862732D01*
X153421481Y-109867012D01*
X153421474Y-109867022D01*
X153331540Y-110004678D01*
X153301140Y-110051209D01*
X153299085Y-110055892D01*
X153299080Y-110055903D01*
X153212764Y-110252687D01*
X153210704Y-110257384D01*
X153209446Y-110262349D01*
X153209445Y-110262354D01*
X153156695Y-110470657D01*
X153156693Y-110470666D01*
X153155436Y-110475632D01*
X153155012Y-110480741D01*
X153155011Y-110480751D01*
X153137268Y-110694883D01*
X153136844Y-110700000D01*
X153137268Y-110705117D01*
X153155011Y-110919248D01*
X153155012Y-110919256D01*
X153155436Y-110924368D01*
X153156693Y-110929335D01*
X153156695Y-110929342D01*
X153209445Y-111137645D01*
X153210704Y-111142616D01*
X153212764Y-111147312D01*
X153299080Y-111344096D01*
X153299083Y-111344101D01*
X153301140Y-111348791D01*
X153336345Y-111402676D01*
X153421474Y-111532977D01*
X153421477Y-111532981D01*
X153424278Y-111537268D01*
X153427752Y-111541041D01*
X153427753Y-111541043D01*
X153573288Y-111699135D01*
X153573291Y-111699138D01*
X153576760Y-111702906D01*
X153580801Y-111706051D01*
X153750376Y-111838039D01*
X153750381Y-111838042D01*
X153754424Y-111841189D01*
X153790930Y-111860945D01*
X153838434Y-111906523D01*
X153855913Y-111969996D01*
X153838437Y-112033471D01*
X153790933Y-112079053D01*
X153758930Y-112096372D01*
X153758925Y-112096374D01*
X153754424Y-112098811D01*
X153750389Y-112101951D01*
X153750376Y-112101960D01*
X153580801Y-112233948D01*
X153580795Y-112233952D01*
X153576760Y-112237094D01*
X153573297Y-112240855D01*
X153573288Y-112240864D01*
X153427753Y-112398956D01*
X153427747Y-112398963D01*
X153424278Y-112402732D01*
X153421481Y-112407012D01*
X153421474Y-112407022D01*
X153303942Y-112586920D01*
X153301140Y-112591209D01*
X153299085Y-112595892D01*
X153299080Y-112595903D01*
X153212764Y-112792687D01*
X153210704Y-112797384D01*
X153209446Y-112802349D01*
X153209445Y-112802354D01*
X153156695Y-113010657D01*
X153156693Y-113010666D01*
X153155436Y-113015632D01*
X153155012Y-113020741D01*
X153155011Y-113020751D01*
X153137268Y-113234883D01*
X153136844Y-113240000D01*
X153137268Y-113245117D01*
X153155011Y-113459248D01*
X153155012Y-113459256D01*
X153155436Y-113464368D01*
X153156693Y-113469335D01*
X153156695Y-113469342D01*
X153209445Y-113677645D01*
X153210704Y-113682616D01*
X153212764Y-113687312D01*
X153299080Y-113884096D01*
X153299083Y-113884101D01*
X153301140Y-113888791D01*
X153360505Y-113979656D01*
X153421474Y-114072977D01*
X153421477Y-114072981D01*
X153424278Y-114077268D01*
X153427752Y-114081041D01*
X153427753Y-114081043D01*
X153573288Y-114239135D01*
X153573291Y-114239138D01*
X153576760Y-114242906D01*
X153580801Y-114246051D01*
X153750376Y-114378039D01*
X153750381Y-114378042D01*
X153754424Y-114381189D01*
X153790930Y-114400945D01*
X153838434Y-114446523D01*
X153855913Y-114509996D01*
X153838437Y-114573471D01*
X153790933Y-114619053D01*
X153758930Y-114636372D01*
X153758925Y-114636374D01*
X153754424Y-114638811D01*
X153750389Y-114641951D01*
X153750376Y-114641960D01*
X153580801Y-114773948D01*
X153580795Y-114773952D01*
X153576760Y-114777094D01*
X153573297Y-114780855D01*
X153573288Y-114780864D01*
X153427753Y-114938956D01*
X153427747Y-114938963D01*
X153424278Y-114942732D01*
X153421481Y-114947012D01*
X153421474Y-114947022D01*
X153365596Y-115032551D01*
X153301140Y-115131209D01*
X153299085Y-115135892D01*
X153299080Y-115135903D01*
X153212764Y-115332687D01*
X153210704Y-115337384D01*
X153209446Y-115342349D01*
X153209445Y-115342354D01*
X153156695Y-115550657D01*
X153156693Y-115550666D01*
X153155436Y-115555632D01*
X153155013Y-115560740D01*
X153155011Y-115560751D01*
X153139172Y-115751910D01*
X153136844Y-115780000D01*
X153137268Y-115785117D01*
X153155011Y-115999248D01*
X153155012Y-115999256D01*
X153155436Y-116004368D01*
X153156693Y-116009335D01*
X153156695Y-116009342D01*
X153209445Y-116217645D01*
X153210704Y-116222616D01*
X153212764Y-116227312D01*
X153299080Y-116424096D01*
X153299083Y-116424101D01*
X153301140Y-116428791D01*
X153360505Y-116519656D01*
X153421474Y-116612977D01*
X153421477Y-116612981D01*
X153424278Y-116617268D01*
X153427752Y-116621041D01*
X153427753Y-116621043D01*
X153573288Y-116779135D01*
X153573291Y-116779138D01*
X153576760Y-116782906D01*
X153589441Y-116792776D01*
X153750376Y-116918039D01*
X153750381Y-116918042D01*
X153754424Y-116921189D01*
X153758931Y-116923628D01*
X153758934Y-116923630D01*
X153790930Y-116940945D01*
X153838436Y-116986526D01*
X153855913Y-117050000D01*
X153838436Y-117113474D01*
X153790930Y-117159055D01*
X153758934Y-117176369D01*
X153758922Y-117176376D01*
X153754424Y-117178811D01*
X153750389Y-117181951D01*
X153750376Y-117181960D01*
X153580801Y-117313948D01*
X153580795Y-117313952D01*
X153576760Y-117317094D01*
X153573297Y-117320855D01*
X153573288Y-117320864D01*
X153427753Y-117478956D01*
X153427747Y-117478963D01*
X153424278Y-117482732D01*
X153421481Y-117487012D01*
X153421474Y-117487022D01*
X153303942Y-117666920D01*
X153301140Y-117671209D01*
X153299085Y-117675892D01*
X153299080Y-117675903D01*
X153223366Y-117848517D01*
X153210704Y-117877384D01*
X153209446Y-117882349D01*
X153209445Y-117882354D01*
X153156695Y-118090657D01*
X153156693Y-118090666D01*
X153155436Y-118095632D01*
X153155012Y-118100741D01*
X153155011Y-118100751D01*
X153145243Y-118218638D01*
X153136844Y-118320000D01*
X153137268Y-118325117D01*
X153155011Y-118539248D01*
X153155012Y-118539256D01*
X153155436Y-118544368D01*
X153156693Y-118549335D01*
X153156695Y-118549342D01*
X153189313Y-118678146D01*
X153210704Y-118762616D01*
X153212764Y-118767312D01*
X153299080Y-118964096D01*
X153299083Y-118964101D01*
X153301140Y-118968791D01*
X153360505Y-119059656D01*
X153421474Y-119152977D01*
X153421477Y-119152981D01*
X153424278Y-119157268D01*
X153427752Y-119161041D01*
X153427753Y-119161043D01*
X153573288Y-119319135D01*
X153573291Y-119319138D01*
X153576760Y-119322906D01*
X153580801Y-119326051D01*
X153750376Y-119458039D01*
X153750381Y-119458042D01*
X153754424Y-119461189D01*
X153758931Y-119463628D01*
X153758934Y-119463630D01*
X153790930Y-119480945D01*
X153838436Y-119526526D01*
X153855913Y-119590000D01*
X153838436Y-119653474D01*
X153790930Y-119699055D01*
X153758934Y-119716369D01*
X153758922Y-119716376D01*
X153754424Y-119718811D01*
X153750389Y-119721951D01*
X153750376Y-119721960D01*
X153580801Y-119853948D01*
X153580795Y-119853952D01*
X153576760Y-119857094D01*
X153573297Y-119860855D01*
X153573288Y-119860864D01*
X153427753Y-120018956D01*
X153427747Y-120018963D01*
X153424278Y-120022732D01*
X153421481Y-120027012D01*
X153421474Y-120027022D01*
X153303942Y-120206920D01*
X153301140Y-120211209D01*
X153299085Y-120215892D01*
X153299080Y-120215903D01*
X153212764Y-120412687D01*
X153210704Y-120417384D01*
X153209446Y-120422349D01*
X153209445Y-120422354D01*
X153156695Y-120630657D01*
X153156693Y-120630666D01*
X153155436Y-120635632D01*
X153155012Y-120640741D01*
X153155011Y-120640751D01*
X153137268Y-120854883D01*
X153136844Y-120860000D01*
X153137268Y-120865117D01*
X153155011Y-121079248D01*
X153155012Y-121079256D01*
X153155436Y-121084368D01*
X153156693Y-121089335D01*
X153156695Y-121089342D01*
X153209445Y-121297645D01*
X153210704Y-121302616D01*
X153212764Y-121307312D01*
X153299080Y-121504096D01*
X153299083Y-121504101D01*
X153301140Y-121508791D01*
X153360505Y-121599656D01*
X153421474Y-121692977D01*
X153421477Y-121692981D01*
X153424278Y-121697268D01*
X153427752Y-121701041D01*
X153427753Y-121701043D01*
X153573288Y-121859135D01*
X153573291Y-121859138D01*
X153576760Y-121862906D01*
X153580801Y-121866051D01*
X153750376Y-121998039D01*
X153750381Y-121998042D01*
X153754424Y-122001189D01*
X153797691Y-122024604D01*
X153797695Y-122024606D01*
X153843335Y-122067155D01*
X153862475Y-122126545D01*
X153850267Y-122187737D01*
X153809803Y-122235236D01*
X153633352Y-122358788D01*
X153625092Y-122365719D01*
X153465719Y-122525092D01*
X153458784Y-122533357D01*
X153329508Y-122717982D01*
X153324110Y-122727332D01*
X153228856Y-122931602D01*
X153225168Y-122941736D01*
X153173056Y-123136219D01*
X153172688Y-123147448D01*
X153183631Y-123150000D01*
X155816369Y-123150000D01*
X155827311Y-123147448D01*
X155826943Y-123136219D01*
X155774831Y-122941736D01*
X155771143Y-122931602D01*
X155675889Y-122727332D01*
X155670491Y-122717982D01*
X155541215Y-122533357D01*
X155534280Y-122525092D01*
X155374909Y-122365721D01*
X155366635Y-122358778D01*
X155190198Y-122235234D01*
X155149734Y-122187735D01*
X155137526Y-122126543D01*
X155156666Y-122067153D01*
X155202304Y-122024606D01*
X155245576Y-122001189D01*
X155423240Y-121862906D01*
X155575722Y-121697268D01*
X155698860Y-121508791D01*
X155789296Y-121302616D01*
X155844564Y-121084368D01*
X155863156Y-120860000D01*
X155844564Y-120635632D01*
X155789296Y-120417384D01*
X155698860Y-120211209D01*
X155575722Y-120022732D01*
X155454328Y-119890864D01*
X155426711Y-119860864D01*
X155426708Y-119860861D01*
X155423240Y-119857094D01*
X155410597Y-119847253D01*
X155249623Y-119721960D01*
X155249615Y-119721955D01*
X155245576Y-119718811D01*
X155241064Y-119716369D01*
X155241061Y-119716367D01*
X155209070Y-119699055D01*
X155161564Y-119653474D01*
X155144086Y-119590000D01*
X155161564Y-119526526D01*
X155209070Y-119480945D01*
X155209109Y-119480923D01*
X155245576Y-119461189D01*
X155423240Y-119322906D01*
X155575722Y-119157268D01*
X155698860Y-118968791D01*
X155789296Y-118762616D01*
X155844564Y-118544368D01*
X155863156Y-118320000D01*
X155845674Y-118109029D01*
X155852826Y-118056113D01*
X155881567Y-118011112D01*
X159365231Y-114527448D01*
X169247688Y-114527448D01*
X169258631Y-114530000D01*
X170308674Y-114530000D01*
X170321549Y-114526549D01*
X170325000Y-114513674D01*
X170825000Y-114513674D01*
X170828450Y-114526549D01*
X170841326Y-114530000D01*
X171891369Y-114530000D01*
X171902311Y-114527448D01*
X171901943Y-114516219D01*
X171849831Y-114321736D01*
X171846143Y-114311602D01*
X171750889Y-114107332D01*
X171745491Y-114097982D01*
X171616215Y-113913357D01*
X171609280Y-113905092D01*
X171449909Y-113745721D01*
X171441643Y-113738784D01*
X171257008Y-113609501D01*
X171247676Y-113604113D01*
X171043397Y-113508856D01*
X171033263Y-113505168D01*
X170838780Y-113453056D01*
X170827551Y-113452688D01*
X170825000Y-113463631D01*
X170825000Y-114513674D01*
X170325000Y-114513674D01*
X170325000Y-113463631D01*
X170322448Y-113452688D01*
X170311219Y-113453056D01*
X170116736Y-113505168D01*
X170106602Y-113508856D01*
X169902332Y-113604110D01*
X169892982Y-113609508D01*
X169708357Y-113738784D01*
X169700092Y-113745719D01*
X169540719Y-113905092D01*
X169533784Y-113913357D01*
X169404508Y-114097982D01*
X169399110Y-114107332D01*
X169303856Y-114311602D01*
X169300168Y-114321736D01*
X169248056Y-114516219D01*
X169247688Y-114527448D01*
X159365231Y-114527448D01*
X163907861Y-109984819D01*
X163948090Y-109957939D01*
X163995543Y-109948500D01*
X169405711Y-109948500D01*
X169464728Y-109963445D01*
X169509519Y-110004678D01*
X169524278Y-110027268D01*
X169527753Y-110031043D01*
X169527754Y-110031044D01*
X169673288Y-110189135D01*
X169673291Y-110189138D01*
X169676760Y-110192906D01*
X169680801Y-110196051D01*
X169850376Y-110328039D01*
X169850381Y-110328042D01*
X169854424Y-110331189D01*
X169858931Y-110333628D01*
X169858934Y-110333630D01*
X170047919Y-110435903D01*
X170052426Y-110438342D01*
X170265365Y-110511444D01*
X170487431Y-110548500D01*
X170707436Y-110548500D01*
X170712569Y-110548500D01*
X170934635Y-110511444D01*
X171147574Y-110438342D01*
X171345576Y-110331189D01*
X171523240Y-110192906D01*
X171675722Y-110027268D01*
X171798860Y-109838791D01*
X171889296Y-109632616D01*
X171944564Y-109414368D01*
X171963156Y-109190000D01*
X171944564Y-108965632D01*
X171889296Y-108747384D01*
X171798860Y-108541209D01*
X171675722Y-108352732D01*
X171523240Y-108187094D01*
X171510597Y-108177253D01*
X171349623Y-108051960D01*
X171349615Y-108051955D01*
X171345576Y-108048811D01*
X171341064Y-108046369D01*
X171341061Y-108046367D01*
X171309070Y-108029055D01*
X171261564Y-107983474D01*
X171244086Y-107920000D01*
X171261564Y-107856526D01*
X171309070Y-107810945D01*
X171309109Y-107810923D01*
X171345576Y-107791189D01*
X171523240Y-107652906D01*
X171675722Y-107487268D01*
X171798860Y-107298791D01*
X171889296Y-107092616D01*
X171944564Y-106874368D01*
X171963156Y-106650000D01*
X171944564Y-106425632D01*
X171889296Y-106207384D01*
X171798860Y-106001209D01*
X171675722Y-105812732D01*
X171523240Y-105647094D01*
X171481856Y-105614883D01*
X171349623Y-105511960D01*
X171349615Y-105511955D01*
X171345576Y-105508811D01*
X171341064Y-105506369D01*
X171341061Y-105506367D01*
X171309070Y-105489055D01*
X171261564Y-105443474D01*
X171244086Y-105380000D01*
X171261564Y-105316526D01*
X171309070Y-105270945D01*
X171309109Y-105270923D01*
X171345576Y-105251189D01*
X171523240Y-105112906D01*
X171675722Y-104947268D01*
X171682644Y-104936672D01*
X171721881Y-104898634D01*
X171773660Y-104881157D01*
X171827924Y-104887636D01*
X171874133Y-104916814D01*
X172305181Y-105347862D01*
X172332061Y-105388090D01*
X172341500Y-105435543D01*
X172341500Y-115704457D01*
X172332061Y-115751910D01*
X172305183Y-115792135D01*
X172057976Y-116039342D01*
X171976065Y-116121253D01*
X171914750Y-116154735D01*
X171845066Y-116149759D01*
X171802242Y-116117713D01*
X171799847Y-116120109D01*
X171793573Y-116113835D01*
X171788261Y-116106739D01*
X171724382Y-116058920D01*
X171678304Y-116024426D01*
X171678303Y-116024425D01*
X171671204Y-116019111D01*
X171662896Y-116016012D01*
X171662894Y-116016011D01*
X171576432Y-115983762D01*
X171541618Y-115970777D01*
X171491240Y-115935798D01*
X171463787Y-115880954D01*
X171465976Y-115819661D01*
X171497272Y-115766914D01*
X171609284Y-115654902D01*
X171616215Y-115646643D01*
X171745498Y-115462008D01*
X171750886Y-115452676D01*
X171846143Y-115248397D01*
X171849831Y-115238263D01*
X171901943Y-115043780D01*
X171902311Y-115032551D01*
X171891369Y-115030000D01*
X169258631Y-115030000D01*
X169247688Y-115032551D01*
X169248056Y-115043780D01*
X169300168Y-115238263D01*
X169303856Y-115248397D01*
X169399113Y-115452676D01*
X169404501Y-115462008D01*
X169533784Y-115646643D01*
X169540721Y-115654909D01*
X169652727Y-115766915D01*
X169684023Y-115819661D01*
X169686212Y-115880954D01*
X169658759Y-115935798D01*
X169608380Y-115970778D01*
X169487105Y-116016011D01*
X169487099Y-116016013D01*
X169478796Y-116019111D01*
X169471698Y-116024423D01*
X169471695Y-116024426D01*
X169368835Y-116101426D01*
X169368831Y-116101429D01*
X169361739Y-116106739D01*
X169356429Y-116113831D01*
X169356426Y-116113835D01*
X169279426Y-116216695D01*
X169279423Y-116216698D01*
X169274111Y-116223796D01*
X169271013Y-116232099D01*
X169271011Y-116232105D01*
X169225719Y-116353536D01*
X169225717Y-116353543D01*
X169223011Y-116360799D01*
X169222182Y-116368500D01*
X169222182Y-116368505D01*
X169218560Y-116402196D01*
X169216500Y-116421362D01*
X169216500Y-116424672D01*
X169216500Y-116437500D01*
X169199887Y-116499500D01*
X169154500Y-116544887D01*
X169092500Y-116561500D01*
X165494295Y-116561500D01*
X165476323Y-116560191D01*
X165472935Y-116559694D01*
X165452211Y-116556659D01*
X165445019Y-116557288D01*
X165445013Y-116557288D01*
X165407121Y-116560603D01*
X165402272Y-116561028D01*
X165391467Y-116561500D01*
X165385820Y-116561500D01*
X165382258Y-116561916D01*
X165382246Y-116561917D01*
X165354682Y-116565139D01*
X165351096Y-116565505D01*
X165282768Y-116571483D01*
X165282763Y-116571483D01*
X165275574Y-116572113D01*
X165268721Y-116574382D01*
X165265035Y-116575144D01*
X165264866Y-116575171D01*
X165264708Y-116575216D01*
X165261050Y-116576083D01*
X165253887Y-116576921D01*
X165247108Y-116579388D01*
X165247109Y-116579388D01*
X165182651Y-116602848D01*
X165179249Y-116604030D01*
X165114114Y-116625614D01*
X165114103Y-116625618D01*
X165107262Y-116627886D01*
X165101126Y-116631670D01*
X165097721Y-116633258D01*
X165097554Y-116633326D01*
X165097402Y-116633412D01*
X165094044Y-116635098D01*
X165087268Y-116637565D01*
X165081244Y-116641526D01*
X165081234Y-116641532D01*
X165023900Y-116679241D01*
X165020860Y-116681178D01*
X164962495Y-116717178D01*
X164962488Y-116717183D01*
X164956349Y-116720970D01*
X164951248Y-116726070D01*
X164948304Y-116728398D01*
X164948157Y-116728504D01*
X164948035Y-116728616D01*
X164945152Y-116731034D01*
X164939126Y-116734999D01*
X164934176Y-116740245D01*
X164934173Y-116740248D01*
X164887053Y-116790191D01*
X164884541Y-116792776D01*
X156822138Y-124855181D01*
X156781910Y-124882061D01*
X156734457Y-124891500D01*
X155055168Y-124891500D01*
X154991303Y-124873789D01*
X154945682Y-124825714D01*
X154931338Y-124761010D01*
X154952367Y-124698160D01*
X155002763Y-124655118D01*
X155172676Y-124575886D01*
X155182008Y-124570498D01*
X155366643Y-124441215D01*
X155374909Y-124434278D01*
X155534278Y-124274909D01*
X155541215Y-124266643D01*
X155670498Y-124082008D01*
X155675886Y-124072676D01*
X155771143Y-123868397D01*
X155774831Y-123858263D01*
X155826943Y-123663780D01*
X155827311Y-123652551D01*
X155816369Y-123650000D01*
X153183631Y-123650000D01*
X153172688Y-123652551D01*
X153173056Y-123663780D01*
X153225168Y-123858263D01*
X153228856Y-123868397D01*
X153324113Y-124072676D01*
X153329501Y-124082008D01*
X153458784Y-124266643D01*
X153465721Y-124274909D01*
X153625090Y-124434278D01*
X153633356Y-124441215D01*
X153817991Y-124570498D01*
X153827323Y-124575886D01*
X153997237Y-124655118D01*
X154047633Y-124698160D01*
X154068662Y-124761010D01*
X154054318Y-124825714D01*
X154008697Y-124873789D01*
X153944832Y-124891500D01*
X131685543Y-124891500D01*
X131638090Y-124882061D01*
X131597862Y-124855181D01*
X130481569Y-123738888D01*
X130452826Y-123693885D01*
X130445674Y-123640967D01*
X130462732Y-123435117D01*
X130463156Y-123430000D01*
X130444564Y-123205632D01*
X130389296Y-122987384D01*
X130298860Y-122781209D01*
X130175722Y-122592732D01*
X130121063Y-122533357D01*
X130026711Y-122430864D01*
X130026708Y-122430861D01*
X130023240Y-122427094D01*
X129944389Y-122365721D01*
X129849623Y-122291960D01*
X129849615Y-122291955D01*
X129845576Y-122288811D01*
X129841064Y-122286369D01*
X129841061Y-122286367D01*
X129809070Y-122269055D01*
X129761564Y-122223474D01*
X129744086Y-122160000D01*
X129761564Y-122096526D01*
X129809070Y-122050945D01*
X129809109Y-122050923D01*
X129845576Y-122031189D01*
X130023240Y-121892906D01*
X130175722Y-121727268D01*
X130298860Y-121538791D01*
X130389296Y-121332616D01*
X130444564Y-121114368D01*
X130463156Y-120890000D01*
X130444564Y-120665632D01*
X130389296Y-120447384D01*
X130298860Y-120241209D01*
X130175722Y-120052732D01*
X130023240Y-119887094D01*
X129989540Y-119860864D01*
X129849623Y-119751960D01*
X129849615Y-119751955D01*
X129845576Y-119748811D01*
X129841064Y-119746369D01*
X129841061Y-119746367D01*
X129809070Y-119729055D01*
X129761564Y-119683474D01*
X129744086Y-119620000D01*
X129761564Y-119556526D01*
X129809070Y-119510945D01*
X129809109Y-119510923D01*
X129845576Y-119491189D01*
X130023240Y-119352906D01*
X130175722Y-119187268D01*
X130298860Y-118998791D01*
X130389296Y-118792616D01*
X130444564Y-118574368D01*
X130463156Y-118350000D01*
X130444564Y-118125632D01*
X130389296Y-117907384D01*
X130298860Y-117701209D01*
X130175722Y-117512732D01*
X130023240Y-117347094D01*
X129989540Y-117320864D01*
X129849623Y-117211960D01*
X129849615Y-117211955D01*
X129845576Y-117208811D01*
X129841066Y-117206370D01*
X129841061Y-117206367D01*
X129809070Y-117189055D01*
X129761564Y-117143474D01*
X129744086Y-117080000D01*
X129761564Y-117016526D01*
X129809070Y-116970945D01*
X129809109Y-116970923D01*
X129845576Y-116951189D01*
X130023240Y-116812906D01*
X130175722Y-116647268D01*
X130298860Y-116458791D01*
X130389296Y-116252616D01*
X130444564Y-116034368D01*
X130463156Y-115810000D01*
X130444564Y-115585632D01*
X130389296Y-115367384D01*
X130298860Y-115161209D01*
X130175722Y-114972732D01*
X130023240Y-114807094D01*
X129989540Y-114780864D01*
X129849623Y-114671960D01*
X129849615Y-114671955D01*
X129845576Y-114668811D01*
X129841064Y-114666369D01*
X129841061Y-114666367D01*
X129809070Y-114649055D01*
X129761564Y-114603474D01*
X129744086Y-114540000D01*
X129761564Y-114476526D01*
X129809070Y-114430945D01*
X129809109Y-114430923D01*
X129845576Y-114411189D01*
X130023240Y-114272906D01*
X130175722Y-114107268D01*
X130298860Y-113918791D01*
X130389296Y-113712616D01*
X130444564Y-113494368D01*
X130463156Y-113270000D01*
X130444564Y-113045632D01*
X130389296Y-112827384D01*
X130298860Y-112621209D01*
X130175722Y-112432732D01*
X130023240Y-112267094D01*
X129989540Y-112240864D01*
X129849623Y-112131960D01*
X129849615Y-112131955D01*
X129845576Y-112128811D01*
X129841071Y-112126373D01*
X129841065Y-112126369D01*
X129802305Y-112105394D01*
X129756665Y-112062844D01*
X129737526Y-112003454D01*
X129749734Y-111942263D01*
X129790198Y-111894764D01*
X129966643Y-111771215D01*
X129974909Y-111764278D01*
X130134278Y-111604909D01*
X130141215Y-111596643D01*
X130270498Y-111412008D01*
X130275886Y-111402676D01*
X130371143Y-111198397D01*
X130374831Y-111188263D01*
X130426943Y-110993780D01*
X130427311Y-110982551D01*
X130416369Y-110980000D01*
X127783631Y-110980000D01*
X127772688Y-110982551D01*
X127773056Y-110993780D01*
X127825168Y-111188263D01*
X127828856Y-111198397D01*
X127924113Y-111402676D01*
X127929501Y-111412008D01*
X128058784Y-111596643D01*
X128065721Y-111604909D01*
X128225090Y-111764278D01*
X128233356Y-111771215D01*
X128409801Y-111894764D01*
X128450264Y-111942263D01*
X128462473Y-112003454D01*
X128443334Y-112062844D01*
X128397695Y-112105393D01*
X128358939Y-112126366D01*
X128358924Y-112126375D01*
X128354424Y-112128811D01*
X128350389Y-112131951D01*
X128350376Y-112131960D01*
X128180801Y-112263948D01*
X128180795Y-112263952D01*
X128176760Y-112267094D01*
X128173297Y-112270855D01*
X128173288Y-112270864D01*
X128027753Y-112428956D01*
X128027747Y-112428963D01*
X128024278Y-112432732D01*
X128021481Y-112437012D01*
X128021474Y-112437022D01*
X127923542Y-112586920D01*
X127901140Y-112621209D01*
X127899085Y-112625892D01*
X127899080Y-112625903D01*
X127825923Y-112792687D01*
X127810704Y-112827384D01*
X127809446Y-112832349D01*
X127809445Y-112832354D01*
X127756695Y-113040657D01*
X127756693Y-113040666D01*
X127755436Y-113045632D01*
X127755012Y-113050741D01*
X127755011Y-113050751D01*
X127739754Y-113234883D01*
X127736844Y-113270000D01*
X127737268Y-113275117D01*
X127755011Y-113489248D01*
X127755012Y-113489256D01*
X127755436Y-113494368D01*
X127756693Y-113499335D01*
X127756695Y-113499342D01*
X127784593Y-113609508D01*
X127810704Y-113712616D01*
X127812764Y-113717312D01*
X127899080Y-113914096D01*
X127899083Y-113914101D01*
X127901140Y-113918791D01*
X127960505Y-114009656D01*
X128021474Y-114102977D01*
X128021477Y-114102981D01*
X128024278Y-114107268D01*
X128027752Y-114111041D01*
X128027753Y-114111043D01*
X128173288Y-114269135D01*
X128173291Y-114269138D01*
X128176760Y-114272906D01*
X128180801Y-114276051D01*
X128350376Y-114408039D01*
X128350381Y-114408042D01*
X128354424Y-114411189D01*
X128358931Y-114413628D01*
X128358934Y-114413630D01*
X128390930Y-114430945D01*
X128438436Y-114476526D01*
X128455913Y-114540000D01*
X128438436Y-114603474D01*
X128390930Y-114649055D01*
X128358934Y-114666369D01*
X128358922Y-114666376D01*
X128354424Y-114668811D01*
X128350389Y-114671951D01*
X128350376Y-114671960D01*
X128180801Y-114803948D01*
X128180795Y-114803952D01*
X128176760Y-114807094D01*
X128173297Y-114810855D01*
X128173288Y-114810864D01*
X128027753Y-114968956D01*
X128027747Y-114968963D01*
X128024278Y-114972732D01*
X128021481Y-114977012D01*
X128021474Y-114977022D01*
X127923542Y-115126920D01*
X127901140Y-115161209D01*
X127899085Y-115165892D01*
X127899080Y-115165903D01*
X127825923Y-115332687D01*
X127810704Y-115367384D01*
X127809446Y-115372349D01*
X127809445Y-115372354D01*
X127756695Y-115580657D01*
X127756693Y-115580666D01*
X127755436Y-115585632D01*
X127755012Y-115590741D01*
X127755011Y-115590751D01*
X127740414Y-115766914D01*
X127736844Y-115810000D01*
X127737268Y-115815117D01*
X127755011Y-116029248D01*
X127755012Y-116029256D01*
X127755436Y-116034368D01*
X127756693Y-116039335D01*
X127756695Y-116039342D01*
X127806477Y-116235925D01*
X127810704Y-116252616D01*
X127812764Y-116257312D01*
X127899080Y-116454096D01*
X127899083Y-116454101D01*
X127901140Y-116458791D01*
X127957389Y-116544887D01*
X128021474Y-116642977D01*
X128021477Y-116642981D01*
X128024278Y-116647268D01*
X128027752Y-116651041D01*
X128027753Y-116651043D01*
X128173288Y-116809135D01*
X128173291Y-116809138D01*
X128176760Y-116812906D01*
X128180801Y-116816051D01*
X128350376Y-116948039D01*
X128350381Y-116948042D01*
X128354424Y-116951189D01*
X128390930Y-116970945D01*
X128438434Y-117016523D01*
X128455913Y-117079996D01*
X128438437Y-117143471D01*
X128390933Y-117189053D01*
X128358930Y-117206372D01*
X128358925Y-117206374D01*
X128354424Y-117208811D01*
X128350389Y-117211951D01*
X128350376Y-117211960D01*
X128180801Y-117343948D01*
X128180795Y-117343952D01*
X128176760Y-117347094D01*
X128173297Y-117350855D01*
X128173288Y-117350864D01*
X128027753Y-117508956D01*
X128027747Y-117508963D01*
X128024278Y-117512732D01*
X128021481Y-117517012D01*
X128021474Y-117517022D01*
X127923542Y-117666920D01*
X127901140Y-117701209D01*
X127899085Y-117705892D01*
X127899080Y-117705903D01*
X127812764Y-117902687D01*
X127810704Y-117907384D01*
X127809446Y-117912349D01*
X127809445Y-117912354D01*
X127756695Y-118120657D01*
X127756693Y-118120666D01*
X127755436Y-118125632D01*
X127755012Y-118130741D01*
X127755011Y-118130751D01*
X127742109Y-118286463D01*
X127736844Y-118350000D01*
X127737268Y-118355117D01*
X127755011Y-118569248D01*
X127755012Y-118569256D01*
X127755436Y-118574368D01*
X127756693Y-118579335D01*
X127756695Y-118579342D01*
X127801848Y-118757645D01*
X127810704Y-118792616D01*
X127812764Y-118797312D01*
X127899080Y-118994096D01*
X127899083Y-118994101D01*
X127901140Y-118998791D01*
X127960505Y-119089656D01*
X128021474Y-119182977D01*
X128021477Y-119182981D01*
X128024278Y-119187268D01*
X128027752Y-119191041D01*
X128027753Y-119191043D01*
X128173288Y-119349135D01*
X128173291Y-119349138D01*
X128176760Y-119352906D01*
X128180801Y-119356051D01*
X128350376Y-119488039D01*
X128350381Y-119488042D01*
X128354424Y-119491189D01*
X128358931Y-119493628D01*
X128358934Y-119493630D01*
X128390930Y-119510945D01*
X128438436Y-119556526D01*
X128455913Y-119620000D01*
X128438436Y-119683474D01*
X128390930Y-119729055D01*
X128358934Y-119746369D01*
X128358922Y-119746376D01*
X128354424Y-119748811D01*
X128350389Y-119751951D01*
X128350376Y-119751960D01*
X128180801Y-119883948D01*
X128180795Y-119883952D01*
X128176760Y-119887094D01*
X128173297Y-119890855D01*
X128173288Y-119890864D01*
X128027753Y-120048956D01*
X128027747Y-120048963D01*
X128024278Y-120052732D01*
X128021481Y-120057012D01*
X128021474Y-120057022D01*
X127923542Y-120206920D01*
X127901140Y-120241209D01*
X127899085Y-120245892D01*
X127899080Y-120245903D01*
X127825923Y-120412687D01*
X127810704Y-120447384D01*
X127809446Y-120452349D01*
X127809445Y-120452354D01*
X127756695Y-120660657D01*
X127756693Y-120660666D01*
X127755436Y-120665632D01*
X127755012Y-120670741D01*
X127755011Y-120670751D01*
X127739754Y-120854883D01*
X127736844Y-120890000D01*
X127737268Y-120895117D01*
X127755011Y-121109248D01*
X127755012Y-121109256D01*
X127755436Y-121114368D01*
X127756693Y-121119335D01*
X127756695Y-121119342D01*
X127801848Y-121297645D01*
X127810704Y-121332616D01*
X127812764Y-121337312D01*
X127899080Y-121534096D01*
X127899083Y-121534101D01*
X127901140Y-121538791D01*
X127960505Y-121629656D01*
X128021474Y-121722977D01*
X128021477Y-121722981D01*
X128024278Y-121727268D01*
X128027752Y-121731041D01*
X128027753Y-121731043D01*
X128173288Y-121889135D01*
X128173291Y-121889138D01*
X128176760Y-121892906D01*
X128180801Y-121896051D01*
X128350376Y-122028039D01*
X128350381Y-122028042D01*
X128354424Y-122031189D01*
X128358931Y-122033628D01*
X128358934Y-122033630D01*
X128390930Y-122050945D01*
X128438436Y-122096526D01*
X128455913Y-122160000D01*
X128438436Y-122223474D01*
X128390930Y-122269055D01*
X128358934Y-122286369D01*
X128358922Y-122286376D01*
X128354424Y-122288811D01*
X128350389Y-122291951D01*
X128350376Y-122291960D01*
X128180801Y-122423948D01*
X128180795Y-122423952D01*
X128176760Y-122427094D01*
X128173297Y-122430855D01*
X128173288Y-122430864D01*
X128027753Y-122588956D01*
X128027747Y-122588963D01*
X128024278Y-122592732D01*
X128021481Y-122597012D01*
X128021474Y-122597022D01*
X127903942Y-122776920D01*
X127901140Y-122781209D01*
X127899085Y-122785892D01*
X127899080Y-122785903D01*
X127812764Y-122982687D01*
X127810704Y-122987384D01*
X127809446Y-122992349D01*
X127809445Y-122992354D01*
X127756695Y-123200657D01*
X127756693Y-123200666D01*
X127755436Y-123205632D01*
X127755012Y-123210741D01*
X127755011Y-123210751D01*
X127737268Y-123424883D01*
X127736844Y-123430000D01*
X126600500Y-123430000D01*
X126600500Y-108190000D01*
X127736844Y-108190000D01*
X127737268Y-108195117D01*
X127755011Y-108409248D01*
X127755012Y-108409256D01*
X127755436Y-108414368D01*
X127756693Y-108419335D01*
X127756695Y-108419342D01*
X127807069Y-108618263D01*
X127810704Y-108632616D01*
X127812764Y-108637312D01*
X127899080Y-108834096D01*
X127899083Y-108834101D01*
X127901140Y-108838791D01*
X127960505Y-108929656D01*
X128021474Y-109022977D01*
X128021477Y-109022981D01*
X128024278Y-109027268D01*
X128027752Y-109031041D01*
X128027753Y-109031043D01*
X128173288Y-109189135D01*
X128173291Y-109189138D01*
X128176760Y-109192906D01*
X128227278Y-109232226D01*
X128350376Y-109328039D01*
X128350381Y-109328042D01*
X128354424Y-109331189D01*
X128397691Y-109354604D01*
X128397695Y-109354606D01*
X128443335Y-109397155D01*
X128462475Y-109456545D01*
X128450267Y-109517737D01*
X128409803Y-109565236D01*
X128233352Y-109688788D01*
X128225092Y-109695719D01*
X128065719Y-109855092D01*
X128058784Y-109863357D01*
X127929508Y-110047982D01*
X127924110Y-110057332D01*
X127828856Y-110261602D01*
X127825168Y-110271736D01*
X127773056Y-110466219D01*
X127772688Y-110477448D01*
X127783631Y-110480000D01*
X130416369Y-110480000D01*
X130427311Y-110477448D01*
X130426943Y-110466219D01*
X130374831Y-110271736D01*
X130371143Y-110261602D01*
X130275889Y-110057332D01*
X130270491Y-110047982D01*
X130141215Y-109863357D01*
X130134280Y-109855092D01*
X129974909Y-109695721D01*
X129966635Y-109688778D01*
X129790198Y-109565234D01*
X129749734Y-109517735D01*
X129737526Y-109456543D01*
X129756666Y-109397153D01*
X129802304Y-109354606D01*
X129845576Y-109331189D01*
X130023240Y-109192906D01*
X130175722Y-109027268D01*
X130298860Y-108838791D01*
X130389296Y-108632616D01*
X130444564Y-108414368D01*
X130463156Y-108190000D01*
X130444564Y-107965632D01*
X130389296Y-107747384D01*
X130298860Y-107541209D01*
X130175722Y-107352732D01*
X130130013Y-107303079D01*
X130026711Y-107190864D01*
X130026708Y-107190861D01*
X130023240Y-107187094D01*
X129944389Y-107125721D01*
X129849623Y-107051960D01*
X129849615Y-107051955D01*
X129845576Y-107048811D01*
X129841064Y-107046369D01*
X129841061Y-107046367D01*
X129809070Y-107029055D01*
X129761564Y-106983474D01*
X129744086Y-106920000D01*
X129761564Y-106856526D01*
X129809070Y-106810945D01*
X129809109Y-106810923D01*
X129845576Y-106791189D01*
X130023240Y-106652906D01*
X130175722Y-106487268D01*
X130298860Y-106298791D01*
X130389296Y-106092616D01*
X130444564Y-105874368D01*
X130463156Y-105650000D01*
X130444564Y-105425632D01*
X130389296Y-105207384D01*
X130298860Y-105001209D01*
X130175722Y-104812732D01*
X130130013Y-104763079D01*
X130026711Y-104650864D01*
X130026708Y-104650861D01*
X130023240Y-104647094D01*
X129989540Y-104620864D01*
X129849623Y-104511960D01*
X129849615Y-104511955D01*
X129845576Y-104508811D01*
X129841066Y-104506370D01*
X129841061Y-104506367D01*
X129809070Y-104489055D01*
X129761564Y-104443474D01*
X129744086Y-104380000D01*
X129761564Y-104316526D01*
X129809070Y-104270945D01*
X129809109Y-104270923D01*
X129845576Y-104251189D01*
X130023240Y-104112906D01*
X130175722Y-103947268D01*
X130298860Y-103758791D01*
X130389296Y-103552616D01*
X130444564Y-103334368D01*
X130463156Y-103110000D01*
X130444564Y-102885632D01*
X130389296Y-102667384D01*
X130298860Y-102461209D01*
X130175722Y-102272732D01*
X130023240Y-102107094D01*
X129989540Y-102080864D01*
X129849623Y-101971960D01*
X129849615Y-101971955D01*
X129845576Y-101968811D01*
X129841064Y-101966369D01*
X129841061Y-101966367D01*
X129809070Y-101949055D01*
X129761564Y-101903474D01*
X129744086Y-101840000D01*
X129761564Y-101776526D01*
X129809070Y-101730945D01*
X129809109Y-101730923D01*
X129845576Y-101711189D01*
X130023240Y-101572906D01*
X130175722Y-101407268D01*
X130298860Y-101218791D01*
X130389296Y-101012616D01*
X130444564Y-100794368D01*
X130463156Y-100570000D01*
X130444564Y-100345632D01*
X130389296Y-100127384D01*
X130298860Y-99921209D01*
X130175722Y-99732732D01*
X130023240Y-99567094D01*
X129989540Y-99540864D01*
X129849623Y-99431960D01*
X129849615Y-99431955D01*
X129845576Y-99428811D01*
X129841064Y-99426369D01*
X129841061Y-99426367D01*
X129809070Y-99409055D01*
X129761564Y-99363474D01*
X129744086Y-99300000D01*
X129761564Y-99236526D01*
X129809070Y-99190945D01*
X129809109Y-99190923D01*
X129845576Y-99171189D01*
X130023240Y-99032906D01*
X130175722Y-98867268D01*
X130298860Y-98678791D01*
X130389296Y-98472616D01*
X130444564Y-98254368D01*
X130463156Y-98030000D01*
X130444564Y-97805632D01*
X130389296Y-97587384D01*
X130298860Y-97381209D01*
X130175722Y-97192732D01*
X130023240Y-97027094D01*
X129989540Y-97000864D01*
X129849623Y-96891960D01*
X129849615Y-96891955D01*
X129845576Y-96888811D01*
X129841069Y-96886372D01*
X129841060Y-96886366D01*
X129809068Y-96869053D01*
X129761562Y-96823471D01*
X129744086Y-96759996D01*
X129761565Y-96696522D01*
X129809067Y-96650946D01*
X129845576Y-96631189D01*
X130023240Y-96492906D01*
X130175722Y-96327268D01*
X130298860Y-96138791D01*
X130389296Y-95932616D01*
X130444564Y-95714368D01*
X130463156Y-95490000D01*
X130444564Y-95265632D01*
X130389296Y-95047384D01*
X130298860Y-94841209D01*
X130175722Y-94652732D01*
X130023240Y-94487094D01*
X129989540Y-94460864D01*
X129849623Y-94351960D01*
X129849615Y-94351955D01*
X129845576Y-94348811D01*
X129841064Y-94346369D01*
X129841061Y-94346367D01*
X129809070Y-94329055D01*
X129761564Y-94283474D01*
X129744086Y-94220000D01*
X129761564Y-94156526D01*
X129809070Y-94110945D01*
X129809109Y-94110923D01*
X129845576Y-94091189D01*
X130023240Y-93952906D01*
X130175722Y-93787268D01*
X130298860Y-93598791D01*
X130389296Y-93392616D01*
X130444564Y-93174368D01*
X130463156Y-92950000D01*
X130444564Y-92725632D01*
X130389296Y-92507384D01*
X130298860Y-92301209D01*
X130175722Y-92112732D01*
X130023240Y-91947094D01*
X129989540Y-91920864D01*
X129849623Y-91811960D01*
X129849615Y-91811955D01*
X129845576Y-91808811D01*
X129841064Y-91806369D01*
X129841061Y-91806367D01*
X129809070Y-91789055D01*
X129761564Y-91743474D01*
X129744086Y-91680000D01*
X129761564Y-91616526D01*
X129809070Y-91570945D01*
X129809109Y-91570923D01*
X129845576Y-91551189D01*
X130023240Y-91412906D01*
X130175722Y-91247268D01*
X130298860Y-91058791D01*
X130389296Y-90852616D01*
X130444564Y-90634368D01*
X130463156Y-90410000D01*
X130444564Y-90185632D01*
X130389296Y-89967384D01*
X130298860Y-89761209D01*
X130175722Y-89572732D01*
X130023240Y-89407094D01*
X129989540Y-89380864D01*
X129849623Y-89271960D01*
X129849615Y-89271955D01*
X129845576Y-89268811D01*
X129841064Y-89266369D01*
X129841061Y-89266367D01*
X129809070Y-89249055D01*
X129761564Y-89203474D01*
X129744086Y-89140000D01*
X129761564Y-89076526D01*
X129809070Y-89030945D01*
X129809109Y-89030923D01*
X129845576Y-89011189D01*
X130023240Y-88872906D01*
X130175722Y-88707268D01*
X130298860Y-88518791D01*
X130389296Y-88312616D01*
X130444564Y-88094368D01*
X130463156Y-87870000D01*
X130444564Y-87645632D01*
X130389296Y-87427384D01*
X130298860Y-87221209D01*
X130175722Y-87032732D01*
X130023240Y-86867094D01*
X129989540Y-86840864D01*
X129849623Y-86731960D01*
X129849615Y-86731955D01*
X129845576Y-86728811D01*
X129841064Y-86726369D01*
X129841061Y-86726367D01*
X129809070Y-86709055D01*
X129761564Y-86663474D01*
X129744086Y-86600000D01*
X129761564Y-86536526D01*
X129809070Y-86490945D01*
X129809109Y-86490923D01*
X129845576Y-86471189D01*
X130023240Y-86332906D01*
X130175722Y-86167268D01*
X130298860Y-85978791D01*
X130389296Y-85772616D01*
X130444564Y-85554368D01*
X130463156Y-85330000D01*
X130444564Y-85105632D01*
X130389296Y-84887384D01*
X130298860Y-84681209D01*
X130175722Y-84492732D01*
X130075743Y-84384127D01*
X130026711Y-84330864D01*
X130026708Y-84330861D01*
X130023240Y-84327094D01*
X129989540Y-84300864D01*
X129849623Y-84191960D01*
X129849615Y-84191955D01*
X129845576Y-84188811D01*
X129841069Y-84186372D01*
X129841060Y-84186366D01*
X129809068Y-84169053D01*
X129761562Y-84123471D01*
X129744086Y-84059996D01*
X129761565Y-83996522D01*
X129809067Y-83950946D01*
X129845576Y-83931189D01*
X130023240Y-83792906D01*
X130175722Y-83627268D01*
X130298860Y-83438791D01*
X130389296Y-83232616D01*
X130444564Y-83014368D01*
X130463156Y-82790000D01*
X130444564Y-82565632D01*
X130389296Y-82347384D01*
X130298860Y-82141209D01*
X130175722Y-81952732D01*
X130023240Y-81787094D01*
X129989540Y-81760864D01*
X129849623Y-81651960D01*
X129849615Y-81651955D01*
X129845576Y-81648811D01*
X129841064Y-81646369D01*
X129841061Y-81646367D01*
X129809070Y-81629055D01*
X129761564Y-81583474D01*
X129744086Y-81520000D01*
X129761564Y-81456526D01*
X129809070Y-81410945D01*
X129816506Y-81406921D01*
X129845576Y-81391189D01*
X130023240Y-81252906D01*
X130175722Y-81087268D01*
X130298860Y-80898791D01*
X130389296Y-80692616D01*
X130444564Y-80474368D01*
X130463156Y-80250000D01*
X130444564Y-80025632D01*
X130389296Y-79807384D01*
X130298860Y-79601209D01*
X130175722Y-79412732D01*
X130030506Y-79254987D01*
X130001735Y-79202239D01*
X130001142Y-79142152D01*
X130028869Y-79088841D01*
X130078404Y-79054826D01*
X130196204Y-79010889D01*
X130313261Y-78923261D01*
X130400889Y-78806204D01*
X130451989Y-78669201D01*
X130458500Y-78608638D01*
X130458500Y-76811362D01*
X130451989Y-76750799D01*
X130400889Y-76613796D01*
X130313261Y-76496739D01*
X130266088Y-76461426D01*
X130203304Y-76414426D01*
X130203303Y-76414425D01*
X130196204Y-76409111D01*
X130187896Y-76406012D01*
X130187894Y-76406011D01*
X130066463Y-76360719D01*
X130066458Y-76360717D01*
X130059201Y-76358011D01*
X130051497Y-76357182D01*
X130051494Y-76357182D01*
X130001924Y-76351853D01*
X130001918Y-76351852D01*
X129998638Y-76351500D01*
X128201362Y-76351500D01*
X128198082Y-76351852D01*
X128198075Y-76351853D01*
X128148505Y-76357182D01*
X128148500Y-76357182D01*
X128140799Y-76358011D01*
X128133543Y-76360717D01*
X128133536Y-76360719D01*
X128012105Y-76406011D01*
X128012099Y-76406013D01*
X128003796Y-76409111D01*
X127996698Y-76414423D01*
X127996695Y-76414426D01*
X127893835Y-76491426D01*
X127893831Y-76491429D01*
X127886739Y-76496739D01*
X127881429Y-76503831D01*
X127881426Y-76503835D01*
X127804426Y-76606695D01*
X127804423Y-76606698D01*
X127799111Y-76613796D01*
X127796013Y-76622099D01*
X127796011Y-76622105D01*
X127750719Y-76743536D01*
X127750717Y-76743543D01*
X127748011Y-76750799D01*
X127747182Y-76758500D01*
X127747182Y-76758505D01*
X127744725Y-76781362D01*
X127741500Y-76811362D01*
X127741500Y-78608638D01*
X127741852Y-78611918D01*
X127741853Y-78611924D01*
X127744785Y-78639201D01*
X127748011Y-78669201D01*
X127750717Y-78676458D01*
X127750719Y-78676463D01*
X127796011Y-78797894D01*
X127799111Y-78806204D01*
X127886739Y-78923261D01*
X128003796Y-79010889D01*
X128121595Y-79054826D01*
X128171130Y-79088841D01*
X128198857Y-79142152D01*
X128198264Y-79202238D01*
X128169490Y-79254991D01*
X128027753Y-79408956D01*
X128027747Y-79408963D01*
X128024278Y-79412732D01*
X128021481Y-79417012D01*
X128021474Y-79417022D01*
X127923542Y-79566920D01*
X127901140Y-79601209D01*
X127899085Y-79605892D01*
X127899080Y-79605903D01*
X127825923Y-79772687D01*
X127810704Y-79807384D01*
X127809446Y-79812349D01*
X127809445Y-79812354D01*
X127756695Y-80020657D01*
X127756693Y-80020666D01*
X127755436Y-80025632D01*
X127755012Y-80030741D01*
X127755011Y-80030751D01*
X127744368Y-80159201D01*
X127736844Y-80250000D01*
X127737268Y-80255117D01*
X127755011Y-80469248D01*
X127755012Y-80469256D01*
X127755436Y-80474368D01*
X127756693Y-80479335D01*
X127756695Y-80479342D01*
X127799408Y-80648011D01*
X127810704Y-80692616D01*
X127812764Y-80697312D01*
X127899080Y-80894096D01*
X127899083Y-80894101D01*
X127901140Y-80898791D01*
X127912096Y-80915560D01*
X128021474Y-81082977D01*
X128021477Y-81082981D01*
X128024278Y-81087268D01*
X128027752Y-81091041D01*
X128027753Y-81091043D01*
X128173288Y-81249135D01*
X128173291Y-81249138D01*
X128176760Y-81252906D01*
X128180801Y-81256051D01*
X128350376Y-81388039D01*
X128350381Y-81388042D01*
X128354424Y-81391189D01*
X128358931Y-81393628D01*
X128358934Y-81393630D01*
X128390930Y-81410945D01*
X128438436Y-81456526D01*
X128455913Y-81520000D01*
X128438436Y-81583474D01*
X128390930Y-81629055D01*
X128358934Y-81646369D01*
X128358922Y-81646376D01*
X128354424Y-81648811D01*
X128350389Y-81651951D01*
X128350376Y-81651960D01*
X128180801Y-81783948D01*
X128180795Y-81783952D01*
X128176760Y-81787094D01*
X128173297Y-81790855D01*
X128173288Y-81790864D01*
X128027753Y-81948956D01*
X128027747Y-81948963D01*
X128024278Y-81952732D01*
X128021481Y-81957012D01*
X128021474Y-81957022D01*
X127923542Y-82106920D01*
X127901140Y-82141209D01*
X127899085Y-82145892D01*
X127899080Y-82145903D01*
X127825923Y-82312687D01*
X127810704Y-82347384D01*
X127809446Y-82352349D01*
X127809445Y-82352354D01*
X127756695Y-82560657D01*
X127756693Y-82560666D01*
X127755436Y-82565632D01*
X127755012Y-82570741D01*
X127755011Y-82570751D01*
X127739754Y-82754883D01*
X127736844Y-82790000D01*
X127737268Y-82795117D01*
X127755011Y-83009248D01*
X127755012Y-83009256D01*
X127755436Y-83014368D01*
X127756693Y-83019335D01*
X127756695Y-83019342D01*
X127803107Y-83202616D01*
X127810704Y-83232616D01*
X127812764Y-83237312D01*
X127899080Y-83434096D01*
X127899083Y-83434101D01*
X127901140Y-83438791D01*
X127945157Y-83506164D01*
X128021474Y-83622977D01*
X128021477Y-83622981D01*
X128024278Y-83627268D01*
X128027752Y-83631041D01*
X128027753Y-83631043D01*
X128173288Y-83789135D01*
X128173291Y-83789138D01*
X128176760Y-83792906D01*
X128180801Y-83796051D01*
X128350376Y-83928039D01*
X128350381Y-83928042D01*
X128354424Y-83931189D01*
X128390930Y-83950945D01*
X128438434Y-83996523D01*
X128455913Y-84059996D01*
X128438437Y-84123471D01*
X128390933Y-84169053D01*
X128358930Y-84186372D01*
X128358925Y-84186374D01*
X128354424Y-84188811D01*
X128350389Y-84191951D01*
X128350376Y-84191960D01*
X128180801Y-84323948D01*
X128180795Y-84323952D01*
X128176760Y-84327094D01*
X128173297Y-84330855D01*
X128173288Y-84330864D01*
X128027753Y-84488956D01*
X128027747Y-84488963D01*
X128024278Y-84492732D01*
X128021481Y-84497012D01*
X128021474Y-84497022D01*
X127917673Y-84655903D01*
X127901140Y-84681209D01*
X127899085Y-84685892D01*
X127899080Y-84685903D01*
X127825923Y-84852687D01*
X127810704Y-84887384D01*
X127809446Y-84892349D01*
X127809445Y-84892354D01*
X127756695Y-85100657D01*
X127756693Y-85100666D01*
X127755436Y-85105632D01*
X127755012Y-85110741D01*
X127755011Y-85110751D01*
X127739754Y-85294883D01*
X127736844Y-85330000D01*
X127737268Y-85335117D01*
X127755011Y-85549248D01*
X127755012Y-85549256D01*
X127755436Y-85554368D01*
X127756693Y-85559335D01*
X127756695Y-85559342D01*
X127781037Y-85655465D01*
X127810704Y-85772616D01*
X127812764Y-85777312D01*
X127899080Y-85974096D01*
X127899083Y-85974101D01*
X127901140Y-85978791D01*
X127960505Y-86069656D01*
X128021474Y-86162977D01*
X128021477Y-86162981D01*
X128024278Y-86167268D01*
X128027752Y-86171041D01*
X128027753Y-86171043D01*
X128173288Y-86329135D01*
X128173291Y-86329138D01*
X128176760Y-86332906D01*
X128180801Y-86336051D01*
X128350376Y-86468039D01*
X128350381Y-86468042D01*
X128354424Y-86471189D01*
X128358931Y-86473628D01*
X128358934Y-86473630D01*
X128390930Y-86490945D01*
X128438436Y-86536526D01*
X128455913Y-86600000D01*
X128438436Y-86663474D01*
X128390930Y-86709055D01*
X128358934Y-86726369D01*
X128358922Y-86726376D01*
X128354424Y-86728811D01*
X128350389Y-86731951D01*
X128350376Y-86731960D01*
X128180801Y-86863948D01*
X128180795Y-86863952D01*
X128176760Y-86867094D01*
X128173297Y-86870855D01*
X128173288Y-86870864D01*
X128027753Y-87028956D01*
X128027747Y-87028963D01*
X128024278Y-87032732D01*
X128021481Y-87037012D01*
X128021474Y-87037022D01*
X127923542Y-87186920D01*
X127901140Y-87221209D01*
X127899085Y-87225892D01*
X127899080Y-87225903D01*
X127825923Y-87392687D01*
X127810704Y-87427384D01*
X127809446Y-87432349D01*
X127809445Y-87432354D01*
X127756695Y-87640657D01*
X127756693Y-87640666D01*
X127755436Y-87645632D01*
X127755012Y-87650741D01*
X127755011Y-87650751D01*
X127739330Y-87840000D01*
X127736844Y-87870000D01*
X127737268Y-87875117D01*
X127755011Y-88089248D01*
X127755012Y-88089256D01*
X127755436Y-88094368D01*
X127756693Y-88099335D01*
X127756695Y-88099342D01*
X127801848Y-88277645D01*
X127810704Y-88312616D01*
X127812764Y-88317312D01*
X127899080Y-88514096D01*
X127899083Y-88514101D01*
X127901140Y-88518791D01*
X127945861Y-88587241D01*
X128021474Y-88702977D01*
X128021477Y-88702981D01*
X128024278Y-88707268D01*
X128027752Y-88711041D01*
X128027753Y-88711043D01*
X128173288Y-88869135D01*
X128173291Y-88869138D01*
X128176760Y-88872906D01*
X128203649Y-88893835D01*
X128350376Y-89008039D01*
X128350381Y-89008042D01*
X128354424Y-89011189D01*
X128358931Y-89013628D01*
X128358934Y-89013630D01*
X128390930Y-89030945D01*
X128438436Y-89076526D01*
X128455913Y-89140000D01*
X128438436Y-89203474D01*
X128390930Y-89249055D01*
X128358934Y-89266369D01*
X128358922Y-89266376D01*
X128354424Y-89268811D01*
X128350389Y-89271951D01*
X128350376Y-89271960D01*
X128180801Y-89403948D01*
X128180795Y-89403952D01*
X128176760Y-89407094D01*
X128173297Y-89410855D01*
X128173288Y-89410864D01*
X128027753Y-89568956D01*
X128027747Y-89568963D01*
X128024278Y-89572732D01*
X128021481Y-89577012D01*
X128021474Y-89577022D01*
X127923542Y-89726920D01*
X127901140Y-89761209D01*
X127899085Y-89765892D01*
X127899080Y-89765903D01*
X127825923Y-89932687D01*
X127810704Y-89967384D01*
X127809446Y-89972349D01*
X127809445Y-89972354D01*
X127756695Y-90180657D01*
X127756693Y-90180666D01*
X127755436Y-90185632D01*
X127755012Y-90190741D01*
X127755011Y-90190751D01*
X127739754Y-90374883D01*
X127736844Y-90410000D01*
X127737268Y-90415117D01*
X127755011Y-90629248D01*
X127755012Y-90629256D01*
X127755436Y-90634368D01*
X127756693Y-90639335D01*
X127756695Y-90639342D01*
X127801848Y-90817645D01*
X127810704Y-90852616D01*
X127812764Y-90857312D01*
X127899080Y-91054096D01*
X127899083Y-91054101D01*
X127901140Y-91058791D01*
X127938040Y-91115271D01*
X128021474Y-91242977D01*
X128021477Y-91242981D01*
X128024278Y-91247268D01*
X128027752Y-91251041D01*
X128027753Y-91251043D01*
X128173288Y-91409135D01*
X128173291Y-91409138D01*
X128176760Y-91412906D01*
X128180801Y-91416051D01*
X128350376Y-91548039D01*
X128350381Y-91548042D01*
X128354424Y-91551189D01*
X128358931Y-91553628D01*
X128358934Y-91553630D01*
X128390930Y-91570945D01*
X128438436Y-91616526D01*
X128455913Y-91680000D01*
X128438436Y-91743474D01*
X128390930Y-91789055D01*
X128358934Y-91806369D01*
X128358922Y-91806376D01*
X128354424Y-91808811D01*
X128350389Y-91811951D01*
X128350376Y-91811960D01*
X128180801Y-91943948D01*
X128180795Y-91943952D01*
X128176760Y-91947094D01*
X128173297Y-91950855D01*
X128173288Y-91950864D01*
X128027753Y-92108956D01*
X128027747Y-92108963D01*
X128024278Y-92112732D01*
X128021481Y-92117012D01*
X128021474Y-92117022D01*
X127923542Y-92266920D01*
X127901140Y-92301209D01*
X127899085Y-92305892D01*
X127899080Y-92305903D01*
X127825923Y-92472687D01*
X127810704Y-92507384D01*
X127809446Y-92512349D01*
X127809445Y-92512354D01*
X127756695Y-92720657D01*
X127756693Y-92720666D01*
X127755436Y-92725632D01*
X127755012Y-92730741D01*
X127755011Y-92730751D01*
X127739754Y-92914883D01*
X127736844Y-92950000D01*
X127737268Y-92955117D01*
X127755011Y-93169248D01*
X127755012Y-93169256D01*
X127755436Y-93174368D01*
X127756693Y-93179335D01*
X127756695Y-93179342D01*
X127801848Y-93357645D01*
X127810704Y-93392616D01*
X127812764Y-93397312D01*
X127899080Y-93594096D01*
X127899083Y-93594101D01*
X127901140Y-93598791D01*
X127944306Y-93664862D01*
X128021474Y-93782977D01*
X128021477Y-93782981D01*
X128024278Y-93787268D01*
X128027752Y-93791041D01*
X128027753Y-93791043D01*
X128173288Y-93949135D01*
X128173291Y-93949138D01*
X128176760Y-93952906D01*
X128180801Y-93956051D01*
X128350376Y-94088039D01*
X128350381Y-94088042D01*
X128354424Y-94091189D01*
X128358931Y-94093628D01*
X128358934Y-94093630D01*
X128390930Y-94110945D01*
X128438436Y-94156526D01*
X128455913Y-94220000D01*
X128438436Y-94283474D01*
X128390930Y-94329055D01*
X128358934Y-94346369D01*
X128358922Y-94346376D01*
X128354424Y-94348811D01*
X128350389Y-94351951D01*
X128350376Y-94351960D01*
X128180801Y-94483948D01*
X128180795Y-94483952D01*
X128176760Y-94487094D01*
X128173297Y-94490855D01*
X128173288Y-94490864D01*
X128027753Y-94648956D01*
X128027747Y-94648963D01*
X128024278Y-94652732D01*
X128021481Y-94657012D01*
X128021474Y-94657022D01*
X127923542Y-94806920D01*
X127901140Y-94841209D01*
X127899085Y-94845892D01*
X127899080Y-94845903D01*
X127825923Y-95012687D01*
X127810704Y-95047384D01*
X127809446Y-95052349D01*
X127809445Y-95052354D01*
X127756695Y-95260657D01*
X127756693Y-95260666D01*
X127755436Y-95265632D01*
X127755012Y-95270741D01*
X127755011Y-95270751D01*
X127739754Y-95454883D01*
X127736844Y-95490000D01*
X127737268Y-95495117D01*
X127755011Y-95709248D01*
X127755012Y-95709256D01*
X127755436Y-95714368D01*
X127756693Y-95719335D01*
X127756695Y-95719342D01*
X127801848Y-95897645D01*
X127810704Y-95932616D01*
X127812764Y-95937312D01*
X127899080Y-96134096D01*
X127899083Y-96134101D01*
X127901140Y-96138791D01*
X127960505Y-96229656D01*
X128021474Y-96322977D01*
X128021477Y-96322981D01*
X128024278Y-96327268D01*
X128027752Y-96331041D01*
X128027753Y-96331043D01*
X128173288Y-96489135D01*
X128173291Y-96489138D01*
X128176760Y-96492906D01*
X128180801Y-96496051D01*
X128350376Y-96628039D01*
X128350381Y-96628042D01*
X128354424Y-96631189D01*
X128390930Y-96650945D01*
X128438434Y-96696523D01*
X128455913Y-96759996D01*
X128438437Y-96823471D01*
X128390933Y-96869053D01*
X128358930Y-96886372D01*
X128358925Y-96886374D01*
X128354424Y-96888811D01*
X128350389Y-96891951D01*
X128350376Y-96891960D01*
X128180801Y-97023948D01*
X128180795Y-97023952D01*
X128176760Y-97027094D01*
X128173297Y-97030855D01*
X128173288Y-97030864D01*
X128027753Y-97188956D01*
X128027747Y-97188963D01*
X128024278Y-97192732D01*
X128021481Y-97197012D01*
X128021474Y-97197022D01*
X127923542Y-97346920D01*
X127901140Y-97381209D01*
X127899085Y-97385892D01*
X127899080Y-97385903D01*
X127825923Y-97552687D01*
X127810704Y-97587384D01*
X127809446Y-97592349D01*
X127809445Y-97592354D01*
X127756695Y-97800657D01*
X127756693Y-97800666D01*
X127755436Y-97805632D01*
X127755012Y-97810741D01*
X127755011Y-97810751D01*
X127739754Y-97994883D01*
X127736844Y-98030000D01*
X127737268Y-98035117D01*
X127755011Y-98249248D01*
X127755012Y-98249256D01*
X127755436Y-98254368D01*
X127756693Y-98259335D01*
X127756695Y-98259342D01*
X127801848Y-98437645D01*
X127810704Y-98472616D01*
X127812764Y-98477312D01*
X127899080Y-98674096D01*
X127899083Y-98674101D01*
X127901140Y-98678791D01*
X127960505Y-98769656D01*
X128021474Y-98862977D01*
X128021477Y-98862981D01*
X128024278Y-98867268D01*
X128027752Y-98871041D01*
X128027753Y-98871043D01*
X128173288Y-99029135D01*
X128173291Y-99029138D01*
X128176760Y-99032906D01*
X128180801Y-99036051D01*
X128350376Y-99168039D01*
X128350381Y-99168042D01*
X128354424Y-99171189D01*
X128358931Y-99173628D01*
X128358934Y-99173630D01*
X128390930Y-99190945D01*
X128438436Y-99236526D01*
X128455913Y-99300000D01*
X128438436Y-99363474D01*
X128390930Y-99409055D01*
X128358934Y-99426369D01*
X128358922Y-99426376D01*
X128354424Y-99428811D01*
X128350389Y-99431951D01*
X128350376Y-99431960D01*
X128180801Y-99563948D01*
X128180795Y-99563952D01*
X128176760Y-99567094D01*
X128173297Y-99570855D01*
X128173288Y-99570864D01*
X128027753Y-99728956D01*
X128027747Y-99728963D01*
X128024278Y-99732732D01*
X128021481Y-99737012D01*
X128021474Y-99737022D01*
X127923542Y-99886920D01*
X127901140Y-99921209D01*
X127899085Y-99925892D01*
X127899080Y-99925903D01*
X127825923Y-100092687D01*
X127810704Y-100127384D01*
X127809446Y-100132349D01*
X127809445Y-100132354D01*
X127756695Y-100340657D01*
X127756693Y-100340666D01*
X127755436Y-100345632D01*
X127755012Y-100350741D01*
X127755011Y-100350751D01*
X127753424Y-100369907D01*
X127736844Y-100570000D01*
X127737268Y-100575117D01*
X127755011Y-100789248D01*
X127755012Y-100789256D01*
X127755436Y-100794368D01*
X127756693Y-100799335D01*
X127756695Y-100799342D01*
X127801848Y-100977645D01*
X127810704Y-101012616D01*
X127812764Y-101017312D01*
X127899080Y-101214096D01*
X127899083Y-101214101D01*
X127901140Y-101218791D01*
X127956597Y-101303674D01*
X128021474Y-101402977D01*
X128021477Y-101402981D01*
X128024278Y-101407268D01*
X128027752Y-101411041D01*
X128027753Y-101411043D01*
X128173288Y-101569135D01*
X128173291Y-101569138D01*
X128176760Y-101572906D01*
X128180801Y-101576051D01*
X128350376Y-101708039D01*
X128350381Y-101708042D01*
X128354424Y-101711189D01*
X128358931Y-101713628D01*
X128358934Y-101713630D01*
X128390930Y-101730945D01*
X128438436Y-101776526D01*
X128455913Y-101840000D01*
X128438436Y-101903474D01*
X128390930Y-101949055D01*
X128358934Y-101966369D01*
X128358922Y-101966376D01*
X128354424Y-101968811D01*
X128350389Y-101971951D01*
X128350376Y-101971960D01*
X128180801Y-102103948D01*
X128180795Y-102103952D01*
X128176760Y-102107094D01*
X128173297Y-102110855D01*
X128173288Y-102110864D01*
X128027753Y-102268956D01*
X128027747Y-102268963D01*
X128024278Y-102272732D01*
X128021481Y-102277012D01*
X128021474Y-102277022D01*
X127923542Y-102426920D01*
X127901140Y-102461209D01*
X127899085Y-102465892D01*
X127899080Y-102465903D01*
X127812764Y-102662687D01*
X127810704Y-102667384D01*
X127809446Y-102672349D01*
X127809445Y-102672354D01*
X127756695Y-102880657D01*
X127756693Y-102880666D01*
X127755436Y-102885632D01*
X127755012Y-102890741D01*
X127755011Y-102890751D01*
X127748543Y-102968811D01*
X127736844Y-103110000D01*
X127737268Y-103115117D01*
X127755011Y-103329248D01*
X127755012Y-103329256D01*
X127755436Y-103334368D01*
X127756693Y-103339335D01*
X127756695Y-103339342D01*
X127801848Y-103517645D01*
X127810704Y-103552616D01*
X127812764Y-103557312D01*
X127899080Y-103754096D01*
X127899083Y-103754101D01*
X127901140Y-103758791D01*
X127960505Y-103849656D01*
X128021474Y-103942977D01*
X128021477Y-103942981D01*
X128024278Y-103947268D01*
X128027752Y-103951041D01*
X128027753Y-103951043D01*
X128173288Y-104109135D01*
X128173291Y-104109138D01*
X128176760Y-104112906D01*
X128180801Y-104116051D01*
X128350376Y-104248039D01*
X128350381Y-104248042D01*
X128354424Y-104251189D01*
X128390930Y-104270945D01*
X128438434Y-104316523D01*
X128455913Y-104379996D01*
X128438437Y-104443471D01*
X128390933Y-104489053D01*
X128358930Y-104506372D01*
X128358925Y-104506374D01*
X128354424Y-104508811D01*
X128350389Y-104511951D01*
X128350376Y-104511960D01*
X128180801Y-104643948D01*
X128180795Y-104643952D01*
X128176760Y-104647094D01*
X128173297Y-104650855D01*
X128173288Y-104650864D01*
X128027753Y-104808956D01*
X128027747Y-104808963D01*
X128024278Y-104812732D01*
X128021481Y-104817012D01*
X128021474Y-104817022D01*
X127903942Y-104996920D01*
X127901140Y-105001209D01*
X127899085Y-105005892D01*
X127899080Y-105005903D01*
X127825923Y-105172687D01*
X127810704Y-105207384D01*
X127809446Y-105212349D01*
X127809445Y-105212354D01*
X127756695Y-105420657D01*
X127756693Y-105420666D01*
X127755436Y-105425632D01*
X127755012Y-105430741D01*
X127755011Y-105430751D01*
X127739754Y-105614883D01*
X127736844Y-105650000D01*
X127737268Y-105655117D01*
X127755011Y-105869248D01*
X127755012Y-105869256D01*
X127755436Y-105874368D01*
X127756693Y-105879335D01*
X127756695Y-105879342D01*
X127809445Y-106087645D01*
X127810704Y-106092616D01*
X127812764Y-106097312D01*
X127899080Y-106294096D01*
X127899083Y-106294101D01*
X127901140Y-106298791D01*
X127960505Y-106389656D01*
X128021474Y-106482977D01*
X128021477Y-106482981D01*
X128024278Y-106487268D01*
X128027752Y-106491041D01*
X128027753Y-106491043D01*
X128173288Y-106649135D01*
X128173291Y-106649138D01*
X128176760Y-106652906D01*
X128180801Y-106656051D01*
X128350376Y-106788039D01*
X128350381Y-106788042D01*
X128354424Y-106791189D01*
X128358931Y-106793628D01*
X128358934Y-106793630D01*
X128390930Y-106810945D01*
X128438436Y-106856526D01*
X128455913Y-106920000D01*
X128438436Y-106983474D01*
X128390930Y-107029055D01*
X128358934Y-107046369D01*
X128358922Y-107046376D01*
X128354424Y-107048811D01*
X128350389Y-107051951D01*
X128350376Y-107051960D01*
X128180801Y-107183948D01*
X128180795Y-107183952D01*
X128176760Y-107187094D01*
X128173297Y-107190855D01*
X128173288Y-107190864D01*
X128027753Y-107348956D01*
X128027747Y-107348963D01*
X128024278Y-107352732D01*
X128021481Y-107357012D01*
X128021474Y-107357022D01*
X127933915Y-107491043D01*
X127901140Y-107541209D01*
X127899085Y-107545892D01*
X127899080Y-107545903D01*
X127812764Y-107742687D01*
X127810704Y-107747384D01*
X127809446Y-107752349D01*
X127809445Y-107752354D01*
X127756695Y-107960657D01*
X127756693Y-107960666D01*
X127755436Y-107965632D01*
X127755012Y-107970741D01*
X127755011Y-107970751D01*
X127737345Y-108183948D01*
X127736844Y-108190000D01*
X126600500Y-108190000D01*
X126600500Y-75774500D01*
X126617113Y-75712500D01*
X126662500Y-75667113D01*
X126724500Y-75650500D01*
X181475500Y-75650500D01*
X181537500Y-75667113D01*
G37*
%TD.AperFunction*%
%TD*%
M02*
