%TF.GenerationSoftware,KiCad,Pcbnew,(7.0.0)*%
%TF.CreationDate,2023-03-10T15:10:40+01:00*%
%TF.ProjectId,breakout-board-display-brain,62726561-6b6f-4757-942d-626f6172642d,v1*%
%TF.SameCoordinates,Original*%
%TF.FileFunction,Copper,L2,Bot*%
%TF.FilePolarity,Positive*%
%FSLAX46Y46*%
G04 Gerber Fmt 4.6, Leading zero omitted, Abs format (unit mm)*
G04 Created by KiCad (PCBNEW (7.0.0)) date 2023-03-10 15:10:40*
%MOMM*%
%LPD*%
G01*
G04 APERTURE LIST*
%TA.AperFunction,ComponentPad*%
%ADD10R,1.700000X1.700000*%
%TD*%
%TA.AperFunction,ComponentPad*%
%ADD11O,1.700000X1.700000*%
%TD*%
%TA.AperFunction,ComponentPad*%
%ADD12R,2.000000X2.000000*%
%TD*%
%TA.AperFunction,ComponentPad*%
%ADD13C,2.000000*%
%TD*%
%TA.AperFunction,ComponentPad*%
%ADD14R,3.200000X2.000000*%
%TD*%
%TA.AperFunction,Conductor*%
%ADD15C,0.500000*%
%TD*%
G04 APERTURE END LIST*
D10*
%TO.P,J1,1,Pin_1*%
%TO.N,/3V3*%
X128999999Y-77999999D03*
D11*
%TO.P,J1,2,Pin_2*%
%TO.N,/EN*%
X128999999Y-80539999D03*
%TO.P,J1,3,Pin_3*%
%TO.N,/SENSOR_VP*%
X128999999Y-83079999D03*
%TO.P,J1,4,Pin_4*%
%TO.N,/SENSOR_VN*%
X128999999Y-85619999D03*
%TO.P,J1,5,Pin_5*%
%TO.N,/IO34*%
X128999999Y-88159999D03*
%TO.P,J1,6,Pin_6*%
%TO.N,/IO35*%
X128999999Y-90699999D03*
%TO.P,J1,7,Pin_7*%
%TO.N,/IO32*%
X128999999Y-93239999D03*
%TO.P,J1,8,Pin_8*%
%TO.N,/IO33*%
X128999999Y-95779999D03*
%TO.P,J1,9,Pin_9*%
%TO.N,/IO25*%
X128999999Y-98319999D03*
%TO.P,J1,10,Pin_10*%
%TO.N,/IO26*%
X128999999Y-100859999D03*
%TO.P,J1,11,Pin_11*%
%TO.N,/IO27*%
X128999999Y-103399999D03*
%TO.P,J1,12,Pin_12*%
%TO.N,/IO14*%
X128999999Y-105939999D03*
%TO.P,J1,13,Pin_13*%
%TO.N,/IO12*%
X128999999Y-108479999D03*
%TO.P,J1,14,Pin_14*%
%TO.N,GND*%
X128999999Y-111019999D03*
%TO.P,J1,15,Pin_15*%
%TO.N,/IO13*%
X128999999Y-113559999D03*
%TO.P,J1,16,Pin_16*%
%TO.N,/SD2*%
X128999999Y-116099999D03*
%TO.P,J1,17,Pin_17*%
%TO.N,/SD3*%
X128999999Y-118639999D03*
%TO.P,J1,18,Pin_18*%
%TO.N,/CMD*%
X128999999Y-121179999D03*
%TO.P,J1,19,Pin_19*%
%TO.N,+5V*%
X128999999Y-123719999D03*
%TD*%
D10*
%TO.P,J4,1,Pin_1*%
%TO.N,GND*%
X161999999Y-102719999D03*
D11*
%TO.P,J4,2,Pin_2*%
%TO.N,+5V*%
X161999999Y-105259999D03*
%TO.P,J4,3,Pin_3*%
%TO.N,/IO21_SDA*%
X161999999Y-107799999D03*
%TO.P,J4,4,Pin_4*%
%TO.N,/IO22_SCL*%
X161999999Y-110339999D03*
%TD*%
D10*
%TO.P,J3,1,Pin_1*%
%TO.N,+5V*%
X161974999Y-118469999D03*
D11*
%TO.P,J3,2,Pin_2*%
%TO.N,GND*%
X161974999Y-115929999D03*
%TD*%
D10*
%TO.P,J2,1,Pin_1*%
%TO.N,/CLK*%
X154499999Y-123599999D03*
D11*
%TO.P,J2,2,Pin_2*%
%TO.N,/SD0*%
X154499999Y-121059999D03*
%TO.P,J2,3,Pin_3*%
%TO.N,/SD1*%
X154499999Y-118519999D03*
%TO.P,J2,4,Pin_4*%
%TO.N,/IO15*%
X154499999Y-115979999D03*
%TO.P,J2,5,Pin_5*%
%TO.N,/IO2*%
X154499999Y-113439999D03*
%TO.P,J2,6,Pin_6*%
%TO.N,/IO0*%
X154499999Y-110899999D03*
%TO.P,J2,7,Pin_7*%
%TO.N,/IO4*%
X154499999Y-108359999D03*
%TO.P,J2,8,Pin_8*%
%TO.N,/IO16*%
X154499999Y-105819999D03*
%TO.P,J2,9,Pin_9*%
%TO.N,/IO17*%
X154499999Y-103279999D03*
%TO.P,J2,10,Pin_10*%
%TO.N,/IO5_SS*%
X154499999Y-100739999D03*
%TO.P,J2,11,Pin_11*%
%TO.N,/IO18_SCK*%
X154499999Y-98199999D03*
%TO.P,J2,12,Pin_12*%
%TO.N,/IO19_MISO*%
X154499999Y-95659999D03*
%TO.P,J2,13,Pin_13*%
%TO.N,GND*%
X154499999Y-93119999D03*
%TO.P,J2,14,Pin_14*%
%TO.N,/IO21_SDA*%
X154499999Y-90579999D03*
%TO.P,J2,15,Pin_15*%
%TO.N,/RXD0*%
X154499999Y-88039999D03*
%TO.P,J2,16,Pin_16*%
%TO.N,/TXD0*%
X154499999Y-85499999D03*
%TO.P,J2,17,Pin_17*%
%TO.N,/IO22_SCL*%
X154499999Y-82959999D03*
%TO.P,J2,18,Pin_18*%
%TO.N,/IO23_MOSI*%
X154499999Y-80419999D03*
%TO.P,J2,19,Pin_19*%
%TO.N,GND*%
X154499999Y-77879999D03*
%TD*%
D12*
%TO.P,SW1,A,A*%
%TO.N,/IO2*%
X149049999Y-69699999D03*
D13*
%TO.P,SW1,B,B*%
%TO.N,/IO0*%
X149050000Y-64700000D03*
%TO.P,SW1,C,C*%
%TO.N,GND*%
X149050000Y-67200000D03*
D14*
%TO.P,SW1,MP*%
%TO.N,N/C*%
X141549999Y-72799999D03*
X141549999Y-61599999D03*
D13*
%TO.P,SW1,S1,S1*%
%TO.N,/IO4*%
X134550000Y-64700000D03*
%TO.P,SW1,S2,S2*%
%TO.N,GND*%
X134550000Y-69700000D03*
%TD*%
D15*
%TO.N,+5V*%
X159000000Y-126000000D02*
X131280000Y-126000000D01*
X161975000Y-123025000D02*
X161975000Y-118470000D01*
X159000000Y-126000000D02*
X161975000Y-123025000D01*
X131280000Y-126000000D02*
X129000000Y-123720000D01*
%TO.N,/IO2*%
X135200000Y-77400000D02*
X135200000Y-94140000D01*
X130600000Y-63200000D02*
X130600000Y-72800000D01*
X149050000Y-69700000D02*
X144100000Y-69700000D01*
X144100000Y-69700000D02*
X136400000Y-62000000D01*
X135200000Y-94140000D02*
X154500000Y-113440000D01*
X130600000Y-72800000D02*
X135200000Y-77400000D01*
X131800000Y-62000000D02*
X130600000Y-63200000D01*
X136400000Y-62000000D02*
X131800000Y-62000000D01*
%TO.N,/IO0*%
X166200000Y-113400000D02*
X166200000Y-100800000D01*
X164200000Y-98800000D02*
X162600000Y-98800000D01*
X160800000Y-70000000D02*
X155500000Y-64700000D01*
X155500000Y-64700000D02*
X149050000Y-64700000D01*
X154500000Y-110900000D02*
X157600000Y-114000000D01*
X166200000Y-100800000D02*
X164200000Y-98800000D01*
X160800000Y-97000000D02*
X160800000Y-70000000D01*
X157600000Y-114000000D02*
X165600000Y-114000000D01*
X165600000Y-114000000D02*
X166200000Y-113400000D01*
X162600000Y-98800000D02*
X160800000Y-97000000D01*
%TO.N,/IO4*%
X137600000Y-91460000D02*
X154500000Y-108360000D01*
X134550000Y-64700000D02*
X137600000Y-67750000D01*
X137600000Y-67750000D02*
X137600000Y-91460000D01*
%TO.N,/IO21_SDA*%
X163600000Y-107800000D02*
X164200000Y-108400000D01*
X159000000Y-113000000D02*
X156600000Y-110600000D01*
X156600000Y-110600000D02*
X156600000Y-91600000D01*
X155580000Y-90580000D02*
X154500000Y-90580000D01*
X156600000Y-91600000D02*
X155580000Y-90580000D01*
X162000000Y-107800000D02*
X163600000Y-107800000D01*
X164200000Y-112000000D02*
X163400000Y-112800000D01*
X159200000Y-112800000D02*
X159000000Y-113000000D01*
X163400000Y-112800000D02*
X159200000Y-112800000D01*
X164200000Y-108400000D02*
X164200000Y-112000000D01*
%TO.N,/IO22_SCL*%
X158200000Y-106540000D02*
X162000000Y-110340000D01*
X155960000Y-82960000D02*
X158200000Y-85200000D01*
X154500000Y-82960000D02*
X155960000Y-82960000D01*
X158200000Y-85200000D02*
X158200000Y-106540000D01*
%TD*%
%TA.AperFunction,Conductor*%
%TO.N,GND*%
G36*
X167537500Y-58467113D02*
G01*
X167582887Y-58512500D01*
X167599500Y-58574500D01*
X167599500Y-127025500D01*
X167582887Y-127087500D01*
X167537500Y-127132887D01*
X167475500Y-127149500D01*
X126724500Y-127149500D01*
X126662500Y-127132887D01*
X126617113Y-127087500D01*
X126600500Y-127025500D01*
X126600500Y-123720000D01*
X127636844Y-123720000D01*
X127637268Y-123725117D01*
X127655011Y-123939248D01*
X127655012Y-123939256D01*
X127655436Y-123944368D01*
X127656693Y-123949335D01*
X127656695Y-123949342D01*
X127665443Y-123983885D01*
X127710704Y-124162616D01*
X127712764Y-124167312D01*
X127799080Y-124364096D01*
X127799083Y-124364101D01*
X127801140Y-124368791D01*
X127860505Y-124459656D01*
X127921474Y-124552977D01*
X127921477Y-124552981D01*
X127924278Y-124557268D01*
X127927752Y-124561041D01*
X127927753Y-124561043D01*
X128073288Y-124719135D01*
X128073291Y-124719138D01*
X128076760Y-124722906D01*
X128080801Y-124726051D01*
X128250376Y-124858039D01*
X128250381Y-124858042D01*
X128254424Y-124861189D01*
X128258931Y-124863628D01*
X128258934Y-124863630D01*
X128447919Y-124965903D01*
X128452426Y-124968342D01*
X128665365Y-125041444D01*
X128887431Y-125078500D01*
X129107436Y-125078500D01*
X129112569Y-125078500D01*
X129198088Y-125064229D01*
X129256325Y-125068449D01*
X129306176Y-125098857D01*
X130698195Y-126490876D01*
X130709973Y-126504503D01*
X130724531Y-126524058D01*
X130730067Y-126528703D01*
X130762932Y-126556280D01*
X130770907Y-126563588D01*
X130774900Y-126567581D01*
X130777731Y-126569819D01*
X130777735Y-126569823D01*
X130799469Y-126587008D01*
X130802267Y-126589287D01*
X130854822Y-126633386D01*
X130854827Y-126633389D01*
X130860360Y-126638032D01*
X130866818Y-126641275D01*
X130869935Y-126643325D01*
X130870087Y-126643435D01*
X130870261Y-126643532D01*
X130873424Y-126645483D01*
X130879095Y-126649967D01*
X130885644Y-126653021D01*
X130885646Y-126653022D01*
X130947830Y-126682019D01*
X130951071Y-126683588D01*
X130957216Y-126686674D01*
X131012348Y-126714363D01*
X131012350Y-126714363D01*
X131018812Y-126717609D01*
X131025850Y-126719276D01*
X131029322Y-126720540D01*
X131029522Y-126720623D01*
X131029702Y-126720674D01*
X131033240Y-126721846D01*
X131039794Y-126724903D01*
X131114100Y-126740245D01*
X131117572Y-126741015D01*
X131191344Y-126758500D01*
X131198576Y-126758500D01*
X131202255Y-126758930D01*
X131202468Y-126758964D01*
X131202638Y-126758972D01*
X131206369Y-126759298D01*
X131213442Y-126760759D01*
X131289292Y-126758552D01*
X131292899Y-126758500D01*
X158935705Y-126758500D01*
X158953677Y-126759809D01*
X158977789Y-126763341D01*
X159027727Y-126758971D01*
X159038533Y-126758500D01*
X159040571Y-126758500D01*
X159044180Y-126758500D01*
X159075370Y-126754853D01*
X159078851Y-126754498D01*
X159154426Y-126747887D01*
X159161290Y-126745612D01*
X159164924Y-126744862D01*
X159165119Y-126744830D01*
X159165308Y-126744777D01*
X159168930Y-126743918D01*
X159176113Y-126743079D01*
X159247393Y-126717134D01*
X159250709Y-126715981D01*
X159322738Y-126692114D01*
X159328886Y-126688320D01*
X159332251Y-126686752D01*
X159332438Y-126686674D01*
X159332618Y-126686574D01*
X159335934Y-126684908D01*
X159342732Y-126682435D01*
X159406103Y-126640753D01*
X159409110Y-126638837D01*
X159473651Y-126599030D01*
X159478763Y-126593916D01*
X159481672Y-126591617D01*
X159481843Y-126591493D01*
X159481990Y-126591359D01*
X159484832Y-126588974D01*
X159490874Y-126585001D01*
X159542963Y-126529788D01*
X159545408Y-126527271D01*
X162465880Y-123606799D01*
X162479506Y-123595023D01*
X162499058Y-123580469D01*
X162531278Y-123542068D01*
X162538594Y-123534087D01*
X162539210Y-123533469D01*
X162542580Y-123530101D01*
X162562049Y-123505477D01*
X162564278Y-123502741D01*
X162613032Y-123444640D01*
X162616275Y-123438179D01*
X162618312Y-123435084D01*
X162618428Y-123434922D01*
X162618532Y-123434737D01*
X162620477Y-123431582D01*
X162624967Y-123425906D01*
X162657008Y-123357189D01*
X162658580Y-123353944D01*
X162689364Y-123292649D01*
X162689363Y-123292649D01*
X162692609Y-123286188D01*
X162694275Y-123279153D01*
X162695545Y-123275667D01*
X162695624Y-123275475D01*
X162695677Y-123275290D01*
X162696848Y-123271754D01*
X162699902Y-123265207D01*
X162715240Y-123190921D01*
X162716022Y-123187396D01*
X162731833Y-123120688D01*
X162733500Y-123113656D01*
X162733500Y-123106427D01*
X162733932Y-123102731D01*
X162733963Y-123102533D01*
X162733972Y-123102350D01*
X162734297Y-123098631D01*
X162735758Y-123091558D01*
X162735302Y-123075903D01*
X162733552Y-123015742D01*
X162733500Y-123012136D01*
X162733500Y-119952500D01*
X162750113Y-119890500D01*
X162795500Y-119845113D01*
X162857500Y-119828500D01*
X162870328Y-119828500D01*
X162873638Y-119828500D01*
X162934201Y-119821989D01*
X163071204Y-119770889D01*
X163188261Y-119683261D01*
X163275889Y-119566204D01*
X163326989Y-119429201D01*
X163333500Y-119368638D01*
X163333500Y-117571362D01*
X163326989Y-117510799D01*
X163275889Y-117373796D01*
X163188261Y-117256739D01*
X163179253Y-117249996D01*
X163078304Y-117174426D01*
X163078303Y-117174425D01*
X163071204Y-117169111D01*
X163062896Y-117166012D01*
X163062894Y-117166011D01*
X162942721Y-117121189D01*
X162941618Y-117120777D01*
X162891240Y-117085798D01*
X162863787Y-117030954D01*
X162865976Y-116969661D01*
X162897272Y-116916914D01*
X163009284Y-116804902D01*
X163016215Y-116796643D01*
X163145498Y-116612008D01*
X163150886Y-116602676D01*
X163246143Y-116398397D01*
X163249831Y-116388263D01*
X163301943Y-116193780D01*
X163302311Y-116182551D01*
X163291369Y-116180000D01*
X160658631Y-116180000D01*
X160647688Y-116182551D01*
X160648056Y-116193780D01*
X160700168Y-116388263D01*
X160703856Y-116398397D01*
X160799113Y-116602676D01*
X160804501Y-116612008D01*
X160933784Y-116796643D01*
X160940721Y-116804909D01*
X161052727Y-116916915D01*
X161084023Y-116969661D01*
X161086212Y-117030954D01*
X161058759Y-117085798D01*
X161008380Y-117120778D01*
X160887105Y-117166011D01*
X160887099Y-117166013D01*
X160878796Y-117169111D01*
X160871698Y-117174423D01*
X160871695Y-117174426D01*
X160768835Y-117251426D01*
X160768831Y-117251429D01*
X160761739Y-117256739D01*
X160756429Y-117263831D01*
X160756426Y-117263835D01*
X160679426Y-117366695D01*
X160679423Y-117366698D01*
X160674111Y-117373796D01*
X160671013Y-117382099D01*
X160671011Y-117382105D01*
X160625719Y-117503536D01*
X160625717Y-117503543D01*
X160623011Y-117510799D01*
X160622182Y-117518500D01*
X160622182Y-117518505D01*
X160616853Y-117568075D01*
X160616500Y-117571362D01*
X160616500Y-119368638D01*
X160623011Y-119429201D01*
X160625717Y-119436458D01*
X160625719Y-119436463D01*
X160671011Y-119557894D01*
X160674111Y-119566204D01*
X160679425Y-119573303D01*
X160679426Y-119573304D01*
X160747042Y-119663629D01*
X160761739Y-119683261D01*
X160878796Y-119770889D01*
X161015799Y-119821989D01*
X161076362Y-119828500D01*
X161092500Y-119828500D01*
X161154500Y-119845113D01*
X161199887Y-119890500D01*
X161216500Y-119952500D01*
X161216500Y-122659457D01*
X161207061Y-122706910D01*
X161180181Y-122747138D01*
X158722138Y-125205181D01*
X158681910Y-125232061D01*
X158634457Y-125241500D01*
X131645543Y-125241500D01*
X131598090Y-125232061D01*
X131557862Y-125205181D01*
X130381569Y-124028888D01*
X130352826Y-123983885D01*
X130345674Y-123930967D01*
X130362732Y-123725117D01*
X130363156Y-123720000D01*
X130344564Y-123495632D01*
X130289296Y-123277384D01*
X130198860Y-123071209D01*
X130075722Y-122882732D01*
X129923240Y-122717094D01*
X129835118Y-122648505D01*
X129749623Y-122581960D01*
X129749615Y-122581955D01*
X129745576Y-122578811D01*
X129741064Y-122576369D01*
X129741061Y-122576367D01*
X129709070Y-122559055D01*
X129661564Y-122513474D01*
X129644086Y-122450000D01*
X129661564Y-122386526D01*
X129709070Y-122340945D01*
X129709109Y-122340923D01*
X129745576Y-122321189D01*
X129923240Y-122182906D01*
X130075722Y-122017268D01*
X130198860Y-121828791D01*
X130289296Y-121622616D01*
X130344564Y-121404368D01*
X130363156Y-121180000D01*
X130344564Y-120955632D01*
X130289296Y-120737384D01*
X130198860Y-120531209D01*
X130075722Y-120342732D01*
X130072246Y-120338956D01*
X129926711Y-120180864D01*
X129926708Y-120180861D01*
X129923240Y-120177094D01*
X129910597Y-120167253D01*
X129749623Y-120041960D01*
X129749615Y-120041955D01*
X129745576Y-120038811D01*
X129741066Y-120036370D01*
X129741061Y-120036367D01*
X129709070Y-120019055D01*
X129661564Y-119973474D01*
X129644086Y-119910000D01*
X129661564Y-119846526D01*
X129709070Y-119800945D01*
X129709109Y-119800923D01*
X129745576Y-119781189D01*
X129923240Y-119642906D01*
X130075722Y-119477268D01*
X130198860Y-119288791D01*
X130289296Y-119082616D01*
X130344564Y-118864368D01*
X130363156Y-118640000D01*
X130344564Y-118415632D01*
X130289296Y-118197384D01*
X130198860Y-117991209D01*
X130075722Y-117802732D01*
X130072246Y-117798956D01*
X129926711Y-117640864D01*
X129926708Y-117640861D01*
X129923240Y-117637094D01*
X129910597Y-117627253D01*
X129749623Y-117501960D01*
X129749615Y-117501955D01*
X129745576Y-117498811D01*
X129741064Y-117496369D01*
X129741061Y-117496367D01*
X129709070Y-117479055D01*
X129661564Y-117433474D01*
X129644086Y-117370000D01*
X129661564Y-117306526D01*
X129709070Y-117260945D01*
X129716842Y-117256739D01*
X129745576Y-117241189D01*
X129923240Y-117102906D01*
X130075722Y-116937268D01*
X130198860Y-116748791D01*
X130289296Y-116542616D01*
X130344564Y-116324368D01*
X130363156Y-116100000D01*
X130344564Y-115875632D01*
X130289296Y-115657384D01*
X130198860Y-115451209D01*
X130075722Y-115262732D01*
X130062144Y-115247982D01*
X129926711Y-115100864D01*
X129926708Y-115100861D01*
X129923240Y-115097094D01*
X129879895Y-115063357D01*
X129749623Y-114961960D01*
X129749615Y-114961955D01*
X129745576Y-114958811D01*
X129741064Y-114956369D01*
X129741061Y-114956367D01*
X129709070Y-114939055D01*
X129661564Y-114893474D01*
X129644086Y-114830000D01*
X129661564Y-114766526D01*
X129709070Y-114720945D01*
X129715234Y-114717609D01*
X129745576Y-114701189D01*
X129923240Y-114562906D01*
X130075722Y-114397268D01*
X130198860Y-114208791D01*
X130289296Y-114002616D01*
X130344564Y-113784368D01*
X130363156Y-113560000D01*
X130344564Y-113335632D01*
X130289296Y-113117384D01*
X130198860Y-112911209D01*
X130075722Y-112722732D01*
X130072246Y-112718956D01*
X129926711Y-112560864D01*
X129926708Y-112560861D01*
X129923240Y-112557094D01*
X129866487Y-112512921D01*
X129749623Y-112421960D01*
X129749615Y-112421955D01*
X129745576Y-112418811D01*
X129741071Y-112416373D01*
X129741065Y-112416369D01*
X129702305Y-112395394D01*
X129656665Y-112352844D01*
X129637526Y-112293454D01*
X129649734Y-112232263D01*
X129690198Y-112184764D01*
X129866643Y-112061215D01*
X129874909Y-112054278D01*
X130034278Y-111894909D01*
X130041215Y-111886643D01*
X130170498Y-111702008D01*
X130175886Y-111692676D01*
X130271143Y-111488397D01*
X130274831Y-111478263D01*
X130326943Y-111283780D01*
X130327311Y-111272551D01*
X130316369Y-111270000D01*
X127683631Y-111270000D01*
X127672688Y-111272551D01*
X127673056Y-111283780D01*
X127725168Y-111478263D01*
X127728856Y-111488397D01*
X127824113Y-111692676D01*
X127829501Y-111702008D01*
X127958784Y-111886643D01*
X127965721Y-111894909D01*
X128125090Y-112054278D01*
X128133356Y-112061215D01*
X128309801Y-112184764D01*
X128350264Y-112232263D01*
X128362473Y-112293454D01*
X128343334Y-112352844D01*
X128297695Y-112395393D01*
X128258939Y-112416366D01*
X128258924Y-112416375D01*
X128254424Y-112418811D01*
X128250389Y-112421951D01*
X128250376Y-112421960D01*
X128080801Y-112553948D01*
X128080795Y-112553952D01*
X128076760Y-112557094D01*
X128073297Y-112560855D01*
X128073288Y-112560864D01*
X127927753Y-112718956D01*
X127927747Y-112718963D01*
X127924278Y-112722732D01*
X127921481Y-112727012D01*
X127921474Y-112727022D01*
X127803942Y-112906920D01*
X127801140Y-112911209D01*
X127799085Y-112915892D01*
X127799080Y-112915903D01*
X127712764Y-113112687D01*
X127710704Y-113117384D01*
X127709446Y-113122349D01*
X127709445Y-113122354D01*
X127656695Y-113330657D01*
X127656693Y-113330666D01*
X127655436Y-113335632D01*
X127655012Y-113340741D01*
X127655011Y-113340751D01*
X127643661Y-113477731D01*
X127636844Y-113560000D01*
X127637268Y-113565117D01*
X127655011Y-113779248D01*
X127655012Y-113779256D01*
X127655436Y-113784368D01*
X127656693Y-113789335D01*
X127656695Y-113789342D01*
X127705434Y-113981806D01*
X127710704Y-114002616D01*
X127712764Y-114007312D01*
X127799080Y-114204096D01*
X127799083Y-114204101D01*
X127801140Y-114208791D01*
X127843075Y-114272977D01*
X127921474Y-114392977D01*
X127921477Y-114392981D01*
X127924278Y-114397268D01*
X127927752Y-114401041D01*
X127927753Y-114401043D01*
X128073288Y-114559135D01*
X128073291Y-114559138D01*
X128076760Y-114562906D01*
X128123172Y-114599030D01*
X128250376Y-114698039D01*
X128250381Y-114698042D01*
X128254424Y-114701189D01*
X128258931Y-114703628D01*
X128258934Y-114703630D01*
X128290930Y-114720945D01*
X128338436Y-114766526D01*
X128355913Y-114830000D01*
X128338436Y-114893474D01*
X128290930Y-114939055D01*
X128258934Y-114956369D01*
X128258922Y-114956376D01*
X128254424Y-114958811D01*
X128250389Y-114961951D01*
X128250376Y-114961960D01*
X128080801Y-115093948D01*
X128080795Y-115093952D01*
X128076760Y-115097094D01*
X128073297Y-115100855D01*
X128073288Y-115100864D01*
X127927753Y-115258956D01*
X127927747Y-115258963D01*
X127924278Y-115262732D01*
X127921481Y-115267012D01*
X127921474Y-115267022D01*
X127803942Y-115446920D01*
X127801140Y-115451209D01*
X127799085Y-115455892D01*
X127799080Y-115455903D01*
X127763340Y-115537384D01*
X127710704Y-115657384D01*
X127709446Y-115662349D01*
X127709445Y-115662354D01*
X127656695Y-115870657D01*
X127656693Y-115870666D01*
X127655436Y-115875632D01*
X127655012Y-115880741D01*
X127655011Y-115880751D01*
X127637268Y-116094883D01*
X127636844Y-116100000D01*
X127637268Y-116105117D01*
X127655011Y-116319248D01*
X127655012Y-116319256D01*
X127655436Y-116324368D01*
X127656693Y-116329335D01*
X127656695Y-116329342D01*
X127681505Y-116427312D01*
X127710704Y-116542616D01*
X127712764Y-116547312D01*
X127799080Y-116744096D01*
X127799083Y-116744101D01*
X127801140Y-116748791D01*
X127832403Y-116796643D01*
X127921474Y-116932977D01*
X127921477Y-116932981D01*
X127924278Y-116937268D01*
X127927752Y-116941041D01*
X127927753Y-116941043D01*
X128073288Y-117099135D01*
X128073291Y-117099138D01*
X128076760Y-117102906D01*
X128096167Y-117118011D01*
X128250376Y-117238039D01*
X128250381Y-117238042D01*
X128254424Y-117241189D01*
X128258931Y-117243628D01*
X128258934Y-117243630D01*
X128290930Y-117260945D01*
X128338436Y-117306526D01*
X128355913Y-117370000D01*
X128338436Y-117433474D01*
X128290930Y-117479055D01*
X128258934Y-117496369D01*
X128258922Y-117496376D01*
X128254424Y-117498811D01*
X128250389Y-117501951D01*
X128250376Y-117501960D01*
X128080801Y-117633948D01*
X128080795Y-117633952D01*
X128076760Y-117637094D01*
X128073297Y-117640855D01*
X128073288Y-117640864D01*
X127927753Y-117798956D01*
X127927747Y-117798963D01*
X127924278Y-117802732D01*
X127921481Y-117807012D01*
X127921474Y-117807022D01*
X127803942Y-117986920D01*
X127801140Y-117991209D01*
X127799085Y-117995892D01*
X127799080Y-117995903D01*
X127763340Y-118077384D01*
X127710704Y-118197384D01*
X127709446Y-118202349D01*
X127709445Y-118202354D01*
X127656695Y-118410657D01*
X127656693Y-118410666D01*
X127655436Y-118415632D01*
X127655012Y-118420741D01*
X127655011Y-118420751D01*
X127637268Y-118634883D01*
X127636844Y-118640000D01*
X127637268Y-118645117D01*
X127655011Y-118859248D01*
X127655012Y-118859256D01*
X127655436Y-118864368D01*
X127656693Y-118869335D01*
X127656695Y-118869342D01*
X127681505Y-118967312D01*
X127710704Y-119082616D01*
X127712764Y-119087312D01*
X127799080Y-119284096D01*
X127799083Y-119284101D01*
X127801140Y-119288791D01*
X127843075Y-119352977D01*
X127921474Y-119472977D01*
X127921477Y-119472981D01*
X127924278Y-119477268D01*
X127927752Y-119481041D01*
X127927753Y-119481043D01*
X128073288Y-119639135D01*
X128073291Y-119639138D01*
X128076760Y-119642906D01*
X128119489Y-119676164D01*
X128250376Y-119778039D01*
X128250381Y-119778042D01*
X128254424Y-119781189D01*
X128290930Y-119800945D01*
X128338434Y-119846523D01*
X128355913Y-119909996D01*
X128338437Y-119973471D01*
X128290933Y-120019053D01*
X128258930Y-120036372D01*
X128258925Y-120036374D01*
X128254424Y-120038811D01*
X128250389Y-120041951D01*
X128250376Y-120041960D01*
X128080801Y-120173948D01*
X128080795Y-120173952D01*
X128076760Y-120177094D01*
X128073297Y-120180855D01*
X128073288Y-120180864D01*
X127927753Y-120338956D01*
X127927747Y-120338963D01*
X127924278Y-120342732D01*
X127921481Y-120347012D01*
X127921474Y-120347022D01*
X127803942Y-120526920D01*
X127801140Y-120531209D01*
X127799085Y-120535892D01*
X127799080Y-120535903D01*
X127763340Y-120617384D01*
X127710704Y-120737384D01*
X127709446Y-120742349D01*
X127709445Y-120742354D01*
X127656695Y-120950657D01*
X127656693Y-120950666D01*
X127655436Y-120955632D01*
X127655012Y-120960741D01*
X127655011Y-120960751D01*
X127637268Y-121174883D01*
X127636844Y-121180000D01*
X127637268Y-121185117D01*
X127655011Y-121399248D01*
X127655012Y-121399256D01*
X127655436Y-121404368D01*
X127656693Y-121409335D01*
X127656695Y-121409342D01*
X127681505Y-121507312D01*
X127710704Y-121622616D01*
X127712764Y-121627312D01*
X127799080Y-121824096D01*
X127799083Y-121824101D01*
X127801140Y-121828791D01*
X127843075Y-121892977D01*
X127921474Y-122012977D01*
X127921477Y-122012981D01*
X127924278Y-122017268D01*
X127927752Y-122021041D01*
X127927753Y-122021043D01*
X128073288Y-122179135D01*
X128073291Y-122179138D01*
X128076760Y-122182906D01*
X128080801Y-122186051D01*
X128250376Y-122318039D01*
X128250381Y-122318042D01*
X128254424Y-122321189D01*
X128258931Y-122323628D01*
X128258934Y-122323630D01*
X128290930Y-122340945D01*
X128338436Y-122386526D01*
X128355913Y-122450000D01*
X128338436Y-122513474D01*
X128290930Y-122559055D01*
X128258934Y-122576369D01*
X128258922Y-122576376D01*
X128254424Y-122578811D01*
X128250389Y-122581951D01*
X128250376Y-122581960D01*
X128080801Y-122713948D01*
X128080795Y-122713952D01*
X128076760Y-122717094D01*
X128073297Y-122720855D01*
X128073288Y-122720864D01*
X127927753Y-122878956D01*
X127927747Y-122878963D01*
X127924278Y-122882732D01*
X127921481Y-122887012D01*
X127921474Y-122887022D01*
X127837378Y-123015742D01*
X127801140Y-123071209D01*
X127799085Y-123075892D01*
X127799080Y-123075903D01*
X127719147Y-123258135D01*
X127710704Y-123277384D01*
X127709446Y-123282349D01*
X127709445Y-123282354D01*
X127656695Y-123490657D01*
X127656693Y-123490666D01*
X127655436Y-123495632D01*
X127655012Y-123500741D01*
X127655011Y-123500751D01*
X127637268Y-123714883D01*
X127636844Y-123720000D01*
X126600500Y-123720000D01*
X126600500Y-108480000D01*
X127636844Y-108480000D01*
X127637268Y-108485117D01*
X127655011Y-108699248D01*
X127655012Y-108699256D01*
X127655436Y-108704368D01*
X127656693Y-108709335D01*
X127656695Y-108709342D01*
X127681505Y-108807312D01*
X127710704Y-108922616D01*
X127712764Y-108927312D01*
X127799080Y-109124096D01*
X127799083Y-109124101D01*
X127801140Y-109128791D01*
X127860505Y-109219656D01*
X127921474Y-109312977D01*
X127921477Y-109312981D01*
X127924278Y-109317268D01*
X127927752Y-109321041D01*
X127927753Y-109321043D01*
X128073288Y-109479135D01*
X128073291Y-109479138D01*
X128076760Y-109482906D01*
X128107744Y-109507022D01*
X128250376Y-109618039D01*
X128250381Y-109618042D01*
X128254424Y-109621189D01*
X128297691Y-109644604D01*
X128297695Y-109644606D01*
X128343335Y-109687155D01*
X128362475Y-109746545D01*
X128350267Y-109807737D01*
X128309803Y-109855236D01*
X128133352Y-109978788D01*
X128125092Y-109985719D01*
X127965719Y-110145092D01*
X127958784Y-110153357D01*
X127829508Y-110337982D01*
X127824110Y-110347332D01*
X127728856Y-110551602D01*
X127725168Y-110561736D01*
X127673056Y-110756219D01*
X127672688Y-110767448D01*
X127683631Y-110770000D01*
X130316369Y-110770000D01*
X130327311Y-110767448D01*
X130326943Y-110756219D01*
X130274831Y-110561736D01*
X130271143Y-110551602D01*
X130175889Y-110347332D01*
X130170491Y-110337982D01*
X130041215Y-110153357D01*
X130034280Y-110145092D01*
X129874909Y-109985721D01*
X129866635Y-109978778D01*
X129690198Y-109855234D01*
X129649734Y-109807735D01*
X129637526Y-109746543D01*
X129656666Y-109687153D01*
X129702304Y-109644606D01*
X129745576Y-109621189D01*
X129923240Y-109482906D01*
X130075722Y-109317268D01*
X130198860Y-109128791D01*
X130289296Y-108922616D01*
X130344564Y-108704368D01*
X130363156Y-108480000D01*
X130344564Y-108255632D01*
X130289296Y-108037384D01*
X130198860Y-107831209D01*
X130075722Y-107642732D01*
X130053893Y-107619020D01*
X129926711Y-107480864D01*
X129926708Y-107480861D01*
X129923240Y-107477094D01*
X129910597Y-107467253D01*
X129749623Y-107341960D01*
X129749615Y-107341955D01*
X129745576Y-107338811D01*
X129741064Y-107336369D01*
X129741061Y-107336367D01*
X129709070Y-107319055D01*
X129661564Y-107273474D01*
X129644086Y-107210000D01*
X129661564Y-107146526D01*
X129709070Y-107100945D01*
X129709109Y-107100923D01*
X129745576Y-107081189D01*
X129923240Y-106942906D01*
X130075722Y-106777268D01*
X130198860Y-106588791D01*
X130289296Y-106382616D01*
X130344564Y-106164368D01*
X130363156Y-105940000D01*
X130344564Y-105715632D01*
X130289296Y-105497384D01*
X130198860Y-105291209D01*
X130075722Y-105102732D01*
X130053893Y-105079020D01*
X129926711Y-104940864D01*
X129926708Y-104940861D01*
X129923240Y-104937094D01*
X129910597Y-104927253D01*
X129749623Y-104801960D01*
X129749615Y-104801955D01*
X129745576Y-104798811D01*
X129741064Y-104796369D01*
X129741061Y-104796367D01*
X129709070Y-104779055D01*
X129661564Y-104733474D01*
X129644086Y-104670000D01*
X129661564Y-104606526D01*
X129709070Y-104560945D01*
X129709109Y-104560923D01*
X129745576Y-104541189D01*
X129923240Y-104402906D01*
X130075722Y-104237268D01*
X130198860Y-104048791D01*
X130289296Y-103842616D01*
X130344564Y-103624368D01*
X130363156Y-103400000D01*
X130344564Y-103175632D01*
X130289296Y-102957384D01*
X130198860Y-102751209D01*
X130075722Y-102562732D01*
X130053893Y-102539020D01*
X129926711Y-102400864D01*
X129926708Y-102400861D01*
X129923240Y-102397094D01*
X129910597Y-102387253D01*
X129749623Y-102261960D01*
X129749615Y-102261955D01*
X129745576Y-102258811D01*
X129741064Y-102256369D01*
X129741061Y-102256367D01*
X129709070Y-102239055D01*
X129661564Y-102193474D01*
X129644086Y-102130000D01*
X129661564Y-102066526D01*
X129709070Y-102020945D01*
X129709109Y-102020923D01*
X129745576Y-102001189D01*
X129923240Y-101862906D01*
X130075722Y-101697268D01*
X130198860Y-101508791D01*
X130289296Y-101302616D01*
X130344564Y-101084368D01*
X130363156Y-100860000D01*
X130344564Y-100635632D01*
X130289296Y-100417384D01*
X130198860Y-100211209D01*
X130075722Y-100022732D01*
X130053893Y-99999020D01*
X129926711Y-99860864D01*
X129926708Y-99860861D01*
X129923240Y-99857094D01*
X129910597Y-99847253D01*
X129749623Y-99721960D01*
X129749615Y-99721955D01*
X129745576Y-99718811D01*
X129741069Y-99716372D01*
X129741060Y-99716366D01*
X129709068Y-99699053D01*
X129661562Y-99653471D01*
X129644086Y-99589996D01*
X129661565Y-99526522D01*
X129709067Y-99480946D01*
X129745576Y-99461189D01*
X129923240Y-99322906D01*
X130075722Y-99157268D01*
X130198860Y-98968791D01*
X130289296Y-98762616D01*
X130344564Y-98544368D01*
X130363156Y-98320000D01*
X130344564Y-98095632D01*
X130289296Y-97877384D01*
X130198860Y-97671209D01*
X130084281Y-97495833D01*
X130078525Y-97487022D01*
X130078523Y-97487020D01*
X130075722Y-97482732D01*
X130053893Y-97459020D01*
X129926711Y-97320864D01*
X129926708Y-97320861D01*
X129923240Y-97317094D01*
X129910597Y-97307253D01*
X129749623Y-97181960D01*
X129749615Y-97181955D01*
X129745576Y-97178811D01*
X129741064Y-97176369D01*
X129741061Y-97176367D01*
X129709070Y-97159055D01*
X129661564Y-97113474D01*
X129644086Y-97050000D01*
X129661564Y-96986526D01*
X129709070Y-96940945D01*
X129709109Y-96940923D01*
X129745576Y-96921189D01*
X129923240Y-96782906D01*
X130075722Y-96617268D01*
X130198860Y-96428791D01*
X130289296Y-96222616D01*
X130344564Y-96004368D01*
X130363156Y-95780000D01*
X130344564Y-95555632D01*
X130289296Y-95337384D01*
X130198860Y-95131209D01*
X130075722Y-94942732D01*
X130053893Y-94919020D01*
X129926711Y-94780864D01*
X129926708Y-94780861D01*
X129923240Y-94777094D01*
X129803844Y-94684163D01*
X129749623Y-94641960D01*
X129749615Y-94641955D01*
X129745576Y-94638811D01*
X129741064Y-94636369D01*
X129741061Y-94636367D01*
X129709070Y-94619055D01*
X129661564Y-94573474D01*
X129644086Y-94510000D01*
X129661564Y-94446526D01*
X129709070Y-94400945D01*
X129731022Y-94389065D01*
X129745576Y-94381189D01*
X129923240Y-94242906D01*
X130075722Y-94077268D01*
X130198860Y-93888791D01*
X130289296Y-93682616D01*
X130344564Y-93464368D01*
X130363156Y-93240000D01*
X130344564Y-93015632D01*
X130289296Y-92797384D01*
X130198860Y-92591209D01*
X130075722Y-92402732D01*
X129970959Y-92288930D01*
X129926711Y-92240864D01*
X129926708Y-92240861D01*
X129923240Y-92237094D01*
X129910597Y-92227253D01*
X129749623Y-92101960D01*
X129749615Y-92101955D01*
X129745576Y-92098811D01*
X129741064Y-92096369D01*
X129741061Y-92096367D01*
X129709070Y-92079055D01*
X129661564Y-92033474D01*
X129644086Y-91970000D01*
X129661564Y-91906526D01*
X129709070Y-91860945D01*
X129709109Y-91860923D01*
X129745576Y-91841189D01*
X129923240Y-91702906D01*
X130075722Y-91537268D01*
X130198860Y-91348791D01*
X130289296Y-91142616D01*
X130344564Y-90924368D01*
X130363156Y-90700000D01*
X130344564Y-90475632D01*
X130289296Y-90257384D01*
X130198860Y-90051209D01*
X130075722Y-89862732D01*
X130072246Y-89858956D01*
X129926711Y-89700864D01*
X129926708Y-89700861D01*
X129923240Y-89697094D01*
X129910597Y-89687253D01*
X129749623Y-89561960D01*
X129749615Y-89561955D01*
X129745576Y-89558811D01*
X129741064Y-89556369D01*
X129741061Y-89556367D01*
X129709070Y-89539055D01*
X129661564Y-89493474D01*
X129644086Y-89430000D01*
X129661564Y-89366526D01*
X129709070Y-89320945D01*
X129709109Y-89320923D01*
X129745576Y-89301189D01*
X129923240Y-89162906D01*
X130075722Y-88997268D01*
X130198860Y-88808791D01*
X130289296Y-88602616D01*
X130344564Y-88384368D01*
X130363156Y-88160000D01*
X130344564Y-87935632D01*
X130289296Y-87717384D01*
X130198860Y-87511209D01*
X130075722Y-87322732D01*
X130072246Y-87318956D01*
X129926711Y-87160864D01*
X129926708Y-87160861D01*
X129923240Y-87157094D01*
X129910597Y-87147253D01*
X129749623Y-87021960D01*
X129749615Y-87021955D01*
X129745576Y-87018811D01*
X129741069Y-87016372D01*
X129741060Y-87016366D01*
X129709068Y-86999053D01*
X129661562Y-86953471D01*
X129644086Y-86889996D01*
X129661565Y-86826522D01*
X129709067Y-86780946D01*
X129745576Y-86761189D01*
X129923240Y-86622906D01*
X130075722Y-86457268D01*
X130198860Y-86268791D01*
X130289296Y-86062616D01*
X130344564Y-85844368D01*
X130363156Y-85620000D01*
X130344564Y-85395632D01*
X130289296Y-85177384D01*
X130198860Y-84971209D01*
X130075722Y-84782732D01*
X130029474Y-84732494D01*
X129926711Y-84620864D01*
X129926708Y-84620861D01*
X129923240Y-84617094D01*
X129910597Y-84607253D01*
X129749623Y-84481960D01*
X129749615Y-84481955D01*
X129745576Y-84478811D01*
X129741064Y-84476369D01*
X129741061Y-84476367D01*
X129709070Y-84459055D01*
X129661564Y-84413474D01*
X129644086Y-84350000D01*
X129661564Y-84286526D01*
X129709070Y-84240945D01*
X129709109Y-84240923D01*
X129745576Y-84221189D01*
X129923240Y-84082906D01*
X130075722Y-83917268D01*
X130198860Y-83728791D01*
X130289296Y-83522616D01*
X130344564Y-83304368D01*
X130363156Y-83080000D01*
X130344564Y-82855632D01*
X130289296Y-82637384D01*
X130198860Y-82431209D01*
X130075722Y-82242732D01*
X130072246Y-82238956D01*
X129926711Y-82080864D01*
X129926708Y-82080861D01*
X129923240Y-82077094D01*
X129910597Y-82067253D01*
X129749623Y-81941960D01*
X129749615Y-81941955D01*
X129745576Y-81938811D01*
X129741064Y-81936369D01*
X129741061Y-81936367D01*
X129709070Y-81919055D01*
X129661564Y-81873474D01*
X129644086Y-81810000D01*
X129661564Y-81746526D01*
X129709070Y-81700945D01*
X129709109Y-81700923D01*
X129745576Y-81681189D01*
X129923240Y-81542906D01*
X130075722Y-81377268D01*
X130198860Y-81188791D01*
X130289296Y-80982616D01*
X130344564Y-80764368D01*
X130363156Y-80540000D01*
X130344564Y-80315632D01*
X130289296Y-80097384D01*
X130198860Y-79891209D01*
X130075722Y-79702732D01*
X129930506Y-79544987D01*
X129901735Y-79492239D01*
X129901142Y-79432152D01*
X129928869Y-79378841D01*
X129978404Y-79344826D01*
X130096204Y-79300889D01*
X130213261Y-79213261D01*
X130300889Y-79096204D01*
X130351989Y-78959201D01*
X130358500Y-78898638D01*
X130358500Y-77101362D01*
X130351989Y-77040799D01*
X130300889Y-76903796D01*
X130213261Y-76786739D01*
X130096204Y-76699111D01*
X130087896Y-76696012D01*
X130087894Y-76696011D01*
X129966463Y-76650719D01*
X129966458Y-76650717D01*
X129959201Y-76648011D01*
X129951497Y-76647182D01*
X129951494Y-76647182D01*
X129901924Y-76641853D01*
X129901918Y-76641852D01*
X129898638Y-76641500D01*
X128101362Y-76641500D01*
X128098082Y-76641852D01*
X128098075Y-76641853D01*
X128048505Y-76647182D01*
X128048500Y-76647182D01*
X128040799Y-76648011D01*
X128033543Y-76650717D01*
X128033536Y-76650719D01*
X127912105Y-76696011D01*
X127912099Y-76696013D01*
X127903796Y-76699111D01*
X127896698Y-76704423D01*
X127896695Y-76704426D01*
X127793835Y-76781426D01*
X127793831Y-76781429D01*
X127786739Y-76786739D01*
X127781429Y-76793831D01*
X127781426Y-76793835D01*
X127704426Y-76896695D01*
X127704423Y-76896698D01*
X127699111Y-76903796D01*
X127696013Y-76912099D01*
X127696011Y-76912105D01*
X127650719Y-77033536D01*
X127650717Y-77033543D01*
X127648011Y-77040799D01*
X127647182Y-77048500D01*
X127647182Y-77048505D01*
X127645112Y-77067760D01*
X127641500Y-77101362D01*
X127641500Y-78898638D01*
X127648011Y-78959201D01*
X127650717Y-78966458D01*
X127650719Y-78966463D01*
X127696011Y-79087894D01*
X127699111Y-79096204D01*
X127786739Y-79213261D01*
X127903796Y-79300889D01*
X128021595Y-79344826D01*
X128071130Y-79378841D01*
X128098857Y-79432152D01*
X128098264Y-79492238D01*
X128069490Y-79544991D01*
X127927753Y-79698956D01*
X127927747Y-79698963D01*
X127924278Y-79702732D01*
X127921481Y-79707012D01*
X127921474Y-79707022D01*
X127803942Y-79886920D01*
X127801140Y-79891209D01*
X127799085Y-79895892D01*
X127799080Y-79895903D01*
X127763340Y-79977384D01*
X127710704Y-80097384D01*
X127709446Y-80102349D01*
X127709445Y-80102354D01*
X127656695Y-80310657D01*
X127656693Y-80310666D01*
X127655436Y-80315632D01*
X127655012Y-80320741D01*
X127655011Y-80320751D01*
X127637268Y-80534883D01*
X127636844Y-80540000D01*
X127637268Y-80545117D01*
X127655011Y-80759248D01*
X127655012Y-80759256D01*
X127655436Y-80764368D01*
X127656693Y-80769335D01*
X127656695Y-80769342D01*
X127681505Y-80867312D01*
X127710704Y-80982616D01*
X127712764Y-80987312D01*
X127799080Y-81184096D01*
X127799083Y-81184101D01*
X127801140Y-81188791D01*
X127843075Y-81252977D01*
X127921474Y-81372977D01*
X127921477Y-81372981D01*
X127924278Y-81377268D01*
X127927752Y-81381041D01*
X127927753Y-81381043D01*
X128073288Y-81539135D01*
X128073291Y-81539138D01*
X128076760Y-81542906D01*
X128125629Y-81580943D01*
X128250376Y-81678039D01*
X128250381Y-81678042D01*
X128254424Y-81681189D01*
X128258931Y-81683628D01*
X128258934Y-81683630D01*
X128290930Y-81700945D01*
X128338436Y-81746526D01*
X128355913Y-81810000D01*
X128338436Y-81873474D01*
X128290930Y-81919055D01*
X128258934Y-81936369D01*
X128258922Y-81936376D01*
X128254424Y-81938811D01*
X128250389Y-81941951D01*
X128250376Y-81941960D01*
X128080801Y-82073948D01*
X128080795Y-82073952D01*
X128076760Y-82077094D01*
X128073297Y-82080855D01*
X128073288Y-82080864D01*
X127927753Y-82238956D01*
X127927747Y-82238963D01*
X127924278Y-82242732D01*
X127921481Y-82247012D01*
X127921474Y-82247022D01*
X127803942Y-82426920D01*
X127801140Y-82431209D01*
X127799085Y-82435892D01*
X127799080Y-82435903D01*
X127763340Y-82517384D01*
X127710704Y-82637384D01*
X127709446Y-82642349D01*
X127709445Y-82642354D01*
X127656695Y-82850657D01*
X127656693Y-82850666D01*
X127655436Y-82855632D01*
X127655012Y-82860741D01*
X127655011Y-82860751D01*
X127637268Y-83074883D01*
X127636844Y-83080000D01*
X127637268Y-83085117D01*
X127655011Y-83299248D01*
X127655012Y-83299256D01*
X127655436Y-83304368D01*
X127656693Y-83309335D01*
X127656695Y-83309342D01*
X127681505Y-83407312D01*
X127710704Y-83522616D01*
X127712764Y-83527312D01*
X127799080Y-83724096D01*
X127799083Y-83724101D01*
X127801140Y-83728791D01*
X127833691Y-83778614D01*
X127921474Y-83912977D01*
X127921477Y-83912981D01*
X127924278Y-83917268D01*
X127927752Y-83921041D01*
X127927753Y-83921043D01*
X128073288Y-84079135D01*
X128073291Y-84079138D01*
X128076760Y-84082906D01*
X128125629Y-84120943D01*
X128250376Y-84218039D01*
X128250381Y-84218042D01*
X128254424Y-84221189D01*
X128258931Y-84223628D01*
X128258934Y-84223630D01*
X128290930Y-84240945D01*
X128338436Y-84286526D01*
X128355913Y-84350000D01*
X128338436Y-84413474D01*
X128290930Y-84459055D01*
X128258934Y-84476369D01*
X128258922Y-84476376D01*
X128254424Y-84478811D01*
X128250389Y-84481951D01*
X128250376Y-84481960D01*
X128080801Y-84613948D01*
X128080795Y-84613952D01*
X128076760Y-84617094D01*
X128073297Y-84620855D01*
X128073288Y-84620864D01*
X127927753Y-84778956D01*
X127927747Y-84778963D01*
X127924278Y-84782732D01*
X127921481Y-84787012D01*
X127921474Y-84787022D01*
X127814380Y-84950944D01*
X127801140Y-84971209D01*
X127799085Y-84975892D01*
X127799080Y-84975903D01*
X127715312Y-85166879D01*
X127710704Y-85177384D01*
X127709446Y-85182349D01*
X127709445Y-85182354D01*
X127656695Y-85390657D01*
X127656693Y-85390666D01*
X127655436Y-85395632D01*
X127655012Y-85400741D01*
X127655011Y-85400751D01*
X127637268Y-85614883D01*
X127636844Y-85620000D01*
X127637268Y-85625117D01*
X127655011Y-85839248D01*
X127655012Y-85839256D01*
X127655436Y-85844368D01*
X127656693Y-85849335D01*
X127656695Y-85849342D01*
X127681505Y-85947312D01*
X127710704Y-86062616D01*
X127712764Y-86067312D01*
X127799080Y-86264096D01*
X127799083Y-86264101D01*
X127801140Y-86268791D01*
X127843075Y-86332977D01*
X127921474Y-86452977D01*
X127921477Y-86452981D01*
X127924278Y-86457268D01*
X127927752Y-86461041D01*
X127927753Y-86461043D01*
X128073288Y-86619135D01*
X128073291Y-86619138D01*
X128076760Y-86622906D01*
X128125632Y-86660945D01*
X128250376Y-86758039D01*
X128250381Y-86758042D01*
X128254424Y-86761189D01*
X128290930Y-86780945D01*
X128338434Y-86826523D01*
X128355913Y-86889996D01*
X128338437Y-86953471D01*
X128290933Y-86999053D01*
X128258930Y-87016372D01*
X128258925Y-87016374D01*
X128254424Y-87018811D01*
X128250389Y-87021951D01*
X128250376Y-87021960D01*
X128080801Y-87153948D01*
X128080795Y-87153952D01*
X128076760Y-87157094D01*
X128073297Y-87160855D01*
X128073288Y-87160864D01*
X127927753Y-87318956D01*
X127927747Y-87318963D01*
X127924278Y-87322732D01*
X127921481Y-87327012D01*
X127921474Y-87327022D01*
X127803942Y-87506920D01*
X127801140Y-87511209D01*
X127799085Y-87515892D01*
X127799080Y-87515903D01*
X127763340Y-87597384D01*
X127710704Y-87717384D01*
X127709446Y-87722349D01*
X127709445Y-87722354D01*
X127656695Y-87930657D01*
X127656693Y-87930666D01*
X127655436Y-87935632D01*
X127655012Y-87940741D01*
X127655011Y-87940751D01*
X127637268Y-88154883D01*
X127636844Y-88160000D01*
X127637268Y-88165117D01*
X127655011Y-88379248D01*
X127655012Y-88379256D01*
X127655436Y-88384368D01*
X127656693Y-88389335D01*
X127656695Y-88389342D01*
X127681505Y-88487312D01*
X127710704Y-88602616D01*
X127712764Y-88607312D01*
X127799080Y-88804096D01*
X127799083Y-88804101D01*
X127801140Y-88808791D01*
X127843075Y-88872977D01*
X127921474Y-88992977D01*
X127921477Y-88992981D01*
X127924278Y-88997268D01*
X127927752Y-89001041D01*
X127927753Y-89001043D01*
X128073288Y-89159135D01*
X128073291Y-89159138D01*
X128076760Y-89162906D01*
X128125632Y-89200945D01*
X128250376Y-89298039D01*
X128250381Y-89298042D01*
X128254424Y-89301189D01*
X128258931Y-89303628D01*
X128258934Y-89303630D01*
X128290930Y-89320945D01*
X128338436Y-89366526D01*
X128355913Y-89430000D01*
X128338436Y-89493474D01*
X128290930Y-89539055D01*
X128258934Y-89556369D01*
X128258922Y-89556376D01*
X128254424Y-89558811D01*
X128250389Y-89561951D01*
X128250376Y-89561960D01*
X128080801Y-89693948D01*
X128080795Y-89693952D01*
X128076760Y-89697094D01*
X128073297Y-89700855D01*
X128073288Y-89700864D01*
X127927753Y-89858956D01*
X127927747Y-89858963D01*
X127924278Y-89862732D01*
X127921481Y-89867012D01*
X127921474Y-89867022D01*
X127803942Y-90046920D01*
X127801140Y-90051209D01*
X127799085Y-90055892D01*
X127799080Y-90055903D01*
X127763340Y-90137384D01*
X127710704Y-90257384D01*
X127709446Y-90262349D01*
X127709445Y-90262354D01*
X127656695Y-90470657D01*
X127656693Y-90470666D01*
X127655436Y-90475632D01*
X127655012Y-90480741D01*
X127655011Y-90480751D01*
X127637268Y-90694883D01*
X127636844Y-90700000D01*
X127637268Y-90705117D01*
X127655011Y-90919248D01*
X127655012Y-90919256D01*
X127655436Y-90924368D01*
X127656693Y-90929335D01*
X127656695Y-90929342D01*
X127709445Y-91137645D01*
X127710704Y-91142616D01*
X127712764Y-91147312D01*
X127799080Y-91344096D01*
X127799083Y-91344101D01*
X127801140Y-91348791D01*
X127837694Y-91404741D01*
X127921474Y-91532977D01*
X127921477Y-91532981D01*
X127924278Y-91537268D01*
X127927752Y-91541041D01*
X127927753Y-91541043D01*
X128073288Y-91699135D01*
X128073291Y-91699138D01*
X128076760Y-91702906D01*
X128127278Y-91742226D01*
X128250376Y-91838039D01*
X128250381Y-91838042D01*
X128254424Y-91841189D01*
X128258931Y-91843628D01*
X128258934Y-91843630D01*
X128290930Y-91860945D01*
X128338436Y-91906526D01*
X128355913Y-91970000D01*
X128338436Y-92033474D01*
X128290930Y-92079055D01*
X128258934Y-92096369D01*
X128258922Y-92096376D01*
X128254424Y-92098811D01*
X128250389Y-92101951D01*
X128250376Y-92101960D01*
X128080801Y-92233948D01*
X128080795Y-92233952D01*
X128076760Y-92237094D01*
X128073297Y-92240855D01*
X128073288Y-92240864D01*
X127927753Y-92398956D01*
X127927747Y-92398963D01*
X127924278Y-92402732D01*
X127921481Y-92407012D01*
X127921474Y-92407022D01*
X127803942Y-92586920D01*
X127801140Y-92591209D01*
X127799085Y-92595892D01*
X127799080Y-92595903D01*
X127712764Y-92792687D01*
X127710704Y-92797384D01*
X127709446Y-92802349D01*
X127709445Y-92802354D01*
X127656695Y-93010657D01*
X127656693Y-93010666D01*
X127655436Y-93015632D01*
X127655012Y-93020741D01*
X127655011Y-93020751D01*
X127637268Y-93234883D01*
X127636844Y-93240000D01*
X127637268Y-93245117D01*
X127655011Y-93459248D01*
X127655012Y-93459256D01*
X127655436Y-93464368D01*
X127656693Y-93469335D01*
X127656695Y-93469342D01*
X127684278Y-93578263D01*
X127710704Y-93682616D01*
X127712764Y-93687312D01*
X127799080Y-93884096D01*
X127799083Y-93884101D01*
X127801140Y-93888791D01*
X127860505Y-93979656D01*
X127921474Y-94072977D01*
X127921477Y-94072981D01*
X127924278Y-94077268D01*
X127927752Y-94081041D01*
X127927753Y-94081043D01*
X128073288Y-94239135D01*
X128073291Y-94239138D01*
X128076760Y-94242906D01*
X128080801Y-94246051D01*
X128250376Y-94378039D01*
X128250381Y-94378042D01*
X128254424Y-94381189D01*
X128258931Y-94383628D01*
X128258934Y-94383630D01*
X128290930Y-94400945D01*
X128338436Y-94446526D01*
X128355913Y-94510000D01*
X128338436Y-94573474D01*
X128290930Y-94619055D01*
X128258934Y-94636369D01*
X128258922Y-94636376D01*
X128254424Y-94638811D01*
X128250389Y-94641951D01*
X128250376Y-94641960D01*
X128080801Y-94773948D01*
X128080795Y-94773952D01*
X128076760Y-94777094D01*
X128073297Y-94780855D01*
X128073288Y-94780864D01*
X127927753Y-94938956D01*
X127927747Y-94938963D01*
X127924278Y-94942732D01*
X127921481Y-94947012D01*
X127921474Y-94947022D01*
X127803942Y-95126920D01*
X127801140Y-95131209D01*
X127799085Y-95135892D01*
X127799080Y-95135903D01*
X127763340Y-95217384D01*
X127710704Y-95337384D01*
X127709446Y-95342349D01*
X127709445Y-95342354D01*
X127656695Y-95550657D01*
X127656693Y-95550666D01*
X127655436Y-95555632D01*
X127655012Y-95560741D01*
X127655011Y-95560751D01*
X127637268Y-95774883D01*
X127636844Y-95780000D01*
X127637268Y-95785117D01*
X127655011Y-95999248D01*
X127655012Y-95999256D01*
X127655436Y-96004368D01*
X127656693Y-96009335D01*
X127656695Y-96009342D01*
X127681505Y-96107312D01*
X127710704Y-96222616D01*
X127712764Y-96227312D01*
X127799080Y-96424096D01*
X127799083Y-96424101D01*
X127801140Y-96428791D01*
X127860505Y-96519656D01*
X127921474Y-96612977D01*
X127921477Y-96612981D01*
X127924278Y-96617268D01*
X127927752Y-96621041D01*
X127927753Y-96621043D01*
X128073288Y-96779135D01*
X128073291Y-96779138D01*
X128076760Y-96782906D01*
X128125632Y-96820945D01*
X128250376Y-96918039D01*
X128250381Y-96918042D01*
X128254424Y-96921189D01*
X128258931Y-96923628D01*
X128258934Y-96923630D01*
X128290930Y-96940945D01*
X128338436Y-96986526D01*
X128355913Y-97050000D01*
X128338436Y-97113474D01*
X128290930Y-97159055D01*
X128258934Y-97176369D01*
X128258922Y-97176376D01*
X128254424Y-97178811D01*
X128250389Y-97181951D01*
X128250376Y-97181960D01*
X128080801Y-97313948D01*
X128080795Y-97313952D01*
X128076760Y-97317094D01*
X128073297Y-97320855D01*
X128073288Y-97320864D01*
X127927753Y-97478956D01*
X127927747Y-97478963D01*
X127924278Y-97482732D01*
X127921481Y-97487012D01*
X127921474Y-97487022D01*
X127803942Y-97666920D01*
X127801140Y-97671209D01*
X127799085Y-97675892D01*
X127799080Y-97675903D01*
X127763340Y-97757384D01*
X127710704Y-97877384D01*
X127709446Y-97882349D01*
X127709445Y-97882354D01*
X127656695Y-98090657D01*
X127656693Y-98090666D01*
X127655436Y-98095632D01*
X127655012Y-98100741D01*
X127655011Y-98100751D01*
X127640495Y-98275942D01*
X127636844Y-98320000D01*
X127637268Y-98325117D01*
X127655011Y-98539248D01*
X127655012Y-98539256D01*
X127655436Y-98544368D01*
X127656693Y-98549335D01*
X127656695Y-98549342D01*
X127681505Y-98647312D01*
X127710704Y-98762616D01*
X127712764Y-98767312D01*
X127799080Y-98964096D01*
X127799083Y-98964101D01*
X127801140Y-98968791D01*
X127860505Y-99059656D01*
X127921474Y-99152977D01*
X127921477Y-99152981D01*
X127924278Y-99157268D01*
X127927752Y-99161041D01*
X127927753Y-99161043D01*
X128073288Y-99319135D01*
X128073291Y-99319138D01*
X128076760Y-99322906D01*
X128119638Y-99356280D01*
X128250376Y-99458039D01*
X128250381Y-99458042D01*
X128254424Y-99461189D01*
X128290930Y-99480945D01*
X128338434Y-99526523D01*
X128355913Y-99589996D01*
X128338437Y-99653471D01*
X128290933Y-99699053D01*
X128258930Y-99716372D01*
X128258925Y-99716374D01*
X128254424Y-99718811D01*
X128250389Y-99721951D01*
X128250376Y-99721960D01*
X128080801Y-99853948D01*
X128080795Y-99853952D01*
X128076760Y-99857094D01*
X128073297Y-99860855D01*
X128073288Y-99860864D01*
X127927753Y-100018956D01*
X127927747Y-100018963D01*
X127924278Y-100022732D01*
X127921481Y-100027012D01*
X127921474Y-100027022D01*
X127803942Y-100206920D01*
X127801140Y-100211209D01*
X127799085Y-100215892D01*
X127799080Y-100215903D01*
X127712764Y-100412687D01*
X127710704Y-100417384D01*
X127709446Y-100422349D01*
X127709445Y-100422354D01*
X127656695Y-100630657D01*
X127656693Y-100630666D01*
X127655436Y-100635632D01*
X127655012Y-100640741D01*
X127655011Y-100640751D01*
X127644560Y-100766879D01*
X127636844Y-100860000D01*
X127637268Y-100865117D01*
X127655011Y-101079248D01*
X127655012Y-101079256D01*
X127655436Y-101084368D01*
X127656693Y-101089335D01*
X127656695Y-101089342D01*
X127681505Y-101187312D01*
X127710704Y-101302616D01*
X127712764Y-101307312D01*
X127799080Y-101504096D01*
X127799083Y-101504101D01*
X127801140Y-101508791D01*
X127860505Y-101599656D01*
X127921474Y-101692977D01*
X127921477Y-101692981D01*
X127924278Y-101697268D01*
X127927752Y-101701041D01*
X127927753Y-101701043D01*
X128073288Y-101859135D01*
X128073291Y-101859138D01*
X128076760Y-101862906D01*
X128125632Y-101900945D01*
X128250376Y-101998039D01*
X128250381Y-101998042D01*
X128254424Y-102001189D01*
X128258931Y-102003628D01*
X128258934Y-102003630D01*
X128290930Y-102020945D01*
X128338436Y-102066526D01*
X128355913Y-102130000D01*
X128338436Y-102193474D01*
X128290930Y-102239055D01*
X128258934Y-102256369D01*
X128258922Y-102256376D01*
X128254424Y-102258811D01*
X128250389Y-102261951D01*
X128250376Y-102261960D01*
X128080801Y-102393948D01*
X128080795Y-102393952D01*
X128076760Y-102397094D01*
X128073297Y-102400855D01*
X128073288Y-102400864D01*
X127927753Y-102558956D01*
X127927747Y-102558963D01*
X127924278Y-102562732D01*
X127921481Y-102567012D01*
X127921474Y-102567022D01*
X127803942Y-102746920D01*
X127801140Y-102751209D01*
X127799085Y-102755892D01*
X127799080Y-102755903D01*
X127763340Y-102837384D01*
X127710704Y-102957384D01*
X127709446Y-102962349D01*
X127709445Y-102962354D01*
X127656695Y-103170657D01*
X127656693Y-103170666D01*
X127655436Y-103175632D01*
X127655012Y-103180741D01*
X127655011Y-103180751D01*
X127637268Y-103394883D01*
X127636844Y-103400000D01*
X127637268Y-103405117D01*
X127655011Y-103619248D01*
X127655012Y-103619256D01*
X127655436Y-103624368D01*
X127656693Y-103629335D01*
X127656695Y-103629342D01*
X127704771Y-103819189D01*
X127710704Y-103842616D01*
X127712764Y-103847312D01*
X127799080Y-104044096D01*
X127799083Y-104044101D01*
X127801140Y-104048791D01*
X127860505Y-104139656D01*
X127921474Y-104232977D01*
X127921477Y-104232981D01*
X127924278Y-104237268D01*
X127927752Y-104241041D01*
X127927753Y-104241043D01*
X128073288Y-104399135D01*
X128073291Y-104399138D01*
X128076760Y-104402906D01*
X128080801Y-104406051D01*
X128250376Y-104538039D01*
X128250381Y-104538042D01*
X128254424Y-104541189D01*
X128258931Y-104543628D01*
X128258934Y-104543630D01*
X128290930Y-104560945D01*
X128338436Y-104606526D01*
X128355913Y-104670000D01*
X128338436Y-104733474D01*
X128290930Y-104779055D01*
X128258934Y-104796369D01*
X128258922Y-104796376D01*
X128254424Y-104798811D01*
X128250389Y-104801951D01*
X128250376Y-104801960D01*
X128080801Y-104933948D01*
X128080795Y-104933952D01*
X128076760Y-104937094D01*
X128073297Y-104940855D01*
X128073288Y-104940864D01*
X127927753Y-105098956D01*
X127927747Y-105098963D01*
X127924278Y-105102732D01*
X127921481Y-105107012D01*
X127921474Y-105107022D01*
X127803942Y-105286920D01*
X127801140Y-105291209D01*
X127799085Y-105295892D01*
X127799080Y-105295903D01*
X127712764Y-105492687D01*
X127710704Y-105497384D01*
X127709446Y-105502349D01*
X127709445Y-105502354D01*
X127656695Y-105710657D01*
X127656693Y-105710666D01*
X127655436Y-105715632D01*
X127655012Y-105720741D01*
X127655011Y-105720751D01*
X127639819Y-105904096D01*
X127636844Y-105940000D01*
X127637268Y-105945117D01*
X127655011Y-106159248D01*
X127655012Y-106159256D01*
X127655436Y-106164368D01*
X127656693Y-106169335D01*
X127656695Y-106169342D01*
X127709445Y-106377645D01*
X127710704Y-106382616D01*
X127712764Y-106387312D01*
X127799080Y-106584096D01*
X127799083Y-106584101D01*
X127801140Y-106588791D01*
X127860505Y-106679656D01*
X127921474Y-106772977D01*
X127921477Y-106772981D01*
X127924278Y-106777268D01*
X127927752Y-106781041D01*
X127927753Y-106781043D01*
X128073288Y-106939135D01*
X128073291Y-106939138D01*
X128076760Y-106942906D01*
X128107744Y-106967022D01*
X128250376Y-107078039D01*
X128250381Y-107078042D01*
X128254424Y-107081189D01*
X128258931Y-107083628D01*
X128258934Y-107083630D01*
X128290930Y-107100945D01*
X128338436Y-107146526D01*
X128355913Y-107210000D01*
X128338436Y-107273474D01*
X128290930Y-107319055D01*
X128258934Y-107336369D01*
X128258922Y-107336376D01*
X128254424Y-107338811D01*
X128250389Y-107341951D01*
X128250376Y-107341960D01*
X128080801Y-107473948D01*
X128080795Y-107473952D01*
X128076760Y-107477094D01*
X128073297Y-107480855D01*
X128073288Y-107480864D01*
X127927753Y-107638956D01*
X127927747Y-107638963D01*
X127924278Y-107642732D01*
X127921481Y-107647012D01*
X127921474Y-107647022D01*
X127863493Y-107735770D01*
X127801140Y-107831209D01*
X127799085Y-107835892D01*
X127799080Y-107835903D01*
X127730438Y-107992394D01*
X127710704Y-108037384D01*
X127709446Y-108042349D01*
X127709445Y-108042354D01*
X127656695Y-108250657D01*
X127656693Y-108250666D01*
X127655436Y-108255632D01*
X127655012Y-108260741D01*
X127655011Y-108260751D01*
X127638894Y-108455259D01*
X127636844Y-108480000D01*
X126600500Y-108480000D01*
X126600500Y-72777789D01*
X129836659Y-72777789D01*
X129837288Y-72784980D01*
X129837288Y-72784986D01*
X129841028Y-72827725D01*
X129841500Y-72838533D01*
X129841500Y-72844180D01*
X129841916Y-72847739D01*
X129841917Y-72847756D01*
X129845139Y-72875321D01*
X129845505Y-72878905D01*
X129852113Y-72954426D01*
X129854381Y-72961273D01*
X129855143Y-72964962D01*
X129855168Y-72965121D01*
X129855220Y-72965302D01*
X129856081Y-72968937D01*
X129856921Y-72976113D01*
X129859391Y-72982900D01*
X129859392Y-72982903D01*
X129882854Y-73047367D01*
X129884038Y-73050771D01*
X129907886Y-73122738D01*
X129911675Y-73128881D01*
X129913255Y-73132269D01*
X129913328Y-73132446D01*
X129913417Y-73132605D01*
X129915095Y-73135946D01*
X129917565Y-73142732D01*
X129921532Y-73148763D01*
X129959245Y-73206103D01*
X129961178Y-73209138D01*
X130000970Y-73273651D01*
X130006080Y-73278761D01*
X130008385Y-73281676D01*
X130008502Y-73281838D01*
X130008621Y-73281968D01*
X130011027Y-73284836D01*
X130014999Y-73290874D01*
X130020254Y-73295831D01*
X130020255Y-73295833D01*
X130070173Y-73342928D01*
X130072760Y-73345441D01*
X134405181Y-77677862D01*
X134432061Y-77718090D01*
X134441500Y-77765543D01*
X134441500Y-94075705D01*
X134440190Y-94093677D01*
X134436659Y-94117789D01*
X134437288Y-94124980D01*
X134437288Y-94124986D01*
X134441028Y-94167725D01*
X134441500Y-94178533D01*
X134441500Y-94184180D01*
X134441916Y-94187739D01*
X134441917Y-94187756D01*
X134445139Y-94215321D01*
X134445505Y-94218905D01*
X134452113Y-94294426D01*
X134454381Y-94301273D01*
X134455143Y-94304962D01*
X134455168Y-94305121D01*
X134455220Y-94305302D01*
X134456081Y-94308937D01*
X134456921Y-94316113D01*
X134459391Y-94322900D01*
X134459392Y-94322903D01*
X134482854Y-94387367D01*
X134484038Y-94390771D01*
X134502514Y-94446526D01*
X134507886Y-94462738D01*
X134511675Y-94468881D01*
X134513255Y-94472269D01*
X134513328Y-94472446D01*
X134513417Y-94472605D01*
X134515095Y-94475946D01*
X134517565Y-94482732D01*
X134525893Y-94495394D01*
X134559245Y-94546103D01*
X134561178Y-94549138D01*
X134600970Y-94613651D01*
X134606080Y-94618761D01*
X134608385Y-94621676D01*
X134608502Y-94621838D01*
X134608621Y-94621968D01*
X134611027Y-94624836D01*
X134614999Y-94630874D01*
X134620254Y-94635831D01*
X134620255Y-94635833D01*
X134670173Y-94682928D01*
X134672760Y-94685441D01*
X153118430Y-113131111D01*
X153147173Y-113176114D01*
X153154325Y-113229032D01*
X153141074Y-113388955D01*
X153136844Y-113440000D01*
X153137268Y-113445117D01*
X153155011Y-113659248D01*
X153155012Y-113659256D01*
X153155436Y-113664368D01*
X153156693Y-113669335D01*
X153156695Y-113669342D01*
X153209445Y-113877645D01*
X153210704Y-113882616D01*
X153212764Y-113887312D01*
X153299080Y-114084096D01*
X153299083Y-114084101D01*
X153301140Y-114088791D01*
X153360505Y-114179656D01*
X153421474Y-114272977D01*
X153421477Y-114272981D01*
X153424278Y-114277268D01*
X153427752Y-114281041D01*
X153427753Y-114281043D01*
X153573288Y-114439135D01*
X153573291Y-114439138D01*
X153576760Y-114442906D01*
X153580801Y-114446051D01*
X153750376Y-114578039D01*
X153750381Y-114578042D01*
X153754424Y-114581189D01*
X153758931Y-114583628D01*
X153758934Y-114583630D01*
X153790930Y-114600945D01*
X153838436Y-114646526D01*
X153855913Y-114710000D01*
X153838436Y-114773474D01*
X153790930Y-114819055D01*
X153758934Y-114836369D01*
X153758922Y-114836376D01*
X153754424Y-114838811D01*
X153750389Y-114841951D01*
X153750376Y-114841960D01*
X153580801Y-114973948D01*
X153580795Y-114973952D01*
X153576760Y-114977094D01*
X153573297Y-114980855D01*
X153573288Y-114980864D01*
X153427753Y-115138956D01*
X153427747Y-115138963D01*
X153424278Y-115142732D01*
X153421481Y-115147012D01*
X153421474Y-115147022D01*
X153349406Y-115257332D01*
X153301140Y-115331209D01*
X153299085Y-115335892D01*
X153299080Y-115335903D01*
X153212764Y-115532687D01*
X153210704Y-115537384D01*
X153209446Y-115542349D01*
X153209445Y-115542354D01*
X153156695Y-115750657D01*
X153156693Y-115750666D01*
X153155436Y-115755632D01*
X153155012Y-115760741D01*
X153155011Y-115760751D01*
X153145492Y-115875632D01*
X153136844Y-115980000D01*
X153137268Y-115985117D01*
X153155011Y-116199248D01*
X153155012Y-116199256D01*
X153155436Y-116204368D01*
X153156693Y-116209335D01*
X153156695Y-116209342D01*
X153204571Y-116398397D01*
X153210704Y-116422616D01*
X153212764Y-116427312D01*
X153299080Y-116624096D01*
X153299083Y-116624101D01*
X153301140Y-116628791D01*
X153360505Y-116719656D01*
X153421474Y-116812977D01*
X153421477Y-116812981D01*
X153424278Y-116817268D01*
X153427752Y-116821041D01*
X153427753Y-116821043D01*
X153573288Y-116979135D01*
X153573291Y-116979138D01*
X153576760Y-116982906D01*
X153580801Y-116986051D01*
X153750376Y-117118039D01*
X153750381Y-117118042D01*
X153754424Y-117121189D01*
X153790930Y-117140945D01*
X153838434Y-117186523D01*
X153855913Y-117249996D01*
X153838437Y-117313471D01*
X153790933Y-117359053D01*
X153758930Y-117376372D01*
X153758925Y-117376374D01*
X153754424Y-117378811D01*
X153750389Y-117381951D01*
X153750376Y-117381960D01*
X153580801Y-117513948D01*
X153580795Y-117513952D01*
X153576760Y-117517094D01*
X153573297Y-117520855D01*
X153573288Y-117520864D01*
X153427753Y-117678956D01*
X153427747Y-117678963D01*
X153424278Y-117682732D01*
X153421481Y-117687012D01*
X153421474Y-117687022D01*
X153348345Y-117798956D01*
X153301140Y-117871209D01*
X153299085Y-117875892D01*
X153299080Y-117875903D01*
X153212764Y-118072687D01*
X153210704Y-118077384D01*
X153209446Y-118082349D01*
X153209445Y-118082354D01*
X153156695Y-118290657D01*
X153156693Y-118290666D01*
X153155436Y-118295632D01*
X153155012Y-118300741D01*
X153155011Y-118300751D01*
X153145492Y-118415632D01*
X153136844Y-118520000D01*
X153137268Y-118525117D01*
X153155011Y-118739248D01*
X153155012Y-118739256D01*
X153155436Y-118744368D01*
X153156693Y-118749335D01*
X153156695Y-118749342D01*
X153209445Y-118957645D01*
X153210704Y-118962616D01*
X153212764Y-118967312D01*
X153299080Y-119164096D01*
X153299083Y-119164101D01*
X153301140Y-119168791D01*
X153360505Y-119259656D01*
X153421474Y-119352977D01*
X153421477Y-119352981D01*
X153424278Y-119357268D01*
X153427752Y-119361041D01*
X153427753Y-119361043D01*
X153573288Y-119519135D01*
X153573291Y-119519138D01*
X153576760Y-119522906D01*
X153580801Y-119526051D01*
X153750376Y-119658039D01*
X153750381Y-119658042D01*
X153754424Y-119661189D01*
X153790930Y-119680945D01*
X153838434Y-119726523D01*
X153855913Y-119789996D01*
X153838437Y-119853471D01*
X153790933Y-119899053D01*
X153758930Y-119916372D01*
X153758925Y-119916374D01*
X153754424Y-119918811D01*
X153750389Y-119921951D01*
X153750376Y-119921960D01*
X153580801Y-120053948D01*
X153580795Y-120053952D01*
X153576760Y-120057094D01*
X153573297Y-120060855D01*
X153573288Y-120060864D01*
X153427753Y-120218956D01*
X153427747Y-120218963D01*
X153424278Y-120222732D01*
X153421481Y-120227012D01*
X153421474Y-120227022D01*
X153348345Y-120338956D01*
X153301140Y-120411209D01*
X153299085Y-120415892D01*
X153299080Y-120415903D01*
X153212764Y-120612687D01*
X153210704Y-120617384D01*
X153209446Y-120622349D01*
X153209445Y-120622354D01*
X153156695Y-120830657D01*
X153156693Y-120830666D01*
X153155436Y-120835632D01*
X153155012Y-120840741D01*
X153155011Y-120840751D01*
X153145492Y-120955632D01*
X153136844Y-121060000D01*
X153137268Y-121065117D01*
X153155011Y-121279248D01*
X153155012Y-121279256D01*
X153155436Y-121284368D01*
X153156693Y-121289335D01*
X153156695Y-121289342D01*
X153209445Y-121497645D01*
X153210704Y-121502616D01*
X153212764Y-121507312D01*
X153299080Y-121704096D01*
X153299083Y-121704101D01*
X153301140Y-121708791D01*
X153360505Y-121799656D01*
X153421474Y-121892977D01*
X153421477Y-121892981D01*
X153424278Y-121897268D01*
X153569492Y-122055011D01*
X153598264Y-122107760D01*
X153598857Y-122167847D01*
X153571131Y-122221157D01*
X153521596Y-122255172D01*
X153412109Y-122296009D01*
X153412101Y-122296013D01*
X153403796Y-122299111D01*
X153396698Y-122304423D01*
X153396695Y-122304426D01*
X153293835Y-122381426D01*
X153293831Y-122381429D01*
X153286739Y-122386739D01*
X153281429Y-122393831D01*
X153281426Y-122393835D01*
X153204426Y-122496695D01*
X153204423Y-122496698D01*
X153199111Y-122503796D01*
X153196013Y-122512099D01*
X153196011Y-122512105D01*
X153150719Y-122633536D01*
X153150717Y-122633543D01*
X153148011Y-122640799D01*
X153147182Y-122648500D01*
X153147182Y-122648505D01*
X153146005Y-122659457D01*
X153141500Y-122701362D01*
X153141500Y-124498638D01*
X153148011Y-124559201D01*
X153150717Y-124566458D01*
X153150719Y-124566463D01*
X153196011Y-124687894D01*
X153199111Y-124696204D01*
X153286739Y-124813261D01*
X153403796Y-124900889D01*
X153540799Y-124951989D01*
X153601362Y-124958500D01*
X155395328Y-124958500D01*
X155398638Y-124958500D01*
X155459201Y-124951989D01*
X155596204Y-124900889D01*
X155713261Y-124813261D01*
X155800889Y-124696204D01*
X155851989Y-124559201D01*
X155858500Y-124498638D01*
X155858500Y-122701362D01*
X155851989Y-122640799D01*
X155800889Y-122503796D01*
X155713261Y-122386739D01*
X155628957Y-122323630D01*
X155603304Y-122304426D01*
X155603303Y-122304425D01*
X155596204Y-122299111D01*
X155587895Y-122296011D01*
X155587888Y-122296008D01*
X155478404Y-122255172D01*
X155428869Y-122221157D01*
X155401142Y-122167847D01*
X155401735Y-122107760D01*
X155430505Y-122055013D01*
X155575722Y-121897268D01*
X155698860Y-121708791D01*
X155789296Y-121502616D01*
X155844564Y-121284368D01*
X155863156Y-121060000D01*
X155844564Y-120835632D01*
X155789296Y-120617384D01*
X155698860Y-120411209D01*
X155575722Y-120222732D01*
X155572246Y-120218956D01*
X155426711Y-120060864D01*
X155426708Y-120060861D01*
X155423240Y-120057094D01*
X155374368Y-120019055D01*
X155249623Y-119921960D01*
X155249615Y-119921955D01*
X155245576Y-119918811D01*
X155241066Y-119916370D01*
X155241061Y-119916367D01*
X155209070Y-119899055D01*
X155161564Y-119853474D01*
X155144086Y-119790000D01*
X155161564Y-119726526D01*
X155209070Y-119680945D01*
X155209109Y-119680923D01*
X155245576Y-119661189D01*
X155423240Y-119522906D01*
X155575722Y-119357268D01*
X155698860Y-119168791D01*
X155789296Y-118962616D01*
X155844564Y-118744368D01*
X155863156Y-118520000D01*
X155844564Y-118295632D01*
X155789296Y-118077384D01*
X155698860Y-117871209D01*
X155575722Y-117682732D01*
X155572246Y-117678956D01*
X155426711Y-117520864D01*
X155426708Y-117520861D01*
X155423240Y-117517094D01*
X155374368Y-117479055D01*
X155249623Y-117381960D01*
X155249615Y-117381955D01*
X155245576Y-117378811D01*
X155241069Y-117376372D01*
X155241060Y-117376366D01*
X155209068Y-117359053D01*
X155161562Y-117313471D01*
X155144086Y-117249996D01*
X155161565Y-117186522D01*
X155209067Y-117140946D01*
X155245576Y-117121189D01*
X155423240Y-116982906D01*
X155575722Y-116817268D01*
X155698860Y-116628791D01*
X155789296Y-116422616D01*
X155844564Y-116204368D01*
X155863156Y-115980000D01*
X155844564Y-115755632D01*
X155789296Y-115537384D01*
X155698860Y-115331209D01*
X155575722Y-115142732D01*
X155572246Y-115138956D01*
X155426711Y-114980864D01*
X155426708Y-114980861D01*
X155423240Y-114977094D01*
X155374368Y-114939055D01*
X155249623Y-114841960D01*
X155249615Y-114841955D01*
X155245576Y-114838811D01*
X155241064Y-114836369D01*
X155241061Y-114836367D01*
X155209070Y-114819055D01*
X155161564Y-114773474D01*
X155144086Y-114710000D01*
X155161564Y-114646526D01*
X155209070Y-114600945D01*
X155212609Y-114599030D01*
X155245576Y-114581189D01*
X155423240Y-114442906D01*
X155575722Y-114277268D01*
X155698860Y-114088791D01*
X155789296Y-113882616D01*
X155844564Y-113664368D01*
X155849035Y-113610409D01*
X155873974Y-113545507D01*
X155929931Y-113504229D01*
X155999309Y-113499561D01*
X156060291Y-113532972D01*
X157018195Y-114490876D01*
X157029973Y-114504503D01*
X157044531Y-114524058D01*
X157050067Y-114528703D01*
X157082932Y-114556280D01*
X157090908Y-114563589D01*
X157094899Y-114567580D01*
X157119505Y-114587036D01*
X157122274Y-114589293D01*
X157180360Y-114638032D01*
X157186818Y-114641275D01*
X157189927Y-114643320D01*
X157190092Y-114643439D01*
X157190251Y-114643528D01*
X157193432Y-114645490D01*
X157199094Y-114649967D01*
X157205635Y-114653017D01*
X157267810Y-114682010D01*
X157271054Y-114683580D01*
X157338812Y-114717609D01*
X157345841Y-114719274D01*
X157349321Y-114720541D01*
X157349517Y-114720622D01*
X157349700Y-114720674D01*
X157353243Y-114721848D01*
X157359794Y-114724903D01*
X157434165Y-114740259D01*
X157437528Y-114741005D01*
X157511344Y-114758500D01*
X157518575Y-114758500D01*
X157522271Y-114758932D01*
X157522468Y-114758963D01*
X157522653Y-114758972D01*
X157526365Y-114759296D01*
X157533442Y-114760758D01*
X157609273Y-114758551D01*
X157612879Y-114758500D01*
X160937950Y-114758500D01*
X160994245Y-114772015D01*
X161038268Y-114809615D01*
X161060423Y-114863102D01*
X161055881Y-114920818D01*
X161025631Y-114970181D01*
X160940719Y-115055092D01*
X160933784Y-115063357D01*
X160804508Y-115247982D01*
X160799110Y-115257332D01*
X160703856Y-115461602D01*
X160700168Y-115471736D01*
X160648056Y-115666219D01*
X160647688Y-115677448D01*
X160658631Y-115680000D01*
X163291369Y-115680000D01*
X163302311Y-115677448D01*
X163301943Y-115666219D01*
X163249831Y-115471736D01*
X163246143Y-115461602D01*
X163150889Y-115257332D01*
X163145491Y-115247982D01*
X163016215Y-115063357D01*
X163009280Y-115055092D01*
X162924369Y-114970181D01*
X162894119Y-114920818D01*
X162889577Y-114863102D01*
X162911732Y-114809615D01*
X162955755Y-114772015D01*
X163012050Y-114758500D01*
X165535705Y-114758500D01*
X165553677Y-114759809D01*
X165577789Y-114763341D01*
X165627727Y-114758971D01*
X165638533Y-114758500D01*
X165640571Y-114758500D01*
X165644180Y-114758500D01*
X165675370Y-114754853D01*
X165678851Y-114754498D01*
X165754426Y-114747887D01*
X165761290Y-114745612D01*
X165764924Y-114744862D01*
X165765119Y-114744830D01*
X165765308Y-114744777D01*
X165768930Y-114743918D01*
X165776113Y-114743079D01*
X165847393Y-114717134D01*
X165850709Y-114715981D01*
X165922738Y-114692114D01*
X165928886Y-114688320D01*
X165932251Y-114686752D01*
X165932438Y-114686674D01*
X165932618Y-114686574D01*
X165935934Y-114684908D01*
X165942732Y-114682435D01*
X166006103Y-114640753D01*
X166009110Y-114638837D01*
X166073651Y-114599030D01*
X166078763Y-114593916D01*
X166081672Y-114591617D01*
X166081843Y-114591493D01*
X166081990Y-114591359D01*
X166084832Y-114588974D01*
X166090874Y-114585001D01*
X166142963Y-114529788D01*
X166145408Y-114527271D01*
X166690880Y-113981799D01*
X166704506Y-113970023D01*
X166724058Y-113955469D01*
X166756278Y-113917068D01*
X166763594Y-113909087D01*
X166764210Y-113908469D01*
X166767580Y-113905101D01*
X166787049Y-113880477D01*
X166789278Y-113877741D01*
X166838032Y-113819640D01*
X166841275Y-113813179D01*
X166843312Y-113810084D01*
X166843430Y-113809919D01*
X166843532Y-113809738D01*
X166845480Y-113806579D01*
X166849967Y-113800906D01*
X166855360Y-113789342D01*
X166882023Y-113732160D01*
X166883539Y-113729025D01*
X166917609Y-113661188D01*
X166919276Y-113654149D01*
X166920547Y-113650659D01*
X166920627Y-113650465D01*
X166920683Y-113650269D01*
X166921847Y-113646755D01*
X166924902Y-113640206D01*
X166940239Y-113565925D01*
X166941021Y-113562400D01*
X166956833Y-113495688D01*
X166958500Y-113488656D01*
X166958500Y-113481427D01*
X166958932Y-113477731D01*
X166958963Y-113477533D01*
X166958972Y-113477350D01*
X166959297Y-113473631D01*
X166960758Y-113466558D01*
X166958552Y-113390742D01*
X166958500Y-113387136D01*
X166958500Y-100864295D01*
X166959809Y-100846323D01*
X166959853Y-100846016D01*
X166963341Y-100822211D01*
X166958971Y-100772272D01*
X166958500Y-100761467D01*
X166958500Y-100759429D01*
X166958500Y-100755820D01*
X166954854Y-100724635D01*
X166954497Y-100721141D01*
X166947887Y-100645573D01*
X166945613Y-100638712D01*
X166944863Y-100635080D01*
X166944829Y-100634872D01*
X166944775Y-100634680D01*
X166943916Y-100631057D01*
X166943079Y-100623887D01*
X166917145Y-100552635D01*
X166915962Y-100549230D01*
X166906525Y-100520751D01*
X166892114Y-100477262D01*
X166888319Y-100471110D01*
X166886752Y-100467749D01*
X166886672Y-100467556D01*
X166886580Y-100467391D01*
X166884905Y-100464056D01*
X166882435Y-100457268D01*
X166859471Y-100422354D01*
X166840754Y-100393896D01*
X166838815Y-100390852D01*
X166802822Y-100332497D01*
X166799030Y-100326349D01*
X166793919Y-100321238D01*
X166791615Y-100318324D01*
X166791496Y-100318159D01*
X166791374Y-100318026D01*
X166788970Y-100315162D01*
X166785001Y-100309126D01*
X166729825Y-100257070D01*
X166727238Y-100254557D01*
X164781804Y-98309123D01*
X164770021Y-98295489D01*
X164759779Y-98281732D01*
X164755469Y-98275942D01*
X164749936Y-98271300D01*
X164749935Y-98271298D01*
X164717060Y-98243712D01*
X164709085Y-98236404D01*
X164707653Y-98234972D01*
X164705101Y-98232420D01*
X164702278Y-98230187D01*
X164702267Y-98230178D01*
X164680512Y-98212976D01*
X164677719Y-98210701D01*
X164625172Y-98166610D01*
X164619640Y-98161968D01*
X164613186Y-98158726D01*
X164610061Y-98156671D01*
X164609914Y-98156564D01*
X164609744Y-98156470D01*
X164606573Y-98154514D01*
X164600906Y-98150033D01*
X164594361Y-98146980D01*
X164594353Y-98146976D01*
X164532160Y-98117974D01*
X164528917Y-98116404D01*
X164467645Y-98085633D01*
X164467639Y-98085631D01*
X164461188Y-98082391D01*
X164454161Y-98080725D01*
X164450662Y-98079452D01*
X164450476Y-98079375D01*
X164450307Y-98079327D01*
X164446748Y-98078147D01*
X164440206Y-98075097D01*
X164365921Y-98059758D01*
X164362406Y-98058979D01*
X164295676Y-98043163D01*
X164295669Y-98043162D01*
X164288656Y-98041500D01*
X164281444Y-98041500D01*
X164277739Y-98041067D01*
X164277546Y-98041036D01*
X164277362Y-98041028D01*
X164273629Y-98040701D01*
X164266558Y-98039241D01*
X164259349Y-98039450D01*
X164259341Y-98039450D01*
X164190707Y-98041448D01*
X164187101Y-98041500D01*
X162965543Y-98041500D01*
X162918090Y-98032061D01*
X162877862Y-98005181D01*
X161594819Y-96722138D01*
X161567939Y-96681910D01*
X161558500Y-96634457D01*
X161558500Y-70064296D01*
X161559809Y-70046325D01*
X161560308Y-70042913D01*
X161563341Y-70022211D01*
X161558971Y-69972272D01*
X161558500Y-69961467D01*
X161558500Y-69959429D01*
X161558500Y-69955820D01*
X161554862Y-69924700D01*
X161554495Y-69921109D01*
X161554164Y-69917327D01*
X161547887Y-69845574D01*
X161545614Y-69838714D01*
X161544860Y-69835062D01*
X161544830Y-69834875D01*
X161544778Y-69834692D01*
X161543917Y-69831062D01*
X161543079Y-69823887D01*
X161517127Y-69752587D01*
X161515952Y-69749203D01*
X161495823Y-69688457D01*
X161492114Y-69677262D01*
X161488322Y-69671115D01*
X161486750Y-69667743D01*
X161486673Y-69667558D01*
X161486580Y-69667391D01*
X161484905Y-69664056D01*
X161482435Y-69657268D01*
X161440754Y-69593896D01*
X161438815Y-69590852D01*
X161402822Y-69532497D01*
X161399030Y-69526349D01*
X161393919Y-69521238D01*
X161391615Y-69518324D01*
X161391496Y-69518159D01*
X161391374Y-69518026D01*
X161388970Y-69515162D01*
X161385001Y-69509126D01*
X161329825Y-69457070D01*
X161327238Y-69454557D01*
X156081804Y-64209123D01*
X156070021Y-64195489D01*
X156059779Y-64181732D01*
X156055469Y-64175942D01*
X156049936Y-64171300D01*
X156049935Y-64171298D01*
X156017060Y-64143712D01*
X156009085Y-64136404D01*
X156007653Y-64134972D01*
X156005101Y-64132420D01*
X156002278Y-64130187D01*
X156002267Y-64130178D01*
X155980512Y-64112976D01*
X155977719Y-64110701D01*
X155925172Y-64066610D01*
X155919640Y-64061968D01*
X155913186Y-64058726D01*
X155910061Y-64056671D01*
X155909914Y-64056564D01*
X155909744Y-64056470D01*
X155906573Y-64054514D01*
X155900906Y-64050033D01*
X155894361Y-64046980D01*
X155894353Y-64046976D01*
X155832160Y-64017974D01*
X155828917Y-64016404D01*
X155767645Y-63985633D01*
X155767639Y-63985631D01*
X155761188Y-63982391D01*
X155754161Y-63980725D01*
X155750662Y-63979452D01*
X155750476Y-63979375D01*
X155750307Y-63979327D01*
X155746748Y-63978147D01*
X155740206Y-63975097D01*
X155665921Y-63959758D01*
X155662406Y-63958979D01*
X155595676Y-63943163D01*
X155595669Y-63943162D01*
X155588656Y-63941500D01*
X155581444Y-63941500D01*
X155577739Y-63941067D01*
X155577546Y-63941036D01*
X155577362Y-63941028D01*
X155573629Y-63940701D01*
X155566558Y-63939241D01*
X155559349Y-63939450D01*
X155559341Y-63939450D01*
X155490707Y-63941448D01*
X155487101Y-63941500D01*
X150423845Y-63941500D01*
X150363256Y-63925690D01*
X150318118Y-63882290D01*
X150276722Y-63814739D01*
X150274176Y-63810584D01*
X150119969Y-63630031D01*
X150116268Y-63626870D01*
X149943120Y-63478987D01*
X149943115Y-63478984D01*
X149939416Y-63475824D01*
X149935268Y-63473282D01*
X149935261Y-63473277D01*
X149807175Y-63394786D01*
X149736963Y-63351760D01*
X149732468Y-63349898D01*
X149732460Y-63349894D01*
X149522093Y-63262758D01*
X149522087Y-63262756D01*
X149517594Y-63260895D01*
X149512865Y-63259759D01*
X149512860Y-63259758D01*
X149291444Y-63206601D01*
X149291440Y-63206600D01*
X149286711Y-63205465D01*
X149281858Y-63205083D01*
X149054854Y-63187217D01*
X149050000Y-63186835D01*
X149045146Y-63187217D01*
X148818141Y-63205083D01*
X148818139Y-63205083D01*
X148813289Y-63205465D01*
X148808561Y-63206599D01*
X148808555Y-63206601D01*
X148587139Y-63259758D01*
X148587130Y-63259760D01*
X148582406Y-63260895D01*
X148577916Y-63262754D01*
X148577906Y-63262758D01*
X148367539Y-63349894D01*
X148367526Y-63349900D01*
X148363037Y-63351760D01*
X148358883Y-63354305D01*
X148358882Y-63354306D01*
X148164738Y-63473277D01*
X148164725Y-63473286D01*
X148160584Y-63475824D01*
X148156889Y-63478979D01*
X148156879Y-63478987D01*
X147983731Y-63626870D01*
X147983724Y-63626876D01*
X147980031Y-63630031D01*
X147976876Y-63633724D01*
X147976870Y-63633731D01*
X147828987Y-63806879D01*
X147828979Y-63806889D01*
X147825824Y-63810584D01*
X147823286Y-63814725D01*
X147823277Y-63814738D01*
X147722388Y-63979375D01*
X147701760Y-64013037D01*
X147699900Y-64017526D01*
X147699894Y-64017539D01*
X147612758Y-64227906D01*
X147612754Y-64227916D01*
X147610895Y-64232406D01*
X147609760Y-64237130D01*
X147609758Y-64237139D01*
X147556601Y-64458555D01*
X147556599Y-64458561D01*
X147555465Y-64463289D01*
X147536835Y-64700000D01*
X147555465Y-64936711D01*
X147556600Y-64941440D01*
X147556601Y-64941444D01*
X147590127Y-65081091D01*
X147610895Y-65167594D01*
X147612756Y-65172087D01*
X147612758Y-65172093D01*
X147699894Y-65382460D01*
X147699898Y-65382468D01*
X147701760Y-65386963D01*
X147704306Y-65391117D01*
X147823277Y-65585261D01*
X147823282Y-65585268D01*
X147825824Y-65589416D01*
X147828984Y-65593115D01*
X147828987Y-65593120D01*
X147976870Y-65766268D01*
X147980031Y-65769969D01*
X147983731Y-65773129D01*
X148139655Y-65906301D01*
X148167236Y-65943930D01*
X148167588Y-65943737D01*
X148169070Y-65946432D01*
X148173280Y-65952175D01*
X148173755Y-65954947D01*
X148192408Y-65988855D01*
X149038457Y-66834904D01*
X149050000Y-66841568D01*
X149061542Y-66834904D01*
X149907590Y-65988855D01*
X149926235Y-65954961D01*
X149926709Y-65952197D01*
X149930911Y-65946462D01*
X149932411Y-65943737D01*
X149932765Y-65943932D01*
X149960344Y-65906302D01*
X150116262Y-65773135D01*
X150116261Y-65773135D01*
X150119969Y-65769969D01*
X150274176Y-65589416D01*
X150318117Y-65517710D01*
X150363256Y-65474310D01*
X150423845Y-65458500D01*
X155134457Y-65458500D01*
X155181910Y-65467939D01*
X155222138Y-65494819D01*
X160005181Y-70277862D01*
X160032061Y-70318090D01*
X160041500Y-70365543D01*
X160041500Y-96935705D01*
X160040190Y-96953677D01*
X160036659Y-96977789D01*
X160037288Y-96984980D01*
X160037288Y-96984986D01*
X160041028Y-97027725D01*
X160041500Y-97038533D01*
X160041500Y-97044180D01*
X160041916Y-97047739D01*
X160041917Y-97047756D01*
X160045139Y-97075321D01*
X160045505Y-97078905D01*
X160052113Y-97154426D01*
X160054381Y-97161273D01*
X160055143Y-97164962D01*
X160055168Y-97165121D01*
X160055220Y-97165302D01*
X160056081Y-97168937D01*
X160056921Y-97176113D01*
X160059391Y-97182900D01*
X160059392Y-97182903D01*
X160082854Y-97247367D01*
X160084038Y-97250771D01*
X160107886Y-97322738D01*
X160111675Y-97328881D01*
X160113255Y-97332269D01*
X160113328Y-97332446D01*
X160113417Y-97332605D01*
X160115095Y-97335946D01*
X160117565Y-97342732D01*
X160133541Y-97367022D01*
X160159245Y-97406103D01*
X160161178Y-97409138D01*
X160200970Y-97473651D01*
X160206080Y-97478761D01*
X160208385Y-97481676D01*
X160208502Y-97481838D01*
X160208621Y-97481968D01*
X160211027Y-97484836D01*
X160214999Y-97490874D01*
X160220254Y-97495831D01*
X160220255Y-97495833D01*
X160270173Y-97542928D01*
X160272760Y-97545441D01*
X162018195Y-99290876D01*
X162029973Y-99304503D01*
X162044531Y-99324058D01*
X162082932Y-99356280D01*
X162090907Y-99363588D01*
X162094899Y-99367580D01*
X162119505Y-99387036D01*
X162122274Y-99389293D01*
X162180360Y-99438032D01*
X162186818Y-99441275D01*
X162189927Y-99443320D01*
X162190089Y-99443437D01*
X162190250Y-99443527D01*
X162193429Y-99445488D01*
X162199094Y-99449967D01*
X162267852Y-99482028D01*
X162271007Y-99483555D01*
X162338812Y-99517609D01*
X162345844Y-99519275D01*
X162349343Y-99520549D01*
X162349526Y-99520625D01*
X162349706Y-99520676D01*
X162353244Y-99521848D01*
X162359793Y-99524902D01*
X162434045Y-99540233D01*
X162437564Y-99541013D01*
X162511344Y-99558500D01*
X162518575Y-99558500D01*
X162522269Y-99558932D01*
X162522467Y-99558964D01*
X162522650Y-99558972D01*
X162526368Y-99559297D01*
X162533442Y-99560758D01*
X162540659Y-99560548D01*
X162609258Y-99558552D01*
X162612864Y-99558500D01*
X163834457Y-99558500D01*
X163881910Y-99567939D01*
X163922138Y-99594819D01*
X165405181Y-101077862D01*
X165432061Y-101118090D01*
X165441500Y-101165543D01*
X165441500Y-113034457D01*
X165432061Y-113081910D01*
X165405181Y-113122138D01*
X165322138Y-113205181D01*
X165281910Y-113232061D01*
X165234457Y-113241500D01*
X164330543Y-113241500D01*
X164274248Y-113227985D01*
X164230225Y-113190385D01*
X164208070Y-113136898D01*
X164212612Y-113079182D01*
X164242862Y-113029819D01*
X164350122Y-112922557D01*
X164690880Y-112581799D01*
X164704506Y-112570023D01*
X164724058Y-112555469D01*
X164756278Y-112517068D01*
X164763594Y-112509087D01*
X164764209Y-112508471D01*
X164767581Y-112505100D01*
X164787047Y-112480479D01*
X164789295Y-112477721D01*
X164838032Y-112419640D01*
X164841277Y-112413177D01*
X164843315Y-112410079D01*
X164843435Y-112409912D01*
X164843531Y-112409741D01*
X164845484Y-112406573D01*
X164849967Y-112400905D01*
X164882034Y-112332135D01*
X164883549Y-112329004D01*
X164917609Y-112261188D01*
X164919275Y-112254154D01*
X164920541Y-112250677D01*
X164920622Y-112250480D01*
X164920677Y-112250288D01*
X164921845Y-112246760D01*
X164924903Y-112240206D01*
X164940244Y-112165905D01*
X164941021Y-112162401D01*
X164958500Y-112088656D01*
X164958500Y-112081434D01*
X164958932Y-112077740D01*
X164958964Y-112077540D01*
X164958972Y-112077362D01*
X164959298Y-112073631D01*
X164960759Y-112066558D01*
X164958552Y-111990707D01*
X164958500Y-111987101D01*
X164958500Y-108464295D01*
X164959809Y-108446323D01*
X164959853Y-108446016D01*
X164963341Y-108422211D01*
X164958971Y-108372272D01*
X164958500Y-108361467D01*
X164958500Y-108359429D01*
X164958500Y-108355820D01*
X164954854Y-108324635D01*
X164954497Y-108321141D01*
X164947887Y-108245573D01*
X164945613Y-108238712D01*
X164944863Y-108235080D01*
X164944829Y-108234872D01*
X164944775Y-108234680D01*
X164943916Y-108231057D01*
X164943079Y-108223887D01*
X164917145Y-108152635D01*
X164915962Y-108149230D01*
X164911456Y-108135632D01*
X164892114Y-108077262D01*
X164888319Y-108071110D01*
X164886752Y-108067749D01*
X164886672Y-108067556D01*
X164886580Y-108067391D01*
X164884905Y-108064056D01*
X164882435Y-108057268D01*
X164840754Y-107993896D01*
X164838815Y-107990852D01*
X164802822Y-107932497D01*
X164799030Y-107926349D01*
X164793919Y-107921238D01*
X164791615Y-107918324D01*
X164791496Y-107918159D01*
X164791374Y-107918026D01*
X164788970Y-107915162D01*
X164785001Y-107909126D01*
X164729825Y-107857070D01*
X164727238Y-107854557D01*
X164181804Y-107309123D01*
X164170021Y-107295489D01*
X164159779Y-107281732D01*
X164155469Y-107275942D01*
X164149936Y-107271300D01*
X164149935Y-107271298D01*
X164117060Y-107243712D01*
X164109085Y-107236404D01*
X164107653Y-107234972D01*
X164105101Y-107232420D01*
X164102278Y-107230187D01*
X164102267Y-107230178D01*
X164080512Y-107212976D01*
X164077719Y-107210701D01*
X164025172Y-107166610D01*
X164019640Y-107161968D01*
X164013186Y-107158726D01*
X164010061Y-107156671D01*
X164009914Y-107156564D01*
X164009744Y-107156470D01*
X164006573Y-107154514D01*
X164000906Y-107150033D01*
X163994361Y-107146980D01*
X163994353Y-107146976D01*
X163932160Y-107117974D01*
X163928917Y-107116404D01*
X163867645Y-107085633D01*
X163867639Y-107085631D01*
X163861188Y-107082391D01*
X163854161Y-107080725D01*
X163850662Y-107079452D01*
X163850476Y-107079375D01*
X163850307Y-107079327D01*
X163846748Y-107078147D01*
X163840206Y-107075097D01*
X163765921Y-107059758D01*
X163762406Y-107058979D01*
X163695676Y-107043163D01*
X163695669Y-107043162D01*
X163688656Y-107041500D01*
X163681444Y-107041500D01*
X163677739Y-107041067D01*
X163677546Y-107041036D01*
X163677362Y-107041028D01*
X163673629Y-107040701D01*
X163666558Y-107039241D01*
X163659349Y-107039450D01*
X163659341Y-107039450D01*
X163590707Y-107041448D01*
X163587101Y-107041500D01*
X163194289Y-107041500D01*
X163135272Y-107026555D01*
X163090481Y-106985322D01*
X163078528Y-106967027D01*
X163075722Y-106962732D01*
X163063064Y-106948982D01*
X162926711Y-106800864D01*
X162926708Y-106800861D01*
X162923240Y-106797094D01*
X162819197Y-106716113D01*
X162749623Y-106661960D01*
X162749615Y-106661955D01*
X162745576Y-106658811D01*
X162741064Y-106656369D01*
X162741061Y-106656367D01*
X162709070Y-106639055D01*
X162661564Y-106593474D01*
X162644086Y-106530000D01*
X162661564Y-106466526D01*
X162709070Y-106420945D01*
X162709109Y-106420923D01*
X162745576Y-106401189D01*
X162923240Y-106262906D01*
X163075722Y-106097268D01*
X163198860Y-105908791D01*
X163289296Y-105702616D01*
X163344564Y-105484368D01*
X163363156Y-105260000D01*
X163344564Y-105035632D01*
X163289296Y-104817384D01*
X163198860Y-104611209D01*
X163075722Y-104422732D01*
X162924292Y-104258237D01*
X162895519Y-104205485D01*
X162894926Y-104145399D01*
X162922653Y-104092088D01*
X162972189Y-104058073D01*
X163083777Y-104016452D01*
X163099189Y-104008037D01*
X163200092Y-103932501D01*
X163212501Y-103920092D01*
X163288037Y-103819189D01*
X163296452Y-103803777D01*
X163340888Y-103684641D01*
X163344426Y-103669667D01*
X163349646Y-103621114D01*
X163350000Y-103614518D01*
X163350000Y-102986326D01*
X163346549Y-102973450D01*
X163333674Y-102970000D01*
X160666326Y-102970000D01*
X160653450Y-102973450D01*
X160650000Y-102986326D01*
X160650000Y-103614518D01*
X160650353Y-103621114D01*
X160655573Y-103669667D01*
X160659111Y-103684641D01*
X160703547Y-103803777D01*
X160711962Y-103819189D01*
X160787498Y-103920092D01*
X160799907Y-103932501D01*
X160900810Y-104008037D01*
X160916220Y-104016451D01*
X161027811Y-104058073D01*
X161077346Y-104092088D01*
X161105073Y-104145399D01*
X161104480Y-104205485D01*
X161075707Y-104258238D01*
X160927747Y-104418963D01*
X160927743Y-104418967D01*
X160924278Y-104422732D01*
X160921481Y-104427012D01*
X160921474Y-104427022D01*
X160803942Y-104606920D01*
X160801140Y-104611209D01*
X160799085Y-104615892D01*
X160799080Y-104615903D01*
X160712764Y-104812687D01*
X160710704Y-104817384D01*
X160709446Y-104822349D01*
X160709445Y-104822354D01*
X160656695Y-105030657D01*
X160656693Y-105030666D01*
X160655436Y-105035632D01*
X160655012Y-105040741D01*
X160655011Y-105040751D01*
X160637268Y-105254883D01*
X160636844Y-105260000D01*
X160637268Y-105265117D01*
X160655011Y-105479248D01*
X160655012Y-105479256D01*
X160655436Y-105484368D01*
X160656693Y-105489335D01*
X160656695Y-105489342D01*
X160680548Y-105583533D01*
X160710704Y-105702616D01*
X160712764Y-105707312D01*
X160799080Y-105904096D01*
X160799083Y-105904101D01*
X160801140Y-105908791D01*
X160817332Y-105933574D01*
X160921474Y-106092977D01*
X160921477Y-106092981D01*
X160924278Y-106097268D01*
X160927752Y-106101041D01*
X160927753Y-106101043D01*
X161073288Y-106259135D01*
X161073291Y-106259138D01*
X161076760Y-106262906D01*
X161080801Y-106266051D01*
X161250376Y-106398039D01*
X161250381Y-106398042D01*
X161254424Y-106401189D01*
X161258931Y-106403628D01*
X161258934Y-106403630D01*
X161290930Y-106420945D01*
X161338436Y-106466526D01*
X161355913Y-106530000D01*
X161338436Y-106593474D01*
X161290930Y-106639055D01*
X161258934Y-106656369D01*
X161258922Y-106656376D01*
X161254424Y-106658811D01*
X161250389Y-106661951D01*
X161250376Y-106661960D01*
X161080801Y-106793948D01*
X161080795Y-106793952D01*
X161076760Y-106797094D01*
X161073297Y-106800855D01*
X161073288Y-106800864D01*
X160927753Y-106958956D01*
X160927747Y-106958963D01*
X160924278Y-106962732D01*
X160921481Y-106967012D01*
X160921474Y-106967022D01*
X160803942Y-107146920D01*
X160801140Y-107151209D01*
X160799085Y-107155892D01*
X160799080Y-107155903D01*
X160712764Y-107352687D01*
X160710704Y-107357384D01*
X160709446Y-107362349D01*
X160709445Y-107362354D01*
X160656695Y-107570657D01*
X160656693Y-107570666D01*
X160655436Y-107575632D01*
X160655012Y-107580741D01*
X160655011Y-107580751D01*
X160650965Y-107629586D01*
X160626024Y-107694493D01*
X160570067Y-107735770D01*
X160500689Y-107740437D01*
X160439708Y-107707027D01*
X158994819Y-106262138D01*
X158967939Y-106221910D01*
X158958500Y-106174457D01*
X158958500Y-102453674D01*
X160650000Y-102453674D01*
X160653450Y-102466549D01*
X160666326Y-102470000D01*
X161733674Y-102470000D01*
X161746549Y-102466549D01*
X161750000Y-102453674D01*
X162250000Y-102453674D01*
X162253450Y-102466549D01*
X162266326Y-102470000D01*
X163333674Y-102470000D01*
X163346549Y-102466549D01*
X163350000Y-102453674D01*
X163350000Y-101825482D01*
X163349646Y-101818885D01*
X163344426Y-101770332D01*
X163340888Y-101755358D01*
X163296452Y-101636222D01*
X163288037Y-101620810D01*
X163212501Y-101519907D01*
X163200092Y-101507498D01*
X163099189Y-101431962D01*
X163083777Y-101423547D01*
X162964641Y-101379111D01*
X162949667Y-101375573D01*
X162901114Y-101370353D01*
X162894518Y-101370000D01*
X162266326Y-101370000D01*
X162253450Y-101373450D01*
X162250000Y-101386326D01*
X162250000Y-102453674D01*
X161750000Y-102453674D01*
X161750000Y-101386326D01*
X161746549Y-101373450D01*
X161733674Y-101370000D01*
X161105482Y-101370000D01*
X161098885Y-101370353D01*
X161050332Y-101375573D01*
X161035358Y-101379111D01*
X160916222Y-101423547D01*
X160900810Y-101431962D01*
X160799907Y-101507498D01*
X160787498Y-101519907D01*
X160711962Y-101620810D01*
X160703547Y-101636222D01*
X160659111Y-101755358D01*
X160655573Y-101770332D01*
X160650353Y-101818885D01*
X160650000Y-101825482D01*
X160650000Y-102453674D01*
X158958500Y-102453674D01*
X158958500Y-85264295D01*
X158959809Y-85246323D01*
X158959853Y-85246016D01*
X158963341Y-85222211D01*
X158958971Y-85172272D01*
X158958500Y-85161467D01*
X158958500Y-85159429D01*
X158958500Y-85155820D01*
X158954854Y-85124635D01*
X158954497Y-85121141D01*
X158947887Y-85045573D01*
X158945613Y-85038712D01*
X158944863Y-85035080D01*
X158944829Y-85034872D01*
X158944775Y-85034680D01*
X158943916Y-85031057D01*
X158943079Y-85023887D01*
X158917147Y-84952640D01*
X158915964Y-84949236D01*
X158892114Y-84877261D01*
X158888320Y-84871111D01*
X158886752Y-84867748D01*
X158886674Y-84867559D01*
X158886576Y-84867384D01*
X158884906Y-84864059D01*
X158882435Y-84857268D01*
X158840740Y-84793875D01*
X158838825Y-84790868D01*
X158802820Y-84732494D01*
X158802819Y-84732493D01*
X158799029Y-84726348D01*
X158793921Y-84721240D01*
X158791617Y-84718326D01*
X158791498Y-84718161D01*
X158791374Y-84718026D01*
X158788970Y-84715162D01*
X158785001Y-84709126D01*
X158740373Y-84667022D01*
X158729825Y-84657070D01*
X158727238Y-84654557D01*
X156541804Y-82469123D01*
X156530021Y-82455489D01*
X156519779Y-82441732D01*
X156515469Y-82435942D01*
X156509936Y-82431300D01*
X156509935Y-82431298D01*
X156477060Y-82403712D01*
X156469085Y-82396404D01*
X156467653Y-82394972D01*
X156465101Y-82392420D01*
X156462278Y-82390187D01*
X156462267Y-82390178D01*
X156440512Y-82372976D01*
X156437719Y-82370701D01*
X156385172Y-82326610D01*
X156379640Y-82321968D01*
X156373186Y-82318726D01*
X156370061Y-82316671D01*
X156369914Y-82316564D01*
X156369744Y-82316470D01*
X156366573Y-82314514D01*
X156360906Y-82310033D01*
X156354361Y-82306980D01*
X156354353Y-82306976D01*
X156292160Y-82277974D01*
X156288917Y-82276404D01*
X156227645Y-82245633D01*
X156227639Y-82245631D01*
X156221188Y-82242391D01*
X156214161Y-82240725D01*
X156210662Y-82239452D01*
X156210476Y-82239375D01*
X156210307Y-82239327D01*
X156206748Y-82238147D01*
X156200206Y-82235097D01*
X156125921Y-82219758D01*
X156122406Y-82218979D01*
X156055676Y-82203163D01*
X156055669Y-82203162D01*
X156048656Y-82201500D01*
X156041444Y-82201500D01*
X156037739Y-82201067D01*
X156037546Y-82201036D01*
X156037362Y-82201028D01*
X156033629Y-82200701D01*
X156026558Y-82199241D01*
X156019349Y-82199450D01*
X156019341Y-82199450D01*
X155950707Y-82201448D01*
X155947101Y-82201500D01*
X155694289Y-82201500D01*
X155635272Y-82186555D01*
X155590481Y-82145322D01*
X155578528Y-82127027D01*
X155575722Y-82122732D01*
X155572245Y-82118955D01*
X155426711Y-81960864D01*
X155426708Y-81960861D01*
X155423240Y-81957094D01*
X155374368Y-81919055D01*
X155249623Y-81821960D01*
X155249615Y-81821955D01*
X155245576Y-81818811D01*
X155241066Y-81816370D01*
X155241061Y-81816367D01*
X155209070Y-81799055D01*
X155161564Y-81753474D01*
X155144086Y-81690000D01*
X155161564Y-81626526D01*
X155209070Y-81580945D01*
X155209109Y-81580923D01*
X155245576Y-81561189D01*
X155423240Y-81422906D01*
X155575722Y-81257268D01*
X155698860Y-81068791D01*
X155789296Y-80862616D01*
X155844564Y-80644368D01*
X155863156Y-80420000D01*
X155844564Y-80195632D01*
X155789296Y-79977384D01*
X155698860Y-79771209D01*
X155575722Y-79582732D01*
X155423240Y-79417094D01*
X155374093Y-79378841D01*
X155249623Y-79281960D01*
X155249615Y-79281955D01*
X155245576Y-79278811D01*
X155241071Y-79276373D01*
X155241065Y-79276369D01*
X155202305Y-79255394D01*
X155156665Y-79212844D01*
X155137526Y-79153454D01*
X155149734Y-79092263D01*
X155190198Y-79044764D01*
X155366643Y-78921215D01*
X155374909Y-78914278D01*
X155534278Y-78754909D01*
X155541215Y-78746643D01*
X155670498Y-78562008D01*
X155675886Y-78552676D01*
X155771143Y-78348397D01*
X155774831Y-78338263D01*
X155826943Y-78143780D01*
X155827311Y-78132551D01*
X155816369Y-78130000D01*
X153183631Y-78130000D01*
X153172688Y-78132551D01*
X153173056Y-78143780D01*
X153225168Y-78338263D01*
X153228856Y-78348397D01*
X153324113Y-78552676D01*
X153329501Y-78562008D01*
X153458784Y-78746643D01*
X153465721Y-78754909D01*
X153625090Y-78914278D01*
X153633356Y-78921215D01*
X153809801Y-79044764D01*
X153850264Y-79092263D01*
X153862473Y-79153454D01*
X153843334Y-79212844D01*
X153797695Y-79255393D01*
X153758939Y-79276366D01*
X153758924Y-79276375D01*
X153754424Y-79278811D01*
X153750389Y-79281951D01*
X153750376Y-79281960D01*
X153580801Y-79413948D01*
X153580795Y-79413952D01*
X153576760Y-79417094D01*
X153573297Y-79420855D01*
X153573288Y-79420864D01*
X153427753Y-79578956D01*
X153427747Y-79578963D01*
X153424278Y-79582732D01*
X153421481Y-79587012D01*
X153421474Y-79587022D01*
X153345878Y-79702732D01*
X153301140Y-79771209D01*
X153299085Y-79775892D01*
X153299080Y-79775903D01*
X153212764Y-79972687D01*
X153210704Y-79977384D01*
X153209446Y-79982349D01*
X153209445Y-79982354D01*
X153156695Y-80190657D01*
X153156693Y-80190666D01*
X153155436Y-80195632D01*
X153155012Y-80200741D01*
X153155011Y-80200751D01*
X153145492Y-80315632D01*
X153136844Y-80420000D01*
X153137268Y-80425117D01*
X153155011Y-80639248D01*
X153155012Y-80639256D01*
X153155436Y-80644368D01*
X153156693Y-80649335D01*
X153156695Y-80649342D01*
X153209445Y-80857645D01*
X153210704Y-80862616D01*
X153212764Y-80867312D01*
X153299080Y-81064096D01*
X153299083Y-81064101D01*
X153301140Y-81068791D01*
X153360505Y-81159656D01*
X153421474Y-81252977D01*
X153421477Y-81252981D01*
X153424278Y-81257268D01*
X153427752Y-81261041D01*
X153427753Y-81261043D01*
X153573288Y-81419135D01*
X153573291Y-81419138D01*
X153576760Y-81422906D01*
X153580801Y-81426051D01*
X153750376Y-81558039D01*
X153750381Y-81558042D01*
X153754424Y-81561189D01*
X153790930Y-81580945D01*
X153838434Y-81626523D01*
X153855913Y-81689996D01*
X153838437Y-81753471D01*
X153790933Y-81799053D01*
X153758930Y-81816372D01*
X153758925Y-81816374D01*
X153754424Y-81818811D01*
X153750389Y-81821951D01*
X153750376Y-81821960D01*
X153580801Y-81953948D01*
X153580795Y-81953952D01*
X153576760Y-81957094D01*
X153573297Y-81960855D01*
X153573288Y-81960864D01*
X153427753Y-82118956D01*
X153427747Y-82118963D01*
X153424278Y-82122732D01*
X153421481Y-82127012D01*
X153421474Y-82127022D01*
X153343075Y-82247022D01*
X153301140Y-82311209D01*
X153299085Y-82315892D01*
X153299080Y-82315903D01*
X153231873Y-82469123D01*
X153210704Y-82517384D01*
X153209446Y-82522349D01*
X153209445Y-82522354D01*
X153156695Y-82730657D01*
X153156693Y-82730666D01*
X153155436Y-82735632D01*
X153155012Y-82740741D01*
X153155011Y-82740751D01*
X153145492Y-82855632D01*
X153136844Y-82960000D01*
X153137268Y-82965117D01*
X153155011Y-83179248D01*
X153155012Y-83179256D01*
X153155436Y-83184368D01*
X153156693Y-83189335D01*
X153156695Y-83189342D01*
X153209445Y-83397645D01*
X153210704Y-83402616D01*
X153212764Y-83407312D01*
X153299080Y-83604096D01*
X153299083Y-83604101D01*
X153301140Y-83608791D01*
X153360505Y-83699656D01*
X153421474Y-83792977D01*
X153421477Y-83792981D01*
X153424278Y-83797268D01*
X153427752Y-83801041D01*
X153427753Y-83801043D01*
X153573288Y-83959135D01*
X153573291Y-83959138D01*
X153576760Y-83962906D01*
X153580801Y-83966051D01*
X153750376Y-84098039D01*
X153750381Y-84098042D01*
X153754424Y-84101189D01*
X153790930Y-84120945D01*
X153838434Y-84166523D01*
X153855913Y-84229996D01*
X153838437Y-84293471D01*
X153790933Y-84339053D01*
X153758930Y-84356372D01*
X153758925Y-84356374D01*
X153754424Y-84358811D01*
X153750389Y-84361951D01*
X153750376Y-84361960D01*
X153580801Y-84493948D01*
X153580795Y-84493952D01*
X153576760Y-84497094D01*
X153573297Y-84500855D01*
X153573288Y-84500864D01*
X153427753Y-84658956D01*
X153427747Y-84658963D01*
X153424278Y-84662732D01*
X153421481Y-84667012D01*
X153421474Y-84667022D01*
X153303942Y-84846920D01*
X153301140Y-84851209D01*
X153299085Y-84855892D01*
X153299080Y-84855903D01*
X153212764Y-85052687D01*
X153210704Y-85057384D01*
X153209446Y-85062349D01*
X153209445Y-85062354D01*
X153156695Y-85270657D01*
X153156693Y-85270666D01*
X153155436Y-85275632D01*
X153155012Y-85280741D01*
X153155011Y-85280751D01*
X153145492Y-85395632D01*
X153136844Y-85500000D01*
X153137268Y-85505117D01*
X153155011Y-85719248D01*
X153155012Y-85719256D01*
X153155436Y-85724368D01*
X153156693Y-85729335D01*
X153156695Y-85729342D01*
X153209445Y-85937645D01*
X153210704Y-85942616D01*
X153212764Y-85947312D01*
X153299080Y-86144096D01*
X153299083Y-86144101D01*
X153301140Y-86148791D01*
X153360505Y-86239656D01*
X153421474Y-86332977D01*
X153421477Y-86332981D01*
X153424278Y-86337268D01*
X153427752Y-86341041D01*
X153427753Y-86341043D01*
X153573288Y-86499135D01*
X153573291Y-86499138D01*
X153576760Y-86502906D01*
X153580801Y-86506051D01*
X153750376Y-86638039D01*
X153750381Y-86638042D01*
X153754424Y-86641189D01*
X153758931Y-86643628D01*
X153758934Y-86643630D01*
X153790930Y-86660945D01*
X153838436Y-86706526D01*
X153855913Y-86770000D01*
X153838436Y-86833474D01*
X153790930Y-86879055D01*
X153758934Y-86896369D01*
X153758922Y-86896376D01*
X153754424Y-86898811D01*
X153750389Y-86901951D01*
X153750376Y-86901960D01*
X153580801Y-87033948D01*
X153580795Y-87033952D01*
X153576760Y-87037094D01*
X153573297Y-87040855D01*
X153573288Y-87040864D01*
X153427753Y-87198956D01*
X153427747Y-87198963D01*
X153424278Y-87202732D01*
X153421481Y-87207012D01*
X153421474Y-87207022D01*
X153348345Y-87318956D01*
X153301140Y-87391209D01*
X153299085Y-87395892D01*
X153299080Y-87395903D01*
X153212764Y-87592687D01*
X153210704Y-87597384D01*
X153209446Y-87602349D01*
X153209445Y-87602354D01*
X153156695Y-87810657D01*
X153156693Y-87810666D01*
X153155436Y-87815632D01*
X153155012Y-87820741D01*
X153155011Y-87820751D01*
X153145492Y-87935632D01*
X153136844Y-88040000D01*
X153137268Y-88045117D01*
X153155011Y-88259248D01*
X153155012Y-88259256D01*
X153155436Y-88264368D01*
X153156693Y-88269335D01*
X153156695Y-88269342D01*
X153209445Y-88477645D01*
X153210704Y-88482616D01*
X153212764Y-88487312D01*
X153299080Y-88684096D01*
X153299083Y-88684101D01*
X153301140Y-88688791D01*
X153360505Y-88779656D01*
X153421474Y-88872977D01*
X153421477Y-88872981D01*
X153424278Y-88877268D01*
X153427752Y-88881041D01*
X153427753Y-88881043D01*
X153573288Y-89039135D01*
X153573291Y-89039138D01*
X153576760Y-89042906D01*
X153580801Y-89046051D01*
X153750376Y-89178039D01*
X153750381Y-89178042D01*
X153754424Y-89181189D01*
X153758931Y-89183628D01*
X153758934Y-89183630D01*
X153790930Y-89200945D01*
X153838436Y-89246526D01*
X153855913Y-89310000D01*
X153838436Y-89373474D01*
X153790930Y-89419055D01*
X153758934Y-89436369D01*
X153758922Y-89436376D01*
X153754424Y-89438811D01*
X153750389Y-89441951D01*
X153750376Y-89441960D01*
X153580801Y-89573948D01*
X153580795Y-89573952D01*
X153576760Y-89577094D01*
X153573297Y-89580855D01*
X153573288Y-89580864D01*
X153427753Y-89738956D01*
X153427747Y-89738963D01*
X153424278Y-89742732D01*
X153421481Y-89747012D01*
X153421474Y-89747022D01*
X153343075Y-89867022D01*
X153301140Y-89931209D01*
X153299085Y-89935892D01*
X153299080Y-89935903D01*
X153231873Y-90089123D01*
X153210704Y-90137384D01*
X153209446Y-90142349D01*
X153209445Y-90142354D01*
X153156695Y-90350657D01*
X153156693Y-90350666D01*
X153155436Y-90355632D01*
X153155012Y-90360741D01*
X153155011Y-90360751D01*
X153145492Y-90475632D01*
X153136844Y-90580000D01*
X153137268Y-90585117D01*
X153155011Y-90799248D01*
X153155012Y-90799256D01*
X153155436Y-90804368D01*
X153156693Y-90809335D01*
X153156695Y-90809342D01*
X153209445Y-91017645D01*
X153210704Y-91022616D01*
X153212764Y-91027312D01*
X153299080Y-91224096D01*
X153299083Y-91224101D01*
X153301140Y-91228791D01*
X153319745Y-91257268D01*
X153421474Y-91412977D01*
X153421477Y-91412981D01*
X153424278Y-91417268D01*
X153427752Y-91421041D01*
X153427753Y-91421043D01*
X153573288Y-91579135D01*
X153573291Y-91579138D01*
X153576760Y-91582906D01*
X153627258Y-91622211D01*
X153750376Y-91718039D01*
X153750381Y-91718042D01*
X153754424Y-91721189D01*
X153797691Y-91744604D01*
X153797695Y-91744606D01*
X153843335Y-91787155D01*
X153862475Y-91846545D01*
X153850267Y-91907737D01*
X153809803Y-91955236D01*
X153633352Y-92078788D01*
X153625092Y-92085719D01*
X153465719Y-92245092D01*
X153458784Y-92253357D01*
X153329508Y-92437982D01*
X153324110Y-92447332D01*
X153228856Y-92651602D01*
X153225168Y-92661736D01*
X153173056Y-92856219D01*
X153172688Y-92867448D01*
X153183631Y-92870000D01*
X154626000Y-92870000D01*
X154688000Y-92886613D01*
X154733387Y-92932000D01*
X154750000Y-92994000D01*
X154750000Y-93246000D01*
X154733387Y-93308000D01*
X154688000Y-93353387D01*
X154626000Y-93370000D01*
X153183631Y-93370000D01*
X153172688Y-93372551D01*
X153173056Y-93383780D01*
X153225168Y-93578263D01*
X153228856Y-93588397D01*
X153324113Y-93792676D01*
X153329501Y-93802008D01*
X153458784Y-93986643D01*
X153465721Y-93994909D01*
X153625090Y-94154278D01*
X153633356Y-94161215D01*
X153809801Y-94284764D01*
X153850264Y-94332263D01*
X153862473Y-94393454D01*
X153843334Y-94452844D01*
X153797695Y-94495393D01*
X153758939Y-94516366D01*
X153758924Y-94516375D01*
X153754424Y-94518811D01*
X153750389Y-94521951D01*
X153750376Y-94521960D01*
X153580801Y-94653948D01*
X153580795Y-94653952D01*
X153576760Y-94657094D01*
X153573297Y-94660855D01*
X153573288Y-94660864D01*
X153427753Y-94818956D01*
X153427747Y-94818963D01*
X153424278Y-94822732D01*
X153421481Y-94827012D01*
X153421474Y-94827022D01*
X153348345Y-94938956D01*
X153301140Y-95011209D01*
X153299085Y-95015892D01*
X153299080Y-95015903D01*
X153212764Y-95212687D01*
X153210704Y-95217384D01*
X153209446Y-95222349D01*
X153209445Y-95222354D01*
X153156695Y-95430657D01*
X153156693Y-95430666D01*
X153155436Y-95435632D01*
X153155012Y-95440741D01*
X153155011Y-95440751D01*
X153145492Y-95555632D01*
X153136844Y-95660000D01*
X153137268Y-95665117D01*
X153155011Y-95879248D01*
X153155012Y-95879256D01*
X153155436Y-95884368D01*
X153156693Y-95889335D01*
X153156695Y-95889342D01*
X153209445Y-96097645D01*
X153210704Y-96102616D01*
X153212764Y-96107312D01*
X153299080Y-96304096D01*
X153299083Y-96304101D01*
X153301140Y-96308791D01*
X153349651Y-96383042D01*
X153421474Y-96492977D01*
X153421477Y-96492981D01*
X153424278Y-96497268D01*
X153427752Y-96501041D01*
X153427753Y-96501043D01*
X153573288Y-96659135D01*
X153573291Y-96659138D01*
X153576760Y-96662906D01*
X153580801Y-96666051D01*
X153750376Y-96798039D01*
X153750381Y-96798042D01*
X153754424Y-96801189D01*
X153758931Y-96803628D01*
X153758934Y-96803630D01*
X153790930Y-96820945D01*
X153838436Y-96866526D01*
X153855913Y-96930000D01*
X153838436Y-96993474D01*
X153790930Y-97039055D01*
X153758934Y-97056369D01*
X153758922Y-97056376D01*
X153754424Y-97058811D01*
X153750389Y-97061951D01*
X153750376Y-97061960D01*
X153580801Y-97193948D01*
X153580795Y-97193952D01*
X153576760Y-97197094D01*
X153573297Y-97200855D01*
X153573288Y-97200864D01*
X153427753Y-97358956D01*
X153427747Y-97358963D01*
X153424278Y-97362732D01*
X153421481Y-97367012D01*
X153421474Y-97367022D01*
X153306550Y-97542928D01*
X153301140Y-97551209D01*
X153299085Y-97555892D01*
X153299080Y-97555903D01*
X153212764Y-97752687D01*
X153210704Y-97757384D01*
X153209446Y-97762349D01*
X153209445Y-97762354D01*
X153156695Y-97970657D01*
X153156693Y-97970666D01*
X153155436Y-97975632D01*
X153155012Y-97980741D01*
X153155011Y-97980751D01*
X153145492Y-98095632D01*
X153136844Y-98200000D01*
X153137268Y-98205117D01*
X153155011Y-98419248D01*
X153155012Y-98419256D01*
X153155436Y-98424368D01*
X153156693Y-98429335D01*
X153156695Y-98429342D01*
X153209445Y-98637645D01*
X153210704Y-98642616D01*
X153212764Y-98647312D01*
X153299080Y-98844096D01*
X153299083Y-98844101D01*
X153301140Y-98848791D01*
X153349651Y-98923042D01*
X153421474Y-99032977D01*
X153421477Y-99032981D01*
X153424278Y-99037268D01*
X153427752Y-99041041D01*
X153427753Y-99041043D01*
X153573288Y-99199135D01*
X153573291Y-99199138D01*
X153576760Y-99202906D01*
X153580801Y-99206051D01*
X153750376Y-99338039D01*
X153750381Y-99338042D01*
X153754424Y-99341189D01*
X153758931Y-99343628D01*
X153758934Y-99343630D01*
X153790930Y-99360945D01*
X153838436Y-99406526D01*
X153855913Y-99470000D01*
X153838436Y-99533474D01*
X153790930Y-99579055D01*
X153758934Y-99596369D01*
X153758922Y-99596376D01*
X153754424Y-99598811D01*
X153750389Y-99601951D01*
X153750376Y-99601960D01*
X153580801Y-99733948D01*
X153580795Y-99733952D01*
X153576760Y-99737094D01*
X153573297Y-99740855D01*
X153573288Y-99740864D01*
X153427753Y-99898956D01*
X153427747Y-99898963D01*
X153424278Y-99902732D01*
X153421481Y-99907012D01*
X153421474Y-99907022D01*
X153348345Y-100018956D01*
X153301140Y-100091209D01*
X153299085Y-100095892D01*
X153299080Y-100095903D01*
X153228928Y-100255836D01*
X153210704Y-100297384D01*
X153209446Y-100302349D01*
X153209445Y-100302354D01*
X153156695Y-100510657D01*
X153156693Y-100510666D01*
X153155436Y-100515632D01*
X153155012Y-100520741D01*
X153155011Y-100520751D01*
X153138112Y-100724701D01*
X153136844Y-100740000D01*
X153137268Y-100745117D01*
X153155011Y-100959248D01*
X153155012Y-100959256D01*
X153155436Y-100964368D01*
X153156693Y-100969335D01*
X153156695Y-100969342D01*
X153209445Y-101177645D01*
X153210704Y-101182616D01*
X153212764Y-101187312D01*
X153299080Y-101384096D01*
X153299083Y-101384101D01*
X153301140Y-101388791D01*
X153329345Y-101431962D01*
X153421474Y-101572977D01*
X153421477Y-101572981D01*
X153424278Y-101577268D01*
X153427752Y-101581041D01*
X153427753Y-101581043D01*
X153573288Y-101739135D01*
X153573291Y-101739138D01*
X153576760Y-101742906D01*
X153580801Y-101746051D01*
X153750376Y-101878039D01*
X153750381Y-101878042D01*
X153754424Y-101881189D01*
X153758931Y-101883628D01*
X153758934Y-101883630D01*
X153790930Y-101900945D01*
X153838436Y-101946526D01*
X153855913Y-102010000D01*
X153838436Y-102073474D01*
X153790930Y-102119055D01*
X153758934Y-102136369D01*
X153758922Y-102136376D01*
X153754424Y-102138811D01*
X153750389Y-102141951D01*
X153750376Y-102141960D01*
X153580801Y-102273948D01*
X153580795Y-102273952D01*
X153576760Y-102277094D01*
X153573297Y-102280855D01*
X153573288Y-102280864D01*
X153427753Y-102438956D01*
X153427747Y-102438963D01*
X153424278Y-102442732D01*
X153421481Y-102447012D01*
X153421474Y-102447022D01*
X153348345Y-102558956D01*
X153301140Y-102631209D01*
X153299085Y-102635892D01*
X153299080Y-102635903D01*
X153212764Y-102832687D01*
X153210704Y-102837384D01*
X153209446Y-102842349D01*
X153209445Y-102842354D01*
X153156695Y-103050657D01*
X153156693Y-103050666D01*
X153155436Y-103055632D01*
X153155012Y-103060741D01*
X153155011Y-103060751D01*
X153145492Y-103175632D01*
X153136844Y-103280000D01*
X153137268Y-103285117D01*
X153155011Y-103499248D01*
X153155012Y-103499256D01*
X153155436Y-103504368D01*
X153156693Y-103509335D01*
X153156695Y-103509342D01*
X153197295Y-103669667D01*
X153210704Y-103722616D01*
X153212764Y-103727312D01*
X153299080Y-103924096D01*
X153299083Y-103924101D01*
X153301140Y-103928791D01*
X153307520Y-103938556D01*
X153421474Y-104112977D01*
X153421477Y-104112981D01*
X153424278Y-104117268D01*
X153427752Y-104121041D01*
X153427753Y-104121043D01*
X153573288Y-104279135D01*
X153573291Y-104279138D01*
X153576760Y-104282906D01*
X153580801Y-104286051D01*
X153750376Y-104418039D01*
X153750381Y-104418042D01*
X153754424Y-104421189D01*
X153790930Y-104440945D01*
X153838434Y-104486523D01*
X153855913Y-104549996D01*
X153838437Y-104613471D01*
X153790933Y-104659053D01*
X153758930Y-104676372D01*
X153758925Y-104676374D01*
X153754424Y-104678811D01*
X153750389Y-104681951D01*
X153750376Y-104681960D01*
X153580801Y-104813948D01*
X153580795Y-104813952D01*
X153576760Y-104817094D01*
X153573297Y-104820855D01*
X153573288Y-104820864D01*
X153427753Y-104978956D01*
X153427747Y-104978963D01*
X153424278Y-104982732D01*
X153421481Y-104987012D01*
X153421474Y-104987022D01*
X153348345Y-105098956D01*
X153301140Y-105171209D01*
X153299085Y-105175892D01*
X153299080Y-105175903D01*
X153212764Y-105372687D01*
X153210704Y-105377384D01*
X153209446Y-105382349D01*
X153209445Y-105382354D01*
X153156695Y-105590657D01*
X153156693Y-105590666D01*
X153155436Y-105595632D01*
X153155012Y-105600741D01*
X153155011Y-105600751D01*
X153150965Y-105649586D01*
X153126024Y-105714493D01*
X153070067Y-105755770D01*
X153000689Y-105760437D01*
X152939708Y-105727027D01*
X138394819Y-91182138D01*
X138367939Y-91141910D01*
X138358500Y-91094457D01*
X138358500Y-77627448D01*
X153172688Y-77627448D01*
X153183631Y-77630000D01*
X154233674Y-77630000D01*
X154246549Y-77626549D01*
X154250000Y-77613674D01*
X154750000Y-77613674D01*
X154753450Y-77626549D01*
X154766326Y-77630000D01*
X155816369Y-77630000D01*
X155827311Y-77627448D01*
X155826943Y-77616219D01*
X155774831Y-77421736D01*
X155771143Y-77411602D01*
X155675889Y-77207332D01*
X155670491Y-77197982D01*
X155541215Y-77013357D01*
X155534280Y-77005092D01*
X155374909Y-76845721D01*
X155366643Y-76838784D01*
X155182008Y-76709501D01*
X155172676Y-76704113D01*
X154968397Y-76608856D01*
X154958263Y-76605168D01*
X154763780Y-76553056D01*
X154752551Y-76552688D01*
X154750000Y-76563631D01*
X154750000Y-77613674D01*
X154250000Y-77613674D01*
X154250000Y-76563631D01*
X154247448Y-76552688D01*
X154236219Y-76553056D01*
X154041736Y-76605168D01*
X154031602Y-76608856D01*
X153827332Y-76704110D01*
X153817982Y-76709508D01*
X153633357Y-76838784D01*
X153625092Y-76845719D01*
X153465719Y-77005092D01*
X153458784Y-77013357D01*
X153329508Y-77197982D01*
X153324110Y-77207332D01*
X153228856Y-77411602D01*
X153225168Y-77421736D01*
X153173056Y-77616219D01*
X153172688Y-77627448D01*
X138358500Y-77627448D01*
X138358500Y-73848638D01*
X139441500Y-73848638D01*
X139448011Y-73909201D01*
X139450717Y-73916458D01*
X139450719Y-73916463D01*
X139496011Y-74037894D01*
X139499111Y-74046204D01*
X139586739Y-74163261D01*
X139703796Y-74250889D01*
X139840799Y-74301989D01*
X139901362Y-74308500D01*
X143195328Y-74308500D01*
X143198638Y-74308500D01*
X143259201Y-74301989D01*
X143396204Y-74250889D01*
X143513261Y-74163261D01*
X143600889Y-74046204D01*
X143651989Y-73909201D01*
X143658500Y-73848638D01*
X143658500Y-71751362D01*
X143651989Y-71690799D01*
X143600889Y-71553796D01*
X143513261Y-71436739D01*
X143396204Y-71349111D01*
X143387896Y-71346012D01*
X143387894Y-71346011D01*
X143266463Y-71300719D01*
X143266458Y-71300717D01*
X143259201Y-71298011D01*
X143251497Y-71297182D01*
X143251494Y-71297182D01*
X143201924Y-71291853D01*
X143201918Y-71291852D01*
X143198638Y-71291500D01*
X139901362Y-71291500D01*
X139898082Y-71291852D01*
X139898075Y-71291853D01*
X139848505Y-71297182D01*
X139848500Y-71297182D01*
X139840799Y-71298011D01*
X139833543Y-71300717D01*
X139833536Y-71300719D01*
X139712105Y-71346011D01*
X139712099Y-71346013D01*
X139703796Y-71349111D01*
X139696698Y-71354423D01*
X139696695Y-71354426D01*
X139593835Y-71431426D01*
X139593831Y-71431429D01*
X139586739Y-71436739D01*
X139581429Y-71443831D01*
X139581426Y-71443835D01*
X139504426Y-71546695D01*
X139504423Y-71546698D01*
X139499111Y-71553796D01*
X139496013Y-71562099D01*
X139496011Y-71562105D01*
X139450719Y-71683536D01*
X139450717Y-71683543D01*
X139448011Y-71690799D01*
X139447182Y-71698500D01*
X139447182Y-71698505D01*
X139441853Y-71748075D01*
X139441500Y-71751362D01*
X139441500Y-73848638D01*
X138358500Y-73848638D01*
X138358500Y-67814295D01*
X138359809Y-67796323D01*
X138359853Y-67796016D01*
X138363341Y-67772211D01*
X138358971Y-67722272D01*
X138358500Y-67711467D01*
X138358500Y-67709429D01*
X138358500Y-67705820D01*
X138354854Y-67674635D01*
X138354497Y-67671141D01*
X138347887Y-67595573D01*
X138345613Y-67588712D01*
X138344863Y-67585080D01*
X138344829Y-67584872D01*
X138344775Y-67584680D01*
X138343916Y-67581057D01*
X138343079Y-67573887D01*
X138317147Y-67502640D01*
X138315964Y-67499236D01*
X138304908Y-67465871D01*
X138292114Y-67427261D01*
X138288320Y-67421111D01*
X138286752Y-67417748D01*
X138286674Y-67417559D01*
X138286576Y-67417384D01*
X138284906Y-67414059D01*
X138282435Y-67407268D01*
X138240733Y-67343863D01*
X138238820Y-67340859D01*
X138202820Y-67282495D01*
X138202819Y-67282494D01*
X138199029Y-67276349D01*
X138193921Y-67271241D01*
X138191624Y-67268336D01*
X138191497Y-67268160D01*
X138191386Y-67268039D01*
X138188967Y-67265156D01*
X138185001Y-67259126D01*
X138129807Y-67207053D01*
X138127220Y-67204540D01*
X136057795Y-65135114D01*
X136026131Y-65081091D01*
X136024902Y-65018487D01*
X136044535Y-64936711D01*
X136063165Y-64700000D01*
X136044535Y-64463289D01*
X135989105Y-64232406D01*
X135939175Y-64111863D01*
X135900105Y-64017539D01*
X135900103Y-64017536D01*
X135898240Y-64013037D01*
X135817202Y-63880796D01*
X135776722Y-63814738D01*
X135776719Y-63814734D01*
X135774176Y-63810584D01*
X135619969Y-63630031D01*
X135616268Y-63626870D01*
X135443120Y-63478987D01*
X135443115Y-63478984D01*
X135439416Y-63475824D01*
X135435268Y-63473282D01*
X135435261Y-63473277D01*
X135307175Y-63394786D01*
X135236963Y-63351760D01*
X135232468Y-63349898D01*
X135232460Y-63349894D01*
X135022093Y-63262758D01*
X135022087Y-63262756D01*
X135017594Y-63260895D01*
X135012865Y-63259759D01*
X135012860Y-63259758D01*
X134791444Y-63206601D01*
X134791440Y-63206600D01*
X134786711Y-63205465D01*
X134781858Y-63205083D01*
X134554854Y-63187217D01*
X134550000Y-63186835D01*
X134545146Y-63187217D01*
X134318141Y-63205083D01*
X134318139Y-63205083D01*
X134313289Y-63205465D01*
X134308561Y-63206599D01*
X134308555Y-63206601D01*
X134087139Y-63259758D01*
X134087130Y-63259760D01*
X134082406Y-63260895D01*
X134077916Y-63262754D01*
X134077906Y-63262758D01*
X133867539Y-63349894D01*
X133867526Y-63349900D01*
X133863037Y-63351760D01*
X133858883Y-63354305D01*
X133858882Y-63354306D01*
X133664738Y-63473277D01*
X133664725Y-63473286D01*
X133660584Y-63475824D01*
X133656889Y-63478979D01*
X133656879Y-63478987D01*
X133483731Y-63626870D01*
X133483724Y-63626876D01*
X133480031Y-63630031D01*
X133476876Y-63633724D01*
X133476870Y-63633731D01*
X133328987Y-63806879D01*
X133328979Y-63806889D01*
X133325824Y-63810584D01*
X133323286Y-63814725D01*
X133323277Y-63814738D01*
X133222388Y-63979375D01*
X133201760Y-64013037D01*
X133199900Y-64017526D01*
X133199894Y-64017539D01*
X133112758Y-64227906D01*
X133112754Y-64227916D01*
X133110895Y-64232406D01*
X133109760Y-64237130D01*
X133109758Y-64237139D01*
X133056601Y-64458555D01*
X133056599Y-64458561D01*
X133055465Y-64463289D01*
X133036835Y-64700000D01*
X133055465Y-64936711D01*
X133056600Y-64941440D01*
X133056601Y-64941444D01*
X133090127Y-65081091D01*
X133110895Y-65167594D01*
X133112756Y-65172087D01*
X133112758Y-65172093D01*
X133199894Y-65382460D01*
X133199898Y-65382468D01*
X133201760Y-65386963D01*
X133204306Y-65391117D01*
X133323277Y-65585261D01*
X133323282Y-65585268D01*
X133325824Y-65589416D01*
X133328984Y-65593115D01*
X133328987Y-65593120D01*
X133476870Y-65766268D01*
X133480031Y-65769969D01*
X133660584Y-65924176D01*
X133664734Y-65926719D01*
X133664738Y-65926722D01*
X133696902Y-65946432D01*
X133863037Y-66048240D01*
X133867536Y-66050103D01*
X133867539Y-66050105D01*
X134038409Y-66120881D01*
X134082406Y-66139105D01*
X134313289Y-66194535D01*
X134550000Y-66213165D01*
X134786711Y-66194535D01*
X134868487Y-66174902D01*
X134931091Y-66176131D01*
X134985114Y-66207795D01*
X136805181Y-68027862D01*
X136832061Y-68068090D01*
X136841500Y-68115543D01*
X136841500Y-91395705D01*
X136840190Y-91413677D01*
X136836659Y-91437789D01*
X136837288Y-91444980D01*
X136837288Y-91444986D01*
X136841028Y-91487725D01*
X136841500Y-91498533D01*
X136841500Y-91504180D01*
X136841916Y-91507739D01*
X136841917Y-91507756D01*
X136845139Y-91535321D01*
X136845505Y-91538905D01*
X136852113Y-91614426D01*
X136854381Y-91621273D01*
X136855143Y-91624962D01*
X136855168Y-91625121D01*
X136855220Y-91625302D01*
X136856081Y-91628937D01*
X136856921Y-91636113D01*
X136859391Y-91642900D01*
X136859392Y-91642903D01*
X136882854Y-91707367D01*
X136884038Y-91710771D01*
X136895250Y-91744606D01*
X136907886Y-91782738D01*
X136911675Y-91788881D01*
X136913255Y-91792269D01*
X136913328Y-91792446D01*
X136913417Y-91792605D01*
X136915095Y-91795946D01*
X136917565Y-91802732D01*
X136921532Y-91808763D01*
X136959245Y-91866103D01*
X136961178Y-91869138D01*
X137000970Y-91933651D01*
X137006080Y-91938761D01*
X137008385Y-91941676D01*
X137008502Y-91941838D01*
X137008621Y-91941968D01*
X137011027Y-91944836D01*
X137014999Y-91950874D01*
X137020254Y-91955831D01*
X137020255Y-91955833D01*
X137070173Y-92002928D01*
X137072760Y-92005441D01*
X153118430Y-108051111D01*
X153147173Y-108096114D01*
X153154325Y-108149032D01*
X153145729Y-108252771D01*
X153136844Y-108360000D01*
X153137268Y-108365117D01*
X153155011Y-108579248D01*
X153155012Y-108579256D01*
X153155436Y-108584368D01*
X153156693Y-108589335D01*
X153156695Y-108589342D01*
X153188309Y-108714181D01*
X153210704Y-108802616D01*
X153212764Y-108807312D01*
X153299080Y-109004096D01*
X153299083Y-109004101D01*
X153301140Y-109008791D01*
X153326980Y-109048342D01*
X153421474Y-109192977D01*
X153421477Y-109192981D01*
X153424278Y-109197268D01*
X153427752Y-109201041D01*
X153427753Y-109201043D01*
X153573288Y-109359135D01*
X153573291Y-109359138D01*
X153576760Y-109362906D01*
X153580801Y-109366051D01*
X153750376Y-109498039D01*
X153750381Y-109498042D01*
X153754424Y-109501189D01*
X153758931Y-109503628D01*
X153758934Y-109503630D01*
X153790930Y-109520945D01*
X153838436Y-109566526D01*
X153855913Y-109630000D01*
X153838436Y-109693474D01*
X153790930Y-109739055D01*
X153758934Y-109756369D01*
X153758922Y-109756376D01*
X153754424Y-109758811D01*
X153750389Y-109761951D01*
X153750376Y-109761960D01*
X153580801Y-109893948D01*
X153580795Y-109893952D01*
X153576760Y-109897094D01*
X153573297Y-109900855D01*
X153573288Y-109900864D01*
X153427753Y-110058956D01*
X153427747Y-110058963D01*
X153424278Y-110062732D01*
X153421481Y-110067012D01*
X153421474Y-110067022D01*
X153303942Y-110246920D01*
X153301140Y-110251209D01*
X153299085Y-110255892D01*
X153299080Y-110255903D01*
X153212764Y-110452687D01*
X153210704Y-110457384D01*
X153209446Y-110462349D01*
X153209445Y-110462354D01*
X153156695Y-110670657D01*
X153156693Y-110670666D01*
X153155436Y-110675632D01*
X153155012Y-110680741D01*
X153155011Y-110680751D01*
X153150965Y-110729586D01*
X153126024Y-110794493D01*
X153070067Y-110835770D01*
X153000689Y-110840437D01*
X152939708Y-110807027D01*
X135994819Y-93862138D01*
X135967939Y-93821910D01*
X135958500Y-93774457D01*
X135958500Y-77464295D01*
X135959809Y-77446323D01*
X135959853Y-77446016D01*
X135963341Y-77422211D01*
X135958971Y-77372272D01*
X135958500Y-77361467D01*
X135958500Y-77359429D01*
X135958500Y-77355820D01*
X135954854Y-77324635D01*
X135954497Y-77321141D01*
X135947887Y-77245573D01*
X135945613Y-77238712D01*
X135944863Y-77235080D01*
X135944829Y-77234872D01*
X135944775Y-77234680D01*
X135943916Y-77231057D01*
X135943079Y-77223887D01*
X135917147Y-77152640D01*
X135915964Y-77149236D01*
X135892114Y-77077261D01*
X135888320Y-77071111D01*
X135886752Y-77067748D01*
X135886674Y-77067559D01*
X135886576Y-77067384D01*
X135884906Y-77064059D01*
X135882435Y-77057268D01*
X135840740Y-76993875D01*
X135838825Y-76990868D01*
X135802820Y-76932494D01*
X135802819Y-76932493D01*
X135799029Y-76926348D01*
X135793921Y-76921240D01*
X135791617Y-76918326D01*
X135791498Y-76918161D01*
X135791374Y-76918026D01*
X135788970Y-76915162D01*
X135785001Y-76909126D01*
X135729825Y-76857070D01*
X135727238Y-76854557D01*
X131394819Y-72522138D01*
X131367939Y-72481910D01*
X131358500Y-72434457D01*
X131358500Y-70923248D01*
X133685749Y-70923248D01*
X133693855Y-70934439D01*
X133722717Y-70956903D01*
X133731279Y-70962496D01*
X133940885Y-71075929D01*
X133950239Y-71080032D01*
X134175656Y-71157417D01*
X134185568Y-71159928D01*
X134420643Y-71199155D01*
X134430839Y-71200000D01*
X134669161Y-71200000D01*
X134679356Y-71199155D01*
X134914431Y-71159928D01*
X134924343Y-71157417D01*
X135149760Y-71080032D01*
X135159114Y-71075929D01*
X135368723Y-70962495D01*
X135377281Y-70956903D01*
X135406146Y-70934437D01*
X135414250Y-70923250D01*
X135407589Y-70911142D01*
X134561542Y-70065095D01*
X134550000Y-70058431D01*
X134538457Y-70065095D01*
X133692408Y-70911143D01*
X133685749Y-70923248D01*
X131358500Y-70923248D01*
X131358500Y-69705117D01*
X133045283Y-69705117D01*
X133064962Y-69942618D01*
X133066646Y-69952712D01*
X133125153Y-70183747D01*
X133128472Y-70193414D01*
X133224208Y-70411673D01*
X133229070Y-70420656D01*
X133318999Y-70558304D01*
X133326963Y-70566024D01*
X133336345Y-70560100D01*
X134184904Y-69711542D01*
X134191568Y-69700000D01*
X134908431Y-69700000D01*
X134915095Y-69711542D01*
X135763653Y-70560100D01*
X135773034Y-70566024D01*
X135781002Y-70558299D01*
X135870924Y-70420664D01*
X135875792Y-70411669D01*
X135971527Y-70193414D01*
X135974846Y-70183747D01*
X136033353Y-69952712D01*
X136035037Y-69942618D01*
X136054717Y-69705117D01*
X136054717Y-69694883D01*
X136035037Y-69457381D01*
X136033353Y-69447287D01*
X135974846Y-69216252D01*
X135971527Y-69206585D01*
X135875792Y-68988330D01*
X135870924Y-68979335D01*
X135781002Y-68841699D01*
X135773034Y-68833974D01*
X135763653Y-68839898D01*
X134915095Y-69688457D01*
X134908431Y-69700000D01*
X134191568Y-69700000D01*
X134184904Y-69688457D01*
X133336345Y-68839898D01*
X133326964Y-68833974D01*
X133318997Y-68841699D01*
X133229072Y-68979338D01*
X133224207Y-68988328D01*
X133128472Y-69206585D01*
X133125153Y-69216252D01*
X133066646Y-69447287D01*
X133064962Y-69457381D01*
X133045283Y-69694883D01*
X133045283Y-69705117D01*
X131358500Y-69705117D01*
X131358500Y-68476749D01*
X133685748Y-68476749D01*
X133692408Y-68488855D01*
X134538457Y-69334904D01*
X134550000Y-69341568D01*
X134561542Y-69334904D01*
X135407590Y-68488855D01*
X135414250Y-68476749D01*
X135406143Y-68465559D01*
X135377286Y-68443099D01*
X135368719Y-68437503D01*
X135159114Y-68324070D01*
X135149760Y-68319967D01*
X134924343Y-68242582D01*
X134914431Y-68240071D01*
X134679356Y-68200844D01*
X134669161Y-68200000D01*
X134430839Y-68200000D01*
X134420643Y-68200844D01*
X134185568Y-68240071D01*
X134175656Y-68242582D01*
X133950239Y-68319967D01*
X133940885Y-68324070D01*
X133731276Y-68437504D01*
X133722717Y-68443096D01*
X133693854Y-68465560D01*
X133685748Y-68476749D01*
X131358500Y-68476749D01*
X131358500Y-63565543D01*
X131367939Y-63518090D01*
X131394819Y-63477862D01*
X132077862Y-62794819D01*
X132118090Y-62767939D01*
X132165543Y-62758500D01*
X136034457Y-62758500D01*
X136081910Y-62767939D01*
X136122138Y-62794819D01*
X143518195Y-70190876D01*
X143529973Y-70204503D01*
X143544531Y-70224058D01*
X143550067Y-70228703D01*
X143582932Y-70256280D01*
X143590908Y-70263589D01*
X143594899Y-70267580D01*
X143619505Y-70287036D01*
X143622274Y-70289293D01*
X143680360Y-70338032D01*
X143686818Y-70341275D01*
X143689927Y-70343320D01*
X143690089Y-70343437D01*
X143690250Y-70343527D01*
X143693429Y-70345488D01*
X143699094Y-70349967D01*
X143767852Y-70382028D01*
X143771007Y-70383555D01*
X143838812Y-70417609D01*
X143845844Y-70419275D01*
X143849343Y-70420549D01*
X143849526Y-70420625D01*
X143849706Y-70420676D01*
X143853244Y-70421848D01*
X143859793Y-70424902D01*
X143934045Y-70440233D01*
X143937564Y-70441013D01*
X144011344Y-70458500D01*
X144018575Y-70458500D01*
X144022269Y-70458932D01*
X144022467Y-70458964D01*
X144022650Y-70458972D01*
X144026368Y-70459297D01*
X144033442Y-70460758D01*
X144040659Y-70460548D01*
X144109258Y-70458552D01*
X144112864Y-70458500D01*
X147417500Y-70458500D01*
X147479500Y-70475113D01*
X147524887Y-70520500D01*
X147541500Y-70582500D01*
X147541500Y-70748638D01*
X147548011Y-70809201D01*
X147550717Y-70816458D01*
X147550719Y-70816463D01*
X147596011Y-70937894D01*
X147599111Y-70946204D01*
X147686739Y-71063261D01*
X147803796Y-71150889D01*
X147940799Y-71201989D01*
X148001362Y-71208500D01*
X150095328Y-71208500D01*
X150098638Y-71208500D01*
X150159201Y-71201989D01*
X150296204Y-71150889D01*
X150413261Y-71063261D01*
X150500889Y-70946204D01*
X150551989Y-70809201D01*
X150558500Y-70748638D01*
X150558500Y-68651362D01*
X150551989Y-68590799D01*
X150500889Y-68453796D01*
X150413261Y-68336739D01*
X150396337Y-68324070D01*
X150296204Y-68249111D01*
X150298198Y-68246446D01*
X150262079Y-68211078D01*
X150245681Y-68145780D01*
X150265820Y-68081538D01*
X150370930Y-67920655D01*
X150375792Y-67911671D01*
X150471527Y-67693414D01*
X150474846Y-67683747D01*
X150533353Y-67452712D01*
X150535037Y-67442618D01*
X150554717Y-67205117D01*
X150554717Y-67194883D01*
X150535037Y-66957381D01*
X150533353Y-66947287D01*
X150474846Y-66716252D01*
X150471527Y-66706585D01*
X150375792Y-66488330D01*
X150370924Y-66479335D01*
X150281002Y-66341699D01*
X150273034Y-66333974D01*
X150263653Y-66339898D01*
X149137680Y-67465871D01*
X149082093Y-67497965D01*
X149017905Y-67497965D01*
X148962318Y-67465871D01*
X147836345Y-66339898D01*
X147826964Y-66333974D01*
X147818997Y-66341699D01*
X147729072Y-66479338D01*
X147724207Y-66488328D01*
X147628472Y-66706585D01*
X147625153Y-66716252D01*
X147566646Y-66947287D01*
X147564962Y-66957381D01*
X147545283Y-67194883D01*
X147545283Y-67205117D01*
X147564962Y-67442618D01*
X147566646Y-67452712D01*
X147625153Y-67683747D01*
X147628472Y-67693414D01*
X147724207Y-67911671D01*
X147729072Y-67920661D01*
X147834179Y-68081539D01*
X147854318Y-68145761D01*
X147837939Y-68211044D01*
X147801806Y-68246453D01*
X147803796Y-68249111D01*
X147693835Y-68331426D01*
X147693831Y-68331429D01*
X147686739Y-68336739D01*
X147681429Y-68343831D01*
X147681426Y-68343835D01*
X147604426Y-68446695D01*
X147604423Y-68446698D01*
X147599111Y-68453796D01*
X147596013Y-68462099D01*
X147596011Y-68462105D01*
X147550719Y-68583536D01*
X147550717Y-68583543D01*
X147548011Y-68590799D01*
X147547182Y-68598500D01*
X147547182Y-68598505D01*
X147541853Y-68648075D01*
X147541500Y-68651362D01*
X147541500Y-68654672D01*
X147541500Y-68817500D01*
X147524887Y-68879500D01*
X147479500Y-68924887D01*
X147417500Y-68941500D01*
X144465543Y-68941500D01*
X144418090Y-68932061D01*
X144377862Y-68905181D01*
X138121319Y-62648638D01*
X139441500Y-62648638D01*
X139441852Y-62651918D01*
X139441853Y-62651924D01*
X139445632Y-62687078D01*
X139448011Y-62709201D01*
X139450717Y-62716458D01*
X139450719Y-62716463D01*
X139496011Y-62837894D01*
X139499111Y-62846204D01*
X139504425Y-62853303D01*
X139504426Y-62853304D01*
X139576565Y-62949671D01*
X139586739Y-62963261D01*
X139703796Y-63050889D01*
X139840799Y-63101989D01*
X139901362Y-63108500D01*
X143195328Y-63108500D01*
X143198638Y-63108500D01*
X143259201Y-63101989D01*
X143396204Y-63050889D01*
X143513261Y-62963261D01*
X143600889Y-62846204D01*
X143651989Y-62709201D01*
X143658500Y-62648638D01*
X143658500Y-60551362D01*
X143651989Y-60490799D01*
X143600889Y-60353796D01*
X143513261Y-60236739D01*
X143396204Y-60149111D01*
X143387896Y-60146012D01*
X143387894Y-60146011D01*
X143266463Y-60100719D01*
X143266458Y-60100717D01*
X143259201Y-60098011D01*
X143251497Y-60097182D01*
X143251494Y-60097182D01*
X143201924Y-60091853D01*
X143201918Y-60091852D01*
X143198638Y-60091500D01*
X139901362Y-60091500D01*
X139898082Y-60091852D01*
X139898075Y-60091853D01*
X139848505Y-60097182D01*
X139848500Y-60097182D01*
X139840799Y-60098011D01*
X139833543Y-60100717D01*
X139833536Y-60100719D01*
X139712105Y-60146011D01*
X139712099Y-60146013D01*
X139703796Y-60149111D01*
X139696698Y-60154423D01*
X139696695Y-60154426D01*
X139593835Y-60231426D01*
X139593831Y-60231429D01*
X139586739Y-60236739D01*
X139581429Y-60243831D01*
X139581426Y-60243835D01*
X139504426Y-60346695D01*
X139504423Y-60346698D01*
X139499111Y-60353796D01*
X139496013Y-60362099D01*
X139496011Y-60362105D01*
X139450719Y-60483536D01*
X139450717Y-60483543D01*
X139448011Y-60490799D01*
X139447182Y-60498500D01*
X139447182Y-60498505D01*
X139441853Y-60548075D01*
X139441500Y-60551362D01*
X139441500Y-62648638D01*
X138121319Y-62648638D01*
X136981804Y-61509123D01*
X136970021Y-61495489D01*
X136959779Y-61481732D01*
X136955469Y-61475942D01*
X136949936Y-61471300D01*
X136949935Y-61471298D01*
X136917060Y-61443712D01*
X136909085Y-61436404D01*
X136907653Y-61434972D01*
X136907653Y-61434971D01*
X136905101Y-61432420D01*
X136902278Y-61430187D01*
X136902267Y-61430178D01*
X136880512Y-61412976D01*
X136877719Y-61410701D01*
X136825172Y-61366610D01*
X136819640Y-61361968D01*
X136813186Y-61358726D01*
X136810061Y-61356671D01*
X136809914Y-61356564D01*
X136809744Y-61356470D01*
X136806573Y-61354514D01*
X136800906Y-61350033D01*
X136794361Y-61346980D01*
X136794353Y-61346976D01*
X136732160Y-61317974D01*
X136728917Y-61316404D01*
X136667645Y-61285633D01*
X136667639Y-61285631D01*
X136661188Y-61282391D01*
X136654161Y-61280725D01*
X136650662Y-61279452D01*
X136650476Y-61279375D01*
X136650307Y-61279327D01*
X136646748Y-61278147D01*
X136640206Y-61275097D01*
X136565921Y-61259758D01*
X136562406Y-61258979D01*
X136495676Y-61243163D01*
X136495669Y-61243162D01*
X136488656Y-61241500D01*
X136481444Y-61241500D01*
X136477739Y-61241067D01*
X136477546Y-61241036D01*
X136477362Y-61241028D01*
X136473629Y-61240701D01*
X136466558Y-61239241D01*
X136459349Y-61239450D01*
X136459341Y-61239450D01*
X136390707Y-61241448D01*
X136387101Y-61241500D01*
X131864295Y-61241500D01*
X131846323Y-61240191D01*
X131841264Y-61239450D01*
X131822211Y-61236659D01*
X131815019Y-61237288D01*
X131815013Y-61237288D01*
X131777121Y-61240603D01*
X131772272Y-61241028D01*
X131761467Y-61241500D01*
X131755820Y-61241500D01*
X131752261Y-61241915D01*
X131752243Y-61241917D01*
X131724678Y-61245139D01*
X131721094Y-61245505D01*
X131652762Y-61251483D01*
X131652753Y-61251484D01*
X131645573Y-61252113D01*
X131638728Y-61254380D01*
X131635043Y-61255142D01*
X131634870Y-61255170D01*
X131634686Y-61255222D01*
X131631050Y-61256083D01*
X131623887Y-61256921D01*
X131617109Y-61259387D01*
X131617108Y-61259388D01*
X131552661Y-61282844D01*
X131549259Y-61284026D01*
X131484117Y-61305613D01*
X131484109Y-61305616D01*
X131477261Y-61307886D01*
X131471121Y-61311672D01*
X131467726Y-61313256D01*
X131467557Y-61313325D01*
X131467396Y-61313416D01*
X131464050Y-61315096D01*
X131457268Y-61317565D01*
X131451237Y-61321531D01*
X131451234Y-61321533D01*
X131416283Y-61344519D01*
X131397374Y-61356957D01*
X131393924Y-61359226D01*
X131390909Y-61361147D01*
X131362479Y-61378683D01*
X131332486Y-61397184D01*
X131332482Y-61397186D01*
X131326349Y-61400970D01*
X131321252Y-61406066D01*
X131318303Y-61408398D01*
X131318160Y-61408500D01*
X131318035Y-61408616D01*
X131315152Y-61411034D01*
X131309126Y-61414999D01*
X131304176Y-61420245D01*
X131304173Y-61420248D01*
X131257053Y-61470191D01*
X131254541Y-61472776D01*
X130109123Y-62618194D01*
X130095495Y-62629972D01*
X130081735Y-62640216D01*
X130081724Y-62640225D01*
X130075942Y-62644531D01*
X130071307Y-62650053D01*
X130071298Y-62650063D01*
X130043715Y-62682935D01*
X130036419Y-62690898D01*
X130034975Y-62692341D01*
X130034953Y-62692365D01*
X130032420Y-62694899D01*
X130030194Y-62697713D01*
X130030186Y-62697723D01*
X130012982Y-62719480D01*
X130010710Y-62722268D01*
X129966608Y-62774828D01*
X129966601Y-62774837D01*
X129961968Y-62780360D01*
X129958732Y-62786801D01*
X129956664Y-62789946D01*
X129956568Y-62790078D01*
X129956481Y-62790235D01*
X129954508Y-62793432D01*
X129950033Y-62799094D01*
X129946982Y-62805635D01*
X129946981Y-62805638D01*
X129917982Y-62867825D01*
X129916427Y-62871037D01*
X129882391Y-62938812D01*
X129880727Y-62945828D01*
X129879446Y-62949350D01*
X129879376Y-62949518D01*
X129879328Y-62949689D01*
X129878147Y-62953252D01*
X129875097Y-62959794D01*
X129873638Y-62966857D01*
X129873636Y-62966865D01*
X129859759Y-63034072D01*
X129858979Y-63037592D01*
X129841500Y-63111344D01*
X129841500Y-63118557D01*
X129841067Y-63122261D01*
X129841036Y-63122453D01*
X129841028Y-63122638D01*
X129840701Y-63126370D01*
X129839241Y-63133442D01*
X129839450Y-63140649D01*
X129839450Y-63140658D01*
X129841448Y-63209293D01*
X129841500Y-63212899D01*
X129841500Y-72735705D01*
X129840190Y-72753677D01*
X129836659Y-72777789D01*
X126600500Y-72777789D01*
X126600500Y-58574500D01*
X126617113Y-58512500D01*
X126662500Y-58467113D01*
X126724500Y-58450500D01*
X167475500Y-58450500D01*
X167537500Y-58467113D01*
G37*
%TD.AperFunction*%
%TD*%
M02*
