M48
; DRILL file {KiCad (7.0.0)} date Tue Mar 14 13:27:19 2023
; FORMAT={-:-/ absolute / inch / decimal}
; #@! TF.CreationDate,2023-03-14T13:27:19+01:00
; #@! TF.GenerationSoftware,Kicad,Pcbnew,(7.0.0)
; #@! TF.FileFunction,Plated,1,2,PTH
FMAT,2
INCH
; #@! TA.AperFunction,Plated,PTH,ComponentDrill
T1C0.0394
; #@! TA.AperFunction,Plated,PTH,ComponentDrill
T2C0.0591
%
G90
G05
T1
X5.0787Y-3.0709
X5.0787Y-3.1709
X5.0787Y-3.2709
X5.0787Y-3.3709
X5.0787Y-3.4709
X5.0787Y-3.5709
X5.0787Y-3.6709
X5.0787Y-3.7709
X5.0787Y-3.8709
X5.0787Y-3.9709
X5.0787Y-4.0709
X5.0787Y-4.1709
X5.0787Y-4.2709
X5.0787Y-4.3709
X5.0787Y-4.4709
X5.0787Y-4.5709
X5.0787Y-4.6709
X5.0787Y-4.7709
X5.0787Y-4.8709
X5.2972Y-2.5472
X5.2972Y-2.7441
X5.8681Y-2.5472
X5.8681Y-2.6457
X5.8681Y-2.7441
X6.0827Y-3.0661
X6.0827Y-3.1661
X6.0827Y-3.2661
X6.0827Y-3.3661
X6.0827Y-3.4661
X6.0827Y-3.5661
X6.0827Y-3.6661
X6.0827Y-3.7661
X6.0827Y-3.8661
X6.0827Y-3.9661
X6.0827Y-4.0661
X6.0827Y-4.1661
X6.0827Y-4.2661
X6.0827Y-4.3661
X6.0827Y-4.4661
X6.0827Y-4.5661
X6.0827Y-4.6661
X6.0827Y-4.7661
X6.0827Y-4.8661
X6.0858Y-2.8199
X6.1858Y-2.8199
X6.2858Y-2.8199
X6.377Y-4.5642
X6.377Y-4.6642
X6.378Y-4.0441
X6.378Y-4.1441
X6.378Y-4.2441
X6.378Y-4.3441
X6.3858Y-2.8199
T2
G00X5.5984Y-2.4252
M15
G01X5.5472Y-2.4252
M16
G05
G00X5.5984Y-2.8661
M15
G01X5.5472Y-2.8661
M16
G05
T0
M30
