M48
; DRILL file {KiCad (7.0.0)} date Sun Mar  5 13:57:13 2023
; FORMAT={-:-/ absolute / inch / decimal}
; #@! TF.CreationDate,2023-03-05T13:57:13+01:00
; #@! TF.GenerationSoftware,Kicad,Pcbnew,(7.0.0)
; #@! TF.FileFunction,Plated,1,2,PTH
FMAT,2
INCH
; #@! TA.AperFunction,Plated,PTH,ComponentDrill
T1C0.0394
; #@! TA.AperFunction,Plated,PTH,ComponentDrill
T2C0.0591
%
G90
G05
T1
X5.0827Y-3.0594
X5.0827Y-3.1594
X5.0827Y-3.2594
X5.0827Y-3.3594
X5.0827Y-3.4594
X5.0827Y-3.5594
X5.0827Y-3.6594
X5.0827Y-3.7594
X5.0827Y-3.8594
X5.0827Y-3.9594
X5.0827Y-4.0594
X5.0827Y-4.1594
X5.0827Y-4.2594
X5.0827Y-4.3594
X5.0827Y-4.4594
X5.0827Y-4.5594
X5.0827Y-4.6594
X5.0827Y-4.7594
X5.0827Y-4.8594
X6.0827Y-3.0583
X6.0827Y-3.1583
X6.0827Y-3.2583
X6.0827Y-3.3583
X6.0827Y-3.4583
X6.0827Y-3.5583
X6.0827Y-3.6583
X6.0827Y-3.7583
X6.0827Y-3.8583
X6.0827Y-3.9583
X6.0827Y-4.0583
X6.0827Y-4.1583
X6.0827Y-4.2583
X6.0827Y-4.3583
X6.0827Y-4.4583
X6.0827Y-4.5583
X6.0827Y-4.6583
X6.0827Y-4.7583
X6.0827Y-4.8583
X6.4508Y-3.2343
X6.4508Y-3.3327
X6.4508Y-3.4311
X6.7156Y-4.5189
X6.7156Y-4.6189
X6.7165Y-3.9988
X6.7165Y-4.0988
X6.7165Y-4.1988
X6.7165Y-4.2988
X7.0217Y-3.2343
X7.0217Y-3.4311
T2
G00X6.7205Y-3.1122
M15
G01X6.7717Y-3.1122
M16
G05
G00X6.7205Y-3.5531
M15
G01X6.7717Y-3.5531
M16
G05
T0
M30
