%TF.GenerationSoftware,KiCad,Pcbnew,(7.0.0)*%
%TF.CreationDate,2023-04-14T16:10:36+02:00*%
%TF.ProjectId,display-brain-final,64697370-6c61-4792-9d62-7261696e2d66,rev?*%
%TF.SameCoordinates,Original*%
%TF.FileFunction,Soldermask,Top*%
%TF.FilePolarity,Negative*%
%FSLAX46Y46*%
G04 Gerber Fmt 4.6, Leading zero omitted, Abs format (unit mm)*
G04 Created by KiCad (PCBNEW (7.0.0)) date 2023-04-14 16:10:36*
%MOMM*%
%LPD*%
G01*
G04 APERTURE LIST*
G04 Aperture macros list*
%AMRoundRect*
0 Rectangle with rounded corners*
0 $1 Rounding radius*
0 $2 $3 $4 $5 $6 $7 $8 $9 X,Y pos of 4 corners*
0 Add a 4 corners polygon primitive as box body*
4,1,4,$2,$3,$4,$5,$6,$7,$8,$9,$2,$3,0*
0 Add four circle primitives for the rounded corners*
1,1,$1+$1,$2,$3*
1,1,$1+$1,$4,$5*
1,1,$1+$1,$6,$7*
1,1,$1+$1,$8,$9*
0 Add four rect primitives between the rounded corners*
20,1,$1+$1,$2,$3,$4,$5,0*
20,1,$1+$1,$4,$5,$6,$7,0*
20,1,$1+$1,$6,$7,$8,$9,0*
20,1,$1+$1,$8,$9,$2,$3,0*%
G04 Aperture macros list end*
%ADD10RoundRect,0.250000X-0.625000X0.400000X-0.625000X-0.400000X0.625000X-0.400000X0.625000X0.400000X0*%
%ADD11C,4.000000*%
%ADD12RoundRect,0.250000X0.625000X-0.400000X0.625000X0.400000X-0.625000X0.400000X-0.625000X-0.400000X0*%
%ADD13R,1.700000X1.700000*%
%ADD14O,1.700000X1.700000*%
%ADD15RoundRect,0.250000X-0.400000X-0.625000X0.400000X-0.625000X0.400000X0.625000X-0.400000X0.625000X0*%
%ADD16RoundRect,0.250000X-0.350000X0.850000X-0.350000X-0.850000X0.350000X-0.850000X0.350000X0.850000X0*%
%ADD17RoundRect,0.249997X-2.650003X2.950003X-2.650003X-2.950003X2.650003X-2.950003X2.650003X2.950003X0*%
%ADD18RoundRect,0.250001X0.624999X-0.462499X0.624999X0.462499X-0.624999X0.462499X-0.624999X-0.462499X0*%
%ADD19RoundRect,0.250001X-0.624999X0.462499X-0.624999X-0.462499X0.624999X-0.462499X0.624999X0.462499X0*%
%ADD20RoundRect,0.250000X-0.650000X0.412500X-0.650000X-0.412500X0.650000X-0.412500X0.650000X0.412500X0*%
%ADD21C,0.650000*%
%ADD22O,0.950000X0.650000*%
%ADD23R,0.300000X0.700000*%
%ADD24O,0.800000X1.400000*%
%ADD25RoundRect,0.250000X0.412500X0.650000X-0.412500X0.650000X-0.412500X-0.650000X0.412500X-0.650000X0*%
G04 APERTURE END LIST*
D10*
%TO.C,R2*%
X150675000Y-87720000D03*
X150675000Y-90820000D03*
%TD*%
D11*
%TO.C,TP2*%
X129400000Y-52300000D03*
%TD*%
D12*
%TO.C,R4*%
X151290000Y-78510000D03*
X151290000Y-75410000D03*
%TD*%
D13*
%TO.C,J3*%
X133099999Y-60479999D03*
D14*
X133099999Y-63019999D03*
X133099999Y-65559999D03*
X133099999Y-68099999D03*
X133099999Y-70639999D03*
X133099999Y-73179999D03*
X133099999Y-75719999D03*
X133099999Y-78259999D03*
X133099999Y-80799999D03*
X133099999Y-83339999D03*
X133099999Y-85879999D03*
X133099999Y-88419999D03*
X133099999Y-90959999D03*
X133099999Y-93499999D03*
X133099999Y-96039999D03*
X133099999Y-98579999D03*
X133099999Y-101119999D03*
X133099999Y-103659999D03*
X133099999Y-106199999D03*
%TD*%
D15*
%TO.C,R3*%
X148400000Y-73270000D03*
X151500000Y-73270000D03*
%TD*%
D13*
%TO.C,J8*%
X221699999Y-74319999D03*
D14*
X221699999Y-76859999D03*
X221699999Y-79399999D03*
%TD*%
D16*
%TO.C,U3*%
X148400000Y-75870000D03*
D17*
X146120000Y-82170000D03*
D16*
X143840000Y-75870000D03*
%TD*%
D18*
%TO.C,FB1*%
X140300000Y-63387500D03*
X140300000Y-60412500D03*
%TD*%
D13*
%TO.C,J5*%
X168099999Y-67759999D03*
D14*
X168099999Y-70299999D03*
X168099999Y-72839999D03*
X168099999Y-75379999D03*
%TD*%
D13*
%TO.C,J4*%
X158599999Y-106199999D03*
D14*
X158599999Y-103659999D03*
X158599999Y-101119999D03*
X158599999Y-98579999D03*
X158599999Y-96039999D03*
X158599999Y-93499999D03*
X158599999Y-90959999D03*
X158599999Y-88419999D03*
X158599999Y-85879999D03*
X158599999Y-83339999D03*
X158599999Y-80799999D03*
X158599999Y-78259999D03*
X158599999Y-75719999D03*
X158599999Y-73179999D03*
X158599999Y-70639999D03*
X158599999Y-68099999D03*
X158599999Y-65559999D03*
X158599999Y-63019999D03*
X158599999Y-60479999D03*
%TD*%
D10*
%TO.C,R1*%
X137300000Y-60250000D03*
X137300000Y-63350000D03*
%TD*%
D13*
%TO.C,J2*%
X168099999Y-80119999D03*
D14*
X168099999Y-82659999D03*
X168099999Y-85199999D03*
X168099999Y-87739999D03*
X168099999Y-90279999D03*
%TD*%
D13*
%TO.C,J6*%
X221664577Y-93309757D03*
D14*
X221664577Y-90769757D03*
X221664577Y-88229757D03*
X221664577Y-85689757D03*
X221664577Y-83149757D03*
%TD*%
D11*
%TO.C,TP3*%
X129400000Y-113000000D03*
%TD*%
D19*
%TO.C,FB2*%
X154800000Y-60612500D03*
X154800000Y-63587500D03*
%TD*%
D18*
%TO.C,D1*%
X147675000Y-90757500D03*
X147675000Y-87782500D03*
%TD*%
D11*
%TO.C,TP1*%
X227000000Y-52300000D03*
%TD*%
%TO.C,TP4*%
X227000000Y-113000000D03*
%TD*%
D20*
%TO.C,C3*%
X144585000Y-87740000D03*
X144585000Y-90865000D03*
%TD*%
%TO.C,C4*%
X141235000Y-87740000D03*
X141235000Y-90865000D03*
%TD*%
D21*
%TO.C,P1*%
X143900000Y-60140000D03*
D22*
X151099999Y-60139999D03*
D23*
X144749999Y-59479999D03*
X145249999Y-59479999D03*
X145749999Y-59479999D03*
X146249999Y-59479999D03*
X146749999Y-59479999D03*
X147249999Y-59479999D03*
X147749999Y-59479999D03*
X148249999Y-59479999D03*
X148749999Y-59479999D03*
X149249999Y-59479999D03*
X149749999Y-59479999D03*
X150249999Y-59479999D03*
D21*
X150300000Y-60790000D03*
X149900000Y-61490000D03*
X149100000Y-61490000D03*
X148700000Y-60790000D03*
X148300000Y-61490000D03*
X147900000Y-60790000D03*
X147100000Y-60790000D03*
X146700000Y-61490000D03*
X146300000Y-60790000D03*
X145900000Y-61490000D03*
X145100000Y-61490000D03*
X144700000Y-60790000D03*
D24*
X143009999Y-67339999D03*
X143369999Y-61389999D03*
X151629999Y-61389999D03*
X151989999Y-67339999D03*
%TD*%
D20*
%TO.C,C1*%
X140920000Y-75447500D03*
X140920000Y-78572500D03*
%TD*%
D25*
%TO.C,C2*%
X143812500Y-73250000D03*
X140687500Y-73250000D03*
%TD*%
D13*
%TO.C,J7*%
X168024999Y-60449999D03*
D14*
X168024999Y-62989999D03*
%TD*%
D13*
%TO.C,J1*%
X187568342Y-75899757D03*
D14*
X187568342Y-73359757D03*
%TD*%
M02*
