M48
; DRILL file {KiCad (7.0.0)} date Fri Apr 14 16:10:33 2023
; FORMAT={-:-/ absolute / inch / decimal}
; #@! TF.CreationDate,2023-04-14T16:10:33+02:00
; #@! TF.GenerationSoftware,Kicad,Pcbnew,(7.0.0)
; #@! TF.FileFunction,Plated,1,4,PTH
FMAT,2
INCH
; #@! TA.AperFunction,Plated,PTH,ComponentDrill
T1C0.0157
; #@! TA.AperFunction,Plated,PTH,ComponentDrill
T2C0.0197
; #@! TA.AperFunction,Plated,PTH,ViaDrill
T3C0.0315
; #@! TA.AperFunction,Plated,PTH,ComponentDrill
T4C0.0394
; #@! TA.AperFunction,Plated,PTH,ComponentDrill
T5C0.1181
%
G90
G05
T1
X5.6969Y-2.3933
X5.7126Y-2.4209
X5.7441Y-2.4209
X5.7598Y-2.3933
X5.7756Y-2.4209
X5.7913Y-2.3933
X5.8228Y-2.3933
X5.8386Y-2.4209
X5.8543Y-2.3933
X5.8701Y-2.4209
X5.9016Y-2.4209
X5.9173Y-2.3933
T3
X5.7524Y-2.9335
X5.7667Y-3.0035
T4
X5.2402Y-2.3811
X5.2402Y-2.4811
X5.2402Y-2.5811
X5.2402Y-2.6811
X5.2402Y-2.7811
X5.2402Y-2.8811
X5.2402Y-2.9811
X5.2402Y-3.0811
X5.2402Y-3.1811
X5.2402Y-3.2811
X5.2402Y-3.3811
X5.2402Y-3.4811
X5.2402Y-3.5811
X5.2402Y-3.6811
X5.2402Y-3.7811
X5.2402Y-3.8811
X5.2402Y-3.9811
X5.2402Y-4.0811
X5.2402Y-4.1811
X6.2441Y-2.3811
X6.2441Y-2.4811
X6.2441Y-2.5811
X6.2441Y-2.6811
X6.2441Y-2.7811
X6.2441Y-2.8811
X6.2441Y-2.9811
X6.2441Y-3.0811
X6.2441Y-3.1811
X6.2441Y-3.2811
X6.2441Y-3.3811
X6.2441Y-3.4811
X6.2441Y-3.5811
X6.2441Y-3.6811
X6.2441Y-3.7811
X6.2441Y-3.8811
X6.2441Y-3.9811
X6.2441Y-4.0811
X6.2441Y-4.1811
X6.6152Y-2.3799
X6.6152Y-2.4799
X6.6181Y-2.6677
X6.6181Y-2.7677
X6.6181Y-2.8677
X6.6181Y-2.9677
X6.6181Y-3.1543
X6.6181Y-3.2543
X6.6181Y-3.3543
X6.6181Y-3.4543
X6.6181Y-3.5543
X7.3846Y-2.8882
X7.3846Y-2.9882
X8.727Y-3.2736
X8.727Y-3.3736
X8.727Y-3.4736
X8.727Y-3.5736
X8.727Y-3.6736
X8.7283Y-2.926
X8.7283Y-3.026
X8.7283Y-3.126
T5
X5.0945Y-2.0591
X5.0945Y-4.4488
X8.937Y-2.0591
X8.937Y-4.4488
T2
G00X5.6303Y-2.6394
M15
G01X5.6303Y-2.663
M16
G05
G00X5.6445Y-2.4051
M15
G01X5.6445Y-2.4287
M16
G05
G00X5.9697Y-2.4051
M15
G01X5.9697Y-2.4287
M16
G05
G00X5.9839Y-2.6394
M15
G01X5.9839Y-2.663
M16
G05
T0
M30
