%TF.GenerationSoftware,KiCad,Pcbnew,(7.0.0)*%
%TF.CreationDate,2023-04-14T16:10:36+02:00*%
%TF.ProjectId,display-brain-final,64697370-6c61-4792-9d62-7261696e2d66,rev?*%
%TF.SameCoordinates,Original*%
%TF.FileFunction,Soldermask,Bot*%
%TF.FilePolarity,Negative*%
%FSLAX46Y46*%
G04 Gerber Fmt 4.6, Leading zero omitted, Abs format (unit mm)*
G04 Created by KiCad (PCBNEW (7.0.0)) date 2023-04-14 16:10:36*
%MOMM*%
%LPD*%
G01*
G04 APERTURE LIST*
%ADD10C,4.000000*%
%ADD11R,1.700000X1.700000*%
%ADD12O,1.700000X1.700000*%
%ADD13C,0.650000*%
%ADD14O,0.950000X0.650000*%
%ADD15O,0.800000X1.400000*%
G04 APERTURE END LIST*
D10*
%TO.C,TP2*%
X129400000Y-52300000D03*
%TD*%
D11*
%TO.C,J3*%
X133099999Y-60479999D03*
D12*
X133099999Y-63019999D03*
X133099999Y-65559999D03*
X133099999Y-68099999D03*
X133099999Y-70639999D03*
X133099999Y-73179999D03*
X133099999Y-75719999D03*
X133099999Y-78259999D03*
X133099999Y-80799999D03*
X133099999Y-83339999D03*
X133099999Y-85879999D03*
X133099999Y-88419999D03*
X133099999Y-90959999D03*
X133099999Y-93499999D03*
X133099999Y-96039999D03*
X133099999Y-98579999D03*
X133099999Y-101119999D03*
X133099999Y-103659999D03*
X133099999Y-106199999D03*
%TD*%
D11*
%TO.C,J8*%
X221699999Y-74319999D03*
D12*
X221699999Y-76859999D03*
X221699999Y-79399999D03*
%TD*%
D11*
%TO.C,J5*%
X168099999Y-67759999D03*
D12*
X168099999Y-70299999D03*
X168099999Y-72839999D03*
X168099999Y-75379999D03*
%TD*%
D11*
%TO.C,J4*%
X158599999Y-106199999D03*
D12*
X158599999Y-103659999D03*
X158599999Y-101119999D03*
X158599999Y-98579999D03*
X158599999Y-96039999D03*
X158599999Y-93499999D03*
X158599999Y-90959999D03*
X158599999Y-88419999D03*
X158599999Y-85879999D03*
X158599999Y-83339999D03*
X158599999Y-80799999D03*
X158599999Y-78259999D03*
X158599999Y-75719999D03*
X158599999Y-73179999D03*
X158599999Y-70639999D03*
X158599999Y-68099999D03*
X158599999Y-65559999D03*
X158599999Y-63019999D03*
X158599999Y-60479999D03*
%TD*%
D11*
%TO.C,J2*%
X168099999Y-80119999D03*
D12*
X168099999Y-82659999D03*
X168099999Y-85199999D03*
X168099999Y-87739999D03*
X168099999Y-90279999D03*
%TD*%
D11*
%TO.C,J6*%
X221664577Y-93309757D03*
D12*
X221664577Y-90769757D03*
X221664577Y-88229757D03*
X221664577Y-85689757D03*
X221664577Y-83149757D03*
%TD*%
D10*
%TO.C,TP3*%
X129400000Y-113000000D03*
%TD*%
%TO.C,TP1*%
X227000000Y-52300000D03*
%TD*%
%TO.C,TP4*%
X227000000Y-113000000D03*
%TD*%
D13*
%TO.C,P1*%
X143900000Y-60140000D03*
D14*
X151099999Y-60139999D03*
D13*
X150300000Y-60790000D03*
X149900000Y-61490000D03*
X149100000Y-61490000D03*
X148700000Y-60790000D03*
X148300000Y-61490000D03*
X147900000Y-60790000D03*
X147100000Y-60790000D03*
X146700000Y-61490000D03*
X146300000Y-60790000D03*
X145900000Y-61490000D03*
X145100000Y-61490000D03*
X144700000Y-60790000D03*
D15*
X143009999Y-67339999D03*
X143369999Y-61389999D03*
X151629999Y-61389999D03*
X151989999Y-67339999D03*
%TD*%
D11*
%TO.C,J7*%
X168024999Y-60449999D03*
D12*
X168024999Y-62989999D03*
%TD*%
D11*
%TO.C,J1*%
X187568342Y-75899757D03*
D12*
X187568342Y-73359757D03*
%TD*%
M02*
