%TF.GenerationSoftware,KiCad,Pcbnew,(7.0.0)*%
%TF.CreationDate,2023-04-25T15:22:23+02:00*%
%TF.ProjectId,funk-transmitter-final,66756e6b-2d74-4726-916e-736d69747465,rev?*%
%TF.SameCoordinates,Original*%
%TF.FileFunction,Legend,Bot*%
%TF.FilePolarity,Positive*%
%FSLAX46Y46*%
G04 Gerber Fmt 4.6, Leading zero omitted, Abs format (unit mm)*
G04 Created by KiCad (PCBNEW (7.0.0)) date 2023-04-25 15:22:23*
%MOMM*%
%LPD*%
G01*
G04 APERTURE LIST*
%ADD10C,0.150000*%
%ADD11C,0.100000*%
%ADD12C,0.120000*%
G04 APERTURE END LIST*
D10*
%TO.C,C4*%
X128497142Y-87833333D02*
X128544761Y-87785714D01*
X128544761Y-87785714D02*
X128592380Y-87642857D01*
X128592380Y-87642857D02*
X128592380Y-87547619D01*
X128592380Y-87547619D02*
X128544761Y-87404762D01*
X128544761Y-87404762D02*
X128449523Y-87309524D01*
X128449523Y-87309524D02*
X128354285Y-87261905D01*
X128354285Y-87261905D02*
X128163809Y-87214286D01*
X128163809Y-87214286D02*
X128020952Y-87214286D01*
X128020952Y-87214286D02*
X127830476Y-87261905D01*
X127830476Y-87261905D02*
X127735238Y-87309524D01*
X127735238Y-87309524D02*
X127640000Y-87404762D01*
X127640000Y-87404762D02*
X127592380Y-87547619D01*
X127592380Y-87547619D02*
X127592380Y-87642857D01*
X127592380Y-87642857D02*
X127640000Y-87785714D01*
X127640000Y-87785714D02*
X127687619Y-87833333D01*
X127925714Y-88690476D02*
X128592380Y-88690476D01*
X127544761Y-88452381D02*
X128259047Y-88214286D01*
X128259047Y-88214286D02*
X128259047Y-88833333D01*
%TO.C,J1*%
X131233333Y-100172380D02*
X131233333Y-100886666D01*
X131233333Y-100886666D02*
X131280952Y-101029523D01*
X131280952Y-101029523D02*
X131376190Y-101124761D01*
X131376190Y-101124761D02*
X131519047Y-101172380D01*
X131519047Y-101172380D02*
X131614285Y-101172380D01*
X130233333Y-101172380D02*
X130804761Y-101172380D01*
X130519047Y-101172380D02*
X130519047Y-100172380D01*
X130519047Y-100172380D02*
X130614285Y-100315238D01*
X130614285Y-100315238D02*
X130709523Y-100410476D01*
X130709523Y-100410476D02*
X130804761Y-100458095D01*
%TO.C,C3*%
X132897142Y-87833333D02*
X132944761Y-87785714D01*
X132944761Y-87785714D02*
X132992380Y-87642857D01*
X132992380Y-87642857D02*
X132992380Y-87547619D01*
X132992380Y-87547619D02*
X132944761Y-87404762D01*
X132944761Y-87404762D02*
X132849523Y-87309524D01*
X132849523Y-87309524D02*
X132754285Y-87261905D01*
X132754285Y-87261905D02*
X132563809Y-87214286D01*
X132563809Y-87214286D02*
X132420952Y-87214286D01*
X132420952Y-87214286D02*
X132230476Y-87261905D01*
X132230476Y-87261905D02*
X132135238Y-87309524D01*
X132135238Y-87309524D02*
X132040000Y-87404762D01*
X132040000Y-87404762D02*
X131992380Y-87547619D01*
X131992380Y-87547619D02*
X131992380Y-87642857D01*
X131992380Y-87642857D02*
X132040000Y-87785714D01*
X132040000Y-87785714D02*
X132087619Y-87833333D01*
X131992380Y-88166667D02*
X131992380Y-88785714D01*
X131992380Y-88785714D02*
X132373333Y-88452381D01*
X132373333Y-88452381D02*
X132373333Y-88595238D01*
X132373333Y-88595238D02*
X132420952Y-88690476D01*
X132420952Y-88690476D02*
X132468571Y-88738095D01*
X132468571Y-88738095D02*
X132563809Y-88785714D01*
X132563809Y-88785714D02*
X132801904Y-88785714D01*
X132801904Y-88785714D02*
X132897142Y-88738095D01*
X132897142Y-88738095D02*
X132944761Y-88690476D01*
X132944761Y-88690476D02*
X132992380Y-88595238D01*
X132992380Y-88595238D02*
X132992380Y-88309524D01*
X132992380Y-88309524D02*
X132944761Y-88214286D01*
X132944761Y-88214286D02*
X132897142Y-88166667D01*
%TO.C,J4*%
X165333333Y-117577380D02*
X165333333Y-118291666D01*
X165333333Y-118291666D02*
X165380952Y-118434523D01*
X165380952Y-118434523D02*
X165476190Y-118529761D01*
X165476190Y-118529761D02*
X165619047Y-118577380D01*
X165619047Y-118577380D02*
X165714285Y-118577380D01*
X164428571Y-117910714D02*
X164428571Y-118577380D01*
X164666666Y-117529761D02*
X164904761Y-118244047D01*
X164904761Y-118244047D02*
X164285714Y-118244047D01*
D11*
%TO.C,U1*%
X146867380Y-99638095D02*
X147676904Y-99638095D01*
X147676904Y-99638095D02*
X147772142Y-99685714D01*
X147772142Y-99685714D02*
X147819761Y-99733333D01*
X147819761Y-99733333D02*
X147867380Y-99828571D01*
X147867380Y-99828571D02*
X147867380Y-100019047D01*
X147867380Y-100019047D02*
X147819761Y-100114285D01*
X147819761Y-100114285D02*
X147772142Y-100161904D01*
X147772142Y-100161904D02*
X147676904Y-100209523D01*
X147676904Y-100209523D02*
X146867380Y-100209523D01*
X147867380Y-101209523D02*
X147867380Y-100638095D01*
X147867380Y-100923809D02*
X146867380Y-100923809D01*
X146867380Y-100923809D02*
X147010238Y-100828571D01*
X147010238Y-100828571D02*
X147105476Y-100733333D01*
X147105476Y-100733333D02*
X147153095Y-100638095D01*
D10*
%TO.C,J5*%
X165333333Y-103597380D02*
X165333333Y-104311666D01*
X165333333Y-104311666D02*
X165380952Y-104454523D01*
X165380952Y-104454523D02*
X165476190Y-104549761D01*
X165476190Y-104549761D02*
X165619047Y-104597380D01*
X165619047Y-104597380D02*
X165714285Y-104597380D01*
X164380952Y-103597380D02*
X164857142Y-103597380D01*
X164857142Y-103597380D02*
X164904761Y-104073571D01*
X164904761Y-104073571D02*
X164857142Y-104025952D01*
X164857142Y-104025952D02*
X164761904Y-103978333D01*
X164761904Y-103978333D02*
X164523809Y-103978333D01*
X164523809Y-103978333D02*
X164428571Y-104025952D01*
X164428571Y-104025952D02*
X164380952Y-104073571D01*
X164380952Y-104073571D02*
X164333333Y-104168809D01*
X164333333Y-104168809D02*
X164333333Y-104406904D01*
X164333333Y-104406904D02*
X164380952Y-104502142D01*
X164380952Y-104502142D02*
X164428571Y-104549761D01*
X164428571Y-104549761D02*
X164523809Y-104597380D01*
X164523809Y-104597380D02*
X164761904Y-104597380D01*
X164761904Y-104597380D02*
X164857142Y-104549761D01*
X164857142Y-104549761D02*
X164904761Y-104502142D01*
D12*
%TO.C,C4*%
X130985000Y-87288748D02*
X130985000Y-88711252D01*
X129165000Y-87288748D02*
X129165000Y-88711252D01*
%TO.C,J1*%
X129570000Y-94605000D02*
X132230000Y-94605000D01*
X129570000Y-97205000D02*
X129570000Y-94605000D01*
X129570000Y-97205000D02*
X132230000Y-97205000D01*
X129570000Y-98475000D02*
X129570000Y-99805000D01*
X129570000Y-99805000D02*
X130900000Y-99805000D01*
X132230000Y-97205000D02*
X132230000Y-94605000D01*
%TO.C,C3*%
X135385000Y-87288748D02*
X135385000Y-88711252D01*
X133565000Y-87288748D02*
X133565000Y-88711252D01*
%TO.C,J4*%
X163670000Y-104390000D02*
X166330000Y-104390000D01*
X163670000Y-114610000D02*
X163670000Y-104390000D01*
X163670000Y-114610000D02*
X166330000Y-114610000D01*
X163670000Y-115880000D02*
X163670000Y-117210000D01*
X163670000Y-117210000D02*
X165000000Y-117210000D01*
X166330000Y-114610000D02*
X166330000Y-104390000D01*
%TO.C,J5*%
X163670000Y-95490000D02*
X166330000Y-95490000D01*
X163670000Y-100630000D02*
X163670000Y-95490000D01*
X163670000Y-100630000D02*
X166330000Y-100630000D01*
X163670000Y-101900000D02*
X163670000Y-103230000D01*
X163670000Y-103230000D02*
X165000000Y-103230000D01*
X166330000Y-100630000D02*
X166330000Y-95490000D01*
%TD*%
M02*
