%TF.GenerationSoftware,KiCad,Pcbnew,(7.0.0)*%
%TF.CreationDate,2023-04-14T14:01:47+02:00*%
%TF.ProjectId,funk-transmitter-final,66756e6b-2d74-4726-916e-736d69747465,rev?*%
%TF.SameCoordinates,Original*%
%TF.FileFunction,Copper,L4,Bot*%
%TF.FilePolarity,Positive*%
%FSLAX46Y46*%
G04 Gerber Fmt 4.6, Leading zero omitted, Abs format (unit mm)*
G04 Created by KiCad (PCBNEW (7.0.0)) date 2023-04-14 14:01:47*
%MOMM*%
%LPD*%
G01*
G04 APERTURE LIST*
G04 Aperture macros list*
%AMRoundRect*
0 Rectangle with rounded corners*
0 $1 Rounding radius*
0 $2 $3 $4 $5 $6 $7 $8 $9 X,Y pos of 4 corners*
0 Add a 4 corners polygon primitive as box body*
4,1,4,$2,$3,$4,$5,$6,$7,$8,$9,$2,$3,0*
0 Add four circle primitives for the rounded corners*
1,1,$1+$1,$2,$3*
1,1,$1+$1,$4,$5*
1,1,$1+$1,$6,$7*
1,1,$1+$1,$8,$9*
0 Add four rect primitives between the rounded corners*
20,1,$1+$1,$2,$3,$4,$5,0*
20,1,$1+$1,$4,$5,$6,$7,0*
20,1,$1+$1,$6,$7,$8,$9,0*
20,1,$1+$1,$8,$9,$2,$3,0*%
G04 Aperture macros list end*
%TA.AperFunction,ComponentPad*%
%ADD10RoundRect,0.250000X-0.750000X0.600000X-0.750000X-0.600000X0.750000X-0.600000X0.750000X0.600000X0*%
%TD*%
%TA.AperFunction,ComponentPad*%
%ADD11O,2.000000X1.700000*%
%TD*%
%TA.AperFunction,SMDPad,CuDef*%
%ADD12RoundRect,0.250000X-0.650000X0.412500X-0.650000X-0.412500X0.650000X-0.412500X0.650000X0.412500X0*%
%TD*%
%TA.AperFunction,ComponentPad*%
%ADD13R,1.700000X1.700000*%
%TD*%
%TA.AperFunction,ComponentPad*%
%ADD14O,1.700000X1.700000*%
%TD*%
%TA.AperFunction,SMDPad,CuDef*%
%ADD15R,2.143000X1.762000*%
%TD*%
%TA.AperFunction,ViaPad*%
%ADD16C,1.200000*%
%TD*%
%TA.AperFunction,ViaPad*%
%ADD17C,0.800000*%
%TD*%
%TA.AperFunction,Conductor*%
%ADD18C,1.000000*%
%TD*%
%TA.AperFunction,Conductor*%
%ADD19C,0.600000*%
%TD*%
%TA.AperFunction,Conductor*%
%ADD20C,0.400000*%
%TD*%
%TA.AperFunction,Conductor*%
%ADD21C,1.200000*%
%TD*%
G04 APERTURE END LIST*
D10*
%TO.P,J2,1,Pin_1*%
%TO.N,N/C*%
X161475000Y-87000000D03*
D11*
%TO.P,J2,2,Pin_2*%
X161474999Y-89499999D03*
%TD*%
D12*
%TO.P,C4,1*%
%TO.N,N/C*%
X130075000Y-86437500D03*
%TO.P,C4,2*%
X130075000Y-89562500D03*
%TD*%
D13*
%TO.P,J1,1,Pin_1*%
%TO.N,/ESP_5V*%
X130899999Y-98474999D03*
D14*
%TO.P,J1,2,Pin_2*%
%TO.N,GND*%
X130899999Y-95934999D03*
%TD*%
D12*
%TO.P,C3,1*%
%TO.N,N/C*%
X134475000Y-86437500D03*
%TO.P,C3,2*%
X134475000Y-89562500D03*
%TD*%
D13*
%TO.P,J4,1,Pin_1*%
%TO.N,/SDN*%
X164999999Y-115879999D03*
D14*
%TO.P,J4,2,Pin_2*%
%TO.N,/SCLK*%
X164999999Y-113339999D03*
%TO.P,J4,3,Pin_3*%
%TO.N,/SDI*%
X164999999Y-110799999D03*
%TO.P,J4,4,Pin_4*%
%TO.N,/SDO*%
X164999999Y-108259999D03*
%TO.P,J4,5,Pin_5*%
%TO.N,/nSEL*%
X164999999Y-105719999D03*
%TD*%
D15*
%TO.P,U1,1,VCC*%
%TO.N,+5V*%
X139299999Y-86399999D03*
%TO.P,U1,2,GND*%
%TO.N,GND*%
X139299999Y-90380999D03*
%TO.P,U1,3,NC*%
%TO.N,/NC_1*%
X139299999Y-94399999D03*
%TO.P,U1,4,NC*%
%TO.N,/NC_2*%
X139299999Y-98399999D03*
%TO.P,U1,5,SDN*%
%TO.N,/SDN*%
X139299999Y-102399999D03*
%TO.P,U1,6,nIRQ*%
%TO.N,/nIRQ*%
X139299999Y-106399999D03*
%TO.P,U1,7,nSEL*%
%TO.N,/nSEL*%
X139299999Y-110399999D03*
%TO.P,U1,8,GND*%
%TO.N,GND*%
X139299999Y-114399999D03*
%TO.P,U1,9,ANT*%
%TO.N,/Antenne*%
X158699999Y-86399999D03*
%TO.P,U1,10,GND*%
%TO.N,/gnd*%
X158699999Y-90380999D03*
%TO.P,U1,11,NC*%
%TO.N,/NC_3*%
X158699999Y-94399999D03*
%TO.P,U1,12,GPIO0*%
%TO.N,/GPIO0*%
X158699999Y-98399999D03*
%TO.P,U1,13,GPIO1*%
%TO.N,/GPIO1*%
X158699999Y-102399999D03*
%TO.P,U1,14,SDO*%
%TO.N,/SDO*%
X158699999Y-106399999D03*
%TO.P,U1,15,SDI*%
%TO.N,/SDI*%
X158699999Y-110399999D03*
%TO.P,U1,16,SCLK*%
%TO.N,/SCLK*%
X158699999Y-114399999D03*
%TD*%
D13*
%TO.P,J5,1,Pin_1*%
%TO.N,/nIRQ*%
X164999999Y-101899999D03*
D14*
%TO.P,J5,2,Pin_2*%
%TO.N,/GPIO0*%
X164999999Y-99359999D03*
%TO.P,J5,3,Pin_3*%
%TO.N,/GPIO1*%
X164999999Y-96819999D03*
%TD*%
D16*
%TO.N,GND*%
X133165000Y-95935000D03*
%TO.N,/ESP_5V*%
X128200000Y-98400000D03*
%TO.N,/SDN*%
X164900000Y-118900000D03*
%TO.N,/SCLK*%
X162400000Y-113100000D03*
%TO.N,/SDI*%
X161800000Y-110400000D03*
%TO.N,/SDO*%
X162200000Y-107100000D03*
%TO.N,/nSEL*%
X167300000Y-106400000D03*
D17*
%TO.N,/nIRQ*%
X161800000Y-104400000D03*
%TO.N,/GPIO0*%
X167700000Y-98400000D03*
%TO.N,/GPIO1*%
X162700000Y-100200000D03*
%TD*%
D18*
%TO.N,GND*%
X135312000Y-95510000D02*
X135293500Y-95491500D01*
X139475000Y-90381000D02*
X135293500Y-90381000D01*
X134887000Y-95935000D02*
X135312000Y-95510000D01*
X142075000Y-114400000D02*
X139475000Y-114400000D01*
X134475000Y-89562500D02*
X130075000Y-89562500D01*
X136185000Y-95510000D02*
X135312000Y-95510000D01*
X135293500Y-90381000D02*
X134475000Y-89562500D01*
X135293500Y-90381000D02*
X135293500Y-95491500D01*
X137075000Y-96400000D02*
X140827500Y-96400000D01*
X145075000Y-111400000D02*
X142075000Y-114400000D01*
X140827500Y-96400000D02*
X145075000Y-100647500D01*
X145075000Y-100647500D02*
X145075000Y-111400000D01*
X136185000Y-95510000D02*
X137075000Y-96400000D01*
X133165000Y-95935000D02*
X134887000Y-95935000D01*
%TO.N,/ESP_5V*%
X129037500Y-86437500D02*
X127675000Y-87800000D01*
X127675000Y-87800000D02*
X127675000Y-97875000D01*
X134512500Y-86400000D02*
X134475000Y-86437500D01*
X134475000Y-86437500D02*
X129037500Y-86437500D01*
X139475000Y-86400000D02*
X134512500Y-86400000D01*
X127675000Y-97875000D02*
X128200000Y-98400000D01*
D19*
%TO.N,/SDN*%
X131275000Y-119400000D02*
X131275000Y-105600000D01*
X162075000Y-121200000D02*
X133075000Y-121200000D01*
X162075000Y-121200000D02*
X162600000Y-121200000D01*
X162600000Y-121200000D02*
X164900000Y-118900000D01*
X133075000Y-121200000D02*
X131275000Y-119400000D01*
X131275000Y-105600000D02*
X134475000Y-102400000D01*
X134475000Y-102400000D02*
X139475000Y-102400000D01*
%TO.N,/SCLK*%
X162375000Y-113100000D02*
X162400000Y-113100000D01*
X162400000Y-113100000D02*
X162400000Y-113075000D01*
X158875000Y-114400000D02*
X161075000Y-114400000D01*
X161075000Y-114400000D02*
X162375000Y-113100000D01*
X162400000Y-113075000D02*
X162275000Y-113200000D01*
%TO.N,/SDI*%
X158675000Y-110400000D02*
X161800000Y-110400000D01*
%TO.N,/SDO*%
X158675000Y-106400000D02*
X161500000Y-106400000D01*
X161500000Y-106400000D02*
X162200000Y-107100000D01*
D20*
%TO.N,/nSEL*%
X165552767Y-114490000D02*
X163825000Y-114490000D01*
X167300000Y-106400000D02*
X167275000Y-112767767D01*
X163825000Y-114490000D02*
X162475000Y-115840000D01*
X167275000Y-106400000D02*
X167300000Y-106400000D01*
X134075000Y-110400000D02*
X139475000Y-110400000D01*
X162475000Y-118200000D02*
X160475000Y-120200000D01*
X133875000Y-120200000D02*
X132475000Y-118800000D01*
X132475000Y-118800000D02*
X132475000Y-112000000D01*
X132475000Y-112000000D02*
X134075000Y-110400000D01*
X167275000Y-112767767D02*
X165552767Y-114490000D01*
X162475000Y-115840000D02*
X162475000Y-118200000D01*
X160475000Y-120200000D02*
X133875000Y-120200000D01*
%TO.N,/nIRQ*%
X134075000Y-113400000D02*
X135075000Y-112400000D01*
X141075000Y-106400000D02*
X139475000Y-106400000D01*
X155075000Y-104400000D02*
X141875000Y-117600000D01*
X134875000Y-117600000D02*
X134075000Y-116800000D01*
X134075000Y-116800000D02*
X134075000Y-113400000D01*
X164300000Y-101900000D02*
X165000000Y-101900000D01*
X135075000Y-112400000D02*
X140675000Y-112400000D01*
X141475000Y-106800000D02*
X141075000Y-106400000D01*
X141875000Y-117600000D02*
X134875000Y-117600000D01*
X155075000Y-104400000D02*
X161800000Y-104400000D01*
X141475000Y-111600000D02*
X141475000Y-106800000D01*
X140675000Y-112400000D02*
X141475000Y-111600000D01*
D19*
%TO.N,/GPIO0*%
X162475000Y-95025000D02*
X163200000Y-94300000D01*
X161875000Y-98400000D02*
X162475000Y-97800000D01*
X163200000Y-94300000D02*
X166900000Y-94300000D01*
X166900000Y-94300000D02*
X167700000Y-95100000D01*
X167700000Y-98400000D02*
X167700000Y-98300000D01*
X167700000Y-95100000D02*
X167700000Y-98400000D01*
X158875000Y-98400000D02*
X161875000Y-98400000D01*
X162475000Y-97800000D02*
X162475000Y-95025000D01*
%TO.N,/GPIO1*%
X162700000Y-100200000D02*
X162675000Y-100325000D01*
X162675000Y-101800000D02*
X162700000Y-100200000D01*
X162675000Y-101800000D02*
X162075000Y-102400000D01*
X162075000Y-102400000D02*
X158875000Y-102400000D01*
D21*
%TO.N,/Antenne*%
X160875000Y-86400000D02*
X161475000Y-87000000D01*
X158875000Y-86400000D02*
X160875000Y-86400000D01*
%TO.N,/gnd*%
X160594000Y-90381000D02*
X161475000Y-89500000D01*
X158875000Y-90381000D02*
X160594000Y-90381000D01*
%TD*%
%TA.AperFunction,NonConductor*%
G36*
X163779458Y-99992209D02*
G01*
X163825895Y-100037680D01*
X163825965Y-100037830D01*
X163829066Y-100042259D01*
X163829067Y-100042260D01*
X163958399Y-100226966D01*
X163958402Y-100226970D01*
X163961505Y-100231401D01*
X163965335Y-100235231D01*
X163965336Y-100235232D01*
X164083430Y-100353326D01*
X164114726Y-100406072D01*
X164116915Y-100467365D01*
X164089462Y-100522210D01*
X164039083Y-100557189D01*
X163929748Y-100597969D01*
X163907669Y-100606204D01*
X163900572Y-100611516D01*
X163900568Y-100611519D01*
X163799550Y-100687141D01*
X163799546Y-100687144D01*
X163792454Y-100692454D01*
X163787144Y-100699546D01*
X163787137Y-100699554D01*
X163715744Y-100794923D01*
X163667636Y-100833567D01*
X163606858Y-100844238D01*
X163548463Y-100824294D01*
X163506911Y-100778673D01*
X163492493Y-100718676D01*
X163493441Y-100658032D01*
X163510040Y-100597969D01*
X163520236Y-100580309D01*
X163527179Y-100568284D01*
X163585674Y-100388256D01*
X163605460Y-100200000D01*
X163596403Y-100113831D01*
X163607525Y-100048078D01*
X163651101Y-99997592D01*
X163714528Y-99976982D01*
X163779458Y-99992209D01*
G37*
%TD.AperFunction*%
%TA.AperFunction,NonConductor*%
G36*
X166197368Y-106605862D02*
G01*
X166229972Y-106660616D01*
X166267847Y-106793731D01*
X166267849Y-106793737D01*
X166269418Y-106799250D01*
X166360327Y-106981821D01*
X166380522Y-107008564D01*
X166479778Y-107140001D01*
X166479782Y-107140006D01*
X166483236Y-107144579D01*
X166544579Y-107200500D01*
X166555490Y-107210447D01*
X166585484Y-107252221D01*
X166595950Y-107302571D01*
X166592702Y-108129859D01*
X166576782Y-108190158D01*
X166533523Y-108235081D01*
X166473868Y-108253264D01*
X166412907Y-108240109D01*
X166366059Y-108198943D01*
X166345176Y-108140181D01*
X166335063Y-108024592D01*
X166273903Y-107796337D01*
X166174035Y-107582171D01*
X166038495Y-107388599D01*
X165871401Y-107221505D01*
X165866968Y-107218401D01*
X165866961Y-107218395D01*
X165685842Y-107091575D01*
X165646976Y-107047257D01*
X165632965Y-106990000D01*
X165646976Y-106932743D01*
X165685842Y-106888425D01*
X165866961Y-106761604D01*
X165866961Y-106761603D01*
X165871401Y-106758495D01*
X166023028Y-106606867D01*
X166078151Y-106574901D01*
X166141876Y-106574532D01*
X166197368Y-106605862D01*
G37*
%TD.AperFunction*%
%TA.AperFunction,NonConductor*%
G36*
X166533003Y-108297533D02*
G01*
X166576105Y-108342824D01*
X166591629Y-108403388D01*
X166583159Y-110560775D01*
X166567239Y-110621074D01*
X166523981Y-110665997D01*
X166464325Y-110684180D01*
X166403364Y-110671025D01*
X166356516Y-110629859D01*
X166337093Y-110575206D01*
X166336475Y-110575316D01*
X166335827Y-110571646D01*
X166335632Y-110571095D01*
X166335625Y-110571019D01*
X166335063Y-110564592D01*
X166273903Y-110336337D01*
X166174035Y-110122171D01*
X166038495Y-109928599D01*
X165871401Y-109761505D01*
X165866968Y-109758401D01*
X165866961Y-109758395D01*
X165685842Y-109631575D01*
X165646976Y-109587257D01*
X165632965Y-109530000D01*
X165646976Y-109472743D01*
X165685842Y-109428425D01*
X165866961Y-109301604D01*
X165866961Y-109301603D01*
X165871401Y-109298495D01*
X166038495Y-109131401D01*
X166174035Y-108937830D01*
X166273903Y-108723663D01*
X166335063Y-108495408D01*
X166344102Y-108392093D01*
X166365077Y-108333195D01*
X166412124Y-108292018D01*
X166473282Y-108279030D01*
X166533003Y-108297533D01*
G37*
%TD.AperFunction*%
%TA.AperFunction,NonConductor*%
G36*
X166525629Y-110950558D02*
G01*
X166566557Y-110995487D01*
X166581220Y-111054468D01*
X166575838Y-112425394D01*
X166566307Y-112472585D01*
X166539520Y-112512588D01*
X166366983Y-112685125D01*
X166319158Y-112714864D01*
X166263111Y-112720382D01*
X166210405Y-112700542D01*
X166174299Y-112661986D01*
X166174035Y-112662171D01*
X166172739Y-112660320D01*
X166172738Y-112660319D01*
X166038495Y-112468599D01*
X165871401Y-112301505D01*
X165866968Y-112298401D01*
X165866961Y-112298395D01*
X165685842Y-112171575D01*
X165646976Y-112127257D01*
X165632965Y-112070000D01*
X165646976Y-112012743D01*
X165685842Y-111968425D01*
X165866961Y-111841604D01*
X165866961Y-111841603D01*
X165871401Y-111838495D01*
X166038495Y-111671401D01*
X166174035Y-111477830D01*
X166273903Y-111263663D01*
X166335063Y-111035408D01*
X166335373Y-111031853D01*
X166359999Y-110977014D01*
X166408251Y-110940060D01*
X166468267Y-110930474D01*
X166525629Y-110950558D01*
G37*
%TD.AperFunction*%
%TA.AperFunction,NonConductor*%
G36*
X137666001Y-111117113D02*
G01*
X137711388Y-111162500D01*
X137728001Y-111224500D01*
X137728001Y-111328872D01*
X137728353Y-111332150D01*
X137728354Y-111332161D01*
X137733579Y-111380768D01*
X137733580Y-111380773D01*
X137734409Y-111388483D01*
X137737119Y-111395749D01*
X137737120Y-111395753D01*
X137776651Y-111501741D01*
X137782528Y-111517498D01*
X137782529Y-111517500D01*
X137784704Y-111523331D01*
X137784024Y-111523584D01*
X137797327Y-111577712D01*
X137779989Y-111638773D01*
X137734707Y-111683254D01*
X137673347Y-111699500D01*
X135099921Y-111699500D01*
X135092433Y-111699274D01*
X135039881Y-111696094D01*
X135039873Y-111696094D01*
X135032394Y-111695642D01*
X135025018Y-111696993D01*
X135025011Y-111696994D01*
X134973228Y-111706483D01*
X134965828Y-111707610D01*
X134913569Y-111713956D01*
X134913565Y-111713956D01*
X134906128Y-111714860D01*
X134899119Y-111717517D01*
X134899114Y-111717519D01*
X134896643Y-111718456D01*
X134875053Y-111724474D01*
X134872452Y-111724950D01*
X134872438Y-111724954D01*
X134865069Y-111726305D01*
X134858232Y-111729381D01*
X134858232Y-111729382D01*
X134810226Y-111750987D01*
X134803310Y-111753851D01*
X134754082Y-111772521D01*
X134754070Y-111772526D01*
X134747070Y-111775182D01*
X134740904Y-111779437D01*
X134740894Y-111779443D01*
X134738717Y-111780946D01*
X134719195Y-111791957D01*
X134716788Y-111793040D01*
X134716778Y-111793045D01*
X134709944Y-111796122D01*
X134704043Y-111800744D01*
X134704038Y-111800748D01*
X134662608Y-111833206D01*
X134656580Y-111837642D01*
X134613246Y-111867554D01*
X134613242Y-111867556D01*
X134607071Y-111871817D01*
X134602101Y-111877426D01*
X134602094Y-111877433D01*
X134567177Y-111916846D01*
X134562044Y-111922298D01*
X133597290Y-112887051D01*
X133591838Y-112892184D01*
X133552431Y-112927096D01*
X133552425Y-112927102D01*
X133546817Y-112932071D01*
X133542560Y-112938236D01*
X133542551Y-112938248D01*
X133512649Y-112981568D01*
X133508213Y-112987597D01*
X133475749Y-113029035D01*
X133475743Y-113029043D01*
X133471122Y-113034943D01*
X133468044Y-113041780D01*
X133468043Y-113041783D01*
X133466962Y-113044185D01*
X133455940Y-113063727D01*
X133454441Y-113065898D01*
X133454437Y-113065904D01*
X133450182Y-113072070D01*
X133447526Y-113079070D01*
X133447522Y-113079080D01*
X133428853Y-113128305D01*
X133425989Y-113135218D01*
X133412577Y-113165021D01*
X133369943Y-113216182D01*
X133306990Y-113237908D01*
X133241876Y-113223931D01*
X133193384Y-113178285D01*
X133175500Y-113114134D01*
X133175500Y-112341519D01*
X133184939Y-112294066D01*
X133211819Y-112253838D01*
X134328838Y-111136819D01*
X134369066Y-111109939D01*
X134416519Y-111100500D01*
X137604001Y-111100500D01*
X137666001Y-111117113D01*
G37*
%TD.AperFunction*%
%TA.AperFunction,NonConductor*%
G36*
X163592631Y-113447714D02*
G01*
X163641014Y-113488951D01*
X163662604Y-113548744D01*
X163664937Y-113575408D01*
X163666337Y-113580636D01*
X163666338Y-113580637D01*
X163690075Y-113669230D01*
X163690495Y-113731804D01*
X163660306Y-113786615D01*
X163614537Y-113815131D01*
X163615066Y-113816306D01*
X163581896Y-113831235D01*
X163560234Y-113840984D01*
X163553318Y-113843848D01*
X163504082Y-113862521D01*
X163504070Y-113862526D01*
X163497070Y-113865182D01*
X163494150Y-113867197D01*
X163431203Y-113880823D01*
X163368525Y-113859552D01*
X163325718Y-113809069D01*
X163314979Y-113743757D01*
X163335272Y-113692556D01*
X163333199Y-113691273D01*
X163336218Y-113686395D01*
X163339673Y-113681821D01*
X163428076Y-113504281D01*
X163470052Y-113456540D01*
X163530171Y-113435873D01*
X163592631Y-113447714D01*
G37*
%TD.AperFunction*%
%TA.AperFunction,NonConductor*%
G36*
X168537500Y-80917113D02*
G01*
X168582887Y-80962500D01*
X168599500Y-81024500D01*
X168599500Y-94589662D01*
X168584694Y-94648421D01*
X168543812Y-94693149D01*
X168486616Y-94713163D01*
X168426766Y-94703684D01*
X168378554Y-94666976D01*
X168366235Y-94651529D01*
X168358218Y-94641477D01*
X168350180Y-94630147D01*
X168329816Y-94597738D01*
X168202262Y-94470184D01*
X167434252Y-93702174D01*
X167402262Y-93670184D01*
X167369851Y-93649818D01*
X167358509Y-93641771D01*
X167328587Y-93617909D01*
X167322318Y-93614890D01*
X167322315Y-93614888D01*
X167294093Y-93601296D01*
X167281927Y-93594572D01*
X167255414Y-93577913D01*
X167255412Y-93577912D01*
X167249522Y-93574211D01*
X167213393Y-93561568D01*
X167200554Y-93556250D01*
X167172336Y-93542661D01*
X167172329Y-93542658D01*
X167166061Y-93539640D01*
X167159276Y-93538091D01*
X167159267Y-93538088D01*
X167128735Y-93531119D01*
X167115382Y-93527273D01*
X167096699Y-93520735D01*
X167085823Y-93516930D01*
X167085821Y-93516929D01*
X167079255Y-93514632D01*
X167072338Y-93513852D01*
X167072336Y-93513852D01*
X167041218Y-93510345D01*
X167027518Y-93508017D01*
X166996988Y-93501050D01*
X166996983Y-93501049D01*
X166990194Y-93499500D01*
X166944954Y-93499500D01*
X163290194Y-93499500D01*
X163109806Y-93499500D01*
X163103020Y-93501048D01*
X163103008Y-93501050D01*
X163072479Y-93508017D01*
X163058781Y-93510345D01*
X163027665Y-93513852D01*
X163027663Y-93513852D01*
X163020745Y-93514632D01*
X162984619Y-93527272D01*
X162971268Y-93531118D01*
X162940726Y-93538089D01*
X162940711Y-93538094D01*
X162933939Y-93539640D01*
X162913557Y-93549454D01*
X162899441Y-93556252D01*
X162886603Y-93561569D01*
X162857046Y-93571912D01*
X162857041Y-93571914D01*
X162850478Y-93574211D01*
X162844592Y-93577908D01*
X162844582Y-93577914D01*
X162818066Y-93594575D01*
X162805903Y-93601297D01*
X162777690Y-93614884D01*
X162777679Y-93614890D01*
X162771414Y-93617908D01*
X162765977Y-93622243D01*
X162765970Y-93622248D01*
X162741486Y-93641773D01*
X162730153Y-93649814D01*
X162703630Y-93666480D01*
X162703620Y-93666487D01*
X162697738Y-93670184D01*
X162692824Y-93675097D01*
X162692820Y-93675101D01*
X161972735Y-94395186D01*
X161972736Y-94395186D01*
X161845184Y-94522738D01*
X161841479Y-94528632D01*
X161841479Y-94528634D01*
X161824816Y-94555152D01*
X161816773Y-94566487D01*
X161797253Y-94590965D01*
X161797251Y-94590967D01*
X161792909Y-94596413D01*
X161789889Y-94602682D01*
X161789883Y-94602693D01*
X161776299Y-94630900D01*
X161769577Y-94643064D01*
X161756809Y-94663386D01*
X161749211Y-94675478D01*
X161746915Y-94682037D01*
X161746911Y-94682047D01*
X161736565Y-94711613D01*
X161731247Y-94724451D01*
X161717660Y-94752666D01*
X161717657Y-94752671D01*
X161714640Y-94758939D01*
X161713092Y-94765717D01*
X161713089Y-94765728D01*
X161706118Y-94796268D01*
X161702272Y-94809619D01*
X161689632Y-94845745D01*
X161688852Y-94852663D01*
X161688852Y-94852665D01*
X161685345Y-94883781D01*
X161683017Y-94897479D01*
X161676050Y-94928008D01*
X161676048Y-94928020D01*
X161674500Y-94934806D01*
X161674500Y-94941772D01*
X161674500Y-97417060D01*
X161665061Y-97464513D01*
X161638181Y-97504741D01*
X161579741Y-97563181D01*
X161539513Y-97590061D01*
X161492060Y-97599500D01*
X160395999Y-97599500D01*
X160333999Y-97582887D01*
X160288612Y-97537500D01*
X160272599Y-97477739D01*
X160272177Y-97477762D01*
X160272070Y-97475765D01*
X160271999Y-97475500D01*
X160271999Y-97474439D01*
X160271999Y-97471128D01*
X160265591Y-97411517D01*
X160215296Y-97276669D01*
X160129046Y-97161454D01*
X160013831Y-97075204D01*
X159878983Y-97024909D01*
X159871270Y-97024079D01*
X159871267Y-97024079D01*
X159822680Y-97018855D01*
X159822669Y-97018854D01*
X159819373Y-97018500D01*
X159816050Y-97018500D01*
X157583939Y-97018500D01*
X157583920Y-97018500D01*
X157580628Y-97018501D01*
X157577350Y-97018853D01*
X157577338Y-97018854D01*
X157528731Y-97024079D01*
X157528725Y-97024080D01*
X157521017Y-97024909D01*
X157513752Y-97027618D01*
X157513746Y-97027620D01*
X157394480Y-97072104D01*
X157394478Y-97072104D01*
X157386169Y-97075204D01*
X157379072Y-97080516D01*
X157379068Y-97080519D01*
X157278050Y-97156141D01*
X157278046Y-97156144D01*
X157270954Y-97161454D01*
X157265644Y-97168546D01*
X157265641Y-97168550D01*
X157190019Y-97269568D01*
X157190016Y-97269572D01*
X157184704Y-97276669D01*
X157181604Y-97284978D01*
X157181604Y-97284980D01*
X157137120Y-97404247D01*
X157137119Y-97404250D01*
X157134409Y-97411517D01*
X157133579Y-97419227D01*
X157133579Y-97419232D01*
X157128355Y-97467819D01*
X157128354Y-97467831D01*
X157128000Y-97471127D01*
X157128000Y-97474448D01*
X157128000Y-97474449D01*
X157128000Y-99325560D01*
X157128000Y-99325578D01*
X157128001Y-99328872D01*
X157128353Y-99332150D01*
X157128354Y-99332161D01*
X157133579Y-99380768D01*
X157133580Y-99380773D01*
X157134409Y-99388483D01*
X157137119Y-99395749D01*
X157137120Y-99395753D01*
X157147942Y-99424767D01*
X157184704Y-99523331D01*
X157270954Y-99638546D01*
X157386169Y-99724796D01*
X157521017Y-99775091D01*
X157580627Y-99781500D01*
X159819372Y-99781499D01*
X159878983Y-99775091D01*
X160013831Y-99724796D01*
X160129046Y-99638546D01*
X160215296Y-99523331D01*
X160265591Y-99388483D01*
X160272000Y-99328873D01*
X160272000Y-99324500D01*
X160272070Y-99324237D01*
X160272178Y-99322232D01*
X160272601Y-99322254D01*
X160288613Y-99262500D01*
X160334000Y-99217113D01*
X160396000Y-99200500D01*
X161958233Y-99200500D01*
X161965194Y-99200500D01*
X162002523Y-99191979D01*
X162016197Y-99189655D01*
X162054255Y-99185368D01*
X162090403Y-99172718D01*
X162103726Y-99168881D01*
X162141061Y-99160360D01*
X162175546Y-99143752D01*
X162188398Y-99138429D01*
X162224522Y-99125789D01*
X162256939Y-99105418D01*
X162269086Y-99098705D01*
X162303587Y-99082091D01*
X162333519Y-99058220D01*
X162344853Y-99050179D01*
X162377262Y-99029816D01*
X162504816Y-98902262D01*
X162504816Y-98902261D01*
X163072826Y-98334252D01*
X163104816Y-98302262D01*
X163125180Y-98269850D01*
X163133220Y-98258519D01*
X163157091Y-98228587D01*
X163173705Y-98194086D01*
X163180418Y-98181939D01*
X163200789Y-98149522D01*
X163213429Y-98113397D01*
X163218752Y-98100547D01*
X163223831Y-98090000D01*
X163235360Y-98066061D01*
X163243881Y-98028726D01*
X163247718Y-98015403D01*
X163260368Y-97979255D01*
X163264655Y-97941197D01*
X163266979Y-97927523D01*
X163275500Y-97890194D01*
X163275500Y-97709806D01*
X163275500Y-95407940D01*
X163284939Y-95360487D01*
X163311819Y-95320259D01*
X163495259Y-95136819D01*
X163535487Y-95109939D01*
X163582940Y-95100500D01*
X166517060Y-95100500D01*
X166564513Y-95109939D01*
X166604741Y-95136819D01*
X166863181Y-95395259D01*
X166890061Y-95435487D01*
X166899500Y-95482940D01*
X166899500Y-97952281D01*
X166882887Y-98014281D01*
X166876069Y-98026089D01*
X166876066Y-98026094D01*
X166872821Y-98031716D01*
X166870815Y-98037888D01*
X166870813Y-98037894D01*
X166816333Y-98205564D01*
X166816331Y-98205573D01*
X166814326Y-98211744D01*
X166813648Y-98218194D01*
X166813646Y-98218204D01*
X166802387Y-98325336D01*
X166794540Y-98400000D01*
X166795219Y-98406460D01*
X166813646Y-98581795D01*
X166813647Y-98581803D01*
X166814326Y-98588256D01*
X166816331Y-98594428D01*
X166816333Y-98594435D01*
X166828828Y-98632889D01*
X166872821Y-98768284D01*
X166876068Y-98773908D01*
X166876069Y-98773910D01*
X166950172Y-98902261D01*
X166967467Y-98932216D01*
X166971811Y-98937041D01*
X166971813Y-98937043D01*
X167080929Y-99058228D01*
X167094129Y-99072888D01*
X167099387Y-99076708D01*
X167099388Y-99076709D01*
X167165294Y-99124592D01*
X167247270Y-99184151D01*
X167420197Y-99261144D01*
X167605354Y-99300500D01*
X167788143Y-99300500D01*
X167794646Y-99300500D01*
X167979803Y-99261144D01*
X168152730Y-99184151D01*
X168305871Y-99072888D01*
X168383350Y-98986838D01*
X168432277Y-98953588D01*
X168491041Y-98946789D01*
X168546269Y-98967989D01*
X168585389Y-99012362D01*
X168599500Y-99069811D01*
X168599500Y-106056971D01*
X168585636Y-106113945D01*
X168547144Y-106158179D01*
X168492632Y-106179782D01*
X168434288Y-106173922D01*
X168385160Y-106141911D01*
X168356234Y-106090906D01*
X168332152Y-106006268D01*
X168330582Y-106000750D01*
X168239673Y-105818179D01*
X168185252Y-105746114D01*
X168120221Y-105659998D01*
X168120217Y-105659994D01*
X168116764Y-105655421D01*
X168112527Y-105651558D01*
X168112523Y-105651554D01*
X167970275Y-105521879D01*
X167970276Y-105521879D01*
X167966041Y-105518019D01*
X167961171Y-105515004D01*
X167961169Y-105515002D01*
X167806494Y-105419232D01*
X167792637Y-105410652D01*
X167776101Y-105404246D01*
X167607803Y-105339047D01*
X167607798Y-105339045D01*
X167602456Y-105336976D01*
X167596818Y-105335922D01*
X167407605Y-105300552D01*
X167407602Y-105300551D01*
X167401976Y-105299500D01*
X167198024Y-105299500D01*
X167192398Y-105300551D01*
X167192394Y-105300552D01*
X167003181Y-105335922D01*
X167003178Y-105335922D01*
X166997544Y-105336976D01*
X166992203Y-105339044D01*
X166992196Y-105339047D01*
X166812705Y-105408582D01*
X166812700Y-105408584D01*
X166807363Y-105410652D01*
X166802491Y-105413668D01*
X166802488Y-105413670D01*
X166638830Y-105515002D01*
X166638822Y-105515007D01*
X166633959Y-105518019D01*
X166629731Y-105521872D01*
X166629730Y-105521874D01*
X166545071Y-105599051D01*
X166484161Y-105629331D01*
X166416442Y-105622924D01*
X166362292Y-105581758D01*
X166338005Y-105518220D01*
X166335063Y-105484592D01*
X166273903Y-105256337D01*
X166174035Y-105042171D01*
X166038495Y-104848599D01*
X165871401Y-104681505D01*
X165866970Y-104678402D01*
X165866966Y-104678399D01*
X165682259Y-104549066D01*
X165682257Y-104549064D01*
X165677830Y-104545965D01*
X165672933Y-104543681D01*
X165672927Y-104543678D01*
X165468572Y-104448386D01*
X165468570Y-104448385D01*
X165463663Y-104446097D01*
X165458438Y-104444697D01*
X165458430Y-104444694D01*
X165240634Y-104386337D01*
X165240630Y-104386336D01*
X165235408Y-104384937D01*
X165230020Y-104384465D01*
X165230017Y-104384465D01*
X165005395Y-104364813D01*
X165000000Y-104364341D01*
X164994605Y-104364813D01*
X164769982Y-104384465D01*
X164769977Y-104384465D01*
X164764592Y-104384937D01*
X164759371Y-104386335D01*
X164759365Y-104386337D01*
X164541569Y-104444694D01*
X164541557Y-104444698D01*
X164536337Y-104446097D01*
X164531432Y-104448383D01*
X164531427Y-104448386D01*
X164327081Y-104543675D01*
X164327077Y-104543677D01*
X164322171Y-104545965D01*
X164317738Y-104549068D01*
X164317731Y-104549073D01*
X164133034Y-104678399D01*
X164133029Y-104678402D01*
X164128599Y-104681505D01*
X164124775Y-104685328D01*
X164124769Y-104685334D01*
X163965334Y-104844769D01*
X163965328Y-104844775D01*
X163961505Y-104848599D01*
X163958402Y-104853029D01*
X163958399Y-104853034D01*
X163829073Y-105037731D01*
X163829068Y-105037738D01*
X163825965Y-105042171D01*
X163823677Y-105047077D01*
X163823675Y-105047081D01*
X163728386Y-105251427D01*
X163728383Y-105251432D01*
X163726097Y-105256337D01*
X163724698Y-105261557D01*
X163724694Y-105261569D01*
X163666337Y-105479365D01*
X163666335Y-105479371D01*
X163664937Y-105484592D01*
X163664465Y-105489977D01*
X163664465Y-105489982D01*
X163649654Y-105659269D01*
X163644341Y-105720000D01*
X163644813Y-105725395D01*
X163662038Y-105922282D01*
X163664937Y-105955408D01*
X163666336Y-105960630D01*
X163666337Y-105960634D01*
X163724694Y-106178430D01*
X163724697Y-106178438D01*
X163726097Y-106183663D01*
X163728385Y-106188570D01*
X163728386Y-106188572D01*
X163823678Y-106392927D01*
X163823681Y-106392933D01*
X163825965Y-106397830D01*
X163829064Y-106402257D01*
X163829066Y-106402259D01*
X163958399Y-106586966D01*
X163958402Y-106586970D01*
X163961505Y-106591401D01*
X164128599Y-106758495D01*
X164133032Y-106761599D01*
X164133038Y-106761604D01*
X164314158Y-106888425D01*
X164353024Y-106932743D01*
X164367035Y-106990000D01*
X164353024Y-107047257D01*
X164314159Y-107091575D01*
X164133041Y-107218395D01*
X164128599Y-107221505D01*
X164124775Y-107225328D01*
X164124769Y-107225334D01*
X163965334Y-107384769D01*
X163965328Y-107384775D01*
X163961505Y-107388599D01*
X163958402Y-107393029D01*
X163958399Y-107393034D01*
X163829073Y-107577731D01*
X163829068Y-107577738D01*
X163825965Y-107582171D01*
X163823677Y-107587077D01*
X163823675Y-107587081D01*
X163728386Y-107791427D01*
X163728383Y-107791432D01*
X163726097Y-107796337D01*
X163724698Y-107801557D01*
X163724694Y-107801569D01*
X163666337Y-108019365D01*
X163666335Y-108019371D01*
X163664937Y-108024592D01*
X163664465Y-108029977D01*
X163664465Y-108029982D01*
X163649683Y-108198943D01*
X163644341Y-108260000D01*
X163664937Y-108495408D01*
X163666336Y-108500630D01*
X163666337Y-108500634D01*
X163724694Y-108718430D01*
X163724697Y-108718438D01*
X163726097Y-108723663D01*
X163728385Y-108728570D01*
X163728386Y-108728572D01*
X163823678Y-108932927D01*
X163823681Y-108932933D01*
X163825965Y-108937830D01*
X163829064Y-108942257D01*
X163829066Y-108942259D01*
X163958399Y-109126966D01*
X163958402Y-109126970D01*
X163961505Y-109131401D01*
X164128599Y-109298495D01*
X164133032Y-109301599D01*
X164133038Y-109301604D01*
X164314158Y-109428425D01*
X164353024Y-109472743D01*
X164367035Y-109530000D01*
X164353024Y-109587257D01*
X164314159Y-109631575D01*
X164133041Y-109758395D01*
X164128599Y-109761505D01*
X164124775Y-109765328D01*
X164124769Y-109765334D01*
X163965334Y-109924769D01*
X163965328Y-109924775D01*
X163961505Y-109928599D01*
X163958402Y-109933029D01*
X163958399Y-109933034D01*
X163829073Y-110117731D01*
X163829068Y-110117738D01*
X163825965Y-110122171D01*
X163823677Y-110127077D01*
X163823675Y-110127081D01*
X163728386Y-110331427D01*
X163728383Y-110331432D01*
X163726097Y-110336337D01*
X163724698Y-110341557D01*
X163724694Y-110341569D01*
X163666337Y-110559365D01*
X163666335Y-110559371D01*
X163664937Y-110564592D01*
X163664465Y-110569977D01*
X163664465Y-110569982D01*
X163656065Y-110665997D01*
X163644341Y-110800000D01*
X163644813Y-110805395D01*
X163660648Y-110986392D01*
X163664937Y-111035408D01*
X163666336Y-111040630D01*
X163666337Y-111040634D01*
X163724694Y-111258430D01*
X163724697Y-111258438D01*
X163726097Y-111263663D01*
X163728385Y-111268570D01*
X163728386Y-111268572D01*
X163823678Y-111472927D01*
X163823681Y-111472933D01*
X163825965Y-111477830D01*
X163829064Y-111482257D01*
X163829066Y-111482259D01*
X163958399Y-111666966D01*
X163958402Y-111666970D01*
X163961505Y-111671401D01*
X164128599Y-111838495D01*
X164133032Y-111841599D01*
X164133038Y-111841604D01*
X164314158Y-111968425D01*
X164353024Y-112012743D01*
X164367035Y-112070000D01*
X164353024Y-112127257D01*
X164314159Y-112171575D01*
X164133041Y-112298395D01*
X164128599Y-112301505D01*
X164124775Y-112305328D01*
X164124769Y-112305334D01*
X163965334Y-112464769D01*
X163965328Y-112464775D01*
X163961505Y-112468599D01*
X163958402Y-112473029D01*
X163958399Y-112473034D01*
X163829073Y-112657731D01*
X163829068Y-112657738D01*
X163825965Y-112662171D01*
X163823677Y-112667077D01*
X163823675Y-112667081D01*
X163728386Y-112871427D01*
X163728383Y-112871432D01*
X163726097Y-112876337D01*
X163724695Y-112881566D01*
X163724693Y-112881574D01*
X163723189Y-112887187D01*
X163691363Y-112942502D01*
X163636243Y-112974663D01*
X163572428Y-112975153D01*
X163516821Y-112943841D01*
X163484150Y-112889021D01*
X163483628Y-112887187D01*
X163445152Y-112751957D01*
X163432153Y-112706270D01*
X163432151Y-112706266D01*
X163430582Y-112700750D01*
X163339673Y-112518179D01*
X163269605Y-112425394D01*
X163220221Y-112359998D01*
X163220217Y-112359994D01*
X163216764Y-112355421D01*
X163212527Y-112351558D01*
X163212523Y-112351554D01*
X163070275Y-112221879D01*
X163070276Y-112221879D01*
X163066041Y-112218019D01*
X163061171Y-112215004D01*
X163061169Y-112215002D01*
X162919455Y-112127257D01*
X162892637Y-112110652D01*
X162795198Y-112072904D01*
X162707803Y-112039047D01*
X162707798Y-112039045D01*
X162702456Y-112036976D01*
X162696818Y-112035922D01*
X162507605Y-112000552D01*
X162507602Y-112000551D01*
X162501976Y-111999500D01*
X162298024Y-111999500D01*
X162292398Y-112000551D01*
X162292394Y-112000552D01*
X162103181Y-112035922D01*
X162103178Y-112035922D01*
X162097544Y-112036976D01*
X162092203Y-112039044D01*
X162092196Y-112039047D01*
X161912705Y-112108582D01*
X161912700Y-112108584D01*
X161907363Y-112110652D01*
X161902491Y-112113668D01*
X161902488Y-112113670D01*
X161738830Y-112215002D01*
X161738822Y-112215007D01*
X161733959Y-112218019D01*
X161729728Y-112221875D01*
X161729724Y-112221879D01*
X161587476Y-112351554D01*
X161587466Y-112351564D01*
X161583236Y-112355421D01*
X161579787Y-112359987D01*
X161579778Y-112359998D01*
X161463779Y-112513607D01*
X161463776Y-112513611D01*
X161460327Y-112518179D01*
X161457774Y-112523304D01*
X161457772Y-112523309D01*
X161388720Y-112661986D01*
X161369418Y-112700750D01*
X161367850Y-112706258D01*
X161367847Y-112706268D01*
X161315173Y-112891395D01*
X161315170Y-112891406D01*
X161313603Y-112896917D01*
X161313074Y-112902625D01*
X161313073Y-112902631D01*
X161304212Y-112998259D01*
X161292988Y-113039510D01*
X161268422Y-113074498D01*
X160779741Y-113563181D01*
X160739513Y-113590061D01*
X160692060Y-113599500D01*
X160395999Y-113599500D01*
X160333999Y-113582887D01*
X160288612Y-113537500D01*
X160272599Y-113477739D01*
X160272177Y-113477762D01*
X160272070Y-113475765D01*
X160271999Y-113475500D01*
X160271999Y-113474439D01*
X160271999Y-113471128D01*
X160265591Y-113411517D01*
X160215296Y-113276669D01*
X160129046Y-113161454D01*
X160098689Y-113138729D01*
X160020931Y-113080519D01*
X160020930Y-113080518D01*
X160013831Y-113075204D01*
X159924225Y-113041783D01*
X159886252Y-113027620D01*
X159886250Y-113027619D01*
X159878983Y-113024909D01*
X159871270Y-113024079D01*
X159871267Y-113024079D01*
X159822680Y-113018855D01*
X159822669Y-113018854D01*
X159819373Y-113018500D01*
X159816050Y-113018500D01*
X157583939Y-113018500D01*
X157583920Y-113018500D01*
X157580628Y-113018501D01*
X157577350Y-113018853D01*
X157577338Y-113018854D01*
X157528731Y-113024079D01*
X157528725Y-113024080D01*
X157521017Y-113024909D01*
X157513752Y-113027618D01*
X157513746Y-113027620D01*
X157394480Y-113072104D01*
X157394478Y-113072104D01*
X157386169Y-113075204D01*
X157379072Y-113080516D01*
X157379068Y-113080519D01*
X157278050Y-113156141D01*
X157278046Y-113156144D01*
X157270954Y-113161454D01*
X157265644Y-113168546D01*
X157265641Y-113168550D01*
X157190019Y-113269568D01*
X157190016Y-113269572D01*
X157184704Y-113276669D01*
X157181604Y-113284978D01*
X157181604Y-113284980D01*
X157137120Y-113404247D01*
X157137119Y-113404250D01*
X157134409Y-113411517D01*
X157133579Y-113419227D01*
X157133579Y-113419232D01*
X157128355Y-113467819D01*
X157128354Y-113467831D01*
X157128000Y-113471127D01*
X157128000Y-113474448D01*
X157128000Y-113474449D01*
X157128000Y-115325560D01*
X157128000Y-115325578D01*
X157128001Y-115328872D01*
X157128353Y-115332150D01*
X157128354Y-115332161D01*
X157133579Y-115380768D01*
X157133580Y-115380773D01*
X157134409Y-115388483D01*
X157137119Y-115395749D01*
X157137120Y-115395753D01*
X157170717Y-115485831D01*
X157184704Y-115523331D01*
X157190018Y-115530430D01*
X157190019Y-115530431D01*
X157218371Y-115568305D01*
X157270954Y-115638546D01*
X157386169Y-115724796D01*
X157521017Y-115775091D01*
X157580627Y-115781500D01*
X159819372Y-115781499D01*
X159878983Y-115775091D01*
X160013831Y-115724796D01*
X160129046Y-115638546D01*
X160215296Y-115523331D01*
X160265591Y-115388483D01*
X160272000Y-115328873D01*
X160272000Y-115324500D01*
X160272070Y-115324237D01*
X160272178Y-115322232D01*
X160272601Y-115322254D01*
X160288613Y-115262500D01*
X160334000Y-115217113D01*
X160396000Y-115200500D01*
X161158233Y-115200500D01*
X161165194Y-115200500D01*
X161202523Y-115191979D01*
X161216197Y-115189655D01*
X161254255Y-115185368D01*
X161290403Y-115172718D01*
X161303726Y-115168881D01*
X161341061Y-115160360D01*
X161375546Y-115143752D01*
X161388398Y-115138429D01*
X161408812Y-115131286D01*
X161424522Y-115125789D01*
X161456939Y-115105418D01*
X161469086Y-115098705D01*
X161503587Y-115082091D01*
X161533519Y-115058220D01*
X161544853Y-115050179D01*
X161577262Y-115029816D01*
X161704816Y-114902262D01*
X161704816Y-114902261D01*
X162370258Y-114236819D01*
X162410487Y-114209939D01*
X162457940Y-114200500D01*
X162496247Y-114200500D01*
X162501976Y-114200500D01*
X162702456Y-114163024D01*
X162892637Y-114089348D01*
X162895876Y-114087342D01*
X162963101Y-114075093D01*
X163027064Y-114100895D01*
X163067348Y-114156879D01*
X163071489Y-114225726D01*
X163038206Y-114286135D01*
X161997290Y-115327051D01*
X161991838Y-115332184D01*
X161952431Y-115367096D01*
X161952425Y-115367102D01*
X161946817Y-115372071D01*
X161942560Y-115378236D01*
X161942551Y-115378248D01*
X161912649Y-115421568D01*
X161908213Y-115427597D01*
X161875749Y-115469035D01*
X161875743Y-115469043D01*
X161871122Y-115474943D01*
X161868044Y-115481780D01*
X161868043Y-115481783D01*
X161866962Y-115484185D01*
X161855940Y-115503727D01*
X161854441Y-115505898D01*
X161854437Y-115505904D01*
X161850182Y-115512070D01*
X161847526Y-115519070D01*
X161847522Y-115519080D01*
X161828853Y-115568305D01*
X161825989Y-115575219D01*
X161804382Y-115623229D01*
X161804379Y-115623235D01*
X161801305Y-115630068D01*
X161799953Y-115637439D01*
X161799951Y-115637449D01*
X161799474Y-115640053D01*
X161793456Y-115661643D01*
X161792519Y-115664114D01*
X161792517Y-115664119D01*
X161789860Y-115671128D01*
X161788956Y-115678565D01*
X161788956Y-115678569D01*
X161782610Y-115730827D01*
X161781483Y-115738226D01*
X161771994Y-115790010D01*
X161771993Y-115790018D01*
X161770642Y-115797394D01*
X161771094Y-115804873D01*
X161771094Y-115804881D01*
X161774274Y-115857433D01*
X161774500Y-115864921D01*
X161774500Y-117858481D01*
X161765061Y-117905934D01*
X161738181Y-117946162D01*
X160221162Y-119463181D01*
X160180934Y-119490061D01*
X160133481Y-119499500D01*
X134216519Y-119499500D01*
X134169066Y-119490061D01*
X134128838Y-119463181D01*
X133211819Y-118546162D01*
X133184939Y-118505934D01*
X133175500Y-118458481D01*
X133175500Y-117085866D01*
X133193383Y-117021716D01*
X133241875Y-116976069D01*
X133306988Y-116962092D01*
X133369941Y-116983817D01*
X133412576Y-117034976D01*
X133425991Y-117064784D01*
X133428857Y-117071702D01*
X133434229Y-117085866D01*
X133450182Y-117127930D01*
X133454442Y-117134102D01*
X133454445Y-117134107D01*
X133455937Y-117136268D01*
X133466959Y-117155810D01*
X133468039Y-117158210D01*
X133468044Y-117158219D01*
X133471122Y-117165057D01*
X133475745Y-117170958D01*
X133475747Y-117170961D01*
X133508216Y-117212404D01*
X133512636Y-117218410D01*
X133546817Y-117267929D01*
X133591847Y-117307822D01*
X133597282Y-117312939D01*
X134362059Y-118077716D01*
X134367193Y-118083170D01*
X134402093Y-118122565D01*
X134402097Y-118122568D01*
X134407071Y-118128183D01*
X134413247Y-118132446D01*
X134456574Y-118162353D01*
X134462601Y-118166788D01*
X134509944Y-118203878D01*
X134519180Y-118208034D01*
X134538727Y-118219059D01*
X134547070Y-118224818D01*
X134593974Y-118242606D01*
X134603298Y-118246142D01*
X134610220Y-118249009D01*
X134665069Y-118273695D01*
X134675041Y-118275522D01*
X134696656Y-118281547D01*
X134706128Y-118285140D01*
X134763831Y-118292146D01*
X134765815Y-118292387D01*
X134773222Y-118293514D01*
X134832394Y-118304358D01*
X134892433Y-118300725D01*
X134899921Y-118300500D01*
X141850079Y-118300500D01*
X141857566Y-118300725D01*
X141917606Y-118304358D01*
X141976782Y-118293513D01*
X141984181Y-118292387D01*
X142043872Y-118285140D01*
X142053332Y-118281551D01*
X142074959Y-118275522D01*
X142084932Y-118273695D01*
X142139808Y-118248996D01*
X142146673Y-118246152D01*
X142202930Y-118224818D01*
X142211264Y-118219064D01*
X142230821Y-118208034D01*
X142240057Y-118203878D01*
X142287413Y-118166775D01*
X142293420Y-118162355D01*
X142342929Y-118128183D01*
X142382822Y-118083151D01*
X142387924Y-118077731D01*
X149140078Y-111325578D01*
X157128000Y-111325578D01*
X157128001Y-111328872D01*
X157128353Y-111332150D01*
X157128354Y-111332161D01*
X157133579Y-111380768D01*
X157133580Y-111380773D01*
X157134409Y-111388483D01*
X157137119Y-111395749D01*
X157137120Y-111395753D01*
X157167733Y-111477830D01*
X157184704Y-111523331D01*
X157190018Y-111530430D01*
X157190019Y-111530431D01*
X157225193Y-111577418D01*
X157270954Y-111638546D01*
X157386169Y-111724796D01*
X157521017Y-111775091D01*
X157580627Y-111781500D01*
X159819372Y-111781499D01*
X159878983Y-111775091D01*
X160013831Y-111724796D01*
X160129046Y-111638546D01*
X160215296Y-111523331D01*
X160265591Y-111388483D01*
X160272000Y-111328873D01*
X160272000Y-111324500D01*
X160272070Y-111324237D01*
X160272178Y-111322232D01*
X160272601Y-111322254D01*
X160288613Y-111262500D01*
X160334000Y-111217113D01*
X160396000Y-111200500D01*
X160996541Y-111200500D01*
X161041335Y-111208873D01*
X161080078Y-111232862D01*
X161133959Y-111281981D01*
X161307363Y-111389348D01*
X161497544Y-111463024D01*
X161698024Y-111500500D01*
X161896247Y-111500500D01*
X161901976Y-111500500D01*
X162102456Y-111463024D01*
X162292637Y-111389348D01*
X162466041Y-111281981D01*
X162616764Y-111144579D01*
X162739673Y-110981821D01*
X162830582Y-110799250D01*
X162886397Y-110603083D01*
X162905215Y-110400000D01*
X162886397Y-110196917D01*
X162830582Y-110000750D01*
X162739673Y-109818179D01*
X162669270Y-109724950D01*
X162620221Y-109659998D01*
X162620217Y-109659994D01*
X162616764Y-109655421D01*
X162612527Y-109651558D01*
X162612523Y-109651554D01*
X162487411Y-109537500D01*
X162466041Y-109518019D01*
X162461171Y-109515004D01*
X162461169Y-109515002D01*
X162306494Y-109419232D01*
X162292637Y-109410652D01*
X162276101Y-109404246D01*
X162107803Y-109339047D01*
X162107798Y-109339045D01*
X162102456Y-109336976D01*
X162096818Y-109335922D01*
X161907605Y-109300552D01*
X161907602Y-109300551D01*
X161901976Y-109299500D01*
X161698024Y-109299500D01*
X161692398Y-109300551D01*
X161692394Y-109300552D01*
X161503181Y-109335922D01*
X161503178Y-109335922D01*
X161497544Y-109336976D01*
X161492203Y-109339044D01*
X161492196Y-109339047D01*
X161312705Y-109408582D01*
X161312700Y-109408584D01*
X161307363Y-109410652D01*
X161302491Y-109413668D01*
X161302488Y-109413670D01*
X161138830Y-109515002D01*
X161138822Y-109515007D01*
X161133959Y-109518019D01*
X161129728Y-109521875D01*
X161129724Y-109521879D01*
X161080079Y-109567137D01*
X161041335Y-109591127D01*
X160996541Y-109599500D01*
X160395999Y-109599500D01*
X160333999Y-109582887D01*
X160288612Y-109537500D01*
X160272599Y-109477739D01*
X160272177Y-109477762D01*
X160272070Y-109475765D01*
X160271999Y-109475500D01*
X160271999Y-109474439D01*
X160271999Y-109471128D01*
X160265591Y-109411517D01*
X160215296Y-109276669D01*
X160129046Y-109161454D01*
X160088900Y-109131401D01*
X160020931Y-109080519D01*
X160020930Y-109080518D01*
X160013831Y-109075204D01*
X159878983Y-109024909D01*
X159871270Y-109024079D01*
X159871267Y-109024079D01*
X159822680Y-109018855D01*
X159822669Y-109018854D01*
X159819373Y-109018500D01*
X159816050Y-109018500D01*
X157583939Y-109018500D01*
X157583920Y-109018500D01*
X157580628Y-109018501D01*
X157577350Y-109018853D01*
X157577338Y-109018854D01*
X157528731Y-109024079D01*
X157528725Y-109024080D01*
X157521017Y-109024909D01*
X157513752Y-109027618D01*
X157513746Y-109027620D01*
X157394480Y-109072104D01*
X157394478Y-109072104D01*
X157386169Y-109075204D01*
X157379072Y-109080516D01*
X157379068Y-109080519D01*
X157278050Y-109156141D01*
X157278046Y-109156144D01*
X157270954Y-109161454D01*
X157265644Y-109168546D01*
X157265641Y-109168550D01*
X157190019Y-109269568D01*
X157190016Y-109269572D01*
X157184704Y-109276669D01*
X157181604Y-109284978D01*
X157181604Y-109284980D01*
X157137120Y-109404247D01*
X157137119Y-109404250D01*
X157134409Y-109411517D01*
X157133579Y-109419227D01*
X157133579Y-109419232D01*
X157128355Y-109467819D01*
X157128354Y-109467831D01*
X157128000Y-109471127D01*
X157128000Y-109474448D01*
X157128000Y-109474449D01*
X157128000Y-111325560D01*
X157128000Y-111325578D01*
X149140078Y-111325578D01*
X155328837Y-105136819D01*
X155369066Y-105109939D01*
X155416519Y-105100500D01*
X157073347Y-105100500D01*
X157134707Y-105116746D01*
X157179989Y-105161227D01*
X157197327Y-105222288D01*
X157184024Y-105276415D01*
X157184704Y-105276669D01*
X157182529Y-105282499D01*
X157182527Y-105282503D01*
X157181605Y-105284975D01*
X157181604Y-105284979D01*
X157137120Y-105404247D01*
X157137119Y-105404250D01*
X157134409Y-105411517D01*
X157133579Y-105419227D01*
X157133579Y-105419232D01*
X157128355Y-105467819D01*
X157128354Y-105467831D01*
X157128000Y-105471127D01*
X157128000Y-105474448D01*
X157128000Y-105474449D01*
X157128000Y-107325560D01*
X157128000Y-107325578D01*
X157128001Y-107328872D01*
X157128353Y-107332150D01*
X157128354Y-107332161D01*
X157133579Y-107380768D01*
X157133580Y-107380773D01*
X157134409Y-107388483D01*
X157137119Y-107395749D01*
X157137120Y-107395753D01*
X157170717Y-107485831D01*
X157184704Y-107523331D01*
X157270954Y-107638546D01*
X157386169Y-107724796D01*
X157521017Y-107775091D01*
X157580627Y-107781500D01*
X159819372Y-107781499D01*
X159878983Y-107775091D01*
X160013831Y-107724796D01*
X160129046Y-107638546D01*
X160215296Y-107523331D01*
X160265591Y-107388483D01*
X160272000Y-107328873D01*
X160272000Y-107324500D01*
X160272070Y-107324237D01*
X160272178Y-107322232D01*
X160272601Y-107322254D01*
X160288613Y-107262500D01*
X160334000Y-107217113D01*
X160396000Y-107200500D01*
X160991997Y-107200500D01*
X161047269Y-107213500D01*
X161090951Y-107249773D01*
X161113367Y-107300540D01*
X161113603Y-107303083D01*
X161115172Y-107308598D01*
X161115173Y-107308602D01*
X161167847Y-107493731D01*
X161167849Y-107493737D01*
X161169418Y-107499250D01*
X161260327Y-107681821D01*
X161263779Y-107686392D01*
X161379778Y-107840001D01*
X161379783Y-107840006D01*
X161383236Y-107844579D01*
X161387472Y-107848440D01*
X161387476Y-107848445D01*
X161489227Y-107941203D01*
X161533959Y-107981981D01*
X161707363Y-108089348D01*
X161897544Y-108163024D01*
X162098024Y-108200500D01*
X162296247Y-108200500D01*
X162301976Y-108200500D01*
X162502456Y-108163024D01*
X162692637Y-108089348D01*
X162866041Y-107981981D01*
X163016764Y-107844579D01*
X163139673Y-107681821D01*
X163230582Y-107499250D01*
X163286397Y-107303083D01*
X163305215Y-107100000D01*
X163286397Y-106896917D01*
X163264841Y-106821158D01*
X163232152Y-106706268D01*
X163230582Y-106700750D01*
X163139673Y-106518179D01*
X163072357Y-106429038D01*
X163020221Y-106359998D01*
X163020217Y-106359994D01*
X163016764Y-106355421D01*
X163012527Y-106351558D01*
X163012523Y-106351554D01*
X162870275Y-106221879D01*
X162870276Y-106221879D01*
X162866041Y-106218019D01*
X162861171Y-106215004D01*
X162861169Y-106215002D01*
X162697511Y-106113670D01*
X162697512Y-106113670D01*
X162692637Y-106110652D01*
X162687294Y-106108582D01*
X162507803Y-106039047D01*
X162507798Y-106039045D01*
X162502456Y-106036976D01*
X162496818Y-106035922D01*
X162307605Y-106000552D01*
X162307602Y-106000551D01*
X162301976Y-105999500D01*
X162296247Y-105999500D01*
X162282940Y-105999500D01*
X162235487Y-105990061D01*
X162195259Y-105963181D01*
X162007190Y-105775112D01*
X162007190Y-105775111D01*
X162002262Y-105770184D01*
X161974164Y-105752529D01*
X161969850Y-105749818D01*
X161958509Y-105741771D01*
X161937417Y-105724951D01*
X161928587Y-105717909D01*
X161922318Y-105714890D01*
X161922315Y-105714888D01*
X161894093Y-105701296D01*
X161881927Y-105694572D01*
X161855414Y-105677913D01*
X161855412Y-105677912D01*
X161849522Y-105674211D01*
X161813393Y-105661568D01*
X161800554Y-105656250D01*
X161772336Y-105642661D01*
X161772329Y-105642658D01*
X161766061Y-105639640D01*
X161759276Y-105638091D01*
X161759267Y-105638088D01*
X161728735Y-105631119D01*
X161715382Y-105627273D01*
X161679255Y-105614632D01*
X161672338Y-105613852D01*
X161672336Y-105613852D01*
X161641218Y-105610345D01*
X161627518Y-105608017D01*
X161596988Y-105601050D01*
X161596983Y-105601049D01*
X161590194Y-105599500D01*
X161583228Y-105599500D01*
X160395999Y-105599500D01*
X160333999Y-105582887D01*
X160288612Y-105537500D01*
X160272599Y-105477739D01*
X160272177Y-105477762D01*
X160272070Y-105475765D01*
X160271999Y-105475500D01*
X160271999Y-105474439D01*
X160271999Y-105471128D01*
X160265591Y-105411517D01*
X160215296Y-105276669D01*
X160215975Y-105276415D01*
X160202673Y-105222288D01*
X160220011Y-105161227D01*
X160265293Y-105116746D01*
X160326653Y-105100500D01*
X161191845Y-105100500D01*
X161230163Y-105106569D01*
X161264726Y-105124179D01*
X161347270Y-105184151D01*
X161520197Y-105261144D01*
X161705354Y-105300500D01*
X161888143Y-105300500D01*
X161894646Y-105300500D01*
X162079803Y-105261144D01*
X162252730Y-105184151D01*
X162405871Y-105072888D01*
X162532533Y-104932216D01*
X162627179Y-104768284D01*
X162685674Y-104588256D01*
X162705460Y-104400000D01*
X162685674Y-104211744D01*
X162627179Y-104031716D01*
X162532533Y-103867784D01*
X162446758Y-103772522D01*
X162410220Y-103731942D01*
X162410219Y-103731941D01*
X162405871Y-103727112D01*
X162400613Y-103723292D01*
X162400611Y-103723290D01*
X162257988Y-103619669D01*
X162257987Y-103619668D01*
X162252730Y-103615849D01*
X162246792Y-103613205D01*
X162085745Y-103541501D01*
X162085740Y-103541499D01*
X162079803Y-103538856D01*
X162073444Y-103537504D01*
X162073440Y-103537503D01*
X161901008Y-103500852D01*
X161901005Y-103500851D01*
X161894646Y-103499500D01*
X161705354Y-103499500D01*
X161698995Y-103500851D01*
X161698991Y-103500852D01*
X161526559Y-103537503D01*
X161526552Y-103537505D01*
X161520197Y-103538856D01*
X161514262Y-103541498D01*
X161514254Y-103541501D01*
X161353207Y-103613205D01*
X161353202Y-103613207D01*
X161347270Y-103615849D01*
X161264726Y-103675820D01*
X161230163Y-103693431D01*
X161191845Y-103699500D01*
X160326653Y-103699500D01*
X160265293Y-103683254D01*
X160220011Y-103638773D01*
X160202673Y-103577712D01*
X160215975Y-103523584D01*
X160215296Y-103523331D01*
X160215295Y-103523331D01*
X160265591Y-103388483D01*
X160272000Y-103328873D01*
X160272000Y-103324500D01*
X160272070Y-103324237D01*
X160272178Y-103322232D01*
X160272601Y-103322254D01*
X160288613Y-103262500D01*
X160334000Y-103217113D01*
X160396000Y-103200500D01*
X162158233Y-103200500D01*
X162165194Y-103200500D01*
X162202523Y-103191979D01*
X162216197Y-103189655D01*
X162254255Y-103185368D01*
X162290403Y-103172718D01*
X162303726Y-103168881D01*
X162341061Y-103160360D01*
X162375546Y-103143752D01*
X162388398Y-103138429D01*
X162424522Y-103125789D01*
X162456939Y-103105418D01*
X162469086Y-103098705D01*
X162503587Y-103082091D01*
X162533519Y-103058220D01*
X162544853Y-103050179D01*
X162577262Y-103029816D01*
X162704816Y-102902262D01*
X163235994Y-102371082D01*
X163237245Y-102369850D01*
X163296892Y-102312040D01*
X163321716Y-102273868D01*
X163328697Y-102264191D01*
X163357091Y-102228587D01*
X163370551Y-102200634D01*
X163378321Y-102186829D01*
X163395240Y-102160818D01*
X163403691Y-102137826D01*
X163437090Y-102088467D01*
X163489660Y-102060391D01*
X163549257Y-102060084D01*
X163602113Y-102087616D01*
X163636020Y-102136628D01*
X163638415Y-102142943D01*
X163640210Y-102150225D01*
X163641905Y-102153455D01*
X163649500Y-102194895D01*
X163649500Y-102794560D01*
X163649500Y-102794578D01*
X163649501Y-102797872D01*
X163649853Y-102801150D01*
X163649854Y-102801161D01*
X163655079Y-102849768D01*
X163655080Y-102849773D01*
X163655909Y-102857483D01*
X163658619Y-102864749D01*
X163658620Y-102864753D01*
X163672610Y-102902262D01*
X163706204Y-102992331D01*
X163711518Y-102999430D01*
X163711519Y-102999431D01*
X163775657Y-103085109D01*
X163792454Y-103107546D01*
X163907669Y-103193796D01*
X164042517Y-103244091D01*
X164102127Y-103250500D01*
X165897872Y-103250499D01*
X165957483Y-103244091D01*
X166092331Y-103193796D01*
X166207546Y-103107546D01*
X166293796Y-102992331D01*
X166344091Y-102857483D01*
X166350500Y-102797873D01*
X166350499Y-101002128D01*
X166344091Y-100942517D01*
X166293796Y-100807669D01*
X166207546Y-100692454D01*
X166134357Y-100637665D01*
X166099431Y-100611519D01*
X166099430Y-100611518D01*
X166092331Y-100606204D01*
X166015168Y-100577424D01*
X165960916Y-100557189D01*
X165910537Y-100522210D01*
X165883084Y-100467365D01*
X165885273Y-100406072D01*
X165916566Y-100353329D01*
X166038495Y-100231401D01*
X166174035Y-100037830D01*
X166273903Y-99823663D01*
X166335063Y-99595408D01*
X166355659Y-99360000D01*
X166335063Y-99124592D01*
X166273903Y-98896337D01*
X166174035Y-98682171D01*
X166038495Y-98488599D01*
X165871401Y-98321505D01*
X165866968Y-98318401D01*
X165866961Y-98318395D01*
X165685842Y-98191575D01*
X165646976Y-98147257D01*
X165632965Y-98090000D01*
X165646976Y-98032743D01*
X165685842Y-97988425D01*
X165866961Y-97861604D01*
X165866961Y-97861603D01*
X165871401Y-97858495D01*
X166038495Y-97691401D01*
X166174035Y-97497830D01*
X166273903Y-97283663D01*
X166335063Y-97055408D01*
X166355659Y-96820000D01*
X166335063Y-96584592D01*
X166273903Y-96356337D01*
X166174035Y-96142171D01*
X166038495Y-95948599D01*
X165871401Y-95781505D01*
X165866970Y-95778402D01*
X165866966Y-95778399D01*
X165682259Y-95649066D01*
X165682257Y-95649064D01*
X165677830Y-95645965D01*
X165672933Y-95643681D01*
X165672927Y-95643678D01*
X165468572Y-95548386D01*
X165468570Y-95548385D01*
X165463663Y-95546097D01*
X165458438Y-95544697D01*
X165458430Y-95544694D01*
X165240634Y-95486337D01*
X165240630Y-95486336D01*
X165235408Y-95484937D01*
X165230020Y-95484465D01*
X165230017Y-95484465D01*
X165005395Y-95464813D01*
X165000000Y-95464341D01*
X164994605Y-95464813D01*
X164769982Y-95484465D01*
X164769977Y-95484465D01*
X164764592Y-95484937D01*
X164759371Y-95486335D01*
X164759365Y-95486337D01*
X164541569Y-95544694D01*
X164541557Y-95544698D01*
X164536337Y-95546097D01*
X164531432Y-95548383D01*
X164531427Y-95548386D01*
X164327081Y-95643675D01*
X164327077Y-95643677D01*
X164322171Y-95645965D01*
X164317738Y-95649068D01*
X164317731Y-95649073D01*
X164133034Y-95778399D01*
X164133029Y-95778402D01*
X164128599Y-95781505D01*
X164124775Y-95785328D01*
X164124769Y-95785334D01*
X163965334Y-95944769D01*
X163965328Y-95944775D01*
X163961505Y-95948599D01*
X163958402Y-95953029D01*
X163958399Y-95953034D01*
X163829073Y-96137731D01*
X163829068Y-96137738D01*
X163825965Y-96142171D01*
X163823677Y-96147077D01*
X163823675Y-96147081D01*
X163728386Y-96351427D01*
X163728383Y-96351432D01*
X163726097Y-96356337D01*
X163724698Y-96361557D01*
X163724694Y-96361569D01*
X163666337Y-96579365D01*
X163666335Y-96579371D01*
X163664937Y-96584592D01*
X163664465Y-96589977D01*
X163664465Y-96589982D01*
X163656288Y-96683445D01*
X163644341Y-96820000D01*
X163644813Y-96825395D01*
X163662268Y-97024909D01*
X163664937Y-97055408D01*
X163666336Y-97060630D01*
X163666337Y-97060634D01*
X163724694Y-97278430D01*
X163724697Y-97278438D01*
X163726097Y-97283663D01*
X163728385Y-97288570D01*
X163728386Y-97288572D01*
X163823678Y-97492927D01*
X163823681Y-97492933D01*
X163825965Y-97497830D01*
X163829064Y-97502257D01*
X163829066Y-97502259D01*
X163958399Y-97686966D01*
X163958402Y-97686970D01*
X163961505Y-97691401D01*
X164128599Y-97858495D01*
X164133032Y-97861599D01*
X164133038Y-97861604D01*
X164314158Y-97988425D01*
X164353024Y-98032743D01*
X164367035Y-98090000D01*
X164353024Y-98147257D01*
X164314159Y-98191575D01*
X164133041Y-98318395D01*
X164128599Y-98321505D01*
X164124775Y-98325328D01*
X164124769Y-98325334D01*
X163965334Y-98484769D01*
X163965328Y-98484775D01*
X163961505Y-98488599D01*
X163958402Y-98493029D01*
X163958399Y-98493034D01*
X163829073Y-98677731D01*
X163829068Y-98677738D01*
X163825965Y-98682171D01*
X163823677Y-98687077D01*
X163823675Y-98687081D01*
X163728386Y-98891427D01*
X163728383Y-98891432D01*
X163726097Y-98896337D01*
X163724698Y-98901557D01*
X163724694Y-98901569D01*
X163666337Y-99119365D01*
X163666335Y-99119371D01*
X163664937Y-99124592D01*
X163664465Y-99129977D01*
X163664465Y-99129982D01*
X163656842Y-99217113D01*
X163644341Y-99360000D01*
X163644813Y-99365395D01*
X163664937Y-99595408D01*
X163663252Y-99595555D01*
X163656924Y-99655759D01*
X163614839Y-99709626D01*
X163550603Y-99733005D01*
X163483739Y-99718792D01*
X163441079Y-99677595D01*
X163439602Y-99678669D01*
X163435781Y-99673409D01*
X163432533Y-99667784D01*
X163342084Y-99567331D01*
X163310220Y-99531942D01*
X163310219Y-99531941D01*
X163305871Y-99527112D01*
X163300613Y-99523292D01*
X163300611Y-99523290D01*
X163157988Y-99419669D01*
X163157987Y-99419668D01*
X163152730Y-99415849D01*
X163146792Y-99413205D01*
X162985745Y-99341501D01*
X162985740Y-99341499D01*
X162979803Y-99338856D01*
X162973444Y-99337504D01*
X162973440Y-99337503D01*
X162801008Y-99300852D01*
X162801005Y-99300851D01*
X162794646Y-99299500D01*
X162605354Y-99299500D01*
X162598995Y-99300851D01*
X162598991Y-99300852D01*
X162426559Y-99337503D01*
X162426552Y-99337505D01*
X162420197Y-99338856D01*
X162414262Y-99341498D01*
X162414254Y-99341501D01*
X162253207Y-99413205D01*
X162253202Y-99413207D01*
X162247270Y-99415849D01*
X162242016Y-99419665D01*
X162242011Y-99419669D01*
X162099388Y-99523290D01*
X162099381Y-99523295D01*
X162094129Y-99527112D01*
X162089784Y-99531937D01*
X162089779Y-99531942D01*
X161971813Y-99662956D01*
X161971808Y-99662962D01*
X161967467Y-99667784D01*
X161964222Y-99673404D01*
X161964218Y-99673410D01*
X161876069Y-99826089D01*
X161876066Y-99826094D01*
X161872821Y-99831716D01*
X161870815Y-99837888D01*
X161870813Y-99837894D01*
X161816333Y-100005564D01*
X161816331Y-100005573D01*
X161814326Y-100011744D01*
X161813648Y-100018194D01*
X161813646Y-100018204D01*
X161803596Y-100113835D01*
X161794540Y-100200000D01*
X161795219Y-100206460D01*
X161813646Y-100381795D01*
X161813647Y-100381803D01*
X161814326Y-100388256D01*
X161816331Y-100394428D01*
X161816333Y-100394435D01*
X161861693Y-100534035D01*
X161872821Y-100568284D01*
X161876071Y-100573914D01*
X161878713Y-100579847D01*
X161877673Y-100580309D01*
X161892562Y-100637665D01*
X161880447Y-101413032D01*
X161870649Y-101459440D01*
X161844145Y-101498775D01*
X161779742Y-101563180D01*
X161739513Y-101590061D01*
X161692059Y-101599500D01*
X160395999Y-101599500D01*
X160333999Y-101582887D01*
X160288612Y-101537500D01*
X160272599Y-101477739D01*
X160272177Y-101477762D01*
X160272070Y-101475765D01*
X160271999Y-101475500D01*
X160271999Y-101474439D01*
X160271999Y-101471128D01*
X160265591Y-101411517D01*
X160215296Y-101276669D01*
X160129046Y-101161454D01*
X160013831Y-101075204D01*
X159878983Y-101024909D01*
X159871270Y-101024079D01*
X159871267Y-101024079D01*
X159822680Y-101018855D01*
X159822669Y-101018854D01*
X159819373Y-101018500D01*
X159816050Y-101018500D01*
X157583939Y-101018500D01*
X157583920Y-101018500D01*
X157580628Y-101018501D01*
X157577350Y-101018853D01*
X157577338Y-101018854D01*
X157528731Y-101024079D01*
X157528725Y-101024080D01*
X157521017Y-101024909D01*
X157513752Y-101027618D01*
X157513746Y-101027620D01*
X157394480Y-101072104D01*
X157394478Y-101072104D01*
X157386169Y-101075204D01*
X157379072Y-101080516D01*
X157379068Y-101080519D01*
X157278050Y-101156141D01*
X157278046Y-101156144D01*
X157270954Y-101161454D01*
X157265644Y-101168546D01*
X157265641Y-101168550D01*
X157190019Y-101269568D01*
X157190016Y-101269572D01*
X157184704Y-101276669D01*
X157181604Y-101284978D01*
X157181604Y-101284980D01*
X157137120Y-101404247D01*
X157137119Y-101404250D01*
X157134409Y-101411517D01*
X157133579Y-101419227D01*
X157133579Y-101419232D01*
X157128355Y-101467819D01*
X157128354Y-101467831D01*
X157128000Y-101471127D01*
X157128000Y-101474448D01*
X157128000Y-101474449D01*
X157128000Y-103325560D01*
X157128000Y-103325578D01*
X157128001Y-103328872D01*
X157128353Y-103332150D01*
X157128354Y-103332161D01*
X157133579Y-103380768D01*
X157133580Y-103380773D01*
X157134409Y-103388483D01*
X157137119Y-103395749D01*
X157137120Y-103395753D01*
X157176320Y-103500852D01*
X157182528Y-103517498D01*
X157182529Y-103517500D01*
X157184704Y-103523331D01*
X157184024Y-103523584D01*
X157197327Y-103577712D01*
X157179989Y-103638773D01*
X157134707Y-103683254D01*
X157073347Y-103699500D01*
X155099921Y-103699500D01*
X155092433Y-103699274D01*
X155039881Y-103696094D01*
X155039873Y-103696094D01*
X155032394Y-103695642D01*
X155025018Y-103696993D01*
X155025010Y-103696994D01*
X154973226Y-103706483D01*
X154965827Y-103707610D01*
X154913569Y-103713956D01*
X154913565Y-103713956D01*
X154906128Y-103714860D01*
X154899119Y-103717517D01*
X154899114Y-103717519D01*
X154896643Y-103718456D01*
X154875053Y-103724474D01*
X154872449Y-103724951D01*
X154872439Y-103724953D01*
X154865068Y-103726305D01*
X154858235Y-103729379D01*
X154858229Y-103729382D01*
X154810219Y-103750989D01*
X154803305Y-103753853D01*
X154754080Y-103772522D01*
X154754070Y-103772526D01*
X154747070Y-103775182D01*
X154740904Y-103779437D01*
X154740898Y-103779441D01*
X154738727Y-103780940D01*
X154719185Y-103791962D01*
X154716783Y-103793043D01*
X154716780Y-103793044D01*
X154709943Y-103796122D01*
X154704043Y-103800743D01*
X154704035Y-103800749D01*
X154662597Y-103833213D01*
X154656568Y-103837649D01*
X154613248Y-103867551D01*
X154613236Y-103867560D01*
X154607071Y-103871817D01*
X154602102Y-103877425D01*
X154602096Y-103877431D01*
X154567184Y-103916838D01*
X154562051Y-103922290D01*
X141621162Y-116863181D01*
X141580934Y-116890061D01*
X141533481Y-116899500D01*
X135216519Y-116899500D01*
X135169066Y-116890061D01*
X135128838Y-116863181D01*
X134811819Y-116546162D01*
X134784939Y-116505934D01*
X134775500Y-116458481D01*
X134775500Y-113741519D01*
X134784939Y-113694066D01*
X134811819Y-113653838D01*
X135328837Y-113136819D01*
X135369065Y-113109939D01*
X135416518Y-113100500D01*
X137673347Y-113100500D01*
X137734707Y-113116746D01*
X137779989Y-113161227D01*
X137797327Y-113222288D01*
X137784024Y-113276415D01*
X137784704Y-113276669D01*
X137782529Y-113282499D01*
X137782527Y-113282503D01*
X137781605Y-113284975D01*
X137781604Y-113284979D01*
X137737120Y-113404247D01*
X137737119Y-113404250D01*
X137734409Y-113411517D01*
X137733579Y-113419227D01*
X137733579Y-113419232D01*
X137728355Y-113467819D01*
X137728354Y-113467831D01*
X137728000Y-113471127D01*
X137728000Y-113474448D01*
X137728000Y-113474449D01*
X137728000Y-115325560D01*
X137728000Y-115325578D01*
X137728001Y-115328872D01*
X137728353Y-115332150D01*
X137728354Y-115332161D01*
X137733579Y-115380768D01*
X137733580Y-115380773D01*
X137734409Y-115388483D01*
X137737119Y-115395749D01*
X137737120Y-115395753D01*
X137770717Y-115485831D01*
X137784704Y-115523331D01*
X137790018Y-115530430D01*
X137790019Y-115530431D01*
X137818371Y-115568305D01*
X137870954Y-115638546D01*
X137986169Y-115724796D01*
X138121017Y-115775091D01*
X138180627Y-115781500D01*
X140419372Y-115781499D01*
X140478983Y-115775091D01*
X140613831Y-115724796D01*
X140729046Y-115638546D01*
X140815296Y-115523331D01*
X140831022Y-115481166D01*
X140857461Y-115438931D01*
X140898391Y-115410512D01*
X140947204Y-115400500D01*
X142060722Y-115400500D01*
X142063862Y-115400539D01*
X142151363Y-115402757D01*
X142209458Y-115392344D01*
X142218739Y-115391042D01*
X142277438Y-115385074D01*
X142306464Y-115375966D01*
X142321713Y-115372224D01*
X142322567Y-115372071D01*
X142351653Y-115366858D01*
X142406423Y-115344980D01*
X142415303Y-115341818D01*
X142471588Y-115324159D01*
X142498194Y-115309390D01*
X142512362Y-115302662D01*
X142540617Y-115291377D01*
X142589891Y-115258902D01*
X142597910Y-115254043D01*
X142649502Y-115225409D01*
X142660961Y-115215570D01*
X142672583Y-115205594D01*
X142685125Y-115196137D01*
X142691430Y-115191982D01*
X142710519Y-115179402D01*
X142752238Y-115137681D01*
X142759122Y-115131301D01*
X142803895Y-115092866D01*
X142822520Y-115068802D01*
X142832879Y-115057040D01*
X145772409Y-112117510D01*
X145774579Y-112115394D01*
X145838053Y-112055059D01*
X145863547Y-112018431D01*
X145871748Y-112006648D01*
X145877422Y-111999123D01*
X145910721Y-111958285D01*
X145910723Y-111958281D01*
X145914698Y-111953407D01*
X145928782Y-111926444D01*
X145936919Y-111913013D01*
X145950704Y-111893208D01*
X145950703Y-111893208D01*
X145954295Y-111888049D01*
X145977568Y-111833815D01*
X145981598Y-111825331D01*
X146005994Y-111778629D01*
X146008909Y-111773049D01*
X146017278Y-111743797D01*
X146022538Y-111729023D01*
X146034540Y-111701058D01*
X146046416Y-111643262D01*
X146048649Y-111634162D01*
X146064887Y-111577418D01*
X146067197Y-111547077D01*
X146069378Y-111531528D01*
X146075500Y-111501741D01*
X146075500Y-111442758D01*
X146075858Y-111433343D01*
X146076051Y-111430801D01*
X146080337Y-111374523D01*
X146076493Y-111344347D01*
X146075500Y-111328682D01*
X146075500Y-100661762D01*
X146075540Y-100658621D01*
X146076071Y-100637665D01*
X146077757Y-100571137D01*
X146067349Y-100513073D01*
X146066041Y-100503742D01*
X146060074Y-100445062D01*
X146050964Y-100416028D01*
X146047227Y-100400805D01*
X146041858Y-100370847D01*
X146039524Y-100365003D01*
X146019976Y-100316065D01*
X146016816Y-100307189D01*
X146014532Y-100299912D01*
X145999159Y-100250912D01*
X145988329Y-100231401D01*
X145984396Y-100224314D01*
X145977660Y-100210131D01*
X145976194Y-100206460D01*
X145966377Y-100181883D01*
X145933917Y-100132631D01*
X145929036Y-100124573D01*
X145903463Y-100078500D01*
X145903462Y-100078499D01*
X145900409Y-100072998D01*
X145880591Y-100049913D01*
X145871140Y-100037379D01*
X145868206Y-100032927D01*
X145854402Y-100011981D01*
X145812692Y-99970271D01*
X145806287Y-99963360D01*
X145771960Y-99923374D01*
X145767866Y-99918605D01*
X145762896Y-99914758D01*
X145762891Y-99914753D01*
X145743805Y-99899979D01*
X145732026Y-99889605D01*
X141545067Y-95702647D01*
X141542874Y-95700398D01*
X141486890Y-95641503D01*
X141486889Y-95641502D01*
X141482559Y-95636947D01*
X141474660Y-95631449D01*
X141434142Y-95603247D01*
X141426619Y-95597575D01*
X141385780Y-95564275D01*
X141385777Y-95564273D01*
X141380907Y-95560302D01*
X141353937Y-95546213D01*
X141340524Y-95538087D01*
X141315549Y-95520705D01*
X141261317Y-95497432D01*
X141252851Y-95493411D01*
X141200549Y-95466091D01*
X141171302Y-95457722D01*
X141156521Y-95452459D01*
X141134341Y-95442941D01*
X141134335Y-95442939D01*
X141128558Y-95440460D01*
X141122405Y-95439195D01*
X141122391Y-95439191D01*
X141070773Y-95428583D01*
X141061626Y-95426338D01*
X141010965Y-95411842D01*
X141010953Y-95411839D01*
X141004918Y-95410113D01*
X140998655Y-95409636D01*
X140998650Y-95409635D01*
X140986579Y-95408716D01*
X140928637Y-95389181D01*
X140887075Y-95344332D01*
X140882303Y-95325578D01*
X157128000Y-95325578D01*
X157128001Y-95328872D01*
X157128353Y-95332150D01*
X157128354Y-95332161D01*
X157133579Y-95380768D01*
X157133580Y-95380773D01*
X157134409Y-95388483D01*
X157137119Y-95395749D01*
X157137120Y-95395753D01*
X157167263Y-95476569D01*
X157184704Y-95523331D01*
X157190018Y-95530430D01*
X157190019Y-95530431D01*
X157212380Y-95560302D01*
X157270954Y-95638546D01*
X157386169Y-95724796D01*
X157521017Y-95775091D01*
X157580627Y-95781500D01*
X159819372Y-95781499D01*
X159878983Y-95775091D01*
X160013831Y-95724796D01*
X160129046Y-95638546D01*
X160215296Y-95523331D01*
X160265591Y-95388483D01*
X160272000Y-95328873D01*
X160271999Y-93471128D01*
X160265591Y-93411517D01*
X160215296Y-93276669D01*
X160129046Y-93161454D01*
X160013831Y-93075204D01*
X159878983Y-93024909D01*
X159871270Y-93024079D01*
X159871267Y-93024079D01*
X159822680Y-93018855D01*
X159822669Y-93018854D01*
X159819373Y-93018500D01*
X159816050Y-93018500D01*
X157583939Y-93018500D01*
X157583920Y-93018500D01*
X157580628Y-93018501D01*
X157577350Y-93018853D01*
X157577338Y-93018854D01*
X157528731Y-93024079D01*
X157528725Y-93024080D01*
X157521017Y-93024909D01*
X157513752Y-93027618D01*
X157513746Y-93027620D01*
X157394480Y-93072104D01*
X157394478Y-93072104D01*
X157386169Y-93075204D01*
X157379072Y-93080516D01*
X157379068Y-93080519D01*
X157278050Y-93156141D01*
X157278046Y-93156144D01*
X157270954Y-93161454D01*
X157265644Y-93168546D01*
X157265641Y-93168550D01*
X157190019Y-93269568D01*
X157190016Y-93269572D01*
X157184704Y-93276669D01*
X157181604Y-93284978D01*
X157181604Y-93284980D01*
X157137120Y-93404247D01*
X157137119Y-93404250D01*
X157134409Y-93411517D01*
X157133579Y-93419227D01*
X157133579Y-93419232D01*
X157128355Y-93467819D01*
X157128354Y-93467831D01*
X157128000Y-93471127D01*
X157128000Y-93474448D01*
X157128000Y-93474449D01*
X157128000Y-95325560D01*
X157128000Y-95325578D01*
X140882303Y-95325578D01*
X140871999Y-95285077D01*
X140871999Y-93471128D01*
X140865591Y-93411517D01*
X140815296Y-93276669D01*
X140729046Y-93161454D01*
X140613831Y-93075204D01*
X140478983Y-93024909D01*
X140471270Y-93024079D01*
X140471267Y-93024079D01*
X140422680Y-93018855D01*
X140422669Y-93018854D01*
X140419373Y-93018500D01*
X140416050Y-93018500D01*
X138183939Y-93018500D01*
X138183920Y-93018500D01*
X138180628Y-93018501D01*
X138177350Y-93018853D01*
X138177338Y-93018854D01*
X138128731Y-93024079D01*
X138128725Y-93024080D01*
X138121017Y-93024909D01*
X138113752Y-93027618D01*
X138113746Y-93027620D01*
X137994480Y-93072104D01*
X137994478Y-93072104D01*
X137986169Y-93075204D01*
X137979072Y-93080516D01*
X137979068Y-93080519D01*
X137878050Y-93156141D01*
X137878046Y-93156144D01*
X137870954Y-93161454D01*
X137865644Y-93168546D01*
X137865641Y-93168550D01*
X137790019Y-93269568D01*
X137790016Y-93269572D01*
X137784704Y-93276669D01*
X137781604Y-93284978D01*
X137781604Y-93284980D01*
X137737120Y-93404247D01*
X137737119Y-93404250D01*
X137734409Y-93411517D01*
X137733579Y-93419227D01*
X137733579Y-93419232D01*
X137728355Y-93467819D01*
X137728354Y-93467831D01*
X137728000Y-93471127D01*
X137728000Y-94395186D01*
X137728001Y-95275500D01*
X137711388Y-95337500D01*
X137666001Y-95382887D01*
X137604001Y-95399500D01*
X137540783Y-95399500D01*
X137493330Y-95390061D01*
X137453102Y-95363181D01*
X136902566Y-94812646D01*
X136900373Y-94810397D01*
X136844390Y-94751503D01*
X136844389Y-94751502D01*
X136840059Y-94746947D01*
X136834897Y-94743354D01*
X136791642Y-94713247D01*
X136784119Y-94707575D01*
X136743280Y-94674275D01*
X136743277Y-94674273D01*
X136738407Y-94670302D01*
X136711437Y-94656213D01*
X136698024Y-94648087D01*
X136673049Y-94630705D01*
X136618817Y-94607432D01*
X136610351Y-94603411D01*
X136558049Y-94576091D01*
X136528802Y-94567722D01*
X136514021Y-94562459D01*
X136491841Y-94552941D01*
X136491835Y-94552939D01*
X136486058Y-94550460D01*
X136479905Y-94549195D01*
X136479891Y-94549191D01*
X136428273Y-94538583D01*
X136419125Y-94536338D01*
X136383889Y-94526256D01*
X136337230Y-94501126D01*
X136305325Y-94458811D01*
X136294000Y-94407040D01*
X136294000Y-91505500D01*
X136310613Y-91443500D01*
X136356000Y-91398113D01*
X136418000Y-91381500D01*
X137652796Y-91381500D01*
X137701609Y-91391512D01*
X137742539Y-91419931D01*
X137768977Y-91462166D01*
X137772006Y-91470285D01*
X137781080Y-91494616D01*
X137784704Y-91504331D01*
X137870954Y-91619546D01*
X137986169Y-91705796D01*
X138121017Y-91756091D01*
X138180627Y-91762500D01*
X140419372Y-91762499D01*
X140478983Y-91756091D01*
X140613831Y-91705796D01*
X140729046Y-91619546D01*
X140815296Y-91504331D01*
X140865591Y-91369483D01*
X140872000Y-91309873D01*
X140872000Y-91306578D01*
X157128000Y-91306578D01*
X157128001Y-91309872D01*
X157128353Y-91313150D01*
X157128354Y-91313161D01*
X157133579Y-91361768D01*
X157133580Y-91361773D01*
X157134409Y-91369483D01*
X157137119Y-91376749D01*
X157137120Y-91376753D01*
X157168978Y-91462167D01*
X157184704Y-91504331D01*
X157270954Y-91619546D01*
X157386169Y-91705796D01*
X157521017Y-91756091D01*
X157580627Y-91762500D01*
X159819372Y-91762499D01*
X159878983Y-91756091D01*
X160013831Y-91705796D01*
X160129046Y-91619546D01*
X160195190Y-91531188D01*
X160238953Y-91494616D01*
X160294457Y-91481500D01*
X160491765Y-91481500D01*
X160503406Y-91482472D01*
X160503420Y-91482288D01*
X160509305Y-91482708D01*
X160515134Y-91483689D01*
X160605613Y-91481535D01*
X160608565Y-91481500D01*
X160643479Y-91481500D01*
X160646425Y-91481500D01*
X160655080Y-91480673D01*
X160663900Y-91480147D01*
X160725245Y-91478687D01*
X160756653Y-91471853D01*
X160771214Y-91469583D01*
X160803218Y-91466528D01*
X160862094Y-91449239D01*
X160870651Y-91447055D01*
X160930612Y-91434013D01*
X160960161Y-91421358D01*
X160974035Y-91416370D01*
X161004875Y-91407316D01*
X161059418Y-91379196D01*
X161067411Y-91375431D01*
X161118378Y-91353606D01*
X161118378Y-91353605D01*
X161123812Y-91351279D01*
X161150423Y-91333266D01*
X161163108Y-91325740D01*
X161191682Y-91311011D01*
X161239913Y-91273079D01*
X161247064Y-91267859D01*
X161292965Y-91236793D01*
X161297865Y-91233477D01*
X161320592Y-91210748D01*
X161331612Y-91200966D01*
X161356886Y-91181092D01*
X161397080Y-91134704D01*
X161403085Y-91128255D01*
X161648630Y-90882710D01*
X161683904Y-90858012D01*
X161725502Y-90846866D01*
X161726478Y-90846780D01*
X161860408Y-90835063D01*
X162088663Y-90773903D01*
X162302829Y-90674035D01*
X162496401Y-90538495D01*
X162663495Y-90371401D01*
X162799035Y-90177830D01*
X162898903Y-89963663D01*
X162960063Y-89735408D01*
X162980659Y-89500000D01*
X162960063Y-89264592D01*
X162898903Y-89036337D01*
X162799035Y-88822171D01*
X162663495Y-88628599D01*
X162515734Y-88480838D01*
X162485153Y-88430441D01*
X162481300Y-88371618D01*
X162505046Y-88317662D01*
X162544879Y-88285698D01*
X162544334Y-88284814D01*
X162687511Y-88196502D01*
X162693656Y-88192712D01*
X162817712Y-88068656D01*
X162909814Y-87919334D01*
X162964999Y-87752797D01*
X162975500Y-87650009D01*
X162975499Y-86349992D01*
X162964999Y-86247203D01*
X162909814Y-86080666D01*
X162817712Y-85931344D01*
X162693656Y-85807288D01*
X162687515Y-85803500D01*
X162687511Y-85803497D01*
X162550480Y-85718977D01*
X162544334Y-85715186D01*
X162517228Y-85706204D01*
X162384225Y-85662131D01*
X162384224Y-85662130D01*
X162377797Y-85660001D01*
X162371064Y-85659313D01*
X162371059Y-85659312D01*
X162278140Y-85649819D01*
X162278123Y-85649818D01*
X162275009Y-85649500D01*
X162271860Y-85649500D01*
X161732285Y-85649500D01*
X161686194Y-85640616D01*
X161646708Y-85615236D01*
X161644960Y-85613569D01*
X161642856Y-85611514D01*
X161618187Y-85586845D01*
X161616101Y-85584759D01*
X161613827Y-85582881D01*
X161613820Y-85582875D01*
X161609382Y-85579210D01*
X161602776Y-85573347D01*
X161558378Y-85531014D01*
X161531342Y-85513638D01*
X161519441Y-85504948D01*
X161499205Y-85488240D01*
X161499198Y-85488235D01*
X161494645Y-85484476D01*
X161440788Y-85455067D01*
X161433179Y-85450553D01*
X161412090Y-85437000D01*
X161381572Y-85417387D01*
X161351730Y-85405440D01*
X161338399Y-85399159D01*
X161310183Y-85383752D01*
X161304559Y-85381954D01*
X161304554Y-85381952D01*
X161251733Y-85365067D01*
X161243405Y-85362073D01*
X161191937Y-85341468D01*
X161191929Y-85341465D01*
X161186457Y-85339275D01*
X161154895Y-85333191D01*
X161140614Y-85329546D01*
X161127710Y-85325421D01*
X161115618Y-85321556D01*
X161115614Y-85321555D01*
X161109992Y-85319758D01*
X161104127Y-85319056D01*
X161104124Y-85319056D01*
X161049063Y-85312472D01*
X161040323Y-85311109D01*
X160985878Y-85300616D01*
X160985873Y-85300615D01*
X160980085Y-85299500D01*
X160974182Y-85299500D01*
X160947939Y-85299500D01*
X160933219Y-85298623D01*
X160907177Y-85295509D01*
X160907170Y-85295508D01*
X160901309Y-85294808D01*
X160895420Y-85295229D01*
X160895415Y-85295229D01*
X160840119Y-85299184D01*
X160831274Y-85299500D01*
X160294457Y-85299500D01*
X160238953Y-85286384D01*
X160195190Y-85249811D01*
X160134358Y-85168550D01*
X160129046Y-85161454D01*
X160013831Y-85075204D01*
X159878983Y-85024909D01*
X159871270Y-85024079D01*
X159871267Y-85024079D01*
X159822680Y-85018855D01*
X159822669Y-85018854D01*
X159819373Y-85018500D01*
X159816050Y-85018500D01*
X157583939Y-85018500D01*
X157583920Y-85018500D01*
X157580628Y-85018501D01*
X157577350Y-85018853D01*
X157577338Y-85018854D01*
X157528731Y-85024079D01*
X157528725Y-85024080D01*
X157521017Y-85024909D01*
X157513752Y-85027618D01*
X157513746Y-85027620D01*
X157394480Y-85072104D01*
X157394478Y-85072104D01*
X157386169Y-85075204D01*
X157379072Y-85080516D01*
X157379068Y-85080519D01*
X157278050Y-85156141D01*
X157278046Y-85156144D01*
X157270954Y-85161454D01*
X157265644Y-85168546D01*
X157265641Y-85168550D01*
X157190019Y-85269568D01*
X157190016Y-85269572D01*
X157184704Y-85276669D01*
X157181604Y-85284978D01*
X157181604Y-85284980D01*
X157137120Y-85404247D01*
X157137119Y-85404250D01*
X157134409Y-85411517D01*
X157133579Y-85419227D01*
X157133579Y-85419232D01*
X157128355Y-85467819D01*
X157128354Y-85467831D01*
X157128000Y-85471127D01*
X157128000Y-85474448D01*
X157128000Y-85474449D01*
X157128000Y-87325560D01*
X157128000Y-87325578D01*
X157128001Y-87328872D01*
X157128353Y-87332150D01*
X157128354Y-87332161D01*
X157133579Y-87380768D01*
X157133580Y-87380773D01*
X157134409Y-87388483D01*
X157137119Y-87395749D01*
X157137120Y-87395753D01*
X157159763Y-87456461D01*
X157184704Y-87523331D01*
X157190018Y-87530430D01*
X157190019Y-87530431D01*
X157213154Y-87561336D01*
X157270954Y-87638546D01*
X157386169Y-87724796D01*
X157521017Y-87775091D01*
X157580627Y-87781500D01*
X159819372Y-87781499D01*
X159878983Y-87775091D01*
X159879028Y-87775516D01*
X159934002Y-87776346D01*
X159986970Y-87805930D01*
X160019564Y-87857102D01*
X160040186Y-87919334D01*
X160043977Y-87925480D01*
X160128497Y-88062511D01*
X160128500Y-88062515D01*
X160132288Y-88068656D01*
X160256344Y-88192712D01*
X160262485Y-88196500D01*
X160262488Y-88196502D01*
X160405666Y-88284814D01*
X160405120Y-88285697D01*
X160444957Y-88317667D01*
X160468700Y-88371621D01*
X160464845Y-88430443D01*
X160434266Y-88480837D01*
X160286505Y-88628599D01*
X160283406Y-88633023D01*
X160283399Y-88633033D01*
X160154066Y-88817740D01*
X160154061Y-88817747D01*
X160150965Y-88822170D01*
X160148681Y-88827066D01*
X160148678Y-88827073D01*
X160086087Y-88961299D01*
X160047489Y-89008553D01*
X159991027Y-89031678D01*
X159930372Y-89025076D01*
X159886252Y-89008620D01*
X159886250Y-89008619D01*
X159878983Y-89005909D01*
X159871270Y-89005079D01*
X159871267Y-89005079D01*
X159822680Y-88999855D01*
X159822669Y-88999854D01*
X159819373Y-88999500D01*
X159816050Y-88999500D01*
X157583939Y-88999500D01*
X157583920Y-88999500D01*
X157580628Y-88999501D01*
X157577350Y-88999853D01*
X157577338Y-88999854D01*
X157528731Y-89005079D01*
X157528725Y-89005080D01*
X157521017Y-89005909D01*
X157513752Y-89008618D01*
X157513746Y-89008620D01*
X157394480Y-89053104D01*
X157394478Y-89053104D01*
X157386169Y-89056204D01*
X157379072Y-89061516D01*
X157379068Y-89061519D01*
X157278050Y-89137141D01*
X157278046Y-89137144D01*
X157270954Y-89142454D01*
X157265644Y-89149546D01*
X157265641Y-89149550D01*
X157190019Y-89250568D01*
X157190016Y-89250572D01*
X157184704Y-89257669D01*
X157181604Y-89265978D01*
X157181604Y-89265980D01*
X157137120Y-89385247D01*
X157137119Y-89385250D01*
X157134409Y-89392517D01*
X157133579Y-89400227D01*
X157133579Y-89400232D01*
X157128355Y-89448819D01*
X157128354Y-89448831D01*
X157128000Y-89452127D01*
X157128000Y-89455448D01*
X157128000Y-89455449D01*
X157128000Y-91306560D01*
X157128000Y-91306578D01*
X140872000Y-91306578D01*
X140871999Y-89452128D01*
X140865591Y-89392517D01*
X140815296Y-89257669D01*
X140729046Y-89142454D01*
X140613831Y-89056204D01*
X140543465Y-89029959D01*
X140486252Y-89008620D01*
X140486250Y-89008619D01*
X140478983Y-89005909D01*
X140471270Y-89005079D01*
X140471267Y-89005079D01*
X140422680Y-88999855D01*
X140422669Y-88999854D01*
X140419373Y-88999500D01*
X140416050Y-88999500D01*
X138183939Y-88999500D01*
X138183920Y-88999500D01*
X138180628Y-88999501D01*
X138177350Y-88999853D01*
X138177338Y-88999854D01*
X138128731Y-89005079D01*
X138128725Y-89005080D01*
X138121017Y-89005909D01*
X138113752Y-89008618D01*
X138113746Y-89008620D01*
X137994480Y-89053104D01*
X137994478Y-89053104D01*
X137986169Y-89056204D01*
X137979072Y-89061516D01*
X137979068Y-89061519D01*
X137878050Y-89137141D01*
X137878046Y-89137144D01*
X137870954Y-89142454D01*
X137865644Y-89149546D01*
X137865641Y-89149550D01*
X137790019Y-89250568D01*
X137790016Y-89250572D01*
X137784704Y-89257669D01*
X137781605Y-89265975D01*
X137781604Y-89265979D01*
X137768978Y-89299833D01*
X137742539Y-89342069D01*
X137701609Y-89370488D01*
X137652796Y-89380500D01*
X135999499Y-89380500D01*
X135937499Y-89363887D01*
X135892112Y-89318500D01*
X135875499Y-89256500D01*
X135875499Y-89103141D01*
X135875499Y-89099992D01*
X135864999Y-88997203D01*
X135809814Y-88830666D01*
X135717712Y-88681344D01*
X135593656Y-88557288D01*
X135587515Y-88553500D01*
X135587511Y-88553497D01*
X135450480Y-88468977D01*
X135444334Y-88465186D01*
X135433225Y-88461505D01*
X135284225Y-88412131D01*
X135284224Y-88412130D01*
X135277797Y-88410001D01*
X135271064Y-88409313D01*
X135271059Y-88409312D01*
X135178140Y-88399819D01*
X135178123Y-88399818D01*
X135175009Y-88399500D01*
X135171860Y-88399500D01*
X133778140Y-88399500D01*
X133778120Y-88399500D01*
X133774992Y-88399501D01*
X133771860Y-88399820D01*
X133771858Y-88399821D01*
X133678938Y-88409312D01*
X133678928Y-88409313D01*
X133672203Y-88410001D01*
X133665781Y-88412128D01*
X133665776Y-88412130D01*
X133512521Y-88462914D01*
X133512517Y-88462915D01*
X133505666Y-88465186D01*
X133378633Y-88543539D01*
X133313539Y-88562000D01*
X131236461Y-88562000D01*
X131171366Y-88543539D01*
X131044334Y-88465186D01*
X131033225Y-88461505D01*
X130884225Y-88412131D01*
X130884224Y-88412130D01*
X130877797Y-88410001D01*
X130871064Y-88409313D01*
X130871059Y-88409312D01*
X130778140Y-88399819D01*
X130778123Y-88399818D01*
X130775009Y-88399500D01*
X130771860Y-88399500D01*
X129378140Y-88399500D01*
X129378120Y-88399500D01*
X129374992Y-88399501D01*
X129371860Y-88399820D01*
X129371858Y-88399821D01*
X129278938Y-88409312D01*
X129278928Y-88409313D01*
X129272203Y-88410001D01*
X129265781Y-88412128D01*
X129265776Y-88412130D01*
X129112521Y-88462914D01*
X129112517Y-88462915D01*
X129105666Y-88465186D01*
X129099522Y-88468975D01*
X129099519Y-88468977D01*
X128962488Y-88553497D01*
X128962480Y-88553503D01*
X128956344Y-88557288D01*
X128951242Y-88562389D01*
X128951238Y-88562393D01*
X128887181Y-88626451D01*
X128837818Y-88656701D01*
X128780102Y-88661243D01*
X128726615Y-88639088D01*
X128689015Y-88595065D01*
X128675500Y-88538770D01*
X128675500Y-88265783D01*
X128684939Y-88218330D01*
X128711819Y-88178102D01*
X128827410Y-88062511D01*
X129255688Y-87634231D01*
X129301807Y-87605086D01*
X129355973Y-87598557D01*
X129374991Y-87600500D01*
X130775008Y-87600499D01*
X130877797Y-87589999D01*
X131044334Y-87534814D01*
X131171366Y-87456460D01*
X131236461Y-87438000D01*
X133313539Y-87438000D01*
X133378633Y-87456460D01*
X133505666Y-87534814D01*
X133672203Y-87589999D01*
X133774991Y-87600500D01*
X135175008Y-87600499D01*
X135277797Y-87589999D01*
X135444334Y-87534814D01*
X135593656Y-87442712D01*
X135599548Y-87436819D01*
X135600894Y-87435919D01*
X135604428Y-87433126D01*
X135604651Y-87433409D01*
X135639777Y-87409939D01*
X135687230Y-87400500D01*
X137652796Y-87400500D01*
X137701609Y-87410512D01*
X137742539Y-87438931D01*
X137768977Y-87481166D01*
X137784704Y-87523331D01*
X137790018Y-87530430D01*
X137790019Y-87530431D01*
X137813154Y-87561336D01*
X137870954Y-87638546D01*
X137986169Y-87724796D01*
X138121017Y-87775091D01*
X138180627Y-87781500D01*
X140419372Y-87781499D01*
X140478983Y-87775091D01*
X140613831Y-87724796D01*
X140729046Y-87638546D01*
X140815296Y-87523331D01*
X140865591Y-87388483D01*
X140872000Y-87328873D01*
X140871999Y-85471128D01*
X140865591Y-85411517D01*
X140815296Y-85276669D01*
X140729046Y-85161454D01*
X140613831Y-85075204D01*
X140478983Y-85024909D01*
X140471270Y-85024079D01*
X140471267Y-85024079D01*
X140422680Y-85018855D01*
X140422669Y-85018854D01*
X140419373Y-85018500D01*
X140416050Y-85018500D01*
X138183939Y-85018500D01*
X138183920Y-85018500D01*
X138180628Y-85018501D01*
X138177350Y-85018853D01*
X138177338Y-85018854D01*
X138128731Y-85024079D01*
X138128725Y-85024080D01*
X138121017Y-85024909D01*
X138113752Y-85027618D01*
X138113746Y-85027620D01*
X137994480Y-85072104D01*
X137994478Y-85072104D01*
X137986169Y-85075204D01*
X137979072Y-85080516D01*
X137979068Y-85080519D01*
X137878050Y-85156141D01*
X137878046Y-85156144D01*
X137870954Y-85161454D01*
X137865644Y-85168546D01*
X137865641Y-85168550D01*
X137790019Y-85269568D01*
X137790016Y-85269572D01*
X137784704Y-85276669D01*
X137781605Y-85284975D01*
X137781604Y-85284979D01*
X137768978Y-85318833D01*
X137742539Y-85361069D01*
X137701609Y-85389488D01*
X137652796Y-85399500D01*
X135575664Y-85399500D01*
X135510568Y-85381039D01*
X135450481Y-85343977D01*
X135450477Y-85343975D01*
X135444334Y-85340186D01*
X135388112Y-85321556D01*
X135284225Y-85287131D01*
X135284224Y-85287130D01*
X135277797Y-85285001D01*
X135271064Y-85284313D01*
X135271059Y-85284312D01*
X135178140Y-85274819D01*
X135178123Y-85274818D01*
X135175009Y-85274500D01*
X135171860Y-85274500D01*
X133778140Y-85274500D01*
X133778120Y-85274500D01*
X133774992Y-85274501D01*
X133771860Y-85274820D01*
X133771858Y-85274821D01*
X133678938Y-85284312D01*
X133678928Y-85284313D01*
X133672203Y-85285001D01*
X133665781Y-85287128D01*
X133665776Y-85287130D01*
X133512521Y-85337914D01*
X133512517Y-85337915D01*
X133505666Y-85340186D01*
X133378633Y-85418539D01*
X133313539Y-85437000D01*
X131236461Y-85437000D01*
X131171366Y-85418539D01*
X131044334Y-85340186D01*
X130988112Y-85321556D01*
X130884225Y-85287131D01*
X130884224Y-85287130D01*
X130877797Y-85285001D01*
X130871064Y-85284313D01*
X130871059Y-85284312D01*
X130778140Y-85274819D01*
X130778123Y-85274818D01*
X130775009Y-85274500D01*
X130771860Y-85274500D01*
X129378140Y-85274500D01*
X129378120Y-85274500D01*
X129374992Y-85274501D01*
X129371860Y-85274820D01*
X129371858Y-85274821D01*
X129278938Y-85284312D01*
X129278928Y-85284313D01*
X129272203Y-85285001D01*
X129265781Y-85287128D01*
X129265776Y-85287130D01*
X129112521Y-85337914D01*
X129112517Y-85337915D01*
X129105666Y-85340186D01*
X129099525Y-85343973D01*
X129099518Y-85343977D01*
X128968813Y-85424596D01*
X128925596Y-85441111D01*
X128903081Y-85445147D01*
X128893749Y-85446457D01*
X128841313Y-85451790D01*
X128841310Y-85451790D01*
X128835062Y-85452426D01*
X128829068Y-85454306D01*
X128829065Y-85454307D01*
X128806026Y-85461535D01*
X128790792Y-85465274D01*
X128776595Y-85467819D01*
X128760847Y-85470642D01*
X128755014Y-85472971D01*
X128754996Y-85472977D01*
X128706067Y-85492521D01*
X128697197Y-85495679D01*
X128646911Y-85511457D01*
X128646896Y-85511463D01*
X128640912Y-85513341D01*
X128635422Y-85516387D01*
X128635415Y-85516391D01*
X128614309Y-85528105D01*
X128600140Y-85534834D01*
X128577723Y-85543789D01*
X128577713Y-85543793D01*
X128571883Y-85546123D01*
X128566640Y-85549578D01*
X128566631Y-85549583D01*
X128522623Y-85578586D01*
X128514573Y-85583463D01*
X128462998Y-85612091D01*
X128458229Y-85616184D01*
X128458226Y-85616187D01*
X128439914Y-85631907D01*
X128427387Y-85641352D01*
X128407231Y-85654636D01*
X128407219Y-85654645D01*
X128401981Y-85658098D01*
X128397539Y-85662539D01*
X128397535Y-85662543D01*
X128360274Y-85699803D01*
X128353368Y-85706204D01*
X128313373Y-85740540D01*
X128313369Y-85740543D01*
X128308605Y-85744634D01*
X128304760Y-85749600D01*
X128304760Y-85749601D01*
X128289980Y-85768694D01*
X128279608Y-85780469D01*
X126977645Y-87082433D01*
X126975397Y-87084625D01*
X126911947Y-87144940D01*
X126910793Y-87143726D01*
X126869913Y-87172799D01*
X126810705Y-87180644D01*
X126754698Y-87159901D01*
X126714884Y-87115382D01*
X126700500Y-87057414D01*
X126700500Y-81024500D01*
X126717113Y-80962500D01*
X126762500Y-80917113D01*
X126824500Y-80900500D01*
X168475500Y-80900500D01*
X168537500Y-80917113D01*
G37*
%TD.AperFunction*%
%TA.AperFunction,NonConductor*%
G36*
X128837818Y-90468299D02*
G01*
X128887180Y-90498548D01*
X128956344Y-90567712D01*
X128962485Y-90571500D01*
X128962488Y-90571502D01*
X129019558Y-90606702D01*
X129105666Y-90659814D01*
X129272203Y-90714999D01*
X129374991Y-90725500D01*
X130775008Y-90725499D01*
X130877797Y-90714999D01*
X131044334Y-90659814D01*
X131171366Y-90581460D01*
X131236461Y-90563000D01*
X133313539Y-90563000D01*
X133378633Y-90581460D01*
X133505666Y-90659814D01*
X133672203Y-90714999D01*
X133774991Y-90725500D01*
X134169000Y-90725499D01*
X134231000Y-90742112D01*
X134276387Y-90787499D01*
X134293000Y-90849499D01*
X134293000Y-94810500D01*
X134276387Y-94872500D01*
X134231000Y-94917887D01*
X134169000Y-94934500D01*
X133652031Y-94934500D01*
X133607237Y-94926127D01*
X133472803Y-94874047D01*
X133472798Y-94874045D01*
X133467456Y-94871976D01*
X133461818Y-94870922D01*
X133272605Y-94835552D01*
X133272602Y-94835551D01*
X133266976Y-94834500D01*
X133063024Y-94834500D01*
X133057398Y-94835551D01*
X133057394Y-94835552D01*
X132868181Y-94870922D01*
X132868178Y-94870922D01*
X132862544Y-94871976D01*
X132857203Y-94874044D01*
X132857196Y-94874047D01*
X132677705Y-94943582D01*
X132677700Y-94943584D01*
X132672363Y-94945652D01*
X132667491Y-94948668D01*
X132667488Y-94948670D01*
X132503830Y-95050002D01*
X132503822Y-95050007D01*
X132498959Y-95053019D01*
X132494728Y-95056875D01*
X132494724Y-95056879D01*
X132352476Y-95186554D01*
X132352466Y-95186564D01*
X132348236Y-95190421D01*
X132344783Y-95194993D01*
X132344778Y-95194999D01*
X132283465Y-95276191D01*
X132236339Y-95314113D01*
X132176879Y-95325229D01*
X132119235Y-95306892D01*
X132077126Y-95263467D01*
X132076319Y-95262070D01*
X132074035Y-95257171D01*
X131938495Y-95063599D01*
X131771401Y-94896505D01*
X131766970Y-94893402D01*
X131766966Y-94893399D01*
X131582259Y-94764066D01*
X131582257Y-94764064D01*
X131577830Y-94760965D01*
X131572933Y-94758681D01*
X131572927Y-94758678D01*
X131368572Y-94663386D01*
X131368570Y-94663385D01*
X131363663Y-94661097D01*
X131358438Y-94659697D01*
X131358430Y-94659694D01*
X131140634Y-94601337D01*
X131140630Y-94601336D01*
X131135408Y-94599937D01*
X131130020Y-94599465D01*
X131130017Y-94599465D01*
X130905395Y-94579813D01*
X130900000Y-94579341D01*
X130894605Y-94579813D01*
X130669982Y-94599465D01*
X130669977Y-94599465D01*
X130664592Y-94599937D01*
X130659371Y-94601335D01*
X130659365Y-94601337D01*
X130441569Y-94659694D01*
X130441557Y-94659698D01*
X130436337Y-94661097D01*
X130431432Y-94663383D01*
X130431427Y-94663386D01*
X130227081Y-94758675D01*
X130227077Y-94758677D01*
X130222171Y-94760965D01*
X130217738Y-94764068D01*
X130217731Y-94764073D01*
X130033034Y-94893399D01*
X130033029Y-94893402D01*
X130028599Y-94896505D01*
X130024775Y-94900328D01*
X130024769Y-94900334D01*
X129865334Y-95059769D01*
X129865328Y-95059775D01*
X129861505Y-95063599D01*
X129858402Y-95068029D01*
X129858399Y-95068034D01*
X129729073Y-95252731D01*
X129729068Y-95252738D01*
X129725965Y-95257171D01*
X129723677Y-95262077D01*
X129723675Y-95262081D01*
X129628386Y-95466427D01*
X129628383Y-95466432D01*
X129626097Y-95471337D01*
X129624698Y-95476557D01*
X129624694Y-95476569D01*
X129566337Y-95694365D01*
X129566335Y-95694371D01*
X129564937Y-95699592D01*
X129564465Y-95704977D01*
X129564465Y-95704982D01*
X129558259Y-95775920D01*
X129544341Y-95935000D01*
X129544813Y-95940395D01*
X129562466Y-96142171D01*
X129564937Y-96170408D01*
X129566336Y-96175630D01*
X129566337Y-96175634D01*
X129624694Y-96393430D01*
X129624697Y-96393438D01*
X129626097Y-96398663D01*
X129628385Y-96403570D01*
X129628386Y-96403572D01*
X129723678Y-96607927D01*
X129723681Y-96607933D01*
X129725965Y-96612830D01*
X129729064Y-96617257D01*
X129729066Y-96617259D01*
X129858399Y-96801966D01*
X129858402Y-96801970D01*
X129861505Y-96806401D01*
X129865335Y-96810231D01*
X129865336Y-96810232D01*
X129983430Y-96928326D01*
X130014726Y-96981072D01*
X130016915Y-97042365D01*
X129989462Y-97097210D01*
X129939083Y-97132189D01*
X129856334Y-97163053D01*
X129807669Y-97181204D01*
X129800572Y-97186516D01*
X129800568Y-97186519D01*
X129699550Y-97262141D01*
X129699546Y-97262144D01*
X129692454Y-97267454D01*
X129687144Y-97274546D01*
X129687141Y-97274550D01*
X129611519Y-97375568D01*
X129611516Y-97375572D01*
X129606204Y-97382669D01*
X129603104Y-97390978D01*
X129603104Y-97390980D01*
X129558620Y-97510247D01*
X129558619Y-97510250D01*
X129555909Y-97517517D01*
X129555079Y-97525227D01*
X129555079Y-97525232D01*
X129549855Y-97573819D01*
X129549854Y-97573831D01*
X129549500Y-97577127D01*
X129549500Y-97580448D01*
X129549500Y-97580449D01*
X129549500Y-98354180D01*
X129537600Y-98399999D01*
X129549500Y-98445818D01*
X129549500Y-99369560D01*
X129549500Y-99369578D01*
X129549501Y-99372872D01*
X129549853Y-99376150D01*
X129549854Y-99376161D01*
X129555079Y-99424768D01*
X129555080Y-99424773D01*
X129555909Y-99432483D01*
X129558619Y-99439749D01*
X129558620Y-99439753D01*
X129580885Y-99499447D01*
X129606204Y-99567331D01*
X129611518Y-99574430D01*
X129611519Y-99574431D01*
X129659515Y-99638546D01*
X129692454Y-99682546D01*
X129807669Y-99768796D01*
X129942517Y-99819091D01*
X130002127Y-99825500D01*
X131797872Y-99825499D01*
X131857483Y-99819091D01*
X131992331Y-99768796D01*
X132107546Y-99682546D01*
X132193796Y-99567331D01*
X132244091Y-99432483D01*
X132250500Y-99372873D01*
X132250499Y-97577128D01*
X132244091Y-97517517D01*
X132193796Y-97382669D01*
X132107546Y-97267454D01*
X132016696Y-97199444D01*
X131999431Y-97186519D01*
X131999430Y-97186518D01*
X131992331Y-97181204D01*
X131922359Y-97155106D01*
X131860916Y-97132189D01*
X131810537Y-97097210D01*
X131783084Y-97042365D01*
X131785273Y-96981072D01*
X131816566Y-96928329D01*
X131938495Y-96806401D01*
X132074035Y-96612830D01*
X132076327Y-96607914D01*
X132077120Y-96606541D01*
X132119229Y-96563111D01*
X132176874Y-96544770D01*
X132236337Y-96555885D01*
X132283464Y-96593807D01*
X132348236Y-96679579D01*
X132352472Y-96683440D01*
X132352476Y-96683445D01*
X132409544Y-96735469D01*
X132498959Y-96816981D01*
X132672363Y-96924348D01*
X132862544Y-96998024D01*
X133063024Y-97035500D01*
X133261247Y-97035500D01*
X133266976Y-97035500D01*
X133467456Y-96998024D01*
X133607236Y-96943873D01*
X133652031Y-96935500D01*
X134872722Y-96935500D01*
X134875862Y-96935539D01*
X134963363Y-96937757D01*
X135021458Y-96927344D01*
X135030739Y-96926042D01*
X135089438Y-96920074D01*
X135118464Y-96910966D01*
X135133713Y-96907224D01*
X135163653Y-96901858D01*
X135218423Y-96879980D01*
X135227303Y-96876818D01*
X135283588Y-96859159D01*
X135310194Y-96844390D01*
X135324362Y-96837662D01*
X135352617Y-96826377D01*
X135401891Y-96793902D01*
X135409910Y-96789043D01*
X135461502Y-96760409D01*
X135472961Y-96750570D01*
X135484583Y-96740594D01*
X135497125Y-96731137D01*
X135522519Y-96714402D01*
X135564238Y-96672681D01*
X135571122Y-96666301D01*
X135615895Y-96627866D01*
X135634517Y-96603807D01*
X135644887Y-96592033D01*
X135660822Y-96576099D01*
X135716409Y-96544008D01*
X135780595Y-96544009D01*
X135836181Y-96576102D01*
X136357432Y-97097352D01*
X136359625Y-97099601D01*
X136413370Y-97156141D01*
X136419941Y-97163053D01*
X136425100Y-97166644D01*
X136425104Y-97166647D01*
X136468362Y-97196755D01*
X136475871Y-97202416D01*
X136521593Y-97239698D01*
X136527171Y-97242611D01*
X136527170Y-97242611D01*
X136548556Y-97253782D01*
X136561980Y-97261915D01*
X136586951Y-97279295D01*
X136641163Y-97302559D01*
X136649673Y-97306601D01*
X136701951Y-97333909D01*
X136731199Y-97342277D01*
X136745975Y-97347538D01*
X136773942Y-97359540D01*
X136831718Y-97371413D01*
X136840866Y-97373658D01*
X136897582Y-97389887D01*
X136927916Y-97392196D01*
X136943463Y-97394377D01*
X136967095Y-97399234D01*
X136967102Y-97399234D01*
X136973259Y-97400500D01*
X137032241Y-97400500D01*
X137041656Y-97400858D01*
X137100476Y-97405337D01*
X137130651Y-97401493D01*
X137146317Y-97400500D01*
X137604000Y-97400500D01*
X137666000Y-97417113D01*
X137711387Y-97462500D01*
X137728000Y-97524500D01*
X137728000Y-99325560D01*
X137728000Y-99325578D01*
X137728001Y-99328872D01*
X137728353Y-99332150D01*
X137728354Y-99332161D01*
X137733579Y-99380768D01*
X137733580Y-99380773D01*
X137734409Y-99388483D01*
X137737119Y-99395749D01*
X137737120Y-99395753D01*
X137747942Y-99424767D01*
X137784704Y-99523331D01*
X137870954Y-99638546D01*
X137986169Y-99724796D01*
X138121017Y-99775091D01*
X138180627Y-99781500D01*
X140419372Y-99781499D01*
X140478983Y-99775091D01*
X140613831Y-99724796D01*
X140729046Y-99638546D01*
X140815296Y-99523331D01*
X140865591Y-99388483D01*
X140872000Y-99328873D01*
X140871999Y-98158781D01*
X140885514Y-98102487D01*
X140923114Y-98058464D01*
X140976601Y-98036309D01*
X141034317Y-98040851D01*
X141083680Y-98071101D01*
X144038181Y-101025601D01*
X144065061Y-101065829D01*
X144074500Y-101113282D01*
X144074500Y-110934218D01*
X144065061Y-110981671D01*
X144038181Y-111021899D01*
X141696899Y-113363181D01*
X141656671Y-113390061D01*
X141609218Y-113399500D01*
X140947204Y-113399500D01*
X140898391Y-113389488D01*
X140857461Y-113361069D01*
X140831022Y-113318833D01*
X140821960Y-113294537D01*
X140815296Y-113276669D01*
X140809855Y-113269400D01*
X140809733Y-113269115D01*
X140805730Y-113261784D01*
X140806436Y-113261398D01*
X140786802Y-113215430D01*
X140791149Y-113156901D01*
X140821925Y-113106927D01*
X140872234Y-113076704D01*
X140877548Y-113075047D01*
X140884932Y-113073695D01*
X140939808Y-113048996D01*
X140946673Y-113046152D01*
X141002930Y-113024818D01*
X141011264Y-113019064D01*
X141030821Y-113008034D01*
X141040057Y-113003878D01*
X141087413Y-112966775D01*
X141093420Y-112962355D01*
X141142929Y-112928183D01*
X141182822Y-112883151D01*
X141187924Y-112877731D01*
X141952731Y-112112924D01*
X141958151Y-112107822D01*
X142003183Y-112067929D01*
X142037362Y-112018411D01*
X142041789Y-112012396D01*
X142078878Y-111965056D01*
X142083034Y-111955820D01*
X142094061Y-111936269D01*
X142099818Y-111927930D01*
X142121147Y-111871686D01*
X142124001Y-111864795D01*
X142148695Y-111809931D01*
X142150522Y-111799957D01*
X142156548Y-111778340D01*
X142160140Y-111768872D01*
X142162312Y-111750987D01*
X142167387Y-111709184D01*
X142168514Y-111701776D01*
X142168931Y-111699500D01*
X142179358Y-111642606D01*
X142175725Y-111582566D01*
X142175500Y-111575079D01*
X142175500Y-106824909D01*
X142175726Y-106817422D01*
X142178904Y-106764881D01*
X142179357Y-106757394D01*
X142168516Y-106698235D01*
X142167389Y-106690830D01*
X142163720Y-106660616D01*
X142160140Y-106631128D01*
X142157480Y-106624116D01*
X142157480Y-106624113D01*
X142156547Y-106621653D01*
X142150520Y-106600035D01*
X142148694Y-106590068D01*
X142124012Y-106535228D01*
X142121145Y-106528306D01*
X142117304Y-106518179D01*
X142099818Y-106472070D01*
X142095556Y-106465896D01*
X142095552Y-106465888D01*
X142094058Y-106463724D01*
X142083032Y-106444175D01*
X142081956Y-106441785D01*
X142078877Y-106434943D01*
X142041788Y-106387602D01*
X142037349Y-106381569D01*
X142007442Y-106338241D01*
X142007441Y-106338240D01*
X142003183Y-106332071D01*
X141958170Y-106292193D01*
X141952716Y-106287059D01*
X141587939Y-105922282D01*
X141582822Y-105916847D01*
X141542929Y-105871817D01*
X141493410Y-105837636D01*
X141487404Y-105833216D01*
X141445961Y-105800747D01*
X141445958Y-105800745D01*
X141440057Y-105796122D01*
X141433219Y-105793044D01*
X141433210Y-105793039D01*
X141430810Y-105791959D01*
X141411268Y-105780937D01*
X141409107Y-105779445D01*
X141409102Y-105779442D01*
X141402930Y-105775182D01*
X141346702Y-105753857D01*
X141339784Y-105750991D01*
X141291772Y-105729383D01*
X141291769Y-105729382D01*
X141284932Y-105726305D01*
X141277560Y-105724954D01*
X141277551Y-105724951D01*
X141274952Y-105724475D01*
X141253340Y-105718450D01*
X141250891Y-105717521D01*
X141250885Y-105717519D01*
X141243872Y-105714860D01*
X141236430Y-105713956D01*
X141236425Y-105713955D01*
X141184171Y-105707610D01*
X141176771Y-105706483D01*
X141124987Y-105696994D01*
X141124982Y-105696993D01*
X141117606Y-105695642D01*
X141110126Y-105696094D01*
X141110118Y-105696094D01*
X141057567Y-105699274D01*
X141050079Y-105699500D01*
X140995999Y-105699500D01*
X140933999Y-105682887D01*
X140888612Y-105637500D01*
X140871999Y-105575500D01*
X140871999Y-105474439D01*
X140871999Y-105471128D01*
X140865591Y-105411517D01*
X140815296Y-105276669D01*
X140729046Y-105161454D01*
X140613831Y-105075204D01*
X140478983Y-105024909D01*
X140471270Y-105024079D01*
X140471267Y-105024079D01*
X140422680Y-105018855D01*
X140422669Y-105018854D01*
X140419373Y-105018500D01*
X140416050Y-105018500D01*
X138183939Y-105018500D01*
X138183920Y-105018500D01*
X138180628Y-105018501D01*
X138177350Y-105018853D01*
X138177338Y-105018854D01*
X138128731Y-105024079D01*
X138128725Y-105024080D01*
X138121017Y-105024909D01*
X138113752Y-105027618D01*
X138113746Y-105027620D01*
X137994480Y-105072104D01*
X137994478Y-105072104D01*
X137986169Y-105075204D01*
X137979072Y-105080516D01*
X137979068Y-105080519D01*
X137878050Y-105156141D01*
X137878046Y-105156144D01*
X137870954Y-105161454D01*
X137865644Y-105168546D01*
X137865641Y-105168550D01*
X137790019Y-105269568D01*
X137790016Y-105269572D01*
X137784704Y-105276669D01*
X137781604Y-105284978D01*
X137781604Y-105284980D01*
X137737120Y-105404247D01*
X137737119Y-105404250D01*
X137734409Y-105411517D01*
X137733579Y-105419227D01*
X137733579Y-105419232D01*
X137728355Y-105467819D01*
X137728354Y-105467831D01*
X137728000Y-105471127D01*
X137728000Y-105474448D01*
X137728000Y-105474449D01*
X137728000Y-107325560D01*
X137728000Y-107325578D01*
X137728001Y-107328872D01*
X137728353Y-107332150D01*
X137728354Y-107332161D01*
X137733579Y-107380768D01*
X137733580Y-107380773D01*
X137734409Y-107388483D01*
X137737119Y-107395749D01*
X137737120Y-107395753D01*
X137770717Y-107485831D01*
X137784704Y-107523331D01*
X137870954Y-107638546D01*
X137986169Y-107724796D01*
X138121017Y-107775091D01*
X138180627Y-107781500D01*
X140419372Y-107781499D01*
X140478983Y-107775091D01*
X140568756Y-107741608D01*
X140607167Y-107727282D01*
X140665954Y-107720431D01*
X140721220Y-107741608D01*
X140760376Y-107785989D01*
X140774500Y-107843464D01*
X140774500Y-108956536D01*
X140760376Y-109014011D01*
X140721220Y-109058392D01*
X140665954Y-109079569D01*
X140607167Y-109072718D01*
X140486252Y-109027620D01*
X140486250Y-109027619D01*
X140478983Y-109024909D01*
X140471270Y-109024079D01*
X140471267Y-109024079D01*
X140422680Y-109018855D01*
X140422669Y-109018854D01*
X140419373Y-109018500D01*
X140416050Y-109018500D01*
X138183939Y-109018500D01*
X138183920Y-109018500D01*
X138180628Y-109018501D01*
X138177350Y-109018853D01*
X138177338Y-109018854D01*
X138128731Y-109024079D01*
X138128725Y-109024080D01*
X138121017Y-109024909D01*
X138113752Y-109027618D01*
X138113746Y-109027620D01*
X137994480Y-109072104D01*
X137994478Y-109072104D01*
X137986169Y-109075204D01*
X137979072Y-109080516D01*
X137979068Y-109080519D01*
X137878050Y-109156141D01*
X137878046Y-109156144D01*
X137870954Y-109161454D01*
X137865644Y-109168546D01*
X137865641Y-109168550D01*
X137790019Y-109269568D01*
X137790016Y-109269572D01*
X137784704Y-109276669D01*
X137781604Y-109284978D01*
X137781604Y-109284980D01*
X137737120Y-109404247D01*
X137737119Y-109404250D01*
X137734409Y-109411517D01*
X137733579Y-109419227D01*
X137733579Y-109419232D01*
X137728355Y-109467819D01*
X137728354Y-109467831D01*
X137728000Y-109471127D01*
X137728000Y-109474449D01*
X137728000Y-109575500D01*
X137711387Y-109637500D01*
X137666000Y-109682887D01*
X137604000Y-109699500D01*
X134099921Y-109699500D01*
X134092433Y-109699274D01*
X134039881Y-109696094D01*
X134039873Y-109696094D01*
X134032394Y-109695642D01*
X134025018Y-109696993D01*
X134025011Y-109696994D01*
X133973228Y-109706483D01*
X133965828Y-109707610D01*
X133913569Y-109713956D01*
X133913565Y-109713956D01*
X133906128Y-109714860D01*
X133899119Y-109717517D01*
X133899114Y-109717519D01*
X133896643Y-109718456D01*
X133875053Y-109724474D01*
X133872452Y-109724950D01*
X133872438Y-109724954D01*
X133865069Y-109726305D01*
X133858232Y-109729381D01*
X133858232Y-109729382D01*
X133810226Y-109750987D01*
X133803310Y-109753851D01*
X133754082Y-109772521D01*
X133754070Y-109772526D01*
X133747070Y-109775182D01*
X133740904Y-109779437D01*
X133740894Y-109779443D01*
X133738717Y-109780946D01*
X133719195Y-109791957D01*
X133716783Y-109793042D01*
X133716771Y-109793048D01*
X133709944Y-109796122D01*
X133704048Y-109800740D01*
X133704043Y-109800744D01*
X133662608Y-109833205D01*
X133656581Y-109837640D01*
X133613245Y-109867554D01*
X133613238Y-109867559D01*
X133607071Y-109871817D01*
X133602102Y-109877425D01*
X133602096Y-109877431D01*
X133567184Y-109916838D01*
X133562051Y-109922290D01*
X132287181Y-111197162D01*
X132237818Y-111227412D01*
X132180102Y-111231954D01*
X132126615Y-111209799D01*
X132089015Y-111165776D01*
X132075500Y-111109481D01*
X132075500Y-105982940D01*
X132084939Y-105935487D01*
X132111819Y-105895259D01*
X134770259Y-103236819D01*
X134810487Y-103209939D01*
X134857940Y-103200500D01*
X137604001Y-103200500D01*
X137666001Y-103217113D01*
X137711388Y-103262500D01*
X137727400Y-103322260D01*
X137727823Y-103322238D01*
X137727929Y-103324234D01*
X137728001Y-103324500D01*
X137728001Y-103328872D01*
X137728353Y-103332150D01*
X137728354Y-103332161D01*
X137733579Y-103380768D01*
X137733580Y-103380773D01*
X137734409Y-103388483D01*
X137737119Y-103395749D01*
X137737120Y-103395753D01*
X137770717Y-103485831D01*
X137784704Y-103523331D01*
X137870954Y-103638546D01*
X137986169Y-103724796D01*
X138121017Y-103775091D01*
X138180627Y-103781500D01*
X140419372Y-103781499D01*
X140478983Y-103775091D01*
X140613831Y-103724796D01*
X140729046Y-103638546D01*
X140815296Y-103523331D01*
X140865591Y-103388483D01*
X140872000Y-103328873D01*
X140871999Y-101471128D01*
X140865591Y-101411517D01*
X140815296Y-101276669D01*
X140729046Y-101161454D01*
X140613831Y-101075204D01*
X140478983Y-101024909D01*
X140471270Y-101024079D01*
X140471267Y-101024079D01*
X140422680Y-101018855D01*
X140422669Y-101018854D01*
X140419373Y-101018500D01*
X140416050Y-101018500D01*
X138183939Y-101018500D01*
X138183920Y-101018500D01*
X138180628Y-101018501D01*
X138177350Y-101018853D01*
X138177338Y-101018854D01*
X138128731Y-101024079D01*
X138128725Y-101024080D01*
X138121017Y-101024909D01*
X138113752Y-101027618D01*
X138113746Y-101027620D01*
X137994480Y-101072104D01*
X137994478Y-101072104D01*
X137986169Y-101075204D01*
X137979072Y-101080516D01*
X137979068Y-101080519D01*
X137878050Y-101156141D01*
X137878046Y-101156144D01*
X137870954Y-101161454D01*
X137865644Y-101168546D01*
X137865641Y-101168550D01*
X137790019Y-101269568D01*
X137790016Y-101269572D01*
X137784704Y-101276669D01*
X137781604Y-101284978D01*
X137781604Y-101284980D01*
X137737120Y-101404247D01*
X137737119Y-101404250D01*
X137734409Y-101411517D01*
X137733579Y-101419227D01*
X137733579Y-101419232D01*
X137728355Y-101467819D01*
X137728354Y-101467831D01*
X137728000Y-101471127D01*
X137728000Y-101474449D01*
X137728000Y-101475500D01*
X137727929Y-101475762D01*
X137727822Y-101477768D01*
X137727398Y-101477745D01*
X137711387Y-101537500D01*
X137666000Y-101582887D01*
X137604000Y-101599500D01*
X134565194Y-101599500D01*
X134384805Y-101599500D01*
X134347481Y-101608018D01*
X134333786Y-101610345D01*
X134302666Y-101613852D01*
X134302665Y-101613852D01*
X134295745Y-101614632D01*
X134289173Y-101616931D01*
X134289166Y-101616933D01*
X134259608Y-101627275D01*
X134246257Y-101631122D01*
X134215723Y-101638092D01*
X134215719Y-101638093D01*
X134208939Y-101639641D01*
X134202674Y-101642657D01*
X134202665Y-101642661D01*
X134174457Y-101656245D01*
X134161619Y-101661563D01*
X134132047Y-101671911D01*
X134132037Y-101671915D01*
X134125478Y-101674211D01*
X134119589Y-101677910D01*
X134119585Y-101677913D01*
X134093064Y-101694577D01*
X134080898Y-101701301D01*
X134052689Y-101714886D01*
X134052685Y-101714888D01*
X134046413Y-101717909D01*
X134040967Y-101722251D01*
X134040965Y-101722253D01*
X134016487Y-101741773D01*
X134005152Y-101749816D01*
X133978635Y-101766478D01*
X133978631Y-101766480D01*
X133972738Y-101770184D01*
X133967817Y-101775104D01*
X133967813Y-101775108D01*
X130772735Y-104970186D01*
X130772736Y-104970186D01*
X130645184Y-105097738D01*
X130641479Y-105103632D01*
X130641479Y-105103634D01*
X130624816Y-105130152D01*
X130616773Y-105141487D01*
X130597253Y-105165965D01*
X130597251Y-105165967D01*
X130592909Y-105171413D01*
X130589889Y-105177682D01*
X130589883Y-105177693D01*
X130576299Y-105205900D01*
X130569577Y-105218064D01*
X130549211Y-105250478D01*
X130546915Y-105257037D01*
X130546911Y-105257047D01*
X130536565Y-105286613D01*
X130531247Y-105299451D01*
X130517660Y-105327666D01*
X130517657Y-105327671D01*
X130514640Y-105333939D01*
X130513092Y-105340717D01*
X130513089Y-105340728D01*
X130506118Y-105371268D01*
X130502272Y-105384619D01*
X130489632Y-105420745D01*
X130488852Y-105427663D01*
X130488852Y-105427665D01*
X130485345Y-105458781D01*
X130483017Y-105472479D01*
X130476050Y-105503008D01*
X130476048Y-105503020D01*
X130474500Y-105509806D01*
X130474500Y-105555046D01*
X130474500Y-119309806D01*
X130474500Y-119490194D01*
X130476049Y-119496983D01*
X130476050Y-119496988D01*
X130483017Y-119527518D01*
X130485345Y-119541218D01*
X130488852Y-119572336D01*
X130489632Y-119579255D01*
X130491929Y-119585821D01*
X130491930Y-119585823D01*
X130502272Y-119615379D01*
X130506119Y-119628735D01*
X130513088Y-119659267D01*
X130513091Y-119659276D01*
X130514640Y-119666061D01*
X130517658Y-119672329D01*
X130517661Y-119672336D01*
X130531250Y-119700554D01*
X130536568Y-119713393D01*
X130549211Y-119749522D01*
X130552912Y-119755412D01*
X130552913Y-119755414D01*
X130569572Y-119781927D01*
X130576296Y-119794093D01*
X130589888Y-119822315D01*
X130592909Y-119828587D01*
X130616771Y-119858509D01*
X130624818Y-119869850D01*
X130638369Y-119891417D01*
X130645184Y-119902262D01*
X130677174Y-119934252D01*
X132445183Y-121702261D01*
X132445184Y-121702262D01*
X132572738Y-121829816D01*
X132578633Y-121833520D01*
X132605143Y-121850177D01*
X132616484Y-121858223D01*
X132646413Y-121882091D01*
X132652687Y-121885112D01*
X132652688Y-121885113D01*
X132680890Y-121898694D01*
X132693058Y-121905418D01*
X132725478Y-121925789D01*
X132761601Y-121938429D01*
X132761613Y-121938433D01*
X132774450Y-121943750D01*
X132808939Y-121960359D01*
X132808840Y-121960565D01*
X132861862Y-121998189D01*
X132888134Y-122061618D01*
X132876634Y-122129303D01*
X132830886Y-122180494D01*
X132764914Y-122199500D01*
X126824500Y-122199500D01*
X126762500Y-122182887D01*
X126717113Y-122137500D01*
X126700500Y-122075500D01*
X126700500Y-98614783D01*
X126714015Y-98558488D01*
X126751615Y-98514465D01*
X126805102Y-98492310D01*
X126862818Y-98496852D01*
X126912181Y-98527102D01*
X126937299Y-98552220D01*
X126943703Y-98559130D01*
X126978036Y-98599123D01*
X126978043Y-98599129D01*
X126982134Y-98603895D01*
X126987103Y-98607742D01*
X126987106Y-98607744D01*
X127006188Y-98622515D01*
X127017968Y-98632889D01*
X127142418Y-98757338D01*
X127169177Y-98798405D01*
X127169418Y-98799250D01*
X127171973Y-98804381D01*
X127253439Y-98967989D01*
X127260327Y-98981821D01*
X127280522Y-99008564D01*
X127379778Y-99140001D01*
X127379783Y-99140006D01*
X127383236Y-99144579D01*
X127387472Y-99148440D01*
X127387476Y-99148445D01*
X127442878Y-99198950D01*
X127533959Y-99281981D01*
X127707363Y-99389348D01*
X127897544Y-99463024D01*
X128098024Y-99500500D01*
X128296247Y-99500500D01*
X128301976Y-99500500D01*
X128502456Y-99463024D01*
X128692637Y-99389348D01*
X128866041Y-99281981D01*
X129016764Y-99144579D01*
X129139673Y-98981821D01*
X129230582Y-98799250D01*
X129286397Y-98603083D01*
X129302029Y-98434374D01*
X129314441Y-98399999D01*
X129302029Y-98365621D01*
X129299712Y-98340617D01*
X129286397Y-98196917D01*
X129260762Y-98106822D01*
X129232152Y-98006268D01*
X129230582Y-98000750D01*
X129139673Y-97818179D01*
X129040586Y-97686966D01*
X129020221Y-97659998D01*
X129020217Y-97659994D01*
X129016764Y-97655421D01*
X129012527Y-97651558D01*
X129012523Y-97651554D01*
X128870275Y-97521879D01*
X128870276Y-97521879D01*
X128866041Y-97518019D01*
X128861171Y-97515004D01*
X128861169Y-97515002D01*
X128734223Y-97436401D01*
X128691171Y-97391313D01*
X128675500Y-97330974D01*
X128675500Y-90586230D01*
X128689015Y-90529935D01*
X128726615Y-90485912D01*
X128780102Y-90463757D01*
X128837818Y-90468299D01*
G37*
%TD.AperFunction*%
%TA.AperFunction,NonConductor*%
G36*
X168547144Y-106641821D02*
G01*
X168585636Y-106686055D01*
X168599500Y-106743029D01*
X168599500Y-122075500D01*
X168582887Y-122137500D01*
X168537500Y-122182887D01*
X168475500Y-122199500D01*
X162910090Y-122199500D01*
X162844118Y-122180494D01*
X162798370Y-122129301D01*
X162786870Y-122061616D01*
X162813143Y-121998187D01*
X162866160Y-121960569D01*
X162866060Y-121960361D01*
X162867286Y-121959770D01*
X162867285Y-121959770D01*
X162900546Y-121943752D01*
X162913398Y-121938429D01*
X162949522Y-121925789D01*
X162981939Y-121905418D01*
X162994086Y-121898705D01*
X163028587Y-121882091D01*
X163058519Y-121858220D01*
X163069853Y-121850179D01*
X163069856Y-121850177D01*
X163102262Y-121829816D01*
X163229816Y-121702262D01*
X163229815Y-121702262D01*
X164895258Y-120036819D01*
X164935487Y-120009939D01*
X164982940Y-120000500D01*
X164996247Y-120000500D01*
X165001976Y-120000500D01*
X165202456Y-119963024D01*
X165392637Y-119889348D01*
X165566041Y-119781981D01*
X165716764Y-119644579D01*
X165839673Y-119481821D01*
X165930582Y-119299250D01*
X165986397Y-119103083D01*
X166005215Y-118900000D01*
X165986397Y-118696917D01*
X165930582Y-118500750D01*
X165839673Y-118318179D01*
X165776948Y-118235118D01*
X165720221Y-118159998D01*
X165720217Y-118159994D01*
X165716764Y-118155421D01*
X165712527Y-118151558D01*
X165712523Y-118151554D01*
X165570275Y-118021879D01*
X165570276Y-118021879D01*
X165566041Y-118018019D01*
X165561171Y-118015004D01*
X165561169Y-118015002D01*
X165397511Y-117913670D01*
X165397512Y-117913670D01*
X165392637Y-117910652D01*
X165387294Y-117908582D01*
X165207803Y-117839047D01*
X165207798Y-117839045D01*
X165202456Y-117836976D01*
X165196818Y-117835922D01*
X165007605Y-117800552D01*
X165007602Y-117800551D01*
X165001976Y-117799500D01*
X164798024Y-117799500D01*
X164792398Y-117800551D01*
X164792394Y-117800552D01*
X164603181Y-117835922D01*
X164603178Y-117835922D01*
X164597544Y-117836976D01*
X164592203Y-117839044D01*
X164592196Y-117839047D01*
X164412705Y-117908582D01*
X164412700Y-117908584D01*
X164407363Y-117910652D01*
X164402491Y-117913668D01*
X164402488Y-117913670D01*
X164238830Y-118015002D01*
X164238822Y-118015007D01*
X164233959Y-118018019D01*
X164229728Y-118021875D01*
X164229724Y-118021879D01*
X164087476Y-118151554D01*
X164087466Y-118151564D01*
X164083236Y-118155421D01*
X164079787Y-118159987D01*
X164079778Y-118159998D01*
X163963779Y-118313607D01*
X163963776Y-118313611D01*
X163960327Y-118318179D01*
X163957774Y-118323304D01*
X163957772Y-118323309D01*
X163890465Y-118458481D01*
X163869418Y-118500750D01*
X163867850Y-118506258D01*
X163867847Y-118506268D01*
X163815173Y-118691395D01*
X163815170Y-118691406D01*
X163813603Y-118696917D01*
X163813073Y-118702627D01*
X163813073Y-118702632D01*
X163801659Y-118825811D01*
X163790435Y-118867063D01*
X163765869Y-118902051D01*
X162304741Y-120363181D01*
X162264513Y-120390061D01*
X162217060Y-120399500D01*
X162119954Y-120399500D01*
X161565519Y-120399500D01*
X161509224Y-120385985D01*
X161465201Y-120348385D01*
X161443046Y-120294898D01*
X161447588Y-120237182D01*
X161477838Y-120187819D01*
X161843342Y-119822315D01*
X162952731Y-118712924D01*
X162958151Y-118707822D01*
X163003183Y-118667929D01*
X163037355Y-118618420D01*
X163041775Y-118612413D01*
X163078878Y-118565057D01*
X163083033Y-118555822D01*
X163094063Y-118536265D01*
X163099818Y-118527930D01*
X163121146Y-118471688D01*
X163124002Y-118464791D01*
X163148694Y-118409932D01*
X163150518Y-118399974D01*
X163156548Y-118378340D01*
X163160140Y-118368872D01*
X163167389Y-118309165D01*
X163168516Y-118301762D01*
X163168747Y-118300500D01*
X163179357Y-118242606D01*
X163175726Y-118182577D01*
X163175500Y-118175090D01*
X163175500Y-116181519D01*
X163184939Y-116134066D01*
X163211819Y-116093838D01*
X163244916Y-116060740D01*
X163437820Y-115867836D01*
X163487182Y-115837587D01*
X163544898Y-115833045D01*
X163598385Y-115855200D01*
X163635985Y-115899223D01*
X163649500Y-115955518D01*
X163649500Y-116774560D01*
X163649500Y-116774578D01*
X163649501Y-116777872D01*
X163649853Y-116781150D01*
X163649854Y-116781161D01*
X163655079Y-116829768D01*
X163655080Y-116829773D01*
X163655909Y-116837483D01*
X163658619Y-116844749D01*
X163658620Y-116844753D01*
X163692217Y-116934831D01*
X163706204Y-116972331D01*
X163711518Y-116979430D01*
X163711519Y-116979431D01*
X163777971Y-117068200D01*
X163792454Y-117087546D01*
X163907669Y-117173796D01*
X164042517Y-117224091D01*
X164102127Y-117230500D01*
X165897872Y-117230499D01*
X165957483Y-117224091D01*
X166092331Y-117173796D01*
X166207546Y-117087546D01*
X166293796Y-116972331D01*
X166344091Y-116837483D01*
X166350500Y-116777873D01*
X166350499Y-114982128D01*
X166344091Y-114922517D01*
X166308592Y-114827341D01*
X166303609Y-114757651D01*
X166337092Y-114696330D01*
X167751577Y-113281845D01*
X167757368Y-113276415D01*
X167801342Y-113237766D01*
X167836635Y-113187062D01*
X167840786Y-113181442D01*
X167878877Y-113132824D01*
X167882356Y-113125092D01*
X167893669Y-113105123D01*
X167898526Y-113098148D01*
X167920665Y-113040451D01*
X167923340Y-113034029D01*
X167948694Y-112977699D01*
X167950225Y-112969340D01*
X167956425Y-112947265D01*
X167959472Y-112939328D01*
X167967161Y-112878003D01*
X167968218Y-112871153D01*
X167979357Y-112810373D01*
X167975821Y-112751932D01*
X167975597Y-112744001D01*
X167996940Y-107308076D01*
X168007603Y-107258255D01*
X168037398Y-107216929D01*
X168116764Y-107144579D01*
X168239673Y-106981821D01*
X168330582Y-106799250D01*
X168356233Y-106709094D01*
X168385160Y-106658089D01*
X168434288Y-106626078D01*
X168492632Y-106620218D01*
X168547144Y-106641821D01*
G37*
%TD.AperFunction*%
M02*
