%TF.GenerationSoftware,KiCad,Pcbnew,(7.0.0)*%
%TF.CreationDate,2023-03-14T16:58:18+01:00*%
%TF.ProjectId,breakout-board-power-measurement,62726561-6b6f-4757-942d-626f6172642d,rev?*%
%TF.SameCoordinates,Original*%
%TF.FileFunction,Copper,L1,Top*%
%TF.FilePolarity,Positive*%
%FSLAX46Y46*%
G04 Gerber Fmt 4.6, Leading zero omitted, Abs format (unit mm)*
G04 Created by KiCad (PCBNEW (7.0.0)) date 2023-03-14 16:58:18*
%MOMM*%
%LPD*%
G01*
G04 APERTURE LIST*
G04 Aperture macros list*
%AMRoundRect*
0 Rectangle with rounded corners*
0 $1 Rounding radius*
0 $2 $3 $4 $5 $6 $7 $8 $9 X,Y pos of 4 corners*
0 Add a 4 corners polygon primitive as box body*
4,1,4,$2,$3,$4,$5,$6,$7,$8,$9,$2,$3,0*
0 Add four circle primitives for the rounded corners*
1,1,$1+$1,$2,$3*
1,1,$1+$1,$4,$5*
1,1,$1+$1,$6,$7*
1,1,$1+$1,$8,$9*
0 Add four rect primitives between the rounded corners*
20,1,$1+$1,$2,$3,$4,$5,0*
20,1,$1+$1,$4,$5,$6,$7,0*
20,1,$1+$1,$6,$7,$8,$9,0*
20,1,$1+$1,$8,$9,$2,$3,0*%
%AMOutline4P*
0 Free polygon, 4 corners , with rotation*
0 The origin of the aperture is its center*
0 number of corners: always 4*
0 $1 to $8 corner X, Y*
0 $9 Rotation angle, in degrees counterclockwise*
0 create outline with 4 corners*
4,1,4,$1,$2,$3,$4,$5,$6,$7,$8,$1,$2,$9*%
G04 Aperture macros list end*
%ADD10C,0.100000*%
%TA.AperFunction,ComponentPad*%
%ADD11R,1.700000X1.700000*%
%TD*%
%TA.AperFunction,ComponentPad*%
%ADD12O,1.700000X1.700000*%
%TD*%
%TA.AperFunction,ComponentPad*%
%ADD13C,1.000000*%
%TD*%
%TA.AperFunction,SMDPad,CuDef*%
%ADD14RoundRect,0.250000X-0.400000X-0.625000X0.400000X-0.625000X0.400000X0.625000X-0.400000X0.625000X0*%
%TD*%
%TA.AperFunction,SMDPad,CuDef*%
%ADD15RoundRect,0.250000X0.700000X-0.275000X0.700000X0.275000X-0.700000X0.275000X-0.700000X-0.275000X0*%
%TD*%
%TA.AperFunction,SMDPad,CuDef*%
%ADD16RoundRect,0.250000X-0.275000X-0.700000X0.275000X-0.700000X0.275000X0.700000X-0.275000X0.700000X0*%
%TD*%
%TA.AperFunction,SMDPad,CuDef*%
%ADD17RoundRect,0.250000X0.412500X0.650000X-0.412500X0.650000X-0.412500X-0.650000X0.412500X-0.650000X0*%
%TD*%
%TA.AperFunction,SMDPad,CuDef*%
%ADD18RoundRect,0.250000X0.650000X-0.412500X0.650000X0.412500X-0.650000X0.412500X-0.650000X-0.412500X0*%
%TD*%
%TA.AperFunction,SMDPad,CuDef*%
%ADD19RoundRect,0.250000X-0.650000X0.412500X-0.650000X-0.412500X0.650000X-0.412500X0.650000X0.412500X0*%
%TD*%
%TA.AperFunction,SMDPad,CuDef*%
%ADD20Outline4P,-1.800000X-1.150000X1.800000X-0.550000X1.800000X0.550000X-1.800000X1.150000X0.000000*%
%TD*%
%TA.AperFunction,SMDPad,CuDef*%
%ADD21Outline4P,-1.800000X-1.150000X1.800000X-0.550000X1.800000X0.550000X-1.800000X1.150000X180.000000*%
%TD*%
%TA.AperFunction,SMDPad,CuDef*%
%ADD22RoundRect,0.250000X0.312500X1.075000X-0.312500X1.075000X-0.312500X-1.075000X0.312500X-1.075000X0*%
%TD*%
%TA.AperFunction,SMDPad,CuDef*%
%ADD23RoundRect,0.250000X-0.412500X-0.650000X0.412500X-0.650000X0.412500X0.650000X-0.412500X0.650000X0*%
%TD*%
%TA.AperFunction,SMDPad,CuDef*%
%ADD24RoundRect,0.250000X-0.625000X0.400000X-0.625000X-0.400000X0.625000X-0.400000X0.625000X0.400000X0*%
%TD*%
%TA.AperFunction,SMDPad,CuDef*%
%ADD25RoundRect,0.250000X-0.312500X-1.075000X0.312500X-1.075000X0.312500X1.075000X-0.312500X1.075000X0*%
%TD*%
%TA.AperFunction,SMDPad,CuDef*%
%ADD26RoundRect,0.250000X0.400000X0.625000X-0.400000X0.625000X-0.400000X-0.625000X0.400000X-0.625000X0*%
%TD*%
%TA.AperFunction,SMDPad,CuDef*%
%ADD27R,1.651000X0.431800*%
%TD*%
%TA.AperFunction,ComponentPad*%
%ADD28C,2.340000*%
%TD*%
%TA.AperFunction,ComponentPad*%
%ADD29R,3.960000X1.980000*%
%TD*%
%TA.AperFunction,ComponentPad*%
%ADD30O,3.960000X1.980000*%
%TD*%
%TA.AperFunction,ComponentPad*%
%ADD31R,1.850000X1.850000*%
%TD*%
%TA.AperFunction,ComponentPad*%
%ADD32C,1.850000*%
%TD*%
%TA.AperFunction,ComponentPad*%
%ADD33C,2.400000*%
%TD*%
%TA.AperFunction,ComponentPad*%
%ADD34C,1.500000*%
%TD*%
%TA.AperFunction,Conductor*%
%ADD35C,0.400000*%
%TD*%
%TA.AperFunction,Conductor*%
%ADD36C,0.600000*%
%TD*%
%TA.AperFunction,Conductor*%
%ADD37C,0.250000*%
%TD*%
%TA.AperFunction,Conductor*%
%ADD38C,1.000000*%
%TD*%
%TA.AperFunction,Conductor*%
%ADD39C,0.800000*%
%TD*%
%TA.AperFunction,Conductor*%
%ADD40C,2.500000*%
%TD*%
G04 APERTURE END LIST*
D10*
G36*
X156323145Y-149851826D02*
G01*
X156359288Y-149887969D01*
X156398000Y-149965393D01*
X156398000Y-150227501D01*
X156359287Y-150304924D01*
X156323145Y-150341067D01*
X156245720Y-150379780D01*
X156078851Y-150379780D01*
X156021810Y-150351259D01*
X156021810Y-149841635D01*
X156078851Y-149813114D01*
X156245720Y-149813114D01*
X156323145Y-149851826D01*
G37*
G36*
X155418383Y-149851826D02*
G01*
X155454526Y-149887969D01*
X155493238Y-149965393D01*
X155493238Y-150227501D01*
X155454525Y-150304924D01*
X155418383Y-150341067D01*
X155340958Y-150379780D01*
X155221708Y-150379780D01*
X155144284Y-150341067D01*
X155108141Y-150304925D01*
X155069429Y-150227500D01*
X155069429Y-149965394D01*
X155108141Y-149887968D01*
X155144284Y-149851825D01*
X155221708Y-149813114D01*
X155340958Y-149813114D01*
X155418383Y-149851826D01*
G37*
G36*
X156956334Y-150940257D02*
G01*
X153939667Y-150940257D01*
X153939667Y-149770530D01*
X154301181Y-149770530D01*
X154313379Y-149797239D01*
X154338081Y-149813114D01*
X154445619Y-149813114D01*
X154445619Y-150284233D01*
X154444332Y-150296153D01*
X154448901Y-150305291D01*
X154451780Y-150315096D01*
X154455350Y-150318190D01*
X154492820Y-150393129D01*
X154492752Y-150395071D01*
X154499325Y-150406139D01*
X154501732Y-150410952D01*
X154502982Y-150412296D01*
X154507746Y-150420317D01*
X154512786Y-150422837D01*
X154516626Y-150426965D01*
X154525665Y-150429276D01*
X154613711Y-150473299D01*
X154623795Y-150479780D01*
X154634010Y-150479780D01*
X154644069Y-150481590D01*
X154648433Y-150479780D01*
X154740904Y-150479780D01*
X154761887Y-150473619D01*
X154781116Y-150451428D01*
X154785295Y-150422364D01*
X154773097Y-150395655D01*
X154748395Y-150379780D01*
X154650279Y-150379780D01*
X154580506Y-150344893D01*
X154545619Y-150275119D01*
X154545619Y-149959183D01*
X154967619Y-149959183D01*
X154969429Y-149963547D01*
X154969429Y-150236614D01*
X154968142Y-150248534D01*
X154972711Y-150257672D01*
X154975590Y-150267477D01*
X154979160Y-150270571D01*
X155019523Y-150351296D01*
X155021312Y-150359516D01*
X155031041Y-150369245D01*
X155040436Y-150379346D01*
X155041384Y-150379588D01*
X155074879Y-150413084D01*
X155079175Y-150420317D01*
X155091495Y-150426477D01*
X155103589Y-150433081D01*
X155104563Y-150433011D01*
X155185140Y-150473299D01*
X155195224Y-150479780D01*
X155205439Y-150479780D01*
X155215498Y-150481590D01*
X155219862Y-150479780D01*
X155350072Y-150479780D01*
X155361992Y-150481067D01*
X155371130Y-150476497D01*
X155380935Y-150473619D01*
X155384029Y-150470048D01*
X155464754Y-150429685D01*
X155472974Y-150427897D01*
X155482703Y-150418167D01*
X155492804Y-150408773D01*
X155493046Y-150407824D01*
X155526542Y-150374329D01*
X155533775Y-150370034D01*
X155539935Y-150357713D01*
X155546539Y-150345620D01*
X155546469Y-150344645D01*
X155586757Y-150264068D01*
X155593238Y-150253985D01*
X155593238Y-150243770D01*
X155595048Y-150233711D01*
X155593238Y-150229347D01*
X155593238Y-149956280D01*
X155594525Y-149944360D01*
X155589955Y-149935221D01*
X155587077Y-149925417D01*
X155583506Y-149922323D01*
X155543142Y-149841595D01*
X155541355Y-149833377D01*
X155531619Y-149823641D01*
X155522230Y-149813548D01*
X155521283Y-149813305D01*
X155520547Y-149812569D01*
X155919731Y-149812569D01*
X155921810Y-149818825D01*
X155921810Y-150381278D01*
X155921324Y-150395071D01*
X155921810Y-150395889D01*
X155921810Y-150770304D01*
X155927971Y-150791287D01*
X155950162Y-150810516D01*
X155979226Y-150814695D01*
X156005935Y-150802497D01*
X156021810Y-150777795D01*
X156021810Y-150463063D01*
X156042283Y-150473299D01*
X156052367Y-150479780D01*
X156062582Y-150479780D01*
X156072641Y-150481590D01*
X156077005Y-150479780D01*
X156254834Y-150479780D01*
X156266754Y-150481067D01*
X156275892Y-150476497D01*
X156285697Y-150473619D01*
X156288791Y-150470048D01*
X156369516Y-150429685D01*
X156377736Y-150427897D01*
X156387465Y-150418167D01*
X156397566Y-150408773D01*
X156397808Y-150407824D01*
X156431304Y-150374329D01*
X156438537Y-150370034D01*
X156444697Y-150357713D01*
X156451301Y-150345620D01*
X156451231Y-150344645D01*
X156491519Y-150264068D01*
X156498000Y-150253985D01*
X156498000Y-150243770D01*
X156499810Y-150233711D01*
X156498000Y-150229347D01*
X156498000Y-149956280D01*
X156499287Y-149944360D01*
X156494717Y-149935221D01*
X156491839Y-149925417D01*
X156488268Y-149922323D01*
X156447904Y-149841595D01*
X156446117Y-149833377D01*
X156436381Y-149823641D01*
X156426992Y-149813548D01*
X156426045Y-149813305D01*
X156392548Y-149779809D01*
X156388253Y-149772577D01*
X156375936Y-149766418D01*
X156363840Y-149759813D01*
X156362864Y-149759882D01*
X156282288Y-149719594D01*
X156272205Y-149713114D01*
X156261990Y-149713114D01*
X156251931Y-149711304D01*
X156247567Y-149713114D01*
X156069738Y-149713114D01*
X156057818Y-149711827D01*
X156048679Y-149716396D01*
X156038875Y-149719275D01*
X156035781Y-149722845D01*
X156014163Y-149733654D01*
X155993458Y-149715712D01*
X155964394Y-149711533D01*
X155937685Y-149723731D01*
X155921810Y-149748433D01*
X155921810Y-149804440D01*
X155919731Y-149812569D01*
X155520547Y-149812569D01*
X155487786Y-149779809D01*
X155483491Y-149772577D01*
X155471174Y-149766418D01*
X155459078Y-149759813D01*
X155458102Y-149759882D01*
X155377526Y-149719594D01*
X155367443Y-149713114D01*
X155357228Y-149713114D01*
X155347169Y-149711304D01*
X155342805Y-149713114D01*
X155212595Y-149713114D01*
X155200675Y-149711827D01*
X155191536Y-149716396D01*
X155181732Y-149719275D01*
X155178638Y-149722845D01*
X155097910Y-149763209D01*
X155089692Y-149764997D01*
X155079956Y-149774732D01*
X155069863Y-149784122D01*
X155069620Y-149785068D01*
X155036124Y-149818565D01*
X155028892Y-149822861D01*
X155022733Y-149835177D01*
X155016128Y-149847274D01*
X155016197Y-149848249D01*
X154975909Y-149928825D01*
X154969429Y-149938909D01*
X154969429Y-149949124D01*
X154967619Y-149959183D01*
X154545619Y-149959183D01*
X154545619Y-149813114D01*
X154740904Y-149813114D01*
X154761887Y-149806953D01*
X154781116Y-149784762D01*
X154785295Y-149755698D01*
X154773097Y-149728989D01*
X154748395Y-149713114D01*
X154545619Y-149713114D01*
X154545619Y-149422590D01*
X154539458Y-149401607D01*
X154517267Y-149382378D01*
X154488203Y-149378199D01*
X154461494Y-149390397D01*
X154445619Y-149415099D01*
X154445619Y-149713114D01*
X154345572Y-149713114D01*
X154324589Y-149719275D01*
X154305360Y-149741466D01*
X154301181Y-149770530D01*
X153939667Y-149770530D01*
X153939667Y-149104543D01*
X156956334Y-149104543D01*
X156956334Y-150940257D01*
G37*
D11*
%TO.P,J2,1,Pin_1*%
%TO.N,/~{RESET}_*%
X185673999Y-130682999D03*
D12*
%TO.P,J2,2,Pin_2*%
%TO.N,/SDO_*%
X185673999Y-133222999D03*
%TO.P,J2,3,Pin_3*%
%TO.N,/SDI_*%
X185673999Y-135762999D03*
%TO.P,J2,4,Pin_4*%
%TO.N,/SCK_*%
X185673999Y-138302999D03*
%TO.P,J2,5,Pin_5*%
%TO.N,/~{CS}_*%
X185673999Y-140842999D03*
%TO.P,J2,6,Pin_6*%
%TO.N,/~{DR}_*%
X185673999Y-143382999D03*
%TO.P,J2,7,Pin_7*%
%TO.N,/OSC1_ext_*%
X185673999Y-145922999D03*
%TO.P,J2,8,Pin_8*%
%TO.N,/3V3D*%
X185673999Y-148462999D03*
%TO.P,J2,9,Pin_9*%
%TO.N,GNDD*%
X185673999Y-151002999D03*
%TD*%
D13*
%TO.P,TP19,1,1*%
%TO.N,/~{CS}_*%
X183210200Y-141554200D03*
%TD*%
D14*
%TO.P,R5,1*%
%TO.N,Net-(R3-Pad2)*%
X141722000Y-135000000D03*
%TO.P,R5,2*%
%TO.N,Net-(R5-Pad2)*%
X144822000Y-135000000D03*
%TD*%
D15*
%TO.P,L4,1*%
%TO.N,HIGH_in*%
X131699000Y-124765000D03*
%TO.P,L4,2*%
%TO.N,Net-(C10-Pad1)*%
X131699000Y-121615000D03*
%TD*%
D16*
%TO.P,L5,1*%
%TO.N,GNDA*%
X167081000Y-142113000D03*
%TO.P,L5,2*%
%TO.N,GNDD*%
X170231000Y-142113000D03*
%TD*%
%TO.P,L1,1*%
%TO.N,HIGH_in*%
X133807000Y-126873000D03*
%TO.P,L1,2*%
%TO.N,Net-(L1-Pad2)*%
X136957000Y-126873000D03*
%TD*%
D17*
%TO.P,C7,1*%
%TO.N,GNDA*%
X165189300Y-142087600D03*
%TO.P,C7,2*%
%TO.N,Net-(U1-REFIN+{slash}OUT)*%
X162064300Y-142087600D03*
%TD*%
D13*
%TO.P,TP18,1,1*%
%TO.N,/SCK_*%
X183210200Y-139039600D03*
%TD*%
D16*
%TO.P,L2,1*%
%TO.N,/current_pos*%
X140475000Y-146177000D03*
%TO.P,L2,2*%
%TO.N,Net-(L2-Pad2)*%
X143625000Y-146177000D03*
%TD*%
D11*
%TO.P,J3,1,Pin_1*%
%TO.N,Net-(J3-Pin_1)*%
X170433999Y-115442999D03*
D12*
%TO.P,J3,2,Pin_2*%
%TO.N,Net-(J3-Pin_2)*%
X172973999Y-115442999D03*
%TO.P,J3,3,Pin_3*%
%TO.N,Net-(J3-Pin_3)*%
X175513999Y-115442999D03*
%TO.P,J3,4,Pin_4*%
%TO.N,Net-(J3-Pin_4)*%
X178053999Y-115442999D03*
%TO.P,J3,5,Pin_5*%
%TO.N,Net-(J3-Pin_5)*%
X180593999Y-115442999D03*
%TO.P,J3,6,Pin_6*%
%TO.N,Net-(J3-Pin_6)*%
X183133999Y-115442999D03*
%TO.P,J3,7,Pin_7*%
%TO.N,Net-(J3-Pin_7)*%
X185673999Y-115442999D03*
%TD*%
D14*
%TO.P,R15,1*%
%TO.N,Net-(L2-Pad2)*%
X149300000Y-144145000D03*
%TO.P,R15,2*%
%TO.N,/CH1+*%
X152400000Y-144145000D03*
%TD*%
D18*
%TO.P,C9,1*%
%TO.N,/3V3A*%
X163830000Y-131153298D03*
%TO.P,C9,2*%
%TO.N,GNDA*%
X163830000Y-128028298D03*
%TD*%
D19*
%TO.P,C2,1*%
%TO.N,/OSC2*%
X163884000Y-148463200D03*
%TO.P,C2,2*%
%TO.N,GNDD*%
X163884000Y-151588200D03*
%TD*%
D13*
%TO.P,TP20,1,1*%
%TO.N,/~{DR}_*%
X183210200Y-144094200D03*
%TD*%
D11*
%TO.P,J4,1,Pin_1*%
%TO.N,/5V_ext*%
X159023999Y-120751999D03*
D12*
%TO.P,J4,2,Pin_2*%
%TO.N,/GND_ext*%
X161563999Y-120751999D03*
%TD*%
D20*
%TO.P,FB1,1*%
%TO.N,Net-(FB1-Pad1)*%
X165603600Y-124358400D03*
D21*
%TO.P,FB1,2*%
%TO.N,+3.3V*%
X171403600Y-124358400D03*
%TD*%
D19*
%TO.P,C6,1*%
%TO.N,GNDA*%
X155752800Y-137795000D03*
%TO.P,C6,2*%
%TO.N,/CH1-*%
X155752800Y-140920000D03*
%TD*%
D22*
%TO.P,R4,1*%
%TO.N,/current_neg*%
X134939500Y-148717000D03*
%TO.P,R4,2*%
%TO.N,Net-(R4-Pad2)*%
X132014500Y-148717000D03*
%TD*%
D23*
%TO.P,C12,1*%
%TO.N,/3V3D*%
X177202700Y-123647200D03*
%TO.P,C12,2*%
%TO.N,GNDD*%
X180327700Y-123647200D03*
%TD*%
D13*
%TO.P,TP11,1,1*%
%TO.N,GNDD*%
X150876000Y-117856000D03*
%TD*%
D14*
%TO.P,R18,1*%
%TO.N,/~{RESET}*%
X178316108Y-131394200D03*
%TO.P,R18,2*%
%TO.N,/~{RESET}_*%
X181416108Y-131394200D03*
%TD*%
D24*
%TO.P,R23,1*%
%TO.N,+3.3V*%
X170153066Y-128014800D03*
%TO.P,R23,2*%
%TO.N,/3V3D*%
X170153066Y-131114800D03*
%TD*%
D14*
%TO.P,R20,1*%
%TO.N,/SDI*%
X178377446Y-136504554D03*
%TO.P,R20,2*%
%TO.N,/SDI_*%
X181477446Y-136504554D03*
%TD*%
D13*
%TO.P,TP13,1,1*%
%TO.N,GNDD*%
X175564800Y-126136400D03*
%TD*%
%TO.P,TP7,1,1*%
%TO.N,/3V3D*%
X169545000Y-121412000D03*
%TD*%
D16*
%TO.P,L3,1*%
%TO.N,/current_neg*%
X140475000Y-148717000D03*
%TO.P,L3,2*%
%TO.N,Net-(L3-Pad2)*%
X143625000Y-148717000D03*
%TD*%
D18*
%TO.P,C4,1*%
%TO.N,GNDA*%
X155752800Y-135255000D03*
%TO.P,C4,2*%
%TO.N,/CH0+*%
X155752800Y-132130000D03*
%TD*%
D14*
%TO.P,R6,1*%
%TO.N,Net-(R5-Pad2)*%
X141680000Y-132100000D03*
%TO.P,R6,2*%
%TO.N,Net-(R6-Pad2)*%
X144780000Y-132100000D03*
%TD*%
D22*
%TO.P,R8,1*%
%TO.N,Net-(R7-Pad2)*%
X134939500Y-142367000D03*
%TO.P,R8,2*%
%TO.N,Net-(R10-Pad1)*%
X132014500Y-142367000D03*
%TD*%
D18*
%TO.P,C11,1*%
%TO.N,/3V3D*%
X173329600Y-131144632D03*
%TO.P,C11,2*%
%TO.N,GNDD*%
X173329600Y-128019632D03*
%TD*%
D14*
%TO.P,R22,1*%
%TO.N,/OSC1_ext*%
X178403446Y-146664554D03*
%TO.P,R22,2*%
%TO.N,/OSC1_ext_*%
X181503446Y-146664554D03*
%TD*%
%TO.P,R16,1*%
%TO.N,Net-(L3-Pad2)*%
X155295000Y-144145000D03*
%TO.P,R16,2*%
%TO.N,/CH1-*%
X158395000Y-144145000D03*
%TD*%
D24*
%TO.P,R17,1*%
%TO.N,Net-(FB1-Pad1)*%
X167006533Y-128023466D03*
%TO.P,R17,2*%
%TO.N,/3V3A*%
X167006533Y-131123466D03*
%TD*%
D19*
%TO.P,C8,1*%
%TO.N,GNDA*%
X159512000Y-137795000D03*
%TO.P,C8,2*%
%TO.N,Net-(U1-REFIN+{slash}OUT)*%
X159512000Y-140920000D03*
%TD*%
D25*
%TO.P,R10,1*%
%TO.N,Net-(R10-Pad1)*%
X132014500Y-139192000D03*
%TO.P,R10,2*%
%TO.N,Net-(R10-Pad2)*%
X134939500Y-139192000D03*
%TD*%
D13*
%TO.P,TP1,1,1*%
%TO.N,/5V_ext*%
X167259000Y-114300000D03*
%TD*%
D26*
%TO.P,R13,1*%
%TO.N,GNDA*%
X158395000Y-128905000D03*
%TO.P,R13,2*%
%TO.N,/CH0+*%
X155295000Y-128905000D03*
%TD*%
D13*
%TO.P,TP4,1,1*%
%TO.N,/LM317_Vin*%
X148844000Y-117856000D03*
%TD*%
D25*
%TO.P,R7,1*%
%TO.N,Net-(R4-Pad2)*%
X132014500Y-145542000D03*
%TO.P,R7,2*%
%TO.N,Net-(R7-Pad2)*%
X134939500Y-145542000D03*
%TD*%
D14*
%TO.P,R14,1*%
%TO.N,/voltage_pos*%
X149300000Y-128905000D03*
%TO.P,R14,2*%
%TO.N,/CH0-*%
X152400000Y-128905000D03*
%TD*%
D13*
%TO.P,TP21,1,1*%
%TO.N,/OSC1_ext_*%
X183210200Y-146634200D03*
%TD*%
%TO.P,TP16,1,1*%
%TO.N,/SDO_*%
X183184800Y-133934200D03*
%TD*%
D14*
%TO.P,R3,1*%
%TO.N,Net-(R2-Pad2)*%
X141764000Y-137900000D03*
%TO.P,R3,2*%
%TO.N,Net-(R3-Pad2)*%
X144864000Y-137900000D03*
%TD*%
%TO.P,R19,1*%
%TO.N,/~{DR}*%
X178377446Y-144124554D03*
%TO.P,R19,2*%
%TO.N,/~{DR}_*%
X181477446Y-144124554D03*
%TD*%
%TO.P,R2,1*%
%TO.N,Net-(L1-Pad2)*%
X141638000Y-140800000D03*
%TO.P,R2,2*%
%TO.N,Net-(R2-Pad2)*%
X144738000Y-140800000D03*
%TD*%
D13*
%TO.P,TP14,1,1*%
%TO.N,GNDD*%
X176403000Y-148894800D03*
%TD*%
%TO.P,TP15,1,1*%
%TO.N,/~{RESET}_*%
X183184800Y-131394200D03*
%TD*%
%TO.P,TP17,1,1*%
%TO.N,/SDI_*%
X183184800Y-136499600D03*
%TD*%
%TO.P,TP12,1,1*%
%TO.N,GNDD*%
X172186600Y-142087600D03*
%TD*%
D14*
%TO.P,R25,1*%
%TO.N,/~{CS}*%
X178377446Y-141584554D03*
%TO.P,R25,2*%
%TO.N,/~{CS}_*%
X181477446Y-141584554D03*
%TD*%
D13*
%TO.P,TP5,1,1*%
%TO.N,/x_cap_out*%
X140462000Y-125222000D03*
%TD*%
D14*
%TO.P,R24,1*%
%TO.N,/SDO*%
X178352046Y-133939154D03*
%TO.P,R24,2*%
%TO.N,/SDO_*%
X181452046Y-133939154D03*
%TD*%
D13*
%TO.P,TP9,1,1*%
%TO.N,GNDA*%
X161290000Y-136550400D03*
%TD*%
D14*
%TO.P,R21,1*%
%TO.N,/SCK*%
X178377446Y-139044554D03*
%TO.P,R21,2*%
%TO.N,/SCK_*%
X181477446Y-139044554D03*
%TD*%
D26*
%TO.P,R1,1*%
%TO.N,/OSC1*%
X170078400Y-148298500D03*
%TO.P,R1,2*%
%TO.N,/OSC2*%
X166978400Y-148298500D03*
%TD*%
D13*
%TO.P,TP10,1,1*%
%TO.N,GNDA*%
X161290000Y-144424400D03*
%TD*%
%TO.P,TP6,1,1*%
%TO.N,+3.3V*%
X168021000Y-121412000D03*
%TD*%
D27*
%TO.P,U1,1,\u002ARESET*%
%TO.N,/~{RESET}*%
X164947599Y-133599999D03*
%TO.P,U1,2,DVDD*%
%TO.N,/3V3D*%
X164947599Y-134250000D03*
%TO.P,U1,3,AVDD*%
%TO.N,/3V3A*%
X164947599Y-134899998D03*
%TO.P,U1,4,CH0+*%
%TO.N,/CH0+*%
X164947599Y-135550000D03*
%TO.P,U1,5,CH0-*%
%TO.N,/CH0-*%
X164947599Y-136199998D03*
%TO.P,U1,6,CH1-*%
%TO.N,/CH1+*%
X164947599Y-136849997D03*
%TO.P,U1,7,CH1+*%
%TO.N,/CH1-*%
X164947599Y-137499998D03*
%TO.P,U1,8,AGND*%
%TO.N,GNDA*%
X164947599Y-138149997D03*
%TO.P,U1,9,REFIN+/OUT*%
%TO.N,Net-(U1-REFIN+{slash}OUT)*%
X164947599Y-138799998D03*
%TO.P,U1,10,REFIN-*%
%TO.N,GNDA*%
X164947599Y-139449997D03*
%TO.P,U1,11,DGND*%
%TO.N,GNDD*%
X172211999Y-139449999D03*
%TO.P,U1,12,MDAT1*%
%TO.N,unconnected-(U1-MDAT1-Pad12)*%
X172211999Y-138800001D03*
%TO.P,U1,13,MDAT0*%
%TO.N,unconnected-(U1-MDAT0-Pad13)*%
X172211999Y-138150000D03*
%TO.P,U1,14,\u002ADR*%
%TO.N,/~{DR}*%
X172211999Y-137500001D03*
%TO.P,U1,15,OSC1/CLKI*%
%TO.N,Net-(JP1-C)*%
X172211999Y-136850000D03*
%TO.P,U1,16,OSC2*%
%TO.N,/OSC2*%
X172211999Y-136200001D03*
%TO.P,U1,17,\u002ACS*%
%TO.N,/~{CS}*%
X172211999Y-135550000D03*
%TO.P,U1,18,SCK*%
%TO.N,/SCK*%
X172211999Y-134900001D03*
%TO.P,U1,19,SDO*%
%TO.N,/SDI*%
X172211999Y-134250000D03*
%TO.P,U1,20,SDI*%
%TO.N,/SDO*%
X172211999Y-133600001D03*
%TD*%
D22*
%TO.P,R11,1*%
%TO.N,Net-(R10-Pad2)*%
X134939500Y-136017000D03*
%TO.P,R11,2*%
%TO.N,/current_pos*%
X132014500Y-136017000D03*
%TD*%
D13*
%TO.P,TP2,1,1*%
%TO.N,/GND_ext*%
X167259000Y-116713000D03*
%TD*%
%TO.P,TP8,1,1*%
%TO.N,GNDA*%
X153797000Y-136525000D03*
%TD*%
D14*
%TO.P,R12,1*%
%TO.N,/voltage_pos*%
X158850400Y-124670800D03*
%TO.P,R12,2*%
%TO.N,GNDA*%
X161950400Y-124670800D03*
%TD*%
D18*
%TO.P,C5,1*%
%TO.N,/CH1+*%
X151765000Y-140920000D03*
%TO.P,C5,2*%
%TO.N,GNDA*%
X151765000Y-137795000D03*
%TD*%
D13*
%TO.P,TP3,1,1*%
%TO.N,GNDD*%
X184785000Y-123698000D03*
%TD*%
D19*
%TO.P,C3,1*%
%TO.N,/CH0-*%
X151765000Y-132130000D03*
%TO.P,C3,2*%
%TO.N,GNDA*%
X151765000Y-135255000D03*
%TD*%
%TO.P,C1,1*%
%TO.N,/OSC1*%
X173180400Y-148463200D03*
%TO.P,C1,2*%
%TO.N,GNDD*%
X173180400Y-151588200D03*
%TD*%
D28*
%TO.P,R9,1*%
%TO.N,Net-(R6-Pad2)*%
X146972000Y-121324600D03*
%TO.P,R9,2*%
%TO.N,/voltage_pos*%
X156972000Y-123824600D03*
%TO.P,R9,3*%
%TO.N,N/C*%
X146972000Y-126324600D03*
%TD*%
D29*
%TO.P,J1,1,Pin_1*%
%TO.N,/current_neg*%
X125475999Y-143763999D03*
D30*
%TO.P,J1,2,Pin_2*%
%TO.N,HIGH_in*%
X125475999Y-138763999D03*
%TO.P,J1,3,Pin_3*%
X125475999Y-133763999D03*
%TO.P,J1,4,Pin_4*%
%TO.N,/current_pos*%
X125475999Y-128763999D03*
%TD*%
D31*
%TO.P,PS1,1,+Vin*%
%TO.N,/5V_ext*%
X163956999Y-114299999D03*
D32*
%TO.P,PS1,2,-Vin*%
%TO.N,/GND_ext*%
X161417000Y-114300000D03*
%TO.P,PS1,4,-Vout*%
%TO.N,unconnected-(PS1--Vout-Pad4)*%
X156337000Y-114300000D03*
%TO.P,PS1,5,0V*%
%TO.N,GNDD*%
X153797000Y-114300000D03*
%TO.P,PS1,6,+Vout*%
%TO.N,/LM317_Vin*%
X151257000Y-114300000D03*
%TD*%
D11*
%TO.P,JP1,1,A*%
%TO.N,/OSC1_ext*%
X171094399Y-145237199D03*
D12*
%TO.P,JP1,2,C*%
%TO.N,Net-(JP1-C)*%
X168554399Y-145237199D03*
%TO.P,JP1,3,B*%
%TO.N,/OSC1*%
X166014399Y-145237199D03*
%TD*%
D33*
%TO.P,C10,1*%
%TO.N,Net-(C10-Pad1)*%
X120904000Y-118237000D03*
%TO.P,C10,2*%
%TO.N,/x_cap_out*%
X143404000Y-118237000D03*
%TD*%
D34*
%TO.P,Y1,1,1*%
%TO.N,/OSC1*%
X170996000Y-150025700D03*
%TO.P,Y1,2,2*%
%TO.N,/OSC2*%
X166116000Y-150025700D03*
%TD*%
D35*
%TO.N,/CH0-*%
X164947600Y-136199999D02*
X163123999Y-136199999D01*
D36*
X152400000Y-128905000D02*
X152400000Y-130302000D01*
X151765000Y-130937000D02*
X151765000Y-132130000D01*
X152400000Y-130302000D02*
X151765000Y-130937000D01*
D35*
X152400000Y-133604000D02*
X151765000Y-132969000D01*
X160528000Y-133604000D02*
X152400000Y-133604000D01*
X163123999Y-136199999D02*
X160528000Y-133604000D01*
X151765000Y-132969000D02*
X151765000Y-132130000D01*
D36*
%TO.N,GNDA*%
X158369600Y-128879600D02*
X158395000Y-128905000D01*
X161950400Y-125730000D02*
X161950400Y-124670800D01*
D35*
X164947600Y-139449998D02*
X166112002Y-139449998D01*
D36*
X150876000Y-127762000D02*
X151587200Y-127050800D01*
X158369600Y-126466000D02*
X161214400Y-126466000D01*
D35*
X164947600Y-139449998D02*
X164947600Y-140360400D01*
D36*
X150876000Y-130048000D02*
X150876000Y-127762000D01*
D35*
X165201600Y-140614400D02*
X165189300Y-140626700D01*
D36*
X159512000Y-137795000D02*
X160274000Y-137795000D01*
X155575000Y-137795000D02*
X154305000Y-136525000D01*
D35*
X166112002Y-139449998D02*
X166370000Y-139192000D01*
X166370000Y-139192000D02*
X166370000Y-138430000D01*
D36*
X150114000Y-134874000D02*
X150114000Y-130810000D01*
X155752800Y-135255000D02*
X155575000Y-135255000D01*
D35*
X165189300Y-140626700D02*
X165189300Y-142087600D01*
D36*
X157784800Y-127050800D02*
X158395000Y-127661000D01*
X161785702Y-128028298D02*
X163830000Y-128028298D01*
X158369600Y-126466000D02*
X157784800Y-127050800D01*
X150495000Y-135255000D02*
X150114000Y-134874000D01*
D35*
X164947600Y-140360400D02*
X165201600Y-140614400D01*
X166370000Y-138430000D02*
X166089998Y-138149998D01*
D36*
X151765000Y-135255000D02*
X150495000Y-135255000D01*
X161214400Y-126466000D02*
X161950400Y-125730000D01*
D35*
X166089998Y-138149998D02*
X164947600Y-138149998D01*
D36*
X158395000Y-128905000D02*
X160909000Y-128905000D01*
X160274000Y-137795000D02*
X161544000Y-136525000D01*
X151765000Y-135255000D02*
X153035000Y-136525000D01*
X160909000Y-128905000D02*
X161785702Y-128028298D01*
X155752800Y-137795000D02*
X155575000Y-137795000D01*
X155752800Y-137795000D02*
X159512000Y-137795000D01*
X151765000Y-137795000D02*
X153035000Y-136525000D01*
X150114000Y-130810000D02*
X150876000Y-130048000D01*
X151587200Y-127050800D02*
X157784800Y-127050800D01*
X154305000Y-136525000D02*
X153797000Y-136525000D01*
D37*
X164947600Y-141845900D02*
X165189300Y-142087600D01*
D36*
X153797000Y-136525000D02*
X153035000Y-136525000D01*
X158395000Y-127661000D02*
X158395000Y-128905000D01*
X155575000Y-135255000D02*
X154305000Y-136525000D01*
%TO.N,/CH0+*%
X155295000Y-130149000D02*
X155752800Y-130606800D01*
D35*
X160070000Y-132130000D02*
X155752800Y-132130000D01*
X163490001Y-135550001D02*
X160070000Y-132130000D01*
X164947600Y-135550001D02*
X163490001Y-135550001D01*
D36*
X155752800Y-130606800D02*
X155752800Y-132130000D01*
X155295000Y-128905000D02*
X155295000Y-130149000D01*
D35*
%TO.N,/CH1+*%
X152492000Y-139100000D02*
X151765000Y-139827000D01*
X164947600Y-136849998D02*
X163124002Y-136849998D01*
X163124002Y-136849998D02*
X160874000Y-139100000D01*
X160874000Y-139100000D02*
X152492000Y-139100000D01*
D36*
X152400000Y-142748000D02*
X151765000Y-142113000D01*
D35*
X151765000Y-139827000D02*
X151765000Y-140920000D01*
D36*
X152400000Y-144145000D02*
X152400000Y-142748000D01*
X151765000Y-142113000D02*
X151765000Y-140920000D01*
%TO.N,/CH1-*%
X158395000Y-143155000D02*
X157734000Y-142494000D01*
D35*
X155752800Y-140157200D02*
X155752800Y-140920000D01*
X156210000Y-139700000D02*
X155752800Y-140157200D01*
X163490001Y-137499999D02*
X161290000Y-139700000D01*
X164947600Y-137499999D02*
X163490001Y-137499999D01*
D36*
X155752800Y-142036800D02*
X155752800Y-140920000D01*
X156210000Y-142494000D02*
X155752800Y-142036800D01*
X157734000Y-142494000D02*
X156210000Y-142494000D01*
D35*
X161290000Y-139700000D02*
X156210000Y-139700000D01*
D36*
X158395000Y-144145000D02*
X158395000Y-143155000D01*
D35*
%TO.N,Net-(U1-REFIN+{slash}OUT)*%
X161848800Y-141682800D02*
X161086000Y-140920000D01*
X164947600Y-138799999D02*
X163206001Y-138799999D01*
X161086000Y-140920000D02*
X159512000Y-140920000D01*
X163206001Y-138799999D02*
X161086000Y-140920000D01*
%TO.N,/OSC1*%
X170078400Y-148298500D02*
X169190700Y-148298500D01*
X166383400Y-145491200D02*
X166014400Y-145491200D01*
X169190700Y-148298500D02*
X166383400Y-145491200D01*
X170090700Y-148286200D02*
X170078400Y-148298500D01*
X170996000Y-150025700D02*
X170997650Y-150025700D01*
X170948050Y-148310600D02*
X170123150Y-148310600D01*
X171493550Y-148856100D02*
X170948050Y-148310600D01*
X171874350Y-148475300D02*
X173217550Y-148475300D01*
X171493550Y-148856100D02*
X171874350Y-148475300D01*
X171493550Y-149529800D02*
X171493550Y-148856100D01*
X170997650Y-150025700D02*
X171493550Y-149529800D01*
D36*
%TO.N,GNDD*%
X172110400Y-142087600D02*
X170256400Y-142087600D01*
X183388000Y-126111000D02*
X184861200Y-124637800D01*
D38*
X150876000Y-117221000D02*
X153797000Y-114300000D01*
D35*
X163884000Y-151588200D02*
X173180400Y-151588200D01*
X170633200Y-139450000D02*
X170231000Y-139852200D01*
D36*
X184861200Y-124637800D02*
X184861200Y-123647200D01*
D38*
X150876000Y-117856000D02*
X150876000Y-117221000D01*
D36*
X184861200Y-123647200D02*
X180327700Y-123647200D01*
D35*
X172212000Y-141986000D02*
X172110400Y-142087600D01*
X172212000Y-139450000D02*
X172212000Y-141986000D01*
X172212000Y-139450000D02*
X170633200Y-139450000D01*
D36*
X175514000Y-126111000D02*
X183388000Y-126111000D01*
D35*
X170231000Y-139852200D02*
X170231000Y-142113000D01*
D36*
X170256400Y-142087600D02*
X170231000Y-142113000D01*
D35*
%TO.N,/OSC2*%
X168402000Y-137668000D02*
X169869998Y-136200002D01*
X165608000Y-148844000D02*
X165227200Y-148463200D01*
X169869998Y-136200002D02*
X172212000Y-136200002D01*
X163884000Y-148463200D02*
X163884000Y-144218000D01*
X165608000Y-149517700D02*
X165608000Y-148844000D01*
X166153500Y-148298500D02*
X166978400Y-148298500D01*
X164541200Y-143560800D02*
X167843200Y-143560800D01*
X166116000Y-150025700D02*
X165608000Y-149517700D01*
X163884000Y-144218000D02*
X164541200Y-143560800D01*
X165227200Y-148463200D02*
X163884000Y-148463200D01*
X165608000Y-148844000D02*
X166153500Y-148298500D01*
X168402000Y-143002000D02*
X168402000Y-137668000D01*
X167843200Y-143560800D02*
X168402000Y-143002000D01*
%TO.N,/3V3A*%
X162102800Y-131826000D02*
X162775500Y-131153300D01*
X163830000Y-131153298D02*
X166976701Y-131153298D01*
X164947600Y-134899999D02*
X163756198Y-134899999D01*
X163756198Y-134899999D02*
X162102800Y-133246601D01*
X162102800Y-133246601D02*
X162102800Y-131826000D01*
X163829998Y-131153300D02*
X163830000Y-131153298D01*
X162775500Y-131153300D02*
X163829998Y-131153300D01*
X166976701Y-131153298D02*
X167006533Y-131123466D01*
D36*
%TO.N,/3V3D*%
X175361600Y-122885200D02*
X176123600Y-123647200D01*
X174853600Y-121412000D02*
X169545000Y-121412000D01*
D35*
X173329600Y-131144632D02*
X170182898Y-131144632D01*
D36*
X170153066Y-130074934D02*
X170178592Y-130074934D01*
X171704000Y-127000000D02*
X172339000Y-126365000D01*
D35*
X169621200Y-132588000D02*
X170153066Y-132056134D01*
X164947600Y-134250001D02*
X163954728Y-134250001D01*
D36*
X171196000Y-129413000D02*
X171704000Y-128905000D01*
X177202700Y-123647200D02*
X176123600Y-123647200D01*
X170178592Y-130074934D02*
X170840526Y-129413000D01*
D35*
X163677600Y-132588000D02*
X169621200Y-132588000D01*
X170182898Y-131144632D02*
X170153066Y-131114800D01*
D36*
X174117000Y-124079000D02*
X175310800Y-122885200D01*
D35*
X163271200Y-133566473D02*
X163271200Y-132994400D01*
D36*
X175361600Y-122885200D02*
X175361600Y-121920000D01*
D35*
X163954728Y-134250001D02*
X163271200Y-133566473D01*
D36*
X175361600Y-121920000D02*
X174853600Y-121412000D01*
X171704000Y-128905000D02*
X171704000Y-127000000D01*
X170153066Y-131114800D02*
X170153066Y-130074934D01*
X172339000Y-126365000D02*
X173355000Y-126365000D01*
X170840526Y-129413000D02*
X171196000Y-129413000D01*
X173355000Y-126365000D02*
X174117000Y-125603000D01*
X175310800Y-122885200D02*
X175361600Y-122885200D01*
D35*
X163271200Y-132994400D02*
X163677600Y-132588000D01*
D36*
X174117000Y-125603000D02*
X174117000Y-124079000D01*
D35*
X170153066Y-132056134D02*
X170153066Y-131114800D01*
D38*
%TO.N,Net-(C10-Pad1)*%
X131699000Y-121615000D02*
X131699000Y-120015000D01*
X131699000Y-120015000D02*
X129921000Y-118237000D01*
X129921000Y-118237000D02*
X120904000Y-118237000D01*
%TO.N,/x_cap_out*%
X140462000Y-125222000D02*
X140462000Y-119684800D01*
X141909800Y-118237000D02*
X140462000Y-119684800D01*
X141909800Y-118237000D02*
X143404000Y-118237000D01*
X143838000Y-118237000D02*
X141909800Y-118237000D01*
D39*
%TO.N,/LM317_Vin*%
X148844000Y-116713000D02*
X151257000Y-114300000D01*
X148844000Y-117475000D02*
X148844000Y-116713000D01*
D35*
%TO.N,Net-(FB1-Pad1)*%
X167006533Y-128023466D02*
X167006533Y-125761333D01*
X167006533Y-125761333D02*
X165603600Y-124358400D01*
%TO.N,+3.3V*%
X170153066Y-128014800D02*
X170153066Y-125608934D01*
D36*
X171403600Y-123003600D02*
X171403600Y-124358400D01*
X168021000Y-121412000D02*
X168021000Y-121721000D01*
X168862800Y-122562800D02*
X170962800Y-122562800D01*
D35*
X170153066Y-125608934D02*
X171403600Y-124358400D01*
D36*
X170962800Y-122562800D02*
X171403600Y-123003600D01*
X168021000Y-121721000D02*
X168862800Y-122562800D01*
D38*
%TO.N,HIGH_in*%
X132715000Y-126873000D02*
X133807000Y-126873000D01*
D40*
X125476000Y-136271000D02*
X125476000Y-133764000D01*
D38*
X121920000Y-136271000D02*
X125476000Y-136271000D01*
D40*
X125476000Y-138764000D02*
X125476000Y-136271000D01*
D38*
X122631000Y-124765000D02*
X120523000Y-126873000D01*
X131699000Y-125857000D02*
X132715000Y-126873000D01*
X120523000Y-126873000D02*
X120523000Y-134874000D01*
X131699000Y-124765000D02*
X122631000Y-124765000D01*
X120523000Y-134874000D02*
X121920000Y-136271000D01*
X131699000Y-124765000D02*
X131699000Y-125857000D01*
D35*
%TO.N,/~{RESET}_*%
X183159400Y-131394200D02*
X183184800Y-131368800D01*
X181416108Y-131394200D02*
X183159400Y-131394200D01*
%TO.N,/SDO_*%
X181452046Y-133939154D02*
X183113554Y-133939154D01*
%TO.N,/SDI_*%
X181477446Y-136504554D02*
X183129046Y-136504554D01*
%TO.N,/SCK_*%
X181477446Y-139044554D02*
X183129046Y-139044554D01*
%TO.N,/~{CS}_*%
X183179846Y-141584554D02*
X183184800Y-141579600D01*
X181477446Y-141584554D02*
X183179846Y-141584554D01*
%TO.N,/~{DR}_*%
X183179846Y-144124554D02*
X183184800Y-144119600D01*
X181477446Y-144124554D02*
X183179846Y-144124554D01*
%TO.N,/OSC1_ext_*%
X183179846Y-146664554D02*
X183184800Y-146659600D01*
X181503446Y-146664554D02*
X183179846Y-146664554D01*
D36*
%TO.N,/5V_ext*%
X167259000Y-114300000D02*
X163957000Y-114300000D01*
D35*
%TO.N,/OSC1_ext*%
X171094400Y-145237200D02*
X175158400Y-145237200D01*
X175158400Y-145237200D02*
X176585754Y-146664554D01*
X176585754Y-146664554D02*
X178403446Y-146664554D01*
X170484800Y-144881600D02*
X171754400Y-144881600D01*
%TO.N,Net-(JP1-C)*%
X169002000Y-137957000D02*
X169164000Y-137795000D01*
X168554400Y-143698128D02*
X169002000Y-143250528D01*
X170134399Y-136850001D02*
X172212000Y-136850001D01*
X169164000Y-137795000D02*
X170134399Y-136850001D01*
X169002000Y-143250528D02*
X169002000Y-137957000D01*
X168554400Y-145237200D02*
X168554400Y-143698128D01*
D40*
%TO.N,/current_pos*%
X132014500Y-136017000D02*
X132014500Y-133157500D01*
D39*
X136789500Y-135250705D02*
X134696295Y-133157500D01*
X137795000Y-146177000D02*
X136789500Y-145171500D01*
D40*
X127621000Y-128764000D02*
X125476000Y-128764000D01*
D39*
X136789500Y-145171500D02*
X136789500Y-135250705D01*
D40*
X132014500Y-133157500D02*
X127621000Y-128764000D01*
D39*
X134696295Y-133157500D02*
X132014500Y-133157500D01*
X140475000Y-146177000D02*
X137795000Y-146177000D01*
%TO.N,Net-(L1-Pad2)*%
X141638000Y-140800000D02*
X139192000Y-138354000D01*
X137795000Y-126873000D02*
X136957000Y-126873000D01*
X138303000Y-127381000D02*
X137795000Y-126873000D01*
X138303000Y-132715000D02*
X138303000Y-127381000D01*
X139192000Y-133604000D02*
X138303000Y-132715000D01*
X139192000Y-138354000D02*
X139192000Y-133604000D01*
%TO.N,/current_neg*%
X140475000Y-148717000D02*
X134939500Y-148717000D01*
D40*
X125476000Y-146533000D02*
X125476000Y-143764000D01*
X134939500Y-149610377D02*
X133057877Y-151492000D01*
X133057877Y-151492000D02*
X130385000Y-151492000D01*
X130385000Y-151492000D02*
X125451000Y-146558000D01*
X125451000Y-146558000D02*
X125476000Y-146533000D01*
X134939500Y-148717000D02*
X134939500Y-149610377D01*
D39*
%TO.N,Net-(L2-Pad2)*%
X146050000Y-146177000D02*
X148082000Y-144145000D01*
X143625000Y-146177000D02*
X146050000Y-146177000D01*
X148082000Y-144145000D02*
X149300000Y-144145000D01*
%TO.N,Net-(L3-Pad2)*%
X155321000Y-144171000D02*
X155295000Y-144145000D01*
X143625000Y-148717000D02*
X146177000Y-148717000D01*
X155321000Y-145288000D02*
X155321000Y-144171000D01*
X154178000Y-146431000D02*
X155321000Y-145288000D01*
X146177000Y-148717000D02*
X148463000Y-146431000D01*
X148463000Y-146431000D02*
X154178000Y-146431000D01*
D38*
%TO.N,/voltage_pos*%
X149300000Y-125297000D02*
X149222000Y-125219000D01*
D36*
X157818200Y-124670800D02*
X156972000Y-123824600D01*
D38*
X149300000Y-128905000D02*
X149300000Y-125297000D01*
X156971600Y-123825000D02*
X156972000Y-123824600D01*
X155829000Y-123792513D02*
X155829000Y-123825000D01*
X153111087Y-121074600D02*
X155829000Y-123792513D01*
X155829000Y-123825000D02*
X156971600Y-123825000D01*
X149222000Y-122685000D02*
X150832400Y-121074600D01*
D36*
X158850400Y-124670800D02*
X157818200Y-124670800D01*
D38*
X149222000Y-125219000D02*
X149222000Y-122685000D01*
X150832400Y-121074600D02*
X153111087Y-121074600D01*
D39*
%TO.N,Net-(R6-Pad2)*%
X143205200Y-128371600D02*
X143205200Y-124300200D01*
X144780000Y-132100000D02*
X144780000Y-129946400D01*
X144780000Y-129946400D02*
X143205200Y-128371600D01*
X143205200Y-124300200D02*
X146180800Y-121324600D01*
D40*
%TO.N,Net-(R10-Pad1)*%
X132014500Y-142367000D02*
X132014500Y-139192000D01*
D35*
%TO.N,/SCK*%
X178377446Y-139044554D02*
X176890554Y-139044554D01*
X176890554Y-139044554D02*
X176784000Y-138938000D01*
X176784000Y-137637856D02*
X176784000Y-138938000D01*
X174046146Y-134900002D02*
X176784000Y-137637856D01*
X172212000Y-134900002D02*
X174046146Y-134900002D01*
%TO.N,/~{DR}*%
X175584000Y-143021200D02*
X176687354Y-144124554D01*
X173872802Y-137500002D02*
X175584000Y-139211200D01*
X175584000Y-139211200D02*
X175584000Y-143021200D01*
X176687354Y-144124554D02*
X178377446Y-144124554D01*
X172212000Y-137500002D02*
X173872802Y-137500002D01*
%TO.N,/SDO*%
X178352046Y-133939154D02*
X174782354Y-133939154D01*
X174782354Y-133939154D02*
X174443202Y-133600002D01*
X172212000Y-133600002D02*
X174443202Y-133600002D01*
%TO.N,/SDI*%
X172212000Y-134250001D02*
X174244673Y-134250001D01*
X176499226Y-136504554D02*
X178377446Y-136504554D01*
X174244673Y-134250001D02*
X176499226Y-136504554D01*
%TO.N,/~{CS}*%
X176738154Y-141584554D02*
X178377446Y-141584554D01*
X176184000Y-141030400D02*
X176738154Y-141584554D01*
X176184000Y-137886384D02*
X176184000Y-141030400D01*
X173847617Y-135550001D02*
X176184000Y-137886384D01*
X172212000Y-135550001D02*
X173847617Y-135550001D01*
%TO.N,/~{RESET}*%
X164947600Y-133600000D02*
X169980800Y-133600000D01*
X174447200Y-132486400D02*
X175539400Y-131394200D01*
X175539400Y-131394200D02*
X178316108Y-131394200D01*
X171094400Y-132486400D02*
X174447200Y-132486400D01*
X169980800Y-133600000D02*
X171094400Y-132486400D01*
D36*
%TO.N,/GND_ext*%
X167259000Y-116713000D02*
X162560000Y-116713000D01*
X162560000Y-116713000D02*
X161417000Y-115570000D01*
X161417000Y-115570000D02*
X161417000Y-114300000D01*
D39*
%TO.N,Net-(R2-Pad2)*%
X144664000Y-140800000D02*
X141764000Y-137900000D01*
X144738000Y-140800000D02*
X144664000Y-140800000D01*
%TO.N,Net-(R3-Pad2)*%
X144622000Y-137900000D02*
X141722000Y-135000000D01*
X144864000Y-137900000D02*
X144622000Y-137900000D01*
D40*
%TO.N,Net-(R4-Pad2)*%
X132014500Y-148717000D02*
X132014500Y-145542000D01*
D39*
%TO.N,Net-(R5-Pad2)*%
X144580000Y-135000000D02*
X141680000Y-132100000D01*
X144822000Y-135000000D02*
X144580000Y-135000000D01*
D40*
%TO.N,Net-(R7-Pad2)*%
X134939500Y-145542000D02*
X134939500Y-142367000D01*
%TO.N,Net-(R10-Pad2)*%
X134939500Y-139192000D02*
X134939500Y-136017000D01*
%TD*%
%TA.AperFunction,Conductor*%
%TO.N,GNDD*%
G36*
X188738000Y-120920613D02*
G01*
X188783387Y-120966000D01*
X188800000Y-121028000D01*
X188800000Y-151748638D01*
X188790561Y-151796091D01*
X188763681Y-151836319D01*
X188036378Y-152563621D01*
X187996083Y-152590528D01*
X187948554Y-152599940D01*
X174573548Y-152584478D01*
X174510819Y-152567357D01*
X174465378Y-152520847D01*
X174449721Y-152457737D01*
X174468153Y-152395380D01*
X174510966Y-152325968D01*
X174517029Y-152312967D01*
X174567775Y-152159825D01*
X174570594Y-152146658D01*
X174580080Y-152053809D01*
X174580400Y-152047532D01*
X174580400Y-151854526D01*
X174576949Y-151841650D01*
X174564074Y-151838200D01*
X171796727Y-151838200D01*
X171783851Y-151841650D01*
X171780401Y-151854526D01*
X171780401Y-152047529D01*
X171780721Y-152053811D01*
X171790205Y-152146659D01*
X171793023Y-152159822D01*
X171843770Y-152312967D01*
X171849832Y-152325966D01*
X171890658Y-152392156D01*
X171909090Y-152454584D01*
X171893361Y-152517747D01*
X171847805Y-152564241D01*
X171784976Y-152581253D01*
X165283772Y-152573738D01*
X165221043Y-152556617D01*
X165175602Y-152510106D01*
X165159945Y-152446996D01*
X165178377Y-152384640D01*
X165214567Y-152325968D01*
X165220629Y-152312967D01*
X165271375Y-152159825D01*
X165274194Y-152146658D01*
X165283680Y-152053809D01*
X165284000Y-152047532D01*
X165284000Y-151854526D01*
X165280549Y-151841650D01*
X165267674Y-151838200D01*
X162500327Y-151838200D01*
X162487451Y-151841650D01*
X162484001Y-151854526D01*
X162484001Y-152047529D01*
X162484321Y-152053811D01*
X162493805Y-152146659D01*
X162496623Y-152159822D01*
X162547370Y-152312967D01*
X162553432Y-152325966D01*
X162587625Y-152381402D01*
X162606057Y-152443830D01*
X162590329Y-152506993D01*
X162544773Y-152553487D01*
X162481943Y-152570499D01*
X148332857Y-152554143D01*
X148270917Y-152537482D01*
X148225589Y-152492102D01*
X148209000Y-152430143D01*
X148209000Y-151321874D01*
X162484000Y-151321874D01*
X162487450Y-151334749D01*
X162500326Y-151338200D01*
X163617674Y-151338200D01*
X163630549Y-151334749D01*
X163634000Y-151321874D01*
X163634000Y-150442027D01*
X163630549Y-150429151D01*
X163617674Y-150425701D01*
X163187171Y-150425701D01*
X163180888Y-150426021D01*
X163088040Y-150435505D01*
X163074877Y-150438323D01*
X162921732Y-150489070D01*
X162908733Y-150495132D01*
X162771805Y-150579590D01*
X162760544Y-150588494D01*
X162646794Y-150702244D01*
X162637890Y-150713505D01*
X162553432Y-150850433D01*
X162547370Y-150863432D01*
X162496624Y-151016574D01*
X162493805Y-151029741D01*
X162484319Y-151122590D01*
X162484000Y-151128868D01*
X162484000Y-151321874D01*
X148209000Y-151321874D01*
X148209000Y-148754043D01*
X153589167Y-148754043D01*
X153589167Y-151290757D01*
X157290508Y-151290757D01*
X157306834Y-151290757D01*
X157306834Y-148754043D01*
X153589167Y-148754043D01*
X148209000Y-148754043D01*
X148209000Y-148009861D01*
X148218439Y-147962408D01*
X148245319Y-147922180D01*
X148799680Y-147367819D01*
X148839908Y-147340939D01*
X148887361Y-147331500D01*
X154097374Y-147331500D01*
X154116772Y-147333027D01*
X154130612Y-147335219D01*
X154198336Y-147331670D01*
X154204826Y-147331500D01*
X154221952Y-147331500D01*
X154225192Y-147331500D01*
X154228413Y-147331161D01*
X154228421Y-147331161D01*
X154245447Y-147329371D01*
X154251906Y-147328862D01*
X154319646Y-147325313D01*
X154333187Y-147321683D01*
X154352316Y-147318138D01*
X154366256Y-147316674D01*
X154430761Y-147295714D01*
X154436962Y-147293877D01*
X154502488Y-147276320D01*
X154514973Y-147269957D01*
X154532956Y-147262508D01*
X154546284Y-147258179D01*
X154605035Y-147224257D01*
X154610710Y-147221177D01*
X154671149Y-147190383D01*
X154682045Y-147181558D01*
X154698083Y-147170537D01*
X154710216Y-147163533D01*
X154760657Y-147118115D01*
X154765533Y-147113951D01*
X154781380Y-147101119D01*
X154795779Y-147086718D01*
X154800470Y-147082266D01*
X154850888Y-147036871D01*
X154859125Y-147025532D01*
X154871761Y-147010736D01*
X155591379Y-146291118D01*
X155631607Y-146264239D01*
X155679060Y-146254800D01*
X163059500Y-146254800D01*
X163121500Y-146271413D01*
X163166887Y-146316800D01*
X163183500Y-146378800D01*
X163183500Y-147189291D01*
X163170977Y-147243594D01*
X163135938Y-147286930D01*
X163086215Y-147310188D01*
X163081203Y-147310701D01*
X163074783Y-147312828D01*
X163074780Y-147312829D01*
X162921521Y-147363614D01*
X162921517Y-147363615D01*
X162914666Y-147365886D01*
X162908522Y-147369675D01*
X162908519Y-147369677D01*
X162771488Y-147454197D01*
X162771480Y-147454203D01*
X162765344Y-147457988D01*
X162760242Y-147463089D01*
X162760238Y-147463093D01*
X162646393Y-147576938D01*
X162646389Y-147576942D01*
X162641288Y-147582044D01*
X162637503Y-147588180D01*
X162637497Y-147588188D01*
X162552977Y-147725219D01*
X162549186Y-147731366D01*
X162546915Y-147738217D01*
X162546914Y-147738221D01*
X162496435Y-147890558D01*
X162494001Y-147897903D01*
X162493313Y-147904633D01*
X162493312Y-147904640D01*
X162483819Y-147997559D01*
X162483818Y-147997577D01*
X162483500Y-148000691D01*
X162483500Y-148003838D01*
X162483500Y-148003839D01*
X162483500Y-148922558D01*
X162483500Y-148922577D01*
X162483501Y-148925708D01*
X162483820Y-148928840D01*
X162483821Y-148928841D01*
X162493312Y-149021761D01*
X162493313Y-149021769D01*
X162494001Y-149028497D01*
X162496129Y-149034919D01*
X162496130Y-149034923D01*
X162532692Y-149145259D01*
X162549186Y-149195034D01*
X162552977Y-149201180D01*
X162637497Y-149338211D01*
X162637500Y-149338215D01*
X162641288Y-149344356D01*
X162765344Y-149468412D01*
X162771485Y-149472200D01*
X162771488Y-149472202D01*
X162812768Y-149497663D01*
X162914666Y-149560514D01*
X163081203Y-149615699D01*
X163183991Y-149626200D01*
X164584008Y-149626199D01*
X164686797Y-149615699D01*
X164736766Y-149599140D01*
X164802605Y-149595786D01*
X164860861Y-149626652D01*
X164895063Y-149683013D01*
X164895543Y-149748939D01*
X164881193Y-149802494D01*
X164881190Y-149802506D01*
X164879793Y-149807723D01*
X164879321Y-149813107D01*
X164879321Y-149813113D01*
X164871804Y-149899042D01*
X164860723Y-150025700D01*
X164861195Y-150031095D01*
X164879320Y-150238278D01*
X164879321Y-150238285D01*
X164879793Y-150243677D01*
X164881193Y-150248904D01*
X164881195Y-150248912D01*
X164895698Y-150303037D01*
X164895218Y-150368962D01*
X164861017Y-150425324D01*
X164802762Y-150456191D01*
X164736920Y-150452836D01*
X164693128Y-150438325D01*
X164679958Y-150435505D01*
X164587109Y-150426019D01*
X164580832Y-150425700D01*
X164150326Y-150425700D01*
X164137450Y-150429150D01*
X164134000Y-150442026D01*
X164134000Y-151321874D01*
X164137450Y-151334749D01*
X164150326Y-151338200D01*
X165267673Y-151338200D01*
X165280548Y-151334749D01*
X165283999Y-151321874D01*
X165283999Y-151207908D01*
X165301990Y-151143579D01*
X165350744Y-151097918D01*
X165416112Y-151084174D01*
X165479126Y-151106336D01*
X165483925Y-151109697D01*
X165483934Y-151109702D01*
X165488361Y-151112802D01*
X165493261Y-151115087D01*
X165493263Y-151115088D01*
X165621103Y-151174701D01*
X165686670Y-151205275D01*
X165795157Y-151234344D01*
X165892790Y-151260505D01*
X165892791Y-151260505D01*
X165898023Y-151261907D01*
X166116000Y-151280977D01*
X166333977Y-151261907D01*
X166545330Y-151205275D01*
X166743639Y-151112802D01*
X166922877Y-150987298D01*
X167077598Y-150832577D01*
X167203102Y-150653339D01*
X167295575Y-150455030D01*
X167352207Y-150243677D01*
X167371277Y-150025700D01*
X167352207Y-149807723D01*
X167353859Y-149807578D01*
X167359739Y-149748637D01*
X167400191Y-149695121D01*
X167462595Y-149670506D01*
X167531197Y-149663499D01*
X167697734Y-149608314D01*
X167847056Y-149516212D01*
X167971112Y-149392156D01*
X168063214Y-149242834D01*
X168118399Y-149076297D01*
X168128900Y-148973509D01*
X168128899Y-148526716D01*
X168142414Y-148470423D01*
X168180013Y-148426400D01*
X168233501Y-148404245D01*
X168291217Y-148408787D01*
X168340580Y-148439037D01*
X168677759Y-148776216D01*
X168682893Y-148781670D01*
X168717793Y-148821065D01*
X168717797Y-148821068D01*
X168722771Y-148826683D01*
X168728947Y-148830946D01*
X168772274Y-148860853D01*
X168778305Y-148865291D01*
X168808234Y-148888739D01*
X168825644Y-148902378D01*
X168834880Y-148906534D01*
X168854427Y-148917559D01*
X168862770Y-148923318D01*
X168867856Y-148925246D01*
X168912187Y-148964897D01*
X168932830Y-149021762D01*
X168934175Y-149034925D01*
X168938401Y-149076297D01*
X168940529Y-149082719D01*
X168940530Y-149082723D01*
X168979783Y-149201180D01*
X168993586Y-149242834D01*
X168997377Y-149248980D01*
X169081897Y-149386011D01*
X169081900Y-149386015D01*
X169085688Y-149392156D01*
X169209744Y-149516212D01*
X169215885Y-149520000D01*
X169215888Y-149520002D01*
X169229324Y-149528289D01*
X169359066Y-149608314D01*
X169525603Y-149663499D01*
X169628391Y-149674000D01*
X169636157Y-149673999D01*
X169701258Y-149692455D01*
X169746978Y-149742343D01*
X169759698Y-149808806D01*
X169751804Y-149899042D01*
X169740723Y-150025700D01*
X169741195Y-150031095D01*
X169759320Y-150238278D01*
X169759321Y-150238285D01*
X169759793Y-150243677D01*
X169761192Y-150248899D01*
X169761194Y-150248909D01*
X169812941Y-150442027D01*
X169816425Y-150455030D01*
X169818709Y-150459929D01*
X169818712Y-150459936D01*
X169906611Y-150648436D01*
X169906614Y-150648442D01*
X169908898Y-150653339D01*
X169911997Y-150657766D01*
X169911999Y-150657768D01*
X170031296Y-150828142D01*
X170031299Y-150828146D01*
X170034402Y-150832577D01*
X170189123Y-150987298D01*
X170193555Y-150990401D01*
X170193557Y-150990403D01*
X170249736Y-151029740D01*
X170368361Y-151112802D01*
X170373261Y-151115087D01*
X170373263Y-151115088D01*
X170501103Y-151174701D01*
X170566670Y-151205275D01*
X170675157Y-151234344D01*
X170772790Y-151260505D01*
X170772791Y-151260505D01*
X170778023Y-151261907D01*
X170996000Y-151280977D01*
X171213977Y-151261907D01*
X171425330Y-151205275D01*
X171603995Y-151121961D01*
X171664510Y-151110609D01*
X171723025Y-151129763D01*
X171765114Y-151174701D01*
X171780400Y-151234344D01*
X171780400Y-151321874D01*
X171783850Y-151334749D01*
X171796726Y-151338200D01*
X172914074Y-151338200D01*
X172926949Y-151334749D01*
X172930400Y-151321874D01*
X173430400Y-151321874D01*
X173433850Y-151334749D01*
X173446726Y-151338200D01*
X174564073Y-151338200D01*
X174576948Y-151334749D01*
X174580399Y-151321874D01*
X174580399Y-151255551D01*
X184346688Y-151255551D01*
X184347056Y-151266780D01*
X184399168Y-151461263D01*
X184402856Y-151471397D01*
X184498113Y-151675676D01*
X184503501Y-151685008D01*
X184632784Y-151869643D01*
X184639721Y-151877909D01*
X184799090Y-152037278D01*
X184807356Y-152044215D01*
X184991991Y-152173498D01*
X185001323Y-152178886D01*
X185205602Y-152274143D01*
X185215736Y-152277831D01*
X185410219Y-152329943D01*
X185421448Y-152330311D01*
X185424000Y-152319369D01*
X185924000Y-152319369D01*
X185926551Y-152330311D01*
X185937780Y-152329943D01*
X186132263Y-152277831D01*
X186142397Y-152274143D01*
X186346676Y-152178886D01*
X186356008Y-152173498D01*
X186540643Y-152044215D01*
X186548909Y-152037278D01*
X186708278Y-151877909D01*
X186715215Y-151869643D01*
X186844498Y-151685008D01*
X186849886Y-151675676D01*
X186945143Y-151471397D01*
X186948831Y-151461263D01*
X187000943Y-151266780D01*
X187001311Y-151255551D01*
X186990369Y-151253000D01*
X185940326Y-151253000D01*
X185927450Y-151256450D01*
X185924000Y-151269326D01*
X185924000Y-152319369D01*
X185424000Y-152319369D01*
X185424000Y-151269326D01*
X185420549Y-151256450D01*
X185407674Y-151253000D01*
X184357631Y-151253000D01*
X184346688Y-151255551D01*
X174580399Y-151255551D01*
X174580399Y-151128871D01*
X174580078Y-151122588D01*
X174570594Y-151029740D01*
X174567776Y-151016577D01*
X174517029Y-150863432D01*
X174510967Y-150850433D01*
X174426509Y-150713505D01*
X174417605Y-150702244D01*
X174303855Y-150588494D01*
X174292594Y-150579590D01*
X174155666Y-150495132D01*
X174142667Y-150489070D01*
X173989525Y-150438324D01*
X173976358Y-150435505D01*
X173883509Y-150426019D01*
X173877232Y-150425700D01*
X173446726Y-150425700D01*
X173433850Y-150429150D01*
X173430400Y-150442026D01*
X173430400Y-151321874D01*
X172930400Y-151321874D01*
X172930400Y-150442027D01*
X172926949Y-150429151D01*
X172914074Y-150425701D01*
X172483571Y-150425701D01*
X172477288Y-150426021D01*
X172384437Y-150435506D01*
X172366602Y-150439324D01*
X172304003Y-150436533D01*
X172250761Y-150403491D01*
X172220473Y-150348636D01*
X172220873Y-150285975D01*
X172230804Y-150248913D01*
X172230805Y-150248909D01*
X172232207Y-150243677D01*
X172251277Y-150025700D01*
X172232207Y-149807723D01*
X172221018Y-149765969D01*
X172220956Y-149756232D01*
X175898813Y-149756232D01*
X175907285Y-149763723D01*
X176013092Y-149820278D01*
X176024292Y-149824917D01*
X176201135Y-149878562D01*
X176213030Y-149880928D01*
X176396939Y-149899042D01*
X176409061Y-149899042D01*
X176592969Y-149880928D01*
X176604864Y-149878562D01*
X176781707Y-149824917D01*
X176792907Y-149820278D01*
X176898713Y-149763723D01*
X176907185Y-149756232D01*
X176901254Y-149746608D01*
X176414542Y-149259895D01*
X176402999Y-149253231D01*
X176391457Y-149259895D01*
X175904743Y-149746609D01*
X175898813Y-149756232D01*
X172220956Y-149756232D01*
X172220619Y-149703308D01*
X172250909Y-149648452D01*
X172304153Y-149615411D01*
X172366753Y-149612622D01*
X172371173Y-149613568D01*
X172377603Y-149615699D01*
X172480391Y-149626200D01*
X173880408Y-149626199D01*
X173983197Y-149615699D01*
X174149734Y-149560514D01*
X174299056Y-149468412D01*
X174423112Y-149344356D01*
X174515214Y-149195034D01*
X174570399Y-149028497D01*
X174580900Y-148925709D01*
X174580900Y-148900861D01*
X175398758Y-148900861D01*
X175416871Y-149084769D01*
X175419237Y-149096664D01*
X175472882Y-149273507D01*
X175477520Y-149284704D01*
X175534076Y-149390516D01*
X175541565Y-149398985D01*
X175551189Y-149393055D01*
X176037903Y-148906341D01*
X176044567Y-148894799D01*
X176761431Y-148894799D01*
X176768095Y-148906341D01*
X177254807Y-149393053D01*
X177264433Y-149398984D01*
X177271923Y-149390513D01*
X177328478Y-149284707D01*
X177333117Y-149273507D01*
X177386762Y-149096664D01*
X177389128Y-149084769D01*
X177407242Y-148900861D01*
X177407242Y-148888739D01*
X177389128Y-148704830D01*
X177386762Y-148692935D01*
X177333117Y-148516092D01*
X177328478Y-148504892D01*
X177271923Y-148399085D01*
X177264432Y-148390613D01*
X177254808Y-148396544D01*
X176768095Y-148883256D01*
X176761431Y-148894799D01*
X176044567Y-148894799D01*
X176037903Y-148883256D01*
X175551190Y-148396544D01*
X175541566Y-148390613D01*
X175534075Y-148399084D01*
X175477520Y-148504893D01*
X175472882Y-148516092D01*
X175419237Y-148692935D01*
X175416871Y-148704830D01*
X175398758Y-148888739D01*
X175398758Y-148900861D01*
X174580900Y-148900861D01*
X174580899Y-148033366D01*
X175898813Y-148033366D01*
X175904743Y-148042989D01*
X176391457Y-148529703D01*
X176403000Y-148536367D01*
X176414542Y-148529703D01*
X176901254Y-148042990D01*
X176907185Y-148033365D01*
X176898716Y-148025876D01*
X176792904Y-147969320D01*
X176781707Y-147964682D01*
X176604864Y-147911037D01*
X176592969Y-147908671D01*
X176409061Y-147890558D01*
X176396939Y-147890558D01*
X176213030Y-147908671D01*
X176201135Y-147911037D01*
X176024292Y-147964682D01*
X176013093Y-147969320D01*
X175907284Y-148025875D01*
X175898813Y-148033366D01*
X174580899Y-148033366D01*
X174580899Y-148000692D01*
X174570399Y-147897903D01*
X174515214Y-147731366D01*
X174447030Y-147620821D01*
X174426902Y-147588188D01*
X174426900Y-147588185D01*
X174423112Y-147582044D01*
X174299056Y-147457988D01*
X174292915Y-147454200D01*
X174292911Y-147454197D01*
X174155880Y-147369677D01*
X174149734Y-147365886D01*
X174135052Y-147361021D01*
X173989625Y-147312831D01*
X173989624Y-147312830D01*
X173983197Y-147310701D01*
X173976464Y-147310013D01*
X173976459Y-147310012D01*
X173883540Y-147300519D01*
X173883523Y-147300518D01*
X173880409Y-147300200D01*
X173877260Y-147300200D01*
X172483540Y-147300200D01*
X172483520Y-147300200D01*
X172480392Y-147300201D01*
X172477260Y-147300520D01*
X172477258Y-147300521D01*
X172384338Y-147310012D01*
X172384328Y-147310013D01*
X172377603Y-147310701D01*
X172371181Y-147312828D01*
X172371176Y-147312830D01*
X172217921Y-147363614D01*
X172217917Y-147363615D01*
X172211066Y-147365886D01*
X172204922Y-147369675D01*
X172204919Y-147369677D01*
X172067888Y-147454197D01*
X172067880Y-147454203D01*
X172061744Y-147457988D01*
X172056642Y-147463089D01*
X172056638Y-147463093D01*
X171942793Y-147576938D01*
X171942789Y-147576942D01*
X171937688Y-147582044D01*
X171933901Y-147588183D01*
X171933900Y-147588185D01*
X171849065Y-147725725D01*
X171810386Y-147765058D01*
X171758475Y-147783724D01*
X171712919Y-147789256D01*
X171712915Y-147789256D01*
X171705478Y-147790160D01*
X171698469Y-147792817D01*
X171698464Y-147792819D01*
X171695993Y-147793756D01*
X171674403Y-147799774D01*
X171671802Y-147800250D01*
X171671788Y-147800254D01*
X171664419Y-147801605D01*
X171657582Y-147804681D01*
X171657582Y-147804682D01*
X171609576Y-147826287D01*
X171602659Y-147829152D01*
X171573948Y-147840041D01*
X171524984Y-147847998D01*
X171476819Y-147836127D01*
X171437162Y-147806327D01*
X171420957Y-147788035D01*
X171420952Y-147788031D01*
X171415979Y-147782417D01*
X171366460Y-147748236D01*
X171360454Y-147743816D01*
X171358317Y-147742142D01*
X171336717Y-147725219D01*
X171319011Y-147711347D01*
X171319008Y-147711345D01*
X171313107Y-147706722D01*
X171306269Y-147703644D01*
X171306260Y-147703639D01*
X171303860Y-147702559D01*
X171284310Y-147691532D01*
X171279269Y-147688052D01*
X171242991Y-147649140D01*
X171226357Y-147598607D01*
X171219087Y-147527438D01*
X171219086Y-147527437D01*
X171218399Y-147520703D01*
X171163214Y-147354166D01*
X171104009Y-147258179D01*
X171074902Y-147210988D01*
X171074900Y-147210985D01*
X171071112Y-147204844D01*
X170947056Y-147080788D01*
X170940915Y-147077000D01*
X170940911Y-147076997D01*
X170803880Y-146992477D01*
X170797734Y-146988686D01*
X170725059Y-146964604D01*
X170637625Y-146935631D01*
X170637624Y-146935630D01*
X170631197Y-146933501D01*
X170624464Y-146932813D01*
X170624459Y-146932812D01*
X170531540Y-146923319D01*
X170531523Y-146923318D01*
X170528409Y-146923000D01*
X170525260Y-146923000D01*
X169631541Y-146923000D01*
X169631521Y-146923000D01*
X169628392Y-146923001D01*
X169625260Y-146923320D01*
X169625258Y-146923321D01*
X169532338Y-146932812D01*
X169532328Y-146932813D01*
X169525603Y-146933501D01*
X169519181Y-146935628D01*
X169519176Y-146935630D01*
X169365921Y-146986414D01*
X169365917Y-146986415D01*
X169359066Y-146988686D01*
X169352922Y-146992475D01*
X169352919Y-146992477D01*
X169215889Y-147076997D01*
X169215884Y-147077000D01*
X169209744Y-147080788D01*
X169204647Y-147085884D01*
X169204638Y-147085892D01*
X169174372Y-147116158D01*
X169118784Y-147148249D01*
X169054598Y-147148248D01*
X168999012Y-147116155D01*
X168670078Y-146787221D01*
X168636698Y-146726378D01*
X168641237Y-146657129D01*
X168682273Y-146601164D01*
X168746951Y-146576012D01*
X168789808Y-146572263D01*
X169018063Y-146511103D01*
X169232230Y-146411235D01*
X169425801Y-146275695D01*
X169547729Y-146153766D01*
X169600472Y-146122473D01*
X169661765Y-146120284D01*
X169716610Y-146147737D01*
X169751589Y-146198116D01*
X169800604Y-146329531D01*
X169805918Y-146336630D01*
X169805919Y-146336631D01*
X169861767Y-146411235D01*
X169886854Y-146444746D01*
X170002069Y-146530996D01*
X170136917Y-146581291D01*
X170196527Y-146587700D01*
X171992272Y-146587699D01*
X172051883Y-146581291D01*
X172186731Y-146530996D01*
X172301946Y-146444746D01*
X172388196Y-146329531D01*
X172438491Y-146194683D01*
X172444900Y-146135073D01*
X172444900Y-146061700D01*
X172461513Y-145999700D01*
X172506900Y-145954313D01*
X172568900Y-145937700D01*
X174816881Y-145937700D01*
X174864334Y-145947139D01*
X174904562Y-145974019D01*
X176072813Y-147142270D01*
X176077947Y-147147724D01*
X176117825Y-147192737D01*
X176123994Y-147196995D01*
X176123995Y-147196996D01*
X176167323Y-147226903D01*
X176173356Y-147231342D01*
X176197499Y-147250257D01*
X176220697Y-147268431D01*
X176227539Y-147271510D01*
X176229929Y-147272586D01*
X176249478Y-147283612D01*
X176251642Y-147285106D01*
X176251650Y-147285110D01*
X176257824Y-147289372D01*
X176313649Y-147310543D01*
X176314060Y-147310699D01*
X176320982Y-147313566D01*
X176375822Y-147338248D01*
X176385789Y-147340074D01*
X176407407Y-147346101D01*
X176409867Y-147347034D01*
X176409870Y-147347034D01*
X176416882Y-147349694D01*
X176474356Y-147356672D01*
X176476584Y-147356943D01*
X176483989Y-147358070D01*
X176499820Y-147360970D01*
X176543148Y-147368911D01*
X176603176Y-147365280D01*
X176610664Y-147365054D01*
X177148292Y-147365054D01*
X177198507Y-147375677D01*
X177240119Y-147405725D01*
X177265998Y-147450050D01*
X177315225Y-147598607D01*
X177318632Y-147608888D01*
X177322423Y-147615034D01*
X177406943Y-147752065D01*
X177406946Y-147752069D01*
X177410734Y-147758210D01*
X177534790Y-147882266D01*
X177540931Y-147886054D01*
X177540934Y-147886056D01*
X177581435Y-147911037D01*
X177684112Y-147974368D01*
X177850649Y-148029553D01*
X177953437Y-148040054D01*
X178853454Y-148040053D01*
X178956243Y-148029553D01*
X179122780Y-147974368D01*
X179272102Y-147882266D01*
X179396158Y-147758210D01*
X179488260Y-147608888D01*
X179543445Y-147442351D01*
X179553946Y-147339563D01*
X179553945Y-145989546D01*
X179543445Y-145886757D01*
X179488260Y-145720220D01*
X179396158Y-145570898D01*
X179294495Y-145469235D01*
X179262401Y-145413648D01*
X179262401Y-145349460D01*
X179294495Y-145293873D01*
X179328058Y-145260310D01*
X179370158Y-145218210D01*
X179462260Y-145068888D01*
X179517445Y-144902351D01*
X179527946Y-144799563D01*
X179527945Y-143449546D01*
X179517445Y-143346757D01*
X179462260Y-143180220D01*
X179370158Y-143030898D01*
X179281495Y-142942235D01*
X179249401Y-142886648D01*
X179249401Y-142822460D01*
X179281495Y-142766873D01*
X179321955Y-142726413D01*
X179370158Y-142678210D01*
X179462260Y-142528888D01*
X179517445Y-142362351D01*
X179527946Y-142259563D01*
X179527945Y-140909546D01*
X179517445Y-140806757D01*
X179462260Y-140640220D01*
X179370158Y-140490898D01*
X179281495Y-140402235D01*
X179249401Y-140346648D01*
X179249401Y-140282460D01*
X179281495Y-140226873D01*
X179320202Y-140188166D01*
X179370158Y-140138210D01*
X179462260Y-139988888D01*
X179517445Y-139822351D01*
X179527946Y-139719563D01*
X179527945Y-138369546D01*
X179517445Y-138266757D01*
X179462260Y-138100220D01*
X179370158Y-137950898D01*
X179281495Y-137862235D01*
X179249401Y-137806648D01*
X179249401Y-137742460D01*
X179281495Y-137686873D01*
X179298736Y-137669632D01*
X179370158Y-137598210D01*
X179462260Y-137448888D01*
X179517445Y-137282351D01*
X179527946Y-137179563D01*
X179527945Y-135829546D01*
X179517445Y-135726757D01*
X179462260Y-135560220D01*
X179409148Y-135474112D01*
X179373948Y-135417042D01*
X179373946Y-135417039D01*
X179370158Y-135410898D01*
X179256095Y-135296835D01*
X179224001Y-135241248D01*
X179224001Y-135177060D01*
X179256095Y-135121473D01*
X179296837Y-135080731D01*
X179344758Y-135032810D01*
X179436860Y-134883488D01*
X179492045Y-134716951D01*
X179502546Y-134614163D01*
X179502545Y-133264146D01*
X179492045Y-133161357D01*
X179436860Y-132994820D01*
X179344758Y-132845498D01*
X179235649Y-132736389D01*
X179203555Y-132680802D01*
X179203555Y-132616614D01*
X179235649Y-132561027D01*
X179255945Y-132540731D01*
X179308820Y-132487856D01*
X179400922Y-132338534D01*
X179456107Y-132171997D01*
X179466608Y-132069209D01*
X179466608Y-132066078D01*
X180265608Y-132066078D01*
X180265609Y-132069208D01*
X180265928Y-132072340D01*
X180265929Y-132072341D01*
X180275420Y-132165261D01*
X180275421Y-132165269D01*
X180276109Y-132171997D01*
X180278237Y-132178419D01*
X180278238Y-132178423D01*
X180327400Y-132326784D01*
X180331294Y-132338534D01*
X180335085Y-132344680D01*
X180419605Y-132481711D01*
X180419608Y-132481715D01*
X180423396Y-132487856D01*
X180428501Y-132492960D01*
X180428501Y-132492961D01*
X180532505Y-132596965D01*
X180564599Y-132652552D01*
X180564599Y-132716740D01*
X180532505Y-132772327D01*
X180464439Y-132840392D01*
X180464435Y-132840396D01*
X180459334Y-132845498D01*
X180455549Y-132851634D01*
X180455543Y-132851642D01*
X180384536Y-132966765D01*
X180367232Y-132994820D01*
X180364961Y-133001671D01*
X180364960Y-133001675D01*
X180314598Y-133153658D01*
X180312047Y-133161357D01*
X180311359Y-133168087D01*
X180311358Y-133168094D01*
X180301865Y-133261013D01*
X180301864Y-133261031D01*
X180301546Y-133264145D01*
X180301546Y-133267292D01*
X180301546Y-133267293D01*
X180301546Y-134611013D01*
X180301546Y-134611032D01*
X180301547Y-134614162D01*
X180301866Y-134617294D01*
X180301867Y-134617295D01*
X180311358Y-134710215D01*
X180311359Y-134710223D01*
X180312047Y-134716951D01*
X180314175Y-134723373D01*
X180314176Y-134723377D01*
X180361033Y-134864781D01*
X180367232Y-134883488D01*
X180372235Y-134891599D01*
X180455543Y-135026665D01*
X180455546Y-135026669D01*
X180459334Y-135032810D01*
X180464438Y-135037914D01*
X180464439Y-135037915D01*
X180573397Y-135146873D01*
X180605491Y-135202460D01*
X180605491Y-135266648D01*
X180573397Y-135322235D01*
X180489839Y-135405792D01*
X180489835Y-135405796D01*
X180484734Y-135410898D01*
X180480949Y-135417034D01*
X180480943Y-135417042D01*
X180396559Y-135553853D01*
X180392632Y-135560220D01*
X180390361Y-135567071D01*
X180390360Y-135567075D01*
X180339577Y-135720328D01*
X180337447Y-135726757D01*
X180336759Y-135733487D01*
X180336758Y-135733494D01*
X180327265Y-135826413D01*
X180327264Y-135826431D01*
X180326946Y-135829545D01*
X180326946Y-135832692D01*
X180326946Y-135832693D01*
X180326946Y-137176413D01*
X180326946Y-137176432D01*
X180326947Y-137179562D01*
X180327266Y-137182694D01*
X180327267Y-137182695D01*
X180336758Y-137275615D01*
X180336759Y-137275623D01*
X180337447Y-137282351D01*
X180339575Y-137288773D01*
X180339576Y-137288777D01*
X180390360Y-137442032D01*
X180392632Y-137448888D01*
X180396423Y-137455034D01*
X180480943Y-137592065D01*
X180480946Y-137592069D01*
X180484734Y-137598210D01*
X180489838Y-137603314D01*
X180489839Y-137603315D01*
X180573397Y-137686873D01*
X180605491Y-137742460D01*
X180605491Y-137806648D01*
X180573397Y-137862235D01*
X180489839Y-137945792D01*
X180489835Y-137945796D01*
X180484734Y-137950898D01*
X180480949Y-137957034D01*
X180480943Y-137957042D01*
X180396423Y-138094073D01*
X180392632Y-138100220D01*
X180390361Y-138107071D01*
X180390360Y-138107075D01*
X180340511Y-138257509D01*
X180337447Y-138266757D01*
X180336759Y-138273487D01*
X180336758Y-138273494D01*
X180327265Y-138366413D01*
X180327264Y-138366431D01*
X180326946Y-138369545D01*
X180326946Y-138372692D01*
X180326946Y-138372693D01*
X180326946Y-139716413D01*
X180326946Y-139716432D01*
X180326947Y-139719562D01*
X180327266Y-139722694D01*
X180327267Y-139722695D01*
X180336758Y-139815615D01*
X180336759Y-139815623D01*
X180337447Y-139822351D01*
X180339575Y-139828773D01*
X180339576Y-139828777D01*
X180389081Y-139978172D01*
X180392632Y-139988888D01*
X180408413Y-140014474D01*
X180480943Y-140132065D01*
X180480946Y-140132069D01*
X180484734Y-140138210D01*
X180489839Y-140143315D01*
X180573397Y-140226873D01*
X180605491Y-140282460D01*
X180605491Y-140346648D01*
X180573397Y-140402235D01*
X180489839Y-140485792D01*
X180489835Y-140485796D01*
X180484734Y-140490898D01*
X180480949Y-140497034D01*
X180480943Y-140497042D01*
X180399799Y-140628600D01*
X180392632Y-140640220D01*
X180390361Y-140647071D01*
X180390360Y-140647075D01*
X180342402Y-140791804D01*
X180337447Y-140806757D01*
X180336759Y-140813487D01*
X180336758Y-140813494D01*
X180327265Y-140906413D01*
X180327264Y-140906431D01*
X180326946Y-140909545D01*
X180326946Y-140912692D01*
X180326946Y-140912693D01*
X180326946Y-142256413D01*
X180326946Y-142256432D01*
X180326947Y-142259562D01*
X180327266Y-142262694D01*
X180327267Y-142262695D01*
X180336758Y-142355615D01*
X180336759Y-142355623D01*
X180337447Y-142362351D01*
X180339575Y-142368773D01*
X180339576Y-142368777D01*
X180390360Y-142522032D01*
X180392632Y-142528888D01*
X180396423Y-142535034D01*
X180480943Y-142672065D01*
X180480946Y-142672069D01*
X180484734Y-142678210D01*
X180489838Y-142683314D01*
X180489839Y-142683315D01*
X180573397Y-142766873D01*
X180605491Y-142822460D01*
X180605491Y-142886648D01*
X180573397Y-142942235D01*
X180489839Y-143025792D01*
X180489835Y-143025796D01*
X180484734Y-143030898D01*
X180480949Y-143037034D01*
X180480943Y-143037042D01*
X180396423Y-143174073D01*
X180392632Y-143180220D01*
X180390361Y-143187071D01*
X180390360Y-143187075D01*
X180342896Y-143330312D01*
X180337447Y-143346757D01*
X180336759Y-143353487D01*
X180336758Y-143353494D01*
X180327265Y-143446413D01*
X180327264Y-143446431D01*
X180326946Y-143449545D01*
X180326946Y-143452692D01*
X180326946Y-143452693D01*
X180326946Y-144796413D01*
X180326946Y-144796432D01*
X180326947Y-144799562D01*
X180327266Y-144802694D01*
X180327267Y-144802695D01*
X180336758Y-144895615D01*
X180336759Y-144895623D01*
X180337447Y-144902351D01*
X180339575Y-144908773D01*
X180339576Y-144908777D01*
X180390360Y-145062032D01*
X180392632Y-145068888D01*
X180396423Y-145075034D01*
X180480943Y-145212065D01*
X180480946Y-145212069D01*
X180484734Y-145218210D01*
X180489839Y-145223315D01*
X180586397Y-145319873D01*
X180618491Y-145375460D01*
X180618491Y-145439648D01*
X180586397Y-145495235D01*
X180515839Y-145565792D01*
X180515835Y-145565796D01*
X180510734Y-145570898D01*
X180506949Y-145577034D01*
X180506943Y-145577042D01*
X180422423Y-145714073D01*
X180418632Y-145720220D01*
X180416361Y-145727071D01*
X180416360Y-145727075D01*
X180365998Y-145879058D01*
X180363447Y-145886757D01*
X180362759Y-145893487D01*
X180362758Y-145893494D01*
X180353265Y-145986413D01*
X180353264Y-145986431D01*
X180352946Y-145989545D01*
X180352946Y-145992692D01*
X180352946Y-145992693D01*
X180352946Y-147336413D01*
X180352946Y-147336432D01*
X180352947Y-147339562D01*
X180353266Y-147342694D01*
X180353267Y-147342695D01*
X180362758Y-147435615D01*
X180362759Y-147435623D01*
X180363447Y-147442351D01*
X180365575Y-147448773D01*
X180365576Y-147448777D01*
X180415225Y-147598607D01*
X180418632Y-147608888D01*
X180422423Y-147615034D01*
X180506943Y-147752065D01*
X180506946Y-147752069D01*
X180510734Y-147758210D01*
X180634790Y-147882266D01*
X180640931Y-147886054D01*
X180640934Y-147886056D01*
X180681435Y-147911037D01*
X180784112Y-147974368D01*
X180950649Y-148029553D01*
X181053437Y-148040054D01*
X181953454Y-148040053D01*
X182056243Y-148029553D01*
X182222780Y-147974368D01*
X182372102Y-147882266D01*
X182496158Y-147758210D01*
X182588260Y-147608888D01*
X182590553Y-147601966D01*
X182590594Y-147601898D01*
X182593584Y-147595487D01*
X182594235Y-147595790D01*
X182617984Y-147555958D01*
X182662265Y-147525810D01*
X182715131Y-147517154D01*
X182766710Y-147531604D01*
X182825473Y-147563014D01*
X183014068Y-147620224D01*
X183210200Y-147639541D01*
X183406332Y-147620224D01*
X183594927Y-147563014D01*
X183768738Y-147470110D01*
X183921083Y-147345083D01*
X184046110Y-147192738D01*
X184139014Y-147018927D01*
X184196224Y-146830332D01*
X184215541Y-146634200D01*
X184206411Y-146541502D01*
X184218842Y-146474022D01*
X184265255Y-146423482D01*
X184331437Y-146405361D01*
X184397122Y-146425208D01*
X184442196Y-146476945D01*
X184497678Y-146595927D01*
X184497681Y-146595933D01*
X184499965Y-146600830D01*
X184503064Y-146605257D01*
X184503066Y-146605259D01*
X184632399Y-146789966D01*
X184632402Y-146789970D01*
X184635505Y-146794401D01*
X184802599Y-146961495D01*
X184807032Y-146964599D01*
X184807038Y-146964604D01*
X184988158Y-147091425D01*
X185027024Y-147135743D01*
X185041035Y-147193000D01*
X185027024Y-147250257D01*
X184988159Y-147294575D01*
X184807041Y-147421395D01*
X184802599Y-147424505D01*
X184798775Y-147428328D01*
X184798769Y-147428334D01*
X184639334Y-147587769D01*
X184639328Y-147587775D01*
X184635505Y-147591599D01*
X184632402Y-147596029D01*
X184632399Y-147596034D01*
X184503073Y-147780731D01*
X184503068Y-147780738D01*
X184499965Y-147785171D01*
X184497677Y-147790077D01*
X184497675Y-147790081D01*
X184402386Y-147994427D01*
X184402383Y-147994432D01*
X184400097Y-147999337D01*
X184398698Y-148004557D01*
X184398694Y-148004569D01*
X184340337Y-148222365D01*
X184340335Y-148222371D01*
X184338937Y-148227592D01*
X184338465Y-148232977D01*
X184338465Y-148232982D01*
X184318813Y-148457605D01*
X184318341Y-148463000D01*
X184338937Y-148698408D01*
X184340336Y-148703630D01*
X184340337Y-148703634D01*
X184398694Y-148921430D01*
X184398697Y-148921438D01*
X184400097Y-148926663D01*
X184402385Y-148931570D01*
X184402386Y-148931572D01*
X184497678Y-149135927D01*
X184497681Y-149135933D01*
X184499965Y-149140830D01*
X184503064Y-149145257D01*
X184503066Y-149145259D01*
X184632399Y-149329966D01*
X184632402Y-149329970D01*
X184635505Y-149334401D01*
X184802599Y-149501495D01*
X184807031Y-149504598D01*
X184807033Y-149504600D01*
X184988595Y-149631731D01*
X185027460Y-149676049D01*
X185041471Y-149733306D01*
X185027460Y-149790563D01*
X184988595Y-149834881D01*
X184807352Y-149961788D01*
X184799092Y-149968719D01*
X184639719Y-150128092D01*
X184632784Y-150136357D01*
X184503508Y-150320982D01*
X184498110Y-150330332D01*
X184402856Y-150534602D01*
X184399168Y-150544736D01*
X184347056Y-150739219D01*
X184346688Y-150750448D01*
X184357631Y-150753000D01*
X186990369Y-150753000D01*
X187001311Y-150750448D01*
X187000943Y-150739219D01*
X186948831Y-150544736D01*
X186945143Y-150534602D01*
X186849889Y-150330332D01*
X186844491Y-150320982D01*
X186715215Y-150136357D01*
X186708280Y-150128092D01*
X186548909Y-149968721D01*
X186540643Y-149961784D01*
X186359405Y-149834880D01*
X186320540Y-149790562D01*
X186306529Y-149733305D01*
X186320540Y-149676048D01*
X186359406Y-149631730D01*
X186371643Y-149623162D01*
X186545401Y-149501495D01*
X186712495Y-149334401D01*
X186848035Y-149140830D01*
X186947903Y-148926663D01*
X187009063Y-148698408D01*
X187029659Y-148463000D01*
X187009063Y-148227592D01*
X186947903Y-147999337D01*
X186848035Y-147785171D01*
X186712495Y-147591599D01*
X186545401Y-147424505D01*
X186540968Y-147421401D01*
X186540961Y-147421395D01*
X186359842Y-147294575D01*
X186320976Y-147250257D01*
X186306965Y-147193000D01*
X186320976Y-147135743D01*
X186359842Y-147091425D01*
X186540961Y-146964604D01*
X186540961Y-146964603D01*
X186545401Y-146961495D01*
X186712495Y-146794401D01*
X186848035Y-146600830D01*
X186947903Y-146386663D01*
X187009063Y-146158408D01*
X187029659Y-145923000D01*
X187009063Y-145687592D01*
X186947903Y-145459337D01*
X186848035Y-145245171D01*
X186712495Y-145051599D01*
X186545401Y-144884505D01*
X186540968Y-144881401D01*
X186540961Y-144881395D01*
X186359842Y-144754575D01*
X186320976Y-144710257D01*
X186306965Y-144653000D01*
X186320976Y-144595743D01*
X186359842Y-144551425D01*
X186540961Y-144424604D01*
X186540961Y-144424603D01*
X186545401Y-144421495D01*
X186712495Y-144254401D01*
X186848035Y-144060830D01*
X186947903Y-143846663D01*
X187009063Y-143618408D01*
X187029659Y-143383000D01*
X187009063Y-143147592D01*
X186953281Y-142939408D01*
X186949305Y-142924569D01*
X186949304Y-142924567D01*
X186947903Y-142919337D01*
X186848035Y-142705171D01*
X186712495Y-142511599D01*
X186545401Y-142344505D01*
X186540968Y-142341401D01*
X186540961Y-142341395D01*
X186359842Y-142214575D01*
X186320976Y-142170257D01*
X186306965Y-142113000D01*
X186320976Y-142055743D01*
X186359842Y-142011425D01*
X186540961Y-141884604D01*
X186540961Y-141884603D01*
X186545401Y-141881495D01*
X186712495Y-141714401D01*
X186848035Y-141520830D01*
X186947903Y-141306663D01*
X187009063Y-141078408D01*
X187029659Y-140843000D01*
X187009063Y-140607592D01*
X186947903Y-140379337D01*
X186848035Y-140165171D01*
X186712495Y-139971599D01*
X186545401Y-139804505D01*
X186540968Y-139801401D01*
X186540961Y-139801395D01*
X186359842Y-139674575D01*
X186320976Y-139630257D01*
X186306965Y-139573000D01*
X186320976Y-139515743D01*
X186359842Y-139471425D01*
X186540961Y-139344604D01*
X186540961Y-139344603D01*
X186545401Y-139341495D01*
X186712495Y-139174401D01*
X186848035Y-138980830D01*
X186947903Y-138766663D01*
X187009063Y-138538408D01*
X187029659Y-138303000D01*
X187009063Y-138067592D01*
X186954038Y-137862235D01*
X186949305Y-137844569D01*
X186949304Y-137844567D01*
X186947903Y-137839337D01*
X186848035Y-137625171D01*
X186712495Y-137431599D01*
X186545401Y-137264505D01*
X186540968Y-137261401D01*
X186540961Y-137261395D01*
X186359842Y-137134575D01*
X186320976Y-137090257D01*
X186306965Y-137033000D01*
X186320976Y-136975743D01*
X186359842Y-136931425D01*
X186540961Y-136804604D01*
X186540961Y-136804603D01*
X186545401Y-136801495D01*
X186712495Y-136634401D01*
X186848035Y-136440830D01*
X186947903Y-136226663D01*
X187009063Y-135998408D01*
X187029659Y-135763000D01*
X187009063Y-135527592D01*
X186947903Y-135299337D01*
X186848035Y-135085171D01*
X186712495Y-134891599D01*
X186545401Y-134724505D01*
X186540970Y-134721402D01*
X186540966Y-134721399D01*
X186359841Y-134594574D01*
X186320976Y-134550256D01*
X186306965Y-134492999D01*
X186320976Y-134435742D01*
X186359839Y-134391426D01*
X186545401Y-134261495D01*
X186712495Y-134094401D01*
X186848035Y-133900830D01*
X186947903Y-133686663D01*
X187009063Y-133458408D01*
X187029659Y-133223000D01*
X187009063Y-132987592D01*
X186947903Y-132759337D01*
X186848035Y-132545171D01*
X186712495Y-132351599D01*
X186590569Y-132229673D01*
X186559273Y-132176927D01*
X186557084Y-132115634D01*
X186584537Y-132060789D01*
X186634916Y-132025810D01*
X186766331Y-131976796D01*
X186881546Y-131890546D01*
X186967796Y-131775331D01*
X187018091Y-131640483D01*
X187024500Y-131580873D01*
X187024499Y-129785128D01*
X187018091Y-129725517D01*
X186967796Y-129590669D01*
X186881546Y-129475454D01*
X186847601Y-129450043D01*
X186773431Y-129394519D01*
X186773430Y-129394518D01*
X186766331Y-129389204D01*
X186631483Y-129338909D01*
X186623770Y-129338079D01*
X186623767Y-129338079D01*
X186575180Y-129332855D01*
X186575169Y-129332854D01*
X186571873Y-129332500D01*
X186568550Y-129332500D01*
X184779439Y-129332500D01*
X184779420Y-129332500D01*
X184776128Y-129332501D01*
X184772850Y-129332853D01*
X184772838Y-129332854D01*
X184724231Y-129338079D01*
X184724225Y-129338080D01*
X184716517Y-129338909D01*
X184709252Y-129341618D01*
X184709246Y-129341620D01*
X184589980Y-129386104D01*
X184589978Y-129386104D01*
X184581669Y-129389204D01*
X184574572Y-129394516D01*
X184574568Y-129394519D01*
X184473550Y-129470141D01*
X184473546Y-129470144D01*
X184466454Y-129475454D01*
X184461144Y-129482546D01*
X184461141Y-129482550D01*
X184385519Y-129583568D01*
X184385516Y-129583572D01*
X184380204Y-129590669D01*
X184377104Y-129598978D01*
X184377104Y-129598980D01*
X184332620Y-129718247D01*
X184332619Y-129718250D01*
X184329909Y-129725517D01*
X184329079Y-129733227D01*
X184329079Y-129733232D01*
X184323855Y-129781819D01*
X184323854Y-129781831D01*
X184323500Y-129785127D01*
X184323500Y-129788448D01*
X184323500Y-129788449D01*
X184323500Y-130907108D01*
X184306479Y-130969810D01*
X184260089Y-131015298D01*
X184197065Y-131031084D01*
X184134710Y-131012835D01*
X184090143Y-130965562D01*
X184020710Y-130835662D01*
X183895683Y-130683317D01*
X183856624Y-130651262D01*
X183748050Y-130562157D01*
X183748049Y-130562156D01*
X183743338Y-130558290D01*
X183737967Y-130555419D01*
X183737961Y-130555415D01*
X183574899Y-130468257D01*
X183574895Y-130468255D01*
X183569527Y-130465386D01*
X183563699Y-130463618D01*
X183386762Y-130409944D01*
X183386757Y-130409943D01*
X183380932Y-130408176D01*
X183374873Y-130407579D01*
X183374867Y-130407578D01*
X183190862Y-130389456D01*
X183184800Y-130388859D01*
X183178738Y-130389456D01*
X182994732Y-130407578D01*
X182994724Y-130407579D01*
X182988668Y-130408176D01*
X182982844Y-130409942D01*
X182982837Y-130409944D01*
X182805900Y-130463618D01*
X182805896Y-130463619D01*
X182800073Y-130465386D01*
X182794705Y-130468254D01*
X182794703Y-130468256D01*
X182680149Y-130529486D01*
X182628566Y-130543937D01*
X182575701Y-130535281D01*
X182531421Y-130505134D01*
X182506412Y-130463188D01*
X182506245Y-130463266D01*
X182505477Y-130461621D01*
X182503990Y-130459126D01*
X182500922Y-130449866D01*
X182433795Y-130341035D01*
X182412610Y-130306688D01*
X182412608Y-130306685D01*
X182408820Y-130300544D01*
X182284764Y-130176488D01*
X182278623Y-130172700D01*
X182278619Y-130172697D01*
X182141588Y-130088177D01*
X182135442Y-130084386D01*
X182023578Y-130047318D01*
X181975333Y-130031331D01*
X181975332Y-130031330D01*
X181968905Y-130029201D01*
X181962172Y-130028513D01*
X181962167Y-130028512D01*
X181869248Y-130019019D01*
X181869231Y-130019018D01*
X181866117Y-130018700D01*
X181862968Y-130018700D01*
X180969249Y-130018700D01*
X180969229Y-130018700D01*
X180966100Y-130018701D01*
X180962968Y-130019020D01*
X180962966Y-130019021D01*
X180870046Y-130028512D01*
X180870036Y-130028513D01*
X180863311Y-130029201D01*
X180856889Y-130031328D01*
X180856884Y-130031330D01*
X180703629Y-130082114D01*
X180703625Y-130082115D01*
X180696774Y-130084386D01*
X180690630Y-130088175D01*
X180690627Y-130088177D01*
X180553596Y-130172697D01*
X180553588Y-130172703D01*
X180547452Y-130176488D01*
X180542350Y-130181589D01*
X180542346Y-130181593D01*
X180428501Y-130295438D01*
X180428497Y-130295442D01*
X180423396Y-130300544D01*
X180419611Y-130306680D01*
X180419605Y-130306688D01*
X180335085Y-130443719D01*
X180331294Y-130449866D01*
X180329023Y-130456717D01*
X180329022Y-130456721D01*
X180278239Y-130609974D01*
X180276109Y-130616403D01*
X180275421Y-130623133D01*
X180275420Y-130623140D01*
X180265927Y-130716059D01*
X180265926Y-130716077D01*
X180265608Y-130719191D01*
X180265608Y-130722338D01*
X180265608Y-130722339D01*
X180265608Y-132066059D01*
X180265608Y-132066078D01*
X179466608Y-132066078D01*
X179466607Y-130719192D01*
X179456107Y-130616403D01*
X179400922Y-130449866D01*
X179318346Y-130315988D01*
X179312610Y-130306688D01*
X179312608Y-130306685D01*
X179308820Y-130300544D01*
X179184764Y-130176488D01*
X179178623Y-130172700D01*
X179178619Y-130172697D01*
X179041588Y-130088177D01*
X179035442Y-130084386D01*
X178923578Y-130047318D01*
X178875333Y-130031331D01*
X178875332Y-130031330D01*
X178868905Y-130029201D01*
X178862172Y-130028513D01*
X178862167Y-130028512D01*
X178769248Y-130019019D01*
X178769231Y-130019018D01*
X178766117Y-130018700D01*
X178762968Y-130018700D01*
X177869249Y-130018700D01*
X177869229Y-130018700D01*
X177866100Y-130018701D01*
X177862968Y-130019020D01*
X177862966Y-130019021D01*
X177770046Y-130028512D01*
X177770036Y-130028513D01*
X177763311Y-130029201D01*
X177756889Y-130031328D01*
X177756884Y-130031330D01*
X177603629Y-130082114D01*
X177603625Y-130082115D01*
X177596774Y-130084386D01*
X177590630Y-130088175D01*
X177590627Y-130088177D01*
X177453596Y-130172697D01*
X177453588Y-130172703D01*
X177447452Y-130176488D01*
X177442350Y-130181589D01*
X177442346Y-130181593D01*
X177328501Y-130295438D01*
X177328497Y-130295442D01*
X177323396Y-130300544D01*
X177319611Y-130306680D01*
X177319605Y-130306688D01*
X177235085Y-130443719D01*
X177231294Y-130449866D01*
X177229023Y-130456717D01*
X177229022Y-130456721D01*
X177178660Y-130608704D01*
X177152781Y-130653029D01*
X177111169Y-130683077D01*
X177060954Y-130693700D01*
X175564321Y-130693700D01*
X175556833Y-130693474D01*
X175504281Y-130690294D01*
X175504273Y-130690294D01*
X175496794Y-130689842D01*
X175489418Y-130691193D01*
X175489410Y-130691194D01*
X175437626Y-130700683D01*
X175430227Y-130701810D01*
X175377969Y-130708156D01*
X175377965Y-130708156D01*
X175370528Y-130709060D01*
X175363519Y-130711717D01*
X175363514Y-130711719D01*
X175361043Y-130712656D01*
X175339453Y-130718674D01*
X175336849Y-130719151D01*
X175336839Y-130719153D01*
X175329468Y-130720505D01*
X175322635Y-130723579D01*
X175322629Y-130723582D01*
X175274619Y-130745189D01*
X175267705Y-130748053D01*
X175218480Y-130766722D01*
X175218470Y-130766726D01*
X175211470Y-130769382D01*
X175205304Y-130773637D01*
X175205298Y-130773641D01*
X175203127Y-130775140D01*
X175183585Y-130786162D01*
X175181183Y-130787243D01*
X175181180Y-130787244D01*
X175174343Y-130790322D01*
X175168443Y-130794943D01*
X175168435Y-130794949D01*
X175126997Y-130827413D01*
X175120968Y-130831849D01*
X175077648Y-130861751D01*
X175077636Y-130861760D01*
X175071471Y-130866017D01*
X175066502Y-130871625D01*
X175066496Y-130871631D01*
X175031584Y-130911038D01*
X175026451Y-130916490D01*
X174941778Y-131001163D01*
X174892418Y-131031412D01*
X174834702Y-131035954D01*
X174781214Y-131013799D01*
X174743614Y-130969776D01*
X174730099Y-130913481D01*
X174730099Y-130685273D01*
X174730099Y-130682124D01*
X174719599Y-130579335D01*
X174664414Y-130412798D01*
X174611302Y-130326690D01*
X174576102Y-130269620D01*
X174576100Y-130269617D01*
X174572312Y-130263476D01*
X174448256Y-130139420D01*
X174442115Y-130135632D01*
X174442111Y-130135629D01*
X174305080Y-130051109D01*
X174298934Y-130047318D01*
X174270479Y-130037889D01*
X174138825Y-129994263D01*
X174138824Y-129994262D01*
X174132397Y-129992133D01*
X174125664Y-129991445D01*
X174125659Y-129991444D01*
X174032740Y-129981951D01*
X174032723Y-129981950D01*
X174029609Y-129981632D01*
X174026460Y-129981632D01*
X172632740Y-129981632D01*
X172632720Y-129981632D01*
X172629592Y-129981633D01*
X172626460Y-129981952D01*
X172626458Y-129981953D01*
X172533538Y-129991444D01*
X172533528Y-129991445D01*
X172526803Y-129992133D01*
X172520381Y-129994260D01*
X172520376Y-129994262D01*
X172367121Y-130045046D01*
X172367117Y-130045047D01*
X172360266Y-130047318D01*
X172354122Y-130051107D01*
X172354119Y-130051109D01*
X172217088Y-130135629D01*
X172217080Y-130135635D01*
X172210944Y-130139420D01*
X172205842Y-130144521D01*
X172205838Y-130144525D01*
X172091993Y-130258370D01*
X172091989Y-130258374D01*
X172086888Y-130263476D01*
X172083101Y-130269615D01*
X172083100Y-130269617D01*
X172011791Y-130385229D01*
X171966684Y-130428409D01*
X171906252Y-130444132D01*
X171562104Y-130444132D01*
X171501672Y-130428409D01*
X171456566Y-130385230D01*
X171429305Y-130341032D01*
X171410847Y-130275250D01*
X171430035Y-130209674D01*
X171481043Y-130164218D01*
X171496551Y-130156749D01*
X171509398Y-130151429D01*
X171533933Y-130142844D01*
X171545522Y-130138789D01*
X171577939Y-130118418D01*
X171590086Y-130111705D01*
X171624587Y-130095091D01*
X171654519Y-130071220D01*
X171665853Y-130063179D01*
X171698262Y-130042816D01*
X171825816Y-129915262D01*
X171825815Y-129915262D01*
X172301826Y-129439252D01*
X172301826Y-129439251D01*
X172333816Y-129407262D01*
X172354180Y-129374850D01*
X172362220Y-129363519D01*
X172386091Y-129333587D01*
X172402700Y-129299095D01*
X172409417Y-129286942D01*
X172429789Y-129254522D01*
X172432091Y-129247942D01*
X172433804Y-129244386D01*
X172464315Y-129204479D01*
X172508155Y-129179951D01*
X172558128Y-129174828D01*
X172626490Y-129181812D01*
X172632768Y-129182132D01*
X173063274Y-129182132D01*
X173076149Y-129178681D01*
X173079600Y-129165806D01*
X173079600Y-129165805D01*
X173579600Y-129165805D01*
X173583050Y-129178680D01*
X173595926Y-129182131D01*
X174026429Y-129182131D01*
X174032711Y-129181810D01*
X174125559Y-129172326D01*
X174138722Y-129169508D01*
X174291867Y-129118761D01*
X174304866Y-129112699D01*
X174441794Y-129028241D01*
X174453055Y-129019337D01*
X174566805Y-128905587D01*
X174575709Y-128894326D01*
X174660167Y-128757398D01*
X174666229Y-128744399D01*
X174716975Y-128591257D01*
X174719794Y-128578090D01*
X174729280Y-128485241D01*
X174729600Y-128478964D01*
X174729600Y-128285958D01*
X174726149Y-128273082D01*
X174713274Y-128269632D01*
X173595926Y-128269632D01*
X173583050Y-128273082D01*
X173579600Y-128285958D01*
X173579600Y-129165805D01*
X173079600Y-129165805D01*
X173079600Y-127893632D01*
X173096213Y-127831632D01*
X173141600Y-127786245D01*
X173203600Y-127769632D01*
X174713273Y-127769632D01*
X174726148Y-127766181D01*
X174729599Y-127753306D01*
X174729599Y-127560303D01*
X174729278Y-127554020D01*
X174719794Y-127461172D01*
X174716976Y-127448009D01*
X174666229Y-127294864D01*
X174660167Y-127281865D01*
X174575709Y-127144937D01*
X174566805Y-127133676D01*
X174453055Y-127019926D01*
X174441794Y-127011022D01*
X174420410Y-126997832D01*
X175060613Y-126997832D01*
X175069085Y-127005323D01*
X175174892Y-127061878D01*
X175186092Y-127066517D01*
X175362935Y-127120162D01*
X175374830Y-127122528D01*
X175558739Y-127140642D01*
X175570861Y-127140642D01*
X175754769Y-127122528D01*
X175766664Y-127120162D01*
X175943507Y-127066517D01*
X175954707Y-127061878D01*
X176060513Y-127005323D01*
X176068985Y-126997832D01*
X176063054Y-126988208D01*
X175576342Y-126501495D01*
X175564799Y-126494831D01*
X175553257Y-126501495D01*
X175066543Y-126988209D01*
X175060613Y-126997832D01*
X174420410Y-126997832D01*
X174304866Y-126926564D01*
X174291869Y-126920503D01*
X174212076Y-126894062D01*
X174159658Y-126860128D01*
X174130423Y-126804952D01*
X174131786Y-126742524D01*
X174163396Y-126688680D01*
X174419109Y-126432968D01*
X174473711Y-126401145D01*
X174536913Y-126400369D01*
X174592286Y-126430846D01*
X174625444Y-126484656D01*
X174634680Y-126515102D01*
X174639320Y-126526304D01*
X174695876Y-126632116D01*
X174703365Y-126640585D01*
X174712990Y-126634654D01*
X175211247Y-126136399D01*
X175923231Y-126136399D01*
X175929895Y-126147942D01*
X176416608Y-126634654D01*
X176426232Y-126640585D01*
X176433723Y-126632113D01*
X176490278Y-126526307D01*
X176494917Y-126515107D01*
X176548562Y-126338264D01*
X176550928Y-126326369D01*
X176569042Y-126142461D01*
X176569042Y-126130339D01*
X176550928Y-125946430D01*
X176548562Y-125934535D01*
X176494917Y-125757692D01*
X176490278Y-125746492D01*
X176433723Y-125640685D01*
X176426232Y-125632213D01*
X176416609Y-125638143D01*
X175929895Y-126124857D01*
X175923231Y-126136399D01*
X175211247Y-126136399D01*
X175564800Y-125782847D01*
X176063054Y-125284590D01*
X176068985Y-125274965D01*
X176060516Y-125267476D01*
X175954704Y-125210920D01*
X175943507Y-125206282D01*
X175766664Y-125152637D01*
X175754769Y-125150271D01*
X175570861Y-125132158D01*
X175558739Y-125132158D01*
X175374830Y-125150271D01*
X175362935Y-125152637D01*
X175186092Y-125206282D01*
X175174895Y-125210920D01*
X175099952Y-125250978D01*
X175038456Y-125265582D01*
X174977751Y-125247977D01*
X174933609Y-125202738D01*
X174917500Y-125141619D01*
X174917500Y-124461940D01*
X174926939Y-124414487D01*
X174953819Y-124374259D01*
X175248519Y-124079559D01*
X175304106Y-124047465D01*
X175368294Y-124047465D01*
X175423881Y-124079559D01*
X175493784Y-124149462D01*
X175621338Y-124277016D01*
X175653751Y-124297383D01*
X175665083Y-124305424D01*
X175689568Y-124324950D01*
X175689573Y-124324953D01*
X175695014Y-124329292D01*
X175701286Y-124332312D01*
X175701287Y-124332313D01*
X175729498Y-124345899D01*
X175741669Y-124352625D01*
X175768181Y-124369284D01*
X175768183Y-124369285D01*
X175774078Y-124372989D01*
X175810213Y-124385633D01*
X175823043Y-124390948D01*
X175851262Y-124404538D01*
X175851267Y-124404540D01*
X175857539Y-124407560D01*
X175894866Y-124416079D01*
X175908213Y-124419925D01*
X175937770Y-124430268D01*
X175937775Y-124430269D01*
X175944345Y-124432568D01*
X175969446Y-124435396D01*
X176033678Y-124462314D01*
X176073269Y-124519612D01*
X176089811Y-124569532D01*
X176105386Y-124616534D01*
X176114734Y-124631689D01*
X176193697Y-124759711D01*
X176193700Y-124759715D01*
X176197488Y-124765856D01*
X176321544Y-124889912D01*
X176327685Y-124893700D01*
X176327688Y-124893702D01*
X176384758Y-124928902D01*
X176470866Y-124982014D01*
X176637403Y-125037199D01*
X176740191Y-125047700D01*
X177665208Y-125047699D01*
X177767997Y-125037199D01*
X177934534Y-124982014D01*
X178083856Y-124889912D01*
X178207912Y-124765856D01*
X178300014Y-124616534D01*
X178355199Y-124449997D01*
X178365700Y-124347209D01*
X178365700Y-124344029D01*
X179165201Y-124344029D01*
X179165521Y-124350311D01*
X179175005Y-124443159D01*
X179177823Y-124456322D01*
X179228570Y-124609467D01*
X179234632Y-124622466D01*
X179319090Y-124759394D01*
X179327994Y-124770655D01*
X179441744Y-124884405D01*
X179453005Y-124893309D01*
X179589933Y-124977767D01*
X179602932Y-124983829D01*
X179756074Y-125034575D01*
X179769241Y-125037394D01*
X179862090Y-125046880D01*
X179868368Y-125047200D01*
X180061374Y-125047200D01*
X180074249Y-125043749D01*
X180077700Y-125030874D01*
X180077700Y-125030873D01*
X180577700Y-125030873D01*
X180581150Y-125043748D01*
X180594026Y-125047199D01*
X180787029Y-125047199D01*
X180793311Y-125046878D01*
X180886159Y-125037394D01*
X180899322Y-125034576D01*
X181052467Y-124983829D01*
X181065466Y-124977767D01*
X181202394Y-124893309D01*
X181213655Y-124884405D01*
X181327405Y-124770655D01*
X181336309Y-124759394D01*
X181420767Y-124622466D01*
X181426829Y-124609467D01*
X181443409Y-124559432D01*
X184280813Y-124559432D01*
X184289285Y-124566923D01*
X184395092Y-124623478D01*
X184406292Y-124628117D01*
X184583135Y-124681762D01*
X184595030Y-124684128D01*
X184778939Y-124702242D01*
X184791061Y-124702242D01*
X184974969Y-124684128D01*
X184986864Y-124681762D01*
X185163707Y-124628117D01*
X185174907Y-124623478D01*
X185280713Y-124566923D01*
X185289185Y-124559432D01*
X185283254Y-124549808D01*
X184796542Y-124063095D01*
X184785000Y-124056431D01*
X184773457Y-124063095D01*
X184286743Y-124549809D01*
X184280813Y-124559432D01*
X181443409Y-124559432D01*
X181477575Y-124456325D01*
X181480394Y-124443158D01*
X181489880Y-124350309D01*
X181490200Y-124344032D01*
X181490200Y-123913526D01*
X181486749Y-123900650D01*
X181473874Y-123897200D01*
X180594026Y-123897200D01*
X180581150Y-123900650D01*
X180577700Y-123913526D01*
X180577700Y-125030873D01*
X180077700Y-125030873D01*
X180077700Y-123913526D01*
X180074249Y-123900650D01*
X180061374Y-123897200D01*
X179181527Y-123897200D01*
X179168651Y-123900650D01*
X179165201Y-123913526D01*
X179165201Y-124344029D01*
X178365700Y-124344029D01*
X178365699Y-123704061D01*
X183780758Y-123704061D01*
X183798871Y-123887969D01*
X183801237Y-123899864D01*
X183854882Y-124076707D01*
X183859520Y-124087904D01*
X183916076Y-124193716D01*
X183923565Y-124202185D01*
X183933190Y-124196254D01*
X184419903Y-123709542D01*
X184426566Y-123698000D01*
X185143431Y-123698000D01*
X185150095Y-123709542D01*
X185636808Y-124196254D01*
X185646432Y-124202185D01*
X185653923Y-124193713D01*
X185710478Y-124087907D01*
X185715117Y-124076707D01*
X185768762Y-123899864D01*
X185771128Y-123887969D01*
X185789242Y-123704061D01*
X185789242Y-123691939D01*
X185771128Y-123508030D01*
X185768762Y-123496135D01*
X185715117Y-123319292D01*
X185710478Y-123308092D01*
X185653923Y-123202285D01*
X185646432Y-123193813D01*
X185636809Y-123199743D01*
X185150095Y-123686457D01*
X185143431Y-123698000D01*
X184426566Y-123698000D01*
X184426567Y-123697999D01*
X184419903Y-123686457D01*
X183933189Y-123199743D01*
X183923566Y-123193813D01*
X183916075Y-123202284D01*
X183859520Y-123308093D01*
X183854882Y-123319292D01*
X183801237Y-123496135D01*
X183798871Y-123508030D01*
X183780758Y-123691939D01*
X183780758Y-123704061D01*
X178365699Y-123704061D01*
X178365699Y-123380874D01*
X179165200Y-123380874D01*
X179168650Y-123393749D01*
X179181526Y-123397200D01*
X180061374Y-123397200D01*
X180074249Y-123393749D01*
X180077700Y-123380874D01*
X180577700Y-123380874D01*
X180581150Y-123393749D01*
X180594026Y-123397200D01*
X181473873Y-123397200D01*
X181486748Y-123393749D01*
X181490199Y-123380874D01*
X181490199Y-122950371D01*
X181489878Y-122944088D01*
X181480394Y-122851240D01*
X181477576Y-122838077D01*
X181477075Y-122836566D01*
X184280813Y-122836566D01*
X184286743Y-122846189D01*
X184773457Y-123332903D01*
X184785000Y-123339567D01*
X184796542Y-123332903D01*
X185283254Y-122846190D01*
X185289185Y-122836565D01*
X185280716Y-122829076D01*
X185174904Y-122772520D01*
X185163707Y-122767882D01*
X184986864Y-122714237D01*
X184974969Y-122711871D01*
X184791061Y-122693758D01*
X184778939Y-122693758D01*
X184595030Y-122711871D01*
X184583135Y-122714237D01*
X184406292Y-122767882D01*
X184395093Y-122772520D01*
X184289284Y-122829075D01*
X184280813Y-122836566D01*
X181477075Y-122836566D01*
X181426829Y-122684932D01*
X181420767Y-122671933D01*
X181336309Y-122535005D01*
X181327405Y-122523744D01*
X181213655Y-122409994D01*
X181202394Y-122401090D01*
X181065466Y-122316632D01*
X181052467Y-122310570D01*
X180899325Y-122259824D01*
X180886158Y-122257005D01*
X180793309Y-122247519D01*
X180787032Y-122247200D01*
X180594026Y-122247200D01*
X180581150Y-122250650D01*
X180577700Y-122263526D01*
X180577700Y-123380874D01*
X180077700Y-123380874D01*
X180077700Y-122263527D01*
X180074249Y-122250651D01*
X180061374Y-122247201D01*
X179868371Y-122247201D01*
X179862088Y-122247521D01*
X179769240Y-122257005D01*
X179756077Y-122259823D01*
X179602932Y-122310570D01*
X179589933Y-122316632D01*
X179453005Y-122401090D01*
X179441744Y-122409994D01*
X179327994Y-122523744D01*
X179319090Y-122535005D01*
X179234632Y-122671933D01*
X179228570Y-122684932D01*
X179177824Y-122838074D01*
X179175005Y-122851241D01*
X179165519Y-122944090D01*
X179165200Y-122950368D01*
X179165200Y-123380874D01*
X178365699Y-123380874D01*
X178365699Y-122947192D01*
X178355199Y-122844403D01*
X178300014Y-122677866D01*
X178218115Y-122545085D01*
X178211702Y-122534688D01*
X178211700Y-122534685D01*
X178207912Y-122528544D01*
X178083856Y-122404488D01*
X178077715Y-122400700D01*
X178077711Y-122400697D01*
X177940680Y-122316177D01*
X177934534Y-122312386D01*
X177838791Y-122280660D01*
X177774425Y-122259331D01*
X177774424Y-122259330D01*
X177767997Y-122257201D01*
X177761264Y-122256513D01*
X177761259Y-122256512D01*
X177668340Y-122247019D01*
X177668323Y-122247018D01*
X177665209Y-122246700D01*
X177662060Y-122246700D01*
X176743341Y-122246700D01*
X176743321Y-122246700D01*
X176740192Y-122246701D01*
X176737060Y-122247020D01*
X176737058Y-122247021D01*
X176644138Y-122256512D01*
X176644128Y-122256513D01*
X176637403Y-122257201D01*
X176630981Y-122259328D01*
X176630976Y-122259330D01*
X176477721Y-122310114D01*
X176477717Y-122310115D01*
X176470866Y-122312386D01*
X176351193Y-122386199D01*
X176288805Y-122404630D01*
X176225668Y-122388937D01*
X176179167Y-122343439D01*
X176162100Y-122280660D01*
X176162100Y-121836766D01*
X176162100Y-121829805D01*
X176153580Y-121792481D01*
X176151255Y-121778800D01*
X176146968Y-121740745D01*
X176134324Y-121704610D01*
X176130475Y-121691249D01*
X176130052Y-121689396D01*
X176121959Y-121653939D01*
X176105350Y-121619450D01*
X176100033Y-121606613D01*
X176089688Y-121577048D01*
X176089687Y-121577047D01*
X176087389Y-121570478D01*
X176067018Y-121538058D01*
X176060294Y-121525890D01*
X176046713Y-121497688D01*
X176046712Y-121497687D01*
X176043691Y-121491413D01*
X176019823Y-121461484D01*
X176011777Y-121450143D01*
X175995120Y-121423633D01*
X175991416Y-121417738D01*
X175863862Y-121290184D01*
X175689359Y-121115681D01*
X175659109Y-121066318D01*
X175654567Y-121008602D01*
X175676722Y-120955115D01*
X175720745Y-120917515D01*
X175777040Y-120904000D01*
X188676000Y-120904000D01*
X188738000Y-120920613D01*
G37*
%TD.AperFunction*%
%TA.AperFunction,Conductor*%
G36*
X170824001Y-137567114D02*
G01*
X170869388Y-137612501D01*
X170886001Y-137674501D01*
X170886001Y-137763774D01*
X170886353Y-137767051D01*
X170886354Y-137767064D01*
X170891158Y-137811750D01*
X170891158Y-137838254D01*
X170886000Y-137886228D01*
X170886000Y-137889549D01*
X170886000Y-137889550D01*
X170886000Y-138410461D01*
X170886000Y-138410479D01*
X170886001Y-138413773D01*
X170886353Y-138417048D01*
X170886354Y-138417065D01*
X170891158Y-138461751D01*
X170891158Y-138488254D01*
X170886000Y-138536229D01*
X170886000Y-138539550D01*
X170886000Y-138539551D01*
X170886000Y-139060462D01*
X170886000Y-139060480D01*
X170886001Y-139063774D01*
X170886353Y-139067052D01*
X170886354Y-139067063D01*
X170891410Y-139114092D01*
X170891410Y-139140599D01*
X170886853Y-139182983D01*
X170886500Y-139189582D01*
X170886500Y-139217774D01*
X170890024Y-139230928D01*
X170926065Y-139247387D01*
X170955830Y-139275767D01*
X171019539Y-139360872D01*
X171028954Y-139373448D01*
X171036050Y-139378760D01*
X171121373Y-139442633D01*
X171159857Y-139490389D01*
X171170746Y-139550747D01*
X171151377Y-139608940D01*
X171106489Y-139650732D01*
X171047062Y-139665900D01*
X170902826Y-139665900D01*
X170889950Y-139669350D01*
X170886500Y-139682226D01*
X170886500Y-139710418D01*
X170886853Y-139717014D01*
X170892073Y-139765567D01*
X170895611Y-139780541D01*
X170940047Y-139899677D01*
X170948462Y-139915089D01*
X171023998Y-140015992D01*
X171036407Y-140028401D01*
X171137310Y-140103937D01*
X171152722Y-140112352D01*
X171271858Y-140156788D01*
X171286832Y-140160326D01*
X171335385Y-140165546D01*
X171341982Y-140165900D01*
X171979774Y-140165900D01*
X171992649Y-140162449D01*
X171996100Y-140149574D01*
X171996100Y-139682226D01*
X171993493Y-139672497D01*
X171991649Y-139616212D01*
X172014890Y-139564916D01*
X172058423Y-139529189D01*
X172113264Y-139516401D01*
X172310733Y-139516401D01*
X172365575Y-139529189D01*
X172409107Y-139564914D01*
X172432349Y-139616208D01*
X172430507Y-139672493D01*
X172427900Y-139682223D01*
X172427900Y-140149574D01*
X172431350Y-140162449D01*
X172444226Y-140165900D01*
X173082018Y-140165900D01*
X173088614Y-140165546D01*
X173137167Y-140160326D01*
X173152141Y-140156788D01*
X173271277Y-140112352D01*
X173286689Y-140103937D01*
X173387592Y-140028401D01*
X173400001Y-140015992D01*
X173475537Y-139915089D01*
X173483952Y-139899677D01*
X173528388Y-139780541D01*
X173531926Y-139765567D01*
X173537146Y-139717014D01*
X173537500Y-139710418D01*
X173537500Y-139682226D01*
X173534049Y-139669350D01*
X173521174Y-139665900D01*
X173376938Y-139665900D01*
X173317511Y-139650732D01*
X173272623Y-139608940D01*
X173253254Y-139550747D01*
X173264143Y-139490389D01*
X173302627Y-139442633D01*
X173319904Y-139429699D01*
X173395046Y-139373448D01*
X173468170Y-139275767D01*
X173497934Y-139247387D01*
X173533975Y-139230928D01*
X173537500Y-139217774D01*
X173537500Y-139189582D01*
X173537145Y-139182969D01*
X173532590Y-139140599D01*
X173532590Y-139114092D01*
X173538000Y-139063775D01*
X173537999Y-138536230D01*
X173532841Y-138488247D01*
X173532841Y-138461748D01*
X173535332Y-138438582D01*
X173561379Y-138374898D01*
X173617368Y-138334903D01*
X173686060Y-138330914D01*
X173746302Y-138364159D01*
X174847181Y-139465038D01*
X174874061Y-139505266D01*
X174883500Y-139552719D01*
X174883500Y-142996279D01*
X174883274Y-143003767D01*
X174880094Y-143056318D01*
X174880094Y-143056326D01*
X174879642Y-143063806D01*
X174880993Y-143071182D01*
X174880994Y-143071187D01*
X174890483Y-143122971D01*
X174891610Y-143130371D01*
X174897955Y-143182625D01*
X174897956Y-143182630D01*
X174898860Y-143190072D01*
X174901519Y-143197085D01*
X174901521Y-143197091D01*
X174902450Y-143199540D01*
X174908475Y-143221152D01*
X174908951Y-143223751D01*
X174908954Y-143223760D01*
X174910305Y-143231132D01*
X174913382Y-143237969D01*
X174913383Y-143237972D01*
X174934991Y-143285984D01*
X174937857Y-143292902D01*
X174959182Y-143349130D01*
X174963442Y-143355302D01*
X174963445Y-143355307D01*
X174964937Y-143357468D01*
X174975959Y-143377010D01*
X174977039Y-143379410D01*
X174977044Y-143379419D01*
X174980122Y-143386257D01*
X174984745Y-143392158D01*
X174984747Y-143392161D01*
X175017216Y-143433604D01*
X175021636Y-143439610D01*
X175055817Y-143489129D01*
X175100847Y-143529022D01*
X175106282Y-143534139D01*
X176174413Y-144602270D01*
X176179547Y-144607724D01*
X176219425Y-144652737D01*
X176268931Y-144686909D01*
X176274951Y-144691339D01*
X176297515Y-144709017D01*
X176322297Y-144728432D01*
X176329137Y-144731510D01*
X176329138Y-144731511D01*
X176331535Y-144732590D01*
X176351084Y-144743615D01*
X176359424Y-144749372D01*
X176386083Y-144759482D01*
X176415655Y-144770697D01*
X176422577Y-144773564D01*
X176477422Y-144798248D01*
X176487389Y-144800074D01*
X176509007Y-144806101D01*
X176511467Y-144807034D01*
X176511470Y-144807034D01*
X176518482Y-144809694D01*
X176575956Y-144816672D01*
X176578184Y-144816943D01*
X176585589Y-144818070D01*
X176596171Y-144820009D01*
X176644748Y-144828911D01*
X176704776Y-144825280D01*
X176712264Y-144825054D01*
X177122292Y-144825054D01*
X177172507Y-144835677D01*
X177214119Y-144865725D01*
X177239998Y-144910050D01*
X177290360Y-145062032D01*
X177292632Y-145068888D01*
X177296423Y-145075034D01*
X177380943Y-145212065D01*
X177380946Y-145212069D01*
X177384734Y-145218210D01*
X177389839Y-145223315D01*
X177486397Y-145319873D01*
X177518491Y-145375460D01*
X177518491Y-145439648D01*
X177486397Y-145495235D01*
X177415839Y-145565792D01*
X177415835Y-145565796D01*
X177410734Y-145570898D01*
X177406949Y-145577034D01*
X177406943Y-145577042D01*
X177322423Y-145714073D01*
X177318632Y-145720220D01*
X177316361Y-145727071D01*
X177316360Y-145727075D01*
X177265998Y-145879058D01*
X177240119Y-145923383D01*
X177198507Y-145953431D01*
X177148292Y-145964054D01*
X176927273Y-145964054D01*
X176879820Y-145954615D01*
X176839592Y-145927735D01*
X175671339Y-144759482D01*
X175666222Y-144754047D01*
X175626329Y-144709017D01*
X175576810Y-144674836D01*
X175570804Y-144670416D01*
X175529361Y-144637947D01*
X175529358Y-144637945D01*
X175523457Y-144633322D01*
X175516619Y-144630244D01*
X175516610Y-144630239D01*
X175514210Y-144629159D01*
X175494668Y-144618137D01*
X175492507Y-144616645D01*
X175492502Y-144616642D01*
X175486330Y-144612382D01*
X175459446Y-144602186D01*
X175430102Y-144591057D01*
X175423184Y-144588191D01*
X175375172Y-144566583D01*
X175375169Y-144566582D01*
X175368332Y-144563505D01*
X175360960Y-144562154D01*
X175360951Y-144562151D01*
X175358352Y-144561675D01*
X175336740Y-144555650D01*
X175334291Y-144554721D01*
X175334285Y-144554719D01*
X175327272Y-144552060D01*
X175319830Y-144551156D01*
X175319825Y-144551155D01*
X175267571Y-144544810D01*
X175260171Y-144543683D01*
X175208387Y-144534194D01*
X175208382Y-144534193D01*
X175201006Y-144532842D01*
X175193526Y-144533294D01*
X175193518Y-144533294D01*
X175140967Y-144536474D01*
X175133479Y-144536700D01*
X172568899Y-144536700D01*
X172506899Y-144520087D01*
X172461512Y-144474700D01*
X172444899Y-144412700D01*
X172444899Y-144342639D01*
X172444899Y-144339328D01*
X172438491Y-144279717D01*
X172388196Y-144144869D01*
X172301946Y-144029654D01*
X172264342Y-144001504D01*
X172193831Y-143948719D01*
X172193830Y-143948718D01*
X172186731Y-143943404D01*
X172051883Y-143893109D01*
X172044170Y-143892279D01*
X172044167Y-143892279D01*
X171995580Y-143887055D01*
X171995569Y-143887054D01*
X171992273Y-143886700D01*
X171988950Y-143886700D01*
X170199839Y-143886700D01*
X170199820Y-143886700D01*
X170196528Y-143886701D01*
X170193250Y-143887053D01*
X170193238Y-143887054D01*
X170144631Y-143892279D01*
X170144625Y-143892280D01*
X170136917Y-143893109D01*
X170129652Y-143895818D01*
X170129646Y-143895820D01*
X170010380Y-143940304D01*
X170010378Y-143940304D01*
X170002069Y-143943404D01*
X169994972Y-143948716D01*
X169994968Y-143948719D01*
X169893950Y-144024341D01*
X169893946Y-144024344D01*
X169886854Y-144029654D01*
X169881544Y-144036746D01*
X169881541Y-144036750D01*
X169805919Y-144137768D01*
X169805916Y-144137772D01*
X169800604Y-144144869D01*
X169797504Y-144153178D01*
X169797505Y-144153178D01*
X169751589Y-144276283D01*
X169716610Y-144326662D01*
X169661765Y-144354115D01*
X169600472Y-144351926D01*
X169547726Y-144320630D01*
X169429630Y-144202534D01*
X169425801Y-144198705D01*
X169322573Y-144126424D01*
X169286309Y-144086849D01*
X169270168Y-144035656D01*
X169277174Y-143982439D01*
X169306011Y-143937172D01*
X169479731Y-143763452D01*
X169485151Y-143758350D01*
X169530183Y-143718457D01*
X169564355Y-143668948D01*
X169568775Y-143662941D01*
X169605878Y-143615585D01*
X169610034Y-143606349D01*
X169621066Y-143586789D01*
X169621453Y-143586228D01*
X169659985Y-143550183D01*
X169710020Y-143533422D01*
X169762494Y-143538983D01*
X169796869Y-143550374D01*
X169810041Y-143553194D01*
X169902890Y-143562680D01*
X169909168Y-143563000D01*
X169964674Y-143563000D01*
X169977549Y-143559549D01*
X169981000Y-143546674D01*
X169981000Y-143546673D01*
X170481000Y-143546673D01*
X170484450Y-143559548D01*
X170497326Y-143562999D01*
X170552829Y-143562999D01*
X170559111Y-143562678D01*
X170651959Y-143553194D01*
X170665122Y-143550376D01*
X170818267Y-143499629D01*
X170831266Y-143493567D01*
X170968194Y-143409109D01*
X170979455Y-143400205D01*
X171093205Y-143286455D01*
X171102109Y-143275194D01*
X171186567Y-143138266D01*
X171192629Y-143125267D01*
X171243375Y-142972125D01*
X171246194Y-142958958D01*
X171247208Y-142949032D01*
X171682413Y-142949032D01*
X171690885Y-142956523D01*
X171796692Y-143013078D01*
X171807892Y-143017717D01*
X171984735Y-143071362D01*
X171996630Y-143073728D01*
X172180539Y-143091842D01*
X172192661Y-143091842D01*
X172376569Y-143073728D01*
X172388464Y-143071362D01*
X172565307Y-143017717D01*
X172576507Y-143013078D01*
X172682313Y-142956523D01*
X172690785Y-142949032D01*
X172684854Y-142939408D01*
X172198142Y-142452695D01*
X172186600Y-142446031D01*
X172175057Y-142452695D01*
X171688343Y-142939409D01*
X171682413Y-142949032D01*
X171247208Y-142949032D01*
X171255680Y-142866109D01*
X171255999Y-142859831D01*
X171255999Y-142703648D01*
X171271735Y-142643190D01*
X171314951Y-142598078D01*
X171334792Y-142585852D01*
X171821503Y-142099142D01*
X171828167Y-142087599D01*
X172545031Y-142087599D01*
X172551695Y-142099142D01*
X173038408Y-142585854D01*
X173048032Y-142591785D01*
X173055523Y-142583313D01*
X173112078Y-142477507D01*
X173116717Y-142466307D01*
X173170362Y-142289464D01*
X173172728Y-142277569D01*
X173190842Y-142093661D01*
X173190842Y-142081539D01*
X173172728Y-141897630D01*
X173170362Y-141885735D01*
X173116717Y-141708892D01*
X173112078Y-141697692D01*
X173055523Y-141591885D01*
X173048032Y-141583413D01*
X173038409Y-141589343D01*
X172551695Y-142076057D01*
X172545031Y-142087599D01*
X171828167Y-142087599D01*
X171821503Y-142076057D01*
X171334789Y-141589343D01*
X171314949Y-141577118D01*
X171271735Y-141532007D01*
X171255999Y-141471551D01*
X171255999Y-141366171D01*
X171255678Y-141359888D01*
X171246194Y-141267040D01*
X171243376Y-141253877D01*
X171234194Y-141226166D01*
X171682413Y-141226166D01*
X171688343Y-141235789D01*
X172175057Y-141722503D01*
X172186600Y-141729167D01*
X172198142Y-141722503D01*
X172684854Y-141235790D01*
X172690785Y-141226165D01*
X172682316Y-141218676D01*
X172576504Y-141162120D01*
X172565307Y-141157482D01*
X172388464Y-141103837D01*
X172376569Y-141101471D01*
X172192661Y-141083358D01*
X172180539Y-141083358D01*
X171996630Y-141101471D01*
X171984735Y-141103837D01*
X171807892Y-141157482D01*
X171796693Y-141162120D01*
X171690884Y-141218675D01*
X171682413Y-141226166D01*
X171234194Y-141226166D01*
X171192629Y-141100732D01*
X171186567Y-141087733D01*
X171102109Y-140950805D01*
X171093205Y-140939544D01*
X170979455Y-140825794D01*
X170968194Y-140816890D01*
X170831266Y-140732432D01*
X170818267Y-140726370D01*
X170665125Y-140675624D01*
X170651958Y-140672805D01*
X170559109Y-140663319D01*
X170552832Y-140663000D01*
X170497326Y-140663000D01*
X170484450Y-140666450D01*
X170481000Y-140679326D01*
X170481000Y-143546673D01*
X169981000Y-143546673D01*
X169981000Y-140679327D01*
X169977549Y-140666451D01*
X169964674Y-140663001D01*
X169909171Y-140663001D01*
X169902888Y-140663321D01*
X169839101Y-140669837D01*
X169771925Y-140657823D01*
X169721278Y-140612087D01*
X169702500Y-140546479D01*
X169702500Y-138300701D01*
X169712256Y-138252490D01*
X169739989Y-138211865D01*
X169751658Y-138200502D01*
X170355463Y-137612501D01*
X170383020Y-137585665D01*
X170422839Y-137559628D01*
X170469531Y-137550501D01*
X170762001Y-137550501D01*
X170824001Y-137567114D01*
G37*
%TD.AperFunction*%
%TD*%
%TA.AperFunction,Conductor*%
%TO.N,GNDA*%
G36*
X167555549Y-134317158D02*
G01*
X167600948Y-134362656D01*
X167617471Y-134424770D01*
X167612608Y-136656854D01*
X167612608Y-136656870D01*
X167612601Y-136660512D01*
X167613022Y-136664133D01*
X167613023Y-136664150D01*
X167622113Y-136742328D01*
X167626337Y-136778656D01*
X167627184Y-136782214D01*
X167627186Y-136782226D01*
X167638903Y-136831456D01*
X167638906Y-136831468D01*
X167639753Y-136835024D01*
X167641011Y-136838455D01*
X167641014Y-136838463D01*
X167678194Y-136939820D01*
X167680714Y-136946689D01*
X167746632Y-137045692D01*
X167749000Y-137048473D01*
X167749003Y-137048477D01*
X167774855Y-137078839D01*
X167784199Y-137089813D01*
X167786884Y-137092302D01*
X167805302Y-137109376D01*
X167838418Y-137160446D01*
X167843244Y-137221121D01*
X167818615Y-137276783D01*
X167802749Y-137297035D01*
X167802743Y-137297043D01*
X167798122Y-137302943D01*
X167795044Y-137309780D01*
X167795043Y-137309783D01*
X167793962Y-137312185D01*
X167782940Y-137331727D01*
X167781441Y-137333898D01*
X167781437Y-137333904D01*
X167777182Y-137340070D01*
X167774526Y-137347070D01*
X167774522Y-137347080D01*
X167755853Y-137396305D01*
X167752989Y-137403219D01*
X167731382Y-137451229D01*
X167731379Y-137451235D01*
X167728305Y-137458068D01*
X167726953Y-137465439D01*
X167726951Y-137465449D01*
X167726474Y-137468053D01*
X167720456Y-137489643D01*
X167719519Y-137492114D01*
X167719517Y-137492119D01*
X167716860Y-137499128D01*
X167715956Y-137506565D01*
X167715956Y-137506569D01*
X167709610Y-137558827D01*
X167708483Y-137566226D01*
X167698994Y-137618010D01*
X167698993Y-137618018D01*
X167697642Y-137625394D01*
X167698094Y-137632873D01*
X167698094Y-137632881D01*
X167701274Y-137685433D01*
X167701500Y-137692921D01*
X167701500Y-140565663D01*
X167687903Y-140622119D01*
X167650093Y-140666193D01*
X167596362Y-140688220D01*
X167538495Y-140683369D01*
X167515122Y-140675623D01*
X167501958Y-140672805D01*
X167409109Y-140663319D01*
X167402832Y-140663000D01*
X167347326Y-140663000D01*
X167334450Y-140666450D01*
X167331000Y-140679326D01*
X167331000Y-142239000D01*
X167314387Y-142301000D01*
X167269000Y-142346387D01*
X167207000Y-142363000D01*
X166086787Y-142363000D01*
X166039334Y-142353561D01*
X166026007Y-142344656D01*
X165999674Y-142337600D01*
X164043127Y-142337600D01*
X164030251Y-142341050D01*
X164026801Y-142353926D01*
X164026801Y-142784429D01*
X164027121Y-142790711D01*
X164036605Y-142883557D01*
X164039424Y-142896723D01*
X164058949Y-142955646D01*
X164062704Y-143019615D01*
X164034023Y-143076917D01*
X164033350Y-143077676D01*
X164028251Y-143083090D01*
X163406290Y-143705051D01*
X163400838Y-143710184D01*
X163361431Y-143745096D01*
X163361425Y-143745102D01*
X163355817Y-143750071D01*
X163351560Y-143756236D01*
X163351551Y-143756248D01*
X163321649Y-143799568D01*
X163317213Y-143805597D01*
X163284749Y-143847035D01*
X163284743Y-143847043D01*
X163280122Y-143852943D01*
X163277044Y-143859780D01*
X163277043Y-143859783D01*
X163275962Y-143862185D01*
X163264940Y-143881727D01*
X163263441Y-143883898D01*
X163263437Y-143883904D01*
X163259182Y-143890070D01*
X163256526Y-143897070D01*
X163256522Y-143897080D01*
X163237853Y-143946305D01*
X163234989Y-143953219D01*
X163213382Y-144001229D01*
X163213379Y-144001235D01*
X163210305Y-144008068D01*
X163208953Y-144015439D01*
X163208951Y-144015449D01*
X163208474Y-144018053D01*
X163202456Y-144039643D01*
X163201519Y-144042114D01*
X163201517Y-144042119D01*
X163198860Y-144049128D01*
X163197956Y-144056565D01*
X163197956Y-144056569D01*
X163191610Y-144108827D01*
X163190483Y-144116226D01*
X163180994Y-144168010D01*
X163180993Y-144168018D01*
X163179642Y-144175394D01*
X163180094Y-144182873D01*
X163180094Y-144182881D01*
X163183274Y-144235433D01*
X163183500Y-144242921D01*
X163183500Y-145625300D01*
X163166887Y-145687300D01*
X163121500Y-145732687D01*
X163059500Y-145749300D01*
X158994059Y-145749300D01*
X158927738Y-145730074D01*
X158881984Y-145678358D01*
X158870983Y-145610188D01*
X158898148Y-145546705D01*
X158955055Y-145507594D01*
X158966179Y-145503907D01*
X159114334Y-145454814D01*
X159263656Y-145362712D01*
X159340536Y-145285832D01*
X160785813Y-145285832D01*
X160794285Y-145293323D01*
X160900092Y-145349878D01*
X160911292Y-145354517D01*
X161088135Y-145408162D01*
X161100030Y-145410528D01*
X161283939Y-145428642D01*
X161296061Y-145428642D01*
X161479969Y-145410528D01*
X161491864Y-145408162D01*
X161668707Y-145354517D01*
X161679907Y-145349878D01*
X161785713Y-145293323D01*
X161794185Y-145285832D01*
X161788254Y-145276208D01*
X161301542Y-144789495D01*
X161290000Y-144782831D01*
X161278457Y-144789495D01*
X160791743Y-145276209D01*
X160785813Y-145285832D01*
X159340536Y-145285832D01*
X159387712Y-145238656D01*
X159479814Y-145089334D01*
X159534999Y-144922797D01*
X159545500Y-144820009D01*
X159545500Y-144430461D01*
X160285758Y-144430461D01*
X160303871Y-144614369D01*
X160306237Y-144626264D01*
X160359882Y-144803107D01*
X160364520Y-144814304D01*
X160421076Y-144920116D01*
X160428565Y-144928585D01*
X160438189Y-144922655D01*
X160924903Y-144435941D01*
X160931567Y-144424399D01*
X161648431Y-144424399D01*
X161655095Y-144435941D01*
X162141807Y-144922653D01*
X162151433Y-144928584D01*
X162158923Y-144920113D01*
X162215478Y-144814307D01*
X162220117Y-144803107D01*
X162273762Y-144626264D01*
X162276128Y-144614369D01*
X162294242Y-144430461D01*
X162294242Y-144418339D01*
X162276128Y-144234430D01*
X162273762Y-144222535D01*
X162220117Y-144045692D01*
X162215478Y-144034492D01*
X162158923Y-143928685D01*
X162151432Y-143920213D01*
X162141808Y-143926144D01*
X161655095Y-144412856D01*
X161648431Y-144424399D01*
X160931567Y-144424399D01*
X160924903Y-144412856D01*
X160438190Y-143926144D01*
X160428566Y-143920213D01*
X160421075Y-143928684D01*
X160364520Y-144034493D01*
X160359882Y-144045692D01*
X160306237Y-144222535D01*
X160303871Y-144234430D01*
X160285758Y-144418339D01*
X160285758Y-144430461D01*
X159545500Y-144430461D01*
X159545499Y-143469992D01*
X159534999Y-143367203D01*
X159479814Y-143200666D01*
X159403954Y-143077676D01*
X159391502Y-143057488D01*
X159391500Y-143057485D01*
X159387712Y-143051344D01*
X159263656Y-142927288D01*
X159257507Y-142923495D01*
X159257503Y-142923492D01*
X159173245Y-142871522D01*
X159141696Y-142843672D01*
X159127311Y-142817748D01*
X159126112Y-142818326D01*
X159123086Y-142812044D01*
X159120789Y-142805478D01*
X159100422Y-142773064D01*
X159093697Y-142760895D01*
X159080114Y-142732690D01*
X159080113Y-142732688D01*
X159077091Y-142726413D01*
X159053223Y-142696484D01*
X159045177Y-142685143D01*
X159032456Y-142664898D01*
X159024816Y-142652738D01*
X158897262Y-142525184D01*
X158897261Y-142525183D01*
X158660929Y-142288851D01*
X158629923Y-142237079D01*
X158627028Y-142176802D01*
X158652929Y-142122296D01*
X158701491Y-142086471D01*
X158761211Y-142077812D01*
X158811991Y-142083000D01*
X160212008Y-142082999D01*
X160314797Y-142072499D01*
X160481334Y-142017314D01*
X160630656Y-141925212D01*
X160689620Y-141866247D01*
X160738981Y-141835998D01*
X160796697Y-141831456D01*
X160850185Y-141853611D01*
X160887785Y-141897634D01*
X160901300Y-141953929D01*
X160901300Y-142784458D01*
X160901300Y-142784477D01*
X160901301Y-142787608D01*
X160901620Y-142790740D01*
X160901621Y-142790741D01*
X160911112Y-142883661D01*
X160911113Y-142883669D01*
X160911801Y-142890397D01*
X160913929Y-142896819D01*
X160913930Y-142896823D01*
X160958928Y-143032617D01*
X160966986Y-143056934D01*
X160970777Y-143063080D01*
X161055297Y-143200111D01*
X161055300Y-143200115D01*
X161059088Y-143206256D01*
X161064193Y-143211361D01*
X161099391Y-143246559D01*
X161131218Y-143301167D01*
X161131994Y-143364369D01*
X161101517Y-143419743D01*
X161047706Y-143452900D01*
X160911298Y-143494279D01*
X160900093Y-143498920D01*
X160794284Y-143555475D01*
X160785813Y-143562966D01*
X160791744Y-143572590D01*
X161278456Y-144059303D01*
X161289999Y-144065967D01*
X161301541Y-144059303D01*
X161788252Y-143572592D01*
X161803992Y-143547049D01*
X161849104Y-143503835D01*
X161909557Y-143488099D01*
X162526808Y-143488099D01*
X162629597Y-143477599D01*
X162796134Y-143422414D01*
X162945456Y-143330312D01*
X163069512Y-143206256D01*
X163161614Y-143056934D01*
X163216799Y-142890397D01*
X163227300Y-142787609D01*
X163227299Y-141821274D01*
X164026800Y-141821274D01*
X164030250Y-141834149D01*
X164043126Y-141837600D01*
X164922974Y-141837600D01*
X164935849Y-141834149D01*
X164939300Y-141821274D01*
X165439300Y-141821274D01*
X165442750Y-141834149D01*
X165455626Y-141837600D01*
X166321013Y-141837600D01*
X166368466Y-141847039D01*
X166381792Y-141855943D01*
X166408126Y-141863000D01*
X166814674Y-141863000D01*
X166827549Y-141859549D01*
X166831000Y-141846674D01*
X166831000Y-140679327D01*
X166827549Y-140666451D01*
X166814674Y-140663001D01*
X166759171Y-140663001D01*
X166752888Y-140663321D01*
X166660040Y-140672805D01*
X166646877Y-140675623D01*
X166493732Y-140726370D01*
X166480733Y-140732432D01*
X166343805Y-140816890D01*
X166332544Y-140825794D01*
X166279281Y-140879058D01*
X166223694Y-140911152D01*
X166159506Y-140911152D01*
X166103919Y-140879058D01*
X166075255Y-140850394D01*
X166063994Y-140841490D01*
X165927066Y-140757032D01*
X165914067Y-140750970D01*
X165760925Y-140700224D01*
X165747758Y-140697405D01*
X165654909Y-140687919D01*
X165648632Y-140687600D01*
X165455626Y-140687600D01*
X165442750Y-140691050D01*
X165439300Y-140703926D01*
X165439300Y-141821274D01*
X164939300Y-141821274D01*
X164939300Y-140703927D01*
X164935849Y-140691051D01*
X164922974Y-140687601D01*
X164729971Y-140687601D01*
X164723688Y-140687921D01*
X164630840Y-140697405D01*
X164617677Y-140700223D01*
X164464532Y-140750970D01*
X164451533Y-140757032D01*
X164314605Y-140841490D01*
X164303344Y-140850394D01*
X164189594Y-140964144D01*
X164180690Y-140975405D01*
X164096232Y-141112333D01*
X164090170Y-141125332D01*
X164039424Y-141278474D01*
X164036605Y-141291641D01*
X164027119Y-141384490D01*
X164026800Y-141390768D01*
X164026800Y-141821274D01*
X163227299Y-141821274D01*
X163227299Y-141387592D01*
X163216799Y-141284803D01*
X163161614Y-141118266D01*
X163088515Y-140999753D01*
X163073302Y-140975088D01*
X163073300Y-140975085D01*
X163069512Y-140968944D01*
X162945456Y-140844888D01*
X162939315Y-140841100D01*
X162939311Y-140841097D01*
X162802280Y-140756577D01*
X162796134Y-140752786D01*
X162629597Y-140697601D01*
X162622866Y-140696913D01*
X162622860Y-140696912D01*
X162589289Y-140693483D01*
X162525337Y-140667671D01*
X162485065Y-140611687D01*
X162480930Y-140542846D01*
X162514209Y-140482446D01*
X163410418Y-139586238D01*
X163459782Y-139555988D01*
X163517498Y-139551446D01*
X163570985Y-139573601D01*
X163608585Y-139617624D01*
X163622100Y-139673919D01*
X163622100Y-139710416D01*
X163622453Y-139717012D01*
X163627673Y-139765565D01*
X163631211Y-139780539D01*
X163675647Y-139899675D01*
X163684062Y-139915087D01*
X163759598Y-140015990D01*
X163772007Y-140028399D01*
X163872910Y-140103935D01*
X163888322Y-140112350D01*
X164007458Y-140156786D01*
X164022432Y-140160324D01*
X164070985Y-140165544D01*
X164077582Y-140165898D01*
X164715374Y-140165898D01*
X164728249Y-140162447D01*
X164731700Y-140149572D01*
X164731700Y-139640399D01*
X164748313Y-139578399D01*
X164793700Y-139533012D01*
X164855699Y-139516399D01*
X164951433Y-139516398D01*
X165046332Y-139516398D01*
X165101175Y-139529185D01*
X165144707Y-139564910D01*
X165167949Y-139616204D01*
X165166108Y-139672488D01*
X165163500Y-139682222D01*
X165163500Y-140149572D01*
X165166950Y-140162447D01*
X165179826Y-140165898D01*
X165817618Y-140165898D01*
X165824214Y-140165544D01*
X165872767Y-140160324D01*
X165887741Y-140156786D01*
X166006877Y-140112350D01*
X166022289Y-140103935D01*
X166123192Y-140028399D01*
X166135601Y-140015990D01*
X166211137Y-139915087D01*
X166219552Y-139899675D01*
X166263988Y-139780539D01*
X166267526Y-139765565D01*
X166272746Y-139717012D01*
X166273100Y-139710416D01*
X166273100Y-139682224D01*
X166269649Y-139669348D01*
X166256774Y-139665898D01*
X166112537Y-139665898D01*
X166053110Y-139650730D01*
X166008222Y-139608938D01*
X165988853Y-139550745D01*
X165999742Y-139490387D01*
X166038226Y-139442632D01*
X166123545Y-139378761D01*
X166123545Y-139378760D01*
X166130646Y-139373445D01*
X166203769Y-139275764D01*
X166233533Y-139247385D01*
X166269575Y-139230924D01*
X166273100Y-139217772D01*
X166273100Y-139189580D01*
X166272745Y-139182967D01*
X166268190Y-139140596D01*
X166268190Y-139114090D01*
X166273600Y-139063772D01*
X166273599Y-138536227D01*
X166268189Y-138485899D01*
X166268190Y-138459396D01*
X166272745Y-138417026D01*
X166273100Y-138410416D01*
X166273100Y-138382224D01*
X166269575Y-138369070D01*
X166233529Y-138352608D01*
X166203766Y-138324229D01*
X166130646Y-138226553D01*
X166132683Y-138225027D01*
X166107895Y-138182093D01*
X166107895Y-138117905D01*
X166132683Y-138074971D01*
X166130646Y-138073446D01*
X166179128Y-138008681D01*
X166203769Y-137975764D01*
X166233533Y-137947385D01*
X166269575Y-137930924D01*
X166273100Y-137917772D01*
X166273100Y-137889580D01*
X166272745Y-137882967D01*
X166268190Y-137840596D01*
X166268190Y-137814090D01*
X166273600Y-137763772D01*
X166273599Y-137236227D01*
X166268441Y-137188244D01*
X166268441Y-137161745D01*
X166273600Y-137113771D01*
X166273599Y-136586226D01*
X166268441Y-136538243D01*
X166268441Y-136511746D01*
X166273600Y-136463772D01*
X166273599Y-135936227D01*
X166268441Y-135888244D01*
X166268441Y-135861748D01*
X166273600Y-135813774D01*
X166273599Y-135286229D01*
X166268441Y-135238246D01*
X166268441Y-135211746D01*
X166273600Y-135163772D01*
X166273599Y-134636227D01*
X166268441Y-134588244D01*
X166268441Y-134561748D01*
X166273600Y-134513774D01*
X166273600Y-134424500D01*
X166290213Y-134362500D01*
X166335600Y-134317113D01*
X166397600Y-134300500D01*
X167493471Y-134300500D01*
X167555549Y-134317158D01*
G37*
%TD.AperFunction*%
%TA.AperFunction,Conductor*%
G36*
X160975472Y-123330515D02*
G01*
X161019495Y-123368115D01*
X161041650Y-123421602D01*
X161037108Y-123479318D01*
X161006858Y-123528681D01*
X160963194Y-123572344D01*
X160954290Y-123583605D01*
X160869832Y-123720533D01*
X160863770Y-123733532D01*
X160813024Y-123886674D01*
X160810205Y-123899841D01*
X160800719Y-123992690D01*
X160800400Y-123998968D01*
X160800400Y-124404474D01*
X160803850Y-124417349D01*
X160816726Y-124420800D01*
X162076400Y-124420800D01*
X162138400Y-124437413D01*
X162183787Y-124482800D01*
X162200400Y-124544800D01*
X162200400Y-126029473D01*
X162203850Y-126042348D01*
X162216726Y-126045799D01*
X162397229Y-126045799D01*
X162403511Y-126045478D01*
X162496359Y-126035994D01*
X162509522Y-126033176D01*
X162662667Y-125982429D01*
X162675666Y-125976367D01*
X162812594Y-125891909D01*
X162823855Y-125883005D01*
X162937605Y-125769255D01*
X162946509Y-125757994D01*
X163030967Y-125621066D01*
X163037029Y-125608067D01*
X163061394Y-125534540D01*
X163100505Y-125477633D01*
X163163988Y-125450468D01*
X163232158Y-125461469D01*
X163283874Y-125507223D01*
X163302184Y-125570385D01*
X163303008Y-125570354D01*
X163303100Y-125572750D01*
X163303100Y-125575123D01*
X163303281Y-125577474D01*
X163303282Y-125577491D01*
X163303410Y-125579145D01*
X163303935Y-125585949D01*
X163305930Y-125592474D01*
X163305931Y-125592477D01*
X163307333Y-125597062D01*
X163346023Y-125723580D01*
X163425182Y-125843778D01*
X163534997Y-125936806D01*
X163666573Y-125995126D01*
X163809250Y-126014015D01*
X163820068Y-126013059D01*
X165855012Y-125673901D01*
X165913237Y-125678129D01*
X165963076Y-125708533D01*
X166269714Y-126015171D01*
X166296594Y-126055399D01*
X166306033Y-126102852D01*
X166306033Y-126768312D01*
X166295410Y-126818527D01*
X166265362Y-126860139D01*
X166221037Y-126886018D01*
X166069054Y-126936380D01*
X166069050Y-126936381D01*
X166062199Y-126938652D01*
X166056055Y-126942441D01*
X166056052Y-126942443D01*
X165919021Y-127026963D01*
X165919013Y-127026969D01*
X165912877Y-127030754D01*
X165907775Y-127035855D01*
X165907771Y-127035859D01*
X165793926Y-127149704D01*
X165793922Y-127149708D01*
X165788821Y-127154810D01*
X165785036Y-127160946D01*
X165785030Y-127160954D01*
X165700510Y-127297985D01*
X165696719Y-127304132D01*
X165694448Y-127310983D01*
X165694447Y-127310987D01*
X165643739Y-127464014D01*
X165641534Y-127470669D01*
X165640846Y-127477399D01*
X165640845Y-127477406D01*
X165631352Y-127570325D01*
X165631351Y-127570343D01*
X165631033Y-127573457D01*
X165631033Y-127576604D01*
X165631033Y-127576605D01*
X165631033Y-128470324D01*
X165631033Y-128470343D01*
X165631034Y-128473474D01*
X165631353Y-128476606D01*
X165631354Y-128476607D01*
X165640845Y-128569527D01*
X165640846Y-128569535D01*
X165641534Y-128576263D01*
X165696719Y-128742800D01*
X165709383Y-128763331D01*
X165785030Y-128885977D01*
X165785033Y-128885981D01*
X165788821Y-128892122D01*
X165912877Y-129016178D01*
X165919018Y-129019966D01*
X165919021Y-129019968D01*
X165975116Y-129054567D01*
X166062199Y-129108280D01*
X166228736Y-129163465D01*
X166331524Y-129173966D01*
X167504640Y-129173965D01*
X167566718Y-129190623D01*
X167612117Y-129236121D01*
X167628640Y-129298235D01*
X167627439Y-129849236D01*
X167610736Y-129911122D01*
X167565361Y-129956398D01*
X167503439Y-129972966D01*
X166334673Y-129972966D01*
X166334653Y-129972966D01*
X166331525Y-129972967D01*
X166328393Y-129973286D01*
X166328391Y-129973287D01*
X166235471Y-129982778D01*
X166235461Y-129982779D01*
X166228736Y-129983467D01*
X166222314Y-129985594D01*
X166222309Y-129985596D01*
X166069054Y-130036380D01*
X166069050Y-130036381D01*
X166062199Y-130038652D01*
X166056055Y-130042441D01*
X166056052Y-130042443D01*
X165919021Y-130126963D01*
X165919013Y-130126969D01*
X165912877Y-130130754D01*
X165907775Y-130135855D01*
X165907771Y-130135859D01*
X165793926Y-130249704D01*
X165793922Y-130249708D01*
X165788821Y-130254810D01*
X165785032Y-130260951D01*
X165785031Y-130260954D01*
X165756515Y-130307186D01*
X165704083Y-130392194D01*
X165703034Y-130393894D01*
X165657927Y-130437075D01*
X165597495Y-130452798D01*
X165253348Y-130452798D01*
X165192916Y-130437075D01*
X165147809Y-130393895D01*
X165072712Y-130272142D01*
X164948656Y-130148086D01*
X164942515Y-130144298D01*
X164942511Y-130144295D01*
X164805480Y-130059775D01*
X164799334Y-130055984D01*
X164632797Y-130000799D01*
X164626064Y-130000111D01*
X164626059Y-130000110D01*
X164533140Y-129990617D01*
X164533123Y-129990616D01*
X164530009Y-129990298D01*
X164526860Y-129990298D01*
X163133140Y-129990298D01*
X163133120Y-129990298D01*
X163129992Y-129990299D01*
X163126860Y-129990618D01*
X163126858Y-129990619D01*
X163033938Y-130000110D01*
X163033928Y-130000111D01*
X163027203Y-130000799D01*
X163020781Y-130002926D01*
X163020776Y-130002928D01*
X162867521Y-130053712D01*
X162867517Y-130053713D01*
X162860666Y-130055984D01*
X162854522Y-130059773D01*
X162854519Y-130059775D01*
X162717488Y-130144295D01*
X162717480Y-130144301D01*
X162711344Y-130148086D01*
X162706242Y-130153187D01*
X162706238Y-130153191D01*
X162592393Y-130267036D01*
X162592389Y-130267040D01*
X162587288Y-130272142D01*
X162583503Y-130278278D01*
X162583497Y-130278286D01*
X162498976Y-130415318D01*
X162498973Y-130415323D01*
X162495186Y-130421464D01*
X162492916Y-130428312D01*
X162492915Y-130428316D01*
X162477341Y-130475315D01*
X162451790Y-130519277D01*
X162422587Y-130540627D01*
X162423699Y-130542466D01*
X162417281Y-130546345D01*
X162410443Y-130549423D01*
X162404543Y-130554045D01*
X162404540Y-130554047D01*
X162363095Y-130586516D01*
X162357066Y-130590951D01*
X162313749Y-130620851D01*
X162313741Y-130620857D01*
X162307571Y-130625117D01*
X162302601Y-130630726D01*
X162302594Y-130630733D01*
X162267684Y-130670138D01*
X162262551Y-130675590D01*
X161625090Y-131313051D01*
X161619638Y-131318184D01*
X161580231Y-131353096D01*
X161580225Y-131353102D01*
X161574617Y-131358071D01*
X161570360Y-131364236D01*
X161570351Y-131364248D01*
X161540449Y-131407568D01*
X161536013Y-131413597D01*
X161503549Y-131455035D01*
X161503543Y-131455043D01*
X161498922Y-131460943D01*
X161495844Y-131467780D01*
X161495843Y-131467783D01*
X161494762Y-131470185D01*
X161483740Y-131489727D01*
X161482241Y-131491898D01*
X161482237Y-131491904D01*
X161477982Y-131498070D01*
X161475326Y-131505070D01*
X161475322Y-131505080D01*
X161456653Y-131554305D01*
X161453789Y-131561219D01*
X161432182Y-131609229D01*
X161432179Y-131609235D01*
X161429105Y-131616068D01*
X161427753Y-131623439D01*
X161427751Y-131623449D01*
X161427274Y-131626053D01*
X161421256Y-131647643D01*
X161420319Y-131650114D01*
X161420317Y-131650119D01*
X161417660Y-131657128D01*
X161416756Y-131664565D01*
X161416756Y-131664569D01*
X161410410Y-131716827D01*
X161409283Y-131724226D01*
X161399794Y-131776010D01*
X161399793Y-131776018D01*
X161398442Y-131783394D01*
X161398894Y-131790873D01*
X161398894Y-131790881D01*
X161402074Y-131843433D01*
X161402300Y-131850921D01*
X161402300Y-132172281D01*
X161388785Y-132228576D01*
X161351185Y-132272599D01*
X161297698Y-132294754D01*
X161239982Y-132290212D01*
X161190619Y-132259962D01*
X160582939Y-131652282D01*
X160577822Y-131646847D01*
X160537929Y-131601817D01*
X160488410Y-131567636D01*
X160482404Y-131563216D01*
X160440961Y-131530747D01*
X160440958Y-131530745D01*
X160435057Y-131526122D01*
X160428219Y-131523044D01*
X160428210Y-131523039D01*
X160425810Y-131521959D01*
X160406268Y-131510937D01*
X160404107Y-131509445D01*
X160404102Y-131509442D01*
X160397930Y-131505182D01*
X160341702Y-131483857D01*
X160334784Y-131480991D01*
X160286772Y-131459383D01*
X160286769Y-131459382D01*
X160279932Y-131456305D01*
X160272560Y-131454954D01*
X160272551Y-131454951D01*
X160269952Y-131454475D01*
X160248340Y-131448450D01*
X160245891Y-131447521D01*
X160245885Y-131447519D01*
X160238872Y-131444860D01*
X160231430Y-131443956D01*
X160231425Y-131443955D01*
X160179171Y-131437610D01*
X160171771Y-131436483D01*
X160119987Y-131426994D01*
X160119982Y-131426993D01*
X160112606Y-131425642D01*
X160105126Y-131426094D01*
X160105118Y-131426094D01*
X160052567Y-131429274D01*
X160045079Y-131429500D01*
X157176148Y-131429500D01*
X157115716Y-131413777D01*
X157070609Y-131370597D01*
X157066693Y-131364248D01*
X156995512Y-131248844D01*
X156871456Y-131124788D01*
X156865315Y-131121000D01*
X156865311Y-131120997D01*
X156728280Y-131036477D01*
X156722134Y-131032686D01*
X156715282Y-131030415D01*
X156715279Y-131030414D01*
X156640122Y-131005510D01*
X156638295Y-131004904D01*
X156593971Y-130979026D01*
X156563923Y-130937415D01*
X156553300Y-130887199D01*
X156553300Y-130523568D01*
X156553300Y-130516606D01*
X156544781Y-130479284D01*
X156542453Y-130465577D01*
X156541013Y-130452798D01*
X156538168Y-130427545D01*
X156535869Y-130420975D01*
X156535868Y-130420970D01*
X156525525Y-130391413D01*
X156521679Y-130378066D01*
X156513160Y-130340739D01*
X156496547Y-130306243D01*
X156491231Y-130293406D01*
X156480888Y-130263848D01*
X156480887Y-130263847D01*
X156478589Y-130257278D01*
X156458222Y-130224864D01*
X156451497Y-130212695D01*
X156437914Y-130184490D01*
X156437913Y-130184488D01*
X156434891Y-130178213D01*
X156411023Y-130148284D01*
X156402977Y-130136943D01*
X156399233Y-130130985D01*
X156382616Y-130104538D01*
X156352852Y-130074774D01*
X156323605Y-130028371D01*
X156317238Y-129973892D01*
X156334993Y-129922000D01*
X156379814Y-129849334D01*
X156434999Y-129682797D01*
X156445500Y-129580009D01*
X156445500Y-129576829D01*
X157245001Y-129576829D01*
X157245321Y-129583111D01*
X157254805Y-129675959D01*
X157257623Y-129689122D01*
X157308370Y-129842267D01*
X157314432Y-129855266D01*
X157398890Y-129992194D01*
X157407794Y-130003455D01*
X157521544Y-130117205D01*
X157532805Y-130126109D01*
X157669733Y-130210567D01*
X157682732Y-130216629D01*
X157835874Y-130267375D01*
X157849041Y-130270194D01*
X157941890Y-130279680D01*
X157948168Y-130280000D01*
X158128674Y-130280000D01*
X158141549Y-130276549D01*
X158145000Y-130263674D01*
X158145000Y-130263673D01*
X158645000Y-130263673D01*
X158648450Y-130276548D01*
X158661326Y-130279999D01*
X158841829Y-130279999D01*
X158848111Y-130279678D01*
X158940959Y-130270194D01*
X158954122Y-130267376D01*
X159107267Y-130216629D01*
X159120266Y-130210567D01*
X159257194Y-130126109D01*
X159268455Y-130117205D01*
X159382205Y-130003455D01*
X159391109Y-129992194D01*
X159475567Y-129855266D01*
X159481629Y-129842267D01*
X159532375Y-129689125D01*
X159535194Y-129675958D01*
X159544680Y-129583109D01*
X159545000Y-129576832D01*
X159545000Y-129171326D01*
X159541549Y-129158450D01*
X159528674Y-129155000D01*
X158661326Y-129155000D01*
X158648450Y-129158450D01*
X158645000Y-129171326D01*
X158645000Y-130263673D01*
X158145000Y-130263673D01*
X158145000Y-129171326D01*
X158141549Y-129158450D01*
X158128674Y-129155000D01*
X157261327Y-129155000D01*
X157248451Y-129158450D01*
X157245001Y-129171326D01*
X157245001Y-129576829D01*
X156445500Y-129576829D01*
X156445499Y-128638674D01*
X157245000Y-128638674D01*
X157248450Y-128651549D01*
X157261326Y-128655000D01*
X158128674Y-128655000D01*
X158141549Y-128651549D01*
X158145000Y-128638674D01*
X158645000Y-128638674D01*
X158648450Y-128651549D01*
X158661326Y-128655000D01*
X159528673Y-128655000D01*
X159541548Y-128651549D01*
X159544999Y-128638674D01*
X159544999Y-128487627D01*
X162430001Y-128487627D01*
X162430321Y-128493909D01*
X162439805Y-128586757D01*
X162442623Y-128599920D01*
X162493370Y-128753065D01*
X162499432Y-128766064D01*
X162583890Y-128902992D01*
X162592794Y-128914253D01*
X162706544Y-129028003D01*
X162717805Y-129036907D01*
X162854733Y-129121365D01*
X162867732Y-129127427D01*
X163020874Y-129178173D01*
X163034041Y-129180992D01*
X163126890Y-129190478D01*
X163133168Y-129190798D01*
X163563674Y-129190798D01*
X163576549Y-129187347D01*
X163580000Y-129174472D01*
X163580000Y-129174471D01*
X164080000Y-129174471D01*
X164083450Y-129187346D01*
X164096326Y-129190797D01*
X164526829Y-129190797D01*
X164533111Y-129190476D01*
X164625959Y-129180992D01*
X164639122Y-129178174D01*
X164792267Y-129127427D01*
X164805266Y-129121365D01*
X164942194Y-129036907D01*
X164953455Y-129028003D01*
X165067205Y-128914253D01*
X165076109Y-128902992D01*
X165160567Y-128766064D01*
X165166629Y-128753065D01*
X165217375Y-128599923D01*
X165220194Y-128586756D01*
X165229680Y-128493907D01*
X165230000Y-128487630D01*
X165230000Y-128294624D01*
X165226549Y-128281748D01*
X165213674Y-128278298D01*
X164096326Y-128278298D01*
X164083450Y-128281748D01*
X164080000Y-128294624D01*
X164080000Y-129174471D01*
X163580000Y-129174471D01*
X163580000Y-128294624D01*
X163576549Y-128281748D01*
X163563674Y-128278298D01*
X162446327Y-128278298D01*
X162433451Y-128281748D01*
X162430001Y-128294624D01*
X162430001Y-128487627D01*
X159544999Y-128487627D01*
X159544999Y-128233171D01*
X159544678Y-128226888D01*
X159535194Y-128134040D01*
X159532376Y-128120877D01*
X159481629Y-127967732D01*
X159475567Y-127954733D01*
X159391109Y-127817805D01*
X159382205Y-127806544D01*
X159337633Y-127761972D01*
X162430000Y-127761972D01*
X162433450Y-127774847D01*
X162446326Y-127778298D01*
X163563674Y-127778298D01*
X163576549Y-127774847D01*
X163580000Y-127761972D01*
X164080000Y-127761972D01*
X164083450Y-127774847D01*
X164096326Y-127778298D01*
X165213673Y-127778298D01*
X165226548Y-127774847D01*
X165229999Y-127761972D01*
X165229999Y-127568969D01*
X165229678Y-127562686D01*
X165220194Y-127469838D01*
X165217376Y-127456675D01*
X165166629Y-127303530D01*
X165160567Y-127290531D01*
X165076109Y-127153603D01*
X165067205Y-127142342D01*
X164953455Y-127028592D01*
X164942194Y-127019688D01*
X164805266Y-126935230D01*
X164792267Y-126929168D01*
X164639125Y-126878422D01*
X164625958Y-126875603D01*
X164533109Y-126866117D01*
X164526832Y-126865798D01*
X164096326Y-126865798D01*
X164083450Y-126869248D01*
X164080000Y-126882124D01*
X164080000Y-127761972D01*
X163580000Y-127761972D01*
X163580000Y-126882125D01*
X163576549Y-126869249D01*
X163563674Y-126865799D01*
X163133171Y-126865799D01*
X163126888Y-126866119D01*
X163034040Y-126875603D01*
X163020877Y-126878421D01*
X162867732Y-126929168D01*
X162854733Y-126935230D01*
X162717805Y-127019688D01*
X162706544Y-127028592D01*
X162592794Y-127142342D01*
X162583890Y-127153603D01*
X162499432Y-127290531D01*
X162493370Y-127303530D01*
X162442624Y-127456672D01*
X162439805Y-127469839D01*
X162430319Y-127562688D01*
X162430000Y-127568966D01*
X162430000Y-127761972D01*
X159337633Y-127761972D01*
X159268455Y-127692794D01*
X159257194Y-127683890D01*
X159120266Y-127599432D01*
X159107267Y-127593370D01*
X158954125Y-127542624D01*
X158940958Y-127539805D01*
X158848109Y-127530319D01*
X158841832Y-127530000D01*
X158661326Y-127530000D01*
X158648450Y-127533450D01*
X158645000Y-127546326D01*
X158645000Y-128638674D01*
X158145000Y-128638674D01*
X158145000Y-127546327D01*
X158141549Y-127533451D01*
X158128674Y-127530001D01*
X157948171Y-127530001D01*
X157941888Y-127530321D01*
X157849040Y-127539805D01*
X157835877Y-127542623D01*
X157682732Y-127593370D01*
X157669733Y-127599432D01*
X157532805Y-127683890D01*
X157521544Y-127692794D01*
X157407794Y-127806544D01*
X157398890Y-127817805D01*
X157314432Y-127954733D01*
X157308370Y-127967732D01*
X157257624Y-128120874D01*
X157254805Y-128134041D01*
X157245319Y-128226890D01*
X157245000Y-128233168D01*
X157245000Y-128638674D01*
X156445499Y-128638674D01*
X156445499Y-128229992D01*
X156434999Y-128127203D01*
X156379814Y-127960666D01*
X156295500Y-127823970D01*
X156291502Y-127817488D01*
X156291500Y-127817485D01*
X156287712Y-127811344D01*
X156163656Y-127687288D01*
X156157515Y-127683500D01*
X156157511Y-127683497D01*
X156020480Y-127598977D01*
X156014334Y-127595186D01*
X156000340Y-127590549D01*
X155854225Y-127542131D01*
X155854224Y-127542130D01*
X155847797Y-127540001D01*
X155841064Y-127539313D01*
X155841059Y-127539312D01*
X155748140Y-127529819D01*
X155748123Y-127529818D01*
X155745009Y-127529500D01*
X155741860Y-127529500D01*
X154848141Y-127529500D01*
X154848121Y-127529500D01*
X154844992Y-127529501D01*
X154841860Y-127529820D01*
X154841858Y-127529821D01*
X154748938Y-127539312D01*
X154748928Y-127539313D01*
X154742203Y-127540001D01*
X154735781Y-127542128D01*
X154735776Y-127542130D01*
X154582521Y-127592914D01*
X154582517Y-127592915D01*
X154575666Y-127595186D01*
X154569522Y-127598975D01*
X154569519Y-127598977D01*
X154432488Y-127683497D01*
X154432480Y-127683503D01*
X154426344Y-127687288D01*
X154421242Y-127692389D01*
X154421238Y-127692393D01*
X154307393Y-127806238D01*
X154307389Y-127806242D01*
X154302288Y-127811344D01*
X154298503Y-127817480D01*
X154298497Y-127817488D01*
X154213978Y-127954518D01*
X154210186Y-127960666D01*
X154207915Y-127967517D01*
X154207914Y-127967521D01*
X154204000Y-127979334D01*
X154155001Y-128127203D01*
X154154313Y-128133933D01*
X154154312Y-128133940D01*
X154144819Y-128226859D01*
X154144818Y-128226877D01*
X154144500Y-128229991D01*
X154144500Y-128233138D01*
X154144500Y-128233139D01*
X154144500Y-129576859D01*
X154144500Y-129576878D01*
X154144501Y-129580008D01*
X154144820Y-129583140D01*
X154144821Y-129583141D01*
X154154312Y-129676061D01*
X154154313Y-129676069D01*
X154155001Y-129682797D01*
X154157129Y-129689219D01*
X154157130Y-129689223D01*
X154207844Y-129842267D01*
X154210186Y-129849334D01*
X154213976Y-129855478D01*
X154213977Y-129855480D01*
X154298497Y-129992511D01*
X154298500Y-129992515D01*
X154302288Y-129998656D01*
X154426344Y-130122712D01*
X154432498Y-130126507D01*
X154432497Y-130126507D01*
X154435594Y-130128418D01*
X154437716Y-130130635D01*
X154438159Y-130130985D01*
X154438110Y-130131046D01*
X154478777Y-130173525D01*
X154492292Y-130225473D01*
X154493721Y-130225313D01*
X154494500Y-130232228D01*
X154494500Y-130239194D01*
X154496049Y-130245983D01*
X154496050Y-130245988D01*
X154503017Y-130276518D01*
X154505345Y-130290218D01*
X154508852Y-130321336D01*
X154509632Y-130328255D01*
X154511929Y-130334821D01*
X154511930Y-130334823D01*
X154522272Y-130364379D01*
X154526119Y-130377735D01*
X154533088Y-130408267D01*
X154533091Y-130408276D01*
X154534640Y-130415061D01*
X154537658Y-130421328D01*
X154537661Y-130421336D01*
X154551250Y-130449554D01*
X154556568Y-130462393D01*
X154569211Y-130498522D01*
X154572912Y-130504412D01*
X154572913Y-130504414D01*
X154589572Y-130530927D01*
X154596296Y-130543093D01*
X154605328Y-130561846D01*
X154612909Y-130577587D01*
X154632810Y-130602542D01*
X154636771Y-130607509D01*
X154644818Y-130618850D01*
X154655877Y-130636451D01*
X154665184Y-130651262D01*
X154697174Y-130683251D01*
X154697174Y-130683252D01*
X154697175Y-130683253D01*
X154838961Y-130825039D01*
X154870575Y-130878885D01*
X154871939Y-130941310D01*
X154842709Y-130996486D01*
X154796438Y-131026444D01*
X154796867Y-131027362D01*
X154790319Y-131030414D01*
X154783466Y-131032686D01*
X154777322Y-131036475D01*
X154777319Y-131036477D01*
X154640288Y-131120997D01*
X154640280Y-131121003D01*
X154634144Y-131124788D01*
X154629042Y-131129889D01*
X154629038Y-131129893D01*
X154515193Y-131243738D01*
X154515189Y-131243742D01*
X154510088Y-131248844D01*
X154506303Y-131254980D01*
X154506297Y-131254988D01*
X154423917Y-131388550D01*
X154417986Y-131398166D01*
X154415715Y-131405017D01*
X154415714Y-131405021D01*
X154364931Y-131558274D01*
X154362801Y-131564703D01*
X154362113Y-131571433D01*
X154362112Y-131571440D01*
X154352619Y-131664359D01*
X154352618Y-131664377D01*
X154352300Y-131667491D01*
X154352300Y-131670638D01*
X154352300Y-131670639D01*
X154352300Y-132589358D01*
X154352300Y-132589377D01*
X154352301Y-132592508D01*
X154352620Y-132595640D01*
X154352621Y-132595641D01*
X154362112Y-132688561D01*
X154362113Y-132688569D01*
X154362801Y-132695297D01*
X154364929Y-132701721D01*
X154364931Y-132701727D01*
X154377778Y-132740497D01*
X154382629Y-132798364D01*
X154360601Y-132852094D01*
X154316527Y-132889903D01*
X154260072Y-132903500D01*
X153257728Y-132903500D01*
X153201273Y-132889903D01*
X153157199Y-132852094D01*
X153135171Y-132798364D01*
X153140022Y-132740497D01*
X153152868Y-132701728D01*
X153152868Y-132701727D01*
X153154999Y-132695297D01*
X153165500Y-132592509D01*
X153165499Y-131667492D01*
X153154999Y-131564703D01*
X153099814Y-131398166D01*
X153038078Y-131298076D01*
X153011502Y-131254988D01*
X153011500Y-131254985D01*
X153007712Y-131248844D01*
X152884153Y-131125285D01*
X152852059Y-131069697D01*
X152852059Y-131005510D01*
X152884151Y-130949925D01*
X152997827Y-130836251D01*
X152997826Y-130836251D01*
X153029816Y-130804262D01*
X153050192Y-130771831D01*
X153058213Y-130760527D01*
X153082092Y-130730586D01*
X153098704Y-130696088D01*
X153105423Y-130683933D01*
X153125789Y-130651522D01*
X153131063Y-130636451D01*
X153138431Y-130615394D01*
X153143749Y-130602553D01*
X153160360Y-130568061D01*
X153168881Y-130530726D01*
X153172718Y-130517403D01*
X153185368Y-130481255D01*
X153189655Y-130443197D01*
X153191979Y-130429523D01*
X153200500Y-130392194D01*
X153200500Y-130233958D01*
X153216223Y-130173525D01*
X153256889Y-130131046D01*
X153256841Y-130130985D01*
X153257283Y-130130635D01*
X153259406Y-130128418D01*
X153260645Y-130127652D01*
X153268656Y-130122712D01*
X153392712Y-129998656D01*
X153484814Y-129849334D01*
X153539999Y-129682797D01*
X153550500Y-129580009D01*
X153550499Y-128229992D01*
X153539999Y-128127203D01*
X153484814Y-127960666D01*
X153400500Y-127823970D01*
X153396502Y-127817488D01*
X153396500Y-127817485D01*
X153392712Y-127811344D01*
X153268656Y-127687288D01*
X153262515Y-127683500D01*
X153262511Y-127683497D01*
X153125480Y-127598977D01*
X153119334Y-127595186D01*
X153105340Y-127590549D01*
X152959225Y-127542131D01*
X152959224Y-127542130D01*
X152952797Y-127540001D01*
X152946064Y-127539313D01*
X152946059Y-127539312D01*
X152853140Y-127529819D01*
X152853123Y-127529818D01*
X152850009Y-127529500D01*
X152846860Y-127529500D01*
X151953141Y-127529500D01*
X151953121Y-127529500D01*
X151949992Y-127529501D01*
X151946860Y-127529820D01*
X151946858Y-127529821D01*
X151853938Y-127539312D01*
X151853928Y-127539313D01*
X151847203Y-127540001D01*
X151840781Y-127542128D01*
X151840776Y-127542130D01*
X151687521Y-127592914D01*
X151687517Y-127592915D01*
X151680666Y-127595186D01*
X151674522Y-127598975D01*
X151674519Y-127598977D01*
X151537488Y-127683497D01*
X151537480Y-127683503D01*
X151531344Y-127687288D01*
X151526242Y-127692389D01*
X151526238Y-127692393D01*
X151412393Y-127806238D01*
X151412389Y-127806242D01*
X151407288Y-127811344D01*
X151403503Y-127817480D01*
X151403497Y-127817488D01*
X151318978Y-127954518D01*
X151315186Y-127960666D01*
X151312915Y-127967517D01*
X151312914Y-127967521D01*
X151309000Y-127979334D01*
X151260001Y-128127203D01*
X151259313Y-128133933D01*
X151259312Y-128133940D01*
X151249819Y-128226859D01*
X151249818Y-128226877D01*
X151249500Y-128229991D01*
X151249500Y-128233138D01*
X151249500Y-128233139D01*
X151249500Y-129576859D01*
X151249500Y-129576878D01*
X151249501Y-129580008D01*
X151249820Y-129583140D01*
X151249821Y-129583141D01*
X151259312Y-129676061D01*
X151259313Y-129676069D01*
X151260001Y-129682797D01*
X151262129Y-129689219D01*
X151262130Y-129689223D01*
X151312844Y-129842267D01*
X151315186Y-129849334D01*
X151318976Y-129855478D01*
X151318977Y-129855480D01*
X151403494Y-129992506D01*
X151403497Y-129992509D01*
X151407288Y-129998656D01*
X151411968Y-130003336D01*
X151436481Y-130057263D01*
X151433020Y-130116692D01*
X151402261Y-130167660D01*
X151262735Y-130307186D01*
X151262736Y-130307186D01*
X151135184Y-130434738D01*
X151131479Y-130440632D01*
X151131479Y-130440634D01*
X151114816Y-130467152D01*
X151106773Y-130478487D01*
X151087253Y-130502965D01*
X151087251Y-130502967D01*
X151082909Y-130508413D01*
X151079889Y-130514682D01*
X151079883Y-130514693D01*
X151066299Y-130542900D01*
X151059577Y-130555064D01*
X151044454Y-130579134D01*
X151039211Y-130587478D01*
X151036915Y-130594037D01*
X151036911Y-130594047D01*
X151026565Y-130623613D01*
X151021247Y-130636451D01*
X151007660Y-130664666D01*
X151007657Y-130664671D01*
X151004640Y-130670939D01*
X151003092Y-130677717D01*
X151003089Y-130677728D01*
X150996118Y-130708268D01*
X150992272Y-130721619D01*
X150979632Y-130757745D01*
X150978852Y-130764663D01*
X150978852Y-130764665D01*
X150975345Y-130795781D01*
X150973017Y-130809479D01*
X150966050Y-130840008D01*
X150966048Y-130840020D01*
X150964500Y-130846806D01*
X150964500Y-130853772D01*
X150964500Y-130887199D01*
X150953877Y-130937415D01*
X150923829Y-130979026D01*
X150879504Y-131004904D01*
X150877678Y-131005510D01*
X150802520Y-131030414D01*
X150802514Y-131030416D01*
X150795666Y-131032686D01*
X150789522Y-131036475D01*
X150789519Y-131036477D01*
X150652488Y-131120997D01*
X150652480Y-131121003D01*
X150646344Y-131124788D01*
X150641242Y-131129889D01*
X150641238Y-131129893D01*
X150527393Y-131243738D01*
X150527389Y-131243742D01*
X150522288Y-131248844D01*
X150518503Y-131254980D01*
X150518497Y-131254988D01*
X150436117Y-131388550D01*
X150430186Y-131398166D01*
X150427915Y-131405017D01*
X150427914Y-131405021D01*
X150377131Y-131558274D01*
X150375001Y-131564703D01*
X150374313Y-131571433D01*
X150374312Y-131571440D01*
X150364819Y-131664359D01*
X150364818Y-131664377D01*
X150364500Y-131667491D01*
X150364500Y-131670638D01*
X150364500Y-131670639D01*
X150364500Y-132589358D01*
X150364500Y-132589377D01*
X150364501Y-132592508D01*
X150364820Y-132595640D01*
X150364821Y-132595641D01*
X150374312Y-132688561D01*
X150374313Y-132688569D01*
X150375001Y-132695297D01*
X150377129Y-132701719D01*
X150377130Y-132701723D01*
X150419803Y-132830500D01*
X150430186Y-132861834D01*
X150433977Y-132867980D01*
X150518497Y-133005011D01*
X150518500Y-133005015D01*
X150522288Y-133011156D01*
X150646344Y-133135212D01*
X150652485Y-133139000D01*
X150652488Y-133139002D01*
X150688409Y-133161158D01*
X150795666Y-133227314D01*
X150962203Y-133282499D01*
X151064991Y-133293000D01*
X151068548Y-133292999D01*
X151068664Y-133293026D01*
X151071301Y-133293161D01*
X151071277Y-133293628D01*
X151122847Y-133305504D01*
X151166190Y-133340526D01*
X151182935Y-133361900D01*
X151198216Y-133381404D01*
X151202636Y-133387410D01*
X151236817Y-133436929D01*
X151242434Y-133441905D01*
X151281829Y-133476806D01*
X151287283Y-133481940D01*
X151582726Y-133777383D01*
X151686163Y-133880819D01*
X151716413Y-133930182D01*
X151720955Y-133987898D01*
X151698800Y-134041385D01*
X151654777Y-134078985D01*
X151598482Y-134092500D01*
X151068171Y-134092500D01*
X151061888Y-134092821D01*
X150969040Y-134102305D01*
X150955877Y-134105123D01*
X150802732Y-134155870D01*
X150789733Y-134161932D01*
X150652805Y-134246390D01*
X150641544Y-134255294D01*
X150527794Y-134369044D01*
X150518890Y-134380305D01*
X150434432Y-134517233D01*
X150428370Y-134530232D01*
X150377624Y-134683374D01*
X150374805Y-134696541D01*
X150365319Y-134789390D01*
X150365000Y-134795668D01*
X150365000Y-134988674D01*
X150368450Y-135001549D01*
X150381326Y-135005000D01*
X153148673Y-135005000D01*
X153161548Y-135001549D01*
X153164999Y-134988674D01*
X153164999Y-134795671D01*
X153164678Y-134789388D01*
X153155194Y-134696540D01*
X153152376Y-134683377D01*
X153101629Y-134530232D01*
X153095567Y-134517233D01*
X153080989Y-134493597D01*
X153062557Y-134431205D01*
X153078251Y-134368068D01*
X153123749Y-134321566D01*
X153186528Y-134304500D01*
X154331272Y-134304500D01*
X154394051Y-134321566D01*
X154439549Y-134368068D01*
X154455243Y-134431205D01*
X154436811Y-134493597D01*
X154422232Y-134517233D01*
X154416170Y-134530232D01*
X154365424Y-134683374D01*
X154362605Y-134696541D01*
X154353119Y-134789390D01*
X154352800Y-134795668D01*
X154352800Y-134988674D01*
X154356250Y-135001549D01*
X154369126Y-135005000D01*
X157136473Y-135005000D01*
X157149348Y-135001549D01*
X157152799Y-134988674D01*
X157152799Y-134795671D01*
X157152478Y-134789388D01*
X157142994Y-134696540D01*
X157140176Y-134683377D01*
X157089429Y-134530232D01*
X157083367Y-134517233D01*
X157068789Y-134493597D01*
X157050357Y-134431205D01*
X157066051Y-134368068D01*
X157111549Y-134321566D01*
X157174328Y-134304500D01*
X160186481Y-134304500D01*
X160233934Y-134313939D01*
X160274162Y-134340819D01*
X161276580Y-135343237D01*
X161309886Y-135403749D01*
X161305651Y-135472692D01*
X161265188Y-135528673D01*
X161201054Y-135554321D01*
X161100030Y-135564271D01*
X161088135Y-135566637D01*
X160911292Y-135620282D01*
X160900093Y-135624920D01*
X160794284Y-135681475D01*
X160785813Y-135688966D01*
X160791743Y-135698589D01*
X161555872Y-136462718D01*
X161587966Y-136518305D01*
X161587966Y-136582493D01*
X161555872Y-136638080D01*
X161377680Y-136816272D01*
X161322093Y-136848366D01*
X161257905Y-136848366D01*
X161202318Y-136816272D01*
X160438189Y-136052143D01*
X160428566Y-136046213D01*
X160421075Y-136054684D01*
X160364520Y-136160493D01*
X160359882Y-136171692D01*
X160306237Y-136348535D01*
X160303871Y-136360430D01*
X160288091Y-136520654D01*
X160267790Y-136577391D01*
X160223141Y-136617858D01*
X160164688Y-136632500D01*
X159778326Y-136632500D01*
X159765450Y-136635950D01*
X159762000Y-136648826D01*
X159762000Y-137528674D01*
X159765450Y-137541549D01*
X159778326Y-137545000D01*
X160895673Y-137545000D01*
X160918003Y-137539016D01*
X160961720Y-137514250D01*
X161027847Y-137515874D01*
X161088129Y-137534161D01*
X161100031Y-137536528D01*
X161154806Y-137541923D01*
X161218941Y-137567571D01*
X161259404Y-137623551D01*
X161263640Y-137692494D01*
X161230334Y-137753007D01*
X160974661Y-138008681D01*
X160934433Y-138035561D01*
X160886980Y-138045000D01*
X158128327Y-138045000D01*
X158115451Y-138048450D01*
X158112001Y-138061326D01*
X158112001Y-138254329D01*
X158112320Y-138260596D01*
X158112555Y-138262893D01*
X158112463Y-138263405D01*
X158112482Y-138263770D01*
X158112397Y-138263774D01*
X158100543Y-138330072D01*
X158054806Y-138380721D01*
X157989197Y-138399500D01*
X157275604Y-138399500D01*
X157209993Y-138380720D01*
X157164256Y-138330068D01*
X157152406Y-138263778D01*
X157152319Y-138263774D01*
X157152338Y-138263397D01*
X157152247Y-138262887D01*
X157152480Y-138260603D01*
X157152800Y-138254332D01*
X157152800Y-138061326D01*
X157149349Y-138048450D01*
X157136474Y-138045000D01*
X154369127Y-138045000D01*
X154356251Y-138048450D01*
X154352801Y-138061326D01*
X154352801Y-138254329D01*
X154353120Y-138260596D01*
X154353355Y-138262893D01*
X154353263Y-138263405D01*
X154353282Y-138263770D01*
X154353197Y-138263774D01*
X154341343Y-138330072D01*
X154295606Y-138380721D01*
X154229997Y-138399500D01*
X153287804Y-138399500D01*
X153222193Y-138380720D01*
X153176456Y-138330068D01*
X153164606Y-138263778D01*
X153164519Y-138263774D01*
X153164538Y-138263397D01*
X153164447Y-138262887D01*
X153164680Y-138260603D01*
X153165000Y-138254332D01*
X153165000Y-138061326D01*
X153161549Y-138048450D01*
X153148674Y-138045000D01*
X150381327Y-138045000D01*
X150368451Y-138048450D01*
X150365001Y-138061326D01*
X150365001Y-138254329D01*
X150365321Y-138260611D01*
X150374805Y-138353459D01*
X150377623Y-138366622D01*
X150428370Y-138519767D01*
X150434432Y-138532766D01*
X150518890Y-138669694D01*
X150527794Y-138680955D01*
X150641544Y-138794705D01*
X150652805Y-138803609D01*
X150789733Y-138888067D01*
X150802732Y-138894129D01*
X150955874Y-138944875D01*
X150969041Y-138947694D01*
X151061890Y-138957180D01*
X151068168Y-138957499D01*
X151344480Y-138957499D01*
X151400775Y-138971014D01*
X151444798Y-139008613D01*
X151466953Y-139062101D01*
X151462411Y-139119817D01*
X151432161Y-139169180D01*
X151287290Y-139314051D01*
X151281838Y-139319184D01*
X151242431Y-139354096D01*
X151242425Y-139354102D01*
X151236817Y-139359071D01*
X151232560Y-139365236D01*
X151232551Y-139365248D01*
X151202649Y-139408568D01*
X151198213Y-139414597D01*
X151165749Y-139456035D01*
X151165743Y-139456043D01*
X151161122Y-139461943D01*
X151158044Y-139468780D01*
X151158043Y-139468783D01*
X151156962Y-139471185D01*
X151145940Y-139490727D01*
X151144441Y-139492898D01*
X151144437Y-139492904D01*
X151140182Y-139499070D01*
X151137526Y-139506070D01*
X151137522Y-139506080D01*
X151118853Y-139555305D01*
X151115989Y-139562219D01*
X151094382Y-139610229D01*
X151094379Y-139610235D01*
X151091305Y-139617068D01*
X151089953Y-139624439D01*
X151089951Y-139624449D01*
X151089474Y-139627053D01*
X151083456Y-139648643D01*
X151082519Y-139651114D01*
X151082517Y-139651119D01*
X151079860Y-139658128D01*
X151078956Y-139665569D01*
X151077161Y-139672854D01*
X151074859Y-139672286D01*
X151061007Y-139710522D01*
X151021590Y-139749101D01*
X150975412Y-139764717D01*
X150975558Y-139765396D01*
X150969699Y-139766650D01*
X150969342Y-139766771D01*
X150968945Y-139766811D01*
X150968933Y-139766813D01*
X150962203Y-139767501D01*
X150955781Y-139769628D01*
X150955776Y-139769630D01*
X150802521Y-139820414D01*
X150802517Y-139820415D01*
X150795666Y-139822686D01*
X150789522Y-139826475D01*
X150789519Y-139826477D01*
X150652488Y-139910997D01*
X150652480Y-139911003D01*
X150646344Y-139914788D01*
X150641242Y-139919889D01*
X150641238Y-139919893D01*
X150527393Y-140033738D01*
X150527389Y-140033742D01*
X150522288Y-140038844D01*
X150518503Y-140044980D01*
X150518497Y-140044988D01*
X150433977Y-140182019D01*
X150430186Y-140188166D01*
X150375001Y-140354703D01*
X150374313Y-140361433D01*
X150374312Y-140361440D01*
X150364819Y-140454359D01*
X150364818Y-140454377D01*
X150364500Y-140457491D01*
X150364500Y-140460638D01*
X150364500Y-140460639D01*
X150364500Y-141379358D01*
X150364500Y-141379377D01*
X150364501Y-141382508D01*
X150364820Y-141385640D01*
X150364821Y-141385641D01*
X150374312Y-141478561D01*
X150374313Y-141478569D01*
X150375001Y-141485297D01*
X150377129Y-141491719D01*
X150377130Y-141491723D01*
X150389979Y-141530497D01*
X150430186Y-141651834D01*
X150433977Y-141657980D01*
X150518497Y-141795011D01*
X150518500Y-141795015D01*
X150522288Y-141801156D01*
X150646344Y-141925212D01*
X150652485Y-141929000D01*
X150652488Y-141929002D01*
X150668035Y-141938591D01*
X150795666Y-142017314D01*
X150879504Y-142045095D01*
X150923829Y-142070974D01*
X150953877Y-142112585D01*
X150964500Y-142162801D01*
X150964500Y-142203194D01*
X150966049Y-142209983D01*
X150966050Y-142209988D01*
X150973017Y-142240518D01*
X150975345Y-142254218D01*
X150978742Y-142284357D01*
X150979632Y-142292255D01*
X150981929Y-142298821D01*
X150981930Y-142298823D01*
X150992272Y-142328379D01*
X150996119Y-142341735D01*
X151003088Y-142372267D01*
X151003091Y-142372276D01*
X151004640Y-142379061D01*
X151007658Y-142385329D01*
X151007661Y-142385336D01*
X151021250Y-142413554D01*
X151026568Y-142426393D01*
X151039211Y-142462522D01*
X151042912Y-142468412D01*
X151042913Y-142468414D01*
X151059572Y-142494927D01*
X151066296Y-142507093D01*
X151078587Y-142532613D01*
X151082909Y-142541587D01*
X151104567Y-142568745D01*
X151106771Y-142571509D01*
X151114818Y-142582850D01*
X151135184Y-142615262D01*
X151140111Y-142620189D01*
X151140112Y-142620190D01*
X151402261Y-142882339D01*
X151433020Y-142933306D01*
X151436482Y-142992734D01*
X151411969Y-143046662D01*
X151407288Y-143051344D01*
X151403497Y-143057490D01*
X151403494Y-143057494D01*
X151352973Y-143139403D01*
X151315186Y-143200666D01*
X151312915Y-143207517D01*
X151312914Y-143207521D01*
X151266842Y-143346558D01*
X151260001Y-143367203D01*
X151259313Y-143373933D01*
X151259312Y-143373940D01*
X151249819Y-143466859D01*
X151249818Y-143466877D01*
X151249500Y-143469991D01*
X151249500Y-143473138D01*
X151249500Y-143473139D01*
X151249500Y-144816859D01*
X151249500Y-144816878D01*
X151249501Y-144820008D01*
X151249820Y-144823140D01*
X151249821Y-144823141D01*
X151259312Y-144916061D01*
X151259313Y-144916069D01*
X151260001Y-144922797D01*
X151262129Y-144929219D01*
X151262130Y-144929223D01*
X151273134Y-144962431D01*
X151315186Y-145089334D01*
X151322110Y-145100560D01*
X151403497Y-145232511D01*
X151403500Y-145232515D01*
X151407288Y-145238656D01*
X151412393Y-145243761D01*
X151487451Y-145318819D01*
X151517701Y-145368182D01*
X151522243Y-145425898D01*
X151500088Y-145479385D01*
X151456065Y-145516985D01*
X151399770Y-145530500D01*
X150300230Y-145530500D01*
X150243935Y-145516985D01*
X150199912Y-145479385D01*
X150177757Y-145425898D01*
X150182299Y-145368182D01*
X150212549Y-145318819D01*
X150245536Y-145285832D01*
X150292712Y-145238656D01*
X150384814Y-145089334D01*
X150439999Y-144922797D01*
X150450500Y-144820009D01*
X150450499Y-143469992D01*
X150439999Y-143367203D01*
X150384814Y-143200666D01*
X150308954Y-143077676D01*
X150296502Y-143057488D01*
X150296500Y-143057485D01*
X150292712Y-143051344D01*
X150168656Y-142927288D01*
X150162515Y-142923500D01*
X150162511Y-142923497D01*
X150025480Y-142838977D01*
X150019334Y-142835186D01*
X149990864Y-142825752D01*
X149859225Y-142782131D01*
X149859224Y-142782130D01*
X149852797Y-142780001D01*
X149846064Y-142779313D01*
X149846059Y-142779312D01*
X149753140Y-142769819D01*
X149753123Y-142769818D01*
X149750009Y-142769500D01*
X149746860Y-142769500D01*
X149603000Y-142769500D01*
X149541000Y-142752887D01*
X149495613Y-142707500D01*
X149479000Y-142645500D01*
X149479000Y-137528674D01*
X150365000Y-137528674D01*
X150368450Y-137541549D01*
X150381326Y-137545000D01*
X153148673Y-137545000D01*
X153161548Y-137541549D01*
X153164999Y-137528674D01*
X153164999Y-137527958D01*
X153181108Y-137466839D01*
X153225250Y-137421600D01*
X153285956Y-137403995D01*
X153347452Y-137418600D01*
X153407092Y-137450478D01*
X153418292Y-137455117D01*
X153595135Y-137508762D01*
X153607030Y-137511128D01*
X153790939Y-137529242D01*
X153803061Y-137529242D01*
X153986969Y-137511128D01*
X153998864Y-137508762D01*
X154175700Y-137455119D01*
X154186729Y-137450551D01*
X154255716Y-137442993D01*
X154317959Y-137473685D01*
X154353962Y-137533015D01*
X154356248Y-137541549D01*
X154369126Y-137545000D01*
X157136473Y-137545000D01*
X157149348Y-137541549D01*
X157152799Y-137528674D01*
X158112000Y-137528674D01*
X158115450Y-137541549D01*
X158128326Y-137545000D01*
X159245674Y-137545000D01*
X159258549Y-137541549D01*
X159262000Y-137528674D01*
X159262000Y-136648827D01*
X159258549Y-136635951D01*
X159245674Y-136632501D01*
X158815171Y-136632501D01*
X158808888Y-136632821D01*
X158716040Y-136642305D01*
X158702877Y-136645123D01*
X158549732Y-136695870D01*
X158536733Y-136701932D01*
X158399805Y-136786390D01*
X158388544Y-136795294D01*
X158274794Y-136909044D01*
X158265890Y-136920305D01*
X158181432Y-137057233D01*
X158175370Y-137070232D01*
X158124624Y-137223374D01*
X158121805Y-137236541D01*
X158112319Y-137329390D01*
X158112000Y-137335668D01*
X158112000Y-137528674D01*
X157152799Y-137528674D01*
X157152799Y-137335671D01*
X157152478Y-137329388D01*
X157142994Y-137236540D01*
X157140176Y-137223377D01*
X157089429Y-137070232D01*
X157083367Y-137057233D01*
X156998909Y-136920305D01*
X156990005Y-136909044D01*
X156876255Y-136795294D01*
X156864994Y-136786390D01*
X156728066Y-136701932D01*
X156715067Y-136695870D01*
X156555496Y-136642994D01*
X156556304Y-136640555D01*
X156508133Y-136615262D01*
X156473689Y-136558228D01*
X156473737Y-136491600D01*
X156508261Y-136434615D01*
X156556312Y-136409471D01*
X156555496Y-136407006D01*
X156715067Y-136354129D01*
X156728066Y-136348067D01*
X156864994Y-136263609D01*
X156876255Y-136254705D01*
X156990005Y-136140955D01*
X156998909Y-136129694D01*
X157083367Y-135992766D01*
X157089429Y-135979767D01*
X157140175Y-135826625D01*
X157142994Y-135813458D01*
X157152480Y-135720609D01*
X157152800Y-135714332D01*
X157152800Y-135521326D01*
X157149349Y-135508450D01*
X157136474Y-135505000D01*
X154369126Y-135505000D01*
X154356248Y-135508450D01*
X154353962Y-135516985D01*
X154317960Y-135576313D01*
X154255719Y-135607005D01*
X154186735Y-135599450D01*
X154175707Y-135594882D01*
X153998864Y-135541237D01*
X153986969Y-135538871D01*
X153803061Y-135520758D01*
X153790939Y-135520758D01*
X153607030Y-135538871D01*
X153595135Y-135541237D01*
X153418292Y-135594882D01*
X153407095Y-135599520D01*
X153347452Y-135631400D01*
X153285956Y-135646004D01*
X153225251Y-135628399D01*
X153181109Y-135583160D01*
X153165000Y-135522041D01*
X153165000Y-135521326D01*
X153161549Y-135508450D01*
X153148674Y-135505000D01*
X150381327Y-135505000D01*
X150368451Y-135508450D01*
X150365001Y-135521326D01*
X150365001Y-135714329D01*
X150365321Y-135720611D01*
X150374805Y-135813459D01*
X150377623Y-135826622D01*
X150428370Y-135979767D01*
X150434432Y-135992766D01*
X150518890Y-136129694D01*
X150527794Y-136140955D01*
X150641544Y-136254705D01*
X150652805Y-136263609D01*
X150789733Y-136348067D01*
X150802732Y-136354129D01*
X150962304Y-136407006D01*
X150961492Y-136409455D01*
X151009610Y-136434684D01*
X151044087Y-136491690D01*
X151044087Y-136558310D01*
X151009610Y-136615316D01*
X150961492Y-136640544D01*
X150962304Y-136642994D01*
X150802732Y-136695870D01*
X150789733Y-136701932D01*
X150652805Y-136786390D01*
X150641544Y-136795294D01*
X150527794Y-136909044D01*
X150518890Y-136920305D01*
X150434432Y-137057233D01*
X150428370Y-137070232D01*
X150377624Y-137223374D01*
X150374805Y-137236541D01*
X150365319Y-137329390D01*
X150365000Y-137335668D01*
X150365000Y-137528674D01*
X149479000Y-137528674D01*
X149479000Y-130404499D01*
X149495613Y-130342499D01*
X149541000Y-130297112D01*
X149603000Y-130280499D01*
X149746859Y-130280499D01*
X149750008Y-130280499D01*
X149852797Y-130269999D01*
X150019334Y-130214814D01*
X150168656Y-130122712D01*
X150292712Y-129998656D01*
X150384814Y-129849334D01*
X150439999Y-129682797D01*
X150450500Y-129580009D01*
X150450499Y-128229992D01*
X150439999Y-128127203D01*
X150384814Y-127960666D01*
X150381022Y-127954518D01*
X150318961Y-127853900D01*
X150300500Y-127788804D01*
X150300500Y-125628166D01*
X150319427Y-125562319D01*
X150370432Y-125516575D01*
X150437942Y-125504897D01*
X150501349Y-125530851D01*
X150692230Y-125681588D01*
X150692234Y-125681590D01*
X150695485Y-125684158D01*
X150699049Y-125686269D01*
X150699052Y-125686271D01*
X150778745Y-125733473D01*
X150954730Y-125837709D01*
X150958534Y-125839322D01*
X150958538Y-125839324D01*
X150969042Y-125843778D01*
X151232128Y-125955336D01*
X151522729Y-126034940D01*
X151821347Y-126075100D01*
X152045162Y-126075100D01*
X152047244Y-126075100D01*
X152272634Y-126060012D01*
X152567903Y-125999996D01*
X152852537Y-125901160D01*
X153121459Y-125765268D01*
X153369869Y-125594744D01*
X153593333Y-125392632D01*
X153787865Y-125162539D01*
X153949993Y-124908570D01*
X154076823Y-124635258D01*
X154166093Y-124347479D01*
X154216209Y-124050370D01*
X154221404Y-123894983D01*
X154236393Y-123839902D01*
X154274474Y-123797371D01*
X154327575Y-123776408D01*
X154384439Y-123781458D01*
X154433015Y-123811449D01*
X154969491Y-124347925D01*
X154990228Y-124375427D01*
X155003591Y-124399502D01*
X155014083Y-124411723D01*
X155025224Y-124426896D01*
X155033748Y-124440571D01*
X155042896Y-124450195D01*
X155084220Y-124493667D01*
X155088421Y-124498317D01*
X155136134Y-124553895D01*
X155141104Y-124557742D01*
X155141105Y-124557743D01*
X155148869Y-124563753D01*
X155162841Y-124576376D01*
X155173941Y-124588053D01*
X155179108Y-124591649D01*
X155179110Y-124591651D01*
X155234050Y-124629890D01*
X155239116Y-124633610D01*
X155292067Y-124674598D01*
X155292073Y-124674602D01*
X155297042Y-124678448D01*
X155311507Y-124685543D01*
X155327729Y-124695093D01*
X155335788Y-124700702D01*
X155335791Y-124700704D01*
X155340951Y-124704295D01*
X155346725Y-124706773D01*
X155346729Y-124706775D01*
X155380562Y-124721293D01*
X155408264Y-124733181D01*
X155413954Y-124735795D01*
X155437212Y-124747204D01*
X155474077Y-124765288D01*
X155474080Y-124765289D01*
X155479729Y-124768060D01*
X155495316Y-124772095D01*
X155513137Y-124778187D01*
X155521530Y-124781788D01*
X155527942Y-124784540D01*
X155571181Y-124793425D01*
X155611050Y-124809182D01*
X155643170Y-124837574D01*
X155741109Y-124960386D01*
X155741114Y-124960391D01*
X155744003Y-124964014D01*
X155927540Y-125134312D01*
X155931361Y-125136917D01*
X155931366Y-125136921D01*
X156015123Y-125194025D01*
X156134408Y-125275352D01*
X156359987Y-125383985D01*
X156364415Y-125385351D01*
X156364418Y-125385352D01*
X156397032Y-125395412D01*
X156599236Y-125457784D01*
X156846813Y-125495100D01*
X157092550Y-125495100D01*
X157097187Y-125495100D01*
X157344764Y-125457784D01*
X157458371Y-125422740D01*
X157504189Y-125417579D01*
X157538921Y-125426889D01*
X157539289Y-125425838D01*
X157545866Y-125428139D01*
X157552139Y-125431160D01*
X157589466Y-125439679D01*
X157602813Y-125443525D01*
X157632370Y-125453868D01*
X157632375Y-125453869D01*
X157638945Y-125456168D01*
X157645865Y-125456947D01*
X157650538Y-125458014D01*
X157706340Y-125487134D01*
X157740656Y-125539901D01*
X157759607Y-125597090D01*
X157765586Y-125615134D01*
X157769377Y-125621280D01*
X157853897Y-125758311D01*
X157853900Y-125758315D01*
X157857688Y-125764456D01*
X157981744Y-125888512D01*
X157987885Y-125892300D01*
X157987888Y-125892302D01*
X158004451Y-125902518D01*
X158131066Y-125980614D01*
X158297603Y-126035799D01*
X158400391Y-126046300D01*
X159300408Y-126046299D01*
X159403197Y-126035799D01*
X159569734Y-125980614D01*
X159719056Y-125888512D01*
X159843112Y-125764456D01*
X159935214Y-125615134D01*
X159990399Y-125448597D01*
X160000900Y-125345809D01*
X160000900Y-125342629D01*
X160800401Y-125342629D01*
X160800721Y-125348911D01*
X160810205Y-125441759D01*
X160813023Y-125454922D01*
X160863770Y-125608067D01*
X160869832Y-125621066D01*
X160954290Y-125757994D01*
X160963194Y-125769255D01*
X161076944Y-125883005D01*
X161088205Y-125891909D01*
X161225133Y-125976367D01*
X161238132Y-125982429D01*
X161391274Y-126033175D01*
X161404441Y-126035994D01*
X161497290Y-126045480D01*
X161503568Y-126045800D01*
X161684074Y-126045800D01*
X161696949Y-126042349D01*
X161700400Y-126029474D01*
X161700400Y-124937126D01*
X161696949Y-124924250D01*
X161684074Y-124920800D01*
X160816727Y-124920800D01*
X160803851Y-124924250D01*
X160800401Y-124937126D01*
X160800401Y-125342629D01*
X160000900Y-125342629D01*
X160000899Y-123995792D01*
X159990399Y-123893003D01*
X159935214Y-123726466D01*
X159882102Y-123640358D01*
X159846902Y-123583288D01*
X159846900Y-123583285D01*
X159843112Y-123577144D01*
X159794649Y-123528680D01*
X159764399Y-123479318D01*
X159759857Y-123421602D01*
X159782012Y-123368115D01*
X159826035Y-123330515D01*
X159882330Y-123317000D01*
X160919177Y-123317000D01*
X160975472Y-123330515D01*
G37*
%TD.AperFunction*%
%TD*%
M02*
