M48
; DRILL file {KiCad (7.0.0)} date Sun Mar 19 14:03:33 2023
; FORMAT={-:-/ absolute / inch / decimal}
; #@! TF.CreationDate,2023-03-19T14:03:33+01:00
; #@! TF.GenerationSoftware,Kicad,Pcbnew,(7.0.0)
; #@! TF.FileFunction,Plated,1,2,PTH
FMAT,2
INCH
; #@! TA.AperFunction,Plated,PTH,ComponentDrill
T1C0.0315
; #@! TA.AperFunction,Plated,PTH,ComponentDrill
T2C0.0335
; #@! TA.AperFunction,Plated,PTH,ComponentDrill
T3C0.0394
; #@! TA.AperFunction,Plated,PTH,ComponentDrill
T4C0.0472
; #@! TA.AperFunction,Plated,PTH,ComponentDrill
T5C0.0512
; #@! TA.AperFunction,Plated,PTH,ComponentDrill
T6C0.0520
; #@! TA.AperFunction,Plated,PTH,ComponentDrill
T7C0.0787
%
G90
G05
T1
X5.53Y-4.93
X5.8642Y-5.8839
X5.875Y-4.6398
X5.9695Y-4.6398
X6.055Y-5.375
X6.3494Y-5.375
X6.35Y-5.686
X6.54Y-5.9065
X6.564Y-4.8002
X6.585Y-4.5
X6.585Y-4.595
X6.675Y-4.8002
X6.7321Y-5.9065
X6.779Y-5.594
X6.912Y-4.966
X6.945Y-5.862
X7.212Y-5.173
X7.212Y-5.273
X7.212Y-5.374
X7.213Y-5.474
X7.213Y-5.573
X7.213Y-5.673
X7.213Y-5.773
X7.275Y-4.87
T2
X5.955Y-4.5
X6.055Y-4.5
X6.155Y-4.5
X6.355Y-4.5
X6.455Y-4.5
T3
X6.0918Y-5.8839
X6.2608Y-4.754
X6.2887Y-5.8839
X6.3608Y-4.754
X6.536Y-5.718
X6.636Y-5.718
X6.71Y-4.545
X6.736Y-5.718
X6.81Y-4.545
X6.91Y-4.545
X7.01Y-4.545
X7.11Y-4.545
X7.21Y-4.545
X7.31Y-4.545
X7.31Y-5.145
X7.31Y-5.245
X7.31Y-5.345
X7.31Y-5.445
X7.31Y-5.545
X7.31Y-5.645
X7.31Y-5.745
X7.31Y-5.845
X7.31Y-5.945
T4
X4.76Y-4.655
X5.6458Y-4.655
T5
X5.7863Y-4.7766
X5.7863Y-4.9734
X6.18Y-4.875
T6
X4.94Y-5.0694
X4.94Y-5.2663
X4.94Y-5.4631
X4.94Y-5.66
T7
X4.7766Y-5.9173
X7.0846Y-5.9173
T0
M30
