%TF.GenerationSoftware,KiCad,Pcbnew,(7.0.0)*%
%TF.CreationDate,2023-04-14T14:06:49+02:00*%
%TF.ProjectId,ATtiny-final,41547469-6e79-42d6-9669-6e616c2e6b69,rev?*%
%TF.SameCoordinates,Original*%
%TF.FileFunction,Copper,L4,Bot*%
%TF.FilePolarity,Positive*%
%FSLAX46Y46*%
G04 Gerber Fmt 4.6, Leading zero omitted, Abs format (unit mm)*
G04 Created by KiCad (PCBNEW (7.0.0)) date 2023-04-14 14:06:49*
%MOMM*%
%LPD*%
G01*
G04 APERTURE LIST*
%TA.AperFunction,ComponentPad*%
%ADD10R,1.700000X1.700000*%
%TD*%
%TA.AperFunction,ComponentPad*%
%ADD11O,1.700000X1.700000*%
%TD*%
G04 APERTURE END LIST*
D10*
%TO.P,J1,1,Pin_1*%
%TO.N,VCC*%
X158999999Y-106699999D03*
D11*
%TO.P,J1,2,Pin_2*%
%TO.N,/XDIR{slash}PA4*%
X158999999Y-104159999D03*
%TO.P,J1,3,Pin_3*%
%TO.N,/PA5*%
X158999999Y-101619999D03*
%TO.P,J1,4,Pin_4*%
%TO.N,/PA6*%
X158999999Y-99079999D03*
%TO.P,J1,5,Pin_5*%
%TO.N,/PA7*%
X158999999Y-96539999D03*
%TO.P,J1,6,Pin_6*%
%TO.N,/RxD{slash}PB3*%
X158999999Y-93999999D03*
%TO.P,J1,7,Pin_7*%
%TO.N,/TxD{slash}PB2*%
X158999999Y-91459999D03*
%TD*%
D10*
%TO.P,J2,1,Pin_1*%
%TO.N,GND*%
X143599999Y-106659999D03*
D11*
%TO.P,J2,2,Pin_2*%
%TO.N,/XCK{slash}PA3*%
X143599999Y-104119999D03*
%TO.P,J2,3,Pin_3*%
%TO.N,/RXD{slash}PA2*%
X143599999Y-101579999D03*
%TO.P,J2,4,Pin_4*%
%TO.N,/TXD{slash}PA1*%
X143599999Y-99039999D03*
%TO.P,J2,5,Pin_5*%
%TO.N,/RESET-UDPI*%
X143599999Y-96499999D03*
%TO.P,J2,6,Pin_6*%
%TO.N,/SCL{slash}XDIR{slash}PB0*%
X143599999Y-93959999D03*
%TO.P,J2,7,Pin_7*%
%TO.N,/SDA{slash}XCK{slash}PB1*%
X143599999Y-91419999D03*
%TD*%
%TA.AperFunction,Conductor*%
%TO.N,GND*%
G36*
X160937500Y-89417113D02*
G01*
X160982887Y-89462500D01*
X160999500Y-89524500D01*
X160999500Y-108675500D01*
X160982887Y-108737500D01*
X160937500Y-108782887D01*
X160875500Y-108799500D01*
X141652500Y-108799500D01*
X141590500Y-108782887D01*
X141545113Y-108737500D01*
X141528500Y-108675500D01*
X141528500Y-107554518D01*
X142250000Y-107554518D01*
X142250353Y-107561114D01*
X142255573Y-107609667D01*
X142259111Y-107624641D01*
X142303547Y-107743777D01*
X142311962Y-107759189D01*
X142387498Y-107860092D01*
X142399907Y-107872501D01*
X142500810Y-107948037D01*
X142516222Y-107956452D01*
X142635358Y-108000888D01*
X142650332Y-108004426D01*
X142698885Y-108009646D01*
X142705482Y-108010000D01*
X143333674Y-108010000D01*
X143346549Y-108006549D01*
X143350000Y-107993674D01*
X143850000Y-107993674D01*
X143853450Y-108006549D01*
X143866326Y-108010000D01*
X144494518Y-108010000D01*
X144501114Y-108009646D01*
X144549667Y-108004426D01*
X144564641Y-108000888D01*
X144683777Y-107956452D01*
X144699189Y-107948037D01*
X144800092Y-107872501D01*
X144812501Y-107860092D01*
X144888037Y-107759189D01*
X144896452Y-107743777D01*
X144940888Y-107624641D01*
X144944426Y-107609667D01*
X144949646Y-107561114D01*
X144950000Y-107554518D01*
X144950000Y-106926326D01*
X144946549Y-106913450D01*
X144933674Y-106910000D01*
X143866326Y-106910000D01*
X143853450Y-106913450D01*
X143850000Y-106926326D01*
X143850000Y-107993674D01*
X143350000Y-107993674D01*
X143350000Y-106926326D01*
X143346549Y-106913450D01*
X143333674Y-106910000D01*
X142266326Y-106910000D01*
X142253450Y-106913450D01*
X142250000Y-106926326D01*
X142250000Y-107554518D01*
X141528500Y-107554518D01*
X141528500Y-104120000D01*
X142244341Y-104120000D01*
X142264937Y-104355408D01*
X142266336Y-104360630D01*
X142266337Y-104360634D01*
X142324694Y-104578430D01*
X142324697Y-104578438D01*
X142326097Y-104583663D01*
X142328385Y-104588570D01*
X142328386Y-104588572D01*
X142423678Y-104792927D01*
X142423681Y-104792933D01*
X142425965Y-104797830D01*
X142429064Y-104802257D01*
X142429066Y-104802259D01*
X142558399Y-104986966D01*
X142558402Y-104986970D01*
X142561505Y-104991401D01*
X142565336Y-104995232D01*
X142683818Y-105113714D01*
X142715114Y-105166460D01*
X142717303Y-105227753D01*
X142689850Y-105282597D01*
X142639471Y-105317576D01*
X142516226Y-105363544D01*
X142500810Y-105371962D01*
X142399907Y-105447498D01*
X142387498Y-105459907D01*
X142311962Y-105560810D01*
X142303547Y-105576222D01*
X142259111Y-105695358D01*
X142255573Y-105710332D01*
X142250353Y-105758885D01*
X142250000Y-105765482D01*
X142250000Y-106393674D01*
X142253450Y-106406549D01*
X142266326Y-106410000D01*
X144933674Y-106410000D01*
X144946549Y-106406549D01*
X144950000Y-106393674D01*
X144950000Y-105765482D01*
X144949646Y-105758885D01*
X144944426Y-105710332D01*
X144940888Y-105695358D01*
X144896452Y-105576222D01*
X144888037Y-105560810D01*
X144812501Y-105459907D01*
X144800092Y-105447498D01*
X144699189Y-105371962D01*
X144683779Y-105363548D01*
X144560528Y-105317577D01*
X144510149Y-105282597D01*
X144482696Y-105227753D01*
X144484885Y-105166460D01*
X144516178Y-105113717D01*
X144638495Y-104991401D01*
X144774035Y-104797830D01*
X144873903Y-104583663D01*
X144935063Y-104355408D01*
X144952159Y-104160000D01*
X157644341Y-104160000D01*
X157644813Y-104165395D01*
X157661894Y-104360634D01*
X157664937Y-104395408D01*
X157666336Y-104400630D01*
X157666337Y-104400634D01*
X157724694Y-104618430D01*
X157724697Y-104618438D01*
X157726097Y-104623663D01*
X157728385Y-104628570D01*
X157728386Y-104628572D01*
X157823678Y-104832927D01*
X157823681Y-104832933D01*
X157825965Y-104837830D01*
X157829064Y-104842257D01*
X157829066Y-104842259D01*
X157958399Y-105026966D01*
X157958402Y-105026970D01*
X157961505Y-105031401D01*
X157965336Y-105035232D01*
X158083430Y-105153326D01*
X158114726Y-105206072D01*
X158116915Y-105267365D01*
X158089462Y-105322210D01*
X158039083Y-105357189D01*
X157923702Y-105400223D01*
X157907669Y-105406204D01*
X157900572Y-105411516D01*
X157900568Y-105411519D01*
X157799550Y-105487141D01*
X157799546Y-105487144D01*
X157792454Y-105492454D01*
X157787144Y-105499546D01*
X157787141Y-105499550D01*
X157711519Y-105600568D01*
X157711516Y-105600572D01*
X157706204Y-105607669D01*
X157703104Y-105615978D01*
X157703104Y-105615980D01*
X157658620Y-105735247D01*
X157658619Y-105735250D01*
X157655909Y-105742517D01*
X157655079Y-105750227D01*
X157655079Y-105750232D01*
X157649855Y-105798819D01*
X157649854Y-105798831D01*
X157649500Y-105802127D01*
X157649500Y-105805448D01*
X157649500Y-105805449D01*
X157649500Y-107594560D01*
X157649500Y-107594578D01*
X157649501Y-107597872D01*
X157649853Y-107601150D01*
X157649854Y-107601161D01*
X157655079Y-107649768D01*
X157655080Y-107649773D01*
X157655909Y-107657483D01*
X157658619Y-107664749D01*
X157658620Y-107664753D01*
X157692217Y-107754831D01*
X157706204Y-107792331D01*
X157792454Y-107907546D01*
X157907669Y-107993796D01*
X158042517Y-108044091D01*
X158102127Y-108050500D01*
X159897872Y-108050499D01*
X159957483Y-108044091D01*
X160092331Y-107993796D01*
X160207546Y-107907546D01*
X160293796Y-107792331D01*
X160344091Y-107657483D01*
X160350500Y-107597873D01*
X160350499Y-105802128D01*
X160344091Y-105742517D01*
X160293796Y-105607669D01*
X160207546Y-105492454D01*
X160092331Y-105406204D01*
X160022359Y-105380106D01*
X159960916Y-105357189D01*
X159910537Y-105322210D01*
X159883084Y-105267365D01*
X159885273Y-105206072D01*
X159916566Y-105153329D01*
X160038495Y-105031401D01*
X160174035Y-104837830D01*
X160273903Y-104623663D01*
X160335063Y-104395408D01*
X160355659Y-104160000D01*
X160335063Y-103924592D01*
X160273903Y-103696337D01*
X160174035Y-103482171D01*
X160038495Y-103288599D01*
X159871401Y-103121505D01*
X159866968Y-103118401D01*
X159866961Y-103118395D01*
X159685842Y-102991575D01*
X159646976Y-102947257D01*
X159632965Y-102890000D01*
X159646976Y-102832743D01*
X159685842Y-102788425D01*
X159866961Y-102661604D01*
X159866961Y-102661603D01*
X159871401Y-102658495D01*
X160038495Y-102491401D01*
X160174035Y-102297830D01*
X160273903Y-102083663D01*
X160335063Y-101855408D01*
X160355659Y-101620000D01*
X160335063Y-101384592D01*
X160273903Y-101156337D01*
X160174035Y-100942171D01*
X160038495Y-100748599D01*
X159871401Y-100581505D01*
X159866968Y-100578401D01*
X159866961Y-100578395D01*
X159685842Y-100451575D01*
X159646976Y-100407257D01*
X159632965Y-100350000D01*
X159646976Y-100292743D01*
X159685842Y-100248425D01*
X159866961Y-100121604D01*
X159866961Y-100121603D01*
X159871401Y-100118495D01*
X160038495Y-99951401D01*
X160174035Y-99757830D01*
X160273903Y-99543663D01*
X160335063Y-99315408D01*
X160355659Y-99080000D01*
X160335063Y-98844592D01*
X160273903Y-98616337D01*
X160174035Y-98402171D01*
X160038495Y-98208599D01*
X159871401Y-98041505D01*
X159866968Y-98038401D01*
X159866961Y-98038395D01*
X159685842Y-97911575D01*
X159646976Y-97867257D01*
X159632965Y-97810000D01*
X159646976Y-97752743D01*
X159685842Y-97708425D01*
X159866961Y-97581604D01*
X159866961Y-97581603D01*
X159871401Y-97578495D01*
X160038495Y-97411401D01*
X160174035Y-97217830D01*
X160273903Y-97003663D01*
X160335063Y-96775408D01*
X160355659Y-96540000D01*
X160335063Y-96304592D01*
X160273903Y-96076337D01*
X160174035Y-95862171D01*
X160038495Y-95668599D01*
X159871401Y-95501505D01*
X159866968Y-95498401D01*
X159866961Y-95498395D01*
X159685842Y-95371575D01*
X159646976Y-95327257D01*
X159632965Y-95270000D01*
X159646976Y-95212743D01*
X159685842Y-95168425D01*
X159866961Y-95041604D01*
X159866961Y-95041603D01*
X159871401Y-95038495D01*
X160038495Y-94871401D01*
X160174035Y-94677830D01*
X160273903Y-94463663D01*
X160335063Y-94235408D01*
X160355659Y-94000000D01*
X160335063Y-93764592D01*
X160273903Y-93536337D01*
X160174035Y-93322171D01*
X160038495Y-93128599D01*
X159871401Y-92961505D01*
X159866968Y-92958401D01*
X159866961Y-92958395D01*
X159685842Y-92831575D01*
X159646976Y-92787257D01*
X159632965Y-92730000D01*
X159646976Y-92672743D01*
X159685842Y-92628425D01*
X159866961Y-92501604D01*
X159866961Y-92501603D01*
X159871401Y-92498495D01*
X160038495Y-92331401D01*
X160174035Y-92137830D01*
X160273903Y-91923663D01*
X160335063Y-91695408D01*
X160355659Y-91460000D01*
X160335063Y-91224592D01*
X160273903Y-90996337D01*
X160174035Y-90782171D01*
X160038495Y-90588599D01*
X159871401Y-90421505D01*
X159866970Y-90418402D01*
X159866966Y-90418399D01*
X159682259Y-90289066D01*
X159682257Y-90289064D01*
X159677830Y-90285965D01*
X159672933Y-90283681D01*
X159672927Y-90283678D01*
X159468572Y-90188386D01*
X159468570Y-90188385D01*
X159463663Y-90186097D01*
X159458438Y-90184697D01*
X159458430Y-90184694D01*
X159240634Y-90126337D01*
X159240630Y-90126336D01*
X159235408Y-90124937D01*
X159230020Y-90124465D01*
X159230017Y-90124465D01*
X159005395Y-90104813D01*
X159000000Y-90104341D01*
X158994605Y-90104813D01*
X158769982Y-90124465D01*
X158769977Y-90124465D01*
X158764592Y-90124937D01*
X158759371Y-90126335D01*
X158759365Y-90126337D01*
X158541569Y-90184694D01*
X158541557Y-90184698D01*
X158536337Y-90186097D01*
X158531432Y-90188383D01*
X158531427Y-90188386D01*
X158327081Y-90283675D01*
X158327077Y-90283677D01*
X158322171Y-90285965D01*
X158317738Y-90289068D01*
X158317731Y-90289073D01*
X158133034Y-90418399D01*
X158133029Y-90418402D01*
X158128599Y-90421505D01*
X158124775Y-90425328D01*
X158124769Y-90425334D01*
X157965334Y-90584769D01*
X157965328Y-90584775D01*
X157961505Y-90588599D01*
X157958402Y-90593029D01*
X157958399Y-90593034D01*
X157829073Y-90777731D01*
X157829068Y-90777738D01*
X157825965Y-90782171D01*
X157823677Y-90787077D01*
X157823675Y-90787081D01*
X157728386Y-90991427D01*
X157728383Y-90991432D01*
X157726097Y-90996337D01*
X157724698Y-91001557D01*
X157724694Y-91001569D01*
X157666337Y-91219365D01*
X157666335Y-91219371D01*
X157664937Y-91224592D01*
X157644341Y-91460000D01*
X157644813Y-91465395D01*
X157661894Y-91660634D01*
X157664937Y-91695408D01*
X157666336Y-91700630D01*
X157666337Y-91700634D01*
X157724694Y-91918430D01*
X157724697Y-91918438D01*
X157726097Y-91923663D01*
X157728385Y-91928570D01*
X157728386Y-91928572D01*
X157823678Y-92132927D01*
X157823681Y-92132933D01*
X157825965Y-92137830D01*
X157829064Y-92142257D01*
X157829066Y-92142259D01*
X157958399Y-92326966D01*
X157958402Y-92326970D01*
X157961505Y-92331401D01*
X158128599Y-92498495D01*
X158133032Y-92501599D01*
X158133038Y-92501604D01*
X158314158Y-92628425D01*
X158353024Y-92672743D01*
X158367035Y-92730000D01*
X158353024Y-92787257D01*
X158314159Y-92831575D01*
X158133041Y-92958395D01*
X158128599Y-92961505D01*
X158124775Y-92965328D01*
X158124769Y-92965334D01*
X157965334Y-93124769D01*
X157965328Y-93124775D01*
X157961505Y-93128599D01*
X157958402Y-93133029D01*
X157958399Y-93133034D01*
X157829073Y-93317731D01*
X157829068Y-93317738D01*
X157825965Y-93322171D01*
X157823677Y-93327077D01*
X157823675Y-93327081D01*
X157728386Y-93531427D01*
X157728383Y-93531432D01*
X157726097Y-93536337D01*
X157724698Y-93541557D01*
X157724694Y-93541569D01*
X157666337Y-93759365D01*
X157666335Y-93759371D01*
X157664937Y-93764592D01*
X157644341Y-94000000D01*
X157644813Y-94005395D01*
X157661894Y-94200634D01*
X157664937Y-94235408D01*
X157666336Y-94240630D01*
X157666337Y-94240634D01*
X157724694Y-94458430D01*
X157724697Y-94458438D01*
X157726097Y-94463663D01*
X157728385Y-94468570D01*
X157728386Y-94468572D01*
X157823678Y-94672927D01*
X157823681Y-94672933D01*
X157825965Y-94677830D01*
X157829064Y-94682257D01*
X157829066Y-94682259D01*
X157958399Y-94866966D01*
X157958402Y-94866970D01*
X157961505Y-94871401D01*
X158128599Y-95038495D01*
X158133032Y-95041599D01*
X158133038Y-95041604D01*
X158314158Y-95168425D01*
X158353024Y-95212743D01*
X158367035Y-95270000D01*
X158353024Y-95327257D01*
X158314159Y-95371575D01*
X158133041Y-95498395D01*
X158128599Y-95501505D01*
X158124775Y-95505328D01*
X158124769Y-95505334D01*
X157965334Y-95664769D01*
X157965328Y-95664775D01*
X157961505Y-95668599D01*
X157958402Y-95673029D01*
X157958399Y-95673034D01*
X157829073Y-95857731D01*
X157829068Y-95857738D01*
X157825965Y-95862171D01*
X157823677Y-95867077D01*
X157823675Y-95867081D01*
X157728386Y-96071427D01*
X157728383Y-96071432D01*
X157726097Y-96076337D01*
X157724698Y-96081557D01*
X157724694Y-96081569D01*
X157666337Y-96299365D01*
X157666335Y-96299371D01*
X157664937Y-96304592D01*
X157644341Y-96540000D01*
X157644813Y-96545395D01*
X157661894Y-96740634D01*
X157664937Y-96775408D01*
X157666336Y-96780630D01*
X157666337Y-96780634D01*
X157724694Y-96998430D01*
X157724697Y-96998438D01*
X157726097Y-97003663D01*
X157728385Y-97008570D01*
X157728386Y-97008572D01*
X157823678Y-97212927D01*
X157823681Y-97212933D01*
X157825965Y-97217830D01*
X157829064Y-97222257D01*
X157829066Y-97222259D01*
X157958399Y-97406966D01*
X157958402Y-97406970D01*
X157961505Y-97411401D01*
X158128599Y-97578495D01*
X158133032Y-97581599D01*
X158133038Y-97581604D01*
X158314158Y-97708425D01*
X158353024Y-97752743D01*
X158367035Y-97810000D01*
X158353024Y-97867257D01*
X158314159Y-97911575D01*
X158133041Y-98038395D01*
X158128599Y-98041505D01*
X158124775Y-98045328D01*
X158124769Y-98045334D01*
X157965334Y-98204769D01*
X157965328Y-98204775D01*
X157961505Y-98208599D01*
X157958402Y-98213029D01*
X157958399Y-98213034D01*
X157829073Y-98397731D01*
X157829068Y-98397738D01*
X157825965Y-98402171D01*
X157823677Y-98407077D01*
X157823675Y-98407081D01*
X157728386Y-98611427D01*
X157728383Y-98611432D01*
X157726097Y-98616337D01*
X157724698Y-98621557D01*
X157724694Y-98621569D01*
X157666337Y-98839365D01*
X157666335Y-98839371D01*
X157664937Y-98844592D01*
X157644341Y-99080000D01*
X157644813Y-99085395D01*
X157661894Y-99280634D01*
X157664937Y-99315408D01*
X157666336Y-99320630D01*
X157666337Y-99320634D01*
X157724694Y-99538430D01*
X157724697Y-99538438D01*
X157726097Y-99543663D01*
X157728385Y-99548570D01*
X157728386Y-99548572D01*
X157823678Y-99752927D01*
X157823681Y-99752933D01*
X157825965Y-99757830D01*
X157829064Y-99762257D01*
X157829066Y-99762259D01*
X157958399Y-99946966D01*
X157958402Y-99946970D01*
X157961505Y-99951401D01*
X158128599Y-100118495D01*
X158133032Y-100121599D01*
X158133038Y-100121604D01*
X158314158Y-100248425D01*
X158353024Y-100292743D01*
X158367035Y-100350000D01*
X158353024Y-100407257D01*
X158314159Y-100451575D01*
X158133041Y-100578395D01*
X158128599Y-100581505D01*
X158124775Y-100585328D01*
X158124769Y-100585334D01*
X157965334Y-100744769D01*
X157965328Y-100744775D01*
X157961505Y-100748599D01*
X157958402Y-100753029D01*
X157958399Y-100753034D01*
X157829073Y-100937731D01*
X157829068Y-100937738D01*
X157825965Y-100942171D01*
X157823677Y-100947077D01*
X157823675Y-100947081D01*
X157728386Y-101151427D01*
X157728383Y-101151432D01*
X157726097Y-101156337D01*
X157724698Y-101161557D01*
X157724694Y-101161569D01*
X157666337Y-101379365D01*
X157666335Y-101379371D01*
X157664937Y-101384592D01*
X157644341Y-101620000D01*
X157644813Y-101625395D01*
X157661894Y-101820634D01*
X157664937Y-101855408D01*
X157666336Y-101860630D01*
X157666337Y-101860634D01*
X157724694Y-102078430D01*
X157724697Y-102078438D01*
X157726097Y-102083663D01*
X157728385Y-102088570D01*
X157728386Y-102088572D01*
X157823678Y-102292927D01*
X157823681Y-102292933D01*
X157825965Y-102297830D01*
X157829064Y-102302257D01*
X157829066Y-102302259D01*
X157958399Y-102486966D01*
X157958402Y-102486970D01*
X157961505Y-102491401D01*
X158128599Y-102658495D01*
X158133032Y-102661599D01*
X158133038Y-102661604D01*
X158314158Y-102788425D01*
X158353024Y-102832743D01*
X158367035Y-102890000D01*
X158353024Y-102947257D01*
X158314159Y-102991575D01*
X158133041Y-103118395D01*
X158128599Y-103121505D01*
X158124775Y-103125328D01*
X158124769Y-103125334D01*
X157965334Y-103284769D01*
X157965328Y-103284775D01*
X157961505Y-103288599D01*
X157958402Y-103293029D01*
X157958399Y-103293034D01*
X157829073Y-103477731D01*
X157829068Y-103477738D01*
X157825965Y-103482171D01*
X157823677Y-103487077D01*
X157823675Y-103487081D01*
X157728386Y-103691427D01*
X157728383Y-103691432D01*
X157726097Y-103696337D01*
X157724698Y-103701557D01*
X157724694Y-103701569D01*
X157666337Y-103919365D01*
X157666335Y-103919371D01*
X157664937Y-103924592D01*
X157644341Y-104160000D01*
X144952159Y-104160000D01*
X144955659Y-104120000D01*
X144935063Y-103884592D01*
X144873903Y-103656337D01*
X144774035Y-103442171D01*
X144638495Y-103248599D01*
X144471401Y-103081505D01*
X144466970Y-103078402D01*
X144466966Y-103078399D01*
X144285841Y-102951574D01*
X144246976Y-102907256D01*
X144232965Y-102849999D01*
X144246976Y-102792742D01*
X144285839Y-102748426D01*
X144471401Y-102618495D01*
X144638495Y-102451401D01*
X144774035Y-102257830D01*
X144873903Y-102043663D01*
X144935063Y-101815408D01*
X144955659Y-101580000D01*
X144935063Y-101344592D01*
X144873903Y-101116337D01*
X144774035Y-100902171D01*
X144638495Y-100708599D01*
X144471401Y-100541505D01*
X144466968Y-100538401D01*
X144466961Y-100538395D01*
X144285842Y-100411575D01*
X144246976Y-100367257D01*
X144232965Y-100310000D01*
X144246976Y-100252743D01*
X144285842Y-100208425D01*
X144466961Y-100081604D01*
X144466961Y-100081603D01*
X144471401Y-100078495D01*
X144638495Y-99911401D01*
X144774035Y-99717830D01*
X144873903Y-99503663D01*
X144935063Y-99275408D01*
X144955659Y-99040000D01*
X144935063Y-98804592D01*
X144873903Y-98576337D01*
X144774035Y-98362171D01*
X144638495Y-98168599D01*
X144471401Y-98001505D01*
X144466968Y-97998401D01*
X144466961Y-97998395D01*
X144285842Y-97871575D01*
X144246976Y-97827257D01*
X144232965Y-97770000D01*
X144246976Y-97712743D01*
X144285842Y-97668425D01*
X144466961Y-97541604D01*
X144466961Y-97541603D01*
X144471401Y-97538495D01*
X144638495Y-97371401D01*
X144774035Y-97177830D01*
X144873903Y-96963663D01*
X144935063Y-96735408D01*
X144955659Y-96500000D01*
X144935063Y-96264592D01*
X144873903Y-96036337D01*
X144774035Y-95822171D01*
X144638495Y-95628599D01*
X144471401Y-95461505D01*
X144466970Y-95458402D01*
X144466966Y-95458399D01*
X144285841Y-95331574D01*
X144246976Y-95287256D01*
X144232965Y-95229999D01*
X144246976Y-95172742D01*
X144285839Y-95128426D01*
X144471401Y-94998495D01*
X144638495Y-94831401D01*
X144774035Y-94637830D01*
X144873903Y-94423663D01*
X144935063Y-94195408D01*
X144955659Y-93960000D01*
X144935063Y-93724592D01*
X144873903Y-93496337D01*
X144774035Y-93282171D01*
X144638495Y-93088599D01*
X144471401Y-92921505D01*
X144466968Y-92918401D01*
X144466961Y-92918395D01*
X144285842Y-92791575D01*
X144246976Y-92747257D01*
X144232965Y-92690000D01*
X144246976Y-92632743D01*
X144285842Y-92588425D01*
X144466961Y-92461604D01*
X144466961Y-92461603D01*
X144471401Y-92458495D01*
X144638495Y-92291401D01*
X144774035Y-92097830D01*
X144873903Y-91883663D01*
X144935063Y-91655408D01*
X144955659Y-91420000D01*
X144935063Y-91184592D01*
X144873903Y-90956337D01*
X144774035Y-90742171D01*
X144638495Y-90548599D01*
X144471401Y-90381505D01*
X144466970Y-90378402D01*
X144466966Y-90378399D01*
X144282259Y-90249066D01*
X144282257Y-90249064D01*
X144277830Y-90245965D01*
X144272933Y-90243681D01*
X144272927Y-90243678D01*
X144068572Y-90148386D01*
X144068570Y-90148385D01*
X144063663Y-90146097D01*
X144058438Y-90144697D01*
X144058430Y-90144694D01*
X143840634Y-90086337D01*
X143840630Y-90086336D01*
X143835408Y-90084937D01*
X143830020Y-90084465D01*
X143830017Y-90084465D01*
X143605395Y-90064813D01*
X143600000Y-90064341D01*
X143594605Y-90064813D01*
X143369982Y-90084465D01*
X143369977Y-90084465D01*
X143364592Y-90084937D01*
X143359371Y-90086335D01*
X143359365Y-90086337D01*
X143141569Y-90144694D01*
X143141557Y-90144698D01*
X143136337Y-90146097D01*
X143131432Y-90148383D01*
X143131427Y-90148386D01*
X142927081Y-90243675D01*
X142927077Y-90243677D01*
X142922171Y-90245965D01*
X142917738Y-90249068D01*
X142917731Y-90249073D01*
X142733034Y-90378399D01*
X142733029Y-90378402D01*
X142728599Y-90381505D01*
X142724775Y-90385328D01*
X142724769Y-90385334D01*
X142565334Y-90544769D01*
X142565328Y-90544775D01*
X142561505Y-90548599D01*
X142558402Y-90553029D01*
X142558399Y-90553034D01*
X142429073Y-90737731D01*
X142429068Y-90737738D01*
X142425965Y-90742171D01*
X142423677Y-90747077D01*
X142423675Y-90747081D01*
X142328386Y-90951427D01*
X142328383Y-90951432D01*
X142326097Y-90956337D01*
X142324698Y-90961557D01*
X142324694Y-90961569D01*
X142266337Y-91179365D01*
X142266335Y-91179371D01*
X142264937Y-91184592D01*
X142264465Y-91189977D01*
X142264465Y-91189982D01*
X142244813Y-91414605D01*
X142244341Y-91420000D01*
X142264937Y-91655408D01*
X142266336Y-91660630D01*
X142266337Y-91660634D01*
X142324694Y-91878430D01*
X142324697Y-91878438D01*
X142326097Y-91883663D01*
X142328385Y-91888570D01*
X142328386Y-91888572D01*
X142423678Y-92092927D01*
X142423681Y-92092933D01*
X142425965Y-92097830D01*
X142429064Y-92102257D01*
X142429066Y-92102259D01*
X142558399Y-92286966D01*
X142558402Y-92286970D01*
X142561505Y-92291401D01*
X142728599Y-92458495D01*
X142733032Y-92461599D01*
X142733038Y-92461604D01*
X142914158Y-92588425D01*
X142953024Y-92632743D01*
X142967035Y-92690000D01*
X142953024Y-92747257D01*
X142914159Y-92791575D01*
X142733041Y-92918395D01*
X142728599Y-92921505D01*
X142724775Y-92925328D01*
X142724769Y-92925334D01*
X142565334Y-93084769D01*
X142565328Y-93084775D01*
X142561505Y-93088599D01*
X142558402Y-93093029D01*
X142558399Y-93093034D01*
X142429073Y-93277731D01*
X142429068Y-93277738D01*
X142425965Y-93282171D01*
X142423677Y-93287077D01*
X142423675Y-93287081D01*
X142328386Y-93491427D01*
X142328383Y-93491432D01*
X142326097Y-93496337D01*
X142324698Y-93501557D01*
X142324694Y-93501569D01*
X142266337Y-93719365D01*
X142266335Y-93719371D01*
X142264937Y-93724592D01*
X142264465Y-93729977D01*
X142264465Y-93729982D01*
X142244813Y-93954605D01*
X142244341Y-93960000D01*
X142264937Y-94195408D01*
X142266336Y-94200630D01*
X142266337Y-94200634D01*
X142324694Y-94418430D01*
X142324697Y-94418438D01*
X142326097Y-94423663D01*
X142328385Y-94428570D01*
X142328386Y-94428572D01*
X142423678Y-94632927D01*
X142423681Y-94632933D01*
X142425965Y-94637830D01*
X142429064Y-94642257D01*
X142429066Y-94642259D01*
X142558399Y-94826966D01*
X142558402Y-94826970D01*
X142561505Y-94831401D01*
X142728599Y-94998495D01*
X142733032Y-95001599D01*
X142733038Y-95001604D01*
X142914158Y-95128425D01*
X142953024Y-95172743D01*
X142967035Y-95230000D01*
X142953024Y-95287257D01*
X142914160Y-95331574D01*
X142728599Y-95461505D01*
X142724775Y-95465328D01*
X142724769Y-95465334D01*
X142565334Y-95624769D01*
X142565328Y-95624775D01*
X142561505Y-95628599D01*
X142558402Y-95633029D01*
X142558399Y-95633034D01*
X142429073Y-95817731D01*
X142429068Y-95817738D01*
X142425965Y-95822171D01*
X142423677Y-95827077D01*
X142423675Y-95827081D01*
X142328386Y-96031427D01*
X142328383Y-96031432D01*
X142326097Y-96036337D01*
X142324698Y-96041557D01*
X142324694Y-96041569D01*
X142266337Y-96259365D01*
X142266335Y-96259371D01*
X142264937Y-96264592D01*
X142264465Y-96269977D01*
X142264465Y-96269982D01*
X142244813Y-96494605D01*
X142244341Y-96500000D01*
X142264937Y-96735408D01*
X142266336Y-96740630D01*
X142266337Y-96740634D01*
X142324694Y-96958430D01*
X142324697Y-96958438D01*
X142326097Y-96963663D01*
X142328385Y-96968570D01*
X142328386Y-96968572D01*
X142423678Y-97172927D01*
X142423681Y-97172933D01*
X142425965Y-97177830D01*
X142429064Y-97182257D01*
X142429066Y-97182259D01*
X142558399Y-97366966D01*
X142558402Y-97366970D01*
X142561505Y-97371401D01*
X142728599Y-97538495D01*
X142733032Y-97541599D01*
X142733038Y-97541604D01*
X142914158Y-97668425D01*
X142953024Y-97712743D01*
X142967035Y-97770000D01*
X142953024Y-97827257D01*
X142914159Y-97871575D01*
X142733041Y-97998395D01*
X142728599Y-98001505D01*
X142724775Y-98005328D01*
X142724769Y-98005334D01*
X142565334Y-98164769D01*
X142565328Y-98164775D01*
X142561505Y-98168599D01*
X142558402Y-98173029D01*
X142558399Y-98173034D01*
X142429073Y-98357731D01*
X142429068Y-98357738D01*
X142425965Y-98362171D01*
X142423677Y-98367077D01*
X142423675Y-98367081D01*
X142328386Y-98571427D01*
X142328383Y-98571432D01*
X142326097Y-98576337D01*
X142324698Y-98581557D01*
X142324694Y-98581569D01*
X142266337Y-98799365D01*
X142266335Y-98799371D01*
X142264937Y-98804592D01*
X142264465Y-98809977D01*
X142264465Y-98809982D01*
X142244813Y-99034605D01*
X142244341Y-99040000D01*
X142264937Y-99275408D01*
X142266336Y-99280630D01*
X142266337Y-99280634D01*
X142324694Y-99498430D01*
X142324697Y-99498438D01*
X142326097Y-99503663D01*
X142328385Y-99508570D01*
X142328386Y-99508572D01*
X142423678Y-99712927D01*
X142423681Y-99712933D01*
X142425965Y-99717830D01*
X142429064Y-99722257D01*
X142429066Y-99722259D01*
X142558399Y-99906966D01*
X142558402Y-99906970D01*
X142561505Y-99911401D01*
X142728599Y-100078495D01*
X142733032Y-100081599D01*
X142733038Y-100081604D01*
X142914158Y-100208425D01*
X142953024Y-100252743D01*
X142967035Y-100310000D01*
X142953024Y-100367257D01*
X142914159Y-100411575D01*
X142733041Y-100538395D01*
X142728599Y-100541505D01*
X142724775Y-100545328D01*
X142724769Y-100545334D01*
X142565334Y-100704769D01*
X142565328Y-100704775D01*
X142561505Y-100708599D01*
X142558402Y-100713029D01*
X142558399Y-100713034D01*
X142429073Y-100897731D01*
X142429068Y-100897738D01*
X142425965Y-100902171D01*
X142423677Y-100907077D01*
X142423675Y-100907081D01*
X142328386Y-101111427D01*
X142328383Y-101111432D01*
X142326097Y-101116337D01*
X142324698Y-101121557D01*
X142324694Y-101121569D01*
X142266337Y-101339365D01*
X142266335Y-101339371D01*
X142264937Y-101344592D01*
X142264465Y-101349977D01*
X142264465Y-101349982D01*
X142244813Y-101574605D01*
X142244341Y-101580000D01*
X142264937Y-101815408D01*
X142266336Y-101820630D01*
X142266337Y-101820634D01*
X142324694Y-102038430D01*
X142324697Y-102038438D01*
X142326097Y-102043663D01*
X142328385Y-102048570D01*
X142328386Y-102048572D01*
X142423678Y-102252927D01*
X142423681Y-102252933D01*
X142425965Y-102257830D01*
X142429064Y-102262257D01*
X142429066Y-102262259D01*
X142558399Y-102446966D01*
X142558402Y-102446970D01*
X142561505Y-102451401D01*
X142728599Y-102618495D01*
X142733032Y-102621599D01*
X142733038Y-102621604D01*
X142914158Y-102748425D01*
X142953024Y-102792743D01*
X142967035Y-102850000D01*
X142953024Y-102907257D01*
X142914160Y-102951574D01*
X142728599Y-103081505D01*
X142724775Y-103085328D01*
X142724769Y-103085334D01*
X142565334Y-103244769D01*
X142565328Y-103244775D01*
X142561505Y-103248599D01*
X142558402Y-103253029D01*
X142558399Y-103253034D01*
X142429073Y-103437731D01*
X142429068Y-103437738D01*
X142425965Y-103442171D01*
X142423677Y-103447077D01*
X142423675Y-103447081D01*
X142328386Y-103651427D01*
X142328383Y-103651432D01*
X142326097Y-103656337D01*
X142324698Y-103661557D01*
X142324694Y-103661569D01*
X142266337Y-103879365D01*
X142266335Y-103879371D01*
X142264937Y-103884592D01*
X142264465Y-103889977D01*
X142264465Y-103889982D01*
X142244813Y-104114605D01*
X142244341Y-104120000D01*
X141528500Y-104120000D01*
X141528500Y-89524500D01*
X141545113Y-89462500D01*
X141590500Y-89417113D01*
X141652500Y-89400500D01*
X160875500Y-89400500D01*
X160937500Y-89417113D01*
G37*
%TD.AperFunction*%
%TD*%
M02*
