%TF.GenerationSoftware,KiCad,Pcbnew,(7.0.0)*%
%TF.CreationDate,2023-03-14T15:09:46+01:00*%
%TF.ProjectId,breakout-board-receiver,62726561-6b6f-4757-942d-626f6172642d,rev?*%
%TF.SameCoordinates,Original*%
%TF.FileFunction,Copper,L1,Top*%
%TF.FilePolarity,Positive*%
%FSLAX46Y46*%
G04 Gerber Fmt 4.6, Leading zero omitted, Abs format (unit mm)*
G04 Created by KiCad (PCBNEW (7.0.0)) date 2023-03-14 15:09:46*
%MOMM*%
%LPD*%
G01*
G04 APERTURE LIST*
G04 Aperture macros list*
%AMRoundRect*
0 Rectangle with rounded corners*
0 $1 Rounding radius*
0 $2 $3 $4 $5 $6 $7 $8 $9 X,Y pos of 4 corners*
0 Add a 4 corners polygon primitive as box body*
4,1,4,$2,$3,$4,$5,$6,$7,$8,$9,$2,$3,0*
0 Add four circle primitives for the rounded corners*
1,1,$1+$1,$2,$3*
1,1,$1+$1,$4,$5*
1,1,$1+$1,$6,$7*
1,1,$1+$1,$8,$9*
0 Add four rect primitives between the rounded corners*
20,1,$1+$1,$2,$3,$4,$5,0*
20,1,$1+$1,$4,$5,$6,$7,0*
20,1,$1+$1,$6,$7,$8,$9,0*
20,1,$1+$1,$8,$9,$2,$3,0*%
G04 Aperture macros list end*
%TA.AperFunction,SMDPad,CuDef*%
%ADD10R,2.143000X1.762000*%
%TD*%
%TA.AperFunction,SMDPad,CuDef*%
%ADD11RoundRect,0.250000X-0.650000X0.412500X-0.650000X-0.412500X0.650000X-0.412500X0.650000X0.412500X0*%
%TD*%
%TA.AperFunction,ComponentPad*%
%ADD12RoundRect,0.250000X-0.750000X0.600000X-0.750000X-0.600000X0.750000X-0.600000X0.750000X0.600000X0*%
%TD*%
%TA.AperFunction,ComponentPad*%
%ADD13O,2.000000X1.700000*%
%TD*%
%TA.AperFunction,ComponentPad*%
%ADD14R,1.700000X1.700000*%
%TD*%
%TA.AperFunction,ComponentPad*%
%ADD15O,1.700000X1.700000*%
%TD*%
%TA.AperFunction,Conductor*%
%ADD16C,1.000000*%
%TD*%
%TA.AperFunction,Conductor*%
%ADD17C,1.200000*%
%TD*%
%TA.AperFunction,Conductor*%
%ADD18C,0.600000*%
%TD*%
%TA.AperFunction,Conductor*%
%ADD19C,0.400000*%
%TD*%
G04 APERTURE END LIST*
D10*
%TO.P,U1,16,SCLK*%
%TO.N,/SCLK*%
X164399999Y-111399999D03*
%TO.P,U1,15,SDI*%
%TO.N,/SDI*%
X164399999Y-107399999D03*
%TO.P,U1,14,SDO*%
%TO.N,/SDO*%
X164399999Y-103399999D03*
%TO.P,U1,13,GPIO1*%
%TO.N,/GPIO1*%
X164399999Y-99399999D03*
%TO.P,U1,12,GPIO0*%
%TO.N,/GPIO0*%
X164399999Y-95399999D03*
%TO.P,U1,11,NC*%
%TO.N,/NC_3*%
X164399999Y-91399999D03*
%TO.P,U1,10,GND*%
%TO.N,/gnd*%
X164399999Y-87380999D03*
%TO.P,U1,9,ANT*%
%TO.N,/Antenne*%
X164399999Y-83399999D03*
%TO.P,U1,8,GND*%
%TO.N,GND*%
X183799999Y-111399999D03*
%TO.P,U1,7,nSEL*%
%TO.N,/nSEL*%
X183799999Y-107399999D03*
%TO.P,U1,6,nIRQ*%
%TO.N,/nIRQ*%
X183799999Y-103399999D03*
%TO.P,U1,5,SDN*%
%TO.N,/SDN*%
X183799999Y-99399999D03*
%TO.P,U1,4,NC*%
%TO.N,/NC_2*%
X183799999Y-95399999D03*
%TO.P,U1,3,NC*%
%TO.N,/NC_1*%
X183799999Y-91399999D03*
%TO.P,U1,2,GND*%
%TO.N,GND*%
X183799999Y-87380999D03*
%TO.P,U1,1,VCC*%
%TO.N,+5V*%
X183799999Y-83399999D03*
%TD*%
D11*
%TO.P,C3,1*%
%TO.N,+5V*%
X188600000Y-83437500D03*
%TO.P,C3,2*%
%TO.N,GND*%
X188600000Y-86562500D03*
%TD*%
%TO.P,C4,1*%
%TO.N,+5V*%
X193000000Y-83437500D03*
%TO.P,C4,2*%
%TO.N,GND*%
X193000000Y-86562500D03*
%TD*%
D12*
%TO.P,J2,1,Pin_1*%
%TO.N,/Antenne*%
X161600000Y-84000000D03*
D13*
%TO.P,J2,2,Pin_2*%
%TO.N,/gnd*%
X161599999Y-86499999D03*
%TD*%
D14*
%TO.P,J1,1,Pin_1*%
%TO.N,+5V*%
X190974999Y-95049999D03*
D15*
%TO.P,J1,2,Pin_2*%
%TO.N,GND*%
X190974999Y-92509999D03*
%TD*%
D14*
%TO.P,J3,1,Pin_1*%
%TO.N,/SDN*%
X157999999Y-112739999D03*
D15*
%TO.P,J3,2,Pin_2*%
%TO.N,/SCLK*%
X157999999Y-110199999D03*
%TO.P,J3,3,Pin_3*%
%TO.N,/SDI*%
X157999999Y-107659999D03*
%TO.P,J3,4,Pin_4*%
%TO.N,/SDO*%
X157999999Y-105119999D03*
%TO.P,J3,5,Pin_5*%
%TO.N,/nSEL*%
X157999999Y-102579999D03*
%TO.P,J3,6,Pin_6*%
%TO.N,/nIRQ*%
X157999999Y-100039999D03*
%TO.P,J3,7,Pin_7*%
%TO.N,/GPIO0*%
X157999999Y-97499999D03*
%TO.P,J3,8,Pin_8*%
%TO.N,/GPIO1*%
X157999999Y-94959999D03*
%TD*%
D16*
%TO.N,+5V*%
X183600000Y-83400000D02*
X188562500Y-83400000D01*
X193350000Y-95050000D02*
X195400000Y-93000000D01*
X195400000Y-84800000D02*
X194037500Y-83437500D01*
X190975000Y-95050000D02*
X193350000Y-95050000D01*
X188562500Y-83400000D02*
X188600000Y-83437500D01*
X195400000Y-93000000D02*
X195400000Y-84800000D01*
X194037500Y-83437500D02*
X193000000Y-83437500D01*
X188600000Y-83437500D02*
X193000000Y-83437500D01*
%TO.N,GND*%
X187781500Y-87381000D02*
X188600000Y-86562500D01*
X178000000Y-108400000D02*
X181000000Y-111400000D01*
X186890000Y-92510000D02*
X186000000Y-93400000D01*
X190975000Y-92510000D02*
X187800000Y-92510000D01*
X188600000Y-86562500D02*
X193000000Y-86562500D01*
X187781500Y-87381000D02*
X187781500Y-92491500D01*
X178000000Y-97647500D02*
X178000000Y-108400000D01*
D17*
%TO.N,/gnd*%
X164200000Y-87381000D02*
X162481000Y-87381000D01*
D16*
%TO.N,GND*%
X182247500Y-93400000D02*
X178000000Y-97647500D01*
X187800000Y-92510000D02*
X186890000Y-92510000D01*
X181000000Y-111400000D02*
X183600000Y-111400000D01*
X186000000Y-93400000D02*
X182247500Y-93400000D01*
X183600000Y-87381000D02*
X187781500Y-87381000D01*
X187781500Y-92491500D02*
X187800000Y-92510000D01*
D17*
%TO.N,/gnd*%
X162481000Y-87381000D02*
X161600000Y-86500000D01*
D18*
%TO.N,/SDN*%
X191800000Y-102600000D02*
X188600000Y-99400000D01*
X158000000Y-112740000D02*
X158000000Y-115200000D01*
X161000000Y-118200000D02*
X190000000Y-118200000D01*
X190000000Y-118200000D02*
X191800000Y-116400000D01*
X188600000Y-99400000D02*
X183600000Y-99400000D01*
X158000000Y-115200000D02*
X161000000Y-118200000D01*
X191800000Y-116400000D02*
X191800000Y-102600000D01*
%TO.N,/SCLK*%
X162000000Y-111400000D02*
X160800000Y-110200000D01*
X160800000Y-110200000D02*
X158000000Y-110200000D01*
X164200000Y-111400000D02*
X162000000Y-111400000D01*
%TO.N,/SDI*%
X158000000Y-107660000D02*
X163940000Y-107660000D01*
X163940000Y-107660000D02*
X164200000Y-107400000D01*
%TO.N,/SDO*%
X159480000Y-105120000D02*
X158000000Y-105120000D01*
X164200000Y-103400000D02*
X161200000Y-103400000D01*
X161200000Y-103400000D02*
X159480000Y-105120000D01*
D19*
%TO.N,/nSEL*%
X162600000Y-117200000D02*
X189200000Y-117200000D01*
X190600000Y-115800000D02*
X190600000Y-109000000D01*
X157522233Y-111490000D02*
X159250000Y-111490000D01*
X190600000Y-109000000D02*
X189000000Y-107400000D01*
X160600000Y-112840000D02*
X160600000Y-115200000D01*
X160600000Y-115200000D02*
X162600000Y-117200000D01*
X155800000Y-103400000D02*
X155800000Y-109767767D01*
X159250000Y-111490000D02*
X160600000Y-112840000D01*
X189200000Y-117200000D02*
X190600000Y-115800000D01*
X158000000Y-102580000D02*
X156620000Y-102580000D01*
X156620000Y-102580000D02*
X155800000Y-103400000D01*
X155800000Y-109767767D02*
X157522233Y-111490000D01*
X189000000Y-107400000D02*
X183600000Y-107400000D01*
%TO.N,/nIRQ*%
X182400000Y-109400000D02*
X181600000Y-108600000D01*
X189000000Y-113800000D02*
X189000000Y-110400000D01*
X181600000Y-103800000D02*
X182000000Y-103400000D01*
X182000000Y-103400000D02*
X183600000Y-103400000D01*
X188200000Y-114600000D02*
X189000000Y-113800000D01*
X158000000Y-100040000D02*
X159360000Y-101400000D01*
X168000000Y-101400000D02*
X181200000Y-114600000D01*
X159360000Y-101400000D02*
X168000000Y-101400000D01*
X181600000Y-108600000D02*
X181600000Y-103800000D01*
X181200000Y-114600000D02*
X188200000Y-114600000D01*
X189000000Y-110400000D02*
X188000000Y-109400000D01*
X188000000Y-109400000D02*
X182400000Y-109400000D01*
D18*
%TO.N,/GPIO0*%
X159800000Y-92400000D02*
X156400000Y-92400000D01*
X164200000Y-95400000D02*
X161200000Y-95400000D01*
X156300000Y-97500000D02*
X158000000Y-97500000D01*
X155400000Y-96600000D02*
X156300000Y-97500000D01*
X160600000Y-94800000D02*
X160600000Y-93200000D01*
X155400000Y-93400000D02*
X155400000Y-96600000D01*
X161200000Y-95400000D02*
X160600000Y-94800000D01*
X160600000Y-93200000D02*
X159800000Y-92400000D01*
X156400000Y-92400000D02*
X155400000Y-93400000D01*
%TO.N,/GPIO1*%
X160400000Y-97360000D02*
X160400000Y-98800000D01*
X158000000Y-94960000D02*
X160400000Y-97360000D01*
X161000000Y-99400000D02*
X164200000Y-99400000D01*
X160400000Y-98800000D02*
X161000000Y-99400000D01*
D17*
%TO.N,/Antenne*%
X162200000Y-83400000D02*
X161600000Y-84000000D01*
X164200000Y-83400000D02*
X162200000Y-83400000D01*
%TD*%
M02*
