M48
; DRILL file {KiCad 7.0.1} date Sun 19 Mar 2023 11:24:36 AM CET
; FORMAT={-:-/ absolute / metric / decimal}
; #@! TF.CreationDate,2023-03-19T11:24:36+01:00
; #@! TF.GenerationSoftware,Kicad,Pcbnew,7.0.1
; #@! TF.FileFunction,Plated,1,2,PTH
FMAT,2
METRIC
; #@! TA.AperFunction,Plated,PTH,ComponentDrill
T1C0.800
; #@! TA.AperFunction,Plated,PTH,ComponentDrill
T2C0.850
; #@! TA.AperFunction,Plated,PTH,ComponentDrill
T3C1.000
; #@! TA.AperFunction,Plated,PTH,ComponentDrill
T4C1.200
; #@! TA.AperFunction,Plated,PTH,ComponentDrill
T5C1.300
; #@! TA.AperFunction,Plated,PTH,ComponentDrill
T6C1.320
; #@! TA.AperFunction,Plated,PTH,ComponentDrill
T7C2.000
%
G90
G05
T1
X140.462Y-125.222
X148.95Y-149.45
X149.225Y-117.85
X151.625Y-117.85
X153.797Y-136.525
X161.275Y-136.525
X161.29Y-144.424
X166.116Y-150.026
X166.725Y-121.925
X167.259Y-114.3
X167.259Y-116.713
X169.545Y-121.925
X170.996Y-150.026
X172.187Y-142.088
X175.565Y-126.136
X176.403Y-148.895
X183.185Y-131.394
X183.185Y-133.934
X183.185Y-136.5
X183.21Y-139.04
X183.21Y-141.554
X183.21Y-144.094
X183.21Y-146.634
X184.785Y-123.698
T2
X151.257Y-114.3
X153.797Y-114.3
X156.337Y-114.3
X161.417Y-114.3
X163.957Y-114.3
T3
X154.732Y-149.45
X159.024Y-120.752
X159.732Y-149.45
X161.564Y-120.752
X166.014Y-145.237
X168.554Y-145.237
X170.434Y-115.443
X171.094Y-145.237
X172.974Y-115.443
X175.514Y-115.443
X178.054Y-115.443
X180.594Y-115.443
X183.134Y-115.443
X185.674Y-115.443
X185.674Y-130.683
X185.674Y-133.223
X185.674Y-135.763
X185.674Y-138.303
X185.674Y-140.843
X185.674Y-143.383
X185.674Y-145.923
X185.674Y-148.463
X185.674Y-151.003
T4
X120.904Y-118.237
X143.404Y-118.237
T5
X146.972Y-121.325
X146.972Y-126.325
X156.972Y-123.825
T6
X125.476Y-128.764
X125.476Y-133.764
X125.476Y-138.764
X125.476Y-143.764
T7
X121.325Y-150.3
X179.95Y-150.3
T0
M30
