%TF.GenerationSoftware,KiCad,Pcbnew,(7.0.0)*%
%TF.CreationDate,2023-03-19T14:03:37+01:00*%
%TF.ProjectId,breakout-board-power-measurement,62726561-6b6f-4757-942d-626f6172642d,rev?*%
%TF.SameCoordinates,Original*%
%TF.FileFunction,Copper,L1,Top*%
%TF.FilePolarity,Positive*%
%FSLAX46Y46*%
G04 Gerber Fmt 4.6, Leading zero omitted, Abs format (unit mm)*
G04 Created by KiCad (PCBNEW (7.0.0)) date 2023-03-19 14:03:37*
%MOMM*%
%LPD*%
G01*
G04 APERTURE LIST*
G04 Aperture macros list*
%AMRoundRect*
0 Rectangle with rounded corners*
0 $1 Rounding radius*
0 $2 $3 $4 $5 $6 $7 $8 $9 X,Y pos of 4 corners*
0 Add a 4 corners polygon primitive as box body*
4,1,4,$2,$3,$4,$5,$6,$7,$8,$9,$2,$3,0*
0 Add four circle primitives for the rounded corners*
1,1,$1+$1,$2,$3*
1,1,$1+$1,$4,$5*
1,1,$1+$1,$6,$7*
1,1,$1+$1,$8,$9*
0 Add four rect primitives between the rounded corners*
20,1,$1+$1,$2,$3,$4,$5,0*
20,1,$1+$1,$4,$5,$6,$7,0*
20,1,$1+$1,$6,$7,$8,$9,0*
20,1,$1+$1,$8,$9,$2,$3,0*%
G04 Aperture macros list end*
%ADD10C,0.100000*%
%TA.AperFunction,ComponentPad*%
%ADD11R,1.700000X1.700000*%
%TD*%
%TA.AperFunction,ComponentPad*%
%ADD12O,1.700000X1.700000*%
%TD*%
%TA.AperFunction,ComponentPad*%
%ADD13C,1.500000*%
%TD*%
%TA.AperFunction,SMDPad,CuDef*%
%ADD14RoundRect,0.250000X1.425000X-0.362500X1.425000X0.362500X-1.425000X0.362500X-1.425000X-0.362500X0*%
%TD*%
%TA.AperFunction,SMDPad,CuDef*%
%ADD15RoundRect,0.250000X-0.400000X-0.625000X0.400000X-0.625000X0.400000X0.625000X-0.400000X0.625000X0*%
%TD*%
%TA.AperFunction,SMDPad,CuDef*%
%ADD16RoundRect,0.250000X0.700000X-0.275000X0.700000X0.275000X-0.700000X0.275000X-0.700000X-0.275000X0*%
%TD*%
%TA.AperFunction,SMDPad,CuDef*%
%ADD17RoundRect,0.250000X-0.275000X-0.700000X0.275000X-0.700000X0.275000X0.700000X-0.275000X0.700000X0*%
%TD*%
%TA.AperFunction,SMDPad,CuDef*%
%ADD18RoundRect,0.250000X0.412500X0.650000X-0.412500X0.650000X-0.412500X-0.650000X0.412500X-0.650000X0*%
%TD*%
%TA.AperFunction,SMDPad,CuDef*%
%ADD19RoundRect,0.250000X0.650000X-0.412500X0.650000X0.412500X-0.650000X0.412500X-0.650000X-0.412500X0*%
%TD*%
%TA.AperFunction,SMDPad,CuDef*%
%ADD20RoundRect,0.250000X-0.475000X0.337500X-0.475000X-0.337500X0.475000X-0.337500X0.475000X0.337500X0*%
%TD*%
%TA.AperFunction,SMDPad,CuDef*%
%ADD21RoundRect,0.250001X-0.462499X-1.074999X0.462499X-1.074999X0.462499X1.074999X-0.462499X1.074999X0*%
%TD*%
%TA.AperFunction,SMDPad,CuDef*%
%ADD22RoundRect,0.250000X-0.650000X0.412500X-0.650000X-0.412500X0.650000X-0.412500X0.650000X0.412500X0*%
%TD*%
%TA.AperFunction,SMDPad,CuDef*%
%ADD23RoundRect,0.250000X-0.412500X-0.650000X0.412500X-0.650000X0.412500X0.650000X-0.412500X0.650000X0*%
%TD*%
%TA.AperFunction,SMDPad,CuDef*%
%ADD24RoundRect,0.250000X-0.350000X-0.450000X0.350000X-0.450000X0.350000X0.450000X-0.350000X0.450000X0*%
%TD*%
%TA.AperFunction,ComponentPad*%
%ADD25C,3.000000*%
%TD*%
%TA.AperFunction,SMDPad,CuDef*%
%ADD26RoundRect,0.250000X-0.450000X0.350000X-0.450000X-0.350000X0.450000X-0.350000X0.450000X0.350000X0*%
%TD*%
%TA.AperFunction,SMDPad,CuDef*%
%ADD27RoundRect,0.250000X0.400000X0.625000X-0.400000X0.625000X-0.400000X-0.625000X0.400000X-0.625000X0*%
%TD*%
%TA.AperFunction,SMDPad,CuDef*%
%ADD28R,1.651000X0.431800*%
%TD*%
%TA.AperFunction,ComponentPad*%
%ADD29C,2.340000*%
%TD*%
%TA.AperFunction,ComponentPad*%
%ADD30R,3.960000X1.980000*%
%TD*%
%TA.AperFunction,ComponentPad*%
%ADD31O,3.960000X1.980000*%
%TD*%
%TA.AperFunction,ComponentPad*%
%ADD32R,1.850000X1.850000*%
%TD*%
%TA.AperFunction,ComponentPad*%
%ADD33C,1.850000*%
%TD*%
%TA.AperFunction,ComponentPad*%
%ADD34R,2.000000X2.000000*%
%TD*%
%TA.AperFunction,ComponentPad*%
%ADD35C,2.000000*%
%TD*%
%TA.AperFunction,ComponentPad*%
%ADD36C,2.400000*%
%TD*%
%TA.AperFunction,Conductor*%
%ADD37C,0.400000*%
%TD*%
%TA.AperFunction,Conductor*%
%ADD38C,0.600000*%
%TD*%
%TA.AperFunction,Conductor*%
%ADD39C,0.250000*%
%TD*%
%TA.AperFunction,Conductor*%
%ADD40C,0.800000*%
%TD*%
%TA.AperFunction,Conductor*%
%ADD41C,1.000000*%
%TD*%
%TA.AperFunction,Conductor*%
%ADD42C,3.000000*%
%TD*%
G04 APERTURE END LIST*
D10*
G36*
X181675145Y-127554426D02*
G01*
X181711288Y-127590569D01*
X181750000Y-127667993D01*
X181750000Y-127930101D01*
X181711287Y-128007524D01*
X181675145Y-128043667D01*
X181597720Y-128082380D01*
X181430851Y-128082380D01*
X181373810Y-128053859D01*
X181373810Y-127544235D01*
X181430851Y-127515714D01*
X181597720Y-127515714D01*
X181675145Y-127554426D01*
G37*
G36*
X180770383Y-127554426D02*
G01*
X180806526Y-127590569D01*
X180845238Y-127667993D01*
X180845238Y-127930101D01*
X180806525Y-128007524D01*
X180770383Y-128043667D01*
X180692958Y-128082380D01*
X180573708Y-128082380D01*
X180496284Y-128043667D01*
X180460141Y-128007525D01*
X180421429Y-127930100D01*
X180421429Y-127667994D01*
X180460141Y-127590568D01*
X180496284Y-127554425D01*
X180573708Y-127515714D01*
X180692958Y-127515714D01*
X180770383Y-127554426D01*
G37*
G36*
X182308334Y-128642857D02*
G01*
X179291667Y-128642857D01*
X179291667Y-127473130D01*
X179653181Y-127473130D01*
X179665379Y-127499839D01*
X179690081Y-127515714D01*
X179797619Y-127515714D01*
X179797619Y-127986833D01*
X179796332Y-127998753D01*
X179800901Y-128007891D01*
X179803780Y-128017696D01*
X179807350Y-128020790D01*
X179844820Y-128095729D01*
X179844752Y-128097671D01*
X179851325Y-128108739D01*
X179853732Y-128113552D01*
X179854982Y-128114896D01*
X179859746Y-128122917D01*
X179864786Y-128125437D01*
X179868626Y-128129565D01*
X179877665Y-128131876D01*
X179965711Y-128175899D01*
X179975795Y-128182380D01*
X179986010Y-128182380D01*
X179996069Y-128184190D01*
X180000433Y-128182380D01*
X180092904Y-128182380D01*
X180113887Y-128176219D01*
X180133116Y-128154028D01*
X180137295Y-128124964D01*
X180125097Y-128098255D01*
X180100395Y-128082380D01*
X180002279Y-128082380D01*
X179932506Y-128047493D01*
X179897619Y-127977719D01*
X179897619Y-127661783D01*
X180319619Y-127661783D01*
X180321429Y-127666147D01*
X180321429Y-127939214D01*
X180320142Y-127951134D01*
X180324711Y-127960272D01*
X180327590Y-127970077D01*
X180331160Y-127973171D01*
X180371523Y-128053896D01*
X180373312Y-128062116D01*
X180383041Y-128071845D01*
X180392436Y-128081946D01*
X180393384Y-128082188D01*
X180426879Y-128115684D01*
X180431175Y-128122917D01*
X180443495Y-128129077D01*
X180455589Y-128135681D01*
X180456563Y-128135611D01*
X180537140Y-128175899D01*
X180547224Y-128182380D01*
X180557439Y-128182380D01*
X180567498Y-128184190D01*
X180571862Y-128182380D01*
X180702072Y-128182380D01*
X180713992Y-128183667D01*
X180723130Y-128179097D01*
X180732935Y-128176219D01*
X180736029Y-128172648D01*
X180816754Y-128132285D01*
X180824974Y-128130497D01*
X180834703Y-128120767D01*
X180844804Y-128111373D01*
X180845046Y-128110424D01*
X180878542Y-128076929D01*
X180885775Y-128072634D01*
X180891935Y-128060313D01*
X180898539Y-128048220D01*
X180898469Y-128047245D01*
X180938757Y-127966668D01*
X180945238Y-127956585D01*
X180945238Y-127946370D01*
X180947048Y-127936311D01*
X180945238Y-127931947D01*
X180945238Y-127658880D01*
X180946525Y-127646960D01*
X180941955Y-127637821D01*
X180939077Y-127628017D01*
X180935506Y-127624923D01*
X180895142Y-127544195D01*
X180893355Y-127535977D01*
X180883619Y-127526241D01*
X180874230Y-127516148D01*
X180873283Y-127515905D01*
X180872547Y-127515169D01*
X181271731Y-127515169D01*
X181273810Y-127521425D01*
X181273810Y-128083878D01*
X181273324Y-128097671D01*
X181273810Y-128098489D01*
X181273810Y-128472904D01*
X181279971Y-128493887D01*
X181302162Y-128513116D01*
X181331226Y-128517295D01*
X181357935Y-128505097D01*
X181373810Y-128480395D01*
X181373810Y-128165663D01*
X181394283Y-128175899D01*
X181404367Y-128182380D01*
X181414582Y-128182380D01*
X181424641Y-128184190D01*
X181429005Y-128182380D01*
X181606834Y-128182380D01*
X181618754Y-128183667D01*
X181627892Y-128179097D01*
X181637697Y-128176219D01*
X181640791Y-128172648D01*
X181721516Y-128132285D01*
X181729736Y-128130497D01*
X181739465Y-128120767D01*
X181749566Y-128111373D01*
X181749808Y-128110424D01*
X181783304Y-128076929D01*
X181790537Y-128072634D01*
X181796697Y-128060313D01*
X181803301Y-128048220D01*
X181803231Y-128047245D01*
X181843519Y-127966668D01*
X181850000Y-127956585D01*
X181850000Y-127946370D01*
X181851810Y-127936311D01*
X181850000Y-127931947D01*
X181850000Y-127658880D01*
X181851287Y-127646960D01*
X181846717Y-127637821D01*
X181843839Y-127628017D01*
X181840268Y-127624923D01*
X181799904Y-127544195D01*
X181798117Y-127535977D01*
X181788381Y-127526241D01*
X181778992Y-127516148D01*
X181778045Y-127515905D01*
X181744548Y-127482409D01*
X181740253Y-127475177D01*
X181727936Y-127469018D01*
X181715840Y-127462413D01*
X181714864Y-127462482D01*
X181634288Y-127422194D01*
X181624205Y-127415714D01*
X181613990Y-127415714D01*
X181603931Y-127413904D01*
X181599567Y-127415714D01*
X181421738Y-127415714D01*
X181409818Y-127414427D01*
X181400679Y-127418996D01*
X181390875Y-127421875D01*
X181387781Y-127425445D01*
X181366163Y-127436254D01*
X181345458Y-127418312D01*
X181316394Y-127414133D01*
X181289685Y-127426331D01*
X181273810Y-127451033D01*
X181273810Y-127507040D01*
X181271731Y-127515169D01*
X180872547Y-127515169D01*
X180839786Y-127482409D01*
X180835491Y-127475177D01*
X180823174Y-127469018D01*
X180811078Y-127462413D01*
X180810102Y-127462482D01*
X180729526Y-127422194D01*
X180719443Y-127415714D01*
X180709228Y-127415714D01*
X180699169Y-127413904D01*
X180694805Y-127415714D01*
X180564595Y-127415714D01*
X180552675Y-127414427D01*
X180543536Y-127418996D01*
X180533732Y-127421875D01*
X180530638Y-127425445D01*
X180449910Y-127465809D01*
X180441692Y-127467597D01*
X180431956Y-127477332D01*
X180421863Y-127486722D01*
X180421620Y-127487668D01*
X180388124Y-127521165D01*
X180380892Y-127525461D01*
X180374733Y-127537777D01*
X180368128Y-127549874D01*
X180368197Y-127550849D01*
X180327909Y-127631425D01*
X180321429Y-127641509D01*
X180321429Y-127651724D01*
X180319619Y-127661783D01*
X179897619Y-127661783D01*
X179897619Y-127515714D01*
X180092904Y-127515714D01*
X180113887Y-127509553D01*
X180133116Y-127487362D01*
X180137295Y-127458298D01*
X180125097Y-127431589D01*
X180100395Y-127415714D01*
X179897619Y-127415714D01*
X179897619Y-127125190D01*
X179891458Y-127104207D01*
X179869267Y-127084978D01*
X179840203Y-127080799D01*
X179813494Y-127092997D01*
X179797619Y-127117699D01*
X179797619Y-127415714D01*
X179697572Y-127415714D01*
X179676589Y-127421875D01*
X179657360Y-127444066D01*
X179653181Y-127473130D01*
X179291667Y-127473130D01*
X179291667Y-126807143D01*
X182308334Y-126807143D01*
X182308334Y-128642857D01*
G37*
D11*
%TO.P,J2,1,Pin_1*%
%TO.N,/~{RESET}_*%
X185673999Y-130682999D03*
D12*
%TO.P,J2,2,Pin_2*%
%TO.N,/SDO_*%
X185673999Y-133222999D03*
%TO.P,J2,3,Pin_3*%
%TO.N,/SDI_*%
X185673999Y-135762999D03*
%TO.P,J2,4,Pin_4*%
%TO.N,/SCK_*%
X185673999Y-138302999D03*
%TO.P,J2,5,Pin_5*%
%TO.N,/~{CS}_*%
X185673999Y-140842999D03*
%TO.P,J2,6,Pin_6*%
%TO.N,/~{DR}_*%
X185673999Y-143382999D03*
%TO.P,J2,7,Pin_7*%
%TO.N,/OSC1_ext_*%
X185673999Y-145922999D03*
%TO.P,J2,8,Pin_8*%
%TO.N,/3V3D*%
X185673999Y-148462999D03*
%TO.P,J2,9,Pin_9*%
%TO.N,GNDD*%
X185673999Y-151002999D03*
%TD*%
D13*
%TO.P,TP19,1,1*%
%TO.N,/~{CS}_*%
X183210200Y-141554200D03*
%TD*%
D14*
%TO.P,R6,1*%
%TO.N,/current_neg*%
X130690000Y-150250000D03*
%TO.P,R6,2*%
%TO.N,/current_pos*%
X130690000Y-144325000D03*
%TD*%
D15*
%TO.P,R4,1*%
%TO.N,Net-(R3-Pad2)*%
X141722000Y-135000000D03*
%TO.P,R4,2*%
%TO.N,Net-(R4-Pad2)*%
X144822000Y-135000000D03*
%TD*%
D16*
%TO.P,L4,1*%
%TO.N,HIGH_in*%
X131699000Y-124765000D03*
%TO.P,L4,2*%
%TO.N,Net-(C10-Pad1)*%
X131699000Y-121615000D03*
%TD*%
D17*
%TO.P,L5,1*%
%TO.N,GNDA*%
X167081000Y-142113000D03*
%TO.P,L5,2*%
%TO.N,GNDD*%
X170231000Y-142113000D03*
%TD*%
%TO.P,L1,1*%
%TO.N,HIGH_in*%
X133807000Y-126873000D03*
%TO.P,L1,2*%
%TO.N,Net-(L1-Pad2)*%
X136957000Y-126873000D03*
%TD*%
D13*
%TO.P,TP22,1,1*%
%TO.N,/LM317_Vin*%
X148950000Y-149450000D03*
%TD*%
D18*
%TO.P,C7,1*%
%TO.N,GNDA*%
X165189300Y-142087600D03*
%TO.P,C7,2*%
%TO.N,Net-(U1-REFIN+{slash}OUT)*%
X162064300Y-142087600D03*
%TD*%
D13*
%TO.P,TP18,1,1*%
%TO.N,/SCK_*%
X183210200Y-139039600D03*
%TD*%
D17*
%TO.P,L2,1*%
%TO.N,/current_pos*%
X140475000Y-146177000D03*
%TO.P,L2,2*%
%TO.N,Net-(L2-Pad2)*%
X143625000Y-146177000D03*
%TD*%
D11*
%TO.P,J3,1,Pin_1*%
%TO.N,Net-(J3-Pin_1)*%
X170433999Y-115442999D03*
D12*
%TO.P,J3,2,Pin_2*%
%TO.N,Net-(J3-Pin_2)*%
X172973999Y-115442999D03*
%TO.P,J3,3,Pin_3*%
%TO.N,Net-(J3-Pin_3)*%
X175513999Y-115442999D03*
%TO.P,J3,4,Pin_4*%
%TO.N,Net-(J3-Pin_4)*%
X178053999Y-115442999D03*
%TO.P,J3,5,Pin_5*%
%TO.N,Net-(J3-Pin_5)*%
X180593999Y-115442999D03*
%TO.P,J3,6,Pin_6*%
%TO.N,Net-(J3-Pin_6)*%
X183133999Y-115442999D03*
%TO.P,J3,7,Pin_7*%
%TO.N,Net-(J3-Pin_7)*%
X185673999Y-115442999D03*
%TD*%
D15*
%TO.P,R12,1*%
%TO.N,Net-(L2-Pad2)*%
X149300000Y-144145000D03*
%TO.P,R12,2*%
%TO.N,/CH1+*%
X152400000Y-144145000D03*
%TD*%
D19*
%TO.P,C9,1*%
%TO.N,/3V3A*%
X163830000Y-131153298D03*
%TO.P,C9,2*%
%TO.N,GNDA*%
X163830000Y-128028298D03*
%TD*%
D20*
%TO.P,C2,1*%
%TO.N,/OSC2*%
X163880000Y-148452500D03*
%TO.P,C2,2*%
%TO.N,GNDD*%
X163880000Y-150527500D03*
%TD*%
D13*
%TO.P,TP20,1,1*%
%TO.N,/~{DR}_*%
X183210200Y-144094200D03*
%TD*%
D11*
%TO.P,J4,1,Pin_1*%
%TO.N,/5V_ext*%
X159023999Y-120751999D03*
D12*
%TO.P,J4,2,Pin_2*%
%TO.N,/GND_ext*%
X161563999Y-120751999D03*
%TD*%
D21*
%TO.P,FB1,1*%
%TO.N,Net-(FB1-Pad1)*%
X167087500Y-125350000D03*
%TO.P,FB1,2*%
%TO.N,+3.3V*%
X170062500Y-125350000D03*
%TD*%
D22*
%TO.P,C6,1*%
%TO.N,GNDA*%
X155752800Y-137795000D03*
%TO.P,C6,2*%
%TO.N,/CH1-*%
X155752800Y-140920000D03*
%TD*%
D23*
%TO.P,C12,1*%
%TO.N,/3V3D*%
X177202700Y-123647200D03*
%TO.P,C12,2*%
%TO.N,GNDD*%
X180327700Y-123647200D03*
%TD*%
D13*
%TO.P,TP11,1,1*%
%TO.N,GNDD*%
X151625000Y-117850000D03*
%TD*%
D24*
%TO.P,R15,1*%
%TO.N,/~{RESET}*%
X178866108Y-131394200D03*
%TO.P,R15,2*%
%TO.N,/~{RESET}_*%
X180866108Y-131394200D03*
%TD*%
D25*
%TO.P,TP23,1,1*%
%TO.N,unconnected-(TP23-Pad1)*%
X121325000Y-150300000D03*
%TD*%
D26*
%TO.P,R20,1*%
%TO.N,+3.3V*%
X170153066Y-128564800D03*
%TO.P,R20,2*%
%TO.N,/3V3D*%
X170153066Y-130564800D03*
%TD*%
D24*
%TO.P,R17,1*%
%TO.N,/SDI*%
X178927446Y-136504554D03*
%TO.P,R17,2*%
%TO.N,/SDI_*%
X180927446Y-136504554D03*
%TD*%
D13*
%TO.P,TP13,1,1*%
%TO.N,GNDD*%
X175564800Y-126136400D03*
%TD*%
%TO.P,TP7,1,1*%
%TO.N,/3V3D*%
X169545000Y-121925000D03*
%TD*%
D17*
%TO.P,L3,1*%
%TO.N,/current_neg*%
X140475000Y-148717000D03*
%TO.P,L3,2*%
%TO.N,Net-(L3-Pad2)*%
X143625000Y-148717000D03*
%TD*%
D14*
%TO.P,R7,1*%
%TO.N,/current_neg*%
X134900000Y-150250000D03*
%TO.P,R7,2*%
%TO.N,/current_pos*%
X134900000Y-144325000D03*
%TD*%
D19*
%TO.P,C4,1*%
%TO.N,GNDA*%
X155752800Y-135255000D03*
%TO.P,C4,2*%
%TO.N,/CH0+*%
X155752800Y-132130000D03*
%TD*%
D15*
%TO.P,R5,1*%
%TO.N,Net-(R4-Pad2)*%
X141680000Y-132100000D03*
%TO.P,R5,2*%
%TO.N,Net-(R5-Pad2)*%
X144780000Y-132100000D03*
%TD*%
D19*
%TO.P,C11,1*%
%TO.N,/3V3D*%
X173329600Y-131144632D03*
%TO.P,C11,2*%
%TO.N,GNDD*%
X173329600Y-128019632D03*
%TD*%
D24*
%TO.P,R19,1*%
%TO.N,/OSC1_ext*%
X178953446Y-146664554D03*
%TO.P,R19,2*%
%TO.N,/OSC1_ext_*%
X180953446Y-146664554D03*
%TD*%
D15*
%TO.P,R13,1*%
%TO.N,Net-(L3-Pad2)*%
X155295000Y-144145000D03*
%TO.P,R13,2*%
%TO.N,/CH1-*%
X158395000Y-144145000D03*
%TD*%
D26*
%TO.P,R14,1*%
%TO.N,Net-(FB1-Pad1)*%
X167006533Y-128573466D03*
%TO.P,R14,2*%
%TO.N,/3V3A*%
X167006533Y-130573466D03*
%TD*%
D25*
%TO.P,TP24,1,1*%
%TO.N,unconnected-(TP24-Pad1)*%
X179950000Y-150300000D03*
%TD*%
D22*
%TO.P,C8,1*%
%TO.N,GNDA*%
X159512000Y-137795000D03*
%TO.P,C8,2*%
%TO.N,Net-(U1-REFIN+{slash}OUT)*%
X159512000Y-140920000D03*
%TD*%
D13*
%TO.P,TP1,1,1*%
%TO.N,/5V_ext*%
X167259000Y-114300000D03*
%TD*%
D27*
%TO.P,R10,1*%
%TO.N,GNDA*%
X158395000Y-128905000D03*
%TO.P,R10,2*%
%TO.N,/CH0+*%
X155295000Y-128905000D03*
%TD*%
D13*
%TO.P,TP4,1,1*%
%TO.N,/LM317_Vin*%
X149225000Y-117850000D03*
%TD*%
D15*
%TO.P,R11,1*%
%TO.N,/voltage_pos*%
X149300000Y-128905000D03*
%TO.P,R11,2*%
%TO.N,/CH0-*%
X152400000Y-128905000D03*
%TD*%
D13*
%TO.P,TP21,1,1*%
%TO.N,/OSC1_ext_*%
X183210200Y-146634200D03*
%TD*%
%TO.P,TP16,1,1*%
%TO.N,/SDO_*%
X183184800Y-133934200D03*
%TD*%
D15*
%TO.P,R3,1*%
%TO.N,Net-(R2-Pad2)*%
X141764000Y-137900000D03*
%TO.P,R3,2*%
%TO.N,Net-(R3-Pad2)*%
X144864000Y-137900000D03*
%TD*%
D24*
%TO.P,R16,1*%
%TO.N,/~{DR}*%
X178927446Y-144124554D03*
%TO.P,R16,2*%
%TO.N,/~{DR}_*%
X180927446Y-144124554D03*
%TD*%
D15*
%TO.P,R2,1*%
%TO.N,Net-(L1-Pad2)*%
X141638000Y-140800000D03*
%TO.P,R2,2*%
%TO.N,Net-(R2-Pad2)*%
X144738000Y-140800000D03*
%TD*%
D13*
%TO.P,TP14,1,1*%
%TO.N,GNDD*%
X176403000Y-148894800D03*
%TD*%
%TO.P,TP15,1,1*%
%TO.N,/~{RESET}_*%
X183184800Y-131394200D03*
%TD*%
%TO.P,TP17,1,1*%
%TO.N,/SDI_*%
X183184800Y-136499600D03*
%TD*%
%TO.P,TP12,1,1*%
%TO.N,GNDD*%
X172186600Y-142087600D03*
%TD*%
D24*
%TO.P,R22,1*%
%TO.N,/~{CS}*%
X178927446Y-141584554D03*
%TO.P,R22,2*%
%TO.N,/~{CS}_*%
X180927446Y-141584554D03*
%TD*%
D13*
%TO.P,TP5,1,1*%
%TO.N,/x_cap_out*%
X140462000Y-125222000D03*
%TD*%
D24*
%TO.P,R21,1*%
%TO.N,/SDO*%
X178902046Y-133939154D03*
%TO.P,R21,2*%
%TO.N,/SDO_*%
X180902046Y-133939154D03*
%TD*%
D13*
%TO.P,TP9,1,1*%
%TO.N,GNDA*%
X161275000Y-136525000D03*
%TD*%
D24*
%TO.P,R18,1*%
%TO.N,/SCK*%
X178927446Y-139044554D03*
%TO.P,R18,2*%
%TO.N,/SCK_*%
X180927446Y-139044554D03*
%TD*%
D27*
%TO.P,R1,1*%
%TO.N,/OSC1*%
X170078400Y-148298500D03*
%TO.P,R1,2*%
%TO.N,/OSC2*%
X166978400Y-148298500D03*
%TD*%
D13*
%TO.P,TP10,1,1*%
%TO.N,GNDA*%
X161290000Y-144424400D03*
%TD*%
%TO.P,TP6,1,1*%
%TO.N,+3.3V*%
X166725000Y-121925000D03*
%TD*%
D28*
%TO.P,U1,1,\u002ARESET*%
%TO.N,/~{RESET}*%
X164947599Y-133599999D03*
%TO.P,U1,2,DVDD*%
%TO.N,/3V3D*%
X164947599Y-134250000D03*
%TO.P,U1,3,AVDD*%
%TO.N,/3V3A*%
X164947599Y-134899998D03*
%TO.P,U1,4,CH0+*%
%TO.N,/CH0+*%
X164947599Y-135550000D03*
%TO.P,U1,5,CH0-*%
%TO.N,/CH0-*%
X164947599Y-136199998D03*
%TO.P,U1,6,CH1-*%
%TO.N,/CH1+*%
X164947599Y-136849997D03*
%TO.P,U1,7,CH1+*%
%TO.N,/CH1-*%
X164947599Y-137499998D03*
%TO.P,U1,8,AGND*%
%TO.N,GNDA*%
X164947599Y-138149997D03*
%TO.P,U1,9,REFIN+/OUT*%
%TO.N,Net-(U1-REFIN+{slash}OUT)*%
X164947599Y-138799998D03*
%TO.P,U1,10,REFIN-*%
%TO.N,GNDA*%
X164947599Y-139449997D03*
%TO.P,U1,11,DGND*%
%TO.N,GNDD*%
X172211999Y-139449999D03*
%TO.P,U1,12,MDAT1*%
%TO.N,unconnected-(U1-MDAT1-Pad12)*%
X172211999Y-138800001D03*
%TO.P,U1,13,MDAT0*%
%TO.N,unconnected-(U1-MDAT0-Pad13)*%
X172211999Y-138150000D03*
%TO.P,U1,14,\u002ADR*%
%TO.N,/~{DR}*%
X172211999Y-137500001D03*
%TO.P,U1,15,OSC1/CLKI*%
%TO.N,Net-(JP1-C)*%
X172211999Y-136850000D03*
%TO.P,U1,16,OSC2*%
%TO.N,/OSC2*%
X172211999Y-136200001D03*
%TO.P,U1,17,\u002ACS*%
%TO.N,/~{CS}*%
X172211999Y-135550000D03*
%TO.P,U1,18,SCK*%
%TO.N,/SCK*%
X172211999Y-134900001D03*
%TO.P,U1,19,SDO*%
%TO.N,/SDI*%
X172211999Y-134250000D03*
%TO.P,U1,20,SDI*%
%TO.N,/SDO*%
X172211999Y-133600001D03*
%TD*%
D13*
%TO.P,TP2,1,1*%
%TO.N,/GND_ext*%
X167259000Y-116713000D03*
%TD*%
%TO.P,TP8,1,1*%
%TO.N,GNDA*%
X153797000Y-136525000D03*
%TD*%
D15*
%TO.P,R9,1*%
%TO.N,/voltage_pos*%
X158850400Y-124670800D03*
%TO.P,R9,2*%
%TO.N,GNDA*%
X161950400Y-124670800D03*
%TD*%
D19*
%TO.P,C5,1*%
%TO.N,/CH1+*%
X151765000Y-140920000D03*
%TO.P,C5,2*%
%TO.N,GNDA*%
X151765000Y-137795000D03*
%TD*%
D13*
%TO.P,TP3,1,1*%
%TO.N,GNDD*%
X184785000Y-123698000D03*
%TD*%
D22*
%TO.P,C3,1*%
%TO.N,/CH0-*%
X151765000Y-132130000D03*
%TO.P,C3,2*%
%TO.N,GNDA*%
X151765000Y-135255000D03*
%TD*%
D20*
%TO.P,C1,1*%
%TO.N,/OSC1*%
X173176400Y-148452500D03*
%TO.P,C1,2*%
%TO.N,GNDD*%
X173176400Y-150527500D03*
%TD*%
D29*
%TO.P,R8,1*%
%TO.N,Net-(R5-Pad2)*%
X146972000Y-121324600D03*
%TO.P,R8,2*%
%TO.N,/voltage_pos*%
X156972000Y-123824600D03*
%TO.P,R8,3*%
%TO.N,N/C*%
X146972000Y-126324600D03*
%TD*%
D30*
%TO.P,J1,1,Pin_1*%
%TO.N,/current_neg*%
X125475999Y-143763999D03*
D31*
%TO.P,J1,2,Pin_2*%
%TO.N,HIGH_in*%
X125475999Y-138763999D03*
%TO.P,J1,3,Pin_3*%
X125475999Y-133763999D03*
%TO.P,J1,4,Pin_4*%
%TO.N,/current_pos*%
X125475999Y-128763999D03*
%TD*%
D32*
%TO.P,PS1,1,+Vin*%
%TO.N,/5V_ext*%
X163956999Y-114299999D03*
D33*
%TO.P,PS1,2,-Vin*%
%TO.N,/GND_ext*%
X161417000Y-114300000D03*
%TO.P,PS1,4,-Vout*%
%TO.N,unconnected-(PS1--Vout-Pad4)*%
X156337000Y-114300000D03*
%TO.P,PS1,5,0V*%
%TO.N,GNDD*%
X153797000Y-114300000D03*
%TO.P,PS1,6,+Vout*%
%TO.N,/LM317_Vin*%
X151257000Y-114300000D03*
%TD*%
D34*
%TO.P,C13,1*%
%TO.N,/LM317_Vin*%
X154732322Y-149449999D03*
D35*
%TO.P,C13,2*%
%TO.N,GNDD*%
X159732323Y-149450000D03*
%TD*%
D11*
%TO.P,JP1,1,A*%
%TO.N,/OSC1_ext*%
X171094399Y-145237199D03*
D12*
%TO.P,JP1,2,C*%
%TO.N,Net-(JP1-C)*%
X168554399Y-145237199D03*
%TO.P,JP1,3,B*%
%TO.N,/OSC1*%
X166014399Y-145237199D03*
%TD*%
D36*
%TO.P,C10,1*%
%TO.N,Net-(C10-Pad1)*%
X120904000Y-118237000D03*
%TO.P,C10,2*%
%TO.N,/x_cap_out*%
X143404000Y-118237000D03*
%TD*%
D13*
%TO.P,Y1,1,1*%
%TO.N,/OSC1*%
X170996000Y-150025700D03*
%TO.P,Y1,2,2*%
%TO.N,/OSC2*%
X166116000Y-150025700D03*
%TD*%
D37*
%TO.N,/CH0-*%
X164947600Y-136199999D02*
X163123999Y-136199999D01*
D38*
X152400000Y-128905000D02*
X152400000Y-130302000D01*
X151765000Y-130937000D02*
X151765000Y-132130000D01*
X152400000Y-130302000D02*
X151765000Y-130937000D01*
D37*
X152400000Y-133604000D02*
X151765000Y-132969000D01*
X160528000Y-133604000D02*
X152400000Y-133604000D01*
X163123999Y-136199999D02*
X160528000Y-133604000D01*
X151765000Y-132969000D02*
X151765000Y-132130000D01*
D38*
%TO.N,GNDA*%
X158369600Y-128879600D02*
X158395000Y-128905000D01*
X161950400Y-125730000D02*
X161950400Y-124670800D01*
D37*
X164947600Y-139449998D02*
X166112002Y-139449998D01*
D38*
X150876000Y-127762000D02*
X151587200Y-127050800D01*
X158369600Y-126466000D02*
X161214400Y-126466000D01*
D37*
X164947600Y-139449998D02*
X164947600Y-140360400D01*
D38*
X150876000Y-130048000D02*
X150876000Y-127762000D01*
D37*
X165201600Y-140614400D02*
X165189300Y-140626700D01*
D38*
X159512000Y-137795000D02*
X160274000Y-137795000D01*
X155575000Y-137795000D02*
X154305000Y-136525000D01*
D37*
X166112002Y-139449998D02*
X166370000Y-139192000D01*
X166370000Y-139192000D02*
X166370000Y-138430000D01*
D38*
X150114000Y-134874000D02*
X150114000Y-130810000D01*
X155752800Y-135255000D02*
X155575000Y-135255000D01*
D37*
X165189300Y-140626700D02*
X165189300Y-142087600D01*
D38*
X157784800Y-127050800D02*
X158395000Y-127661000D01*
X161785702Y-128028298D02*
X163830000Y-128028298D01*
X158369600Y-126466000D02*
X157784800Y-127050800D01*
X150495000Y-135255000D02*
X150114000Y-134874000D01*
D37*
X164947600Y-140360400D02*
X165201600Y-140614400D01*
X166370000Y-138430000D02*
X166089998Y-138149998D01*
D38*
X151765000Y-135255000D02*
X150495000Y-135255000D01*
X161214400Y-126466000D02*
X161950400Y-125730000D01*
D37*
X166089998Y-138149998D02*
X164947600Y-138149998D01*
D38*
X158395000Y-128905000D02*
X160909000Y-128905000D01*
X160274000Y-137795000D02*
X161544000Y-136525000D01*
X151765000Y-135255000D02*
X153035000Y-136525000D01*
X160909000Y-128905000D02*
X161785702Y-128028298D01*
X155752800Y-137795000D02*
X155575000Y-137795000D01*
X155752800Y-137795000D02*
X159512000Y-137795000D01*
X151765000Y-137795000D02*
X153035000Y-136525000D01*
X150114000Y-130810000D02*
X150876000Y-130048000D01*
X151587200Y-127050800D02*
X157784800Y-127050800D01*
X154305000Y-136525000D02*
X153797000Y-136525000D01*
D39*
X164947600Y-141845900D02*
X165189300Y-142087600D01*
D38*
X153797000Y-136525000D02*
X153035000Y-136525000D01*
X158395000Y-127661000D02*
X158395000Y-128905000D01*
X155575000Y-135255000D02*
X154305000Y-136525000D01*
%TO.N,/CH0+*%
X155295000Y-130149000D02*
X155752800Y-130606800D01*
D37*
X160070000Y-132130000D02*
X155752800Y-132130000D01*
X163490001Y-135550001D02*
X160070000Y-132130000D01*
X164947600Y-135550001D02*
X163490001Y-135550001D01*
D38*
X155752800Y-130606800D02*
X155752800Y-132130000D01*
X155295000Y-128905000D02*
X155295000Y-130149000D01*
D37*
%TO.N,/CH1+*%
X152492000Y-139100000D02*
X151765000Y-139827000D01*
X164947600Y-136849998D02*
X163124002Y-136849998D01*
X163124002Y-136849998D02*
X160874000Y-139100000D01*
X160874000Y-139100000D02*
X152492000Y-139100000D01*
D38*
X152400000Y-142748000D02*
X151765000Y-142113000D01*
D37*
X151765000Y-139827000D02*
X151765000Y-140920000D01*
D38*
X152400000Y-144145000D02*
X152400000Y-142748000D01*
X151765000Y-142113000D02*
X151765000Y-140920000D01*
%TO.N,/CH1-*%
X158395000Y-143155000D02*
X157734000Y-142494000D01*
D37*
X155752800Y-140157200D02*
X155752800Y-140920000D01*
X156210000Y-139700000D02*
X155752800Y-140157200D01*
X163490001Y-137499999D02*
X161290000Y-139700000D01*
X164947600Y-137499999D02*
X163490001Y-137499999D01*
D38*
X155752800Y-142036800D02*
X155752800Y-140920000D01*
X156210000Y-142494000D02*
X155752800Y-142036800D01*
X157734000Y-142494000D02*
X156210000Y-142494000D01*
D37*
X161290000Y-139700000D02*
X156210000Y-139700000D01*
D38*
X158395000Y-144145000D02*
X158395000Y-143155000D01*
D37*
%TO.N,Net-(U1-REFIN+{slash}OUT)*%
X161848800Y-141682800D02*
X161086000Y-140920000D01*
X164947600Y-138799999D02*
X163206001Y-138799999D01*
X161086000Y-140920000D02*
X159512000Y-140920000D01*
X163206001Y-138799999D02*
X161086000Y-140920000D01*
%TO.N,/OSC1*%
X170078400Y-148298500D02*
X169190700Y-148298500D01*
X166383400Y-145491200D02*
X166014400Y-145491200D01*
X169190700Y-148298500D02*
X166383400Y-145491200D01*
X170090700Y-148286200D02*
X170078400Y-148298500D01*
X170996000Y-150025700D02*
X170997650Y-150025700D01*
X170948050Y-148310600D02*
X170123150Y-148310600D01*
X171493550Y-148856100D02*
X170948050Y-148310600D01*
X171874350Y-148475300D02*
X173217550Y-148475300D01*
X171493550Y-148856100D02*
X171874350Y-148475300D01*
X171493550Y-149529800D02*
X171493550Y-148856100D01*
X170997650Y-150025700D02*
X171493550Y-149529800D01*
D38*
%TO.N,GNDD*%
X172110400Y-142087600D02*
X170256400Y-142087600D01*
X183388000Y-126111000D02*
X184861200Y-124637800D01*
D40*
X151625000Y-117850000D02*
X151625000Y-116472000D01*
D37*
X164090000Y-152080000D02*
X163880000Y-151870000D01*
X170633200Y-139450000D02*
X170231000Y-139852200D01*
X173010000Y-152080000D02*
X164090000Y-152080000D01*
D38*
X184861200Y-124637800D02*
X184861200Y-123647200D01*
D37*
X173176400Y-151913600D02*
X173010000Y-152080000D01*
X163880000Y-151870000D02*
X163880000Y-150527500D01*
D38*
X184861200Y-123647200D02*
X180327700Y-123647200D01*
D40*
X151625000Y-116472000D02*
X153797000Y-114300000D01*
D37*
X172212000Y-141986000D02*
X172110400Y-142087600D01*
X172212000Y-139450000D02*
X172212000Y-141986000D01*
X173176400Y-150527500D02*
X173176400Y-151913600D01*
X172212000Y-139450000D02*
X170633200Y-139450000D01*
D38*
X175514000Y-126111000D02*
X183388000Y-126111000D01*
D37*
X170231000Y-139852200D02*
X170231000Y-142113000D01*
D38*
X170256400Y-142087600D02*
X170231000Y-142113000D01*
D37*
%TO.N,/OSC2*%
X168402000Y-137668000D02*
X169869998Y-136200002D01*
X165608000Y-148844000D02*
X165227200Y-148463200D01*
X169869998Y-136200002D02*
X172212000Y-136200002D01*
X163884000Y-148463200D02*
X163884000Y-144218000D01*
X165608000Y-149517700D02*
X165608000Y-148844000D01*
X166153500Y-148298500D02*
X166978400Y-148298500D01*
X164541200Y-143560800D02*
X167843200Y-143560800D01*
X166116000Y-150025700D02*
X165608000Y-149517700D01*
X163884000Y-144218000D02*
X164541200Y-143560800D01*
X165227200Y-148463200D02*
X163884000Y-148463200D01*
X165608000Y-148844000D02*
X166153500Y-148298500D01*
X168402000Y-143002000D02*
X168402000Y-137668000D01*
X167843200Y-143560800D02*
X168402000Y-143002000D01*
%TO.N,/3V3A*%
X162102800Y-131826000D02*
X162775500Y-131153300D01*
X165736534Y-130573466D02*
X167006533Y-130573466D01*
X165156702Y-131153298D02*
X165736534Y-130573466D01*
X163830000Y-131153298D02*
X165156702Y-131153298D01*
X164947600Y-134899999D02*
X163756198Y-134899999D01*
X163756198Y-134899999D02*
X162102800Y-133246601D01*
X162102800Y-133246601D02*
X162102800Y-131826000D01*
X163829998Y-131153300D02*
X163830000Y-131153298D01*
X162775500Y-131153300D02*
X163829998Y-131153300D01*
%TO.N,/3V3D*%
X169621200Y-132588000D02*
X170153066Y-132056134D01*
X164947600Y-134250001D02*
X163954728Y-134250001D01*
X170153066Y-132056134D02*
X170153066Y-130564800D01*
X163677600Y-132588000D02*
X169621200Y-132588000D01*
D38*
X171465200Y-130564800D02*
X170153066Y-130564800D01*
X172140800Y-123647200D02*
X171704000Y-124084000D01*
X173329600Y-131144632D02*
X172045032Y-131144632D01*
D37*
X163271200Y-133566473D02*
X163271200Y-132994400D01*
D38*
X171704000Y-124084000D02*
X169545000Y-121925000D01*
D37*
X163954728Y-134250001D02*
X163271200Y-133566473D01*
D38*
X171704000Y-124084000D02*
X171704000Y-130326000D01*
X172045032Y-131144632D02*
X171465200Y-130564800D01*
X177202700Y-123647200D02*
X172140800Y-123647200D01*
D37*
X163271200Y-132994400D02*
X163677600Y-132588000D01*
D38*
X171704000Y-130326000D02*
X171465200Y-130564800D01*
D41*
%TO.N,Net-(C10-Pad1)*%
X131699000Y-121615000D02*
X131699000Y-120015000D01*
X131699000Y-120015000D02*
X129921000Y-118237000D01*
X129921000Y-118237000D02*
X120904000Y-118237000D01*
%TO.N,/x_cap_out*%
X140462000Y-125222000D02*
X140462000Y-119684800D01*
X141909800Y-118237000D02*
X140462000Y-119684800D01*
X141909800Y-118237000D02*
X143404000Y-118237000D01*
X143838000Y-118237000D02*
X141909800Y-118237000D01*
%TO.N,/LM317_Vin*%
X148950000Y-149450000D02*
X154732323Y-149450000D01*
D40*
X149225000Y-116332000D02*
X151257000Y-114300000D01*
X149225000Y-117850000D02*
X149225000Y-116332000D01*
D37*
%TO.N,Net-(FB1-Pad1)*%
X167006533Y-128573466D02*
X167006533Y-127143467D01*
X167006533Y-127143467D02*
X167087500Y-127062500D01*
X167087500Y-127062500D02*
X167087500Y-124525000D01*
%TO.N,+3.3V*%
X168575000Y-124600000D02*
X169325000Y-125350000D01*
X170062500Y-126912500D02*
X170062500Y-124525000D01*
X168200000Y-123275000D02*
X168575000Y-123650000D01*
X167250000Y-123275000D02*
X168200000Y-123275000D01*
X170153066Y-127003066D02*
X170062500Y-126912500D01*
X166725000Y-122750000D02*
X167250000Y-123275000D01*
X168575000Y-123650000D02*
X168575000Y-124600000D01*
X170153066Y-128564800D02*
X170153066Y-127003066D01*
X166725000Y-121925000D02*
X166725000Y-122750000D01*
X169325000Y-125350000D02*
X170062500Y-125350000D01*
D41*
%TO.N,HIGH_in*%
X132715000Y-126873000D02*
X133807000Y-126873000D01*
X121920000Y-136271000D02*
X125476000Y-136271000D01*
X122631000Y-124765000D02*
X120523000Y-126873000D01*
D42*
X125476000Y-133764000D02*
X125476000Y-138764000D01*
D41*
X131699000Y-125857000D02*
X132715000Y-126873000D01*
X120523000Y-126873000D02*
X120523000Y-134874000D01*
X131699000Y-124765000D02*
X122631000Y-124765000D01*
X120523000Y-134874000D02*
X121920000Y-136271000D01*
X131699000Y-124765000D02*
X131699000Y-125857000D01*
D37*
%TO.N,/~{RESET}_*%
X183159400Y-131394200D02*
X183184800Y-131368800D01*
X181416108Y-131394200D02*
X183159400Y-131394200D01*
%TO.N,/SDO_*%
X181452046Y-133939154D02*
X183113554Y-133939154D01*
%TO.N,/SDI_*%
X181477446Y-136504554D02*
X183129046Y-136504554D01*
%TO.N,/SCK_*%
X181477446Y-139044554D02*
X183129046Y-139044554D01*
%TO.N,/~{CS}_*%
X183179846Y-141584554D02*
X183184800Y-141579600D01*
X181477446Y-141584554D02*
X183179846Y-141584554D01*
%TO.N,/~{DR}_*%
X183179846Y-144124554D02*
X183184800Y-144119600D01*
X181477446Y-144124554D02*
X183179846Y-144124554D01*
%TO.N,/OSC1_ext_*%
X183179846Y-146664554D02*
X183184800Y-146659600D01*
X181503446Y-146664554D02*
X183179846Y-146664554D01*
D38*
%TO.N,/5V_ext*%
X167259000Y-114300000D02*
X163957000Y-114300000D01*
D37*
%TO.N,/OSC1_ext*%
X171094400Y-145237200D02*
X175158400Y-145237200D01*
X175158400Y-145237200D02*
X176585754Y-146664554D01*
X176585754Y-146664554D02*
X178403446Y-146664554D01*
X170484800Y-144881600D02*
X171754400Y-144881600D01*
%TO.N,Net-(JP1-C)*%
X169002000Y-137957000D02*
X169164000Y-137795000D01*
X168554400Y-143698128D02*
X169002000Y-143250528D01*
X170134399Y-136850001D02*
X172212000Y-136850001D01*
X169164000Y-137795000D02*
X170134399Y-136850001D01*
X169002000Y-143250528D02*
X169002000Y-137957000D01*
X168554400Y-145237200D02*
X168554400Y-143698128D01*
D42*
%TO.N,/current_pos*%
X125476000Y-128764000D02*
X128414000Y-128764000D01*
D40*
X134900000Y-144325000D02*
X137325000Y-144325000D01*
D42*
X132825000Y-142050000D02*
X132825000Y-142190000D01*
X128414000Y-128764000D02*
X132825000Y-133175000D01*
X132825000Y-142250000D02*
X134900000Y-144325000D01*
D40*
X139177000Y-146177000D02*
X140475000Y-146177000D01*
D42*
X132825000Y-133175000D02*
X132825000Y-142050000D01*
X132825000Y-142190000D02*
X130690000Y-144325000D01*
X132825000Y-142050000D02*
X132825000Y-142250000D01*
D40*
X137325000Y-144325000D02*
X139177000Y-146177000D01*
%TO.N,Net-(L1-Pad2)*%
X141638000Y-140800000D02*
X139192000Y-138354000D01*
X137795000Y-126873000D02*
X136957000Y-126873000D01*
X138303000Y-127381000D02*
X137795000Y-126873000D01*
X138303000Y-132715000D02*
X138303000Y-127381000D01*
X139192000Y-133604000D02*
X138303000Y-132715000D01*
X139192000Y-138354000D02*
X139192000Y-133604000D01*
%TO.N,/current_neg*%
X137600000Y-150250000D02*
X139133000Y-148717000D01*
X134900000Y-150250000D02*
X137600000Y-150250000D01*
D42*
X134900000Y-150250000D02*
X130690000Y-150250000D01*
X125476000Y-148426000D02*
X125476000Y-143764000D01*
D40*
X139133000Y-148717000D02*
X140475000Y-148717000D01*
D42*
X130690000Y-150250000D02*
X127300000Y-150250000D01*
X127300000Y-150250000D02*
X125476000Y-148426000D01*
D40*
%TO.N,Net-(L2-Pad2)*%
X146050000Y-146177000D02*
X148082000Y-144145000D01*
X143625000Y-146177000D02*
X146050000Y-146177000D01*
X148082000Y-144145000D02*
X149300000Y-144145000D01*
%TO.N,Net-(L3-Pad2)*%
X155321000Y-144171000D02*
X155295000Y-144145000D01*
X143625000Y-148717000D02*
X146177000Y-148717000D01*
X155321000Y-145288000D02*
X155321000Y-144171000D01*
X154178000Y-146431000D02*
X155321000Y-145288000D01*
X146177000Y-148717000D02*
X148463000Y-146431000D01*
X148463000Y-146431000D02*
X154178000Y-146431000D01*
D41*
%TO.N,/voltage_pos*%
X149300000Y-125297000D02*
X149222000Y-125219000D01*
D38*
X157818200Y-124670800D02*
X156972000Y-123824600D01*
D41*
X149300000Y-128905000D02*
X149300000Y-125297000D01*
X156971600Y-123825000D02*
X156972000Y-123824600D01*
X155829000Y-123792513D02*
X155829000Y-123825000D01*
X153111087Y-121074600D02*
X155829000Y-123792513D01*
X155829000Y-123825000D02*
X156971600Y-123825000D01*
X149222000Y-122685000D02*
X150832400Y-121074600D01*
D38*
X158850400Y-124670800D02*
X157818200Y-124670800D01*
D41*
X149222000Y-125219000D02*
X149222000Y-122685000D01*
X150832400Y-121074600D02*
X153111087Y-121074600D01*
D37*
%TO.N,/SCK*%
X178377446Y-139044554D02*
X176890554Y-139044554D01*
X176890554Y-139044554D02*
X176784000Y-138938000D01*
X176784000Y-137637856D02*
X176784000Y-138938000D01*
X174046146Y-134900002D02*
X176784000Y-137637856D01*
X172212000Y-134900002D02*
X174046146Y-134900002D01*
%TO.N,/~{DR}*%
X175584000Y-143021200D02*
X176687354Y-144124554D01*
X173872802Y-137500002D02*
X175584000Y-139211200D01*
X175584000Y-139211200D02*
X175584000Y-143021200D01*
X176687354Y-144124554D02*
X178377446Y-144124554D01*
X172212000Y-137500002D02*
X173872802Y-137500002D01*
%TO.N,/SDO*%
X178352046Y-133939154D02*
X174782354Y-133939154D01*
X174782354Y-133939154D02*
X174443202Y-133600002D01*
X172212000Y-133600002D02*
X174443202Y-133600002D01*
%TO.N,/SDI*%
X172212000Y-134250001D02*
X174244673Y-134250001D01*
X176499226Y-136504554D02*
X178377446Y-136504554D01*
X174244673Y-134250001D02*
X176499226Y-136504554D01*
%TO.N,/~{CS}*%
X176738154Y-141584554D02*
X178377446Y-141584554D01*
X176184000Y-141030400D02*
X176738154Y-141584554D01*
X176184000Y-137886384D02*
X176184000Y-141030400D01*
X173847617Y-135550001D02*
X176184000Y-137886384D01*
X172212000Y-135550001D02*
X173847617Y-135550001D01*
%TO.N,/~{RESET}*%
X164947600Y-133600000D02*
X169980800Y-133600000D01*
X174447200Y-132486400D02*
X175539400Y-131394200D01*
X175539400Y-131394200D02*
X178316108Y-131394200D01*
X171094400Y-132486400D02*
X174447200Y-132486400D01*
X169980800Y-133600000D02*
X171094400Y-132486400D01*
D38*
%TO.N,/GND_ext*%
X167259000Y-116713000D02*
X162560000Y-116713000D01*
X162560000Y-116713000D02*
X161417000Y-115570000D01*
X161417000Y-115570000D02*
X161417000Y-114300000D01*
D40*
%TO.N,Net-(R2-Pad2)*%
X144664000Y-140800000D02*
X141764000Y-137900000D01*
X144738000Y-140800000D02*
X144664000Y-140800000D01*
%TO.N,Net-(R3-Pad2)*%
X144622000Y-137900000D02*
X141722000Y-135000000D01*
X144864000Y-137900000D02*
X144622000Y-137900000D01*
%TO.N,Net-(R4-Pad2)*%
X144580000Y-135000000D02*
X141680000Y-132100000D01*
X144822000Y-135000000D02*
X144580000Y-135000000D01*
%TO.N,Net-(R5-Pad2)*%
X143205200Y-128371600D02*
X143205200Y-124300200D01*
X144780000Y-132100000D02*
X144780000Y-129946400D01*
X144780000Y-129946400D02*
X143205200Y-128371600D01*
X143205200Y-124300200D02*
X146180800Y-121324600D01*
%TD*%
%TA.AperFunction,Conductor*%
%TO.N,GNDD*%
G36*
X188738000Y-120920613D02*
G01*
X188783387Y-120966000D01*
X188800000Y-121028000D01*
X188800000Y-151748638D01*
X188790561Y-151796091D01*
X188763681Y-151836319D01*
X188036378Y-152563621D01*
X187996083Y-152590528D01*
X187948554Y-152599940D01*
X148332857Y-152554143D01*
X148270917Y-152537482D01*
X148225589Y-152492102D01*
X148209000Y-152430143D01*
X148209000Y-150678882D01*
X148224286Y-150619239D01*
X148266375Y-150574301D01*
X148324890Y-150555147D01*
X148385405Y-150566500D01*
X148435288Y-150589761D01*
X148520670Y-150629575D01*
X148678522Y-150671871D01*
X148726790Y-150684805D01*
X148726791Y-150684805D01*
X148732023Y-150686207D01*
X148950000Y-150705277D01*
X149167977Y-150686207D01*
X149379330Y-150629575D01*
X149577639Y-150537102D01*
X149669292Y-150472925D01*
X149703129Y-150456239D01*
X149740417Y-150450500D01*
X153115831Y-150450500D01*
X153169347Y-150462643D01*
X153212382Y-150496693D01*
X153236507Y-150545982D01*
X153237403Y-150549776D01*
X153238232Y-150557483D01*
X153240939Y-150564743D01*
X153240941Y-150564748D01*
X153265643Y-150630975D01*
X153288527Y-150692331D01*
X153293841Y-150699430D01*
X153293842Y-150699431D01*
X153352284Y-150777500D01*
X153374777Y-150807546D01*
X153489992Y-150893796D01*
X153624840Y-150944091D01*
X153684450Y-150950500D01*
X155780195Y-150950499D01*
X155839806Y-150944091D01*
X155974654Y-150893796D01*
X156089869Y-150807546D01*
X156176119Y-150692331D01*
X156183236Y-150673248D01*
X158868072Y-150673248D01*
X158876178Y-150684439D01*
X158905040Y-150706903D01*
X158913602Y-150712496D01*
X159123208Y-150825929D01*
X159132562Y-150830032D01*
X159357979Y-150907417D01*
X159367891Y-150909928D01*
X159602966Y-150949155D01*
X159613162Y-150950000D01*
X159851484Y-150950000D01*
X159861679Y-150949155D01*
X160085362Y-150911829D01*
X162655001Y-150911829D01*
X162655321Y-150918111D01*
X162664805Y-151010959D01*
X162667623Y-151024122D01*
X162718370Y-151177267D01*
X162724432Y-151190266D01*
X162808890Y-151327194D01*
X162817794Y-151338455D01*
X162931544Y-151452205D01*
X162942805Y-151461109D01*
X163079733Y-151545567D01*
X163092732Y-151551629D01*
X163245874Y-151602375D01*
X163259041Y-151605194D01*
X163351890Y-151614680D01*
X163358168Y-151615000D01*
X163613674Y-151615000D01*
X163626549Y-151611549D01*
X163630000Y-151598674D01*
X163630000Y-150793826D01*
X163626549Y-150780950D01*
X163613674Y-150777500D01*
X162671327Y-150777500D01*
X162658451Y-150780950D01*
X162655001Y-150793826D01*
X162655001Y-150911829D01*
X160085362Y-150911829D01*
X160096754Y-150909928D01*
X160106666Y-150907417D01*
X160332083Y-150830032D01*
X160341437Y-150825929D01*
X160551046Y-150712495D01*
X160559604Y-150706903D01*
X160588469Y-150684437D01*
X160596573Y-150673250D01*
X160589912Y-150661142D01*
X159743865Y-149815095D01*
X159732323Y-149808431D01*
X159720780Y-149815095D01*
X158874731Y-150661143D01*
X158868072Y-150673248D01*
X156183236Y-150673248D01*
X156226414Y-150557483D01*
X156232823Y-150497873D01*
X156232823Y-149455117D01*
X158227606Y-149455117D01*
X158247285Y-149692618D01*
X158248969Y-149702712D01*
X158307476Y-149933747D01*
X158310795Y-149943414D01*
X158406531Y-150161673D01*
X158411393Y-150170656D01*
X158501322Y-150308304D01*
X158509286Y-150316024D01*
X158518668Y-150310100D01*
X159367227Y-149461542D01*
X159373891Y-149450000D01*
X160090754Y-149450000D01*
X160097418Y-149461542D01*
X160945976Y-150310100D01*
X160955357Y-150316024D01*
X160963325Y-150308299D01*
X161053247Y-150170664D01*
X161058115Y-150161669D01*
X161153850Y-149943414D01*
X161157169Y-149933747D01*
X161215676Y-149702712D01*
X161217360Y-149692618D01*
X161237040Y-149455117D01*
X161237040Y-149444883D01*
X161217360Y-149207381D01*
X161215676Y-149197287D01*
X161157169Y-148966252D01*
X161153850Y-148956585D01*
X161058115Y-148738330D01*
X161053247Y-148729335D01*
X160963325Y-148591699D01*
X160955357Y-148583974D01*
X160945976Y-148589898D01*
X160097418Y-149438457D01*
X160090754Y-149450000D01*
X159373891Y-149450000D01*
X159367227Y-149438457D01*
X158518668Y-148589898D01*
X158509287Y-148583974D01*
X158501320Y-148591699D01*
X158411395Y-148729338D01*
X158406530Y-148738328D01*
X158310795Y-148956585D01*
X158307476Y-148966252D01*
X158248969Y-149197287D01*
X158247285Y-149207381D01*
X158227606Y-149444883D01*
X158227606Y-149455117D01*
X156232823Y-149455117D01*
X156232822Y-148402128D01*
X156226414Y-148342517D01*
X156183235Y-148226749D01*
X158868071Y-148226749D01*
X158874731Y-148238855D01*
X159720780Y-149084904D01*
X159732323Y-149091568D01*
X159743865Y-149084904D01*
X160589913Y-148238855D01*
X160596573Y-148226749D01*
X160588466Y-148215559D01*
X160559609Y-148193099D01*
X160551042Y-148187503D01*
X160341437Y-148074070D01*
X160332083Y-148069967D01*
X160106666Y-147992582D01*
X160096754Y-147990071D01*
X159861679Y-147950844D01*
X159851484Y-147950000D01*
X159613162Y-147950000D01*
X159602966Y-147950844D01*
X159367891Y-147990071D01*
X159357979Y-147992582D01*
X159132562Y-148069967D01*
X159123208Y-148074070D01*
X158913599Y-148187504D01*
X158905040Y-148193096D01*
X158876177Y-148215560D01*
X158868071Y-148226749D01*
X156183235Y-148226749D01*
X156176119Y-148207669D01*
X156089869Y-148092454D01*
X156057388Y-148068139D01*
X155981754Y-148011519D01*
X155981753Y-148011518D01*
X155974654Y-148006204D01*
X155839806Y-147955909D01*
X155832093Y-147955079D01*
X155832090Y-147955079D01*
X155783503Y-147949855D01*
X155783492Y-147949854D01*
X155780196Y-147949500D01*
X155776873Y-147949500D01*
X153687762Y-147949500D01*
X153687743Y-147949500D01*
X153684451Y-147949501D01*
X153681173Y-147949853D01*
X153681161Y-147949854D01*
X153632554Y-147955079D01*
X153632548Y-147955080D01*
X153624840Y-147955909D01*
X153617575Y-147958618D01*
X153617569Y-147958620D01*
X153498303Y-148003104D01*
X153498301Y-148003104D01*
X153489992Y-148006204D01*
X153482895Y-148011516D01*
X153482891Y-148011519D01*
X153381873Y-148087141D01*
X153381869Y-148087144D01*
X153374777Y-148092454D01*
X153369467Y-148099546D01*
X153369464Y-148099550D01*
X153293842Y-148200568D01*
X153293839Y-148200572D01*
X153288527Y-148207669D01*
X153285427Y-148215978D01*
X153285427Y-148215980D01*
X153240942Y-148335248D01*
X153240939Y-148335256D01*
X153238232Y-148342517D01*
X153237402Y-148350231D01*
X153236509Y-148354014D01*
X153212385Y-148403305D01*
X153169349Y-148437357D01*
X153115832Y-148449500D01*
X149740417Y-148449500D01*
X149703129Y-148443761D01*
X149669293Y-148427075D01*
X149582068Y-148365999D01*
X149582066Y-148365997D01*
X149577639Y-148362898D01*
X149572742Y-148360614D01*
X149572736Y-148360611D01*
X149384236Y-148272712D01*
X149384229Y-148272709D01*
X149379330Y-148270425D01*
X149374103Y-148269024D01*
X149374102Y-148269024D01*
X149173209Y-148215194D01*
X149173199Y-148215192D01*
X149167977Y-148213793D01*
X149162585Y-148213321D01*
X149162578Y-148213320D01*
X148955395Y-148195195D01*
X148950000Y-148194723D01*
X148944605Y-148195195D01*
X148737421Y-148213320D01*
X148737412Y-148213321D01*
X148732023Y-148213793D01*
X148726802Y-148215191D01*
X148726790Y-148215194D01*
X148525897Y-148269024D01*
X148525892Y-148269025D01*
X148520670Y-148270425D01*
X148515774Y-148272707D01*
X148515763Y-148272712D01*
X148385405Y-148333500D01*
X148324890Y-148344853D01*
X148266375Y-148325699D01*
X148224286Y-148280761D01*
X148209000Y-148221118D01*
X148209000Y-148009861D01*
X148218439Y-147962408D01*
X148245319Y-147922180D01*
X148799680Y-147367819D01*
X148839908Y-147340939D01*
X148887361Y-147331500D01*
X154097374Y-147331500D01*
X154116772Y-147333027D01*
X154130612Y-147335219D01*
X154198336Y-147331670D01*
X154204826Y-147331500D01*
X154221952Y-147331500D01*
X154225192Y-147331500D01*
X154228413Y-147331161D01*
X154228421Y-147331161D01*
X154245447Y-147329371D01*
X154251906Y-147328862D01*
X154319646Y-147325313D01*
X154333187Y-147321683D01*
X154352316Y-147318138D01*
X154366256Y-147316674D01*
X154430761Y-147295714D01*
X154436962Y-147293877D01*
X154502488Y-147276320D01*
X154514973Y-147269957D01*
X154532956Y-147262508D01*
X154546284Y-147258179D01*
X154605035Y-147224257D01*
X154610710Y-147221177D01*
X154671149Y-147190383D01*
X154682045Y-147181558D01*
X154698083Y-147170537D01*
X154710216Y-147163533D01*
X154760657Y-147118115D01*
X154765533Y-147113951D01*
X154781380Y-147101119D01*
X154795779Y-147086718D01*
X154800470Y-147082266D01*
X154850888Y-147036871D01*
X154859125Y-147025532D01*
X154871761Y-147010736D01*
X155591379Y-146291118D01*
X155631607Y-146264239D01*
X155679060Y-146254800D01*
X163059500Y-146254800D01*
X163121500Y-146271413D01*
X163166887Y-146316800D01*
X163183500Y-146378800D01*
X163183500Y-147308226D01*
X163172877Y-147358442D01*
X163142829Y-147400054D01*
X163098503Y-147425932D01*
X163092523Y-147427913D01*
X163092516Y-147427915D01*
X163085666Y-147430186D01*
X163079522Y-147433975D01*
X163079519Y-147433977D01*
X162942488Y-147518497D01*
X162942480Y-147518503D01*
X162936344Y-147522288D01*
X162931242Y-147527389D01*
X162931238Y-147527393D01*
X162817393Y-147641238D01*
X162817389Y-147641242D01*
X162812288Y-147646344D01*
X162808503Y-147652480D01*
X162808497Y-147652488D01*
X162723986Y-147789505D01*
X162720186Y-147795666D01*
X162717915Y-147802517D01*
X162717914Y-147802521D01*
X162667131Y-147955774D01*
X162665001Y-147962203D01*
X162664313Y-147968933D01*
X162664312Y-147968940D01*
X162654819Y-148061859D01*
X162654818Y-148061877D01*
X162654500Y-148064991D01*
X162654500Y-148068138D01*
X162654500Y-148068139D01*
X162654500Y-148836858D01*
X162654500Y-148836877D01*
X162654501Y-148840008D01*
X162654820Y-148843140D01*
X162654821Y-148843141D01*
X162664312Y-148936061D01*
X162664313Y-148936069D01*
X162665001Y-148942797D01*
X162667129Y-148949219D01*
X162667130Y-148949223D01*
X162712091Y-149084904D01*
X162720186Y-149109334D01*
X162723977Y-149115480D01*
X162808497Y-149252511D01*
X162808500Y-149252515D01*
X162812288Y-149258656D01*
X162936344Y-149382712D01*
X162942488Y-149386502D01*
X162948157Y-149390984D01*
X162947008Y-149392436D01*
X162982832Y-149429853D01*
X162998559Y-149490281D01*
X162982844Y-149550712D01*
X162947266Y-149587886D01*
X162948471Y-149589410D01*
X162931544Y-149602794D01*
X162817794Y-149716544D01*
X162808890Y-149727805D01*
X162724432Y-149864733D01*
X162718370Y-149877732D01*
X162667624Y-150030874D01*
X162664805Y-150044041D01*
X162655319Y-150136890D01*
X162655000Y-150143168D01*
X162655000Y-150261174D01*
X162658450Y-150274049D01*
X162671326Y-150277500D01*
X164006000Y-150277500D01*
X164068000Y-150294113D01*
X164113387Y-150339500D01*
X164130000Y-150401500D01*
X164130000Y-151598673D01*
X164133450Y-151611548D01*
X164146326Y-151614999D01*
X164401829Y-151614999D01*
X164408111Y-151614678D01*
X164500959Y-151605194D01*
X164514122Y-151602376D01*
X164667267Y-151551629D01*
X164680266Y-151545567D01*
X164817194Y-151461109D01*
X164828455Y-151452205D01*
X164942205Y-151338455D01*
X164951109Y-151327194D01*
X165035567Y-151190266D01*
X165041630Y-151177265D01*
X165092253Y-151024493D01*
X165126186Y-150972074D01*
X165181362Y-150942838D01*
X165243791Y-150944201D01*
X165297640Y-150975815D01*
X165309123Y-150987298D01*
X165488361Y-151112802D01*
X165493261Y-151115087D01*
X165493263Y-151115088D01*
X165626606Y-151177267D01*
X165686670Y-151205275D01*
X165844522Y-151247571D01*
X165892790Y-151260505D01*
X165892791Y-151260505D01*
X165898023Y-151261907D01*
X166116000Y-151280977D01*
X166333977Y-151261907D01*
X166545330Y-151205275D01*
X166743639Y-151112802D01*
X166922877Y-150987298D01*
X167077598Y-150832577D01*
X167203102Y-150653339D01*
X167295575Y-150455030D01*
X167352207Y-150243677D01*
X167371277Y-150025700D01*
X167352207Y-149807723D01*
X167353859Y-149807578D01*
X167359739Y-149748637D01*
X167400191Y-149695121D01*
X167462595Y-149670506D01*
X167531197Y-149663499D01*
X167697734Y-149608314D01*
X167847056Y-149516212D01*
X167971112Y-149392156D01*
X168063214Y-149242834D01*
X168118399Y-149076297D01*
X168128900Y-148973509D01*
X168128899Y-148526716D01*
X168142414Y-148470423D01*
X168180013Y-148426400D01*
X168233501Y-148404245D01*
X168291217Y-148408787D01*
X168340580Y-148439037D01*
X168677759Y-148776216D01*
X168682893Y-148781670D01*
X168717793Y-148821065D01*
X168717797Y-148821068D01*
X168722771Y-148826683D01*
X168728947Y-148830946D01*
X168772274Y-148860853D01*
X168778305Y-148865291D01*
X168825644Y-148902378D01*
X168834880Y-148906534D01*
X168854427Y-148917559D01*
X168862770Y-148923318D01*
X168867856Y-148925246D01*
X168912187Y-148964897D01*
X168932830Y-149021762D01*
X168938401Y-149076297D01*
X168940529Y-149082719D01*
X168940530Y-149082723D01*
X168949348Y-149109334D01*
X168993586Y-149242834D01*
X168997377Y-149248980D01*
X169081897Y-149386011D01*
X169081900Y-149386015D01*
X169085688Y-149392156D01*
X169209744Y-149516212D01*
X169215885Y-149520000D01*
X169215888Y-149520002D01*
X169249121Y-149540500D01*
X169359066Y-149608314D01*
X169525603Y-149663499D01*
X169628391Y-149674000D01*
X169636157Y-149673999D01*
X169701258Y-149692455D01*
X169746978Y-149742343D01*
X169759698Y-149808806D01*
X169742076Y-150010238D01*
X169740723Y-150025700D01*
X169741195Y-150031095D01*
X169759320Y-150238278D01*
X169759321Y-150238285D01*
X169759793Y-150243677D01*
X169761192Y-150248899D01*
X169761194Y-150248909D01*
X169815024Y-150449802D01*
X169816425Y-150455030D01*
X169818709Y-150459929D01*
X169818712Y-150459936D01*
X169906611Y-150648436D01*
X169906614Y-150648442D01*
X169908898Y-150653339D01*
X169911997Y-150657766D01*
X169911999Y-150657768D01*
X170031296Y-150828142D01*
X170031299Y-150828146D01*
X170034402Y-150832577D01*
X170189123Y-150987298D01*
X170368361Y-151112802D01*
X170373261Y-151115087D01*
X170373263Y-151115088D01*
X170506606Y-151177267D01*
X170566670Y-151205275D01*
X170724522Y-151247571D01*
X170772790Y-151260505D01*
X170772791Y-151260505D01*
X170778023Y-151261907D01*
X170996000Y-151280977D01*
X171213977Y-151261907D01*
X171425330Y-151205275D01*
X171623639Y-151112802D01*
X171787332Y-150998182D01*
X171840483Y-150977066D01*
X171897458Y-150982051D01*
X171946136Y-151012075D01*
X171976161Y-151060753D01*
X172014770Y-151177267D01*
X172020832Y-151190266D01*
X172105290Y-151327194D01*
X172114194Y-151338455D01*
X172227944Y-151452205D01*
X172239205Y-151461109D01*
X172376133Y-151545567D01*
X172389132Y-151551629D01*
X172542274Y-151602375D01*
X172555441Y-151605194D01*
X172648290Y-151614680D01*
X172654568Y-151615000D01*
X172910074Y-151615000D01*
X172922949Y-151611549D01*
X172926400Y-151598674D01*
X172926400Y-151598673D01*
X173426400Y-151598673D01*
X173429850Y-151611548D01*
X173442726Y-151614999D01*
X173698229Y-151614999D01*
X173704511Y-151614678D01*
X173797359Y-151605194D01*
X173810522Y-151602376D01*
X173963667Y-151551629D01*
X173976666Y-151545567D01*
X174113594Y-151461109D01*
X174124855Y-151452205D01*
X174238605Y-151338455D01*
X174247509Y-151327194D01*
X174331967Y-151190266D01*
X174338029Y-151177267D01*
X174388775Y-151024125D01*
X174391594Y-151010958D01*
X174401080Y-150918109D01*
X174401400Y-150911832D01*
X174401400Y-150793826D01*
X174397949Y-150780950D01*
X174385074Y-150777500D01*
X173442726Y-150777500D01*
X173429850Y-150780950D01*
X173426400Y-150793826D01*
X173426400Y-151598673D01*
X172926400Y-151598673D01*
X172926400Y-150401500D01*
X172943013Y-150339500D01*
X172982513Y-150300000D01*
X177944390Y-150300000D01*
X177944706Y-150304418D01*
X177964487Y-150581005D01*
X177964488Y-150581014D01*
X177964804Y-150585428D01*
X177965744Y-150589753D01*
X177965746Y-150589761D01*
X178007337Y-150780950D01*
X178025631Y-150865046D01*
X178027175Y-150869185D01*
X178027176Y-150869189D01*
X178116880Y-151109695D01*
X178125633Y-151133161D01*
X178127753Y-151137043D01*
X178127756Y-151137050D01*
X178199985Y-151269326D01*
X178262774Y-151384315D01*
X178434261Y-151613395D01*
X178636605Y-151815739D01*
X178865685Y-151987226D01*
X179116839Y-152124367D01*
X179384954Y-152224369D01*
X179664572Y-152285196D01*
X179950000Y-152305610D01*
X180235428Y-152285196D01*
X180515046Y-152224369D01*
X180783161Y-152124367D01*
X181034315Y-151987226D01*
X181263395Y-151815739D01*
X181465739Y-151613395D01*
X181637226Y-151384315D01*
X181707537Y-151255551D01*
X184346688Y-151255551D01*
X184347056Y-151266780D01*
X184399168Y-151461263D01*
X184402856Y-151471397D01*
X184498113Y-151675676D01*
X184503501Y-151685008D01*
X184632784Y-151869643D01*
X184639721Y-151877909D01*
X184799090Y-152037278D01*
X184807356Y-152044215D01*
X184991991Y-152173498D01*
X185001323Y-152178886D01*
X185205602Y-152274143D01*
X185215736Y-152277831D01*
X185410219Y-152329943D01*
X185421448Y-152330311D01*
X185424000Y-152319369D01*
X185924000Y-152319369D01*
X185926551Y-152330311D01*
X185937780Y-152329943D01*
X186132263Y-152277831D01*
X186142397Y-152274143D01*
X186346676Y-152178886D01*
X186356008Y-152173498D01*
X186540643Y-152044215D01*
X186548909Y-152037278D01*
X186708278Y-151877909D01*
X186715215Y-151869643D01*
X186844498Y-151685008D01*
X186849886Y-151675676D01*
X186945143Y-151471397D01*
X186948831Y-151461263D01*
X187000943Y-151266780D01*
X187001311Y-151255551D01*
X186990369Y-151253000D01*
X185940326Y-151253000D01*
X185927450Y-151256450D01*
X185924000Y-151269326D01*
X185924000Y-152319369D01*
X185424000Y-152319369D01*
X185424000Y-151269326D01*
X185420549Y-151256450D01*
X185407674Y-151253000D01*
X184357631Y-151253000D01*
X184346688Y-151255551D01*
X181707537Y-151255551D01*
X181774367Y-151133161D01*
X181874369Y-150865046D01*
X181935196Y-150585428D01*
X181955610Y-150300000D01*
X181935196Y-150014572D01*
X181874369Y-149734954D01*
X181774367Y-149466839D01*
X181637226Y-149215685D01*
X181465739Y-148986605D01*
X181263395Y-148784261D01*
X181034315Y-148612774D01*
X181030420Y-148610647D01*
X180787050Y-148477756D01*
X180787043Y-148477753D01*
X180783161Y-148475633D01*
X180779017Y-148474087D01*
X180779012Y-148474085D01*
X180519189Y-148377176D01*
X180519185Y-148377175D01*
X180515046Y-148375631D01*
X180446000Y-148360611D01*
X180239761Y-148315746D01*
X180239753Y-148315744D01*
X180235428Y-148314804D01*
X180231014Y-148314488D01*
X180231005Y-148314487D01*
X179954418Y-148294706D01*
X179950000Y-148294390D01*
X179945582Y-148294706D01*
X179668994Y-148314487D01*
X179668983Y-148314488D01*
X179664572Y-148314804D01*
X179660248Y-148315744D01*
X179660238Y-148315746D01*
X179389279Y-148374690D01*
X179389276Y-148374690D01*
X179384954Y-148375631D01*
X179380818Y-148377173D01*
X179380810Y-148377176D01*
X179120987Y-148474085D01*
X179120976Y-148474089D01*
X179116839Y-148475633D01*
X179112961Y-148477750D01*
X179112949Y-148477756D01*
X178869579Y-148610647D01*
X178869571Y-148610651D01*
X178865685Y-148612774D01*
X178862135Y-148615431D01*
X178862131Y-148615434D01*
X178640156Y-148781602D01*
X178640149Y-148781607D01*
X178636605Y-148784261D01*
X178633474Y-148787391D01*
X178633467Y-148787398D01*
X178437398Y-148983467D01*
X178437391Y-148983474D01*
X178434261Y-148986605D01*
X178431607Y-148990149D01*
X178431602Y-148990156D01*
X178268990Y-149207381D01*
X178262774Y-149215685D01*
X178260651Y-149219571D01*
X178260647Y-149219579D01*
X178127756Y-149462949D01*
X178127750Y-149462961D01*
X178125633Y-149466839D01*
X178124089Y-149470976D01*
X178124085Y-149470987D01*
X178027176Y-149730810D01*
X178027173Y-149730818D01*
X178025631Y-149734954D01*
X178024690Y-149739276D01*
X178024690Y-149739279D01*
X177965746Y-150010238D01*
X177965744Y-150010248D01*
X177964804Y-150014572D01*
X177964488Y-150018983D01*
X177964487Y-150018994D01*
X177953640Y-150170664D01*
X177944390Y-150300000D01*
X172982513Y-150300000D01*
X172988400Y-150294113D01*
X173050400Y-150277500D01*
X174385073Y-150277500D01*
X174397948Y-150274049D01*
X174401399Y-150261174D01*
X174401399Y-150143171D01*
X174401078Y-150136888D01*
X174391594Y-150044040D01*
X174388776Y-150030877D01*
X174357868Y-149937602D01*
X175717117Y-149937602D01*
X175724550Y-149945713D01*
X175771172Y-149978358D01*
X175780522Y-149983756D01*
X175968932Y-150071613D01*
X175979074Y-150075305D01*
X176179886Y-150129111D01*
X176190501Y-150130983D01*
X176397605Y-150149103D01*
X176408395Y-150149103D01*
X176615498Y-150130983D01*
X176626113Y-150129111D01*
X176826925Y-150075305D01*
X176837067Y-150071613D01*
X177025485Y-149983753D01*
X177034817Y-149978365D01*
X177081450Y-149945712D01*
X177088881Y-149937603D01*
X177082967Y-149928320D01*
X176414542Y-149259895D01*
X176402999Y-149253231D01*
X176391457Y-149259895D01*
X175723028Y-149928323D01*
X175717117Y-149937602D01*
X174357868Y-149937602D01*
X174338029Y-149877732D01*
X174331967Y-149864733D01*
X174247509Y-149727805D01*
X174238605Y-149716544D01*
X174124855Y-149602794D01*
X174107929Y-149589410D01*
X174109135Y-149587883D01*
X174073560Y-149550720D01*
X174057840Y-149490282D01*
X174073571Y-149429846D01*
X174109392Y-149392438D01*
X174108243Y-149390984D01*
X174113909Y-149386503D01*
X174120056Y-149382712D01*
X174244112Y-149258656D01*
X174336214Y-149109334D01*
X174391399Y-148942797D01*
X174395751Y-148900195D01*
X175148697Y-148900195D01*
X175166816Y-149107298D01*
X175168688Y-149117913D01*
X175222494Y-149318725D01*
X175226186Y-149328867D01*
X175314043Y-149517277D01*
X175319441Y-149526627D01*
X175352084Y-149573247D01*
X175360197Y-149580681D01*
X175369475Y-149574770D01*
X176037904Y-148906342D01*
X176044568Y-148894799D01*
X176761431Y-148894799D01*
X176768095Y-148906342D01*
X177436520Y-149574767D01*
X177445803Y-149580681D01*
X177453912Y-149573250D01*
X177486565Y-149526617D01*
X177491953Y-149517285D01*
X177579813Y-149328867D01*
X177583505Y-149318725D01*
X177637311Y-149117913D01*
X177639183Y-149107298D01*
X177657303Y-148900195D01*
X177657303Y-148889405D01*
X177639183Y-148682301D01*
X177637311Y-148671686D01*
X177583505Y-148470874D01*
X177579813Y-148460732D01*
X177491955Y-148272320D01*
X177486559Y-148262975D01*
X177453913Y-148216352D01*
X177445801Y-148208919D01*
X177436519Y-148214832D01*
X176768095Y-148883257D01*
X176761431Y-148894799D01*
X176044568Y-148894799D01*
X176037904Y-148883257D01*
X175369476Y-148214829D01*
X175360197Y-148208918D01*
X175352086Y-148216351D01*
X175319441Y-148262973D01*
X175314043Y-148272323D01*
X175226186Y-148460732D01*
X175222494Y-148470874D01*
X175168688Y-148671686D01*
X175166816Y-148682301D01*
X175148697Y-148889405D01*
X175148697Y-148900195D01*
X174395751Y-148900195D01*
X174401900Y-148840009D01*
X174401899Y-148064992D01*
X174391399Y-147962203D01*
X174354880Y-147851997D01*
X175717118Y-147851997D01*
X175723029Y-147861276D01*
X176391457Y-148529704D01*
X176402999Y-148536368D01*
X176414542Y-148529704D01*
X177082970Y-147861275D01*
X177088881Y-147851997D01*
X177081447Y-147843884D01*
X177034827Y-147811241D01*
X177025477Y-147805843D01*
X176837067Y-147717986D01*
X176826925Y-147714294D01*
X176626113Y-147660488D01*
X176615498Y-147658616D01*
X176408395Y-147640497D01*
X176397605Y-147640497D01*
X176190501Y-147658616D01*
X176179886Y-147660488D01*
X175979074Y-147714294D01*
X175968932Y-147717986D01*
X175780523Y-147805843D01*
X175771173Y-147811241D01*
X175724551Y-147843886D01*
X175717118Y-147851997D01*
X174354880Y-147851997D01*
X174336214Y-147795666D01*
X174281353Y-147706722D01*
X174247902Y-147652488D01*
X174247900Y-147652485D01*
X174244112Y-147646344D01*
X174120056Y-147522288D01*
X174113915Y-147518500D01*
X174113911Y-147518497D01*
X173981188Y-147436634D01*
X173970734Y-147430186D01*
X173957896Y-147425932D01*
X173810625Y-147377131D01*
X173810624Y-147377130D01*
X173804197Y-147375001D01*
X173797464Y-147374313D01*
X173797459Y-147374312D01*
X173704540Y-147364819D01*
X173704523Y-147364818D01*
X173701409Y-147364500D01*
X173698260Y-147364500D01*
X172654540Y-147364500D01*
X172654520Y-147364500D01*
X172651392Y-147364501D01*
X172648260Y-147364820D01*
X172648258Y-147364821D01*
X172555338Y-147374312D01*
X172555328Y-147374313D01*
X172548603Y-147375001D01*
X172542181Y-147377128D01*
X172542176Y-147377130D01*
X172388921Y-147427914D01*
X172388917Y-147427915D01*
X172382066Y-147430186D01*
X172375922Y-147433975D01*
X172375919Y-147433977D01*
X172238888Y-147518497D01*
X172238880Y-147518503D01*
X172232744Y-147522288D01*
X172227642Y-147527389D01*
X172227638Y-147527393D01*
X172113799Y-147641232D01*
X172113795Y-147641236D01*
X172108688Y-147646344D01*
X172104898Y-147652487D01*
X172104892Y-147652496D01*
X172065788Y-147715896D01*
X172020681Y-147759077D01*
X171960249Y-147774800D01*
X171899271Y-147774800D01*
X171891783Y-147774574D01*
X171839231Y-147771394D01*
X171839223Y-147771394D01*
X171831744Y-147770942D01*
X171824368Y-147772293D01*
X171824361Y-147772294D01*
X171772578Y-147781783D01*
X171765178Y-147782910D01*
X171712919Y-147789256D01*
X171712915Y-147789256D01*
X171705478Y-147790160D01*
X171698469Y-147792817D01*
X171698464Y-147792819D01*
X171695993Y-147793756D01*
X171674403Y-147799774D01*
X171671802Y-147800250D01*
X171671788Y-147800254D01*
X171664419Y-147801605D01*
X171657582Y-147804681D01*
X171657582Y-147804682D01*
X171609576Y-147826287D01*
X171602659Y-147829152D01*
X171573948Y-147840041D01*
X171524984Y-147847998D01*
X171476819Y-147836127D01*
X171437162Y-147806327D01*
X171420957Y-147788035D01*
X171420952Y-147788031D01*
X171415979Y-147782417D01*
X171366460Y-147748236D01*
X171360454Y-147743816D01*
X171319011Y-147711347D01*
X171319008Y-147711345D01*
X171313107Y-147706722D01*
X171306269Y-147703644D01*
X171306260Y-147703639D01*
X171303860Y-147702559D01*
X171284310Y-147691532D01*
X171279269Y-147688052D01*
X171242991Y-147649140D01*
X171226357Y-147598607D01*
X171219087Y-147527438D01*
X171219086Y-147527437D01*
X171218399Y-147520703D01*
X171163214Y-147354166D01*
X171103242Y-147256936D01*
X171074902Y-147210988D01*
X171074900Y-147210985D01*
X171071112Y-147204844D01*
X170947056Y-147080788D01*
X170940915Y-147077000D01*
X170940911Y-147076997D01*
X170803880Y-146992477D01*
X170797734Y-146988686D01*
X170725059Y-146964604D01*
X170637625Y-146935631D01*
X170637624Y-146935630D01*
X170631197Y-146933501D01*
X170624464Y-146932813D01*
X170624459Y-146932812D01*
X170531540Y-146923319D01*
X170531523Y-146923318D01*
X170528409Y-146923000D01*
X170525260Y-146923000D01*
X169631541Y-146923000D01*
X169631521Y-146923000D01*
X169628392Y-146923001D01*
X169625260Y-146923320D01*
X169625258Y-146923321D01*
X169532338Y-146932812D01*
X169532328Y-146932813D01*
X169525603Y-146933501D01*
X169519181Y-146935628D01*
X169519176Y-146935630D01*
X169365921Y-146986414D01*
X169365917Y-146986415D01*
X169359066Y-146988686D01*
X169352922Y-146992475D01*
X169352919Y-146992477D01*
X169215889Y-147076997D01*
X169215884Y-147077000D01*
X169209744Y-147080788D01*
X169204647Y-147085884D01*
X169204638Y-147085892D01*
X169174372Y-147116158D01*
X169118784Y-147148249D01*
X169054598Y-147148248D01*
X168999012Y-147116155D01*
X168670078Y-146787221D01*
X168636698Y-146726378D01*
X168641237Y-146657129D01*
X168682273Y-146601164D01*
X168746951Y-146576012D01*
X168789808Y-146572263D01*
X169018063Y-146511103D01*
X169232230Y-146411235D01*
X169425801Y-146275695D01*
X169547729Y-146153766D01*
X169600472Y-146122473D01*
X169661765Y-146120284D01*
X169716610Y-146147737D01*
X169751589Y-146198116D01*
X169800604Y-146329531D01*
X169805918Y-146336630D01*
X169805919Y-146336631D01*
X169861767Y-146411235D01*
X169886854Y-146444746D01*
X170002069Y-146530996D01*
X170136917Y-146581291D01*
X170196527Y-146587700D01*
X171992272Y-146587699D01*
X172051883Y-146581291D01*
X172186731Y-146530996D01*
X172301946Y-146444746D01*
X172388196Y-146329531D01*
X172438491Y-146194683D01*
X172444900Y-146135073D01*
X172444900Y-146061700D01*
X172461513Y-145999700D01*
X172506900Y-145954313D01*
X172568900Y-145937700D01*
X174816881Y-145937700D01*
X174864334Y-145947139D01*
X174904562Y-145974019D01*
X176072813Y-147142270D01*
X176077947Y-147147724D01*
X176117825Y-147192737D01*
X176123994Y-147196995D01*
X176123995Y-147196996D01*
X176167323Y-147226903D01*
X176173356Y-147231342D01*
X176206024Y-147256936D01*
X176220697Y-147268431D01*
X176227539Y-147271510D01*
X176229929Y-147272586D01*
X176249478Y-147283612D01*
X176251642Y-147285106D01*
X176251650Y-147285110D01*
X176257824Y-147289372D01*
X176307539Y-147308226D01*
X176314060Y-147310699D01*
X176320982Y-147313566D01*
X176375822Y-147338248D01*
X176385789Y-147340074D01*
X176407407Y-147346101D01*
X176409867Y-147347034D01*
X176409870Y-147347034D01*
X176416882Y-147349694D01*
X176474356Y-147356672D01*
X176476584Y-147356943D01*
X176483989Y-147358070D01*
X176499820Y-147360970D01*
X176543148Y-147368911D01*
X176603176Y-147365280D01*
X176610664Y-147365054D01*
X177808463Y-147365054D01*
X177875090Y-147384475D01*
X177918495Y-147433971D01*
X177918632Y-147433888D01*
X177922425Y-147440037D01*
X178006943Y-147577065D01*
X178006946Y-147577069D01*
X178010734Y-147583210D01*
X178134790Y-147707266D01*
X178140931Y-147711054D01*
X178140934Y-147711056D01*
X178178159Y-147734016D01*
X178284112Y-147799368D01*
X178450649Y-147854553D01*
X178553437Y-147865054D01*
X179353454Y-147865053D01*
X179456243Y-147854553D01*
X179622780Y-147799368D01*
X179772102Y-147707266D01*
X179865765Y-147613603D01*
X179921352Y-147581509D01*
X179985540Y-147581509D01*
X180041127Y-147613603D01*
X180134790Y-147707266D01*
X180140931Y-147711054D01*
X180140934Y-147711056D01*
X180178159Y-147734016D01*
X180284112Y-147799368D01*
X180450649Y-147854553D01*
X180553437Y-147865054D01*
X181353454Y-147865053D01*
X181456243Y-147854553D01*
X181622780Y-147799368D01*
X181772102Y-147707266D01*
X181896158Y-147583210D01*
X181988260Y-147433888D01*
X181988396Y-147433971D01*
X182031802Y-147384475D01*
X182098429Y-147365054D01*
X182130819Y-147365054D01*
X182188075Y-147379064D01*
X182232393Y-147417930D01*
X182245490Y-147436634D01*
X182245495Y-147436640D01*
X182248602Y-147441077D01*
X182403323Y-147595798D01*
X182407755Y-147598901D01*
X182407757Y-147598903D01*
X182484296Y-147652496D01*
X182582561Y-147721302D01*
X182587461Y-147723587D01*
X182587463Y-147723588D01*
X182775435Y-147811241D01*
X182780870Y-147813775D01*
X182893246Y-147843886D01*
X182986990Y-147869005D01*
X182986991Y-147869005D01*
X182992223Y-147870407D01*
X183210200Y-147889477D01*
X183428177Y-147870407D01*
X183639530Y-147813775D01*
X183837839Y-147721302D01*
X184017077Y-147595798D01*
X184171798Y-147441077D01*
X184297302Y-147261839D01*
X184389775Y-147063530D01*
X184442990Y-146864928D01*
X184475084Y-146809342D01*
X184530671Y-146777248D01*
X184594859Y-146777248D01*
X184650446Y-146809342D01*
X184802599Y-146961495D01*
X184807032Y-146964599D01*
X184807038Y-146964604D01*
X184988158Y-147091425D01*
X185027024Y-147135743D01*
X185041035Y-147193000D01*
X185027024Y-147250257D01*
X184988159Y-147294575D01*
X184807041Y-147421395D01*
X184802599Y-147424505D01*
X184798775Y-147428328D01*
X184798769Y-147428334D01*
X184639334Y-147587769D01*
X184639328Y-147587775D01*
X184635505Y-147591599D01*
X184632402Y-147596029D01*
X184632399Y-147596034D01*
X184503073Y-147780731D01*
X184503068Y-147780738D01*
X184499965Y-147785171D01*
X184497677Y-147790077D01*
X184497675Y-147790081D01*
X184402386Y-147994427D01*
X184402383Y-147994432D01*
X184400097Y-147999337D01*
X184398698Y-148004557D01*
X184398694Y-148004569D01*
X184340337Y-148222365D01*
X184340335Y-148222371D01*
X184338937Y-148227592D01*
X184338465Y-148232977D01*
X184338465Y-148232982D01*
X184320154Y-148442275D01*
X184318341Y-148463000D01*
X184318813Y-148468395D01*
X184337527Y-148682301D01*
X184338937Y-148698408D01*
X184340336Y-148703630D01*
X184340337Y-148703634D01*
X184398694Y-148921430D01*
X184398697Y-148921438D01*
X184400097Y-148926663D01*
X184402385Y-148931570D01*
X184402386Y-148931572D01*
X184497678Y-149135927D01*
X184497681Y-149135933D01*
X184499965Y-149140830D01*
X184503064Y-149145257D01*
X184503066Y-149145259D01*
X184632399Y-149329966D01*
X184632402Y-149329970D01*
X184635505Y-149334401D01*
X184802599Y-149501495D01*
X184807031Y-149504598D01*
X184807033Y-149504600D01*
X184988595Y-149631731D01*
X185027460Y-149676049D01*
X185041471Y-149733306D01*
X185027460Y-149790563D01*
X184988595Y-149834881D01*
X184807352Y-149961788D01*
X184799092Y-149968719D01*
X184639719Y-150128092D01*
X184632784Y-150136357D01*
X184503508Y-150320982D01*
X184498110Y-150330332D01*
X184402856Y-150534602D01*
X184399168Y-150544736D01*
X184347056Y-150739219D01*
X184346688Y-150750448D01*
X184357631Y-150753000D01*
X186990369Y-150753000D01*
X187001311Y-150750448D01*
X187000943Y-150739219D01*
X186948831Y-150544736D01*
X186945143Y-150534602D01*
X186849889Y-150330332D01*
X186844491Y-150320982D01*
X186715215Y-150136357D01*
X186708280Y-150128092D01*
X186548909Y-149968721D01*
X186540643Y-149961784D01*
X186359405Y-149834880D01*
X186320540Y-149790562D01*
X186306529Y-149733305D01*
X186320540Y-149676048D01*
X186359406Y-149631730D01*
X186371643Y-149623162D01*
X186545401Y-149501495D01*
X186712495Y-149334401D01*
X186848035Y-149140830D01*
X186947903Y-148926663D01*
X187009063Y-148698408D01*
X187029659Y-148463000D01*
X187009063Y-148227592D01*
X186947903Y-147999337D01*
X186848035Y-147785171D01*
X186712495Y-147591599D01*
X186545401Y-147424505D01*
X186540968Y-147421401D01*
X186540961Y-147421395D01*
X186359842Y-147294575D01*
X186320976Y-147250257D01*
X186306965Y-147193000D01*
X186320976Y-147135743D01*
X186359842Y-147091425D01*
X186540961Y-146964604D01*
X186540961Y-146964603D01*
X186545401Y-146961495D01*
X186712495Y-146794401D01*
X186848035Y-146600830D01*
X186947903Y-146386663D01*
X187009063Y-146158408D01*
X187029659Y-145923000D01*
X187009063Y-145687592D01*
X186947903Y-145459337D01*
X186848035Y-145245171D01*
X186712495Y-145051599D01*
X186545401Y-144884505D01*
X186540968Y-144881401D01*
X186540961Y-144881395D01*
X186359842Y-144754575D01*
X186320976Y-144710257D01*
X186306965Y-144653000D01*
X186320976Y-144595743D01*
X186359842Y-144551425D01*
X186540961Y-144424604D01*
X186540961Y-144424603D01*
X186545401Y-144421495D01*
X186712495Y-144254401D01*
X186848035Y-144060830D01*
X186947903Y-143846663D01*
X187009063Y-143618408D01*
X187029659Y-143383000D01*
X187009063Y-143147592D01*
X186951981Y-142934555D01*
X186949305Y-142924569D01*
X186949304Y-142924567D01*
X186947903Y-142919337D01*
X186848035Y-142705171D01*
X186712495Y-142511599D01*
X186545401Y-142344505D01*
X186540968Y-142341401D01*
X186540961Y-142341395D01*
X186359842Y-142214575D01*
X186320976Y-142170257D01*
X186306965Y-142113000D01*
X186320976Y-142055743D01*
X186359842Y-142011425D01*
X186540961Y-141884604D01*
X186540961Y-141884603D01*
X186545401Y-141881495D01*
X186712495Y-141714401D01*
X186848035Y-141520830D01*
X186947903Y-141306663D01*
X187009063Y-141078408D01*
X187029659Y-140843000D01*
X187009063Y-140607592D01*
X186947903Y-140379337D01*
X186848035Y-140165171D01*
X186712495Y-139971599D01*
X186545401Y-139804505D01*
X186540968Y-139801401D01*
X186540961Y-139801395D01*
X186359842Y-139674575D01*
X186320976Y-139630257D01*
X186306965Y-139573000D01*
X186320976Y-139515743D01*
X186359842Y-139471425D01*
X186540961Y-139344604D01*
X186540961Y-139344603D01*
X186545401Y-139341495D01*
X186712495Y-139174401D01*
X186848035Y-138980830D01*
X186947903Y-138766663D01*
X187009063Y-138538408D01*
X187029659Y-138303000D01*
X187009063Y-138067592D01*
X186947903Y-137839337D01*
X186848035Y-137625171D01*
X186712495Y-137431599D01*
X186545401Y-137264505D01*
X186540968Y-137261401D01*
X186540961Y-137261395D01*
X186359842Y-137134575D01*
X186320976Y-137090257D01*
X186306965Y-137033000D01*
X186320976Y-136975743D01*
X186359842Y-136931425D01*
X186540961Y-136804604D01*
X186540961Y-136804603D01*
X186545401Y-136801495D01*
X186712495Y-136634401D01*
X186848035Y-136440830D01*
X186947903Y-136226663D01*
X187009063Y-135998408D01*
X187029659Y-135763000D01*
X187009063Y-135527592D01*
X186947903Y-135299337D01*
X186848035Y-135085171D01*
X186712495Y-134891599D01*
X186545401Y-134724505D01*
X186540970Y-134721402D01*
X186540966Y-134721399D01*
X186359841Y-134594574D01*
X186320976Y-134550256D01*
X186306965Y-134492999D01*
X186320976Y-134435742D01*
X186359839Y-134391426D01*
X186545401Y-134261495D01*
X186712495Y-134094401D01*
X186848035Y-133900830D01*
X186947903Y-133686663D01*
X187009063Y-133458408D01*
X187029659Y-133223000D01*
X187009063Y-132987592D01*
X186952524Y-132776582D01*
X186949305Y-132764569D01*
X186949304Y-132764567D01*
X186947903Y-132759337D01*
X186848035Y-132545171D01*
X186712495Y-132351599D01*
X186590569Y-132229673D01*
X186559273Y-132176927D01*
X186557084Y-132115634D01*
X186584537Y-132060789D01*
X186634916Y-132025810D01*
X186766331Y-131976796D01*
X186881546Y-131890546D01*
X186967796Y-131775331D01*
X187018091Y-131640483D01*
X187024500Y-131580873D01*
X187024499Y-129785128D01*
X187018091Y-129725517D01*
X186967796Y-129590669D01*
X186881546Y-129475454D01*
X186766331Y-129389204D01*
X186631483Y-129338909D01*
X186623770Y-129338079D01*
X186623767Y-129338079D01*
X186575180Y-129332855D01*
X186575169Y-129332854D01*
X186571873Y-129332500D01*
X186568550Y-129332500D01*
X184779439Y-129332500D01*
X184779420Y-129332500D01*
X184776128Y-129332501D01*
X184772850Y-129332853D01*
X184772838Y-129332854D01*
X184724231Y-129338079D01*
X184724225Y-129338080D01*
X184716517Y-129338909D01*
X184709252Y-129341618D01*
X184709246Y-129341620D01*
X184589980Y-129386104D01*
X184589978Y-129386104D01*
X184581669Y-129389204D01*
X184574572Y-129394516D01*
X184574568Y-129394519D01*
X184473550Y-129470141D01*
X184473546Y-129470144D01*
X184466454Y-129475454D01*
X184461144Y-129482546D01*
X184461141Y-129482550D01*
X184385519Y-129583568D01*
X184385516Y-129583572D01*
X184380204Y-129590669D01*
X184377104Y-129598978D01*
X184377104Y-129598980D01*
X184332620Y-129718247D01*
X184332619Y-129718250D01*
X184329909Y-129725517D01*
X184329079Y-129733227D01*
X184329079Y-129733232D01*
X184323855Y-129781819D01*
X184323854Y-129781831D01*
X184323500Y-129785127D01*
X184323500Y-129788449D01*
X184323500Y-130465063D01*
X184309985Y-130521358D01*
X184272385Y-130565381D01*
X184218898Y-130587536D01*
X184161182Y-130582994D01*
X184111819Y-130552744D01*
X183995508Y-130436433D01*
X183995506Y-130436431D01*
X183991677Y-130432602D01*
X183987246Y-130429499D01*
X183987242Y-130429496D01*
X183816868Y-130310199D01*
X183816866Y-130310197D01*
X183812439Y-130307098D01*
X183807542Y-130304814D01*
X183807536Y-130304811D01*
X183619036Y-130216912D01*
X183619029Y-130216909D01*
X183614130Y-130214625D01*
X183608903Y-130213224D01*
X183608902Y-130213224D01*
X183408009Y-130159394D01*
X183407999Y-130159392D01*
X183402777Y-130157993D01*
X183397385Y-130157521D01*
X183397378Y-130157520D01*
X183190195Y-130139395D01*
X183184800Y-130138923D01*
X183179405Y-130139395D01*
X182972221Y-130157520D01*
X182972212Y-130157521D01*
X182966823Y-130157993D01*
X182961602Y-130159391D01*
X182961590Y-130159394D01*
X182760697Y-130213224D01*
X182760692Y-130213225D01*
X182755470Y-130214625D01*
X182750574Y-130216907D01*
X182750563Y-130216912D01*
X182562072Y-130304808D01*
X182562068Y-130304810D01*
X182557162Y-130307098D01*
X182552729Y-130310201D01*
X182552722Y-130310206D01*
X182382358Y-130429496D01*
X182382353Y-130429499D01*
X182377923Y-130432602D01*
X182374099Y-130436425D01*
X182374093Y-130436431D01*
X182227031Y-130583493D01*
X182227025Y-130583499D01*
X182223202Y-130587323D01*
X182220099Y-130591753D01*
X182220096Y-130591758D01*
X182185741Y-130640823D01*
X182141423Y-130679689D01*
X182084166Y-130693700D01*
X182011091Y-130693700D01*
X181944464Y-130674279D01*
X181901058Y-130624782D01*
X181900922Y-130624866D01*
X181838679Y-130523953D01*
X181812610Y-130481688D01*
X181812608Y-130481685D01*
X181808820Y-130475544D01*
X181684764Y-130351488D01*
X181678623Y-130347700D01*
X181678619Y-130347697D01*
X181556123Y-130272142D01*
X181535442Y-130259386D01*
X181400362Y-130214625D01*
X181375333Y-130206331D01*
X181375332Y-130206330D01*
X181368905Y-130204201D01*
X181362172Y-130203513D01*
X181362167Y-130203512D01*
X181269248Y-130194019D01*
X181269231Y-130194018D01*
X181266117Y-130193700D01*
X181262968Y-130193700D01*
X180469249Y-130193700D01*
X180469229Y-130193700D01*
X180466100Y-130193701D01*
X180462968Y-130194020D01*
X180462966Y-130194021D01*
X180370046Y-130203512D01*
X180370036Y-130203513D01*
X180363311Y-130204201D01*
X180356889Y-130206328D01*
X180356884Y-130206330D01*
X180203629Y-130257114D01*
X180203625Y-130257115D01*
X180196774Y-130259386D01*
X180190630Y-130263175D01*
X180190627Y-130263177D01*
X180053596Y-130347697D01*
X180053588Y-130347703D01*
X180047452Y-130351488D01*
X180042350Y-130356589D01*
X180042346Y-130356593D01*
X179953789Y-130445151D01*
X179898202Y-130477245D01*
X179834014Y-130477245D01*
X179778427Y-130445151D01*
X179689869Y-130356593D01*
X179684764Y-130351488D01*
X179678623Y-130347700D01*
X179678619Y-130347697D01*
X179556123Y-130272142D01*
X179535442Y-130259386D01*
X179400362Y-130214625D01*
X179375333Y-130206331D01*
X179375332Y-130206330D01*
X179368905Y-130204201D01*
X179362172Y-130203513D01*
X179362167Y-130203512D01*
X179269248Y-130194019D01*
X179269231Y-130194018D01*
X179266117Y-130193700D01*
X179262968Y-130193700D01*
X178469249Y-130193700D01*
X178469229Y-130193700D01*
X178466100Y-130193701D01*
X178462968Y-130194020D01*
X178462966Y-130194021D01*
X178370046Y-130203512D01*
X178370036Y-130203513D01*
X178363311Y-130204201D01*
X178356889Y-130206328D01*
X178356884Y-130206330D01*
X178203629Y-130257114D01*
X178203625Y-130257115D01*
X178196774Y-130259386D01*
X178190630Y-130263175D01*
X178190627Y-130263177D01*
X178053596Y-130347697D01*
X178053588Y-130347703D01*
X178047452Y-130351488D01*
X178042350Y-130356589D01*
X178042346Y-130356593D01*
X177928501Y-130470438D01*
X177928497Y-130470442D01*
X177923396Y-130475544D01*
X177919611Y-130481680D01*
X177919605Y-130481688D01*
X177835087Y-130618716D01*
X177831793Y-130624056D01*
X177831791Y-130624059D01*
X177831294Y-130624866D01*
X177831157Y-130624782D01*
X177787752Y-130674279D01*
X177721125Y-130693700D01*
X175564321Y-130693700D01*
X175556833Y-130693474D01*
X175504281Y-130690294D01*
X175504273Y-130690294D01*
X175496794Y-130689842D01*
X175489418Y-130691193D01*
X175489410Y-130691194D01*
X175437626Y-130700683D01*
X175430227Y-130701810D01*
X175377969Y-130708156D01*
X175377965Y-130708156D01*
X175370528Y-130709060D01*
X175363519Y-130711717D01*
X175363514Y-130711719D01*
X175361043Y-130712656D01*
X175339453Y-130718674D01*
X175336849Y-130719151D01*
X175336839Y-130719153D01*
X175329468Y-130720505D01*
X175322635Y-130723579D01*
X175322629Y-130723582D01*
X175274619Y-130745189D01*
X175267705Y-130748053D01*
X175218480Y-130766722D01*
X175218470Y-130766726D01*
X175211470Y-130769382D01*
X175205304Y-130773637D01*
X175205298Y-130773641D01*
X175203127Y-130775140D01*
X175183585Y-130786162D01*
X175181183Y-130787243D01*
X175181180Y-130787244D01*
X175174343Y-130790322D01*
X175168443Y-130794943D01*
X175168435Y-130794949D01*
X175126997Y-130827413D01*
X175120968Y-130831849D01*
X175077648Y-130861751D01*
X175077636Y-130861760D01*
X175071471Y-130866017D01*
X175066502Y-130871625D01*
X175066496Y-130871631D01*
X175031584Y-130911038D01*
X175026451Y-130916490D01*
X174941778Y-131001163D01*
X174892418Y-131031412D01*
X174834702Y-131035954D01*
X174781214Y-131013799D01*
X174743614Y-130969776D01*
X174730099Y-130913481D01*
X174730099Y-130685273D01*
X174730099Y-130682124D01*
X174719599Y-130579335D01*
X174664414Y-130412798D01*
X174611302Y-130326690D01*
X174576102Y-130269620D01*
X174576100Y-130269617D01*
X174572312Y-130263476D01*
X174448256Y-130139420D01*
X174442115Y-130135632D01*
X174442111Y-130135629D01*
X174305080Y-130051109D01*
X174298934Y-130047318D01*
X174132397Y-129992133D01*
X174125664Y-129991445D01*
X174125659Y-129991444D01*
X174032740Y-129981951D01*
X174032723Y-129981950D01*
X174029609Y-129981632D01*
X174026460Y-129981632D01*
X172629592Y-129981633D01*
X172629592Y-129980355D01*
X172570204Y-129967131D01*
X172522187Y-129921514D01*
X172504500Y-129857689D01*
X172504500Y-129306075D01*
X172522178Y-129242265D01*
X172570172Y-129196650D01*
X172629621Y-129183390D01*
X172629621Y-129182132D01*
X173063274Y-129182132D01*
X173076149Y-129178681D01*
X173079600Y-129165806D01*
X173079600Y-129165805D01*
X173579600Y-129165805D01*
X173583050Y-129178680D01*
X173595926Y-129182131D01*
X174026429Y-129182131D01*
X174032711Y-129181810D01*
X174125559Y-129172326D01*
X174138722Y-129169508D01*
X174291867Y-129118761D01*
X174304866Y-129112699D01*
X174441794Y-129028241D01*
X174453055Y-129019337D01*
X174566805Y-128905587D01*
X174575709Y-128894326D01*
X174660167Y-128757398D01*
X174666229Y-128744399D01*
X174716975Y-128591257D01*
X174719794Y-128578090D01*
X174729280Y-128485241D01*
X174729600Y-128478964D01*
X174729600Y-128285958D01*
X174726149Y-128273082D01*
X174713274Y-128269632D01*
X173595926Y-128269632D01*
X173583050Y-128273082D01*
X173579600Y-128285958D01*
X173579600Y-129165805D01*
X173079600Y-129165805D01*
X173079600Y-127753306D01*
X173579600Y-127753306D01*
X173583050Y-127766181D01*
X173595926Y-127769632D01*
X174713273Y-127769632D01*
X174726148Y-127766181D01*
X174729599Y-127753306D01*
X174729599Y-127560303D01*
X174729278Y-127554020D01*
X174719794Y-127461172D01*
X174716976Y-127448009D01*
X174671026Y-127309340D01*
X174666743Y-127248094D01*
X174692366Y-127192300D01*
X174741613Y-127155637D01*
X174802411Y-127147093D01*
X174859856Y-127168762D01*
X174932974Y-127219960D01*
X174942314Y-127225353D01*
X175130732Y-127313213D01*
X175140874Y-127316905D01*
X175341686Y-127370711D01*
X175352301Y-127372583D01*
X175559405Y-127390703D01*
X175570195Y-127390703D01*
X175777298Y-127372583D01*
X175787913Y-127370711D01*
X175988725Y-127316905D01*
X175998867Y-127313213D01*
X176187285Y-127225353D01*
X176196617Y-127219965D01*
X176243250Y-127187312D01*
X176250681Y-127179203D01*
X176244767Y-127169920D01*
X175211246Y-126136399D01*
X175923231Y-126136399D01*
X175929895Y-126147942D01*
X176598320Y-126816367D01*
X176607603Y-126822281D01*
X176615712Y-126814850D01*
X176648365Y-126768217D01*
X176653753Y-126758885D01*
X176741613Y-126570467D01*
X176745305Y-126560325D01*
X176773086Y-126456643D01*
X178941167Y-126456643D01*
X178941167Y-128993357D01*
X182642508Y-128993357D01*
X182658834Y-128993357D01*
X182658834Y-126456643D01*
X178941167Y-126456643D01*
X176773086Y-126456643D01*
X176799111Y-126359513D01*
X176800983Y-126348898D01*
X176819103Y-126141795D01*
X176819103Y-126131005D01*
X176800983Y-125923901D01*
X176799111Y-125913286D01*
X176745305Y-125712474D01*
X176741613Y-125702332D01*
X176653755Y-125513920D01*
X176648359Y-125504575D01*
X176615713Y-125457952D01*
X176607601Y-125450519D01*
X176598319Y-125456432D01*
X175929895Y-126124857D01*
X175923231Y-126136399D01*
X175211246Y-126136399D01*
X174531276Y-125456429D01*
X174521997Y-125450518D01*
X174513886Y-125457951D01*
X174481241Y-125504573D01*
X174475843Y-125513923D01*
X174387986Y-125702332D01*
X174384294Y-125712474D01*
X174330488Y-125913286D01*
X174328616Y-125923901D01*
X174310497Y-126131005D01*
X174310497Y-126141795D01*
X174328616Y-126348898D01*
X174330488Y-126359513D01*
X174384294Y-126560325D01*
X174387986Y-126570467D01*
X174478133Y-126763788D01*
X174476915Y-126764355D01*
X174491751Y-126820385D01*
X174474412Y-126882906D01*
X174427873Y-126928112D01*
X174364876Y-126943628D01*
X174312162Y-126928018D01*
X174311416Y-126929618D01*
X174291867Y-126920502D01*
X174138725Y-126869756D01*
X174125558Y-126866937D01*
X174032709Y-126857451D01*
X174026432Y-126857132D01*
X173595926Y-126857132D01*
X173583050Y-126860582D01*
X173579600Y-126873458D01*
X173579600Y-127753306D01*
X173079600Y-127753306D01*
X173079600Y-126873459D01*
X173076149Y-126860583D01*
X173063274Y-126857133D01*
X172629622Y-126857133D01*
X172629622Y-126855877D01*
X172570169Y-126842613D01*
X172522177Y-126796998D01*
X172504500Y-126733190D01*
X172504500Y-124571700D01*
X172521113Y-124509700D01*
X172566500Y-124464313D01*
X172628500Y-124447700D01*
X175959899Y-124447700D01*
X176010115Y-124458323D01*
X176051726Y-124488371D01*
X176077604Y-124532695D01*
X176105386Y-124616534D01*
X176109177Y-124622680D01*
X176193697Y-124759711D01*
X176193700Y-124759715D01*
X176197488Y-124765856D01*
X176202593Y-124770961D01*
X176236765Y-124805133D01*
X176269906Y-124864920D01*
X176266328Y-124933184D01*
X176227120Y-124989180D01*
X176164196Y-125015890D01*
X176096680Y-125005196D01*
X175998872Y-124959588D01*
X175988725Y-124955894D01*
X175787913Y-124902088D01*
X175777298Y-124900216D01*
X175570195Y-124882097D01*
X175559405Y-124882097D01*
X175352301Y-124900216D01*
X175341686Y-124902088D01*
X175140874Y-124955894D01*
X175130732Y-124959586D01*
X174942323Y-125047443D01*
X174932973Y-125052841D01*
X174886351Y-125085486D01*
X174878918Y-125093597D01*
X174884829Y-125102876D01*
X175553257Y-125771304D01*
X175564800Y-125777968D01*
X175576342Y-125771304D01*
X176244770Y-125102875D01*
X176251542Y-125092244D01*
X176253289Y-125078980D01*
X176251173Y-125045199D01*
X176275670Y-124990815D01*
X176322726Y-124954161D01*
X176381452Y-124943717D01*
X176438259Y-124961902D01*
X176470866Y-124982014D01*
X176637403Y-125037199D01*
X176740191Y-125047700D01*
X177665208Y-125047699D01*
X177767997Y-125037199D01*
X177934534Y-124982014D01*
X178083856Y-124889912D01*
X178207912Y-124765856D01*
X178300014Y-124616534D01*
X178355199Y-124449997D01*
X178365700Y-124347209D01*
X178365700Y-124344029D01*
X179165201Y-124344029D01*
X179165521Y-124350311D01*
X179175005Y-124443159D01*
X179177823Y-124456322D01*
X179228570Y-124609467D01*
X179234632Y-124622466D01*
X179319090Y-124759394D01*
X179327994Y-124770655D01*
X179441744Y-124884405D01*
X179453005Y-124893309D01*
X179589933Y-124977767D01*
X179602932Y-124983829D01*
X179756074Y-125034575D01*
X179769241Y-125037394D01*
X179862090Y-125046880D01*
X179868368Y-125047200D01*
X180061374Y-125047200D01*
X180074249Y-125043749D01*
X180077700Y-125030874D01*
X180077700Y-125030873D01*
X180577700Y-125030873D01*
X180581150Y-125043748D01*
X180594026Y-125047199D01*
X180787029Y-125047199D01*
X180793311Y-125046878D01*
X180886159Y-125037394D01*
X180899322Y-125034576D01*
X181052467Y-124983829D01*
X181065466Y-124977767D01*
X181202394Y-124893309D01*
X181213655Y-124884405D01*
X181327405Y-124770655D01*
X181336309Y-124759394D01*
X181347777Y-124740802D01*
X184099117Y-124740802D01*
X184106550Y-124748913D01*
X184153172Y-124781558D01*
X184162522Y-124786956D01*
X184350932Y-124874813D01*
X184361074Y-124878505D01*
X184561886Y-124932311D01*
X184572501Y-124934183D01*
X184779605Y-124952303D01*
X184790395Y-124952303D01*
X184997498Y-124934183D01*
X185008113Y-124932311D01*
X185208925Y-124878505D01*
X185219067Y-124874813D01*
X185407485Y-124786953D01*
X185416817Y-124781565D01*
X185463450Y-124748912D01*
X185470881Y-124740803D01*
X185464967Y-124731520D01*
X184796542Y-124063095D01*
X184785000Y-124056431D01*
X184773457Y-124063095D01*
X184105028Y-124731523D01*
X184099117Y-124740802D01*
X181347777Y-124740802D01*
X181420767Y-124622466D01*
X181426829Y-124609467D01*
X181477575Y-124456325D01*
X181480394Y-124443158D01*
X181489880Y-124350309D01*
X181490200Y-124344032D01*
X181490200Y-123913526D01*
X181486749Y-123900650D01*
X181473874Y-123897200D01*
X180594026Y-123897200D01*
X180581150Y-123900650D01*
X180577700Y-123913526D01*
X180577700Y-125030873D01*
X180077700Y-125030873D01*
X180077700Y-123913526D01*
X180074249Y-123900650D01*
X180061374Y-123897200D01*
X179181527Y-123897200D01*
X179168651Y-123900650D01*
X179165201Y-123913526D01*
X179165201Y-124344029D01*
X178365700Y-124344029D01*
X178365699Y-123703395D01*
X183530697Y-123703395D01*
X183548816Y-123910498D01*
X183550688Y-123921113D01*
X183604494Y-124121925D01*
X183608186Y-124132067D01*
X183696043Y-124320477D01*
X183701441Y-124329827D01*
X183734084Y-124376447D01*
X183742197Y-124383881D01*
X183751475Y-124377970D01*
X184419904Y-123709542D01*
X184426567Y-123698000D01*
X185143431Y-123698000D01*
X185150095Y-123709542D01*
X185818520Y-124377967D01*
X185827803Y-124383881D01*
X185835912Y-124376450D01*
X185868565Y-124329817D01*
X185873953Y-124320485D01*
X185961813Y-124132067D01*
X185965505Y-124121925D01*
X186019311Y-123921113D01*
X186021183Y-123910498D01*
X186039303Y-123703395D01*
X186039303Y-123692605D01*
X186021183Y-123485501D01*
X186019311Y-123474886D01*
X185965505Y-123274074D01*
X185961813Y-123263932D01*
X185873955Y-123075520D01*
X185868559Y-123066175D01*
X185835913Y-123019552D01*
X185827801Y-123012119D01*
X185818519Y-123018032D01*
X185150095Y-123686457D01*
X185143431Y-123698000D01*
X184426567Y-123698000D01*
X184426568Y-123697999D01*
X184419904Y-123686457D01*
X183751476Y-123018029D01*
X183742197Y-123012118D01*
X183734086Y-123019551D01*
X183701441Y-123066173D01*
X183696043Y-123075523D01*
X183608186Y-123263932D01*
X183604494Y-123274074D01*
X183550688Y-123474886D01*
X183548816Y-123485501D01*
X183530697Y-123692605D01*
X183530697Y-123703395D01*
X178365699Y-123703395D01*
X178365699Y-123380874D01*
X179165200Y-123380874D01*
X179168650Y-123393749D01*
X179181526Y-123397200D01*
X180061374Y-123397200D01*
X180074249Y-123393749D01*
X180077700Y-123380874D01*
X180577700Y-123380874D01*
X180581150Y-123393749D01*
X180594026Y-123397200D01*
X181473873Y-123397200D01*
X181486748Y-123393749D01*
X181490199Y-123380874D01*
X181490199Y-122950371D01*
X181489878Y-122944088D01*
X181480394Y-122851240D01*
X181477576Y-122838077D01*
X181426829Y-122684932D01*
X181420767Y-122671933D01*
X181410444Y-122655197D01*
X184099118Y-122655197D01*
X184105029Y-122664476D01*
X184773457Y-123332904D01*
X184784999Y-123339568D01*
X184796542Y-123332904D01*
X185464970Y-122664475D01*
X185470881Y-122655197D01*
X185463447Y-122647084D01*
X185416827Y-122614441D01*
X185407477Y-122609043D01*
X185219067Y-122521186D01*
X185208925Y-122517494D01*
X185008113Y-122463688D01*
X184997498Y-122461816D01*
X184790395Y-122443697D01*
X184779605Y-122443697D01*
X184572501Y-122461816D01*
X184561886Y-122463688D01*
X184361074Y-122517494D01*
X184350932Y-122521186D01*
X184162523Y-122609043D01*
X184153173Y-122614441D01*
X184106551Y-122647086D01*
X184099118Y-122655197D01*
X181410444Y-122655197D01*
X181336309Y-122535005D01*
X181327405Y-122523744D01*
X181213655Y-122409994D01*
X181202394Y-122401090D01*
X181065466Y-122316632D01*
X181052467Y-122310570D01*
X180899325Y-122259824D01*
X180886158Y-122257005D01*
X180793309Y-122247519D01*
X180787032Y-122247200D01*
X180594026Y-122247200D01*
X180581150Y-122250650D01*
X180577700Y-122263526D01*
X180577700Y-123380874D01*
X180077700Y-123380874D01*
X180077700Y-122263527D01*
X180074249Y-122250651D01*
X180061374Y-122247201D01*
X179868371Y-122247201D01*
X179862088Y-122247521D01*
X179769240Y-122257005D01*
X179756077Y-122259823D01*
X179602932Y-122310570D01*
X179589933Y-122316632D01*
X179453005Y-122401090D01*
X179441744Y-122409994D01*
X179327994Y-122523744D01*
X179319090Y-122535005D01*
X179234632Y-122671933D01*
X179228570Y-122684932D01*
X179177824Y-122838074D01*
X179175005Y-122851241D01*
X179165519Y-122944090D01*
X179165200Y-122950368D01*
X179165200Y-123380874D01*
X178365699Y-123380874D01*
X178365699Y-122947192D01*
X178355199Y-122844403D01*
X178300014Y-122677866D01*
X178236118Y-122574274D01*
X178211702Y-122534688D01*
X178211700Y-122534685D01*
X178207912Y-122528544D01*
X178083856Y-122404488D01*
X178077715Y-122400700D01*
X178077711Y-122400697D01*
X177940680Y-122316177D01*
X177934534Y-122312386D01*
X177767997Y-122257201D01*
X177761264Y-122256513D01*
X177761259Y-122256512D01*
X177668340Y-122247019D01*
X177668323Y-122247018D01*
X177665209Y-122246700D01*
X177662060Y-122246700D01*
X176743341Y-122246700D01*
X176743321Y-122246700D01*
X176740192Y-122246701D01*
X176737060Y-122247020D01*
X176737058Y-122247021D01*
X176644138Y-122256512D01*
X176644128Y-122256513D01*
X176637403Y-122257201D01*
X176630981Y-122259328D01*
X176630976Y-122259330D01*
X176477721Y-122310114D01*
X176477717Y-122310115D01*
X176470866Y-122312386D01*
X176464722Y-122316175D01*
X176464719Y-122316177D01*
X176327688Y-122400697D01*
X176327680Y-122400703D01*
X176321544Y-122404488D01*
X176316442Y-122409589D01*
X176316438Y-122409593D01*
X176202593Y-122523438D01*
X176202589Y-122523442D01*
X176197488Y-122528544D01*
X176193703Y-122534680D01*
X176193697Y-122534688D01*
X176109177Y-122671719D01*
X176105386Y-122677866D01*
X176103116Y-122684714D01*
X176103114Y-122684720D01*
X176077605Y-122761704D01*
X176051726Y-122806029D01*
X176010115Y-122836077D01*
X175959899Y-122846700D01*
X172230994Y-122846700D01*
X172050605Y-122846700D01*
X172013281Y-122855218D01*
X171999586Y-122857545D01*
X171968466Y-122861052D01*
X171968465Y-122861052D01*
X171961545Y-122861832D01*
X171954973Y-122864131D01*
X171954966Y-122864133D01*
X171925408Y-122874475D01*
X171912057Y-122878322D01*
X171881523Y-122885292D01*
X171881519Y-122885293D01*
X171874739Y-122886841D01*
X171868474Y-122889857D01*
X171868465Y-122889861D01*
X171840257Y-122903445D01*
X171827419Y-122908763D01*
X171797847Y-122919111D01*
X171797837Y-122919115D01*
X171791278Y-122921411D01*
X171789216Y-122922706D01*
X171742456Y-122934300D01*
X171692521Y-122925813D01*
X171650145Y-122898067D01*
X170831251Y-122079173D01*
X170802410Y-122033901D01*
X170795404Y-121980687D01*
X170800277Y-121925000D01*
X170781207Y-121707023D01*
X170772626Y-121675000D01*
X170766871Y-121653522D01*
X170724575Y-121495670D01*
X170632102Y-121297362D01*
X170506598Y-121118123D01*
X170502767Y-121114292D01*
X170499290Y-121110148D01*
X170500264Y-121109330D01*
X170473906Y-121066318D01*
X170469364Y-121008602D01*
X170491519Y-120955115D01*
X170535542Y-120917515D01*
X170591837Y-120904000D01*
X188676000Y-120904000D01*
X188738000Y-120920613D01*
G37*
%TD.AperFunction*%
%TA.AperFunction,Conductor*%
G36*
X170824001Y-137567114D02*
G01*
X170869388Y-137612501D01*
X170886001Y-137674501D01*
X170886001Y-137763774D01*
X170886353Y-137767051D01*
X170886354Y-137767064D01*
X170891158Y-137811750D01*
X170891158Y-137838254D01*
X170886000Y-137886228D01*
X170886000Y-137889549D01*
X170886000Y-137889550D01*
X170886000Y-138410461D01*
X170886000Y-138410479D01*
X170886001Y-138413773D01*
X170886353Y-138417048D01*
X170886354Y-138417065D01*
X170891158Y-138461751D01*
X170891158Y-138488254D01*
X170886000Y-138536229D01*
X170886000Y-138539550D01*
X170886000Y-138539551D01*
X170886000Y-139060462D01*
X170886000Y-139060480D01*
X170886001Y-139063774D01*
X170886353Y-139067052D01*
X170886354Y-139067063D01*
X170891410Y-139114092D01*
X170891410Y-139140599D01*
X170886853Y-139182983D01*
X170886500Y-139189582D01*
X170886500Y-139217774D01*
X170890024Y-139230928D01*
X170926065Y-139247387D01*
X170955830Y-139275767D01*
X171019539Y-139360872D01*
X171028954Y-139373448D01*
X171036050Y-139378760D01*
X171121373Y-139442633D01*
X171159857Y-139490389D01*
X171170746Y-139550747D01*
X171151377Y-139608940D01*
X171106489Y-139650732D01*
X171047062Y-139665900D01*
X170902826Y-139665900D01*
X170889950Y-139669350D01*
X170886500Y-139682226D01*
X170886500Y-139710418D01*
X170886853Y-139717014D01*
X170892073Y-139765567D01*
X170895611Y-139780541D01*
X170940047Y-139899677D01*
X170948462Y-139915089D01*
X171023998Y-140015992D01*
X171036407Y-140028401D01*
X171137310Y-140103937D01*
X171152722Y-140112352D01*
X171271858Y-140156788D01*
X171286832Y-140160326D01*
X171335385Y-140165546D01*
X171341982Y-140165900D01*
X171979774Y-140165900D01*
X171992649Y-140162449D01*
X171996100Y-140149574D01*
X171996100Y-139682226D01*
X171993493Y-139672497D01*
X171991649Y-139616212D01*
X172014890Y-139564916D01*
X172058423Y-139529189D01*
X172113264Y-139516401D01*
X172310733Y-139516401D01*
X172365575Y-139529189D01*
X172409107Y-139564914D01*
X172432349Y-139616208D01*
X172430507Y-139672493D01*
X172427900Y-139682223D01*
X172427900Y-140149574D01*
X172431350Y-140162449D01*
X172444226Y-140165900D01*
X173082018Y-140165900D01*
X173088614Y-140165546D01*
X173137167Y-140160326D01*
X173152141Y-140156788D01*
X173271277Y-140112352D01*
X173286689Y-140103937D01*
X173387592Y-140028401D01*
X173400001Y-140015992D01*
X173475537Y-139915089D01*
X173483952Y-139899677D01*
X173528388Y-139780541D01*
X173531926Y-139765567D01*
X173537146Y-139717014D01*
X173537500Y-139710418D01*
X173537500Y-139682226D01*
X173534049Y-139669350D01*
X173521174Y-139665900D01*
X173376938Y-139665900D01*
X173317511Y-139650732D01*
X173272623Y-139608940D01*
X173253254Y-139550747D01*
X173264143Y-139490389D01*
X173302627Y-139442633D01*
X173311569Y-139435938D01*
X173395046Y-139373448D01*
X173468170Y-139275767D01*
X173497934Y-139247387D01*
X173533975Y-139230928D01*
X173537500Y-139217774D01*
X173537500Y-139189582D01*
X173537145Y-139182969D01*
X173532590Y-139140599D01*
X173532590Y-139114092D01*
X173538000Y-139063775D01*
X173537999Y-138536230D01*
X173532841Y-138488247D01*
X173532841Y-138461748D01*
X173535332Y-138438582D01*
X173561379Y-138374898D01*
X173617368Y-138334903D01*
X173686060Y-138330914D01*
X173746302Y-138364159D01*
X174847181Y-139465038D01*
X174874061Y-139505266D01*
X174883500Y-139552719D01*
X174883500Y-142996279D01*
X174883274Y-143003767D01*
X174880094Y-143056318D01*
X174880094Y-143056326D01*
X174879642Y-143063806D01*
X174880993Y-143071182D01*
X174880994Y-143071187D01*
X174890483Y-143122971D01*
X174891610Y-143130371D01*
X174897955Y-143182625D01*
X174897956Y-143182630D01*
X174898860Y-143190072D01*
X174901519Y-143197085D01*
X174901521Y-143197091D01*
X174902450Y-143199540D01*
X174908475Y-143221152D01*
X174908951Y-143223751D01*
X174908954Y-143223760D01*
X174910305Y-143231132D01*
X174913382Y-143237969D01*
X174913383Y-143237972D01*
X174934991Y-143285984D01*
X174937857Y-143292902D01*
X174959182Y-143349130D01*
X174963442Y-143355302D01*
X174963445Y-143355307D01*
X174964937Y-143357468D01*
X174975959Y-143377010D01*
X174977039Y-143379410D01*
X174977044Y-143379419D01*
X174980122Y-143386257D01*
X174984745Y-143392158D01*
X174984747Y-143392161D01*
X175017216Y-143433604D01*
X175021636Y-143439610D01*
X175055817Y-143489129D01*
X175100847Y-143529022D01*
X175106282Y-143534139D01*
X176174413Y-144602270D01*
X176179547Y-144607724D01*
X176219425Y-144652737D01*
X176268931Y-144686909D01*
X176274951Y-144691339D01*
X176313881Y-144721839D01*
X176322297Y-144728432D01*
X176329137Y-144731510D01*
X176329138Y-144731511D01*
X176331535Y-144732590D01*
X176351084Y-144743615D01*
X176359424Y-144749372D01*
X176386083Y-144759482D01*
X176415655Y-144770697D01*
X176422577Y-144773564D01*
X176477422Y-144798248D01*
X176487389Y-144800074D01*
X176509007Y-144806101D01*
X176511467Y-144807034D01*
X176511470Y-144807034D01*
X176518482Y-144809694D01*
X176575956Y-144816672D01*
X176578184Y-144816943D01*
X176585589Y-144818070D01*
X176596171Y-144820009D01*
X176644748Y-144828911D01*
X176704776Y-144825280D01*
X176712264Y-144825054D01*
X177782463Y-144825054D01*
X177849090Y-144844475D01*
X177892495Y-144893971D01*
X177892632Y-144893888D01*
X177896425Y-144900037D01*
X177980943Y-145037065D01*
X177980946Y-145037069D01*
X177984734Y-145043210D01*
X178108790Y-145167266D01*
X178114931Y-145171054D01*
X178114934Y-145171056D01*
X178172004Y-145206256D01*
X178258112Y-145259368D01*
X178323863Y-145281155D01*
X178375546Y-145314292D01*
X178404999Y-145368162D01*
X178405000Y-145429557D01*
X178375548Y-145483427D01*
X178323865Y-145516566D01*
X178290970Y-145527466D01*
X178290959Y-145527471D01*
X178284112Y-145529740D01*
X178277968Y-145533529D01*
X178277965Y-145533531D01*
X178140934Y-145618051D01*
X178140926Y-145618057D01*
X178134790Y-145621842D01*
X178129688Y-145626943D01*
X178129684Y-145626947D01*
X178015839Y-145740792D01*
X178015835Y-145740796D01*
X178010734Y-145745898D01*
X178006949Y-145752034D01*
X178006943Y-145752042D01*
X177922425Y-145889070D01*
X177919131Y-145894410D01*
X177919129Y-145894413D01*
X177918632Y-145895220D01*
X177918495Y-145895136D01*
X177875090Y-145944633D01*
X177808463Y-145964054D01*
X176927273Y-145964054D01*
X176879820Y-145954615D01*
X176839592Y-145927735D01*
X175671339Y-144759482D01*
X175666222Y-144754047D01*
X175626329Y-144709017D01*
X175576810Y-144674836D01*
X175570804Y-144670416D01*
X175529361Y-144637947D01*
X175529358Y-144637945D01*
X175523457Y-144633322D01*
X175516619Y-144630244D01*
X175516610Y-144630239D01*
X175514210Y-144629159D01*
X175494668Y-144618137D01*
X175492507Y-144616645D01*
X175492502Y-144616642D01*
X175486330Y-144612382D01*
X175459446Y-144602186D01*
X175430102Y-144591057D01*
X175423184Y-144588191D01*
X175375172Y-144566583D01*
X175375169Y-144566582D01*
X175368332Y-144563505D01*
X175360960Y-144562154D01*
X175360951Y-144562151D01*
X175358352Y-144561675D01*
X175336740Y-144555650D01*
X175334291Y-144554721D01*
X175334285Y-144554719D01*
X175327272Y-144552060D01*
X175319830Y-144551156D01*
X175319825Y-144551155D01*
X175267571Y-144544810D01*
X175260171Y-144543683D01*
X175208387Y-144534194D01*
X175208382Y-144534193D01*
X175201006Y-144532842D01*
X175193526Y-144533294D01*
X175193518Y-144533294D01*
X175140967Y-144536474D01*
X175133479Y-144536700D01*
X172568899Y-144536700D01*
X172506899Y-144520087D01*
X172461512Y-144474700D01*
X172444899Y-144412700D01*
X172444899Y-144342639D01*
X172444899Y-144339328D01*
X172438491Y-144279717D01*
X172388196Y-144144869D01*
X172301946Y-144029654D01*
X172186731Y-143943404D01*
X172051883Y-143893109D01*
X172044170Y-143892279D01*
X172044167Y-143892279D01*
X171995580Y-143887055D01*
X171995569Y-143887054D01*
X171992273Y-143886700D01*
X171988950Y-143886700D01*
X170199839Y-143886700D01*
X170199820Y-143886700D01*
X170196528Y-143886701D01*
X170193250Y-143887053D01*
X170193238Y-143887054D01*
X170144631Y-143892279D01*
X170144625Y-143892280D01*
X170136917Y-143893109D01*
X170129652Y-143895818D01*
X170129646Y-143895820D01*
X170010380Y-143940304D01*
X170010378Y-143940304D01*
X170002069Y-143943404D01*
X169994972Y-143948716D01*
X169994968Y-143948719D01*
X169893950Y-144024341D01*
X169893946Y-144024344D01*
X169886854Y-144029654D01*
X169881544Y-144036746D01*
X169881541Y-144036750D01*
X169805919Y-144137768D01*
X169805916Y-144137772D01*
X169800604Y-144144869D01*
X169797504Y-144153178D01*
X169797505Y-144153178D01*
X169751589Y-144276283D01*
X169716610Y-144326662D01*
X169661765Y-144354115D01*
X169600472Y-144351926D01*
X169547726Y-144320630D01*
X169429630Y-144202534D01*
X169425801Y-144198705D01*
X169322573Y-144126424D01*
X169286309Y-144086849D01*
X169270168Y-144035656D01*
X169277174Y-143982439D01*
X169306011Y-143937172D01*
X169479731Y-143763452D01*
X169485151Y-143758350D01*
X169530183Y-143718457D01*
X169564355Y-143668948D01*
X169568775Y-143662941D01*
X169605878Y-143615585D01*
X169610034Y-143606349D01*
X169621066Y-143586789D01*
X169621453Y-143586228D01*
X169659985Y-143550183D01*
X169710020Y-143533422D01*
X169762494Y-143538983D01*
X169796869Y-143550374D01*
X169810041Y-143553194D01*
X169902890Y-143562680D01*
X169909168Y-143563000D01*
X169964674Y-143563000D01*
X169977549Y-143559549D01*
X169981000Y-143546674D01*
X169981000Y-143546673D01*
X170481000Y-143546673D01*
X170484450Y-143559548D01*
X170497326Y-143562999D01*
X170552829Y-143562999D01*
X170559111Y-143562678D01*
X170651959Y-143553194D01*
X170665122Y-143550376D01*
X170818267Y-143499629D01*
X170831266Y-143493567D01*
X170968194Y-143409109D01*
X170979455Y-143400205D01*
X171093205Y-143286455D01*
X171102109Y-143275194D01*
X171186567Y-143138266D01*
X171192629Y-143125266D01*
X171196096Y-143114805D01*
X171226120Y-143066126D01*
X171274798Y-143036099D01*
X171331774Y-143031114D01*
X171384927Y-143052231D01*
X171554774Y-143171160D01*
X171564114Y-143176553D01*
X171752532Y-143264413D01*
X171762674Y-143268105D01*
X171963486Y-143321911D01*
X171974101Y-143323783D01*
X172181205Y-143341903D01*
X172191995Y-143341903D01*
X172399098Y-143323783D01*
X172409713Y-143321911D01*
X172610525Y-143268105D01*
X172620667Y-143264413D01*
X172809085Y-143176553D01*
X172818417Y-143171165D01*
X172865050Y-143138512D01*
X172872481Y-143130403D01*
X172866567Y-143121120D01*
X171920728Y-142175281D01*
X171888634Y-142119694D01*
X171888634Y-142087599D01*
X172545031Y-142087599D01*
X172551695Y-142099142D01*
X173220120Y-142767567D01*
X173229403Y-142773481D01*
X173237512Y-142766050D01*
X173270165Y-142719417D01*
X173275553Y-142710085D01*
X173363413Y-142521667D01*
X173367105Y-142511525D01*
X173420911Y-142310713D01*
X173422783Y-142300098D01*
X173440903Y-142092995D01*
X173440903Y-142082205D01*
X173422783Y-141875101D01*
X173420911Y-141864486D01*
X173367105Y-141663674D01*
X173363413Y-141653532D01*
X173275555Y-141465120D01*
X173270159Y-141455775D01*
X173237513Y-141409152D01*
X173229401Y-141401719D01*
X173220119Y-141407632D01*
X172551695Y-142076057D01*
X172545031Y-142087599D01*
X171888634Y-142087599D01*
X171888634Y-142055506D01*
X171920728Y-141999919D01*
X172186600Y-141734047D01*
X172866570Y-141054075D01*
X172872481Y-141044797D01*
X172865047Y-141036684D01*
X172818427Y-141004041D01*
X172809077Y-140998643D01*
X172620667Y-140910786D01*
X172610525Y-140907094D01*
X172409713Y-140853288D01*
X172399098Y-140851416D01*
X172191995Y-140833297D01*
X172181205Y-140833297D01*
X171974101Y-140851416D01*
X171963486Y-140853288D01*
X171762674Y-140907094D01*
X171752532Y-140910786D01*
X171564123Y-140998643D01*
X171554773Y-141004041D01*
X171384478Y-141123283D01*
X171377928Y-141128779D01*
X171327691Y-141154233D01*
X171271377Y-141154842D01*
X171220602Y-141130479D01*
X171191387Y-141093242D01*
X171190358Y-141093878D01*
X171102109Y-140950805D01*
X171093205Y-140939544D01*
X170979455Y-140825794D01*
X170968194Y-140816890D01*
X170831266Y-140732432D01*
X170818267Y-140726370D01*
X170665125Y-140675624D01*
X170651958Y-140672805D01*
X170559109Y-140663319D01*
X170552832Y-140663000D01*
X170497326Y-140663000D01*
X170484450Y-140666450D01*
X170481000Y-140679326D01*
X170481000Y-143546673D01*
X169981000Y-143546673D01*
X169981000Y-140679327D01*
X169977549Y-140666451D01*
X169964674Y-140663001D01*
X169909171Y-140663001D01*
X169902888Y-140663321D01*
X169839101Y-140669837D01*
X169771925Y-140657823D01*
X169721278Y-140612087D01*
X169702500Y-140546479D01*
X169702500Y-138300701D01*
X169712256Y-138252490D01*
X169739989Y-138211865D01*
X169751658Y-138200502D01*
X170315627Y-137651294D01*
X170383020Y-137585665D01*
X170422839Y-137559628D01*
X170469531Y-137550501D01*
X170762001Y-137550501D01*
X170824001Y-137567114D01*
G37*
%TD.AperFunction*%
%TD*%
%TA.AperFunction,Conductor*%
%TO.N,GNDA*%
G36*
X167555549Y-134317158D02*
G01*
X167600948Y-134362656D01*
X167617471Y-134424770D01*
X167612608Y-136656854D01*
X167612608Y-136656870D01*
X167612601Y-136660512D01*
X167613022Y-136664133D01*
X167613023Y-136664150D01*
X167620710Y-136730259D01*
X167626337Y-136778656D01*
X167627184Y-136782214D01*
X167627186Y-136782226D01*
X167638903Y-136831456D01*
X167638906Y-136831468D01*
X167639753Y-136835024D01*
X167641011Y-136838455D01*
X167641014Y-136838463D01*
X167675778Y-136933233D01*
X167680714Y-136946689D01*
X167684767Y-136952776D01*
X167684768Y-136952778D01*
X167707733Y-136987269D01*
X167746632Y-137045692D01*
X167749000Y-137048473D01*
X167749003Y-137048477D01*
X167769442Y-137072482D01*
X167784199Y-137089813D01*
X167786884Y-137092302D01*
X167805302Y-137109376D01*
X167838418Y-137160446D01*
X167843244Y-137221121D01*
X167818615Y-137276783D01*
X167802749Y-137297035D01*
X167802743Y-137297043D01*
X167798122Y-137302943D01*
X167795044Y-137309780D01*
X167795043Y-137309783D01*
X167793962Y-137312185D01*
X167782940Y-137331727D01*
X167781441Y-137333898D01*
X167781437Y-137333904D01*
X167777182Y-137340070D01*
X167774526Y-137347070D01*
X167774522Y-137347080D01*
X167755853Y-137396305D01*
X167752989Y-137403219D01*
X167731382Y-137451229D01*
X167731379Y-137451235D01*
X167728305Y-137458068D01*
X167726953Y-137465439D01*
X167726951Y-137465449D01*
X167726474Y-137468053D01*
X167720456Y-137489643D01*
X167719519Y-137492114D01*
X167719517Y-137492119D01*
X167716860Y-137499128D01*
X167715956Y-137506565D01*
X167715956Y-137506569D01*
X167709610Y-137558827D01*
X167708483Y-137566226D01*
X167698994Y-137618010D01*
X167698993Y-137618018D01*
X167697642Y-137625394D01*
X167698094Y-137632873D01*
X167698094Y-137632881D01*
X167701274Y-137685433D01*
X167701500Y-137692921D01*
X167701500Y-140565663D01*
X167687903Y-140622119D01*
X167650093Y-140666193D01*
X167596362Y-140688220D01*
X167538495Y-140683369D01*
X167515122Y-140675623D01*
X167501958Y-140672805D01*
X167409109Y-140663319D01*
X167402832Y-140663000D01*
X167347326Y-140663000D01*
X167334450Y-140666450D01*
X167331000Y-140679326D01*
X167331000Y-142239000D01*
X167314387Y-142301000D01*
X167269000Y-142346387D01*
X167207000Y-142363000D01*
X166086787Y-142363000D01*
X166039334Y-142353561D01*
X166026007Y-142344656D01*
X165999674Y-142337600D01*
X164043127Y-142337600D01*
X164030251Y-142341050D01*
X164026801Y-142353926D01*
X164026801Y-142784429D01*
X164027121Y-142790711D01*
X164036605Y-142883557D01*
X164039424Y-142896723D01*
X164058949Y-142955646D01*
X164062704Y-143019615D01*
X164034023Y-143076917D01*
X164033350Y-143077676D01*
X164028251Y-143083090D01*
X163406290Y-143705051D01*
X163400838Y-143710184D01*
X163361431Y-143745096D01*
X163361425Y-143745102D01*
X163355817Y-143750071D01*
X163351560Y-143756236D01*
X163351551Y-143756248D01*
X163321649Y-143799568D01*
X163317213Y-143805597D01*
X163284749Y-143847035D01*
X163284743Y-143847043D01*
X163280122Y-143852943D01*
X163277044Y-143859780D01*
X163277043Y-143859783D01*
X163275962Y-143862185D01*
X163264940Y-143881727D01*
X163263441Y-143883898D01*
X163263437Y-143883904D01*
X163259182Y-143890070D01*
X163256526Y-143897070D01*
X163256522Y-143897080D01*
X163237853Y-143946305D01*
X163234989Y-143953219D01*
X163213382Y-144001229D01*
X163213379Y-144001235D01*
X163210305Y-144008068D01*
X163208953Y-144015439D01*
X163208951Y-144015449D01*
X163208474Y-144018053D01*
X163202456Y-144039643D01*
X163201519Y-144042114D01*
X163201517Y-144042119D01*
X163198860Y-144049128D01*
X163197956Y-144056565D01*
X163197956Y-144056569D01*
X163191610Y-144108827D01*
X163190483Y-144116226D01*
X163180994Y-144168010D01*
X163180993Y-144168018D01*
X163179642Y-144175394D01*
X163180094Y-144182873D01*
X163180094Y-144182881D01*
X163183274Y-144235433D01*
X163183500Y-144242921D01*
X163183500Y-145625300D01*
X163166887Y-145687300D01*
X163121500Y-145732687D01*
X163059500Y-145749300D01*
X161965824Y-145749300D01*
X161901960Y-145731589D01*
X161856340Y-145683517D01*
X161841994Y-145618814D01*
X161863021Y-145555964D01*
X161908436Y-145517171D01*
X161907795Y-145516061D01*
X161921817Y-145507965D01*
X161968450Y-145475312D01*
X161975881Y-145467203D01*
X161969967Y-145457920D01*
X161301542Y-144789495D01*
X161290000Y-144782831D01*
X161278457Y-144789495D01*
X160610028Y-145457923D01*
X160604117Y-145467202D01*
X160611550Y-145475313D01*
X160658172Y-145507958D01*
X160672208Y-145516062D01*
X160671566Y-145517173D01*
X160716979Y-145555964D01*
X160738006Y-145618814D01*
X160723660Y-145683517D01*
X160678040Y-145731589D01*
X160614176Y-145749300D01*
X158994059Y-145749300D01*
X158927738Y-145730074D01*
X158881984Y-145678358D01*
X158870983Y-145610188D01*
X158898148Y-145546705D01*
X158955055Y-145507594D01*
X158966179Y-145503907D01*
X159114334Y-145454814D01*
X159263656Y-145362712D01*
X159387712Y-145238656D01*
X159479814Y-145089334D01*
X159534999Y-144922797D01*
X159545500Y-144820009D01*
X159545500Y-144429795D01*
X160035697Y-144429795D01*
X160053816Y-144636898D01*
X160055688Y-144647513D01*
X160109494Y-144848325D01*
X160113186Y-144858467D01*
X160201043Y-145046877D01*
X160206441Y-145056227D01*
X160239084Y-145102847D01*
X160247197Y-145110281D01*
X160256475Y-145104370D01*
X160924904Y-144435942D01*
X160931568Y-144424399D01*
X160924904Y-144412857D01*
X160256476Y-143744429D01*
X160247197Y-143738518D01*
X160239086Y-143745951D01*
X160206441Y-143792573D01*
X160201043Y-143801923D01*
X160113186Y-143990332D01*
X160109494Y-144000474D01*
X160055688Y-144201286D01*
X160053816Y-144211901D01*
X160035697Y-144419005D01*
X160035697Y-144429795D01*
X159545500Y-144429795D01*
X159545499Y-143469992D01*
X159534999Y-143367203D01*
X159479814Y-143200666D01*
X159403954Y-143077676D01*
X159391502Y-143057488D01*
X159391500Y-143057485D01*
X159387712Y-143051344D01*
X159263656Y-142927288D01*
X159257507Y-142923495D01*
X159257503Y-142923492D01*
X159173245Y-142871522D01*
X159141696Y-142843672D01*
X159127311Y-142817748D01*
X159126112Y-142818326D01*
X159123086Y-142812044D01*
X159120789Y-142805478D01*
X159100422Y-142773064D01*
X159093697Y-142760895D01*
X159080114Y-142732690D01*
X159080113Y-142732688D01*
X159077091Y-142726413D01*
X159053223Y-142696484D01*
X159045177Y-142685143D01*
X159032456Y-142664898D01*
X159024816Y-142652738D01*
X158897262Y-142525184D01*
X158897261Y-142525183D01*
X158660929Y-142288851D01*
X158629923Y-142237079D01*
X158627028Y-142176802D01*
X158652929Y-142122296D01*
X158701491Y-142086471D01*
X158761211Y-142077812D01*
X158811991Y-142083000D01*
X160212008Y-142082999D01*
X160314797Y-142072499D01*
X160481334Y-142017314D01*
X160630656Y-141925212D01*
X160689620Y-141866247D01*
X160738981Y-141835998D01*
X160796697Y-141831456D01*
X160850185Y-141853611D01*
X160887785Y-141897634D01*
X160901300Y-141953929D01*
X160901300Y-142784458D01*
X160901300Y-142784477D01*
X160901301Y-142787608D01*
X160901620Y-142790740D01*
X160901621Y-142790741D01*
X160911112Y-142883661D01*
X160911113Y-142883669D01*
X160911801Y-142890397D01*
X160913929Y-142896819D01*
X160913930Y-142896823D01*
X160958928Y-143032617D01*
X160966986Y-143056934D01*
X160970777Y-143063080D01*
X160971645Y-143064941D01*
X160983262Y-143117345D01*
X160971645Y-143169749D01*
X160938969Y-143212333D01*
X160891358Y-143237119D01*
X160866075Y-143243894D01*
X160855935Y-143247584D01*
X160667523Y-143335443D01*
X160658173Y-143340841D01*
X160611551Y-143373486D01*
X160604118Y-143381597D01*
X160610029Y-143390876D01*
X162323520Y-145104367D01*
X162332803Y-145110281D01*
X162340912Y-145102850D01*
X162373565Y-145056217D01*
X162378953Y-145046885D01*
X162466813Y-144858467D01*
X162470505Y-144848325D01*
X162524311Y-144647513D01*
X162526183Y-144636898D01*
X162544303Y-144429795D01*
X162544303Y-144419005D01*
X162526183Y-144211901D01*
X162524311Y-144201286D01*
X162470505Y-144000474D01*
X162466813Y-143990332D01*
X162378956Y-143801923D01*
X162373558Y-143792573D01*
X162296990Y-143683222D01*
X162274830Y-143620209D01*
X162288576Y-143554842D01*
X162334237Y-143506090D01*
X162398564Y-143488099D01*
X162526808Y-143488099D01*
X162629597Y-143477599D01*
X162796134Y-143422414D01*
X162945456Y-143330312D01*
X163069512Y-143206256D01*
X163161614Y-143056934D01*
X163216799Y-142890397D01*
X163227300Y-142787609D01*
X163227299Y-141821274D01*
X164026800Y-141821274D01*
X164030250Y-141834149D01*
X164043126Y-141837600D01*
X164922974Y-141837600D01*
X164935849Y-141834149D01*
X164939300Y-141821274D01*
X165439300Y-141821274D01*
X165442750Y-141834149D01*
X165455626Y-141837600D01*
X166321013Y-141837600D01*
X166368466Y-141847039D01*
X166381792Y-141855943D01*
X166408126Y-141863000D01*
X166814674Y-141863000D01*
X166827549Y-141859549D01*
X166831000Y-141846674D01*
X166831000Y-140679327D01*
X166827549Y-140666451D01*
X166814674Y-140663001D01*
X166759171Y-140663001D01*
X166752888Y-140663321D01*
X166660040Y-140672805D01*
X166646877Y-140675623D01*
X166493732Y-140726370D01*
X166480733Y-140732432D01*
X166343805Y-140816890D01*
X166332544Y-140825794D01*
X166279281Y-140879058D01*
X166223694Y-140911152D01*
X166159506Y-140911152D01*
X166103919Y-140879058D01*
X166075255Y-140850394D01*
X166063994Y-140841490D01*
X165927066Y-140757032D01*
X165914067Y-140750970D01*
X165760925Y-140700224D01*
X165747758Y-140697405D01*
X165654909Y-140687919D01*
X165648632Y-140687600D01*
X165455626Y-140687600D01*
X165442750Y-140691050D01*
X165439300Y-140703926D01*
X165439300Y-141821274D01*
X164939300Y-141821274D01*
X164939300Y-140703927D01*
X164935849Y-140691051D01*
X164922974Y-140687601D01*
X164729971Y-140687601D01*
X164723688Y-140687921D01*
X164630840Y-140697405D01*
X164617677Y-140700223D01*
X164464532Y-140750970D01*
X164451533Y-140757032D01*
X164314605Y-140841490D01*
X164303344Y-140850394D01*
X164189594Y-140964144D01*
X164180690Y-140975405D01*
X164096232Y-141112333D01*
X164090170Y-141125332D01*
X164039424Y-141278474D01*
X164036605Y-141291641D01*
X164027119Y-141384490D01*
X164026800Y-141390768D01*
X164026800Y-141821274D01*
X163227299Y-141821274D01*
X163227299Y-141387592D01*
X163216799Y-141284803D01*
X163161614Y-141118266D01*
X163099263Y-141017178D01*
X163073302Y-140975088D01*
X163073300Y-140975085D01*
X163069512Y-140968944D01*
X162945456Y-140844888D01*
X162939315Y-140841100D01*
X162939311Y-140841097D01*
X162802280Y-140756577D01*
X162796134Y-140752786D01*
X162769215Y-140743866D01*
X162636025Y-140699731D01*
X162636024Y-140699730D01*
X162629597Y-140697601D01*
X162622866Y-140696913D01*
X162622860Y-140696912D01*
X162589289Y-140693483D01*
X162525337Y-140667671D01*
X162485065Y-140611687D01*
X162480930Y-140542846D01*
X162514209Y-140482446D01*
X163410418Y-139586238D01*
X163459782Y-139555988D01*
X163517498Y-139551446D01*
X163570985Y-139573601D01*
X163608585Y-139617624D01*
X163622100Y-139673919D01*
X163622100Y-139710416D01*
X163622453Y-139717012D01*
X163627673Y-139765565D01*
X163631211Y-139780539D01*
X163675647Y-139899675D01*
X163684062Y-139915087D01*
X163759598Y-140015990D01*
X163772007Y-140028399D01*
X163872910Y-140103935D01*
X163888322Y-140112350D01*
X164007458Y-140156786D01*
X164022432Y-140160324D01*
X164070985Y-140165544D01*
X164077582Y-140165898D01*
X164715374Y-140165898D01*
X164728249Y-140162447D01*
X164731700Y-140149572D01*
X164731700Y-139640399D01*
X164748313Y-139578399D01*
X164793700Y-139533012D01*
X164855699Y-139516399D01*
X164951433Y-139516398D01*
X165046332Y-139516398D01*
X165101175Y-139529185D01*
X165144707Y-139564910D01*
X165167949Y-139616204D01*
X165166108Y-139672488D01*
X165163500Y-139682222D01*
X165163500Y-140149572D01*
X165166950Y-140162447D01*
X165179826Y-140165898D01*
X165817618Y-140165898D01*
X165824214Y-140165544D01*
X165872767Y-140160324D01*
X165887741Y-140156786D01*
X166006877Y-140112350D01*
X166022289Y-140103935D01*
X166123192Y-140028399D01*
X166135601Y-140015990D01*
X166211137Y-139915087D01*
X166219552Y-139899675D01*
X166263988Y-139780539D01*
X166267526Y-139765565D01*
X166272746Y-139717012D01*
X166273100Y-139710416D01*
X166273100Y-139682224D01*
X166269649Y-139669348D01*
X166256774Y-139665898D01*
X166112537Y-139665898D01*
X166053110Y-139650730D01*
X166008222Y-139608938D01*
X165988853Y-139550745D01*
X165999742Y-139490387D01*
X166038226Y-139442632D01*
X166123545Y-139378761D01*
X166123545Y-139378760D01*
X166130646Y-139373445D01*
X166203769Y-139275764D01*
X166233533Y-139247385D01*
X166269575Y-139230924D01*
X166273100Y-139217772D01*
X166273100Y-139189580D01*
X166272745Y-139182967D01*
X166268190Y-139140596D01*
X166268190Y-139114090D01*
X166273600Y-139063772D01*
X166273599Y-138536227D01*
X166268189Y-138485899D01*
X166268190Y-138459396D01*
X166272745Y-138417026D01*
X166273100Y-138410416D01*
X166273100Y-138382224D01*
X166269575Y-138369070D01*
X166233529Y-138352608D01*
X166203766Y-138324229D01*
X166174148Y-138284665D01*
X166130646Y-138226553D01*
X166132683Y-138225027D01*
X166107895Y-138182093D01*
X166107895Y-138117905D01*
X166132683Y-138074971D01*
X166130646Y-138073446D01*
X166175980Y-138012887D01*
X166203769Y-137975764D01*
X166233533Y-137947385D01*
X166269575Y-137930924D01*
X166273100Y-137917772D01*
X166273100Y-137889580D01*
X166272745Y-137882967D01*
X166268190Y-137840596D01*
X166268190Y-137814090D01*
X166273600Y-137763772D01*
X166273599Y-137236227D01*
X166268441Y-137188244D01*
X166268441Y-137161745D01*
X166273600Y-137113771D01*
X166273599Y-136586226D01*
X166268441Y-136538243D01*
X166268441Y-136511746D01*
X166273600Y-136463772D01*
X166273599Y-135936227D01*
X166268441Y-135888244D01*
X166268441Y-135861748D01*
X166273600Y-135813774D01*
X166273599Y-135286229D01*
X166268441Y-135238246D01*
X166268441Y-135211746D01*
X166273600Y-135163772D01*
X166273599Y-134636227D01*
X166268441Y-134588244D01*
X166268441Y-134561748D01*
X166273600Y-134513774D01*
X166273600Y-134424500D01*
X166290213Y-134362500D01*
X166335600Y-134317113D01*
X166397600Y-134300500D01*
X167493471Y-134300500D01*
X167555549Y-134317158D01*
G37*
%TD.AperFunction*%
%TA.AperFunction,Conductor*%
G36*
X165720837Y-120866186D02*
G01*
X165775734Y-120881391D01*
X165818041Y-120919540D01*
X165838826Y-120972580D01*
X165833702Y-121029315D01*
X165803751Y-121077773D01*
X165767231Y-121114293D01*
X165767225Y-121114299D01*
X165763402Y-121118123D01*
X165760299Y-121122553D01*
X165760296Y-121122558D01*
X165641006Y-121292922D01*
X165641001Y-121292929D01*
X165637898Y-121297362D01*
X165635610Y-121302268D01*
X165635608Y-121302272D01*
X165547712Y-121490763D01*
X165547707Y-121490774D01*
X165545425Y-121495670D01*
X165544025Y-121500892D01*
X165544024Y-121500897D01*
X165490194Y-121701790D01*
X165490191Y-121701802D01*
X165488793Y-121707023D01*
X165488321Y-121712412D01*
X165488320Y-121712421D01*
X165470467Y-121916487D01*
X165469723Y-121925000D01*
X165470195Y-121930395D01*
X165488320Y-122137578D01*
X165488321Y-122137585D01*
X165488793Y-122142977D01*
X165490192Y-122148199D01*
X165490194Y-122148209D01*
X165535120Y-122315873D01*
X165545425Y-122354330D01*
X165547709Y-122359229D01*
X165547712Y-122359236D01*
X165635611Y-122547736D01*
X165635614Y-122547742D01*
X165637898Y-122552639D01*
X165640997Y-122557066D01*
X165640999Y-122557068D01*
X165760296Y-122727442D01*
X165760299Y-122727446D01*
X165763402Y-122731877D01*
X165918123Y-122886598D01*
X165922556Y-122889702D01*
X165922562Y-122889707D01*
X166035930Y-122969088D01*
X166062673Y-122994517D01*
X166080749Y-123026691D01*
X166100182Y-123077930D01*
X166104442Y-123084102D01*
X166104445Y-123084107D01*
X166105937Y-123086268D01*
X166116959Y-123105810D01*
X166118039Y-123108210D01*
X166118044Y-123108219D01*
X166121122Y-123115057D01*
X166125745Y-123120958D01*
X166125747Y-123120961D01*
X166158216Y-123162404D01*
X166162636Y-123168410D01*
X166196817Y-123217929D01*
X166241847Y-123257822D01*
X166247282Y-123262939D01*
X166365458Y-123381115D01*
X166397072Y-123434962D01*
X166398436Y-123497388D01*
X166369204Y-123552564D01*
X166316789Y-123586499D01*
X166312527Y-123587911D01*
X166312515Y-123587916D01*
X166305666Y-123590186D01*
X166299522Y-123593975D01*
X166299517Y-123593978D01*
X166162496Y-123678494D01*
X166162490Y-123678498D01*
X166156345Y-123682289D01*
X166151238Y-123687395D01*
X166151234Y-123687399D01*
X166037399Y-123801234D01*
X166037395Y-123801238D01*
X166032289Y-123806345D01*
X166028498Y-123812490D01*
X166028494Y-123812496D01*
X165943978Y-123949517D01*
X165943975Y-123949522D01*
X165940186Y-123955666D01*
X165937915Y-123962517D01*
X165937914Y-123962521D01*
X165887131Y-124115774D01*
X165885001Y-124122203D01*
X165884313Y-124128933D01*
X165884312Y-124128940D01*
X165874819Y-124221860D01*
X165874818Y-124221878D01*
X165874500Y-124224992D01*
X165874500Y-126475008D01*
X165874818Y-126478122D01*
X165874819Y-126478139D01*
X165884312Y-126571059D01*
X165884313Y-126571064D01*
X165885001Y-126577797D01*
X165887130Y-126584224D01*
X165887131Y-126584225D01*
X165930583Y-126715356D01*
X165940186Y-126744334D01*
X165943977Y-126750480D01*
X165943978Y-126750482D01*
X166025176Y-126882124D01*
X166032289Y-126893655D01*
X166156345Y-127017711D01*
X166220236Y-127057120D01*
X166247130Y-127073708D01*
X166290311Y-127118814D01*
X166306033Y-127179246D01*
X166306033Y-127428483D01*
X166286612Y-127495110D01*
X166237115Y-127538515D01*
X166237199Y-127538652D01*
X166236392Y-127539149D01*
X166236389Y-127539151D01*
X166231051Y-127542443D01*
X166231049Y-127542445D01*
X166094021Y-127626963D01*
X166094013Y-127626969D01*
X166087877Y-127630754D01*
X166082775Y-127635855D01*
X166082771Y-127635859D01*
X165968926Y-127749704D01*
X165968922Y-127749708D01*
X165963821Y-127754810D01*
X165960036Y-127760946D01*
X165960030Y-127760954D01*
X165875510Y-127897985D01*
X165871719Y-127904132D01*
X165869448Y-127910983D01*
X165869447Y-127910987D01*
X165818664Y-128064240D01*
X165816534Y-128070669D01*
X165815846Y-128077399D01*
X165815845Y-128077406D01*
X165806352Y-128170325D01*
X165806351Y-128170343D01*
X165806033Y-128173457D01*
X165806033Y-128176604D01*
X165806033Y-128176605D01*
X165806033Y-128970324D01*
X165806033Y-128970343D01*
X165806034Y-128973474D01*
X165806353Y-128976606D01*
X165806354Y-128976607D01*
X165815845Y-129069527D01*
X165815846Y-129069535D01*
X165816534Y-129076263D01*
X165818662Y-129082685D01*
X165818663Y-129082689D01*
X165854381Y-129190478D01*
X165871719Y-129242800D01*
X165875510Y-129248946D01*
X165960030Y-129385977D01*
X165960033Y-129385981D01*
X165963821Y-129392122D01*
X165968926Y-129397227D01*
X166057484Y-129485785D01*
X166089578Y-129541372D01*
X166089578Y-129605560D01*
X166057484Y-129661147D01*
X165968932Y-129749698D01*
X165968928Y-129749702D01*
X165963821Y-129754810D01*
X165960031Y-129760953D01*
X165960025Y-129760962D01*
X165927274Y-129814062D01*
X165882167Y-129857243D01*
X165821735Y-129872966D01*
X165761444Y-129872966D01*
X165753957Y-129872740D01*
X165701415Y-129869561D01*
X165701407Y-129869561D01*
X165693928Y-129869109D01*
X165686553Y-129870460D01*
X165686543Y-129870461D01*
X165634776Y-129879947D01*
X165627377Y-129881074D01*
X165575101Y-129887422D01*
X165575095Y-129887423D01*
X165567662Y-129888326D01*
X165560657Y-129890982D01*
X165560646Y-129890985D01*
X165558173Y-129891923D01*
X165536575Y-129897944D01*
X165533985Y-129898418D01*
X165533978Y-129898420D01*
X165526602Y-129899772D01*
X165504444Y-129909744D01*
X165471768Y-129924450D01*
X165464852Y-129927314D01*
X165415622Y-129945985D01*
X165415612Y-129945989D01*
X165408604Y-129948648D01*
X165402433Y-129952907D01*
X165402428Y-129952910D01*
X165400256Y-129954410D01*
X165380721Y-129965428D01*
X165378318Y-129966509D01*
X165378311Y-129966513D01*
X165371477Y-129969589D01*
X165365577Y-129974211D01*
X165365574Y-129974213D01*
X165324129Y-130006682D01*
X165318100Y-130011117D01*
X165274783Y-130041017D01*
X165274775Y-130041023D01*
X165268605Y-130045283D01*
X165263635Y-130050892D01*
X165263628Y-130050899D01*
X165228718Y-130090304D01*
X165223585Y-130095756D01*
X165147635Y-130171706D01*
X165092050Y-130203799D01*
X165027863Y-130203799D01*
X164972275Y-130171705D01*
X164953761Y-130153191D01*
X164948656Y-130148086D01*
X164942515Y-130144298D01*
X164942511Y-130144295D01*
X164805480Y-130059775D01*
X164799334Y-130055984D01*
X164660331Y-130009923D01*
X164639225Y-130002929D01*
X164639224Y-130002928D01*
X164632797Y-130000799D01*
X164626064Y-130000111D01*
X164626059Y-130000110D01*
X164533140Y-129990617D01*
X164533123Y-129990616D01*
X164530009Y-129990298D01*
X164526860Y-129990298D01*
X163133140Y-129990298D01*
X163133120Y-129990298D01*
X163129992Y-129990299D01*
X163126860Y-129990618D01*
X163126858Y-129990619D01*
X163033938Y-130000110D01*
X163033928Y-130000111D01*
X163027203Y-130000799D01*
X163020781Y-130002926D01*
X163020776Y-130002928D01*
X162867521Y-130053712D01*
X162867517Y-130053713D01*
X162860666Y-130055984D01*
X162854522Y-130059773D01*
X162854519Y-130059775D01*
X162717488Y-130144295D01*
X162717480Y-130144301D01*
X162711344Y-130148086D01*
X162706242Y-130153187D01*
X162706238Y-130153191D01*
X162592393Y-130267036D01*
X162592389Y-130267040D01*
X162587288Y-130272142D01*
X162583503Y-130278278D01*
X162583497Y-130278286D01*
X162498976Y-130415318D01*
X162498973Y-130415323D01*
X162495186Y-130421464D01*
X162492916Y-130428312D01*
X162492915Y-130428316D01*
X162477341Y-130475315D01*
X162451790Y-130519277D01*
X162422587Y-130540627D01*
X162423699Y-130542466D01*
X162417281Y-130546345D01*
X162410443Y-130549423D01*
X162404543Y-130554045D01*
X162404540Y-130554047D01*
X162363095Y-130586516D01*
X162357066Y-130590951D01*
X162313749Y-130620851D01*
X162313741Y-130620857D01*
X162307571Y-130625117D01*
X162302601Y-130630726D01*
X162302594Y-130630733D01*
X162267684Y-130670138D01*
X162262551Y-130675590D01*
X161625090Y-131313051D01*
X161619638Y-131318184D01*
X161580231Y-131353096D01*
X161580225Y-131353102D01*
X161574617Y-131358071D01*
X161570360Y-131364236D01*
X161570351Y-131364248D01*
X161540449Y-131407568D01*
X161536013Y-131413597D01*
X161503549Y-131455035D01*
X161503543Y-131455043D01*
X161498922Y-131460943D01*
X161495844Y-131467780D01*
X161495843Y-131467783D01*
X161494762Y-131470185D01*
X161483740Y-131489727D01*
X161482241Y-131491898D01*
X161482237Y-131491904D01*
X161477982Y-131498070D01*
X161475326Y-131505070D01*
X161475322Y-131505080D01*
X161456653Y-131554305D01*
X161453789Y-131561219D01*
X161432182Y-131609229D01*
X161432179Y-131609235D01*
X161429105Y-131616068D01*
X161427753Y-131623439D01*
X161427751Y-131623449D01*
X161427274Y-131626053D01*
X161421256Y-131647643D01*
X161420319Y-131650114D01*
X161420317Y-131650119D01*
X161417660Y-131657128D01*
X161416756Y-131664565D01*
X161416756Y-131664569D01*
X161410410Y-131716827D01*
X161409283Y-131724226D01*
X161399794Y-131776010D01*
X161399793Y-131776018D01*
X161398442Y-131783394D01*
X161398894Y-131790873D01*
X161398894Y-131790881D01*
X161402074Y-131843433D01*
X161402300Y-131850921D01*
X161402300Y-132172281D01*
X161388785Y-132228576D01*
X161351185Y-132272599D01*
X161297698Y-132294754D01*
X161239982Y-132290212D01*
X161190619Y-132259962D01*
X160582939Y-131652282D01*
X160577822Y-131646847D01*
X160537929Y-131601817D01*
X160488410Y-131567636D01*
X160482404Y-131563216D01*
X160440961Y-131530747D01*
X160440958Y-131530745D01*
X160435057Y-131526122D01*
X160428219Y-131523044D01*
X160428210Y-131523039D01*
X160425810Y-131521959D01*
X160406268Y-131510937D01*
X160404107Y-131509445D01*
X160404102Y-131509442D01*
X160397930Y-131505182D01*
X160341702Y-131483857D01*
X160334784Y-131480991D01*
X160286772Y-131459383D01*
X160286769Y-131459382D01*
X160279932Y-131456305D01*
X160272560Y-131454954D01*
X160272551Y-131454951D01*
X160269952Y-131454475D01*
X160248340Y-131448450D01*
X160245891Y-131447521D01*
X160245885Y-131447519D01*
X160238872Y-131444860D01*
X160231430Y-131443956D01*
X160231425Y-131443955D01*
X160179171Y-131437610D01*
X160171771Y-131436483D01*
X160119987Y-131426994D01*
X160119982Y-131426993D01*
X160112606Y-131425642D01*
X160105126Y-131426094D01*
X160105118Y-131426094D01*
X160052567Y-131429274D01*
X160045079Y-131429500D01*
X157176148Y-131429500D01*
X157115716Y-131413777D01*
X157070609Y-131370597D01*
X157063738Y-131359457D01*
X156995512Y-131248844D01*
X156871456Y-131124788D01*
X156865315Y-131121000D01*
X156865311Y-131120997D01*
X156728280Y-131036477D01*
X156722134Y-131032686D01*
X156715282Y-131030415D01*
X156715279Y-131030414D01*
X156640122Y-131005510D01*
X156638295Y-131004904D01*
X156593971Y-130979026D01*
X156563923Y-130937415D01*
X156553300Y-130887199D01*
X156553300Y-130523568D01*
X156553300Y-130516606D01*
X156544781Y-130479284D01*
X156542453Y-130465577D01*
X156541354Y-130455822D01*
X156538168Y-130427545D01*
X156535869Y-130420975D01*
X156535868Y-130420970D01*
X156525525Y-130391413D01*
X156521679Y-130378066D01*
X156513160Y-130340739D01*
X156496547Y-130306243D01*
X156491231Y-130293406D01*
X156480888Y-130263848D01*
X156480887Y-130263847D01*
X156478589Y-130257278D01*
X156458222Y-130224864D01*
X156451497Y-130212695D01*
X156437914Y-130184490D01*
X156437913Y-130184488D01*
X156434891Y-130178213D01*
X156411023Y-130148284D01*
X156402977Y-130136943D01*
X156399233Y-130130985D01*
X156382616Y-130104538D01*
X156352852Y-130074774D01*
X156323605Y-130028371D01*
X156317238Y-129973892D01*
X156334993Y-129922000D01*
X156379814Y-129849334D01*
X156434999Y-129682797D01*
X156445500Y-129580009D01*
X156445500Y-129576829D01*
X157245001Y-129576829D01*
X157245321Y-129583111D01*
X157254805Y-129675959D01*
X157257623Y-129689122D01*
X157308370Y-129842267D01*
X157314432Y-129855266D01*
X157398890Y-129992194D01*
X157407794Y-130003455D01*
X157521544Y-130117205D01*
X157532805Y-130126109D01*
X157669733Y-130210567D01*
X157682732Y-130216629D01*
X157835874Y-130267375D01*
X157849041Y-130270194D01*
X157941890Y-130279680D01*
X157948168Y-130280000D01*
X158128674Y-130280000D01*
X158141549Y-130276549D01*
X158145000Y-130263674D01*
X158145000Y-130263673D01*
X158645000Y-130263673D01*
X158648450Y-130276548D01*
X158661326Y-130279999D01*
X158841829Y-130279999D01*
X158848111Y-130279678D01*
X158940959Y-130270194D01*
X158954122Y-130267376D01*
X159107267Y-130216629D01*
X159120266Y-130210567D01*
X159257194Y-130126109D01*
X159268455Y-130117205D01*
X159382205Y-130003455D01*
X159391109Y-129992194D01*
X159475567Y-129855266D01*
X159481629Y-129842267D01*
X159532375Y-129689125D01*
X159535194Y-129675958D01*
X159544680Y-129583109D01*
X159545000Y-129576832D01*
X159545000Y-129171326D01*
X159541549Y-129158450D01*
X159528674Y-129155000D01*
X158661326Y-129155000D01*
X158648450Y-129158450D01*
X158645000Y-129171326D01*
X158645000Y-130263673D01*
X158145000Y-130263673D01*
X158145000Y-129171326D01*
X158141549Y-129158450D01*
X158128674Y-129155000D01*
X157261327Y-129155000D01*
X157248451Y-129158450D01*
X157245001Y-129171326D01*
X157245001Y-129576829D01*
X156445500Y-129576829D01*
X156445499Y-128638674D01*
X157245000Y-128638674D01*
X157248450Y-128651549D01*
X157261326Y-128655000D01*
X158128674Y-128655000D01*
X158141549Y-128651549D01*
X158145000Y-128638674D01*
X158645000Y-128638674D01*
X158648450Y-128651549D01*
X158661326Y-128655000D01*
X159528673Y-128655000D01*
X159541548Y-128651549D01*
X159544999Y-128638674D01*
X159544999Y-128487627D01*
X162430001Y-128487627D01*
X162430321Y-128493909D01*
X162439805Y-128586757D01*
X162442623Y-128599920D01*
X162493370Y-128753065D01*
X162499432Y-128766064D01*
X162583890Y-128902992D01*
X162592794Y-128914253D01*
X162706544Y-129028003D01*
X162717805Y-129036907D01*
X162854733Y-129121365D01*
X162867732Y-129127427D01*
X163020874Y-129178173D01*
X163034041Y-129180992D01*
X163126890Y-129190478D01*
X163133168Y-129190798D01*
X163563674Y-129190798D01*
X163576549Y-129187347D01*
X163580000Y-129174472D01*
X163580000Y-129174471D01*
X164080000Y-129174471D01*
X164083450Y-129187346D01*
X164096326Y-129190797D01*
X164526829Y-129190797D01*
X164533111Y-129190476D01*
X164625959Y-129180992D01*
X164639122Y-129178174D01*
X164792267Y-129127427D01*
X164805266Y-129121365D01*
X164942194Y-129036907D01*
X164953455Y-129028003D01*
X165067205Y-128914253D01*
X165076109Y-128902992D01*
X165160567Y-128766064D01*
X165166629Y-128753065D01*
X165217375Y-128599923D01*
X165220194Y-128586756D01*
X165229680Y-128493907D01*
X165230000Y-128487630D01*
X165230000Y-128294624D01*
X165226549Y-128281748D01*
X165213674Y-128278298D01*
X164096326Y-128278298D01*
X164083450Y-128281748D01*
X164080000Y-128294624D01*
X164080000Y-129174471D01*
X163580000Y-129174471D01*
X163580000Y-128294624D01*
X163576549Y-128281748D01*
X163563674Y-128278298D01*
X162446327Y-128278298D01*
X162433451Y-128281748D01*
X162430001Y-128294624D01*
X162430001Y-128487627D01*
X159544999Y-128487627D01*
X159544999Y-128233171D01*
X159544678Y-128226888D01*
X159535194Y-128134040D01*
X159532376Y-128120877D01*
X159481629Y-127967732D01*
X159475567Y-127954733D01*
X159391109Y-127817805D01*
X159382205Y-127806544D01*
X159337633Y-127761972D01*
X162430000Y-127761972D01*
X162433450Y-127774847D01*
X162446326Y-127778298D01*
X163563674Y-127778298D01*
X163576549Y-127774847D01*
X163580000Y-127761972D01*
X164080000Y-127761972D01*
X164083450Y-127774847D01*
X164096326Y-127778298D01*
X165213673Y-127778298D01*
X165226548Y-127774847D01*
X165229999Y-127761972D01*
X165229999Y-127568969D01*
X165229678Y-127562686D01*
X165220194Y-127469838D01*
X165217376Y-127456675D01*
X165166629Y-127303530D01*
X165160567Y-127290531D01*
X165076109Y-127153603D01*
X165067205Y-127142342D01*
X164953455Y-127028592D01*
X164942194Y-127019688D01*
X164805266Y-126935230D01*
X164792267Y-126929168D01*
X164639125Y-126878422D01*
X164625958Y-126875603D01*
X164533109Y-126866117D01*
X164526832Y-126865798D01*
X164096326Y-126865798D01*
X164083450Y-126869248D01*
X164080000Y-126882124D01*
X164080000Y-127761972D01*
X163580000Y-127761972D01*
X163580000Y-126882125D01*
X163576549Y-126869249D01*
X163563674Y-126865799D01*
X163133171Y-126865799D01*
X163126888Y-126866119D01*
X163034040Y-126875603D01*
X163020877Y-126878421D01*
X162867732Y-126929168D01*
X162854733Y-126935230D01*
X162717805Y-127019688D01*
X162706544Y-127028592D01*
X162592794Y-127142342D01*
X162583890Y-127153603D01*
X162499432Y-127290531D01*
X162493370Y-127303530D01*
X162442624Y-127456672D01*
X162439805Y-127469839D01*
X162430319Y-127562688D01*
X162430000Y-127568966D01*
X162430000Y-127761972D01*
X159337633Y-127761972D01*
X159268455Y-127692794D01*
X159257194Y-127683890D01*
X159120266Y-127599432D01*
X159107267Y-127593370D01*
X158954125Y-127542624D01*
X158940958Y-127539805D01*
X158848109Y-127530319D01*
X158841832Y-127530000D01*
X158661326Y-127530000D01*
X158648450Y-127533450D01*
X158645000Y-127546326D01*
X158645000Y-128638674D01*
X158145000Y-128638674D01*
X158145000Y-127546327D01*
X158141549Y-127533451D01*
X158128674Y-127530001D01*
X157948171Y-127530001D01*
X157941888Y-127530321D01*
X157849040Y-127539805D01*
X157835877Y-127542623D01*
X157682732Y-127593370D01*
X157669733Y-127599432D01*
X157532805Y-127683890D01*
X157521544Y-127692794D01*
X157407794Y-127806544D01*
X157398890Y-127817805D01*
X157314432Y-127954733D01*
X157308370Y-127967732D01*
X157257624Y-128120874D01*
X157254805Y-128134041D01*
X157245319Y-128226890D01*
X157245000Y-128233168D01*
X157245000Y-128638674D01*
X156445499Y-128638674D01*
X156445499Y-128229992D01*
X156434999Y-128127203D01*
X156379814Y-127960666D01*
X156295500Y-127823970D01*
X156291502Y-127817488D01*
X156291500Y-127817485D01*
X156287712Y-127811344D01*
X156163656Y-127687288D01*
X156157515Y-127683500D01*
X156157511Y-127683497D01*
X156020480Y-127598977D01*
X156014334Y-127595186D01*
X155935216Y-127568969D01*
X155854225Y-127542131D01*
X155854224Y-127542130D01*
X155847797Y-127540001D01*
X155841064Y-127539313D01*
X155841059Y-127539312D01*
X155748140Y-127529819D01*
X155748123Y-127529818D01*
X155745009Y-127529500D01*
X155741860Y-127529500D01*
X154848141Y-127529500D01*
X154848121Y-127529500D01*
X154844992Y-127529501D01*
X154841860Y-127529820D01*
X154841858Y-127529821D01*
X154748938Y-127539312D01*
X154748928Y-127539313D01*
X154742203Y-127540001D01*
X154735781Y-127542128D01*
X154735776Y-127542130D01*
X154582521Y-127592914D01*
X154582517Y-127592915D01*
X154575666Y-127595186D01*
X154569522Y-127598975D01*
X154569519Y-127598977D01*
X154432488Y-127683497D01*
X154432480Y-127683503D01*
X154426344Y-127687288D01*
X154421242Y-127692389D01*
X154421238Y-127692393D01*
X154307393Y-127806238D01*
X154307389Y-127806242D01*
X154302288Y-127811344D01*
X154298503Y-127817480D01*
X154298497Y-127817488D01*
X154213978Y-127954518D01*
X154210186Y-127960666D01*
X154207915Y-127967517D01*
X154207914Y-127967521D01*
X154171502Y-128077406D01*
X154155001Y-128127203D01*
X154154313Y-128133933D01*
X154154312Y-128133940D01*
X154144819Y-128226859D01*
X154144818Y-128226877D01*
X154144500Y-128229991D01*
X154144500Y-128233138D01*
X154144500Y-128233139D01*
X154144500Y-129576859D01*
X154144500Y-129576878D01*
X154144501Y-129580008D01*
X154144820Y-129583140D01*
X154144821Y-129583141D01*
X154154312Y-129676061D01*
X154154313Y-129676069D01*
X154155001Y-129682797D01*
X154157129Y-129689219D01*
X154157130Y-129689223D01*
X154207844Y-129842267D01*
X154210186Y-129849334D01*
X154213976Y-129855478D01*
X154213977Y-129855480D01*
X154298497Y-129992511D01*
X154298500Y-129992515D01*
X154302288Y-129998656D01*
X154426344Y-130122712D01*
X154432498Y-130126507D01*
X154432497Y-130126507D01*
X154435594Y-130128418D01*
X154437716Y-130130635D01*
X154438159Y-130130985D01*
X154438110Y-130131046D01*
X154478777Y-130173525D01*
X154492292Y-130225473D01*
X154493721Y-130225313D01*
X154494500Y-130232228D01*
X154494500Y-130239194D01*
X154496049Y-130245983D01*
X154496050Y-130245988D01*
X154503017Y-130276518D01*
X154505345Y-130290218D01*
X154508852Y-130321336D01*
X154509632Y-130328255D01*
X154511929Y-130334821D01*
X154511930Y-130334823D01*
X154522272Y-130364379D01*
X154526119Y-130377735D01*
X154533088Y-130408267D01*
X154533091Y-130408276D01*
X154534640Y-130415061D01*
X154537658Y-130421329D01*
X154537661Y-130421336D01*
X154551250Y-130449554D01*
X154556568Y-130462393D01*
X154569211Y-130498522D01*
X154572912Y-130504412D01*
X154572913Y-130504414D01*
X154589572Y-130530927D01*
X154596296Y-130543093D01*
X154605328Y-130561846D01*
X154612909Y-130577587D01*
X154632810Y-130602542D01*
X154636771Y-130607509D01*
X154644818Y-130618850D01*
X154655877Y-130636451D01*
X154665184Y-130651262D01*
X154697174Y-130683251D01*
X154697174Y-130683252D01*
X154697175Y-130683253D01*
X154838961Y-130825039D01*
X154870575Y-130878885D01*
X154871939Y-130941310D01*
X154842709Y-130996486D01*
X154796438Y-131026444D01*
X154796867Y-131027362D01*
X154790319Y-131030414D01*
X154783466Y-131032686D01*
X154777322Y-131036475D01*
X154777319Y-131036477D01*
X154640288Y-131120997D01*
X154640280Y-131121003D01*
X154634144Y-131124788D01*
X154629042Y-131129889D01*
X154629038Y-131129893D01*
X154515193Y-131243738D01*
X154515189Y-131243742D01*
X154510088Y-131248844D01*
X154506303Y-131254980D01*
X154506297Y-131254988D01*
X154422937Y-131390139D01*
X154417986Y-131398166D01*
X154415715Y-131405017D01*
X154415714Y-131405021D01*
X154364931Y-131558274D01*
X154362801Y-131564703D01*
X154362113Y-131571433D01*
X154362112Y-131571440D01*
X154352619Y-131664359D01*
X154352618Y-131664377D01*
X154352300Y-131667491D01*
X154352300Y-131670638D01*
X154352300Y-131670639D01*
X154352300Y-132589358D01*
X154352300Y-132589377D01*
X154352301Y-132592508D01*
X154352620Y-132595640D01*
X154352621Y-132595641D01*
X154362112Y-132688561D01*
X154362113Y-132688569D01*
X154362801Y-132695297D01*
X154364929Y-132701721D01*
X154364931Y-132701727D01*
X154377778Y-132740497D01*
X154382629Y-132798364D01*
X154360601Y-132852094D01*
X154316527Y-132889903D01*
X154260072Y-132903500D01*
X153257728Y-132903500D01*
X153201273Y-132889903D01*
X153157199Y-132852094D01*
X153135171Y-132798364D01*
X153140022Y-132740497D01*
X153152868Y-132701728D01*
X153152868Y-132701727D01*
X153154999Y-132695297D01*
X153165500Y-132592509D01*
X153165499Y-131667492D01*
X153154999Y-131564703D01*
X153099814Y-131398166D01*
X153038078Y-131298076D01*
X153011502Y-131254988D01*
X153011500Y-131254985D01*
X153007712Y-131248844D01*
X152884153Y-131125285D01*
X152852059Y-131069697D01*
X152852059Y-131005510D01*
X152884151Y-130949925D01*
X152997827Y-130836251D01*
X152997826Y-130836251D01*
X153029816Y-130804262D01*
X153050192Y-130771831D01*
X153058213Y-130760527D01*
X153082092Y-130730586D01*
X153098704Y-130696088D01*
X153105423Y-130683933D01*
X153125789Y-130651522D01*
X153131063Y-130636451D01*
X153138431Y-130615394D01*
X153143749Y-130602553D01*
X153160360Y-130568061D01*
X153168881Y-130530726D01*
X153172718Y-130517403D01*
X153185368Y-130481255D01*
X153189655Y-130443197D01*
X153191979Y-130429523D01*
X153200500Y-130392194D01*
X153200500Y-130233958D01*
X153216223Y-130173525D01*
X153256889Y-130131046D01*
X153256841Y-130130985D01*
X153257283Y-130130635D01*
X153259406Y-130128418D01*
X153260645Y-130127652D01*
X153268656Y-130122712D01*
X153392712Y-129998656D01*
X153484814Y-129849334D01*
X153539999Y-129682797D01*
X153550500Y-129580009D01*
X153550499Y-128229992D01*
X153539999Y-128127203D01*
X153484814Y-127960666D01*
X153400500Y-127823970D01*
X153396502Y-127817488D01*
X153396500Y-127817485D01*
X153392712Y-127811344D01*
X153268656Y-127687288D01*
X153262515Y-127683500D01*
X153262511Y-127683497D01*
X153125480Y-127598977D01*
X153119334Y-127595186D01*
X153040216Y-127568969D01*
X152959225Y-127542131D01*
X152959224Y-127542130D01*
X152952797Y-127540001D01*
X152946064Y-127539313D01*
X152946059Y-127539312D01*
X152853140Y-127529819D01*
X152853123Y-127529818D01*
X152850009Y-127529500D01*
X152846860Y-127529500D01*
X151953141Y-127529500D01*
X151953121Y-127529500D01*
X151949992Y-127529501D01*
X151946860Y-127529820D01*
X151946858Y-127529821D01*
X151853938Y-127539312D01*
X151853928Y-127539313D01*
X151847203Y-127540001D01*
X151840781Y-127542128D01*
X151840776Y-127542130D01*
X151687521Y-127592914D01*
X151687517Y-127592915D01*
X151680666Y-127595186D01*
X151674522Y-127598975D01*
X151674519Y-127598977D01*
X151537488Y-127683497D01*
X151537480Y-127683503D01*
X151531344Y-127687288D01*
X151526242Y-127692389D01*
X151526238Y-127692393D01*
X151412393Y-127806238D01*
X151412389Y-127806242D01*
X151407288Y-127811344D01*
X151403503Y-127817480D01*
X151403497Y-127817488D01*
X151318978Y-127954518D01*
X151315186Y-127960666D01*
X151312915Y-127967517D01*
X151312914Y-127967521D01*
X151276502Y-128077406D01*
X151260001Y-128127203D01*
X151259313Y-128133933D01*
X151259312Y-128133940D01*
X151249819Y-128226859D01*
X151249818Y-128226877D01*
X151249500Y-128229991D01*
X151249500Y-128233138D01*
X151249500Y-128233139D01*
X151249500Y-129576859D01*
X151249500Y-129576878D01*
X151249501Y-129580008D01*
X151249820Y-129583140D01*
X151249821Y-129583141D01*
X151259312Y-129676061D01*
X151259313Y-129676069D01*
X151260001Y-129682797D01*
X151262129Y-129689219D01*
X151262130Y-129689223D01*
X151312844Y-129842267D01*
X151315186Y-129849334D01*
X151327383Y-129869109D01*
X151403494Y-129992506D01*
X151403497Y-129992509D01*
X151407288Y-129998656D01*
X151411968Y-130003336D01*
X151436481Y-130057263D01*
X151433020Y-130116692D01*
X151402261Y-130167660D01*
X151262735Y-130307186D01*
X151262736Y-130307186D01*
X151135184Y-130434738D01*
X151131479Y-130440632D01*
X151131479Y-130440634D01*
X151114816Y-130467152D01*
X151106773Y-130478487D01*
X151087253Y-130502965D01*
X151087251Y-130502967D01*
X151082909Y-130508413D01*
X151079889Y-130514682D01*
X151079883Y-130514693D01*
X151066299Y-130542900D01*
X151059577Y-130555064D01*
X151045426Y-130577587D01*
X151039211Y-130587478D01*
X151036915Y-130594037D01*
X151036911Y-130594047D01*
X151026565Y-130623613D01*
X151021247Y-130636451D01*
X151007660Y-130664666D01*
X151007657Y-130664671D01*
X151004640Y-130670939D01*
X151003092Y-130677717D01*
X151003089Y-130677728D01*
X150996118Y-130708268D01*
X150992272Y-130721619D01*
X150979632Y-130757745D01*
X150978852Y-130764663D01*
X150978852Y-130764665D01*
X150975345Y-130795781D01*
X150973017Y-130809479D01*
X150966050Y-130840008D01*
X150966048Y-130840020D01*
X150964500Y-130846806D01*
X150964500Y-130853772D01*
X150964500Y-130887199D01*
X150953877Y-130937415D01*
X150923829Y-130979026D01*
X150879504Y-131004904D01*
X150877678Y-131005510D01*
X150802520Y-131030414D01*
X150802514Y-131030416D01*
X150795666Y-131032686D01*
X150789522Y-131036475D01*
X150789519Y-131036477D01*
X150652488Y-131120997D01*
X150652480Y-131121003D01*
X150646344Y-131124788D01*
X150641242Y-131129889D01*
X150641238Y-131129893D01*
X150527393Y-131243738D01*
X150527389Y-131243742D01*
X150522288Y-131248844D01*
X150518503Y-131254980D01*
X150518497Y-131254988D01*
X150435137Y-131390139D01*
X150430186Y-131398166D01*
X150427915Y-131405017D01*
X150427914Y-131405021D01*
X150377131Y-131558274D01*
X150375001Y-131564703D01*
X150374313Y-131571433D01*
X150374312Y-131571440D01*
X150364819Y-131664359D01*
X150364818Y-131664377D01*
X150364500Y-131667491D01*
X150364500Y-131670638D01*
X150364500Y-131670639D01*
X150364500Y-132589358D01*
X150364500Y-132589377D01*
X150364501Y-132592508D01*
X150364820Y-132595640D01*
X150364821Y-132595641D01*
X150374312Y-132688561D01*
X150374313Y-132688569D01*
X150375001Y-132695297D01*
X150377129Y-132701719D01*
X150377130Y-132701723D01*
X150377132Y-132701728D01*
X150430186Y-132861834D01*
X150433977Y-132867980D01*
X150518497Y-133005011D01*
X150518500Y-133005015D01*
X150522288Y-133011156D01*
X150646344Y-133135212D01*
X150652485Y-133139000D01*
X150652488Y-133139002D01*
X150704092Y-133170831D01*
X150795666Y-133227314D01*
X150962203Y-133282499D01*
X151064991Y-133293000D01*
X151068548Y-133292999D01*
X151068664Y-133293026D01*
X151071301Y-133293161D01*
X151071277Y-133293628D01*
X151122847Y-133305504D01*
X151166190Y-133340526D01*
X151182935Y-133361900D01*
X151198216Y-133381404D01*
X151202636Y-133387410D01*
X151236817Y-133436929D01*
X151242434Y-133441905D01*
X151281829Y-133476806D01*
X151287283Y-133481940D01*
X151573575Y-133768232D01*
X151686163Y-133880819D01*
X151716413Y-133930182D01*
X151720955Y-133987898D01*
X151698800Y-134041385D01*
X151654777Y-134078985D01*
X151598482Y-134092500D01*
X151068171Y-134092500D01*
X151061888Y-134092821D01*
X150969040Y-134102305D01*
X150955877Y-134105123D01*
X150802732Y-134155870D01*
X150789733Y-134161932D01*
X150652805Y-134246390D01*
X150641544Y-134255294D01*
X150527794Y-134369044D01*
X150518890Y-134380305D01*
X150434432Y-134517233D01*
X150428370Y-134530232D01*
X150377624Y-134683374D01*
X150374805Y-134696541D01*
X150365319Y-134789390D01*
X150365000Y-134795668D01*
X150365000Y-134988674D01*
X150368450Y-135001549D01*
X150381326Y-135005000D01*
X153148673Y-135005000D01*
X153161548Y-135001549D01*
X153164999Y-134988674D01*
X153164999Y-134795671D01*
X153164678Y-134789388D01*
X153155194Y-134696540D01*
X153152376Y-134683377D01*
X153101629Y-134530232D01*
X153095567Y-134517233D01*
X153080989Y-134493597D01*
X153062557Y-134431205D01*
X153078251Y-134368068D01*
X153123749Y-134321566D01*
X153186528Y-134304500D01*
X154331272Y-134304500D01*
X154394051Y-134321566D01*
X154439549Y-134368068D01*
X154455243Y-134431205D01*
X154436811Y-134493597D01*
X154422232Y-134517233D01*
X154416170Y-134530232D01*
X154365424Y-134683374D01*
X154362605Y-134696541D01*
X154353119Y-134789390D01*
X154352800Y-134795668D01*
X154352800Y-134988674D01*
X154356250Y-135001549D01*
X154369126Y-135005000D01*
X157136473Y-135005000D01*
X157149348Y-135001549D01*
X157152799Y-134988674D01*
X157152799Y-134795671D01*
X157152478Y-134789388D01*
X157142994Y-134696540D01*
X157140176Y-134683377D01*
X157089429Y-134530232D01*
X157083367Y-134517233D01*
X157068789Y-134493597D01*
X157050357Y-134431205D01*
X157066051Y-134368068D01*
X157111549Y-134321566D01*
X157174328Y-134304500D01*
X160186481Y-134304500D01*
X160233934Y-134313939D01*
X160274162Y-134340819D01*
X161035784Y-135102441D01*
X161067878Y-135158028D01*
X161067878Y-135222216D01*
X161035784Y-135277803D01*
X160980197Y-135309897D01*
X160851071Y-135344495D01*
X160840932Y-135348186D01*
X160652523Y-135436043D01*
X160643173Y-135441441D01*
X160596551Y-135474086D01*
X160589118Y-135482197D01*
X160595029Y-135491476D01*
X161540872Y-136437319D01*
X161572966Y-136492906D01*
X161572966Y-136557094D01*
X161540872Y-136612681D01*
X161362681Y-136790872D01*
X161307094Y-136822966D01*
X161242906Y-136822966D01*
X161187319Y-136790872D01*
X160241476Y-135845029D01*
X160232197Y-135839118D01*
X160224086Y-135846551D01*
X160191441Y-135893173D01*
X160186043Y-135902523D01*
X160098186Y-136090932D01*
X160094494Y-136101074D01*
X160040688Y-136301886D01*
X160038816Y-136312501D01*
X160020723Y-136519307D01*
X160000795Y-136576639D01*
X159956045Y-136617645D01*
X159897195Y-136632500D01*
X159778326Y-136632500D01*
X159765450Y-136635950D01*
X159762000Y-136648826D01*
X159762000Y-137921000D01*
X159745387Y-137983000D01*
X159700000Y-138028387D01*
X159638000Y-138045000D01*
X158128327Y-138045000D01*
X158115451Y-138048450D01*
X158112001Y-138061326D01*
X158112001Y-138254329D01*
X158112320Y-138260596D01*
X158112555Y-138262893D01*
X158112463Y-138263405D01*
X158112482Y-138263770D01*
X158112397Y-138263774D01*
X158100543Y-138330072D01*
X158054806Y-138380721D01*
X157989197Y-138399500D01*
X157275604Y-138399500D01*
X157209993Y-138380720D01*
X157164256Y-138330068D01*
X157152406Y-138263778D01*
X157152319Y-138263774D01*
X157152338Y-138263397D01*
X157152247Y-138262887D01*
X157152480Y-138260603D01*
X157152800Y-138254332D01*
X157152800Y-138061326D01*
X157149349Y-138048450D01*
X157136474Y-138045000D01*
X154369127Y-138045000D01*
X154356251Y-138048450D01*
X154352801Y-138061326D01*
X154352801Y-138254329D01*
X154353120Y-138260596D01*
X154353355Y-138262893D01*
X154353263Y-138263405D01*
X154353282Y-138263770D01*
X154353197Y-138263774D01*
X154341343Y-138330072D01*
X154295606Y-138380721D01*
X154229997Y-138399500D01*
X153287804Y-138399500D01*
X153222193Y-138380720D01*
X153176456Y-138330068D01*
X153164606Y-138263778D01*
X153164519Y-138263774D01*
X153164538Y-138263397D01*
X153164447Y-138262887D01*
X153164680Y-138260603D01*
X153165000Y-138254332D01*
X153165000Y-138061326D01*
X153161549Y-138048450D01*
X153148674Y-138045000D01*
X150381327Y-138045000D01*
X150368451Y-138048450D01*
X150365001Y-138061326D01*
X150365001Y-138254329D01*
X150365321Y-138260611D01*
X150374805Y-138353459D01*
X150377623Y-138366622D01*
X150428370Y-138519767D01*
X150434432Y-138532766D01*
X150518890Y-138669694D01*
X150527794Y-138680955D01*
X150641544Y-138794705D01*
X150652805Y-138803609D01*
X150789733Y-138888067D01*
X150802732Y-138894129D01*
X150955874Y-138944875D01*
X150969041Y-138947694D01*
X151061890Y-138957180D01*
X151068168Y-138957499D01*
X151344480Y-138957499D01*
X151400775Y-138971014D01*
X151444798Y-139008613D01*
X151466953Y-139062101D01*
X151462411Y-139119817D01*
X151432161Y-139169180D01*
X151287290Y-139314051D01*
X151281838Y-139319184D01*
X151242431Y-139354096D01*
X151242425Y-139354102D01*
X151236817Y-139359071D01*
X151232560Y-139365236D01*
X151232551Y-139365248D01*
X151202649Y-139408568D01*
X151198213Y-139414597D01*
X151165749Y-139456035D01*
X151165743Y-139456043D01*
X151161122Y-139461943D01*
X151158044Y-139468780D01*
X151158043Y-139468783D01*
X151156962Y-139471185D01*
X151145940Y-139490727D01*
X151144441Y-139492898D01*
X151144437Y-139492904D01*
X151140182Y-139499070D01*
X151137526Y-139506070D01*
X151137522Y-139506080D01*
X151118853Y-139555305D01*
X151115989Y-139562219D01*
X151094382Y-139610229D01*
X151094379Y-139610235D01*
X151091305Y-139617068D01*
X151089953Y-139624439D01*
X151089951Y-139624449D01*
X151089474Y-139627053D01*
X151083456Y-139648643D01*
X151082519Y-139651114D01*
X151082517Y-139651119D01*
X151079860Y-139658128D01*
X151078956Y-139665569D01*
X151077161Y-139672854D01*
X151074859Y-139672286D01*
X151061007Y-139710522D01*
X151021590Y-139749101D01*
X150975412Y-139764717D01*
X150975558Y-139765396D01*
X150969699Y-139766650D01*
X150969342Y-139766771D01*
X150968945Y-139766811D01*
X150968933Y-139766813D01*
X150962203Y-139767501D01*
X150955781Y-139769628D01*
X150955776Y-139769630D01*
X150802521Y-139820414D01*
X150802517Y-139820415D01*
X150795666Y-139822686D01*
X150789522Y-139826475D01*
X150789519Y-139826477D01*
X150652488Y-139910997D01*
X150652480Y-139911003D01*
X150646344Y-139914788D01*
X150641242Y-139919889D01*
X150641238Y-139919893D01*
X150527393Y-140033738D01*
X150527389Y-140033742D01*
X150522288Y-140038844D01*
X150518503Y-140044980D01*
X150518497Y-140044988D01*
X150433977Y-140182019D01*
X150430186Y-140188166D01*
X150375001Y-140354703D01*
X150374313Y-140361433D01*
X150374312Y-140361440D01*
X150364819Y-140454359D01*
X150364818Y-140454377D01*
X150364500Y-140457491D01*
X150364500Y-140460638D01*
X150364500Y-140460639D01*
X150364500Y-141379358D01*
X150364500Y-141379377D01*
X150364501Y-141382508D01*
X150364820Y-141385640D01*
X150364821Y-141385641D01*
X150374312Y-141478561D01*
X150374313Y-141478569D01*
X150375001Y-141485297D01*
X150430186Y-141651834D01*
X150433977Y-141657980D01*
X150518497Y-141795011D01*
X150518500Y-141795015D01*
X150522288Y-141801156D01*
X150646344Y-141925212D01*
X150652485Y-141929000D01*
X150652488Y-141929002D01*
X150684095Y-141948497D01*
X150795666Y-142017314D01*
X150879504Y-142045095D01*
X150923829Y-142070974D01*
X150953877Y-142112585D01*
X150964500Y-142162801D01*
X150964500Y-142203194D01*
X150966049Y-142209983D01*
X150966050Y-142209988D01*
X150973017Y-142240518D01*
X150975345Y-142254218D01*
X150978852Y-142285336D01*
X150979632Y-142292255D01*
X150981929Y-142298821D01*
X150981930Y-142298823D01*
X150992272Y-142328379D01*
X150996119Y-142341735D01*
X151003088Y-142372267D01*
X151003091Y-142372276D01*
X151004640Y-142379061D01*
X151007658Y-142385329D01*
X151007661Y-142385336D01*
X151021250Y-142413554D01*
X151026568Y-142426393D01*
X151039211Y-142462522D01*
X151042912Y-142468412D01*
X151042913Y-142468414D01*
X151059572Y-142494927D01*
X151066296Y-142507093D01*
X151078587Y-142532613D01*
X151082909Y-142541587D01*
X151104567Y-142568745D01*
X151106771Y-142571509D01*
X151114818Y-142582850D01*
X151135184Y-142615262D01*
X151140111Y-142620189D01*
X151140112Y-142620190D01*
X151402261Y-142882339D01*
X151433020Y-142933306D01*
X151436482Y-142992734D01*
X151411969Y-143046662D01*
X151407288Y-143051344D01*
X151403497Y-143057490D01*
X151403494Y-143057494D01*
X151318977Y-143194519D01*
X151315186Y-143200666D01*
X151312915Y-143207517D01*
X151312914Y-143207521D01*
X151266332Y-143348097D01*
X151260001Y-143367203D01*
X151259313Y-143373933D01*
X151259312Y-143373940D01*
X151249819Y-143466859D01*
X151249818Y-143466877D01*
X151249500Y-143469991D01*
X151249500Y-143473138D01*
X151249500Y-143473139D01*
X151249500Y-144816859D01*
X151249500Y-144816878D01*
X151249501Y-144820008D01*
X151249820Y-144823140D01*
X151249821Y-144823141D01*
X151259312Y-144916061D01*
X151259313Y-144916069D01*
X151260001Y-144922797D01*
X151262129Y-144929219D01*
X151262130Y-144929223D01*
X151286177Y-145001792D01*
X151315186Y-145089334D01*
X151318977Y-145095480D01*
X151403497Y-145232511D01*
X151403500Y-145232515D01*
X151407288Y-145238656D01*
X151412393Y-145243761D01*
X151487451Y-145318819D01*
X151517701Y-145368182D01*
X151522243Y-145425898D01*
X151500088Y-145479385D01*
X151456065Y-145516985D01*
X151399770Y-145530500D01*
X150300230Y-145530500D01*
X150243935Y-145516985D01*
X150199912Y-145479385D01*
X150177757Y-145425898D01*
X150182299Y-145368182D01*
X150212549Y-145318819D01*
X150239869Y-145291499D01*
X150292712Y-145238656D01*
X150384814Y-145089334D01*
X150439999Y-144922797D01*
X150450500Y-144820009D01*
X150450499Y-143469992D01*
X150439999Y-143367203D01*
X150384814Y-143200666D01*
X150308954Y-143077676D01*
X150296502Y-143057488D01*
X150296500Y-143057485D01*
X150292712Y-143051344D01*
X150168656Y-142927288D01*
X150162515Y-142923500D01*
X150162511Y-142923497D01*
X150025480Y-142838977D01*
X150019334Y-142835186D01*
X149990864Y-142825752D01*
X149859225Y-142782131D01*
X149859224Y-142782130D01*
X149852797Y-142780001D01*
X149846064Y-142779313D01*
X149846059Y-142779312D01*
X149753140Y-142769819D01*
X149753123Y-142769818D01*
X149750009Y-142769500D01*
X149746860Y-142769500D01*
X149603000Y-142769500D01*
X149541000Y-142752887D01*
X149495613Y-142707500D01*
X149479000Y-142645500D01*
X149479000Y-137528674D01*
X150365000Y-137528674D01*
X150368450Y-137541549D01*
X150381326Y-137545000D01*
X153092902Y-137545000D01*
X153144488Y-137556240D01*
X153186723Y-137587922D01*
X153205055Y-137621628D01*
X153221045Y-137635651D01*
X153362931Y-137701813D01*
X153373072Y-137705504D01*
X153573886Y-137759311D01*
X153584501Y-137761183D01*
X153791605Y-137779303D01*
X153802395Y-137779303D01*
X154009498Y-137761183D01*
X154020113Y-137759311D01*
X154220925Y-137705505D01*
X154231067Y-137701813D01*
X154296756Y-137671182D01*
X154308448Y-137660928D01*
X154316210Y-137634301D01*
X154341436Y-137587921D01*
X154383670Y-137556240D01*
X154435256Y-137545000D01*
X157136473Y-137545000D01*
X157149348Y-137541549D01*
X157152799Y-137528674D01*
X158112000Y-137528674D01*
X158115450Y-137541549D01*
X158128326Y-137545000D01*
X159245674Y-137545000D01*
X159258549Y-137541549D01*
X159262000Y-137528674D01*
X159262000Y-136648827D01*
X159258549Y-136635951D01*
X159245674Y-136632501D01*
X158815171Y-136632501D01*
X158808888Y-136632821D01*
X158716040Y-136642305D01*
X158702877Y-136645123D01*
X158549732Y-136695870D01*
X158536733Y-136701932D01*
X158399805Y-136786390D01*
X158388544Y-136795294D01*
X158274794Y-136909044D01*
X158265890Y-136920305D01*
X158181432Y-137057233D01*
X158175370Y-137070232D01*
X158124624Y-137223374D01*
X158121805Y-137236541D01*
X158112319Y-137329390D01*
X158112000Y-137335668D01*
X158112000Y-137528674D01*
X157152799Y-137528674D01*
X157152799Y-137335671D01*
X157152478Y-137329388D01*
X157142994Y-137236540D01*
X157140176Y-137223377D01*
X157089429Y-137070232D01*
X157083367Y-137057233D01*
X156998909Y-136920305D01*
X156990005Y-136909044D01*
X156876255Y-136795294D01*
X156864994Y-136786390D01*
X156728066Y-136701932D01*
X156715067Y-136695870D01*
X156555496Y-136642994D01*
X156556304Y-136640555D01*
X156508133Y-136615262D01*
X156473689Y-136558228D01*
X156473737Y-136491600D01*
X156508261Y-136434615D01*
X156556312Y-136409471D01*
X156555496Y-136407006D01*
X156715067Y-136354129D01*
X156728066Y-136348067D01*
X156864994Y-136263609D01*
X156876255Y-136254705D01*
X156990005Y-136140955D01*
X156998909Y-136129694D01*
X157083367Y-135992766D01*
X157089429Y-135979767D01*
X157140175Y-135826625D01*
X157142994Y-135813458D01*
X157152480Y-135720609D01*
X157152800Y-135714332D01*
X157152800Y-135521326D01*
X157149349Y-135508450D01*
X157136474Y-135505000D01*
X154435256Y-135505000D01*
X154383670Y-135493760D01*
X154341436Y-135462079D01*
X154316210Y-135415699D01*
X154308448Y-135389071D01*
X154296756Y-135378817D01*
X154231067Y-135348186D01*
X154220925Y-135344494D01*
X154020113Y-135290688D01*
X154009498Y-135288816D01*
X153802395Y-135270697D01*
X153791605Y-135270697D01*
X153584501Y-135288816D01*
X153573886Y-135290688D01*
X153373074Y-135344494D01*
X153362932Y-135348186D01*
X153221044Y-135414350D01*
X153205052Y-135428374D01*
X153186721Y-135462079D01*
X153144487Y-135493760D01*
X153092901Y-135505000D01*
X150381327Y-135505000D01*
X150368451Y-135508450D01*
X150365001Y-135521326D01*
X150365001Y-135714329D01*
X150365321Y-135720611D01*
X150374805Y-135813459D01*
X150377623Y-135826622D01*
X150428370Y-135979767D01*
X150434432Y-135992766D01*
X150518890Y-136129694D01*
X150527794Y-136140955D01*
X150641544Y-136254705D01*
X150652805Y-136263609D01*
X150789733Y-136348067D01*
X150802732Y-136354129D01*
X150962304Y-136407006D01*
X150961492Y-136409455D01*
X151009610Y-136434684D01*
X151044087Y-136491690D01*
X151044087Y-136558310D01*
X151009610Y-136615316D01*
X150961492Y-136640544D01*
X150962304Y-136642994D01*
X150802732Y-136695870D01*
X150789733Y-136701932D01*
X150652805Y-136786390D01*
X150641544Y-136795294D01*
X150527794Y-136909044D01*
X150518890Y-136920305D01*
X150434432Y-137057233D01*
X150428370Y-137070232D01*
X150377624Y-137223374D01*
X150374805Y-137236541D01*
X150365319Y-137329390D01*
X150365000Y-137335668D01*
X150365000Y-137528674D01*
X149479000Y-137528674D01*
X149479000Y-130404499D01*
X149495613Y-130342499D01*
X149541000Y-130297112D01*
X149603000Y-130280499D01*
X149746859Y-130280499D01*
X149750008Y-130280499D01*
X149852797Y-130269999D01*
X150019334Y-130214814D01*
X150168656Y-130122712D01*
X150292712Y-129998656D01*
X150384814Y-129849334D01*
X150439999Y-129682797D01*
X150450500Y-129580009D01*
X150450499Y-128229992D01*
X150439999Y-128127203D01*
X150384814Y-127960666D01*
X150349944Y-127904132D01*
X150318961Y-127853900D01*
X150300500Y-127788804D01*
X150300500Y-125628166D01*
X150319427Y-125562319D01*
X150370432Y-125516575D01*
X150437942Y-125504897D01*
X150501349Y-125530851D01*
X150692230Y-125681588D01*
X150692234Y-125681590D01*
X150695485Y-125684158D01*
X150954730Y-125837709D01*
X150958534Y-125839322D01*
X150958538Y-125839324D01*
X151061551Y-125883005D01*
X151232128Y-125955336D01*
X151522729Y-126034940D01*
X151821347Y-126075100D01*
X152045162Y-126075100D01*
X152047244Y-126075100D01*
X152272634Y-126060012D01*
X152567903Y-125999996D01*
X152852537Y-125901160D01*
X153121459Y-125765268D01*
X153369869Y-125594744D01*
X153593333Y-125392632D01*
X153787865Y-125162539D01*
X153949993Y-124908570D01*
X154076823Y-124635258D01*
X154166093Y-124347479D01*
X154216209Y-124050370D01*
X154221404Y-123894983D01*
X154236393Y-123839902D01*
X154274474Y-123797371D01*
X154327575Y-123776408D01*
X154384439Y-123781458D01*
X154433015Y-123811449D01*
X154969491Y-124347925D01*
X154990228Y-124375427D01*
X155003591Y-124399502D01*
X155014083Y-124411723D01*
X155025224Y-124426896D01*
X155033748Y-124440571D01*
X155047186Y-124454708D01*
X155084220Y-124493667D01*
X155088421Y-124498317D01*
X155136134Y-124553895D01*
X155141104Y-124557742D01*
X155141105Y-124557743D01*
X155148869Y-124563753D01*
X155162841Y-124576376D01*
X155173941Y-124588053D01*
X155179108Y-124591649D01*
X155179110Y-124591651D01*
X155234050Y-124629890D01*
X155239116Y-124633610D01*
X155292067Y-124674598D01*
X155292073Y-124674602D01*
X155297042Y-124678448D01*
X155311507Y-124685543D01*
X155327729Y-124695093D01*
X155335788Y-124700702D01*
X155335791Y-124700704D01*
X155340951Y-124704295D01*
X155346725Y-124706773D01*
X155346729Y-124706775D01*
X155380562Y-124721293D01*
X155408264Y-124733181D01*
X155413954Y-124735795D01*
X155437212Y-124747204D01*
X155474077Y-124765288D01*
X155474080Y-124765289D01*
X155479729Y-124768060D01*
X155495316Y-124772095D01*
X155513137Y-124778187D01*
X155521530Y-124781788D01*
X155527942Y-124784540D01*
X155571181Y-124793425D01*
X155611050Y-124809182D01*
X155643170Y-124837574D01*
X155741109Y-124960386D01*
X155741114Y-124960391D01*
X155744003Y-124964014D01*
X155927540Y-125134312D01*
X155931361Y-125136917D01*
X155931366Y-125136921D01*
X156015123Y-125194025D01*
X156134408Y-125275352D01*
X156359987Y-125383985D01*
X156364415Y-125385351D01*
X156364418Y-125385352D01*
X156397032Y-125395412D01*
X156599236Y-125457784D01*
X156846813Y-125495100D01*
X157092550Y-125495100D01*
X157097187Y-125495100D01*
X157344764Y-125457784D01*
X157458371Y-125422740D01*
X157504189Y-125417579D01*
X157538921Y-125426889D01*
X157539289Y-125425838D01*
X157545866Y-125428139D01*
X157552139Y-125431160D01*
X157589466Y-125439679D01*
X157602813Y-125443525D01*
X157632370Y-125453868D01*
X157632375Y-125453869D01*
X157638945Y-125456168D01*
X157645865Y-125456947D01*
X157650538Y-125458014D01*
X157706340Y-125487134D01*
X157740656Y-125539901D01*
X157765586Y-125615134D01*
X157769377Y-125621280D01*
X157853897Y-125758311D01*
X157853900Y-125758315D01*
X157857688Y-125764456D01*
X157981744Y-125888512D01*
X157987885Y-125892300D01*
X157987888Y-125892302D01*
X158044958Y-125927502D01*
X158131066Y-125980614D01*
X158297603Y-126035799D01*
X158400391Y-126046300D01*
X159300408Y-126046299D01*
X159403197Y-126035799D01*
X159569734Y-125980614D01*
X159719056Y-125888512D01*
X159843112Y-125764456D01*
X159935214Y-125615134D01*
X159990399Y-125448597D01*
X160000900Y-125345809D01*
X160000900Y-125342629D01*
X160800401Y-125342629D01*
X160800721Y-125348911D01*
X160810205Y-125441759D01*
X160813023Y-125454922D01*
X160863770Y-125608067D01*
X160869832Y-125621066D01*
X160954290Y-125757994D01*
X160963194Y-125769255D01*
X161076944Y-125883005D01*
X161088205Y-125891909D01*
X161225133Y-125976367D01*
X161238132Y-125982429D01*
X161391274Y-126033175D01*
X161404441Y-126035994D01*
X161497290Y-126045480D01*
X161503568Y-126045800D01*
X161684074Y-126045800D01*
X161696949Y-126042349D01*
X161700400Y-126029474D01*
X161700400Y-126029473D01*
X162200400Y-126029473D01*
X162203850Y-126042348D01*
X162216726Y-126045799D01*
X162397229Y-126045799D01*
X162403511Y-126045478D01*
X162496359Y-126035994D01*
X162509522Y-126033176D01*
X162662667Y-125982429D01*
X162675666Y-125976367D01*
X162812594Y-125891909D01*
X162823855Y-125883005D01*
X162937605Y-125769255D01*
X162946509Y-125757994D01*
X163030967Y-125621066D01*
X163037029Y-125608067D01*
X163087775Y-125454925D01*
X163090594Y-125441758D01*
X163100080Y-125348909D01*
X163100400Y-125342632D01*
X163100400Y-124937126D01*
X163096949Y-124924250D01*
X163084074Y-124920800D01*
X162216726Y-124920800D01*
X162203850Y-124924250D01*
X162200400Y-124937126D01*
X162200400Y-126029473D01*
X161700400Y-126029473D01*
X161700400Y-124937126D01*
X161696949Y-124924250D01*
X161684074Y-124920800D01*
X160816727Y-124920800D01*
X160803851Y-124924250D01*
X160800401Y-124937126D01*
X160800401Y-125342629D01*
X160000900Y-125342629D01*
X160000899Y-123995792D01*
X159990399Y-123893003D01*
X159935214Y-123726466D01*
X159865440Y-123613344D01*
X159846902Y-123583288D01*
X159846900Y-123583285D01*
X159843112Y-123577144D01*
X159794649Y-123528680D01*
X159764399Y-123479318D01*
X159759857Y-123421602D01*
X159782012Y-123368115D01*
X159826035Y-123330515D01*
X159882330Y-123317000D01*
X160919177Y-123317000D01*
X160975472Y-123330515D01*
X161019495Y-123368115D01*
X161041650Y-123421602D01*
X161037108Y-123479318D01*
X161006858Y-123528681D01*
X160963194Y-123572344D01*
X160954290Y-123583605D01*
X160869832Y-123720533D01*
X160863770Y-123733532D01*
X160813024Y-123886674D01*
X160810205Y-123899841D01*
X160800719Y-123992690D01*
X160800400Y-123998968D01*
X160800400Y-124404474D01*
X160803850Y-124417349D01*
X160816726Y-124420800D01*
X163084073Y-124420800D01*
X163096948Y-124417349D01*
X163100399Y-124404474D01*
X163100399Y-123998971D01*
X163100078Y-123992688D01*
X163090594Y-123899840D01*
X163087776Y-123886677D01*
X163037029Y-123733532D01*
X163030967Y-123720533D01*
X162946509Y-123583605D01*
X162937605Y-123572344D01*
X162823855Y-123458594D01*
X162812588Y-123449685D01*
X162715750Y-123389954D01*
X162675442Y-123349728D01*
X162657364Y-123295728D01*
X162665329Y-123239342D01*
X162697651Y-123192468D01*
X164375000Y-121675000D01*
X165262680Y-120883284D01*
X165303282Y-120859134D01*
X165349975Y-120851922D01*
X165720837Y-120866186D01*
G37*
%TD.AperFunction*%
%TD*%
M02*
