%TF.GenerationSoftware,KiCad,Pcbnew,7.0.1*%
%TF.CreationDate,2023-03-19T11:48:03+01:00*%
%TF.ProjectId,breakout-board-power-measurement,62726561-6b6f-4757-942d-626f6172642d,rev?*%
%TF.SameCoordinates,Original*%
%TF.FileFunction,Drillmap*%
%TF.FilePolarity,Positive*%
%FSLAX45Y45*%
G04 Gerber Fmt 4.5, Leading zero omitted, Abs format (unit mm)*
G04 Created by KiCad (PCBNEW 7.0.1) date 2023-03-19 11:48:03*
%MOMM*%
%LPD*%
G01*
G04 APERTURE LIST*
%ADD10C,0.100000*%
%ADD11C,0.200000*%
%ADD12C,0.400000*%
G04 APERTURE END LIST*
D10*
X11840000Y-11260000D02*
X18900000Y-11260000D01*
X18900000Y-15280000D01*
X11840000Y-15280000D01*
X11840000Y-11260000D01*
D11*
D12*
X14997200Y-12182460D02*
X15397200Y-12582460D01*
X15397200Y-12182460D02*
X14997200Y-12582460D01*
D11*
X12082619Y-15597524D02*
X12082619Y-15397524D01*
X12082619Y-15397524D02*
X12130238Y-15397524D01*
X12130238Y-15397524D02*
X12158809Y-15407048D01*
X12158809Y-15407048D02*
X12177857Y-15426095D01*
X12177857Y-15426095D02*
X12187381Y-15445143D01*
X12187381Y-15445143D02*
X12196905Y-15483238D01*
X12196905Y-15483238D02*
X12196905Y-15511809D01*
X12196905Y-15511809D02*
X12187381Y-15549905D01*
X12187381Y-15549905D02*
X12177857Y-15568952D01*
X12177857Y-15568952D02*
X12158809Y-15588000D01*
X12158809Y-15588000D02*
X12130238Y-15597524D01*
X12130238Y-15597524D02*
X12082619Y-15597524D01*
X12282619Y-15597524D02*
X12282619Y-15464190D01*
X12282619Y-15502286D02*
X12292143Y-15483238D01*
X12292143Y-15483238D02*
X12301667Y-15473714D01*
X12301667Y-15473714D02*
X12320714Y-15464190D01*
X12320714Y-15464190D02*
X12339762Y-15464190D01*
X12406428Y-15597524D02*
X12406428Y-15464190D01*
X12406428Y-15397524D02*
X12396905Y-15407048D01*
X12396905Y-15407048D02*
X12406428Y-15416571D01*
X12406428Y-15416571D02*
X12415952Y-15407048D01*
X12415952Y-15407048D02*
X12406428Y-15397524D01*
X12406428Y-15397524D02*
X12406428Y-15416571D01*
X12530238Y-15597524D02*
X12511190Y-15588000D01*
X12511190Y-15588000D02*
X12501667Y-15568952D01*
X12501667Y-15568952D02*
X12501667Y-15397524D01*
X12635000Y-15597524D02*
X12615952Y-15588000D01*
X12615952Y-15588000D02*
X12606428Y-15568952D01*
X12606428Y-15568952D02*
X12606428Y-15397524D01*
X12863571Y-15597524D02*
X12863571Y-15397524D01*
X12863571Y-15397524D02*
X12930238Y-15540381D01*
X12930238Y-15540381D02*
X12996905Y-15397524D01*
X12996905Y-15397524D02*
X12996905Y-15597524D01*
X13177857Y-15597524D02*
X13177857Y-15492762D01*
X13177857Y-15492762D02*
X13168333Y-15473714D01*
X13168333Y-15473714D02*
X13149286Y-15464190D01*
X13149286Y-15464190D02*
X13111190Y-15464190D01*
X13111190Y-15464190D02*
X13092143Y-15473714D01*
X13177857Y-15588000D02*
X13158809Y-15597524D01*
X13158809Y-15597524D02*
X13111190Y-15597524D01*
X13111190Y-15597524D02*
X13092143Y-15588000D01*
X13092143Y-15588000D02*
X13082619Y-15568952D01*
X13082619Y-15568952D02*
X13082619Y-15549905D01*
X13082619Y-15549905D02*
X13092143Y-15530857D01*
X13092143Y-15530857D02*
X13111190Y-15521333D01*
X13111190Y-15521333D02*
X13158809Y-15521333D01*
X13158809Y-15521333D02*
X13177857Y-15511809D01*
X13273095Y-15464190D02*
X13273095Y-15664190D01*
X13273095Y-15473714D02*
X13292143Y-15464190D01*
X13292143Y-15464190D02*
X13330238Y-15464190D01*
X13330238Y-15464190D02*
X13349286Y-15473714D01*
X13349286Y-15473714D02*
X13358809Y-15483238D01*
X13358809Y-15483238D02*
X13368333Y-15502286D01*
X13368333Y-15502286D02*
X13368333Y-15559428D01*
X13368333Y-15559428D02*
X13358809Y-15578476D01*
X13358809Y-15578476D02*
X13349286Y-15588000D01*
X13349286Y-15588000D02*
X13330238Y-15597524D01*
X13330238Y-15597524D02*
X13292143Y-15597524D01*
X13292143Y-15597524D02*
X13273095Y-15588000D01*
X13454048Y-15578476D02*
X13463571Y-15588000D01*
X13463571Y-15588000D02*
X13454048Y-15597524D01*
X13454048Y-15597524D02*
X13444524Y-15588000D01*
X13444524Y-15588000D02*
X13454048Y-15578476D01*
X13454048Y-15578476D02*
X13454048Y-15597524D01*
X13454048Y-15473714D02*
X13463571Y-15483238D01*
X13463571Y-15483238D02*
X13454048Y-15492762D01*
X13454048Y-15492762D02*
X13444524Y-15483238D01*
X13444524Y-15483238D02*
X13454048Y-15473714D01*
X13454048Y-15473714D02*
X13454048Y-15492762D01*
X11635000Y-15825000D02*
X11835000Y-16025000D01*
X11835000Y-15825000D02*
X11635000Y-16025000D01*
X12168333Y-15884190D02*
X12168333Y-16017524D01*
X12120714Y-15808000D02*
X12073095Y-15950857D01*
X12073095Y-15950857D02*
X12196905Y-15950857D01*
X12273095Y-15998476D02*
X12282619Y-16008000D01*
X12282619Y-16008000D02*
X12273095Y-16017524D01*
X12273095Y-16017524D02*
X12263571Y-16008000D01*
X12263571Y-16008000D02*
X12273095Y-15998476D01*
X12273095Y-15998476D02*
X12273095Y-16017524D01*
X12406428Y-15817524D02*
X12425476Y-15817524D01*
X12425476Y-15817524D02*
X12444524Y-15827048D01*
X12444524Y-15827048D02*
X12454048Y-15836571D01*
X12454048Y-15836571D02*
X12463571Y-15855619D01*
X12463571Y-15855619D02*
X12473095Y-15893714D01*
X12473095Y-15893714D02*
X12473095Y-15941333D01*
X12473095Y-15941333D02*
X12463571Y-15979428D01*
X12463571Y-15979428D02*
X12454048Y-15998476D01*
X12454048Y-15998476D02*
X12444524Y-16008000D01*
X12444524Y-16008000D02*
X12425476Y-16017524D01*
X12425476Y-16017524D02*
X12406428Y-16017524D01*
X12406428Y-16017524D02*
X12387381Y-16008000D01*
X12387381Y-16008000D02*
X12377857Y-15998476D01*
X12377857Y-15998476D02*
X12368333Y-15979428D01*
X12368333Y-15979428D02*
X12358809Y-15941333D01*
X12358809Y-15941333D02*
X12358809Y-15893714D01*
X12358809Y-15893714D02*
X12368333Y-15855619D01*
X12368333Y-15855619D02*
X12377857Y-15836571D01*
X12377857Y-15836571D02*
X12387381Y-15827048D01*
X12387381Y-15827048D02*
X12406428Y-15817524D01*
X12596905Y-15817524D02*
X12615952Y-15817524D01*
X12615952Y-15817524D02*
X12635000Y-15827048D01*
X12635000Y-15827048D02*
X12644524Y-15836571D01*
X12644524Y-15836571D02*
X12654048Y-15855619D01*
X12654048Y-15855619D02*
X12663571Y-15893714D01*
X12663571Y-15893714D02*
X12663571Y-15941333D01*
X12663571Y-15941333D02*
X12654048Y-15979428D01*
X12654048Y-15979428D02*
X12644524Y-15998476D01*
X12644524Y-15998476D02*
X12635000Y-16008000D01*
X12635000Y-16008000D02*
X12615952Y-16017524D01*
X12615952Y-16017524D02*
X12596905Y-16017524D01*
X12596905Y-16017524D02*
X12577857Y-16008000D01*
X12577857Y-16008000D02*
X12568333Y-15998476D01*
X12568333Y-15998476D02*
X12558809Y-15979428D01*
X12558809Y-15979428D02*
X12549286Y-15941333D01*
X12549286Y-15941333D02*
X12549286Y-15893714D01*
X12549286Y-15893714D02*
X12558809Y-15855619D01*
X12558809Y-15855619D02*
X12568333Y-15836571D01*
X12568333Y-15836571D02*
X12577857Y-15827048D01*
X12577857Y-15827048D02*
X12596905Y-15817524D01*
X12787381Y-15817524D02*
X12806429Y-15817524D01*
X12806429Y-15817524D02*
X12825476Y-15827048D01*
X12825476Y-15827048D02*
X12835000Y-15836571D01*
X12835000Y-15836571D02*
X12844524Y-15855619D01*
X12844524Y-15855619D02*
X12854048Y-15893714D01*
X12854048Y-15893714D02*
X12854048Y-15941333D01*
X12854048Y-15941333D02*
X12844524Y-15979428D01*
X12844524Y-15979428D02*
X12835000Y-15998476D01*
X12835000Y-15998476D02*
X12825476Y-16008000D01*
X12825476Y-16008000D02*
X12806429Y-16017524D01*
X12806429Y-16017524D02*
X12787381Y-16017524D01*
X12787381Y-16017524D02*
X12768333Y-16008000D01*
X12768333Y-16008000D02*
X12758809Y-15998476D01*
X12758809Y-15998476D02*
X12749286Y-15979428D01*
X12749286Y-15979428D02*
X12739762Y-15941333D01*
X12739762Y-15941333D02*
X12739762Y-15893714D01*
X12739762Y-15893714D02*
X12749286Y-15855619D01*
X12749286Y-15855619D02*
X12758809Y-15836571D01*
X12758809Y-15836571D02*
X12768333Y-15827048D01*
X12768333Y-15827048D02*
X12787381Y-15817524D01*
X12939762Y-16017524D02*
X12939762Y-15884190D01*
X12939762Y-15903238D02*
X12949286Y-15893714D01*
X12949286Y-15893714D02*
X12968333Y-15884190D01*
X12968333Y-15884190D02*
X12996905Y-15884190D01*
X12996905Y-15884190D02*
X13015952Y-15893714D01*
X13015952Y-15893714D02*
X13025476Y-15912762D01*
X13025476Y-15912762D02*
X13025476Y-16017524D01*
X13025476Y-15912762D02*
X13035000Y-15893714D01*
X13035000Y-15893714D02*
X13054048Y-15884190D01*
X13054048Y-15884190D02*
X13082619Y-15884190D01*
X13082619Y-15884190D02*
X13101667Y-15893714D01*
X13101667Y-15893714D02*
X13111190Y-15912762D01*
X13111190Y-15912762D02*
X13111190Y-16017524D01*
X13206429Y-16017524D02*
X13206429Y-15884190D01*
X13206429Y-15903238D02*
X13215952Y-15893714D01*
X13215952Y-15893714D02*
X13235000Y-15884190D01*
X13235000Y-15884190D02*
X13263571Y-15884190D01*
X13263571Y-15884190D02*
X13282619Y-15893714D01*
X13282619Y-15893714D02*
X13292143Y-15912762D01*
X13292143Y-15912762D02*
X13292143Y-16017524D01*
X13292143Y-15912762D02*
X13301667Y-15893714D01*
X13301667Y-15893714D02*
X13320714Y-15884190D01*
X13320714Y-15884190D02*
X13349286Y-15884190D01*
X13349286Y-15884190D02*
X13368333Y-15893714D01*
X13368333Y-15893714D02*
X13377857Y-15912762D01*
X13377857Y-15912762D02*
X13377857Y-16017524D01*
X13768333Y-15808000D02*
X13596905Y-16065143D01*
X14025476Y-15817524D02*
X14044524Y-15817524D01*
X14044524Y-15817524D02*
X14063572Y-15827048D01*
X14063572Y-15827048D02*
X14073095Y-15836571D01*
X14073095Y-15836571D02*
X14082619Y-15855619D01*
X14082619Y-15855619D02*
X14092143Y-15893714D01*
X14092143Y-15893714D02*
X14092143Y-15941333D01*
X14092143Y-15941333D02*
X14082619Y-15979428D01*
X14082619Y-15979428D02*
X14073095Y-15998476D01*
X14073095Y-15998476D02*
X14063572Y-16008000D01*
X14063572Y-16008000D02*
X14044524Y-16017524D01*
X14044524Y-16017524D02*
X14025476Y-16017524D01*
X14025476Y-16017524D02*
X14006429Y-16008000D01*
X14006429Y-16008000D02*
X13996905Y-15998476D01*
X13996905Y-15998476D02*
X13987381Y-15979428D01*
X13987381Y-15979428D02*
X13977857Y-15941333D01*
X13977857Y-15941333D02*
X13977857Y-15893714D01*
X13977857Y-15893714D02*
X13987381Y-15855619D01*
X13987381Y-15855619D02*
X13996905Y-15836571D01*
X13996905Y-15836571D02*
X14006429Y-15827048D01*
X14006429Y-15827048D02*
X14025476Y-15817524D01*
X14177857Y-15998476D02*
X14187381Y-16008000D01*
X14187381Y-16008000D02*
X14177857Y-16017524D01*
X14177857Y-16017524D02*
X14168333Y-16008000D01*
X14168333Y-16008000D02*
X14177857Y-15998476D01*
X14177857Y-15998476D02*
X14177857Y-16017524D01*
X14377857Y-16017524D02*
X14263572Y-16017524D01*
X14320714Y-16017524D02*
X14320714Y-15817524D01*
X14320714Y-15817524D02*
X14301667Y-15846095D01*
X14301667Y-15846095D02*
X14282619Y-15865143D01*
X14282619Y-15865143D02*
X14263572Y-15874667D01*
X14558810Y-15817524D02*
X14463572Y-15817524D01*
X14463572Y-15817524D02*
X14454048Y-15912762D01*
X14454048Y-15912762D02*
X14463572Y-15903238D01*
X14463572Y-15903238D02*
X14482619Y-15893714D01*
X14482619Y-15893714D02*
X14530238Y-15893714D01*
X14530238Y-15893714D02*
X14549286Y-15903238D01*
X14549286Y-15903238D02*
X14558810Y-15912762D01*
X14558810Y-15912762D02*
X14568333Y-15931809D01*
X14568333Y-15931809D02*
X14568333Y-15979428D01*
X14568333Y-15979428D02*
X14558810Y-15998476D01*
X14558810Y-15998476D02*
X14549286Y-16008000D01*
X14549286Y-16008000D02*
X14530238Y-16017524D01*
X14530238Y-16017524D02*
X14482619Y-16017524D01*
X14482619Y-16017524D02*
X14463572Y-16008000D01*
X14463572Y-16008000D02*
X14454048Y-15998476D01*
X14635000Y-15817524D02*
X14768333Y-15817524D01*
X14768333Y-15817524D02*
X14682619Y-16017524D01*
X14939762Y-15817524D02*
X14844524Y-15817524D01*
X14844524Y-15817524D02*
X14835000Y-15912762D01*
X14835000Y-15912762D02*
X14844524Y-15903238D01*
X14844524Y-15903238D02*
X14863572Y-15893714D01*
X14863572Y-15893714D02*
X14911191Y-15893714D01*
X14911191Y-15893714D02*
X14930238Y-15903238D01*
X14930238Y-15903238D02*
X14939762Y-15912762D01*
X14939762Y-15912762D02*
X14949286Y-15931809D01*
X14949286Y-15931809D02*
X14949286Y-15979428D01*
X14949286Y-15979428D02*
X14939762Y-15998476D01*
X14939762Y-15998476D02*
X14930238Y-16008000D01*
X14930238Y-16008000D02*
X14911191Y-16017524D01*
X14911191Y-16017524D02*
X14863572Y-16017524D01*
X14863572Y-16017524D02*
X14844524Y-16008000D01*
X14844524Y-16008000D02*
X14835000Y-15998476D01*
X15025476Y-15817524D02*
X15025476Y-15855619D01*
X15101667Y-15817524D02*
X15101667Y-15855619D01*
X15396905Y-16093714D02*
X15387381Y-16084190D01*
X15387381Y-16084190D02*
X15368334Y-16055619D01*
X15368334Y-16055619D02*
X15358810Y-16036571D01*
X15358810Y-16036571D02*
X15349286Y-16008000D01*
X15349286Y-16008000D02*
X15339762Y-15960381D01*
X15339762Y-15960381D02*
X15339762Y-15922286D01*
X15339762Y-15922286D02*
X15349286Y-15874667D01*
X15349286Y-15874667D02*
X15358810Y-15846095D01*
X15358810Y-15846095D02*
X15368334Y-15827048D01*
X15368334Y-15827048D02*
X15387381Y-15798476D01*
X15387381Y-15798476D02*
X15396905Y-15788952D01*
X15577857Y-16017524D02*
X15463572Y-16017524D01*
X15520714Y-16017524D02*
X15520714Y-15817524D01*
X15520714Y-15817524D02*
X15501667Y-15846095D01*
X15501667Y-15846095D02*
X15482619Y-15865143D01*
X15482619Y-15865143D02*
X15463572Y-15874667D01*
X15815953Y-16017524D02*
X15815953Y-15817524D01*
X15901667Y-16017524D02*
X15901667Y-15912762D01*
X15901667Y-15912762D02*
X15892143Y-15893714D01*
X15892143Y-15893714D02*
X15873096Y-15884190D01*
X15873096Y-15884190D02*
X15844524Y-15884190D01*
X15844524Y-15884190D02*
X15825476Y-15893714D01*
X15825476Y-15893714D02*
X15815953Y-15903238D01*
X16025476Y-16017524D02*
X16006429Y-16008000D01*
X16006429Y-16008000D02*
X15996905Y-15998476D01*
X15996905Y-15998476D02*
X15987381Y-15979428D01*
X15987381Y-15979428D02*
X15987381Y-15922286D01*
X15987381Y-15922286D02*
X15996905Y-15903238D01*
X15996905Y-15903238D02*
X16006429Y-15893714D01*
X16006429Y-15893714D02*
X16025476Y-15884190D01*
X16025476Y-15884190D02*
X16054048Y-15884190D01*
X16054048Y-15884190D02*
X16073096Y-15893714D01*
X16073096Y-15893714D02*
X16082619Y-15903238D01*
X16082619Y-15903238D02*
X16092143Y-15922286D01*
X16092143Y-15922286D02*
X16092143Y-15979428D01*
X16092143Y-15979428D02*
X16082619Y-15998476D01*
X16082619Y-15998476D02*
X16073096Y-16008000D01*
X16073096Y-16008000D02*
X16054048Y-16017524D01*
X16054048Y-16017524D02*
X16025476Y-16017524D01*
X16206429Y-16017524D02*
X16187381Y-16008000D01*
X16187381Y-16008000D02*
X16177857Y-15988952D01*
X16177857Y-15988952D02*
X16177857Y-15817524D01*
X16358810Y-16008000D02*
X16339762Y-16017524D01*
X16339762Y-16017524D02*
X16301667Y-16017524D01*
X16301667Y-16017524D02*
X16282619Y-16008000D01*
X16282619Y-16008000D02*
X16273096Y-15988952D01*
X16273096Y-15988952D02*
X16273096Y-15912762D01*
X16273096Y-15912762D02*
X16282619Y-15893714D01*
X16282619Y-15893714D02*
X16301667Y-15884190D01*
X16301667Y-15884190D02*
X16339762Y-15884190D01*
X16339762Y-15884190D02*
X16358810Y-15893714D01*
X16358810Y-15893714D02*
X16368334Y-15912762D01*
X16368334Y-15912762D02*
X16368334Y-15931809D01*
X16368334Y-15931809D02*
X16273096Y-15950857D01*
X16435000Y-16093714D02*
X16444524Y-16084190D01*
X16444524Y-16084190D02*
X16463572Y-16055619D01*
X16463572Y-16055619D02*
X16473096Y-16036571D01*
X16473096Y-16036571D02*
X16482619Y-16008000D01*
X16482619Y-16008000D02*
X16492143Y-15960381D01*
X16492143Y-15960381D02*
X16492143Y-15922286D01*
X16492143Y-15922286D02*
X16482619Y-15874667D01*
X16482619Y-15874667D02*
X16473096Y-15846095D01*
X16473096Y-15846095D02*
X16463572Y-15827048D01*
X16463572Y-15827048D02*
X16444524Y-15798476D01*
X16444524Y-15798476D02*
X16435000Y-15788952D01*
X16796905Y-16093714D02*
X16787381Y-16084190D01*
X16787381Y-16084190D02*
X16768334Y-16055619D01*
X16768334Y-16055619D02*
X16758810Y-16036571D01*
X16758810Y-16036571D02*
X16749286Y-16008000D01*
X16749286Y-16008000D02*
X16739762Y-15960381D01*
X16739762Y-15960381D02*
X16739762Y-15922286D01*
X16739762Y-15922286D02*
X16749286Y-15874667D01*
X16749286Y-15874667D02*
X16758810Y-15846095D01*
X16758810Y-15846095D02*
X16768334Y-15827048D01*
X16768334Y-15827048D02*
X16787381Y-15798476D01*
X16787381Y-15798476D02*
X16796905Y-15788952D01*
X16873096Y-15884190D02*
X16873096Y-16017524D01*
X16873096Y-15903238D02*
X16882619Y-15893714D01*
X16882619Y-15893714D02*
X16901667Y-15884190D01*
X16901667Y-15884190D02*
X16930239Y-15884190D01*
X16930239Y-15884190D02*
X16949286Y-15893714D01*
X16949286Y-15893714D02*
X16958810Y-15912762D01*
X16958810Y-15912762D02*
X16958810Y-16017524D01*
X17082619Y-16017524D02*
X17063572Y-16008000D01*
X17063572Y-16008000D02*
X17054048Y-15998476D01*
X17054048Y-15998476D02*
X17044524Y-15979428D01*
X17044524Y-15979428D02*
X17044524Y-15922286D01*
X17044524Y-15922286D02*
X17054048Y-15903238D01*
X17054048Y-15903238D02*
X17063572Y-15893714D01*
X17063572Y-15893714D02*
X17082619Y-15884190D01*
X17082619Y-15884190D02*
X17111191Y-15884190D01*
X17111191Y-15884190D02*
X17130239Y-15893714D01*
X17130239Y-15893714D02*
X17139762Y-15903238D01*
X17139762Y-15903238D02*
X17149286Y-15922286D01*
X17149286Y-15922286D02*
X17149286Y-15979428D01*
X17149286Y-15979428D02*
X17139762Y-15998476D01*
X17139762Y-15998476D02*
X17130239Y-16008000D01*
X17130239Y-16008000D02*
X17111191Y-16017524D01*
X17111191Y-16017524D02*
X17082619Y-16017524D01*
X17206429Y-15884190D02*
X17282619Y-15884190D01*
X17235000Y-15817524D02*
X17235000Y-15988952D01*
X17235000Y-15988952D02*
X17244524Y-16008000D01*
X17244524Y-16008000D02*
X17263572Y-16017524D01*
X17263572Y-16017524D02*
X17282619Y-16017524D01*
X17501667Y-15884190D02*
X17501667Y-16084190D01*
X17501667Y-15893714D02*
X17520715Y-15884190D01*
X17520715Y-15884190D02*
X17558810Y-15884190D01*
X17558810Y-15884190D02*
X17577858Y-15893714D01*
X17577858Y-15893714D02*
X17587381Y-15903238D01*
X17587381Y-15903238D02*
X17596905Y-15922286D01*
X17596905Y-15922286D02*
X17596905Y-15979428D01*
X17596905Y-15979428D02*
X17587381Y-15998476D01*
X17587381Y-15998476D02*
X17577858Y-16008000D01*
X17577858Y-16008000D02*
X17558810Y-16017524D01*
X17558810Y-16017524D02*
X17520715Y-16017524D01*
X17520715Y-16017524D02*
X17501667Y-16008000D01*
X17711191Y-16017524D02*
X17692143Y-16008000D01*
X17692143Y-16008000D02*
X17682620Y-15988952D01*
X17682620Y-15988952D02*
X17682620Y-15817524D01*
X17873096Y-16017524D02*
X17873096Y-15912762D01*
X17873096Y-15912762D02*
X17863572Y-15893714D01*
X17863572Y-15893714D02*
X17844524Y-15884190D01*
X17844524Y-15884190D02*
X17806429Y-15884190D01*
X17806429Y-15884190D02*
X17787381Y-15893714D01*
X17873096Y-16008000D02*
X17854048Y-16017524D01*
X17854048Y-16017524D02*
X17806429Y-16017524D01*
X17806429Y-16017524D02*
X17787381Y-16008000D01*
X17787381Y-16008000D02*
X17777858Y-15988952D01*
X17777858Y-15988952D02*
X17777858Y-15969905D01*
X17777858Y-15969905D02*
X17787381Y-15950857D01*
X17787381Y-15950857D02*
X17806429Y-15941333D01*
X17806429Y-15941333D02*
X17854048Y-15941333D01*
X17854048Y-15941333D02*
X17873096Y-15931809D01*
X17939762Y-15884190D02*
X18015953Y-15884190D01*
X17968334Y-15817524D02*
X17968334Y-15988952D01*
X17968334Y-15988952D02*
X17977858Y-16008000D01*
X17977858Y-16008000D02*
X17996905Y-16017524D01*
X17996905Y-16017524D02*
X18015953Y-16017524D01*
X18158810Y-16008000D02*
X18139762Y-16017524D01*
X18139762Y-16017524D02*
X18101667Y-16017524D01*
X18101667Y-16017524D02*
X18082620Y-16008000D01*
X18082620Y-16008000D02*
X18073096Y-15988952D01*
X18073096Y-15988952D02*
X18073096Y-15912762D01*
X18073096Y-15912762D02*
X18082620Y-15893714D01*
X18082620Y-15893714D02*
X18101667Y-15884190D01*
X18101667Y-15884190D02*
X18139762Y-15884190D01*
X18139762Y-15884190D02*
X18158810Y-15893714D01*
X18158810Y-15893714D02*
X18168334Y-15912762D01*
X18168334Y-15912762D02*
X18168334Y-15931809D01*
X18168334Y-15931809D02*
X18073096Y-15950857D01*
X18339762Y-16017524D02*
X18339762Y-15817524D01*
X18339762Y-16008000D02*
X18320715Y-16017524D01*
X18320715Y-16017524D02*
X18282620Y-16017524D01*
X18282620Y-16017524D02*
X18263572Y-16008000D01*
X18263572Y-16008000D02*
X18254048Y-15998476D01*
X18254048Y-15998476D02*
X18244524Y-15979428D01*
X18244524Y-15979428D02*
X18244524Y-15922286D01*
X18244524Y-15922286D02*
X18254048Y-15903238D01*
X18254048Y-15903238D02*
X18263572Y-15893714D01*
X18263572Y-15893714D02*
X18282620Y-15884190D01*
X18282620Y-15884190D02*
X18320715Y-15884190D01*
X18320715Y-15884190D02*
X18339762Y-15893714D01*
X18415953Y-16093714D02*
X18425477Y-16084190D01*
X18425477Y-16084190D02*
X18444524Y-16055619D01*
X18444524Y-16055619D02*
X18454048Y-16036571D01*
X18454048Y-16036571D02*
X18463572Y-16008000D01*
X18463572Y-16008000D02*
X18473096Y-15960381D01*
X18473096Y-15960381D02*
X18473096Y-15922286D01*
X18473096Y-15922286D02*
X18463572Y-15874667D01*
X18463572Y-15874667D02*
X18454048Y-15846095D01*
X18454048Y-15846095D02*
X18444524Y-15827048D01*
X18444524Y-15827048D02*
X18425477Y-15798476D01*
X18425477Y-15798476D02*
X18415953Y-15788952D01*
M02*
